<?xml version="1.0" encoding="UTF-8" standalone="no"?>
<svg
   version="1.1"
   width="1181pt"
   height="1087pt"
   viewBox="0 0 1181 1087"
   id="svg22"
   sodipodi:docname="iso.svg"
   inkscape:version="1.1.2 (0a00cf5339, 2022-02-04)"
   xmlns:inkscape="http://www.inkscape.org/namespaces/inkscape"
   xmlns:sodipodi="http://sodipodi.sourceforge.net/DTD/sodipodi-0.dtd"
   xmlns="http://www.w3.org/2000/svg"
   xmlns:svg="http://www.w3.org/2000/svg">
  <defs
     id="defs26" />
  <sodipodi:namedview
     id="namedview24"
     pagecolor="#ffffff"
     bordercolor="#666666"
     borderopacity="1.0"
     inkscape:pageshadow="2"
     inkscape:pageopacity="0.0"
     inkscape:pagecheckerboard="0"
     inkscape:document-units="pt"
     showgrid="false"
     inkscape:zoom="0.55680773"
     inkscape:cx="786.62701"
     inkscape:cy="724.66667"
     inkscape:window-width="1866"
     inkscape:window-height="1016"
     inkscape:window-x="1974"
     inkscape:window-y="27"
     inkscape:window-maximized="1"
     inkscape:current-layer="svg22" />
  <path
     id="path1102"
     style="fill:#ffffff"
     d="M 0,0 H 1181 V 1087 H 0 Z" />
  <g
     transform="translate(0 1087) scale(.1 -.1)"
     fill="#e30613"
     id="g20">
    <path
       id="path1099"
       style="stroke-width:0.133333"
       d="M 777.53125 5.8964844 A 723.11833 723.11833 0 0 0 54.412109 729.01367 A 723.11833 723.11833 0 0 0 731.27148 1449.334 L 787.33398 1449.334 L 840.66992 1449.334 A 723.11833 723.11833 0 0 0 1500.6504 729.01367 A 723.11833 723.11833 0 0 0 777.53125 5.8964844 z M 792 166.26758 C 794.53333 166.40091 805.73268 166.93255 816.66602 167.19922 C 854.26602 168.53255 899.06641 175.86732 939.06641 187.33398 C 1061.9997 222.53398 1167.3331 298.93346 1243.0664 407.4668 C 1247.1997 413.4668 1250.666 419.06719 1250.666 419.86719 C 1250.666 420.93385 1244.6668 421.33398 1231.4668 421.33398 L 1212.2676 421.33398 L 1206.1328 412.66602 C 1189.1995 389.19935 1156.1337 352.39974 1134.4004 333.06641 L 1125.0664 324.80078 L 1102.2676 330.5332 C 1061.4676 340.5332 1016.5324 348.66615 971.73242 354.13281 C 961.59909 355.46615 953.33398 356.93398 953.33398 357.33398 C 953.33398 357.86732 955.20013 364.2668 957.4668 371.4668 C 962.6668 388.6668 970.66602 417.46628 970.66602 419.59961 C 970.66602 420.93294 966.53333 421.33398 954 421.33398 L 937.4668 421.33398 L 935.19922 413.59961 C 934.13255 409.46628 931.86654 401.73268 930.5332 396.66602 C 926.26654 381.99935 919.73268 362.13359 918.66602 360.93359 C 918.13268 360.26693 909.33255 360.39922 899.19922 361.19922 C 889.19922 361.99922 860.80091 363.33424 836.26758 364.26758 C 789.20091 365.86758 722.93268 364.39935 678.66602 360.66602 C 667.33268 359.73268 657.59974 359.33385 657.06641 359.86719 C 655.99974 360.93385 646.40052 390.93385 641.86719 407.86719 L 638.26758 421.33398 L 621.86719 421.33398 C 606.80052 421.33398 605.33398 421.06693 605.33398 418.93359 C 605.33398 416.00026 612.93268 387.73346 618.66602 369.4668 C 620.93268 362.53346 622.26628 356.40052 621.59961 355.86719 C 621.06628 355.46719 614.39935 354.2668 606.66602 353.4668 C 570.26602 349.33346 517.46641 339.59909 477.06641 329.73242 L 452.13281 323.59961 L 445.06641 329.59961 C 423.59974 347.99961 389.06732 385.86758 371.33398 410.26758 L 363.33398 421.33398 L 343.73242 421.33398 C 332.79909 421.33398 324 420.9332 324 420.5332 C 324 418.79987 345.33398 389.2 357.33398 374 C 408.53398 309.86667 471.20065 259.46745 545.33398 222.80078 C 601.86732 194.80078 657.06667 178.4 722 170 C 738.4 167.86667 781.86667 165.60091 792 166.26758 z M 650 468.80078 C 668.13333 467.33411 730.8 469.33281 754 472.13281 C 774.8 474.66615 786.53372 475.19961 842.40039 475.59961 L 906.66602 476.13281 L 906.66602 548.13281 L 906.66602 620 L 849.33398 620 L 792.13281 620 L 791.73242 604.40039 L 791.33398 588.66602 L 783.33398 585.4668 C 760.40065 576.40013 729.60065 571.46732 695.33398 571.33398 C 661.60065 571.33398 646.40052 574.26667 631.86719 584 C 616.93385 593.73333 614.79922 613.60052 627.19922 625.86719 C 640.13255 638.93385 655.99935 643.06719 726.66602 651.86719 C 787.73268 659.60052 811.33359 664.53281 840.93359 676.13281 C 855.20026 681.73281 873.20039 692.26576 884.40039 701.73242 C 900.93372 715.46576 914.53411 738.13281 920.80078 762.13281 C 925.46745 779.99948 926.80013 814.39935 923.4668 832.66602 C 917.73346 863.86602 905.99987 886.26602 884.5332 906.66602 C 861.3332 928.79935 831.46758 943.3332 790.26758 952.5332 C 744.80091 962.79987 680.40052 964.39974 615.86719 957.06641 C 593.73385 954.66641 580.93242 954.13242 527.73242 953.73242 L 465.33398 953.19922 L 465.33398 881.86719 L 465.33398 810.66602 L 522.66602 810.66602 L 580 810.66602 L 580 825.33398 L 580 840 L 585.19922 842.66602 C 602.13255 851.19935 636.93294 857.46758 673.59961 858.26758 C 736.79961 859.86758 765.20065 848.66667 765.33398 822 C 765.33398 811.6 762.39961 806.00052 753.59961 799.86719 C 740.79961 790.80052 722.80065 786.66732 665.33398 779.33398 C 596.26732 770.40065 568.93359 764.13333 538.93359 750 C 491.06693 727.33333 467.46602 692.80039 462.66602 638.40039 C 459.99935 609.60039 464.66667 582.66589 476 559.19922 C 501.46667 506.53255 559.73333 476.26745 650 468.80078 z M 1176.666 468.80078 C 1189.9993 467.46745 1243.9993 469.06732 1258.666 471.33398 C 1318.1327 480.26732 1365.4661 502.66589 1402.1328 539.19922 C 1446.7995 583.86589 1468.4009 641.19935 1468.2676 714.66602 C 1468.2676 749.86602 1464.3992 776.26667 1455.1992 804 C 1423.8659 898.13333 1342.6671 954.39922 1228.4004 961.19922 C 1168.5337 964.66589 1107.6 952.79974 1064 929.06641 C 1034.5333 913.06641 1003.2009 884.93398 986.26758 859.33398 C 965.73424 828.13398 953.06667 792.39935 948 750.66602 C 946 733.99935 946.39935 691.86706 948.66602 674.40039 C 959.59935 591.73372 1003.8664 529.06732 1075.0664 495.33398 C 1104.7997 481.33398 1136.9327 472.93411 1176.666 468.80078 z M 122.66602 477.33398 L 276.66602 477.33398 L 430.66602 477.33398 L 430.66602 536.66602 L 430.66602 596 L 392 596 L 353.33398 596 L 353.33398 716 L 353.33398 836 L 392 836 L 430.66602 836 L 430.66602 895.33398 L 430.66602 954.66602 L 277.06641 954.40039 L 123.33398 954 L 122.93359 894.93359 L 122.66602 836 L 161.33398 836 L 200 836 L 200 716 L 200 596 L 161.73242 595.73242 L 123.33398 595.33398 L 122.93359 536.26758 L 122.66602 477.33398 z M 343.73242 1010.666 L 363.59961 1010.666 L 368 1016.9336 C 384.93333 1040.9336 422.00026 1082.1342 442.93359 1100.2676 L 450.5332 1106.8008 L 472.26758 1101.4668 C 514.00091 1091.2001 555.33333 1083.6004 598 1078.4004 C 611.2 1076.8004 622.13372 1075.3326 622.40039 1075.1992 C 622.66706 1075.0659 620.93268 1069.0658 618.66602 1061.7324 C 613.19935 1044.5324 605.33398 1015.9997 605.33398 1013.0664 C 605.33398 1010.9331 606.93385 1010.666 621.86719 1010.666 L 638.26758 1010.666 L 641.86719 1023.5996 C 643.86719 1030.7996 648.00026 1044.6665 650.93359 1054.5332 L 656.5332 1072.2676 L 664 1071.4668 C 707.06667 1067.0668 819.33333 1065.8673 872 1069.334 C 888.53333 1070.4007 905.86654 1071.334 910.5332 1071.334 L 919.19922 1071.334 L 923.73242 1057.334 C 926.26576 1049.6007 930.26602 1036.134 932.66602 1027.334 L 937.06641 1011.334 L 953.86719 1010.9336 C 965.06719 1010.6669 970.66602 1011.0667 970.66602 1012 C 970.66602 1014.2667 959.0668 1055.8676 955.4668 1066.2676 L 952.13281 1075.8672 L 956.40039 1076.5332 C 958.80039 1076.9332 968.13398 1078.2673 977.33398 1079.334 C 1016.4007 1084.2673 1064.9324 1093.4674 1101.7324 1102.8008 C 1120.7991 1107.7341 1123.0658 1108.0009 1125.7324 1106.2676 C 1132.1324 1102.0009 1160.9341 1073.3324 1174.8008 1057.7324 C 1182.8008 1048.5324 1194.5341 1034.2672 1200.8008 1025.8672 L 1212.4004 1010.666 L 1231.4668 1010.666 C 1242.0001 1010.666 1250.666 1011.1991 1250.666 1011.7324 C 1250.666 1013.4658 1233.0674 1038.8 1222.8008 1052 C 1130.8008 1170.5333 994.93268 1246.2669 844.66602 1262.9336 C 819.86602 1265.6003 748.13268 1265.2009 724.66602 1262.2676 C 602.66602 1246.5342 499.86602 1198.5329 410.66602 1115.5996 C 379.99935 1087.0663 341.60078 1040.9342 324.80078 1012.2676 C 324.00078 1011.0676 328.13242 1010.666 343.73242 1010.666 z "
       transform="matrix(7.5,0,0,-7.5,0,10870)" />
    <path
       d="m5769 9367c-231-79-451-329-653-742-46-93-86-178-89-187-5-14 3-18 46-23 248-27 898-41 1252-26 425 18 465 21 465 40 0 25-150 326-214 428-130 210-259 356-391 443-139 90-280 113-416 67z"
       id="path1096" />
    <path
       d="m5210 9328c-536-113-974-294-1432-594-112-73-148-104-120-104 4 0 68-14 142-30 242-55 747-138 923-152l38-3 42 100c122 285 312 596 466 758 34 36 34 37 11 36-14-1-45-5-70-11z"
       id="path1093" />
    <path
       d="m6555 9298c69-80 183-237 241-330 71-115 178-325 224-442l35-87 65 6c315 31 1060 162 1060 187 0 5-64 51-142 102-426 281-898 481-1367 580-161 34-160 34-116-16z"
       id="path1090" />
    <path
       d="m8921 6509c-333-51-527-288-587-716-23-167-15-526 15-666 95-438 340-643 745-624 211 10 326 56 451 182 174 173 244 412 245 825 0 339-49 554-167 732-82 125-215 217-363 253-83 19-256 27-339 14z"
       id="path1087" />
    <path
       d="m5480 2614c-270-15-455-26-458-29-8-8 118-267 184-381 142-244 282-408 426-502 94-61 151-81 244-89 91-7 157 8 259 60 115 59 281 226 394 397 75 113 261 468 261 498 0 16-21 19-215 32-164 11-963 21-1095 14z"
       id="path1084" />
    <path
       d="m4655 2553c-16-2-112-15-213-29-240-33-428-65-639-110-134-29-170-40-162-50 18-22 281-191 413-264 342-191 714-332 1086-410 77-17 145-30 151-30s-13 28-43 63c-162 185-315 437-439 722l-48 110-38 1c-21 1-51 0-68-3z"
       id="path1081" />
    <path
       d="m7031 2497c-37-94-161-340-226-447-70-116-155-234-229-319-31-36-54-66-52-69 11-11 351 71 533 129 327 104 739 308 1037 513l88 61-53 12c-268 62-589 120-844 153-88 11-176 22-195 25-35 4-35 4-59-58z"
       id="path1078" />
  </g>
  <g
     id="path884"
     style="opacity:0.8">
    <path
       style="color:#000000;fill:#000000;stroke-linecap:round;stroke-linejoin:round;-inkscape-stroke:none"
       d="M 583.14844,4.234375 C 439.26175,4.234375 301.26669,61.393464 199.52344,163.13672 97.780183,264.87997 40.623047,402.87308 40.623047,546.75977 40.623047,690.64646 97.780183,828.64151 199.52344,930.38477 301.26669,1032.128 439.26175,1089.2871 583.14844,1089.2871 727.03513,1089.2871 865.02823,1032.128 966.77148,930.38477 1068.5147,828.64151 1125.6738,690.64646 1125.6738,546.75977 1125.6738,402.87308 1068.5147,264.87997 966.77148,163.13672 865.02823,61.393464 727.03513,4.234375 583.14844,4.234375 Z M 583.14844,4.609375 C 726.93582,4.609375 864.83478,61.729313 966.50781,163.40234 1068.1808,265.07537 1125.2988,402.97239 1125.2988,546.75977 1125.2988,690.54714 1068.1808,828.44611 966.50781,930.11914 864.83478,1031.7922 726.93582,1088.9121 583.14844,1088.9121 439.36106,1088.9121 301.46209,1031.7922 199.78906,930.11914 98.116032,828.44611 40.996094,690.54714 40.996094,546.75977 40.996094,402.97239 98.116032,265.07537 199.78906,163.40234 301.46209,61.729313 439.36106,4.609375 583.14844,4.609375 Z"
       id="path1072" />
  </g>
</svg>
