<?xml version="1.0" encoding="UTF-8" standalone="no"?>
<svg
   version="1.1"
   width="1084.6797pt"
   height="1085.666pt"
   viewBox="0 0 1084.6797 1085.666"
   id="svg22"
   sodipodi:docname="iso.svg"
   inkscape:version="1.1.2 (0a00cf5339, 2022-02-04)"
   xmlns:inkscape="http://www.inkscape.org/namespaces/inkscape"
   xmlns:sodipodi="http://sodipodi.sourceforge.net/DTD/sodipodi-0.dtd"
   xmlns="http://www.w3.org/2000/svg"
   xmlns:svg="http://www.w3.org/2000/svg">
  <defs
     id="defs26" />
  <sodipodi:namedview
     id="namedview24"
     pagecolor="#ffffff"
     bordercolor="#666666"
     borderopacity="1.0"
     inkscape:pageshadow="2"
     inkscape:pageopacity="0.0"
     inkscape:pagecheckerboard="true"
     inkscape:document-units="pt"
     showgrid="false"
     inkscape:zoom="0.55022727"
     inkscape:cx="721.52003"
     inkscape:cy="727.88104"
     inkscape:window-width="1866"
     inkscape:window-height="1016"
     inkscape:window-x="1974"
     inkscape:window-y="27"
     inkscape:window-maximized="1"
     inkscape:current-layer="svg22"
     fit-margin-top="0"
     fit-margin-left="0"
     fit-margin-right="0"
     fit-margin-bottom="0" />
  <g
     transform="matrix(0.1,0,0,-0.1,-8.4504619,1083.0756)"
     fill="#e30613"
     id="g20">
    <path
       style="stroke-width:0.999997"
       d="M 5507.9072,10820.871 A 5423.3875,5423.3875 0 0 1 84.513613,5397.4914 5423.3875,5423.3875 0 0 1 5160.9589,-4.9110157 H 5581.4277 5981.4472 A 5423.3875,5423.3875 0 0 1 10931.301,5397.4914 5423.3875,5423.3875 0 0 1 5507.9072,10820.871 Z"
       id="path1099" />
    <path
       id="path1672"
       style="fill:#ffffff;fill-opacity:0.996977;stroke-width:0.999997"
       d="M 2254.416,3285.0989 C 2137.416,3285.0989 2106.4287,3282.0869 2112.4287,3273.0869 2238.4287,3058.0874 2526.4179,2712.0967 2756.418,2498.0969 3425.418,1876.0972 4196.418,1516.0874 5111.418,1398.0869 5287.4179,1376.0872 5825.418,1373.0917 6011.418,1393.0919 7138.4179,1518.0922 8157.4288,2086.0942 8847.4288,2975.0939 8924.4283,3074.0939 9056.4178,3264.1004 9056.4178,3277.1009 9056.4178,3281.1007 8991.4236,3285.0989 8912.4238,3285.0989 H 8769.4258 L 8682.4288,3171.0899 C 8635.4286,3108.0899 8547.4288,3001.1009 8487.4288,2932.1009 8383.4286,2815.1009 8167.4158,2600.0872 8119.4158,2568.0869 8099.4163,2555.0872 8082.4161,2557.0882 7939.4158,2594.0879 7663.4158,2664.0884 7299.4281,2733.0892 7006.4277,2770.0889 6937.4277,2778.0892 6867.4257,2788.0949 6849.4257,2791.0949 L 6817.4189,2796.0899 6842.4238,2868.0869 C 6869.4238,2946.0869 6956.418,3258.0937 6956.418,3275.0939 6956.418,3282.0937 6914.4267,3285.0922 6830.4267,3283.0919 L 6704.4209,3280.0889 6671.418,3160.0889 C 6653.418,3094.0889 6623.416,2993.0887 6604.416,2935.0889 L 6570.417,2830.0889 H 6505.4218 C 6470.4219,2830.0889 6340.4228,2837.0887 6216.4228,2845.0889 5821.4228,2871.0892 4979.4228,2862.0929 4656.4228,2829.0929 L 4600.4218,2823.0869 4558.4247,2956.0949 C 4536.4248,3030.0952 4505.4267,3134.0969 4490.4267,3188.0969 L 4463.4297,3285.0989 H 4340.4267 C 4228.4267,3285.0989 4216.4277,3283.0957 4216.4277,3267.0959 4216.4277,3245.0962 4275.4179,3031.1009 4316.418,2902.1009 4333.4179,2847.1004 4346.4258,2802.0997 4344.4257,2801.0999 4342.4257,2800.0994 4260.4228,2789.0909 4161.4228,2777.0909 3841.4228,2738.0909 3531.4296,2681.0932 3218.4297,2604.0929 L 3055.4218,2564.0879 2998.4247,2613.0869 C 2841.4248,2749.0874 2563.4228,3058.0919 2436.4228,3238.0919 L 2403.4199,3285.0989 Z M 5360.1484,2611.4024 C 5648.2422,2611.0274 6128.418,2603.3489 6251.418,2595.0989 6445.4179,2582.0992 6466.4277,2579.0917 6466.4277,2563.0919 6466.4277,2533.0919 6280.4218,2178.0892 6205.4218,2065.0889 6092.4219,1894.0889 5926.4228,1727.0872 5811.4228,1668.0869 5709.4228,1616.0872 5643.4238,1601.0872 5552.4238,1608.0869 5459.4238,1616.0872 5402.4248,1636.0912 5308.4247,1697.0909 5164.4247,1791.0907 5024.4189,1955.0932 4882.4189,2199.0929 4816.4189,2313.0929 4690.4199,2572.0987 4698.4199,2580.0989 4701.4199,2583.0989 4886.418,2594.0879 5156.418,2609.0879 5189.418,2610.8384 5264.1171,2611.5277 5360.1484,2611.4024 Z M 6745.8174,2551.4317 C 6751.1142,2551.8382 6757.6777,2551.0987 6766.4277,2550.0989 6785.4277,2547.0989 6873.4277,2536.0942 6961.4277,2525.0939 7216.4278,2492.0939 7537.4271,2434.0912 7805.4268,2372.0909 L 7858.4248,2360.0939 7770.4168,2299.0979 C 7472.4171,2094.0982 7060.4247,1890.0952 6733.4247,1786.0949 6551.4248,1728.0952 6211.4267,1646.1007 6200.4267,1657.1009 6198.4267,1660.1009 6221.4287,1690.0949 6252.4287,1726.0949 6326.4287,1811.0947 6411.4277,1929.0937 6481.4277,2045.0939 6546.4277,2152.0942 6670.4238,2398.0912 6707.4238,2492.0909 6725.4238,2538.5909 6729.9267,2550.2129 6745.8174,2551.4317 Z M 4399.416,2551.0949 4437.4287,2550.0989 4485.417,2440.0889 C 4609.4169,2155.0889 4762.416,1903.0972 4924.416,1718.0969 4954.416,1683.0967 4973.4238,1655.0939 4967.4238,1655.0939 4961.4238,1655.0939 4893.4277,1668.0937 4816.4277,1685.0939 4444.4277,1763.0939 4072.4218,1904.0887 3730.4218,2095.0889 3598.4218,2168.0887 3335.4238,2337.0982 3317.4238,2359.0979 3309.4238,2369.0977 3345.4209,2380.0927 3479.4209,2409.0929 3690.4209,2454.0929 3878.4297,2486.0879 4118.4297,2519.0879 4219.4296,2533.0882 4315.4179,2546.0917 4331.418,2548.0919 4348.4179,2551.0919 4378.416,2552.0947 4399.416,2551.0949 Z" />
    <path
       style="fill:#ffffff;fill-opacity:0.996977;stroke-width:0.999997"
       d="M 596.41794,7285.0891 H 1751.418 2906.418 V 6840.0988 6395.0939 H 2616.4228 2326.4277 V 5495.0939 4595.0939 H 2616.4228 2906.418 V 4150.0891 3705.0988 L 1754.4209,3707.091 601.42764,3710.0939 598.42472,4153.092 596.41794,4595.0939 H 886.42764 1176.4228 V 5495.0939 6395.0939 L 889.41594,6397.1008 601.42764,6400.0891 598.42472,6843.0871 Z"
       id="path1670" />
    <path
       id="path1668"
       style="fill:#ffffff;fill-opacity:0.996977;stroke-width:0.999997"
       d="M 8624.2303,7352.7356 C 8570.4808,7352.7198 8526.4176,7351.5881 8501.4178,7349.0881 8203.4181,7318.0881 7962.4206,7255.0891 7739.4208,7150.0891 7205.4208,6897.089 6873.4179,6427.091 6791.418,5807.091 6774.4179,5676.091 6771.4228,5360.0988 6786.4228,5235.0988 6824.4228,4922.0988 6919.4296,4654.0891 7073.4297,4420.0891 7200.4296,4228.0891 7435.4226,4017.0959 7656.4228,3897.0959 7983.4228,3719.0959 8440.4256,3630.0998 8889.4258,3656.0998 9746.4261,3707.0998 10355.417,4129.094 10590.417,4835.0939 10659.417,5043.0939 10688.43,5241.0988 10688.43,5505.0988 10689.43,6056.0988 10527.419,6486.0998 10192.419,6821.0998 9917.4186,7095.0998 9562.4181,7263.089 9116.4178,7330.0891 9033.9178,7342.839 8785.4803,7352.7827 8624.2303,7352.7356 Z M 8766.9208,6509.0881 C 8830.9206,6506.3381 8894.9181,6499.589 8936.4178,6490.0891 9084.4176,6454.0891 9217.4211,6362.0959 9299.4208,6237.0959 9417.4206,6059.0959 9466.4278,5844.0988 9466.4278,5505.0988 9465.4281,5092.0988 9395.4178,4853.0988 9221.4178,4680.0988 9096.4176,4554.0988 8981.4216,4508.092 8770.4218,4498.092 8365.4218,4479.092 8120.4171,4684.1008 8025.4168,5122.1008 7995.4168,5262.1007 7987.4173,5621.092 8010.4168,5788.092 8070.4168,6216.092 8264.4238,6453.0929 8597.4238,6504.0929 8638.9236,6510.593 8702.9211,6511.8381 8766.9208,6509.0881 Z" />
    <path
       style="fill:#ffffff;fill-opacity:0.996977;stroke-width:0.999997"
       d="M 4551.4228,7349.0881 C 4687.4228,7360.0881 5157.4228,7345.0979 5331.4228,7324.0979 5487.4228,7305.0978 5575.4257,7301.0969 5994.4257,7298.0969 L 6476.418,7294.0979 V 6754.0979 6215.0939 H 6046.4277 5617.4189 L 5614.416,6332.091 5611.4277,6450.0988 5551.4277,6474.0929 C 5379.4277,6542.093 5148.4277,6579.089 4891.4277,6580.0891 4638.4277,6580.0891 4524.4267,6558.0939 4415.4267,6485.0939 4303.4267,6412.094 4287.417,6263.09 4380.417,6171.09 4477.4169,6073.0901 4596.4179,6042.09 5126.418,5976.09 5584.4179,5918.09 5761.4247,5881.0979 5983.4247,5794.0979 6090.4248,5752.0979 6225.4257,5673.1007 6309.4257,5602.1008 6433.4257,5499.1007 6535.4286,5329.0979 6582.4287,5149.0979 6617.4287,5015.0978 6627.4238,4757.0988 6602.4238,4620.0988 6559.4238,4386.0988 6471.4218,4218.0988 6310.4218,4065.0988 6136.4218,3899.0988 5912.4297,3790.0949 5603.4297,3721.0949 5262.4296,3644.0949 4779.4267,3632.0959 4295.4267,3687.0959 4129.4267,3705.0959 4033.416,3709.1008 3634.416,3712.1008 L 3166.4277,3716.0998 V 4251.09 4785.0988 H 3596.418 4026.4228 V 4675.0891 4565.0939 L 4065.417,4545.0988 C 4192.4169,4481.0988 4453.4199,4434.0871 4728.4199,4428.0871 5202.4199,4416.0871 5415.4277,4500.0939 5416.4277,4700.0939 5416.4277,4778.0939 5394.4199,4820.09 5328.4199,4866.09 5232.4199,4934.09 5097.4277,4965.089 4666.4277,5020.0891 4148.4277,5087.0891 3943.4247,5134.094 3718.4247,5240.0939 3359.4248,5410.094 3182.418,5669.091 3146.418,6077.091 3126.4179,6293.091 3161.4228,6495.0998 3246.4228,6671.0998 3437.4228,7066.0998 3874.4228,7293.0881 4551.4228,7349.0881 Z"
       id="path1666" />
    <path
       id="path1664"
       style="fill:#ffffff;fill-opacity:0.996977;stroke-width:0.999997"
       d="M 5616.4228,9618.0871 C 5540.4228,9623.0871 5214.4228,9606.0939 5091.4228,9590.0939 4604.4228,9527.0939 4190.4277,9404.0881 3766.4277,9194.0881 3210.4277,8919.0881 2740.4277,8541.0939 2356.4277,8060.0939 2266.4277,7946.0939 2106.4228,7724.0949 2106.4228,7711.0949 2106.4228,7708.0949 2172.416,7705.0891 2254.416,7705.0891 H 2401.4277 L 2461.4277,7788.0871 C 2594.4277,7971.0871 2853.4209,8255.0969 3014.4209,8393.0969 L 3067.4189,8438.0969 3254.4209,8392.1008 C 3557.4209,8318.1008 3953.418,8245.093 4226.418,8214.0929 4284.4179,8208.0929 4334.4199,8199.09 4338.4199,8196.09 4343.4199,8192.09 4333.4179,8146.093 4316.418,8094.0929 4273.4179,7957.093 4216.4277,7745.092 4216.4277,7723.092 4216.4277,7707.092 4227.4267,7705.0891 4340.4267,7705.0891 H 4463.4297 L 4490.4267,7806.09 C 4524.4267,7933.0901 4596.4209,8158.0901 4604.4209,8166.09 4608.4209,8170.0901 4681.4179,8167.0988 4766.418,8160.0988 5098.4179,8132.0988 5595.4296,8121.0871 5948.4297,8133.0871 6132.4296,8140.0871 6345.417,8150.0998 6420.417,8156.0998 6496.4169,8162.0998 6562.4179,8163.092 6566.418,8158.092 6574.4179,8149.092 6623.4219,8000.0988 6655.4218,7890.0988 6665.4219,7852.0988 6682.4169,7794.0968 6690.417,7763.0969 L 6707.4238,7705.0891 H 6831.4228 C 6925.4228,7705.0891 6956.418,7708.0969 6956.418,7718.0969 6956.418,7734.0968 6896.4238,7950.0929 6857.4238,8079.0929 6840.4238,8133.0929 6826.4277,8181.089 6826.4277,8185.0891 6826.4277,8188.0891 6888.416,8199.0978 6964.416,8209.0979 7300.4158,8250.0978 7637.4298,8311.0949 7943.4298,8386.0949 L 8114.4208,8429.0881 8184.4258,8367.0959 C 8347.4256,8222.0959 8595.4191,7946.0988 8722.4188,7770.0988 L 8768.4298,7705.0891 H 8912.4238 C 9011.4238,7705.0891 9056.4178,7708.0901 9056.4178,7716.09 9056.4178,7722.09 9030.4206,7764.0929 8999.4208,7809.0929 8431.4211,8623.093 7641.4206,9196.0891 6719.4209,9460.0891 6419.4209,9546.089 6083.418,9601.0998 5801.418,9611.0998 5719.4179,9613.0998 5635.4228,9617.0871 5616.4228,9618.0871 Z M 5600.163,9384.84 C 5686.8915,9381.422 5774.5429,9351.3391 5861.418,9295.0891 5993.418,9208.0891 6122.4287,9062.091 6252.4287,8852.091 6316.4286,8750.091 6466.4277,8449.093 6466.4277,8424.0929 6466.4277,8405.093 6426.4277,8402.0881 6001.4277,8384.0881 5647.4277,8369.0881 4997.4258,8383.0891 4749.4257,8410.0891 4706.4258,8415.089 4698.4296,8419.0871 4703.4297,8433.0871 4706.4297,8442.0871 4746.4189,8527.0891 4792.4189,8620.0891 4994.4189,9033.089 5214.417,9283.091 5445.417,9362.091 5496.417,9379.341 5548.1259,9386.8908 5600.163,9384.84 Z M 4956.4228,9334.0979 C 4979.4228,9335.0978 4979.4219,9334.092 4945.4218,9298.092 4791.4218,9136.092 4601.4258,8825.0939 4479.4257,8540.0939 L 4437.4287,8440.0891 4399.416,8443.092 C 4223.416,8457.092 3718.4179,8540.0988 3476.418,8595.0988 3402.4179,8611.0988 3338.416,8625.0988 3334.416,8625.0988 3306.416,8625.0988 3342.416,8656.0881 3454.416,8729.0881 3912.416,9029.0881 4350.4179,9210.0968 4886.418,9323.0969 4911.4179,9329.0969 4942.4228,9333.0978 4956.4228,9334.0979 Z M 6212.541,9332.5891 C 6226.916,9334.589 6266.9238,9326.093 6347.4238,9309.0929 6816.4238,9210.0929 7288.4158,9010.0881 7714.4158,8729.0881 7792.4158,8678.0881 7856.4178,8632.091 7856.4178,8627.091 7856.4178,8602.091 7111.4277,8471.0891 6796.4277,8440.0891 L 6731.418,8434.0979 6696.4228,8521.0949 C 6650.4228,8638.0949 6543.4189,8848.0969 6472.4189,8963.0969 6414.4189,9056.0969 6300.4228,9213.0968 6231.4228,9293.0969 6209.4228,9318.0968 6198.166,9330.5891 6212.541,9332.5891 Z" />
  </g>
</svg>
