<?xml version="1.0" encoding="UTF-8" standalone="no"?>
<svg
   role="img"
   width="1000mm"
   height="1000mm"
   viewBox="0 0 1000 1000"
   style="max-width:1.6em; height: auto;"
   version="1.1"
   id="svg3"
   sodipodi:docname="error.svg"
   inkscape:version="1.1.2 (0a00cf5339, 2022-02-04)"
   xmlns:inkscape="http://www.inkscape.org/namespaces/inkscape"
   xmlns:sodipodi="http://sodipodi.sourceforge.net/DTD/sodipodi-0.dtd"
   xmlns="http://www.w3.org/2000/svg"
   xmlns:svg="http://www.w3.org/2000/svg">
  <defs
     id="defs7" />
  <sodipodi:namedview
     id="namedview5"
     pagecolor="#ffffff"
     bordercolor="#666666"
     borderopacity="1.0"
     inkscape:pageshadow="2"
     inkscape:pageopacity="0.0"
     inkscape:pagecheckerboard="0"
     inkscape:document-units="mm"
     showgrid="false"
     inkscape:zoom="0.22330833"
     inkscape:cx="1889.7638"
     inkscape:cy="1892.0028"
     inkscape:window-width="1866"
     inkscape:window-height="1016"
     inkscape:window-x="1974"
     inkscape:window-y="27"
     inkscape:window-maximized="1"
     inkscape:current-layer="svg3" />
  <path
     style="opacity:1;vector-effect:none;fill:#e83c4b;fill-opacity:1"
     d="M 500,0 C 224,0 0,224 0,500 0,776 224,1000 500,1000 776,1000 1000,776 1000,500 1000,224 776,0 500,0 500,0 500,0 500,0"
     id="path"
     inkscape:export-filename="/home/philippe/uabox/2023-2024/projects/thememoriser/src/assets/static/icons/error.png"
     inkscape:export-xdpi="6.3499999"
     inkscape:export-ydpi="6.3499999" />
  <path
     style="opacity:1;vector-effect:none;fill:#ffffff;fill-opacity:1"
     d="M 253,677 C 242,666 242,652 253,641 253,641 394,500 394,500 394,500 253,359 253,359 242,348 242,334 253,323 253,323 323,253 323,253 334,242 348,242 359,253 359,253 500,394 500,394 500,394 641,253 641,253 652,242 666,242 677,253 677,253 747,323 747,323 758,334 758,348 747,359 747,359 606,500 606,500 606,500 747,641 747,641 758,652 758,666 747,677 747,677 677,747 677,747 666,758 652,758 641,747 641,747 500,606 500,606 500,606 359,747 359,747 348,758 334,758 323,747 323,747 253,677 253,677"
     id="path844"
     inkscape:export-filename="/home/philippe/uabox/2023-2024/projects/thememoriser/src/assets/static/icons/error.png"
     inkscape:export-xdpi="12.44"
     inkscape:export-ydpi="12.44" />
</svg>
