<?xml version="1.0" encoding="UTF-8" standalone="no"?>
<svg
   role="img"
   width="1000mm"
   height="1000mm"
   viewBox="0 0 1000 1000"
   style="max-width:1.6em; height: auto;"
   version="1.1"
   id="svg3"
   sodipodi:docname="logout.svg"
   inkscape:version="1.1.2 (0a00cf5339, 2022-02-04)"
   xmlns:inkscape="http://www.inkscape.org/namespaces/inkscape"
   xmlns:sodipodi="http://sodipodi.sourceforge.net/DTD/sodipodi-0.dtd"
   xmlns="http://www.w3.org/2000/svg"
   xmlns:svg="http://www.w3.org/2000/svg">
  <defs
     id="defs7" />
  <sodipodi:namedview
     id="namedview5"
     pagecolor="#ffffff"
     bordercolor="#666666"
     borderopacity="1.0"
     inkscape:pageshadow="2"
     inkscape:pageopacity="0.0"
     inkscape:pagecheckerboard="0"
     inkscape:document-units="mm"
     showgrid="false"
     inkscape:zoom="0.21351875"
     inkscape:cx="384.04121"
     inkscape:cy="1889.7638"
     inkscape:window-width="1866"
     inkscape:window-height="1016"
     inkscape:window-x="1974"
     inkscape:window-y="27"
     inkscape:window-maximized="1"
     inkscape:current-layer="svg3" />
  <path
     style="opacity:1;vector-effect:none;fill:#3454d1;fill-opacity:1"
     d="M 500,0 C 224,0 0,224 0,500 0,776 224,1000 500,1000 776,1000 1000,776 1000,500 1000,224 776,0 500,0 500,0 500,0 500,0"
     id="path"
     inkscape:export-filename="/home/philippe/uabox/2023-2024/projects/thememoriser/src/assets/static/icons/logout.png"
     inkscape:export-xdpi="6.3499999"
     inkscape:export-ydpi="6.3499999" />
  <path
     style="opacity:1;vector-effect:none;fill:#e83c4b;fill-opacity:1"
     d="M 312,1000 C 292,1000 333,1000 500,1000 417,1000 333,1000 312,1000 312,1000 312,1000 312,1000"
     id="path848"
     inkscape:export-filename="/home/philippe/uabox/2023-2024/projects/thememoryzer/src/raw/icons/logout.png"
     inkscape:export-xdpi="6.3499999"
     inkscape:export-ydpi="6.3499999" />
  <path
     style="opacity:1;vector-effect:none;fill:#ffffff;fill-opacity:1;stroke-width:0.78177"
     d="M 621.62535,301.43031 C 631.0066,301.43031 644.2967,307.68447 660.71388,324.10165 660.71388,324.10165 797.5237,460.91148 797.5237,460.91148 824.88567,488.27344 824.88567,512.50833 797.5237,539.08852 797.5237,539.08852 660.71388,675.89835 660.71388,675.89835 621.62535,714.98687 602.08109,695.44261 602.08109,675.89835 602.08109,675.89835 602.08109,578.17704 602.08109,578.17704 602.08109,578.17704 484.81553,578.17704 484.81553,578.17704 460.58064,578.17704 445.72701,568.7958 445.72701,539.08852 445.72701,539.08852 445.72701,460.91148 445.72701,460.91148 445.72701,433.54951 459.0171,422.60472 484.81553,421.82296 484.81553,421.82296 602.08109,421.82296 602.08109,421.82296 602.08109,421.82296 602.08109,324.10165 602.08109,324.10165 602.08109,313.15686 608.33525,301.43031 621.62535,301.43031 621.62535,301.43031 621.62535,301.43031 621.62535,301.43031"
     id="path846"
     inkscape:export-filename="/home/philippe/uabox/2023-2024/projects/thememoryzer/src/raw/icons/logout.png"
     inkscape:export-xdpi="6.3499999"
     inkscape:export-ydpi="6.3499999" />
  <path
     style="opacity:1;vector-effect:none;fill:#ffffff;fill-opacity:1;stroke-width:0.78177"
     d="M 308.91718,265.46887 C 308.91718,265.46887 406.63849,265.46887 406.63849,265.46887 418.36504,265.46887 426.18274,273.28657 426.18274,285.01313 426.18274,285.01313 426.18274,324.10165 426.18274,324.10165 426.18274,335.82821 418.36504,343.64591 406.63849,343.64591 406.63849,343.64591 308.91718,343.64591 308.91718,343.64591 281.55521,343.64591 269.82866,355.37246 269.82866,382.73443 269.82866,382.73443 269.82866,617.26557 269.82866,617.26557 269.82866,644.62754 281.55521,656.35409 308.91718,656.35409 308.91718,656.35409 406.63849,656.35409 406.63849,656.35409 418.36504,656.35409 426.18274,664.17179 426.18274,675.89835 426.18274,675.89835 426.18274,714.98687 426.18274,714.98687 426.18274,726.71343 418.36504,734.53113 406.63849,734.53113 406.63849,734.53113 308.91718,734.53113 308.91718,734.53113 230.74013,734.53113 191.65161,695.44261 191.65161,617.26557 191.65161,617.26557 190.86984,381.17089 190.86984,381.17089 190.86984,302.99385 230.74013,265.46887 308.91718,265.46887 308.91718,265.46887 308.91718,265.46887 308.91718,265.46887"
     id="path844"
     inkscape:export-filename="/home/philippe/uabox/2023-2024/projects/thememoryzer/src/raw/icons/logout.png"
     inkscape:export-xdpi="6.3499999"
     inkscape:export-ydpi="6.3499999" />
</svg>
