<?xml version="1.0" encoding="UTF-8" standalone="no"?>
<svg
   role="img"
   width="1000mm"
   height="1000mm"
   viewBox="0 0 1000 1000"
   style="max-width:1.6em; height: auto;"
   version="1.1"
   id="svg3"
   sodipodi:docname="special-characters.svg"
   inkscape:version="1.1.2 (0a00cf5339, 2022-02-04)"
   xmlns:inkscape="http://www.inkscape.org/namespaces/inkscape"
   xmlns:sodipodi="http://sodipodi.sourceforge.net/DTD/sodipodi-0.dtd"
   xmlns="http://www.w3.org/2000/svg"
   xmlns:svg="http://www.w3.org/2000/svg">
  <defs
     id="defs7">
    <rect
       x="731.79542"
       y="854.46877"
       width="2051.0775"
       height="2164.6293"
       id="rect27641" />
    <rect
       x="866.66578"
       y="878.37313"
       width="414.96454"
       height="554.97363"
       id="rect4601" />
    <rect
       x="731.79541"
       y="854.46875"
       width="2549.5572"
       height="3102.4951"
       id="rect27641-1" />
    <rect
       x="731.79541"
       y="854.46875"
       width="2549.5571"
       height="3102.4951"
       id="rect27641-1-6" />
    <rect
       x="731.79541"
       y="854.46875"
       width="2549.5571"
       height="3102.4951"
       id="rect27641-1-6-5" />
  </defs>
  <sodipodi:namedview
     id="namedview5"
     pagecolor="#ffffff"
     bordercolor="#666666"
     borderopacity="1.0"
     inkscape:pageshadow="2"
     inkscape:pageopacity="0.0"
     inkscape:pagecheckerboard="0"
     inkscape:document-units="mm"
     showgrid="false"
     inkscape:zoom="0.21351875"
     inkscape:cx="384.04121"
     inkscape:cy="1889.7638"
     inkscape:window-width="1866"
     inkscape:window-height="1016"
     inkscape:window-x="1974"
     inkscape:window-y="27"
     inkscape:window-maximized="1"
     inkscape:current-layer="svg3" />
  <path
     id="path"
     style="opacity:1;vector-effect:none;fill:#3454d1;fill-opacity:1"
     d="M 500,0 C 224,0 0,224 0,500 0,776 224,1000 500,1000 776,1000 1000,776 1000,500 1000,224 776,0 500,0 V 0"
     sodipodi:nodetypes="cssssc"
     inkscape:export-filename="/home/philippe/uabox/2023-2024/projects/thememoriser/src/assets/static/icons/special-characters.png"
     inkscape:export-xdpi="6.3499999"
     inkscape:export-ydpi="6.3499999" />
  <text
     xml:space="preserve"
     transform="scale(0.26458333)"
     id="text4599"
     style="font-style:normal;font-weight:normal;font-size:136.063px;line-height:1.25;font-family:sans-serif;text-align:center;letter-spacing:0px;word-spacing:0px;white-space:pre;shape-inside:url(#rect4601);fill:#000000;fill-opacity:1;stroke:none"
     inkscape:export-filename="/home/philippe/Downloads/special-characters.png"
     inkscape:export-xdpi="6.3499999"
     inkscape:export-ydpi="6.3499999" />
  <g
     aria-label="à"
     transform="matrix(0.26458333,0,0,0.26458333,-144.69237,-183.5181)"
     id="text27639"
     style="font-size:1511.81px;line-height:1.25;text-align:center;letter-spacing:0px;word-spacing:0px;text-anchor:middle;white-space:pre;shape-inside:url(#rect27641);fill:#ffffff;fill-opacity:1"
     inkscape:export-filename="/home/philippe/Downloads/special-characters.png"
     inkscape:export-xdpi="6.3499999"
     inkscape:export-ydpi="6.3499999">
    <path
       d="M 1762.8841,2251.1651 Q 1802.6189,2251.1651 1840.3669,2251.1651 1878.1149,2249.1784 1905.9294,2245.2048 V 2030.6371 Q 1882.0884,2026.6636 1848.3139,2024.6768 1814.5393,2020.7034 1786.7251,2020.7034 1748.977,2020.7034 1713.2157,2026.6636 1677.4544,2030.6371 1649.6401,2042.5575 1623.8124,2054.478 1607.9186,2076.3321 1592.0246,2098.1862 1592.0246,2133.9475 1592.0246,2197.5231 1639.7063,2225.3374 1687.3881,2251.1651 1762.8841,2251.1651 Z M 1741.03,1468.39 Q 1856.2608,1468.39 1931.7569,1496.2044 2009.2398,1522.032 2054.9347,1571.7004 2100.6296,1619.3822 2120.497,1690.9047 2140.3644,1760.4406 2140.3644,1847.8571 V 2404.144 Q 2086.7226,2416.0644 1981.4253,2431.9583 1876.1282,2447.8523 1745.0034,2447.8523 1655.6002,2447.8523 1582.0909,2431.9583 1510.5684,2416.0644 1458.9131,2380.3031 1407.2579,2342.555 1379.4436,2284.9396 1351.6293,2225.3374 1351.6293,2139.9077 1351.6293,2058.4514 1383.417,2002.8227 1415.2049,1947.194 1468.8467,1913.4196 1522.4887,1879.645 1592.0246,1865.7378 1661.5604,1849.8438 1737.0565,1849.8438 1832.42,1849.8438 1905.9294,1865.7378 V 1835.9367 Q 1905.9294,1766.4008 1862.221,1720.7059 1818.5128,1673.0242 1711.229,1673.0242 1641.693,1673.0242 1576.1307,1682.9578 1512.5551,1692.8916 1472.8203,1706.7987 L 1439.0457,1510.1115 Q 1484.7407,1494.2176 1568.1838,1482.2972 1651.6268,1468.39 1741.03,1468.39 Z M 1653.6135,1053.1616 1967.5183,1273.6896 1878.1149,1406.8011 1532.4225,1239.9151 Z"
       style="font-weight:bold;font-family:'Ubuntu Mono';-inkscape-font-specification:'Ubuntu Mono Bold';fill:#ffffff;stroke-width:1.31415;fill-opacity:1"
       id="path72649" />
  </g>
  <g
     aria-label="ß"
     transform="matrix(0.31834547,0,0,0.31834547,43.596519,-259.14071)"
     id="text27639-0"
     style="font-size:1511.81px;line-height:1.25;text-align:center;letter-spacing:0px;word-spacing:0px;white-space:pre;shape-inside:url(#rect27641-1);fill:#ffffff;fill-opacity:1"
     inkscape:export-filename="/home/philippe/Downloads/special-characters.png"
     inkscape:export-xdpi="6.3499999"
     inkscape:export-ydpi="6.3499999">
    <path
       d="M 2245.4407,1440.5859 Q 2245.4407,1505.5937 2228.8108,1543.389 2213.6927,1579.6724 2195.5509,1606.885 2177.4092,1632.5858 2160.7793,1658.2865 2145.6612,1683.9873 2145.6612,1727.8298 2145.6612,1759.5778 2162.2911,1782.255 2178.921,1803.4203 2204.6218,1823.0738 2230.3226,1841.2155 2259.047,1859.3573 2287.7714,1877.499 2313.4721,1901.6879 2339.1729,1924.3651 2355.8028,1959.1367 2372.4327,1992.3966 2372.4327,2040.7745 2372.4327,2157.1838 2313.4721,2219.1681 2256.0233,2281.1523 2113.9132,2281.1523 2042.8581,2281.1523 2000.5274,2267.546 1959.7086,2255.4515 1934.0078,2243.357 L 1967.2676,2089.1524 Q 1992.9684,2101.2469 2030.7636,2113.3414 2070.0707,2123.924 2101.8187,2123.924 2142.6376,2123.924 2162.2911,2102.7587 2183.4565,2080.0815 2183.4565,2043.7981 2183.4565,2007.5147 2150.1966,1980.3021 2118.4486,1953.0895 2067.0471,1927.3887 1999.0156,1891.1053 1980.8739,1847.2628 1962.7322,1801.9085 1962.7322,1753.5306 1962.7322,1700.6172 1979.3621,1667.3574 1995.992,1634.0976 2015.6455,1606.885 2035.2991,1578.1606 2051.929,1546.4126 2068.5589,1514.6646 2068.5589,1463.263 2068.5589,1419.4205 2044.3699,1398.2552 2020.181,1375.578 1976.3385,1375.578 1918.8897,1375.578 1890.1653,1419.4205 1861.4409,1463.263 1861.4409,1540.3653 V 2264.5224 H 1675.4883 V 1544.9008 Q 1675.4883,1473.8457 1692.1182,1413.3733 1708.7481,1352.9009 1745.0315,1309.0584 1781.315,1265.2159 1837.252,1241.027 1893.1889,1216.838 1971.8031,1216.838 2047.3936,1216.838 2098.7951,1234.9797 2151.7084,1253.1214 2183.4565,1284.8694 2216.7163,1315.1056 2230.3226,1355.9245 2245.4407,1395.2316 2245.4407,1440.5859 Z"
       style="font-weight:bold;font-family:'Ubuntu Mono';-inkscape-font-specification:'Ubuntu Mono Bold';fill:#ffffff;fill-opacity:1"
       id="path72658" />
  </g>
  <g
     aria-label="ケ"
     transform="matrix(0.27905931,0,0,0.27905931,125.61831,190.01513)"
     id="text27639-0-1"
     style="font-size:1511.81px;line-height:1.25;text-align:center;letter-spacing:0px;word-spacing:0px;white-space:pre;shape-inside:url(#rect27641-1-6);fill:#ffffff;fill-opacity:1"
     inkscape:export-filename="/home/philippe/Downloads/special-characters.png"
     inkscape:export-xdpi="6.3499999"
     inkscape:export-ydpi="6.3499999">
    <path
       d="M 1929.4724,1190.0906 1695.1418,1143.2245 C 1692.1182,1190.0906 1681.5355,1249.0512 1663.3938,1298.9409 1645.2521,1356.3897 1616.5277,1435.0038 1575.7088,1504.5471 1518.26,1599.7911 1421.5042,1735.854 1314.1657,1815.9799 L 1503.1419,1930.8775 C 1593.8505,1852.2634 1687.5828,1723.7595 1748.0552,1613.3974 H 2067.0471 C 2042.8581,1929.3657 1917.3779,2115.3183 1758.6378,2236.2631 1722.3544,2266.4993 1669.441,2298.2474 1615.0159,2319.4127 L 1819.1102,2456.9874 C 2092.7479,2284.6411 2249.9761,2014.0271 2277.1887,1613.3974 H 2488.8421 C 2523.6137,1613.3974 2590.1334,1613.3974 2646.0703,1619.4446 V 1412.3267 C 2596.1806,1421.3975 2528.1492,1422.9093 2488.8421,1422.9093 H 1837.252 L 1879.5826,1312.5472 C 1891.6771,1280.7992 1911.3307,1227.8858 1929.4724,1190.0906 Z"
       style="font-weight:bold;font-family:'Ubuntu Mono';-inkscape-font-specification:'Ubuntu Mono Bold';fill:#ffffff;fill-opacity:1"
       id="path72655" />
  </g>
  <g
     aria-label="ñ"
     transform="matrix(0.35063564,0,0,0.35063564,-377.46523,66.930217)"
     id="text27639-0-1-9"
     style="font-size:1511.81px;line-height:1.25;text-align:center;letter-spacing:0px;word-spacing:0px;white-space:pre;shape-inside:url(#rect27641-1-6-5);fill:#ffffff;fill-opacity:1"
     inkscape:export-filename="/home/philippe/Downloads/special-characters.png"
     inkscape:export-xdpi="6.3499999"
     inkscape:export-ydpi="6.3499999">
    <path
       d="M 1723.8662,1576.6488 Q 1773.7559,1563.0425 1846.3228,1550.948 1920.4015,1538.8535 2006.5747,1538.8535 2091.236,1538.8535 2147.173,1563.0425 2203.11,1585.7196 2234.858,1629.5621 2268.1178,1671.8928 2281.7241,1732.3652 2295.3304,1791.3258 2295.3304,1863.8927 V 2264.5224 H 2109.3778 V 1888.0817 Q 2109.3778,1788.3022 2086.7006,1744.4597 2064.0235,1700.6172 1994.4802,1700.6172 1973.3149,1700.6172 1952.1495,1702.129 1932.496,1703.6408 1909.8188,1706.6645 V 2264.5224 H 1723.8662 Z M 2254.5115,1307.5466 Q 2246.9525,1328.7119 2231.8344,1352.9009 2218.2281,1375.578 2197.0628,1396.7434 2177.4092,1417.9087 2151.7084,1431.515 2126.0077,1445.1213 2095.7715,1445.1213 2071.5825,1445.1213 2050.4172,1437.5623 2030.7636,1430.0032 2009.5983,1422.4442 1989.9448,1413.3733 1968.7794,1405.8142 1949.1259,1398.2552 1926.4488,1398.2552 1900.748,1398.2552 1882.6063,1416.3969 1865.9763,1433.0268 1853.8819,1455.704 L 1764.6851,1396.7434 Q 1772.2441,1375.578 1785.8504,1351.3891 1800.9685,1327.2001 1820.622,1306.0348 1841.7874,1284.8694 1867.4882,1271.2632 1893.1889,1257.6569 1924.9369,1257.6569 1949.1259,1257.6569 1968.7794,1265.2159 1989.9448,1272.775 2009.5983,1281.8458 2030.7636,1289.4049 2050.4172,1296.9639 2070.0707,1304.523 2092.7479,1304.523 2118.4486,1304.523 2136.5903,1287.8931 2154.7321,1271.2632 2165.3147,1248.586 Z"
       style="font-weight:bold;font-family:'Ubuntu Mono';-inkscape-font-specification:'Ubuntu Mono Bold';fill:#ffffff;fill-opacity:1"
       id="path72652" />
  </g>
  <text
     xml:space="preserve"
     style="font-style:normal;font-weight:normal;font-size:5.64444px;line-height:1.25;font-family:sans-serif;text-align:center;letter-spacing:0px;word-spacing:0px;text-anchor:middle;fill:#000000;fill-opacity:1;stroke:none;stroke-width:0.264583"
     x="891.27173"
     y="119.65053"
     id="text70936"
     inkscape:export-filename="/home/philippe/Downloads/special-characters.png"
     inkscape:export-xdpi="6.3499999"
     inkscape:export-ydpi="6.3499999"><tspan
       sodipodi:role="line"
       id="tspan70934"
       style="stroke-width:0.264583"
       x="891.27173"
       y="119.65053">5</tspan></text>
</svg>
