<?xml version="1.0" encoding="UTF-8" standalone="no"?>
<svg
   role="img"
   width="1000mm"
   height="1000mm"
   viewBox="0 0 1000 1000"
   style="max-width:1.6em; height: auto;"
   version="1.1"
   id="svg3"
   sodipodi:docname="spinner.svg"
   inkscape:version="1.1.2 (0a00cf5339, 2022-02-04)"
   xmlns:inkscape="http://www.inkscape.org/namespaces/inkscape"
   xmlns:sodipodi="http://sodipodi.sourceforge.net/DTD/sodipodi-0.dtd"
   xmlns="http://www.w3.org/2000/svg"
   xmlns:svg="http://www.w3.org/2000/svg">
  <defs
     id="defs7" />
  <sodipodi:namedview
     id="namedview5"
     pagecolor="#ffffff"
     bordercolor="#666666"
     borderopacity="1.0"
     inkscape:pageshadow="2"
     inkscape:pageopacity="0.0"
     inkscape:pagecheckerboard="true"
     inkscape:document-units="mm"
     showgrid="false"
     inkscape:zoom="0.22330833"
     inkscape:cx="1889.7638"
     inkscape:cy="1892.0028"
     inkscape:window-width="1866"
     inkscape:window-height="1016"
     inkscape:window-x="1974"
     inkscape:window-y="27"
     inkscape:window-maximized="1"
     inkscape:current-layer="svg3" />
  <path
     style="opacity:1;vector-effect:none;fill:#4865d6;fill-opacity:1"
     d="M 500,0 C 224,0 0,224 0,500 0,776 224,1000 500,1000 776,1000 1000,776 1000,500 1000,224 776,0 500,0 500,0 500,0 500,0"
     transform="rotate(180,500,500)"
     id="path"
     inkscape:export-filename="/home/philippe/uabox/2023-2024/projects/thememoriser/src/assets/static/icons/spinner.png"
     inkscape:export-xdpi="6.3499999"
     inkscape:export-ydpi="6.3499999" />
  <path
     style="opacity:1;vector-effect:none;fill:#ffffff;fill-opacity:1;stroke-width:0.856879"
     d="M 502.86242,888.45798 C 479.72669,888.45798 458.30471,879.03231 442.02401,863.60849 426.60019,847.32778 417.17452,825.90581 417.17452,802.77008 417.17452,779.63434 426.60019,758.21237 442.02401,741.93167 458.30471,726.50784 479.72669,717.08217 502.86242,717.08217 525.99815,717.08217 547.42013,726.50784 563.70083,741.93167 579.12465,758.21237 588.55032,779.63434 588.55032,802.77008 588.55032,825.90581 579.12465,847.32778 563.70083,863.60849 547.42013,879.03231 525.99815,888.45798 502.86242,888.45798 502.86242,888.45798 502.86242,888.45798 502.86242,888.45798"
     id="path1182" />
  <path
     style="opacity:1;vector-effect:none;fill:#ffffff;fill-opacity:1;stroke-width:0.856879"
     d="M 717.08217,794.20129 C 674.23822,794.20129 639.96306,759.92612 639.96306,717.08217 639.96306,674.23822 674.23822,639.96306 717.08217,639.96306 759.92612,639.96306 794.20129,674.23822 794.20129,717.08217 794.20129,737.64727 786.48937,757.35549 771.92243,771.92243 757.35549,786.48937 737.64727,794.20129 717.08217,794.20129 717.08217,794.20129 717.08217,794.20129 717.08217,794.20129"
     id="path1180" />
  <path
     style="opacity:1;vector-effect:none;fill:#ffffff;fill-opacity:1;stroke-width:0.856879"
     d="M 288.64267,742.78854 C 274.07572,742.78854 262.9363,731.64912 262.9363,717.08217 262.9363,702.51523 274.07572,691.3758 288.64267,691.3758 303.20961,691.3758 314.34904,702.51523 314.34904,717.08217 314.34904,723.93721 311.7784,730.79224 306.63712,735.07663 302.35273,740.21791 295.4977,742.78854 288.64267,742.78854 288.64267,742.78854 288.64267,742.78854 288.64267,742.78854"
     id="path1178" />
  <path
     style="opacity:1;vector-effect:none;fill:#ffffff;fill-opacity:1;stroke-width:0.856879"
     d="M 802.77008,571.41274 C 765.0674,571.41274 734.21975,540.5651 734.21975,502.86242 734.21975,484.86796 741.07479,466.8735 753.92797,454.02032 766.78116,441.16713 784.77562,434.3121 802.77008,434.3121 820.76453,434.3121 838.75899,441.16713 851.61218,454.02032 864.46536,466.8735 871.3204,484.86796 871.3204,502.86242 871.3204,520.85688 864.46536,538.85134 851.61218,551.70452 838.75899,564.55771 820.76453,571.41274 802.77008,571.41274 802.77008,571.41274 802.77008,571.41274 802.77008,571.41274"
     id="path1176" />
  <path
     style="opacity:1;vector-effect:none;fill:#ffffff;fill-opacity:1;stroke-width:0.856879"
     d="M 202.95476,537.13758 C 193.52909,537.13758 184.9603,533.71006 178.96215,526.85503 172.10712,520.85688 168.6796,512.28809 168.6796,502.86242 168.6796,493.43675 172.10712,484.86796 178.96215,478.86981 184.9603,472.01478 193.52909,468.58726 202.95476,468.58726 221.8061,468.58726 237.22992,484.01108 237.22992,502.86242 237.22992,521.71376 221.8061,537.13758 202.95476,537.13758 202.95476,537.13758 202.95476,537.13758 202.95476,537.13758"
     id="path1174" />
  <path
     style="opacity:1;vector-effect:none;fill:#ffffff;fill-opacity:1;stroke-width:0.856879"
     d="M 717.08217,348.6242 C 700.80147,348.6242 686.23453,342.62604 675.0951,330.62974 663.0988,319.49031 657.10064,304.92337 657.10064,288.64267 657.10064,255.22438 683.66389,228.66113 717.08217,228.66113 733.36288,228.66113 747.92982,234.65929 759.06925,246.65559 771.06555,257.79502 777.0637,272.36196 777.0637,288.64267 777.0637,304.92337 771.06555,319.49031 759.06925,330.62974 747.92982,342.62604 733.36288,348.6242 717.08217,348.6242 717.08217,348.6242 717.08217,348.6242 717.08217,348.6242"
     id="path1172" />
  <path
     style="opacity:1;vector-effect:none;fill:#ffffff;fill-opacity:1;stroke-width:0.856879"
     d="M 288.64267,331.48662 C 264.65005,331.48662 245.79871,312.63528 245.79871,288.64267 245.79871,264.65005 264.65005,245.79871 288.64267,245.79871 312.63528,245.79871 331.48662,264.65005 331.48662,288.64267 331.48662,299.78209 327.20222,310.92152 318.63343,318.63343 310.92152,327.20222 299.78209,331.48662 288.64267,331.48662 288.64267,331.48662 288.64267,331.48662 288.64267,331.48662"
     id="path1170" />
  <path
     style="opacity:1;vector-effect:none;fill:#ffffff;fill-opacity:1;stroke-width:0.856879"
     d="M 502.86242,254.3675 C 474.58541,254.3675 451.44968,231.23177 451.44968,202.95476 451.44968,174.67776 474.58541,151.54202 502.86242,151.54202 531.13943,151.54202 554.27516,174.67776 554.27516,202.95476 554.27516,231.23177 531.13943,254.3675 502.86242,254.3675 502.86242,254.3675 502.86242,254.3675 502.86242,254.3675"
     id="path1168" />
</svg>
