<?xml version="1.0" encoding="UTF-8" standalone="no"?>
<svg
   role="img"
   width="1000mm"
   height="1000mm"
   viewBox="0 0 1000 1000"
   style="max-width:1.6em; height: auto;"
   version="1.1"
   id="svg3"
   sodipodi:docname="success.svg"
   inkscape:version="1.1.2 (0a00cf5339, 2022-02-04)"
   xmlns:inkscape="http://www.inkscape.org/namespaces/inkscape"
   xmlns:sodipodi="http://sodipodi.sourceforge.net/DTD/sodipodi-0.dtd"
   xmlns="http://www.w3.org/2000/svg"
   xmlns:svg="http://www.w3.org/2000/svg">
  <defs
     id="defs7" />
  <sodipodi:namedview
     id="namedview5"
     pagecolor="#ffffff"
     bordercolor="#666666"
     borderopacity="1.0"
     inkscape:pageshadow="2"
     inkscape:pageopacity="0.0"
     inkscape:pagecheckerboard="true"
     inkscape:document-units="mm"
     showgrid="false"
     inkscape:zoom="0.22330833"
     inkscape:cx="1889.7638"
     inkscape:cy="1887.5247"
     inkscape:window-width="1866"
     inkscape:window-height="1016"
     inkscape:window-x="1974"
     inkscape:window-y="27"
     inkscape:window-maximized="1"
     inkscape:current-layer="svg3" />
  <path
     style="opacity:1;vector-effect:none;fill:#198754;fill-opacity:1"
     d="M 500,0 C 224,0 0,224 0,500 0,776 224,1000 500,1000 776,1000 1000,776 1000,500 1000,224 776,0 500,0 500,0 500,0 500,0"
     id="path"
     inkscape:export-filename="/home/philippe/uabox/2023-2024/projects/thememoriser/src/assets/static/icons/success.png"
     inkscape:export-xdpi="6.3499999"
     inkscape:export-ydpi="6.3499999" />
  <path
     style="opacity:1;vector-effect:none;fill:#ffffff;fill-opacity:1"
     d="M 250,475 C 279,504 359,586 390,615 400,625 410,615 410,615 410,615 625,400 750,275 765,260 785,260 800,275 816,292 837,313 850,325 865,340 865,360 850,375 700,525 583,642 425,800 410,815 390,815 375,800 292,717 150,575 150,575 135,560 135,540 150,525 150,525 200,475 200,475 215,461 235,460 250,475 250,475 250,475 250,475"
     id="path921" />
</svg>
