<?xml version="1.0" encoding="UTF-8" standalone="no"?>
<svg
   role="img"
   width="1000mm"
   height="1000mm"
   viewBox="0 0 1000 1000"
   style="max-width:1.6em; height: auto;"
   version="1.1"
   id="svg3"
   sodipodi:docname="user.svg"
   inkscape:version="1.1.2 (0a00cf5339, 2022-02-04)"
   xmlns:inkscape="http://www.inkscape.org/namespaces/inkscape"
   xmlns:sodipodi="http://sodipodi.sourceforge.net/DTD/sodipodi-0.dtd"
   xmlns="http://www.w3.org/2000/svg"
   xmlns:svg="http://www.w3.org/2000/svg">
  <defs
     id="defs7" />
  <sodipodi:namedview
     id="namedview5"
     pagecolor="#ffffff"
     bordercolor="#666666"
     borderopacity="1.0"
     inkscape:pageshadow="2"
     inkscape:pageopacity="0.0"
     inkscape:pagecheckerboard="0"
     inkscape:document-units="mm"
     showgrid="false"
     inkscape:zoom="0.22330833"
     inkscape:cx="1889.7638"
     inkscape:cy="1892.0029"
     inkscape:window-width="1866"
     inkscape:window-height="1016"
     inkscape:window-x="1974"
     inkscape:window-y="27"
     inkscape:window-maximized="1"
     inkscape:current-layer="svg3" />
  <path
     style="opacity:1;vector-effect:none;fill:#3454d1;fill-opacity:1"
     d="M 500,0 C 224,0 0,224 0,500 0,776 224,1000 500,1000 776,1000 1000,776 1000,500 1000,224 776,0 500,0 500,0 500,0 500,0"
     id="path"
     inkscape:export-filename="/home/philippe/uabox/2023-2024/projects/thememoriser/src/assets/static/icons/user.png"
     inkscape:export-xdpi="6.3499999"
     inkscape:export-ydpi="6.3499999" />
  <path
     style="opacity:1;vector-effect:none;fill:#ffffff;fill-opacity:1"
     d="M 350,625 C 449,650 451,649 501,649 550,649 555,650 654,625 757,625 792,647 831,725 736,858 607,902 500,900 368,901 239,831 173,730 212,652 247,625 350,625"
     id="path825" />
  <path
     style="opacity:1;vector-effect:none;fill:#ffffff;fill-opacity:1"
     d="M 501,129 C 624,129 724,229 724,352 724,475 624,575 501,575 378,575 278,475 278,352 278,229 378,129 501,129 501,129 501,129 501,129"
     id="path823" />
</svg>
