<?xml version="1.0" encoding="UTF-8" standalone="no"?>
<svg
   role="img"
   width="1000mm"
   height="1000mm"
   viewBox="0 0 1000 1000"
   style="max-width:1.6em; height: auto;"
   version="1.1"
   id="svg3"
   sodipodi:docname="login.svg"
   inkscape:export-filename="/home/philippe/Downloads/burger.png"
   inkscape:export-xdpi="6.3499999"
   inkscape:export-ydpi="6.3499999"
   inkscape:version="1.1.2 (0a00cf5339, 2022-02-04)"
   xmlns:inkscape="http://www.inkscape.org/namespaces/inkscape"
   xmlns:sodipodi="http://sodipodi.sourceforge.net/DTD/sodipodi-0.dtd"
   xmlns="http://www.w3.org/2000/svg"
   xmlns:svg="http://www.w3.org/2000/svg">
  <defs
     id="defs7" />
  <sodipodi:namedview
     id="namedview5"
     pagecolor="#ffffff"
     bordercolor="#666666"
     borderopacity="1.0"
     inkscape:pageshadow="2"
     inkscape:pageopacity="0.0"
     inkscape:pagecheckerboard="0"
     inkscape:document-units="mm"
     showgrid="false"
     inkscape:zoom="0.22330833"
     inkscape:cx="1889.7638"
     inkscape:cy="1887.5247"
     inkscape:window-width="1866"
     inkscape:window-height="1016"
     inkscape:window-x="1974"
     inkscape:window-y="27"
     inkscape:window-maximized="1"
     inkscape:current-layer="svg3" />
  <path
     id="path"
     style="opacity:1;vector-effect:none;fill:#e83c4b;fill-opacity:1;stroke-width:3.77953"
     d="M 1889.7637 0 C 846.61407 0 0 846.61407 0 1889.7637 C 0 2932.9133 846.61407 3779.5273 1889.7637 3779.5273 C 2932.9133 3779.5273 3779.5273 2932.9133 3779.5273 1889.7637 C 3779.5273 846.61407 2932.9133 0 1889.7637 0 z M 2254.4688 1014.4707 L 2619.1758 1014.4707 C 2910.9403 1014.4707 3056.8223 1160.3526 3056.8223 1452.1172 L 3056.8223 2327.4102 C 3056.8223 2619.1747 2910.9403 2765.0566 2619.1758 2765.0566 L 2254.4688 2765.0566 C 2210.7041 2765.0566 2181.5293 2735.8819 2181.5293 2692.1172 L 2181.5293 2546.2344 C 2181.5293 2502.4697 2210.7041 2473.293 2254.4688 2473.293 L 2619.1758 2473.293 C 2721.2934 2473.293 2765.0566 2429.5278 2765.0566 2327.4102 L 2765.0566 1452.1172 C 2765.0566 1349.9996 2721.2934 1306.2344 2619.1758 1306.2344 L 2254.4688 1306.2344 C 2210.7041 1306.2344 2181.5293 1277.0576 2181.5293 1233.293 L 2181.5293 1087.4121 C 2181.5293 1043.6474 2210.7041 1014.4707 2254.4688 1014.4707 z M 1379.1758 1148.6816 C 1414.1875 1148.6816 1463.788 1172.0224 1525.0586 1233.293 L 2035.6465 1743.8809 C 2137.7641 1845.9984 2137.7641 1936.4465 2035.6465 2035.6465 L 1525.0586 2546.2344 C 1379.1763 2692.1167 1306.2344 2619.1755 1306.2344 2546.2344 L 1306.2344 2181.5293 L 868.58789 2181.5293 C 778.14085 2181.5293 722.70508 2146.517 722.70508 2035.6465 L 722.70508 1743.8809 C 722.70508 1641.7633 772.30556 1600.9176 868.58789 1598 L 1306.2344 1598 L 1306.2344 1233.293 C 1306.2344 1192.4459 1329.5758 1148.6816 1379.1758 1148.6816 z "
     transform="scale(0.26458333)"
     inkscape:export-filename="/home/philippe/Downloads/login.png"
     inkscape:export-xdpi="6.3499999"
     inkscape:export-ydpi="6.3499999" />
  <path
     style="opacity:1;vector-effect:none;fill:#000000;fill-opacity:1;"
     d="M 500,1000 C 167,1000 333,1000 500,1000 500,1000 500,1000 500,1000"
     id="path845" />
</svg>
