<svg version="1.2" xmlns="http://www.w3.org/2000/svg" width="1024" height="1024" viewBox="0 0 1024 1024" fill="#e83c4b" stroke-linecap="round"><path d="M570.9 770.9v1.5l-2.8 1.2-1.1 2.3-4 1.1-5.1-6.3-3.4-2.7-3.1-.5-3.8 2.4-3.1-2.1.8.8-1.1-.7-5.2 1.5-3.9 7.5-1.6 1.7-3.3 1.3-4.5.2-2.7-1.9-2.2.8-4.7-4.5-3.4 1.1-17.4-1.3-5.3 1.2-1.7 1.9-3.5 1.6-3.8-.2-3-2.2.3.5-2.1.3-2.9-2.3-3.5-.2-1.3 1.3-2.4-.2-.9 1-1.3-1.4-1.1.6-4.2-1.9-7.8 2.2-7.1-1.8-2.3 1.9-4.9.8-9.2.2-4.2-.9-1.4 1.3.1-.9-6.2 9.3-1.4 1.4-4.5 1.6-2.1 4.2-6.6 1.8-6.9-1.7-3.7.1-6 3.6-4.8.7-4.7 2.8-1.4-.1-2.7 3.1-1.7 5.2-4.3 6.2-1.5 5.8-1.6-.1-1.4-1.7-2.5.3-1.4 2.6 1.1 5.6-2.2 1.6-1.3-.3-7.7 3.7-2.3-3.3-2.7-1.4-2.3.4-3.5-2.1-1.3.8-4-5.3-3.5-3-7.6.2-4.3-8.1-2.4-.9-2.4-5.4-2.3-2.2-4.6-10.1-1.8-.4 2.4-1.1-.7.7.8.3.1-.8-.3 1 1.2 2.3.4-.9.1.6 1.8-3 .5-2.2-.6-1-2.3.1-2.2-3-1.4.4.7-.4-1.2-.5.2 1.1-1.1-1.2-.9.8-2.3-1.5-3.1-8.2 5.4-4.3-2.6-1.5-3-7.2-5.2-6.2-14.8-9.9-6.5-2.9-4.4-3.5 1.4 2.2 5.1 4.2-7-6-1.5-.2.9 1-.8-.1-6.2-2.8-17.2 1.3-2.3 1.8-2.3-.9-.7-3.8-1.1-1.6.7-1.8-1.3-2.9.1-6.4-1.4-1.5 1.1-.7-1.5-4.1.4-1.3-1.3-.9-.5-2-1.3-.1-.8-2.4 1-.5.2-3.6 3.2-3.5 2.2-8.7 1.7-.5 5.9-6 1.2-4.5 1.7-2.3-.2-4.4 3.6-1.7h4.6l.2-2 1.6-1.2 2.6 2 3.4-.3 1.3-6.5 2.2-4-.9-.5.1-1.2 2.1-2.6 5.4 2.4 3.2-.1-1 5.3 2.4-.1.1 1 1.5.7 1.7-.8 4.5.9 1.3-.7 1.6 1.7 1 1.2.3 3.1 1.5-.4h.7l4.6 1.7.7-.5-.4-1.4 1.7-1.4-.6-.7 2.4-.2 2.9.7.7 2.7 1.7 1.5.3.1 1.4 1.4 3.3.6.8 1 2.4-.3 1.3 1.8 4.2-3.6 4.1-1 6.2.2 1.2-4.2 1.6-1.6-1.3-1.7.2-1.4 2.9-2.1.1-1.9 1.7-1.3 3.3-.2 1.1-.9 1.6.4 1.8-1.3 2.7 1.2.1 1.7-.6-.8-.8.4.6 1.2-2.8 1.9.4 3.2 1.8.6 4.5-4.5 3.3.5.4-1.5 2.4-1-.3-1.8.8-1.6.2-.1.1-4.6-3-5.3 1-3-1.7-1.7.1-1.2 2.3-3.9 1.7-1.1h2.2l.3-1.6 4.3-2.9-.2-.6.9-1.6 1.1.6-.5-1.2 1.4-2.4 4 .4-.2-1.1 1.2-1.5 2.2-1.2 2.1-2.6.6.7.3-1.5.5.9.2-.8.8.6v-1.2l1.1-.2.1-.2-1.1-3.1 5.5.9 3.2-1.8 2.3 1 .5 1.8 3.7 1 4.4-.2 1.1 5.7 9.6 3.3.3 1.5 2.3.4 2.8 2.1 1.8 2.9.5-.6 1.2.4.5 1.2 1.1-.5 5.6 6.6 10.4 4.6 1.2-.3-.6-2.6.8-1.6 8.5 1.7 13.7.9 3.7-.5 1.6-1.5.4-1.8 1.6-.5 1.1-.3 2.7.9.6-.9 7.3 2.5 1.7-.9.3-3.5.9-.1 2 .7.5 2.6 3.8.9 2.8-.7 3.1-2.8-.1-1.5.2-.8 3.1-.9.3.1 2.8 1.7 8.9 1.5 4.5-3.1 4 5.6.6-3.4 1.7-1.5h3.9l1.4 1.3 1.3-1.8 1.5-.8.4.6v-.8l2.5-1.2.3-1 .4.4.7-1.8 6 3 4.2-1.5h.6l2 1.8-.3 6.2 5.7 1.4-.2 7.7 2.8 1.2.4 1.7-1.2 3.9.5 2.5-6.8 8.2 1.8 1.1h.8l5.8 3 5.1.5 2.6 1.8 2.9 5.2 5.1 3.9 3.1-.9 2.5 2.2 1.4-.8 2.5 1.1 1.1-.9 1.1.5h.4l.5.6-1.4 1.8-.8 5.4.8 3.8-1.1 2.1.7 3.9.5.4 9.5 15.3 2.2 1.7-.1-1.4 4.8.8 6.9 5.4-3.1 1.6-2.1 3.9-5.8 6.2-3.1 12.4-3.2 6.3.3 3.2-.7 1h-2.1l-1.7 2.9-1.5.3-.8 1.1.3 3.2-2.5 1.2z"/><path d="M584.5 345.6l.6 1.3 4.4-.1 3.3 3.3 4-.8 6 4.3 1.6.3 1.2-.4.7-.7 5.9.4 1.8-2.1-.3-1.2 2.8-5.1 2.2-2.1-.4-2.6-.6.1-2-.1-.9-2.8-2.1-1.7.5-4.6-1.6-3.4 1.6-4.6-.4-1.5 4.4-5.3-.4-1.4-1.5-.6 1.1-3.9 4.1-4.4-.7-4.1 1.5-2.9 2.2 1.2 1.3-.6h.3l.1-2.4 2.8-1.9-1.3-1h1.4l.3-3.2 7.1.1v-3.7l.9-.9 3.6-.2 2.9-3.4h1.4v-1.5l2.3-.2 1.1-2.1-.8-1 .3-4.1 2.3-1.8.2-3 2.2-1.6 3.6.1-.5 2 2.2 1.5 1.2-.5 1.3 2.1 3.4 2.5.1 2.2 2.1-.1.1 2.2 1 .3.5-1.3h1l.2-1.5 1.4-1.5 3.9 2.9 2-1.1 1.6.5 2.3-3.1 1.4.3.8-1.3 3.5 2.4.9-.1.3 1.2 3.2 1.9 1.8-1 3.4 6.7 2.4.2.4 1.9 2.9.9 1.5-.4.4-1 2.3.4 1.7-1.5 2.3.3 3.1-1.1.9-1.2 5.3 1.8.2 2 2 1.7 1.6-.9.3-1.8 2.2-1.7 4 2.9 3.6-.8 2.4.7.7-1 3.7.7.7-.9 4 1.2.3.6.5.4 1.4 1.9.6 3.1 3.9 1-1.6 5.7.6.8-1-.4-.8 1.1-.1 1.2 1.2.6-1.6 1.5-.8-.6-.7.8 3.5 8.6-1.5 1.6 3 1.2-1.9 1.3 1.5 1.3-3.9 11.3-.2 1.4 1 .7-1.3 1.2.6 2.8-2.1 6-.9.6v3.5l-.7 1.4-.3-.9-1.3.5-.8 2.3-1.1-.5-1.6 2.4 2.8 1.5-.7.2-.2 2.7.9 1.1-1.7.8v.9h-1.5l-.8 2.6H734l-1.9 1.8-1 3-4.3.5-.3 2.2-.7-.7-3.7 5.2-.1 1.6 2.1 2.4-.5 2.7 3.3.5 1.6-.7 1.3 5-3.2 4.4-3.5.4.8 2.9-2.2 4.6 3.4 3.5-1.7 2.1 1.3 1-.2 1.2 1.4 2.2-.5 3.5-.9-.1-.1 1.1-2.7.1-1.7 5.5-2.6.7-.4 1.6-2.1-.6-.8.9.1 3.3 1.1.2.7 2.3-.7 1.1.8-.4v1l.9-.5 2 1.7-1.1.4 1.4 2.8-.1.7.8.5-2.6 4.2.1.5-.9 2.5 2.4 5.2-2.8 2.8-.3 1.6-3.3 1-.1 1.2-.9-.8.5 1.4-1.4 1.2-2.5-.7-4.3 2.9-.7-.2-.7-2.4-.1-.2-1.2-.4-1.3.1-2.5.2-2.9-1.4-2.2-2-.1-1.4-3.3.1-2.2 3.6-.3 4.1-4.5 2.5-1.4-1.6-3.1 1.2.6 4.4 2.9.8 1.9-.6-.4 8 1.5 1.3.3 1.8-3.9 1.6-.9 1.3 3.8 4.5.4 1.8-3.7 2.1-1.7 2.9-1.5-.1-.7 1 1.1 2.5-2.8 1.7-4.1 1.2-3.3-1.9-2.2 9.4-1.9.9-1.2 1.9.8 2.7-1-.3-3.2 2.5-4.5-.2-1.7 4.3-3.5 1.4-.1 4.4 2.6 3.5-4.7 2.8-2.7-2.1.7-1.4-.8-2.3.6-1.8-1-2-.8.6-3.5-2-5.3.2-1.3.9-1.5-.3-.5.8-1.1-.7-1.4-3.4 5.1-2.1.8-1.1-.4-1.6-4.4-3.6-6.2-.3v-2.4l-1.9-1.1-1-2.5-.4-1-.1-.7-1.2 1.1v4.1l-1.1.5-1.1 1-1.5-.7-1.1.4-.7-.4-3-.4.7-4.4-2.2.9-2.2-1.5-2.1 1.1-9.3-9.9-1.9 2.7-.6-2.1.6-1.3 1.4-.1-1.5-1.8-.4-.2-3.1-3.9-1.7-.7.1-.8.5-.8.6.5 2.5-4.4 3.3-1.9-.6-3.9.5-3.3 1.3-1.3 4.7 2.4 3.3-2.8-1.1-1.5 1.8-6-1.6-4.3 1.3-1.7.1-2.9-1.1-2.9-1-.2-3-4 .7-4-.5-1.3-2-1.8-.8-1.1-8.9-9.3-3.3-1.1-3-2.9-.8.3-3.1-3.3-5.9 2-1.7-2.1-4.1-1-1.9-8.8 1.3-3.6-.4-1.8 2.5-1.4 1.5-6.2 4.1 1.5-.6 2.6 1 1 5.7-1.9v-1.1l-1-.3.1-3.2-1.8-2.1 1-5-1.8-2.9.1-1.6h4.3l1.8-2.9.5-.3.9-.1 1-1.9 3.2-.2-.2-2 2.3-3.2-2.1-1 .3-1.5-3.2-2.9 2.1-3.2.1-2.3-2.3-4.3-.1-5.3z"/><path d="M331.4 203.8l.8 1.5 3.1 1-.5 1.3 1.3.8.7 2 5 1-.9.9-.6-.6.3 1.5.8-.6-.7 1.2 1.5.2.5-.8 1.1.7 1.8-1.4 1.6.9 4.8-.4 1.4.7 5.6-.9 1.1 2.1 1.1-.7 4.9.3 5 5.4 5.8-.9 7 2.2 5.5-.3 3.3 1.7 2.3-.3.2 1.1 1.4-.5 7.4 2.7 4.8 1.1 6.8.1v1.1l-1.7 2.1 1.4 3.8-.4 3-1.6.8-.3-1.5-3.3-1.2-1.7 2.8-6.1.9.6 2-1.1 4-2.5-.4-2.1.9-.3-.2-1.4.2-2-3.8-2.7-.9-3.3 2.2-2 3.2-1.6-.9-3.4.3-1.7 6.8-2.4-.1-.5-1-3.7 1.8-.2.5-7.3.8-1.2-1.3-1.6-.1-1 .7-.4 3.2-5.6-.5-.9 3-9-1.2-3.5-2-2.4 1.3-2.5 4.8.2 1.4-2.7.6-2.3.1-1.2-1.5h-1.8l.2-1.2-1.7.1-2.7-2.3-1.1-3.9-3 .8-3.8-1.7-1.1 3.8-2.5 1-2.5-2.4-2.4.1-.8 3.2-2.4-.7-1.2-1.6-.7.8-2-.4-.3-1.2-1.7-1.2-.9 1.5-1.5.3.3 1.5-1.2.3-.8 2.5-.9-.3-.5.9-1.6-.8h-.5l.3 2.2 2.5.3-.1 2-2.6.5-.9 1.2-1.3-.7-2.1 1.3-4.3-1-4.8.2-2.3.5-2.3 3-.9-.1.2-1.4-3.3-1.3-1.1-1.1.4-2.7-2.2-2.6-2.4-.1-2.9-4-.2 3.4-.9.1-1.6-2.2 1-1.8 1 .6v-2.3l1.7-2.2 1.5 1.1 1.3-1.5h1.4l2.6-2.7.5-1.8-2.1-2.4-1.9.4.1.8-3.4 2.1-1.1-.1-1.5-2.7 1-1.9-.4-1.4-1.9-.4-.6-1.3-.7.8-2.6-2.6-.6-2.1.7-3.1-2.6.1-1.9-2.3.2-3.6-.6-1.2-1.4.8-1.1-.7.3-1.6-.1-.3v-2.2l4.4.3.9-2.5 2.2-1.5 1.4-2.2-.7-.8.8-1.9 1.6.1-1.6-1.3.2-1.3 3.4.3 1.4-1.2.3.4.2-1 3.4.4.8 1 1.6-1.1 2.7 1.4 4.1-1 1.4 1.5.9-1.2 2.2.3 3.1-1.1.5.9.9-.3.3 1 3.5-.1.6.9 3.8-.3.2-1.9 2.7 1.6 2.1-.7 2.6.8 6.3-2.3.7-1.5 1.5 1.4.7-.6.4 1.1.9-.6v1.3l1.7-.4 2.9 1.3 6.1-2.9 1.5 1.3 2.4-.6 1.2-1.3-.6-.3 2.1-.8v-1.5h2.1l1.4-1.1.1-1.7z"/><path fill-rule="evenodd" d="M474.3 216.3l.1 1 2.2-.6.8 1.4 1.4-.2.9 1.8 4.4.8.5 1.8-1.9.4 1.8 2.4 1.1-.7 2.8.7 2.7-.7-.1 1.7 1.4-.8 4.7 1.1 2.2 2.9 2.5.9-.2 4.5-2.1.3-1.2 1.3-1-2.2-3.4 1.6-1-.9-1.7.7-.6-.7-.5 2-2.8.6-.9 2.1-3.3.9.5 1.6.5.7 1 6.5h-4.6l-5.2-1.6-1.9.2-.5-1.6-2.5-1-2.1 3.2v.4l-1.4 1.9-3 1.4-.8 1.7h-4.2l-1.6-.8.4 4.2H455l-1.7 2.3-2.2 1.2-2.3 5.9 1 1.9 2.7-.3-.1 1.3 4.1-4.8 2.3 2.3-2.2 2.6-2.8-1.2 1 2h-1.9l1.6.7-.9 1.2-.1.5 2.5.8.6-3.1 1.7.8 1.4 3.8-.4 3-2.6 1.1-1.9-1.6-1.1 3.2-1.3-.5-3 1.3-.3-.9h-1l-.4-5.4-1 1.1.3 1-1 .5.3 1-1.3.7.2 1.3-2.3.4-1.1-2.5-3.2.1-2.1-1.7-.1-1 1.6-1.4 1.4.4.7-2.1-1.5-1.2-3.1 2.3-1.6-1 .2-4.6-1-.5-.1-3.5-6.9-1.5-3.4-5.3-3.9-2.3-1 1.9-2.7-.6-2.4 2.3-2.9-1.4-2.1 1.6-2.8-.8-3.4.5-.3-3h-1.4l-.1-1.7-4.1-2.3-1.2-2 1-2.8-1.1-1.4.8-.7 1.4-.2.4.2 2-.9 2.6.4 1.1-4-.6-2 6.1-.9 1.6-2.8 3.4 1.2.3 1.5 1.6-.8.3-3-1.3-3.8 1.7-2.1-.1-1.1 2.7.4 3.3-.8 2.2.6 2.9-1.2 1 1.4h2.7l6.7-1.1 4-1.5 1.9-1.7 1.7.4.5-1 .8 1 .9-1.4 3.4.9-.8-.3 2.1-2.5 6.8-.8 1.7-1.3 1.7.2-.1 1.2 1.4.9-2.4.6-2.1 1.7v.9l1.5.5-.3 2 .6-1.3.3.7 1.4-1-.8-.9.9-.1.3-1.4 1.7-.1-1.5-.9 2.3.1.8-1.2 2.1-.2 2.7-2 2 .1zm19.1 27.3l-1.3-4.7 2.5-1.2 1.1.6-1.3 2.4.1 2.5zm-52.5 33l.6 1.9.8-.5-.2-1.8-.9-.5-.1.2zm-4.1-.6l-.2.1-.1.2.1.2.5.6.7-.3v-.4l-.3-.3z"/><path fill-rule="evenodd" d="M269.3 268.1l3.2 1.4-.1 1.4h.8l2.4-3 2.2-.4 4.8-.3 4.4 1.1 2-1.3 1.4.7.8-1.2 2.7-.6v-2l-2.4-.3-.3-2.1.4-.1 1.6.9.6-1 .9.4.7-2.6 1.2-.2-.2-1.5 1.4-.3 1-1.5 1.7 1.1.2 1.2 2 .4.7-.7 1.3 1.6 2.3.6.8-3.2h2.4l2.6 2.4 2.5-1.1 1.1-3.8 3.8 1.8 2.9-.9 1.1 4 2.8 2.3 1.6-.1-.2 1.2 1.8-.1 1.3 1.5h2.3l2.7-.6-.2-1.4 2.5-4.8 2.4-1.3 3.5 2 8.9 1.1.9-2.9 5.6.5.5-3.2.9-.7h1.6l1.2 1.4 7.3-.9.2-.4 3.8-1.8.5.9 2.4.1 1.7-6.7 3.4-.4 1.5 1 2-3.2 3.4-2.3 2.7.9 1.9 3.8-.8.8 1.1 1.4-1 2.7 1.1 2.1 4.2 2.3v1.6l1.5.1.3 3 3.4-.5 2.8.8 2-1.6 3 1.4 2.4-2.4 2.7.6 1-1.9 3.9 2.4 3.4 5.3 6.9 1.5.1 3.4 1 .5-.2 4.6 1.6 1.1 3.1-2.3 1.4 1.2-.6 2.1-1.4-.5-1.6 1.5.1.9 2.1 1.8 3.2-.2 1.1 2.6 2.2-.4-.2-1.4 1.4-.6-.4-1 1.1-.5-.3-1.1 1-1 .3 5.4h1.1l.3.8 3-1.3 1.3.5 1.1-3.1 1.9 1.5 2.6-1.1.4-3-1.4-3.8-1.7-.8-.6 3.1-2.5-.7.1-.5.9-1.3-1.6-.7h1.9l-1-1.9 2.8 1.1 2.2-2.5-2.3-2.3-4.1 4.7.1-1.3-2.7.3-1-1.9 2.3-5.9 2.2-1.2 1.5-2.3 2.7.1-.4-4.3 1.7.9h4.2l.7-1.8 3.1-1.3 1.3-2 .1-.4 2.1-3.2 2.4 1 .5 1.6 2-.2 5.1 1.6h4.7l10.4-5.5 2 2.2 3.4-.5 1.5 1-2.5 4.2 1.9 1.3.6-.5.5 1.1-1.4 2 1 .6v3.2l-2.3.7 2 1.3 5.3.3 1.6 1.9-.3.9 3.9 2.8-2.5 2.6-4.6.7-3.6-1.6.2-1.4-5-1.3-3.9 5.8 4.5 4.8.6-.1-1-1 1.9-2.6 2.2 1.1 2.4-3 .7 1.8-3.2 5.8 2.2 1.3-1.5 2.7 6.2-.7.4 2.3 1.6-.1v.3l2.3 2.8 3.2-.3 1.8 1.2.3 2-.2.2.7 1.6 2 .9-1.6 1.5-.9-.6-.9.7-2.1-1.7-2.4.3-1.4-.8-.8 1.1-4.2-.8 1.5 4.5-1 .2-1.8 2.8-1.9 1 .7.8 2.2-.5 1 .8-.3 2.2-1.2 1.3 3.1 3.6-1 1.9.4 4.6-1.6-2.2.2-1.7-1.4-.1-.2 2.7h1.3l1.3 2.1-2.9.8.5 1.9.4.3-.8 1.1 1.1 5.7-.9 2.8-1.5 1.3 6 9.4 6.1-.2 1.4 4.2v.7l2 1.9 1.9-1.8 2.8-.6 1-5.5.2-.5 1.1-1.4 1.4.6 1-.6 1.8 1.8-.2 1.7-3 4.3.7 2 2.7-.5 1.9 1.5 3.1-.8 2.7.9 2.1-4.8 2.1-1.4.1-3.8 1.8.6 1.7-.8 1.1-1.7 7.6-.7 2.4 1.1.9 3.6 2.1-1.1 6.8.3v1.6l-2.1 1.2 3.4 5.2-.9.7.6 2.9 6.2 1.5.4.4 1.7 1.6h1.1l6.8-4.1.1 5.4 2.4 4.3-.2 2.2-2.1 3.2 3.2 3-.3 1.4 2.1 1.1-2.3 3.1.2 2-3.2.2-1 2h-.8l-.6.4-1.7 2.9-4.3-.1-.2 1.7 1.8 2.9-.9 5 1.7 2.1-.1 3.1 1.1.3-.1 1.2-5.7 1.9-.9-1 .5-2.6-4.1-1.5-1.5 6.2-2.4 1.4.4 1.7-1.3 3.7 1.8 8.8 4.2 1 1.7 2.1-.7 2.8 1 3-.6.8-4.8-4.2-2.7 2.8-3.3-1.1-2 2.3-1.8-.2-2 1.1-2.1-2.4-3.9 2.4-.9-1.3-2.3-.4-.9-3.1-1.7-.4-.5-2.4-1.3-1-2.4 1.9-1.3-.9 1-2.4-2.7-.6 1.8-1.1.2-2.1-2.5.7-1-2-4-.9-.6-1.9-2.7.1-1.1 1.6-2.6-.3-2.9-1.4-.3-3.6-2.4-.9-2.1 1.1-.7 1.8-4.3.3-2.7 1.3-7.9-2.5-3 .9-1.4 3-1.1-1.4-1.1 1.5-2.1-.3-.8.8-3.7-.4-1.2-1.3 1 2.3-.3 2.7-2.5-.1-1.4 2.6-2.6 1.1-.5.5-.2.2-.7-.3h-.7l-3.2.4-2.7 1.9-2.8 4.4-4 2.5-2.6 4.4-7.1 2.8-1.8 3.2-1 .2-2.7 11.7-3.1.4-2.6-.9-1.7 3.7-4.1 4.9-1.5-.7-.9.3-3.4.5-1.4 1.1-.9-.4-1.9 1.2-.1 1.4-.9.9 2.8.7.8 2.1-.7 3.2-2.1 1.1-.3 1.3.7 5.7-1.6 2.4 1.2 2.2-6.3.3-1.3 1.7.2 3.1-1.4.7.4 1.8-2.9.5-1.6-2.4-1.3.2 1.2 4.1-2.6 2.8.6 2.9-1.2.6-4 1.6-2.5-.9-.4-3.4-1-.9.4-1.8-2.6.7-1.3.9-2.8-1.1-.9 1.8.6 1.6-4.1 2.9-.2.4-3 2.1-.3 2.8-4.4 2-.6.2-.7-4.1-3.2.7-1.3 2.1-.7-.2-2.6 2.9-1.8.5-2 .3-.6-2-3.2-.3-.4-.1-2.5.3-1.4-.4-.4-.2-2.1-4-.1-4.4 1.7-3.8-5.3.8-2.8 3.6-1.6.8h-3.4l-.5-.2-.7-.5-1-.5-1.8-.4-.5-2.3-1.8-.3-.5-1.7-2.1-1.8-2.9-.1-1.7 1.1-1.8-.5-.6-.9 1.1-2.1-1.6-3.1-5.3 3.3-1.6 3.4-3.7-1.2-.6-.4-1.7-1.2-.3-.5.1-1.7-5.5-1.4 1.4-.6-.3-1.1.8-.7-.7-.3 1.2-.5-1.3-.8-.3-.1-2.4-1.2.8-1.6-1.8.5-.8-1.9-4.7-2.4-7.4 4.4-.9.9-.4 1.6-3.1.3-1.4 2.3-1.6-.1-5.1 2.6-1.1 1.8.4 2.4-1.9 1.7-4.9.5-1.7 1.8-1.7-2.2-2.4 2.4-1.8-.8h-1.1l-.3.6-1.7-.4-2.1-1.7.3-2.6 4.4-2.7.7-2.8-3.5-3.7-.7-3.3 3.2-5.2-.3-3.2-2.6-1.5 3-7.6-2.2-7.7.9-4.4-.7-3.1 1.7-.3V442l-.6-1.9-2.4-1.5-.7-4.1-4-4.3-.6-2.2 1-.8 3.5 1 3.2-.8 3.3-5.4-.8-2.6 4.4-4.2.5-2.3 2.7-3.1 3.1.2.6-.9 1.1 1.4 3.2-3.1.7.9 1.2-.3.9-.7-.6-1.2 2.6-.8 2-4 2.4-.9-1-.8.2-1.3 1.4-.8 1 1.3 2.2-.7-1-2 2.3-2-.6-1.4 7.3-10.4-.9-1.9-1.8-.8-4-4.5-9.3-2.1-.9 1.4-2.6.9-3.2-2.5.1-3.2-1.2-1.8 3.3-10.5-3.5-1.2 1.6-4.1-2.6-2.8-2 2.1-5 .7-3.3-.8-1.5-3.6-1.7-.5-2 4-7.2-.1-.9-1.9-1.5-.5-.3-1.8 1.7-2.7-.9-2.4-2.1.2-1.6-2 1.9-.9 1-3.2 2.3-.6.5-3.7 2.7-1.5 1-2 2.7-1.1 2.9 1.7.1-1.3-.3-.7 3.8-5.5.3-5.3-2.1-.7-.9-1.3-2.5-.4-1.3-1.5v-.2l1.6-1.7-.5-2.2 1-1.2-1-2.2-2 .6-4.7-2.9-2 .3-.9 2-4-1.1-1.1-.1-1.3-.1 1-1.8-.4-2 2-2.7-.9-1 .1-2.8 2.7-1.3-2.4-4.5 2.1-2.4 2.4-.2.8-2.5 1.6 1.2 4.3-4-.1-1.3 1.7-1.8-1.8-4.3 2.3-.7-.4-2.1zM512 294.7l-.4.3v-.4l.2-.3-.1-.3v-.1h.6v.4zm10.4-15.4l.2-.1 5.8-.7 5.5 2.5 2.6-.5.9 1.7 1.9-1-1 3.3-.9 1.1-.7-.3-.5 1.6 2 2.4 3.4-1.3.4 3.2-2 .6-.4-.9-5.1.2-1.5-2.1-2.8-.2-.9 1.1-3.1-.4-1.2-2.7-2.5-.9-2.8-2.7 1.9-3.5.4-1.1.2.4zm-85.3-3.3h.5l.2.1.1.3v.4l-.7.3-.5-.6-.1-.3.1-.2.2-.1zm4.7-.1l.4.2.3 1.8-.8.5-.6-1.9.2-.9h.1zm73.5 18.5l.8 1-1.2-.5z"/><path fill-rule="evenodd" d="M477.3 416.8h.7l.7.2.2-.1.5-.6 2.6-1.1 1.4-2.6 2.5.2.3-2.7-1-2.4 1.2 1.3 3.7.4.8-.8 2.1.3 1.1-1.5 1.1 1.5 1.4-3.1 2.9-.9 8 2.5 2.7-1.3 4.3-.3.7-1.8 2.1-1 2.4.8.3 3.7 2.9 1.4 2.6.2 1.1-1.5 2.7-.1.6 1.8 3.9 1 1.1 1.9 2.5-.7-.2 2.1-1.8 1.2 2.7.5-1 2.4 1.3.9 2.4-1.9 1.3 1.1.5 2.4 1.7.3.9 3.1 2.3.5.9 1.2 3.9-2.4 2.1 2.5 2-1.2 1.8.3 2-2.4 3.3 1.1 2.7-2.8 4.8 4.2.6-.8-1-2.9.7-2.8 5.9-2 3.1 3.2.8-.2 2.9 2.8 3.3 1.1 9 9.4.7 1.1 2 1.7.6 1.4-.8 4 3 4 1.1.2 1.1 2.9-.2 2.9-1.2 1.7 1.5 4.3-1.7 6 1.1 1.5-3.3 2.8-4.8-2.4-1.2 1.3-.6 3.3.6 3.9-3.3 1.8-2.5 4.5-.5-.5-.6.7v.9l1.7.7 3.1 3.9.3.2 1.6 1.8-1.4.1-.6 1.3.5 2 1.9-2.7 9.4 9.9 2.1-1 2.2 1.5 2.2-1-.7 4.4v1.6l2.7 2-.6.7 2.8 6.3 6.2.8.1.2 1.7.6 5.3-1.4 1.4 3.4-4 1.7-.4 1.4.9 1.6-.2 1-1.1 7.8-3.7 5.6.8 3.3-1 1.6-2.2.6-1.7-.8-1.9-.6-2.1 1.8-3.7 7.3-3.7 2.2 1.1.2.3 3.8-.8.4.5 1.5-.6 1.6-1 .3.6 1.9 1.4.2-.4.6h1.4l-.5 1.5h1.5l-.6.7.8-.4.2-.2.5 1.4-1 .1 1.2.4-.1 1 1.3-.9.1.4.2.7.1-1.5 1.6.4-.7.7 1.6.1v1.1l1.1-.1 1.9 1.7.5-.6.5.1 2.1.8h.4l1.3.2.4.2 2.1.8.8-.8 2.9 1.6-1.2 7.8-4.7 8.4-.5 4.9 2.4 1.7 5.2 7.8 7-.4 2-1.3 2.6.5.7 2.7 1.5 1.4-.7 3 .8 2.6-.3 3.2-2.1.9 2.9 6.2-3 3.2-4 .1-5.7-4.5-.3-2.2-4.2-1.3-3.2 1-.7.4-6 4.8-1.5-2.1-1.2.4-3.9 3.9-.3 5.4-2.2 1.6-.6 2.2 1.1 4.2.1 8.6-7.1 5.3-5-.1-1.4-2.3v-.3l.6-1.2-1.2-1.2-1.1.9-1.6-1.4-1.7.1v1.1l-1.6-.3.7 1-7.9 4.7-4.6 1.3-4.1-1.9-1.2.8-.9 1.6-2.2 3.1-6.2 2.7-3.4 7.6-4 3.3-.7 3.3-5.1-.4-5.8-3.1h-.8l-1.8-1 6.8-8.2-.5-2.6 1.2-3.9-.4-1.6-2.7-1.3.1-7.6-5.7-1.5.3-6.1-2-1.8h-.6l-4.2 1.4-6-2.9-.7 1.8-.4-.4-.3 1-2.4 1.1v.8l-.5-.6-1.5.8-1.3 1.9-1.4-1.3-3.9-.1-1.7 1.5-.6 3.4-4-5.5-4.5 3.1-8.8-1.5-2.9-1.7-.3-.2-3.1 1-.2.7.1 1.6-3.1 2.7-2.8.7-3.8-.9-.5-2.6-2-.7-.8.2-.4 3.5-1.7.8-7.3-2.4-.6.8-2.6-.9-1.2.4-1.6.4-.4 1.9-1.6 1.4-3.7.5-13.7-.9-8.5-1.7-.8 1.6.6 2.7-1.2.3-10.4-4.7-5.6-6.5-1.1.4-.6-1-1.2-.3-.5.7-1.8-3-2.8-2-2.3-.4-.3-1.6-9.6-3.3-1.1-5.6-4.4.1-3.7-1-.5-1.8-2.3-1 3.7-1 3.5-9.9 1.2-1.8 4.2.3 1-4.3-4.6-2.1-1.1.2-2.6-7.9 5.4 2 2.6-1 .2-.1.4-1.3-1.1-.7-.6-.3-1.3-2.3 2.2-4.9h.5l1.5-2.8 4.4.5 5.7 2.2-3.7-3.6-.4-2.8-1.1-.7-1.8-5.5 3.4-.7.1-3 2.2-4.8-1.2-2.1-3.1 2.2-.5.2-1.9 1.9-3.6.7-.2.1-2.2 1.6-5.1-2-6.8-7.6-1.9-.4-4.6-5.6-1-1-1.9-2.2 2.9-3.6v-.8l1.3-5.1-2.2-3.3.9-.5-.4-3.4-2.6.3-2.9 3.7-3.4-.6-.3-5.6 1.7-2.8-2.6-2.4-5.1 1.1 2.6-8.7-.2-9.5 2.1-1.3.4.2 1.4.4 2.4-.2.4.1 3.2.3.7 1.9 1.9-.3 1.9-.5 2.6-2.9.7.3 1.3-2.2 3.1-.6.8 4 .6-.2 4.3-1.9.4-2.9 3-2 .1-.4 4.2-2.9-.6-1.7.8-1.8 2.9 1.2 1.3-.9 2.5-.7-.3 1.7 1 .9.4 3.5 2.4.8 4.1-1.5 3.1 1.4 1-1.4 4.9-1.8.2-1.7 3.2-2.5.3-2.4 1.4.9.5 5.8 1-.1.7 1.1.9-.7.6 1.2 1.6-1.2 1.4-3.3 3.7-1.8 3 2.5-.1 1.5 2.7.3 1.9-1.9 3.1 1.4-.1 1.1 2.2 2.2 2.4-.4.2 2 1.2-1.2 1 1.1h2.5l2.5 2.4 1.8-1.3 2.3 3.1 1.8.6 1.4-1.2 2 1.2 1.4-.9.3 1.1 3.5 1.8-1 4.4-4 3.4-1.1-.4-.8 2.6-1.4.7.3.7.5.2-.2.5-1.5-.6.4 1.1-.8.6.1-1.5-1.6 1.5-1.5-.6-1.5 2-.5-.9-1.2.2-1.3 1 .5.6v.4l.4 1 3.9 1.5 2.7-2.7.4-.2.8-1.6 2.2-1.2.8.5 4.5-1.6-.8-1.7 1-.3 1.8-1.8 4.3-.7.9-2.2 2.3.6 1.4-.7.1 1 1.4-.8 1.8.9 1.4-1.6-.1-1.7 2.8-.5 1.9 2.3 1.7.5.6-.8 3.9-.2.9-1.9h.2l1.2-.7.4 2.2 2.5.2 2.2-.8 2.1-2.8-2.7-2.9.4-1.8 1.3.5-1.1-2.6.5-3.2-1.3-4-.9-.9-2.4 1.8-1.4 2.4-1.4-1.1.9-5.3 2.5-3.1-.7-1.5 1.4-3-1.6-2.9-2.7-.2-.2-6-2-2.1-2.1.2-.3.2-1.6-.1.8-2.8-3-2.2.6-1.3-1-1.1.8-.5.1-.9.4-.8-1.5 1.3-1.5-.8-.5-2.7-1.3-1.1-.7 1.8-1.1-.9-1.2.5-.1-.3-1.5-.9 2.1-3.3-1-.7.2-2.2v-.2l-1.1-1.5-3-.4 2.7-4.5-.4-1.9 2.1-1.3-1.2-2.1 1.1-.1 1.7-6.7 1.2-1.1-2.7-3.4.8-3.3-4-1-1.3-3.4-1.9-1.2zm132.4 148.5l-.3.2.3-.1zm-179-107.7l1.4-1.1 3.4-.5.9-.3 1.5.7-.9 1.8.8 3.6-4.3 1.7-1 .1-1.1-.3-.5-1.9h-1.2l-2.8-.7.9-.9 4-.2z"/><path fill-rule="evenodd" d="M899.2 334.7l1 1.8 2.3.3-.4.5 2.7 3.1-1 2 .1 3.3-.7-.1 1.5 2.9 1.3.4.2 1.6-1 .7-.5 3.4-1.6 1.2-.4 1.7-1.6.5-1.2 1.7-1.9-.3-3.7 5.7-4.3 1.8-2.6 3.5-7.5 2.4-1.7 1.2-.9 2.2-15.4 6.6-9.4 6.2-6.9 2.9-4.7 6.2-1.8 4.4.9-3.8-1.3 2.9-1 .1-.1.6 1.1-.3-1.7 3-2 1.5-5.9 1.9-5.5.2-3.9 2.1-3.4.1-4.5 1.4-.9 1.1.4-.8-14.2 3.1-7.3 3.9-6.1.4-3.4 2.2-.6.2.5-.9-2.2.8-2.4 3.8-2.8-1.7-4.8.9-4.1 2-8 7.8-4.4 6.7-2.5 1.7-.7 1.9-2.5 1.6 1.9 3 3.3.1-2.6-1.9 1.8-.1 4 4.9 4.1 1-3.2 3.4-5.6 3-1.9 2.4 1-1.8-3.2-.5-2 1.3-3.9.3.2 1-.7-.5-3.5 4-1.5 3.8-4.8-2.1.3-2.5-2.6-2-4-.5-3.7-1.8-.9-1.3 1.2-3.7-.4-.2-.2-.2-.6-.7-1.5.2h-.4l-.7-2.6-1.8.7-1.7-.8-.6-1.4.9.7.1-1.1 3.3-1 .4-1.6 2.7-2.8-2.4-5.2.9-2.5v-.5l2.5-4.2-.8-.5.1-.6-1.4-2.9 1.2-.4-2.1-1.7-.9.5.1-1.1-.9.5.8-1.1-.7-2.2-1.2-.3v-3.3l.8-.9 2.1.6.4-1.6 2.6-.7 1.6-5.5 2.7-.1.1-1.1.9.1.5-3.5-1.3-2.2.2-1.2-1.3-1 1.6-2.1-3.4-3.5 2.3-4.7-.8-2.7 3.5-.6 3.1-4.3-1.2-5-1.7.7-3.3-.5.5-2.7-2-2.5.1-1.5 3.6-5.2.7.7.3-2.1 4.3-.6 1-3 1.9-1.8 1.9.1.8-2.7 1.5.1.1-1 1.6-.7-.9-1.2.2-2.7.8-.1-2.8-1.6 1.5-2.4 1.2.5.8-2.3 1.2-.5.3.9.8-1.4v-3.5l.9-.6 2-6-.6-2.8 1.4-1.1-1.1-.8.3-1.4 3.9-11.4-1.5-1.2 1.9-1.3-3-1.2 1.4-1.6-3.4-8.6.7-.8.8.6 1.6-1.5-1.3-.6.1-1.3.9-1 1 .4-.6-.9 1.6-5.7-3.9-.9-.6-3.2-1.5-1.9-.4-.3-.3-.6h.9l.4-1.5-1.2-3.5-1.3-.4 1.5-1.8-1.3-.6 1.6-1.9-.8-2.9 3.2-2 4.3 2.2 1.6-.3 3.4 1.1 4.4 3.2 2.2-1.4 1.5 1.6 3.9.5 2.1-.7 3.2 2.9.3 2.3 2.2 1.7 3.9-1.7 1.4 1.1 6.6-.3-.4 1.3 2.3 1.2.1 1.8 1.6 1.2.3 2.5 1.6 1.9-1 1.8 1 1.3-1.8 2.6 2.2-.3 1.2 2.5-3.1 2.3 1.4.7.4 3.3 6.5.4.8-2.1 1.1.7 1.2-1.6 3.7.1.9-3.2 2.1 1.2 1.3-1 2.5 1.2 2.5-.3 2.2.8 2.7 2.8 3.4-.3.2 1.9 1.2.7.4 3.4 3.4 2.9 4.3-1.2.5-1.3 1.5-.6.6-2.2 1.9-1.1 2.9.6 3.5-1.9 2.3 1.4 1.5-.3 2.3 1.7 5.1 1 .1 1.6 3 3 3.7.6.8-1.8 1.5-.4 6 1.6.2-1.6-1.4-2.5 1.1.1.2-1.4 2.7-1.5 2.5-.4 1.4 1.2 3.1-2.4.8-1.6 1.3.4.8-1.2 2.9 1 1.8-2.2 1.3 1.4 4.6-.7 2.9 4.1 2.2-1 3.4.2-1 .6.6.9-1.1 2.1.9.3-.7.7.4 1.7 1.6.8.4 1.3 2.2-1.3 1.4 1.8 1.1-.8 1.2 1.2 2.3.5-2.2 1.3.7 1.6-1.4-.1.7 1.8-.6 1h-1.6l.6 1.3-2.2-1.1-.6 1.6-2.4-1.2-.7-1.6-2.1 1.4-1.4 3.7zm-155 132.2l-3.1.5-1.6-2 1 .6-.1-1.3 2.5 1.7.8-.6-1.2-.8 3.7-.5zm1.9-2.5l1.4-1.8-1 1.8zm82.1-156.7l-3.6-.6 2.1-3 .3 2.4z"/><path d="M266.6 491.3l2 1.7 1.8.4.2-.5 1.2-.1 1.7.8 2.5-2.4 1.6 2.2 1.7-1.8 4.9-.5 1.9-1.7-.3-2.4 1.1-1.8 5.1-2.6 1.6.1 1.4-2.3 3.1-.3.4-1.6.9-.9 7.4-4.4 4.6 2.4.9 1.9 1.8-.5-.8 1.6 2.4 1.2.3.1 1.2.8-1.1.5.7.3-.8.7.2 1.1-1.4.6 5.6 1.4-.2 1.8.3.4 1.7 1.2.7.5 3.6 1.1 1.6-3.4 5.4-3.2 1.6 3.1-1.2 2.1.7.8 1.7.5 1.7-1.1 3 .2 2.1 1.8.4 1.6 1.9.4.4 2.3 1.9.4.9.5.8.5.5.1h3.4l1.6-.8 2.7-3.6 5.4-.8-1.7 3.8.1 4.5 2 3.9-2.1 1.3.3 9.5-2.6 8.7 5.1-1.2 2.6 2.4-1.7 2.9.3 5.6 3.4.6 3-3.7 2.5-.3.4 3.3-.9.6 2.2 3.2-1.3 5.1v.8l-2.9 3.6 1.9 2.3 1 .9 4.6 5.6 1.8.4 6.8 7.7 5.2 1.9 2.2-1.5.2-.1 3.6-.7 1.8-1.9.6-.2 3-2.3 1.3 2.2-2.2 4.8-.1 3-3.4.7 1.8 5.5 1.1.7.4 2.8 3.7 3.6-5.7-2.2-4.4-.5-1.6 2.8h-.4l-2.2 4.9 1.3 2.3.6.3 1.1.7-.4 1.3-.2.1-2.6 1-5.4-2 2.6 7.9 1.1-.3 4.6 2.1-1 4.4-4.2-.3-1.2 1.8-3.5 9.9-3.7 1-3.2 1.8-5.5-.8 1.1 3.1-.1.2-1.1.1v1.2l-.7-.6-.3.8-.5-.9-.3 1.5-.6-.6-2.1 2.6-2.2 1.1-1.2 1.5.2 1.2-4-.4-1.4 2.4.5 1.1-1.1-.6-.9 1.6.3.6-4.3 2.9-.3 1.7h-2.3l-1.6 1-2.4 3.9-.1 1.3 1.8 1.6-1.1 3 3.1 5.3-.1 4.6-.3.2-.8 1.5.4 1.8-2.4 1-.5 1.5-3.2-.6-4.6 4.5-1.8-.5-.4-3.2 2.9-1.9-.6-1.2.7-.4.6.9-.1-1.7-2.6-1.3-1.9 1.3-1.6-.4-1.1.9-3.3.2-1.7 1.3-.1 1.9-2.9 2.1-.2 1.4 1.3 1.7-1.6 1.7-1.2 4.1-6.2-.2-4.1 1.1-4.2 3.5-1.3-1.7-2.4.2-.8-1-3.3-.5-1.4-1.5-.3-.1-1.7-1.5-.7-2.7-2.9-.7-2.3.2.5.7-1.7 1.4.4 1.4-.7.5-4.6-1.7h-.7l-1.5.4-.3-3.1-1-1.2-1.6-1.7-1.3.6-4.5-.8-1.7.7-1.5-.6-.1-1h-2.4l1-5.3-3.2.1-5.4-2.4-.3-1.1-1.3.1-1 1.1-.6-.6-2 .6-1.1 1.6-2.4-.2-1 1.2-3.4-4.7-1-3.8-1.1-.3-6.4-9-.5-2.2-2.3-1.6-1.1.3 2.3-3-1.6-.3 1.2-5.2 3.8-6.4-1.8-1.2.8-6.9 3.1-1.8 5.1-5.5 2.1-.2 2-3 1.8-.8.4-1.3-1.1-2.3 6.1-9.5-.6-2.3-1.7-3.3-2.8-1.8-4.8 1.4-1.9-.7-.6-1.1.8-4-5.1-1.8-1.6-1.6-.6-3.2 1.1-2.2-4.8-4.6-1-3.7 1.5-2.8.3-3.8-3.3-2.2-1.1.5-1-.8-.6-3.2-2.5-.4-2.3-3.5-2-.9-1.8-5.5-.9-.6 5.3.2 7.7 1.7 5.3-2.1 6.6 1.1 1.4-.9 3.7.5 3.3-1.1 2.5-8.3-.6-3.3 2.1-.9 2.7-3.2.2-5 1.1-.9.3-3.7 1.3-2.6-4.8-8-3.8-.8-2-5.6 1.2-3.3 2.9-.9.8-1.6 2.7.2z"/><path fill-rule="evenodd" d="M199.4 196.5l1.5-2.5.8.5 1.5-.9.6.9-.8 2.5 1.3 2.2-1.5-1.1-.1 2.9-.9.3 1.2 1.1-2.1.1 1.6.9 1.8-1.2-1-2.2 2.1-.4.6 1.3 1.1-.4-1.5-1.3 1.2-.6-.1-.8 5.6-2.2 2.3-2.2-.1-1.3 1.7 1.4-2.4 3.4 1.2.5.6-1.4 2.3-.6.5 2.7 1.4.4-.5 3.3.8 1.9.4-2.3 1.2-.8-.5-1.6 1.7.1.1-1.7 2-.6.7 1.2 2.9-.1-.6 1.4 7.7 3.2 1.2 3.4 2.6 2.9-.8.8 1.1-.4 2.8 1.7-.7 1.3-.9-.1 1.2.4 1-1 4.6 1.3 3.2-.7 4.4.5.4 1.8-1 1.5-.2 4-2.2 1.6-.9 2.4-4.4-.2v2.1l.1.3-.3 1.6 1.2.7 1.3-.8.6 1.1-.1 3.5 1.9 2.4 2.5-.1-.7 3.1.7 2 2.5 2.6.7-.7.6 1.3 1.9.4.4 1.3-1 2 1.5 2.6 1.2.2 3.4-2.1-.1-.8 1.8-.5 2.1 2.5-.4 1.8-2.6 2.7h-1.5l-1.2 1.4-1.6-1-1.7 2.2.1 2.2-1.1-.5-1 1.8 1.6 2.1h1l.1-3.4 2.9 4h2.4l2.2 2.6-.3 2.7 1 1.1-1 .7.4 2.1-2.3.7 1.8 4.3-1.7 1.9.1 1.2-4.3 4-1.6-1.1-.8 2.5-2.4.1-2.1 2.5 2.4 4.4-2.7 1.3-.1 2.8.9 1.1-2 2.6.4 2.1-1 1.8 1.3.1 1.1.1 4 1.1.9-2.1 2-.3 4.7 2.9 2-.5 1 2.2-1 1.2.5 2.1-1.6 1.8v.2l1.3 1.5 2.5.4.9 1.3 2.1.6-.3 5.3-3.8 5.5.3.7-.1 1.3-2.9-1.6-2.7 1-1 2.1-2.7 1.5-.5 3.6-2.3.7-1 3.1-1.9 1 1.6 2 2.1-.2.9 2.3-1.7 2.7.3 1.9-1.6 1.9-3.9.1-1.2-2.1-2-1.1-3.7.5-.7 3.3.8 2-1.3 3.2-7.4 3.1-2.6.2-.7-.9-3.6 3.6-1.6-4.4-2.8-.8-2.2 2.6-5.4.9.7-3.2 1.1-1-4.7-.3-2.7-2.1-2.3 1.3-1.3-.5-2 1.3-2.9.3-2.7 2.4-.8-.9.4-5.1-1.2-.4-1.1 4.1-3.6.4-2.3 3.6-2.6 1.2-4.6.6-2.4-.8-.3-4.7-2 .2-1-3.2 3.5-6 2.1-2 2.6-.9.2-2.7-1.8-2.7-4.4 1-1-7.4-1.6 1.8-1.5-.5-.7 1.4-3.8 1.6-.9 1.7-2-.5-1.2 1.1-2.6.4-1.2-.9-4.9.3-.4 1.3-1.2.7-5.5.5-1.5 1.7-.6 2.3-5.1 3.2-.6 2.5-4.1 2-3.2 3.9-.6-1.1-.5-8.2.7-2.3-1.5-9.5 1.3.1 1.8-1.5 1.1 1.4.6-.4.4-2-2-1.4h1.8l.4-2.6 2.4-1.5 1-2.3 1.4-.1-.9.2.8.4 5.1-5 3.1-.2-.9-1.8 1-2.9-1.4-.9-.2 2.3-1.6 1 .1 2-3.3 1.3-.4-1.1-.8.2-.4 1.3-1.8 1.1-1.1-.4-.6 1.4-1.3-1.1-1.1.7-1.6-.9-.5 1.3-.6-.3 1.1-5 1.6 2.6h.9l-.2-2.9-1.2-2.2h2.3l1 1 2-1 1.9-3.9 4.6-3.6-1.9.6-.6-1.6-5.2 4.5-2.6-1.2-1.5 1.5-2.7-2.7.6-1.7-.9-1.9-1.7-.4-.9 1-1.1-1.1.4-1.4 3.1-.1-.2-1.1 1.3-.7 1 2.5-1 .9.2 1.2 1.7-1.2 1.5 1.1-.9-2.8 1.5-1-.8-1.1.6-1.9-1 .8-.7-2.6 1.3-.8-1-.2.3-1.2 2.2-.3 1.8-1.9-.8-1.1 1.5-2.8-.9-.5-2.2 1.4-1.1-.8.6-1.7-1.8-1.8v2.2l-.7-.4-.7 1.7 1.5 1.2-1.3.5.1 1.7-2-.3.9-1.9-1.7-.6-2.3 2.7 1.1 1.8-2 .2-.7 1.3-1.6.3-.1 2.6-3.4 1.6.6-3.5-1.4-1.6-1.1.8-1.1-.8 3.1-5 1.2-6.5h.9l1.5-2.6 2-.5 2-3.4 1-.4 1.5 1.7-.8-1.7.2-2 .5-.2-1-1.5-.3 2.8-1 .4-.4-.8-1.9 2.4-1.2-1.3-.1 1.3-2.1-.2-.3-1.9-1.4 1.4-1.4-.1 1 1.6-2.7 2.7-.6-1.4-1.2.1-1.1-3.3-1-.5 2.7-2.2-.2-1.6-1.3-.3-1.3-2.4 1.4-3-2.1-.4-2.2-3.9.7 3.5-1.7-.1-.7-2.1-.9.1v1.2l-2 .8-.3 3.2-.7-.9.3-1.7-1.5-1 .3-1.5 1.8-2.9v-2.6l.9.4.4-.7-1.8-.5-1.4-4 1.5 1 1.1-.6.1-3.5 2.2.4.1-2.4 2.3 2.2 1.4-2.8 2.4-.9-2.5.5-.1-2.1-1.1 2.4-1.3-.4-.7-2.9 1 .7 1.1-1 .4-2.3 1.2.8.4-1.2 1 .5.3-.6 3.1 1.4 2.5-1 1.8-3.5 1 1.5 1.1-1.1 2.2.1-.1 1.1 1.2-.6.7-1.7h1l-1-.2-1.7 2 .4-1.1-.9-2.5-1.6.1-.9-1.2 2.1-1.7 1.9 1.1.1-1.1 1.2.1-.2-2.5 2.3.8.2-.8 1.6.2.4-2.2 3.4 3.6 5 1.1 6.3-2.7 3.2 1 1.4-.5 1.5-1 1-2.7 1.1.5 1.4-.6 1.2-2 1.8 1.1.5-1.7 1.1 1.9-1.3.4 1.2.8.1 1 2.1-.4.8-2.7-1.1-.3.3-1.3 2.7-.8.8 1.8 2 .2 1 1.5-.3 1.3 2.7 2-.2-1.2.8.4-1.3-1.5.7-.9-.7-2.5.9-1.4 2.1-.2v-.7l-1.5-.5-1.3.8-.9-.9-1.8.9-1.3-1.5-2.4-.8.9-.2-.5-.7 2.5-.8.3.7.8-.9 1.6.9 1.7-.4 1.3-1-.2-1 .8.5.6-1.6-4.4 2.1v-.8l-1 .3.1-1.4-1.3 2.3-1.9.6-1.3-.9-1.4 1-.5-.5 1.8-2.9-.5-1.9 2-1.4-1.8-2.2.8-.8 1.1 1.2 2.2-.1 4.3-3.8.3-1.8 2.2.3-.1 1.7.9-3.2 1.9-.5 1.2-2.3.4 2.6 1-.6 1.1 1-1.3-1.4h1.2l-.1-1h-1.3l.9-3.9 1.8-.8 2.1.8 3.1-2.1.1-1.1zm42.7 16l-.5.6.5-.6zm-101.7 63.3l-.9-.1-.5.9zm-1.5.8l-.2.1.1.1zm31.6-45.6h-.1l.2 1zm-33.9 93.9l1.3 1.9-1 1.4.5-1.1zm-.2-12.2l-1.5 3.4-.1-2.2.9-1.5zm-5.9-7.6l.9 1.2-.7.6zm8.8-7.7l.3.9.9-.3.3 1.7-1 .2.2 1.6-.6.1-.5-.8.7.2-.6-.8.7-1.4-1.4-.9zm-2.2 31l1.2 1.4-1.5-.4z"/><path fill-rule="evenodd" d="M583.8 349.1l-6.8 4-1.2.1-1.7-1.7-.4-.4-6.2-1.5-.5-2.9.8-.7-3.3-5.2 2-1.1.1-1.6-6.8-.4-2.1 1.2-.9-3.6-2.5-1.2-7.6.7-1 1.8-1.8.7-1.8-.6-.1 3.8-2.1 1.5-2 4.8-2.8-.9-3.1.8-1.9-1.6-2.6.5-.7-1.9 3-4.4.1-1.7-1.8-1.8-1 .6-1.4-.5-1.1 1.3-.2.6-.9 5.4-2.8.5-1.9 1.9-2.1-2v-.7l-1.3-4.1-6.1.2-6.1-9.4 1.6-1.4.9-2.8-1.1-5.7.7-1-.3-.3-.5-2 2.9-.8-1.4-2.1h-1.3l.3-2.6h1.4l-.2 1.7 1.6 2.2-.5-4.6 1.1-1.8-3.1-3.6 1.2-1.3.3-2.2-1.1-.8-2.2.4-.6-.8 1.9-1 1.8-2.7.9-.3-1.4-4.4 4.1.7.9-1 1.4.8 2.3-.3 2.2 1.6.9-.7.8.6 1.6-1.5 1 .8v1.8l1.5-.3-.1 1.8-1.3.8.2.9 1.2 1.3.2-1.2.8.4 1.5-1.3.9-3.6h1.6l3.6 2.3-.6 4.7-.8 2 1.8-.8-.1 1.4 1.4.6.6 1.7 2.6-1.7.7 2.6 1.6-1.8 2.4.9-.4-1.1 1.8-2-.3 2.5 2.3.4 1.8-.9 1.7.6 1.4 1.4 3 .7.5 1.2.8-.2-.2-1 .5-.3 1.9 1v-.9l.7.2.4.8.4.9 2.2.4-.1.9 1.7.6-.1.6 1.9-.2 1 .9 1-.9 2.8-.1-.4 1.7 2.3 2.7-.5 1.8 1.2.3 3.2-2.2 1.4.5 1.7.9.3 1.6 1.4-.1.7 1.1.8-.4.2 2.3 2.9 1-.1 3.1 1.1.2.2-.8 1.9.9.4 1.7 6.2 1.3.9 1.8h1.4l-1.3 1.6 1.2 1.8-1.3 1-1 .6-2.6-1.5-1.6 1-2.6-1.2-4.3 5.8-.9 2.2.5 2.4 2.8 2.3.6-.4zM511.6 295l.4-.2.3-.4v-.5l-.6.1v.1l.1.3-.2.2-.1.4zm3.3 0l1.2.4-.7-.9-.4.4c-.1 0-.1.1-.1.1z"/><path fill-rule="evenodd" d="M477.3 416.8l-.1 1.3 1.9 1.1 1.3 3.5 4 1-.8 3.2 2.7 3.5-1.2 1.1-1.8 6.7h-1l1.2 2.2-2.1 1.3.4 1.8-2.7 4.6 3 .3 1.1 1.5v.3l-.2 2.2 1 .6-2.1 3.3 1.5 1 .1.2 1.1-.5 1.2 1 .7-1.8 1.3 1.1.5 2.7 1.5.7 1.5-1.3-.4.9-.1.9-.8.5 1 1.1-.6 1.3 3 2.1-.8 2.9 1.6.1.3-.2 2.1-.2 2 2.1.2 6 2.7.2 1.6 2.8-1.4 3.1.7 1.4-2.5 3.2-.9 5.3 1.4 1.1 1.4-2.5 2.4-1.7.9.9 1.3 4-.5 3.1 1.1 2.7-1.3-.5-.4 1.7 2.7 3-2.1 2.7-2.2.9-2.5-.3-.4-2.1-1.2.7h-.2l-.9 1.8-3.9.3-.6.7-1.7-.4-1.9-2.3-2.8.5.1 1.6-1.4 1.7-1.8-.9-1.4.7-.1-.9-1.4.7-2.3-.7-.9 2.3-4.3.6-1.8 1.9-1 .2.8 1.7-4.5 1.6-.8-.5-2.2 1.2-.8 1.7-.4.2-2.7 2.7-3.9-1.5-.4-1.1v-.3l-.5-.7 1.3-.9 1.2-.3.5 1 1.5-2.1 1.5.7 1.6-1.5-.1 1.5.7-.6-.3-1.2 1.5.7.2-.6-.5-.1-.3-.7 1.4-.7.8-2.6 1.1.3 4-3.3.9-4.4-3.4-1.8-.3-1.1-1.4.9-2-1.3-1.4 1.2-1.8-.5-2.3-3.2-1.8 1.4-2.5-2.5h-2.5l-1-1-1.2 1.2-.2-2-2.5.3-2.1-2.1.1-1.2-3.1-1.3-1.9 1.9-2.7-.3.1-1.5-3-2.6-3.7 1.9-1.4 3.2-1.6 1.2-.6-1.1-.9.6-.7-1H426l-.4-5.8-1.4-.8-.3 2.4-3.2 2.5-.2 1.7-4.9 1.7-1 1.4-3.1-1.4 1.2-.6-.6-2.8 2.5-2.9-1.1-4.1 1.3-.2 1.5 2.4 3-.3-.3-1.8 1.3-.7-.2-3.1 1.3-1.7 6.3-.3-1.1-2.2 1.5-2.4-.7-5.7.4-1.3 2-1.2.7-3.1-.8-2.1h1.2l.5 1.8 1.1.3 1-.1 4.4-1.6-.9-3.6.9-1.8 4.1-5 1.7-3.7 2.6 1 3.2-.5 2.6-11.6 1-.2 1.8-3.2 7.2-2.9 2.5-4.4 4-2.4 2.9-4.4 2.6-1.9zm-46.5 40.7l1 2-3.9.3.1-1.4 1.8-1.2z"/><path fill-rule="evenodd" d="M553.2 673.4l.6-3.2 4-3.3 3.5-7.7 6.2-2.7 2.2-3.1.8-1.6 1.2-.8 4.1 2 4.7-1.3 7.9-4.7-.7-1.1 1.5.3.1-1.1 1.6-.1 1.7 1.4 1-.9 1.2 1.2-.6 1.2v.3l1.5 2.4h5l7-5.2-.1-8.7-1.1-4.2.7-2.2 2.2-1.5.2-5.5 4-3.9 1.2-.4 1.5 2.1 5.9-4.8.8-.4 3.2-1 4.2 1.3.2 2.2 5.7 4.5 1.6 6.6-1.5 4.1.8 2.1-5.1 4.7 1 .5-.5 6.8 6.8.8 1.4 3.5-1.4 6.7-3.1 5.1.4 3.6 7.4 14.1 4.6 4.8 3 1.6 1.3-.2.9 4.5-2.3-2.2-1.2 3.2-2.6 2.3-1 2.3 3.9 5.1 3.9 2.1 1.4-1.8 1 1.6.9-.1-2.1 2.5-3.9.9-2.3 1.7-1.6-.8-2.1.5-2.6 1.9-2.7-.5-.3-.6 1.3-.2-1.9-.4-.6-1 .6-.8-1.2-.2.4 1.6-1.3-.4-1 1.1-3.2-.9-2.3 1.2-1 1.4 1 1.4-3.5-.6-.4-1.4-2-1.6-2.7-.2-.7 1.5-4.5-.4-4.7 4.5-3.7 1.6-1.7 5.1-2.1-.7-2.7 2.2-2.1.3-2 2-6.9-5.3-4.8-.9.1 1.4-2.3-1.6-9.5-15.4-.4-.4-.7-3.8 1.1-2.2-.9-3.8.9-5.3 1.3-1.9-.4-.6h-.4l-1.2-.4-1 .9-2.6-1.2-1.4.8-2.5-2.2-3 1-5.1-4-2.9-5.2zm101.1 19.9l-.2 1.4 1.2 1.1-1.2-1-.5-1.4zm.5 2.5l-.4 2.8 1.3 4.7-1.6-4.5z"/><path d="M596.6 233.9l1.9.4-.4 2.1 1.4 2.7 2 .1 1.3-2.5-.4-.8 3.1-.5 3.3 2 3.1-.1 1.9 1.8v5.4l-1.2 1-.8 4.3-3.7 3.4 2.1 3.6 5.4 1.5.6-5.7 1.6-1.6 3.1-.4-2.5 4.2 3 2.2 3-.7 4.4 2.4.2 1.4 1.8-1.4 2.1 2.1 4.4.7.9 1.5 3.4 1.8 2.4-.9.6.8 5.5.3 3.5-1.4 1.5 1.9-.4.9.8 1.3-3.6-.1-2.2 1.6-.2 3-2.3 1.8-.3 4.1.8 1-1.1 2.1-2.3.2v1.5h-1.4l-2.9 3.4-3.6.2-.9.9v3.7l-7.1-.1-.3 3.2h-1.4l1.3 1-2.8 1.9-.1 2.4h-.3l-1.3.6-2.2-1.2-1.5 2.9.7 4.1-4.1 4.4-1.1 3.9 1.5.6.4 1.4-4.4 5.3.4 1.5-1.6 4.6 1.6 3.4-.5 4.6 2.1 1.7.9 2.8 2 .1.6-.1.4 2.6-2.2 2.1-2.8 5.1.3 1.2-1.8 2.1-5.9-.4-.7.7-1.2.4-1.6-.3-6-4.3-4 .8-3.3-3.3-4.4.1-.6-1.3-.6.4-2.9-2.3-.4-2.3.8-2.3 4.4-5.8 2.6 1.3 1.5-1.1 2.6 1.5 1.1-.6 1.3-.9-1.2-1.8 1.2-1.7h-1.4l-.9-1.7-6.2-1.4-.3-1.7-1.9-.9-.2.8-1.2-.2.2-3.1-2.9-1-.3-2.3-.8.5-.7-1.1h-1.4l-.3-1.5-1.6-.9-1.4-.5-3.2 2.1-1.3-.2.6-1.9-2.4-2.6.4-1.8-2.7.2-1.1.9-.9-.9-1.9.2.1-.7-1.8-.6.2-.9-2.2-.4-.4-.8-.4-.9-.7-.2-.1.9-1.8-.9-.6.2.3 1-.9.2-.4-1.1-3-.7-1.4-1.4-.1-1.8 2-.6-.3-6.9-1.6-.7-1.9 3.2-.7-1.6h-1.7l-.6-2.5 1.1.3 2-2.9 2.2-1.3 2.1.5.7 1.1-.6.8 5.6-1.5.2-1.4-.3-.8-1.1.4-.8-4.4.5-1.3 3.4-.8-1.1-3.3 3-4.7-.6-3.9-.5-.7h.7l.1-2.5 1.7-2.2 1.9 1.2 3.4-.4 1.5-.7.8-2.2 3.2-.6.7-1.5-.8-2.8 1.3-1.5.1-.7.4-1.5 4.1-2.1 2.8-3.3-1.1-1.5.4-6.2 2 1.5.4-2 .9 1.7.8-1 .5-.2 3-1.8.1-2.6.7-.8.2-.2.9.1 2.1-1.1 2.4-1.2z"/><path fill-rule="evenodd" d="M525.1 222.1l2.1-.9.8 2.4 3 2 2.8-.9 1.8 2.1 1.1-.2 1.1 1.1 1.4-.8.8 1.5 2.5-.3 3 3.6 6.7 3.2 4.6.3 3.5-1.4 1.4.6.2-.7.8 1.7 2.1.6 8-3 2.5.5-.1-.9 2-1.1 2.8.2 4.3-3.8 3.7-1.4.5 2.9-1.6 1 3.1.6 1.4 1.2.3 2.7-2.1 1.2-.9-.1-.2.1-.7.8-.1 2.7-3 1.8-.5.1-.7 1-1-1.7-.3 2-2.1-1.4-.4 6.2 1.2 1.5-2.9 3.2-4.1 2.1-.3 1.5-.2.8-1.3 1.3.9 2.9-.7 1.5-3.3.6-.8 2.2-1.5.7-3.3.4-1.9-1.2-1.8 2.2v2.5l-.8-.1.5.8.6 3.9-3 4.6 1.1 3.3-3.4.9-.5 1.3.8 4.4 1.1-.5.3.9-.2 1.3-5.6 1.6.6-.8-.7-1.2-2-.5-2.3 1.4-2 2.9-1-.3.5 2.5h1.8l.6 1.6 1.9-3.2 1.6.6.3 6.9-1.9.7v1.7l-1.7-.6-1.8.9-2.4-.4.3-2.5-1.7 2.1.4 1-2.5-.9-1.5 1.9-.7-2.7-2.6 1.7-.7-1.7-1.3-.5v-1.4l-1.8.7.9-2 .6-4.7-3.7-2.3h-1.5l-.9 3.6-1.5 1.3-.8-.3-.2 1.1-1.2-1.2-.2-1 1.3-.8.1-1.8-1.5.3-.1-1.8-.9-.7-2-.9-.6-1.6.1-.2-.3-2-1.8-1.2-3.1.3-2.3-2.9v-.3l-1.6.2-.5-2.3-6.2.7 1.5-2.7-2.1-1.3 3.1-5.9-.6-1.8-2.5 3.1-2.1-1.1-2 2.6 1 1-.6.1-4.4-4.8 3.8-5.8 5 1.3-.1 1.4 3.5 1.6 4.6-.8 2.5-2.5-3.9-2.8.3-.9-1.6-1.9-5.2-.3-2-1.3 2.2-.7v-3.2l-1-.6 1.4-2-.4-1.1-.7.5-1.8-1.3 2.5-4.2-1.6-1-3.4.5-2-2.3-10.4 5.6-1-6.5-.5-.7-.5-1.6 3.3-.9.9-2.1 2.8-.6.5-2 .6.7 1.7-.7 1 .9 3.4-1.6 1 2.2 1.2-1.3 2.1-.3.2-4.5 1.7-.1.7 1 .4-1.8h.8l3.2 2.2.9-.7-.7.6 1.5 1.2.4-2-1.5-2.2 2.1-.7 2.2-2.7 1.4.1v-2.1l8.7.5zm-30.6 21.1l-.1-2.4 1.3-2.5-1.1-.6-2.5 1.2 1.4 4.7zm27.1 36.5l-1.9 3.6 2.8 2.7 2.5.9 1.1 2.7 3.1.3.9-1 2.9.2 1.4 2.1 5.2-.2.4.9 1.9-.6-.3-3.2-3.5 1.3-2-2.4.6-1.6.7.3.9-1.1 1-3.3-2 1-.8-1.7-2.6.5-5.6-2.5-5.8.7-.3-.3-.3-.4-.1-.1z"/><path fill-rule="evenodd" d="M629.1 515.8l1.1.7.5-.8 1.5.3 1.3-.9 5.3-.1 3.5 1.9.8-.6 1 2.1-.6 1.7.8 2.3-.7 1.5 2.7 2 4.7-2.8-2.6-3.5.1-4.4 3.4-1.4 1.7-4.3 4.6.2 3.2-2.5 1 .3-.8-2.7 1.1-1.9 2-.9 2.2-9.4 3.2 1.9 4.2-1.2 2.8-1.7-1.1-2.5.7-.9h1.4l1.8-2.9 3.6-2.1-.3-1.8-3.8-4.6.8-1.2 3.9-1.6-.3-1.9-1.5-1.3.5-7.9-2 .6-2.9-.9-.6-4.3 3.1-1.2 1.5 1.6 4.5-2.5.3-4.1 2.2-3.6 3.3-.1v1.4l2.3 2 2.9 1.3 2.5-.2h1.3l1.2.4v.2l.8 2.4.7.2 4.3-2.9 2.5.6 1.4-1.2 1.8.8 1.7-.7.8 2.7h.3l1.5-.2.6.6.2.2.5.2-1.3 3.8.9 1.3 3.7 1.7 4 .5 2.6 2-.3 2.6 4.8 2-2.4 5.3-.1-.6-3.6 5.5-.5 3.5-5.3 6.8-2.4 1.9-1.4 3.6-4.6 3-3 7.6-6.2 4.1-3.5 9.6-3.7 4.5-1.1.1-6.2 10.3-1.9 6.5-3.3 3.6-3.6 8 .1 5-.9-.7.8 1.3-1.1.5 2 8.6 5.7 11.8-1.5 1 .2 2.5 4.8 12.1 8.8 9.6 9.2 2-1 .4.5.7.3-.7v.9l4.8 2.4-.9.9.5 1.6 1.2 1.1.9-.3.6 2.2-3.2 1.3-2.1 3.2-1.3-.5-2 1.2-1.5 2.1.6 1.2-2.2-.8-1.2 1.3-2.1-.4-1.7 1-2.2 3.2.9 1.3-3 3.1-3.4-.9-1.4 1.6-7.2 2.2-5.6 3.7-1.8 3.1v4.2l-2.7-.8-2.8 2.9.6-1.4-1.4.7-1 4.2.7 6.2-.9 1.2h-4.5l-1.3 1.4-1.8 5.8-.3 7.9-1.2 2-2.1.7-1.4 4.5-1.9 1.1-.8 4-1.3.1-3-1.5-4.6-4.8-7.4-14.2-.4-3.6 3.1-5.1 1.4-6.6-1.4-3.5-6.8-.8.5-6.8-.9-.5 5-4.7-.8-2.2 1.5-4-1.6-6.7h4.1l3-3.2-2.9-6.2 2.1-.9.3-3.2-.8-2.6.7-3-1.5-1.4-.7-2.7-2.6-.5-2.1 1.2-7 .5-5.2-7.8-2.3-1.7.5-4.9 4.6-8.4 1.2-7.8-2.9-1.6-.7.8-2.1-.9-.4-.1-1.3-.2h-.4l-2.2-.8-.4-.1-.5.6-2-1.8-1.1.1v-1l-1.5-.1.6-.7-1.6-.4-.1 1.5-.1-.8-.2-.3-1.2.9.1-1-1.2-.5h.9l-.4-1.4-.2.1-.9.5.6-.7H607l.4-1.5H606l.5-.6-1.5-.2-.5-1.9 1-.3.6-1.7-.6-1.4.8-.4-.2-3.8-1.1-.2 3.6-2.2 3.7-7.3 2.2-1.9 1.8.7 1.7.8 2.3-.6 1-1.6-.8-3.3 3.7-5.6 1.1-7.8.2-1-.9-1.6.4-1.4zm-19.7 49.7l-.3.2zm.1-63.8l3 .4.7.4 1.1-.5 1.5.7 1.1-1 1-.4v-4.2l1.3-1 .1.7.3 1 1 2.4 1.9 1.2.1 2.4 6.1.3 4.5 3.6.4 1.6-.8 1.1-5.2 2.1-5.2 1.3-1.7-.5-.1-.3-6.2-.8-2.8-6.3.6-.6-2.7-2z"/></svg>