<svg xmlns="http://www.w3.org/2000/svg" width="1024" height="1024" viewBox="0 0 1024 1024" fill="#e83c4b" stroke-linecap="round"><path d="M457.8 481.902l1.24-6.17-2.2-3.31.55-3.87 2.48-2.48 3.04-7.45 7.73-3.32 4.97.28 1.65-3.31-2.48-6.9 1.38-4.14h4.97l.55-3.04 2.76-1.93h4.97l3.59 2.48.27 3.32 3.31 1.1 5.8-4.14 1.11-7.18 5.24-.27 6.9-3.32h3.04l1.65 4.14 9.39 11.6 3.59-.28 9.66-9.66 14.63-10.21-1.11-4.97.83-2.21 3.04-.55 1.1-9.11-4.41-2.76.27-3.04 11.04-10.21 2.49-.55v-2.21l5.79-.28 1.11-5.24-1.38-5.52-5.8-5.52-3.59-.83-1.38-14.91-3.03-4.41-.83-5.8-2.21-3.31v-6.07l3.86-4.14.56-8.56 2.76-7.73-.28-6.9-8.28-21.53-6.63-2.49-1.93-3.58.83-4.97-5.8-3.04-1.38-6.24-3.58-4.41 2.2-11.04-4.14-6.63-5.79 3.04-5.9-10.85 7.71-2.55 4.78-3.69 14.9 5.25 12.71-7.47 3.15-.24 8.18 8.32 5.09 14.84 6.16-5.57 3.54-1.37 1.62 1.04 2.39 4.2 1.77 11.48.69 43.57h1.56l7.41-12.59 4.13-2.22 3.01.42 4.78 3.59 5.06 15.05-7.59 23 1.39 3.82 15.51-1.46 16.39 4.1 9.07 9 6.1 12.05 2.28.99 8.18-3.58 2.53 3.58-.87 12.33-3.36 9.93-6.44 9.31-.31 8.32 1.59 4.23 25.22 1.88 4.22 3.86 10.75 4.01.36 4.33-3.59 7.73-4.14 1.38-1.1 8.01-9.66-.83-3.59-3.59-2.76-.55-6.35 4.69 5.79 5.8v3.31l6.63 2.21 1.93 3.31 4.14 1.11 1.38 3.58-1.93 1.38 3.04 5.53-3.32 1.38-.82 5.79 3.31 3.59 3.86 1.66 1.11 6.35 5.24 3.86 2.76 6.9-5.24 1.93-1.66 2.49-6.62-3.59-3.04 1.93-2.48-3.31h-4.97l-5.25 6.35 1.11 8.28-4.42 2.48-6.62-2.21-1.94-4.41-5.79-1.38-1.38-2.49-9.11 3.87-3.87-1.38-2.2-2.76-4.7-.28-5.24 3.31-4.14 8.01 6.35 7.73-2.49 3.59.55 4.69 5.52 3.86-.27 2.76-2.49 6.63-9.38-1.38-1.38 2.21 1.93 3.58-1.08 8.5-.02-.05-2.49.83-1.38 2.76-2.21-.28-4.96-7.17-4.14.55-3.59-2.76-6.9.27-6.9 2.49-3.59-1.11-6.07 3.87-3.04-.28-2.49-7.17-10.76-.83-3.87-3.32-10.21 4.7-6.35-3.04-8.28.55-5.52-4.41-1.1 3.03-6.9 1.38-1.38-4.41-6.08-1.66-6.9 4.69-1.1 3.04-10.19 1.32-.02-.22-1.94-7.73-6.07-1.93-5.8 4.14-2.76-2.21 3.59-4.69-1.93-5.79 5.52-.56.28-6.62-1.94-.83-1.38-4.14-2.2.55-2.49 6.07h-6.62l-2.49 2.21-4.69.56-5.24 5.52-1.38-5.8 3.31-3.87.55-7.17 3.04-2.76.55-6.9-8.28-5.52v-2.76l4.14-4.14.83-4.97-5.52-3.04-6.65.97-1.5-.1z"/><path d="M458.775 475.784l-2.196-3.303.575-4.047 2.504-2.503 3.059-7.498 7.878-3.384 4.865.274 1.529-3.067-2.474-6.881 1.465-4.393h4.941l.531-2.936 2.909-2.034h5.127l3.752 2.592.266 3.273 3.032 1.008 5.611-4.005 1.125-7.277 5.393-.278 6.906-3.323h3.266l1.699 4.262 9.284 11.469 3.367-.263 9.61-9.61 14.51-10.127-1.089-4.879.906-2.413 2.998-.542 1.059-8.769-4.406-2.757.293-3.289 11.16-10.322 2.36-.521v-2.247l5.835-.282 1.058-4.995-1.348-5.394-5.698-5.423-3.699-.855-1.391-15.025-3.026-4.405-.83-5.801-2.221-3.326v-6.244l3.866-4.147.557-8.506 2.755-7.717-.276-6.811-8.225-21.386-6.613-2.484-2.015-3.738.815-4.876-5.743-3.01-1.392-6.295-3.617-4.456 2.203-11.058-3.964-6.349-5.803 3.047-6.161-11.329 7.954-2.631 4.854-3.747 14.918 5.257 12.66-7.441 3.324-.253 8.301 8.443 4.985 14.535 5.914-5.346 3.701-1.433 1.779 1.142 2.443 4.293 1.78 11.543.686 43.341h1.171l7.373-12.527 4.264-2.292 3.154.44 4.894 3.676 5.111 15.202-7.588 22.997 1.294 3.557 15.36-1.446 16.498 4.127 9.148 9.077 6.077 12.006 2.098.91 8.266-3.618 2.7 3.82-.879 12.451-3.381 9.993-6.419 9.279-.305 8.197 1.516 4.034 25.147 1.874 4.248 3.886 10.853 4.048.379 4.554-3.664 7.888-4.094 1.365-1.112 8.091-9.987-.858-3.601-3.601-2.577-.513-6.028 4.452 5.658 5.668v3.233l6.548 2.183 1.926 3.302 4.164 1.116 1.495 3.88-1.907 1.363 3.067 5.58-3.445 1.432-.784 5.532 3.194 3.463 3.935 1.693 1.116 6.384 5.217 3.843 2.882 7.205-5.405 1.99-1.742 2.613-6.691-3.629-3.111 1.975-2.544-3.395h-4.727l-5.106 6.175 1.118 8.34-4.664 2.617-6.83-2.28-1.935-4.398-5.776-1.376-1.324-2.39-8.993 3.82-4.029-1.436-2.175-2.729-4.509-.269-5.114 3.231-4.033 7.804 6.365 7.748-2.544 3.668.526 4.484 5.548 3.88-.287 2.938-2.573 6.85-9.418-1.386-1.216 1.948 1.899 3.523-1.212 9.537-.291-.727-2.168.722-1.413 2.826-2.496-.316-4.937-7.136-4.091.543-3.601-2.768-6.771.265-6.942 2.506-3.559-1.101-6.045 3.854-3.285-.303-2.489-7.167-10.679-.824-3.81-3.269-10.171 4.682-6.397-3.062-8.311.552-5.324-4.253-1.029 2.835-7.258 1.451-1.407-4.494-5.837-1.593-6.737 4.579-1.125 3.107-10.598 1.373-.042-.459-1.902-7.576-5.818-1.85-5.852 4.177-3.098-2.481 3.658-4.779-1.987-5.96 5.615-.57.264-6.231-1.885-.806-1.342-4.027-1.853.463-2.505 6.108h-6.693l-2.478 2.199-4.678.559-5.495 5.789-1.517-6.373 3.34-3.904.551-7.188 3.041-2.761.53-6.654-8.269-5.513v-2.998l4.157-4.156.787-4.716-5.291-2.915-6.593.962-1.811-.121 1.276-6.348zm.515 5.967l6.707-.978 5.749 3.165-.873 5.224-4.123 4.124v2.522l8.291 5.527-.57 7.146-3.039 2.759-.549 7.152-3.28 3.836 1.243 5.227 4.985-5.251 4.702-.561 2.502-2.221h6.547l2.475-6.032 2.547-.637 1.418 4.253 1.995.854-.296 7.009-5.425.55 1.873 5.62-3.522 4.601 2.422 1.939 5.748-4.103 6.322 2.01 1.978 7.884-.002-.019 9.782-1.267 1.075-2.973 7.063-4.801 6.323 1.727 1.353 4.326 6.542-1.309 1.171-3.225 5.716 4.567 8.249-.548 6.303 3.018 10.249-4.718 3.93 3.371 10.841.836 2.491 7.173 2.795.257 6.095-3.886 3.621 1.119 6.858-2.474 7.029-.275 3.579 2.752 4.189-.557 4.983 7.204 1.924.244 1.347-2.694 2.588-.863-.027-.702.948-7.463-1.961-3.637 1.544-2.472 9.342 1.374 2.407-6.41.253-2.582-5.492-3.84-.574-4.896 2.436-3.512-6.335-7.712 4.247-8.216 5.366-3.389 4.891.291 2.225 2.791 3.711 1.324 9.228-3.92 1.435 2.59 5.804 1.384 1.945 4.422 6.41 2.14 4.176-2.343-1.102-8.22 5.394-6.525h5.213l2.416 3.225 2.969-1.885 6.549 3.551 1.578-2.367 5.075-1.87-2.638-6.595-5.263-3.877-1.104-6.316-3.785-1.627-3.426-3.717.856-6.048 3.195-1.328-3.013-5.48 1.953-1.397-1.265-3.28-4.116-1.104-1.934-3.318-6.712-2.237v-3.387l-5.922-5.932 6.672-4.928 2.943.587 3.579 3.579 9.333.802 1.088-7.929 4.186-1.395 3.516-7.572-.341-4.106-10.647-3.972-4.192-3.834-25.293-1.886-1.664-4.426.315-8.443 6.461-9.341 3.339-9.867.861-12.209-2.36-3.34-8.094 3.542-2.462-1.07-6.123-12.094-8.992-8.923-16.282-4.073-15.66 1.474-1.486-4.083 7.592-23.003-5.009-14.898-4.666-3.504-2.866-.4-3.996 2.148-7.447 12.653h-1.949l-.694-43.799-1.76-11.417-2.337-4.107-1.461-.938-3.379 1.307-6.406 5.794-5.195-15.145-8.059-8.197-2.976.227-12.76 7.499-14.882-5.243-4.706 3.633-7.466 2.469 5.639 10.371 5.777-3.033 4.316 6.911-2.197 11.022 3.543 4.364 1.368 6.185 5.857 3.07-.845 5.064 1.845 3.422 6.647 2.496 8.335 21.674.284 6.989-2.765 7.743-.563 8.614-3.854 4.133v5.896l2.199 3.294.83 5.799 3.034 4.415 1.369 14.795 3.481.805 5.902 5.617 1.412 5.646-1.162 5.485-5.745.278v2.173l-2.62.579-10.919 10.098-.248 2.791 4.414 2.763-1.141 9.451-3.082.558-.754 2.007 1.131 5.061-14.75 10.293-9.709 9.71-3.814.297-9.496-11.731-1.601-4.018h-2.814l-6.894 3.317-5.087.262-1.095 7.083-5.989 4.275-3.588-1.192-.274-3.367-3.428-2.368h-4.813l-2.611 1.826-.569 3.144h-4.999l-1.295 3.887 2.486 6.919-1.771 3.553-5.075-.286-7.582 3.256-3.021 7.402-2.456 2.457-.525 3.693 2.205 3.317-1.205 5.992 1.189.079z"/><path d="M526.02 237.272l5.9 10.85 5.79-3.04 4.14 6.63-2.2 11.04 3.58 4.41 1.38 6.24 5.8 3.04-.83 4.97 1.93 3.58 6.63 2.49 8.28 21.53.28 6.9-2.76 7.73-.56 8.56-3.86 4.14v6.07l2.21 3.31.83 5.8 3.03 4.41 1.38 14.91 3.59.83 5.8 5.52 1.38 5.52-1.11 5.24-5.79.28v2.21l-2.49.55-11.04 10.21-.27 3.04 4.41 2.76-1.1 9.11-3.04.55-.83 2.21 1.11 4.97-14.63 10.21-9.66 9.66-3.59.28-9.39-11.6-1.65-4.14h-3.04l-6.9 3.32-5.24.27-1.11 7.18-5.8 4.14-3.31-1.1-.27-3.32-3.59-2.48h-4.97l-2.76 1.93-.55 3.04h-4.97l-1.38 4.14 2.48 6.9-1.65 3.31-4.97-.28-7.73 3.32-3.04 7.45-2.48 2.48-.55 3.87 2.2 3.31-1.24 6.17-1.24.12-3.31 1.66-2.21-.83-1.38-7.45-5.24-3.86-8.29-1.66-1.65-8.28 6.07-4.42-1.66-4.97-2.76-1.65 2.21-2.49-4.69-4.41-2.48 1.1-.83 3.87-3.04 3.03-5.52.28-7.45-11.32-.83-4.42-5.52-2.48-.55-3.31 1.93-4.14 3.59-.28 3.59-4.14 1.65-4.69.28-4.14-4.14-3.59-1.38-5.52 4.41-8.83v-8.01l3.59-6.9.55-8.28h-7.45l.28-6.35-3.04-4.42-3.03-1.65-1.11-3.59-3.03-3.04-5.8-.55-1.38-4.14-11.04 4.42-12.77 1.65 3.25-9.21-10.29-12.82-3.05-7.16-.62-5.52 3.95-8.3 11.01-6.79 8-7.83 7.1-3.68 10.74-2.83 2.63-1.98 9.98 5-.14-6.28 20.06-2.92 1.31-3.68-.38-10.2-4.12-8.84-1.35-8.88.17-11.72-6.27 1.13-2.63-3.16-1.59-6.81 2.63-7.57-.35-5.06-14.82-15.14-2.5-4.31 1.04-3.13 16.59-4.11 10.22-4.88 15.59-10.42 8.49-2.47 13.4-10.66 12.75-.1 9.14 5.79 18.81 33.34-1.18 3.88-2.08.1-10.18-4.31-5.96.71-3.57 3.22 2.39 11.12 8.66 8.65 9.25 2.09 16.81 8.79z"/><path d="M532.022 247.786l5.777-3.033 4.316 6.911-2.197 11.022 3.543 4.364 1.368 6.185 5.857 3.07-.845 5.064 1.845 3.422 6.647 2.496 8.335 21.674.284 6.989-2.765 7.743-.563 8.614-3.854 4.133v5.896l2.199 3.294.83 5.799 3.034 4.415 1.369 14.795 3.481.805 5.902 5.617 1.412 5.646-1.162 5.485-5.745.278v2.173l-2.62.578-10.92 10.099-.247 2.791 4.414 2.763-1.141 9.451-3.082.558-.754 2.007 1.131 5.061-14.75 10.293-9.71 9.71-3.813.297-9.496-11.731-1.602-4.018h-2.813l-6.894 3.317-5.087.262-1.095 7.083-5.989 4.275-3.588-1.192-.274-3.367-3.428-2.368h-4.813l-2.611 1.826-.569 3.144h-4.999l-1.295 3.887 2.486 6.919-1.771 3.553-5.075-.286-7.582 3.256-3.021 7.402-2.456 2.457-.525 3.693 2.204 3.317-1.296 6.453-1.379.133-3.366 1.688-2.444-.918-1.388-7.491-5.116-3.769-8.399-1.682-1.713-8.6 6.051-4.406-1.573-4.709-2.939-1.757 2.249-2.534-4.392-4.13-2.212.981-.819 3.818-3.161 3.15-5.758.292-7.556-11.482-.816-4.34-5.523-2.482-.584-3.518 2.024-4.343 3.633-.283 3.492-4.027 1.623-4.613.269-3.982-4.105-3.56-1.422-5.686 4.425-8.86v-8.012l3.594-6.908.529-7.961h-7.444l.288-6.527-2.959-4.302-3.067-1.67-1.122-3.628-2.922-2.933-5.873-.557-1.347-4.042-10.824 4.333-13.204 1.706 3.339-9.462-10.225-12.738-3.077-7.226-.632-5.627 4.012-8.431 11.049-6.814 8.007-7.837 7.157-3.71 10.72-2.824 2.714-2.044 9.748 4.884-.136-6.087 20.13-2.93 1.243-3.493-.376-10.101-4.114-8.827-1.358-8.936.166-11.437-6.115 1.102-2.761-3.318-1.62-6.938 2.637-7.59-.34-4.917-14.778-15.096-2.572-4.435 1.119-3.368 16.699-4.137 10.181-4.861 15.607-10.431 8.48-2.467 13.429-10.683 12.91-.102 9.255 5.863 18.893 33.488-1.262 4.151-2.313.111-10.171-4.306-5.816.693-3.403 3.07 2.344 10.906 8.557 8.547 9.211 2.081 16.906 8.841 5.819 10.7zm-22.899-19.067l-9.289-2.099-8.763-8.753-2.436-11.334 3.737-3.37 6.104-.727 10.189 4.314 1.847-.089 1.098-3.609-18.727-33.192-9.025-5.717-12.59.098-13.371 10.637-8.5 2.473-15.573 10.409-10.259 4.899-16.481 4.083-.961 2.892 2.428 4.186 14.862 15.183.36 5.203-2.623 7.55 1.56 6.682 2.499 3.002 6.425-1.158-.174 12.003 1.342 8.824 4.126 8.853.384 10.299-1.377 3.867-19.99 2.91.144 6.474-10.212-5.117-2.546 1.916-10.761 2.836-7.042 3.65-7.993 7.823-10.971 6.766-3.888 8.169.608 5.413 3.023 7.094 10.355 12.902-3.161 8.958 12.336-1.594 11.256-4.507 1.413 4.238 5.727.543 3.138 3.147 1.098 3.552 2.993 1.63 3.121 4.538-.272 6.173h7.456l-.571 8.599-3.586 6.892v8.008l-4.395 8.8 1.338 5.354 4.175 3.62-.291 4.298-1.677 4.767-3.688 4.253-3.547.277-1.836 3.937.516 3.102 5.517 2.479.844 4.499 7.344 11.158 5.281-.268 2.92-2.91.841-3.922 2.748-1.219 4.988 4.69-2.171 2.446 2.581 1.543 1.747 5.231-6.089 4.434 1.587 7.96 8.181 1.638 5.364 3.951 1.372 7.409 1.976.742 3.254-1.632 1.101-.107 1.183-5.887-2.195-3.303.575-4.047 2.504-2.503 3.059-7.498 7.878-3.384 4.865.274 1.529-3.067-2.474-6.881 1.465-4.393h4.941l.531-2.936 2.909-2.034h5.127l3.752 2.592.266 3.273 3.032 1.008 5.611-4.005 1.125-7.277 5.393-.278 6.906-3.323h3.266l1.699 4.262 9.284 11.469 3.366-.263 9.611-9.61 14.51-10.127-1.089-4.879.906-2.413 2.998-.542 1.059-8.769-4.406-2.757.292-3.289 11.161-10.321 2.36-.522v-2.247l5.835-.282 1.058-4.995-1.348-5.394-5.698-5.423-3.699-.855-1.391-15.025-3.026-4.405-.83-5.801-2.221-3.326v-6.244l3.866-4.147.557-8.506 2.755-7.717-.276-6.811-8.225-21.386-6.613-2.484-2.015-3.738.815-4.876-5.743-3.009-1.392-6.296-3.617-4.456 2.203-11.058-3.964-6.349-5.803 3.047-5.981-11-16.714-8.739z"/><path d="M359.56 646.162l-11.1-12.54-11.26-3.17-.93-2.01-6.27-1.16-3.74-6.16-14.13-5.09.34-3.26-5.85-5.42-4.09.14-6.58 5.65-5.64-4.06-11.4 2.48-5.06-3.27.97-4.48-3.46-5.98 2.63-2.15.45-7.7-1.87-4.91-10.81-9.72 2.19-4.48 4.08-3.32-2.42-8.28-9.42-8.23 1.7-5-5.13-5.43-1.11-5.62-4.26-4.54-.35-4.77-4.43-3.37-10.46-4.31-.62-2.11-7-2.43-4.54-8.48-4.85-2.06 5.27-15.23-2.11-7.22.34-7.88 3.57-4.41 4.05-2.15 9.04-11.24 5.96 4.34 22.63 3.58-5.24 6.91.83 3.58 2.76.83 4.14 6.9 8 .28 4.69 3.31 14.63 4.97 6.9-3.04 1.38-3.58 3.04.55 9.11 9.93-3.31 1.38 1.38 2.76 2.21 2.49 3.86.55.83 2.49-3.87 4.41 3.04 2.21 11.04-.55 6.35-3.87 8 2.49h5.8l6.63-3.04 7.17 1.11 5.8 4.41 7.18-1.65 2.2 2.76-1.65 3.86 2.21 2.76v3.04l3.86 6.07 2.76-1.1 3.04-.28 3.59 1.93 2.2 6.07 2.49 1.66 5.52.28 1.66 10.21 18.77 1.38 6.9 4.97.82 3.31 7.73 1.93-1.1 5.8 2.76 2.48 3.31.28 1.38 2.48-4.14 4.14 5.8 6.91-1.38 10.76 1.93 6.07-2.76 2.76 1.1 7.18-3.03 1.93-1.66 7.46-3.86 3.31-2.49-.83-4.14-9.66h-4.97l-5.52 9.66-4.41 4.42-.83 3.58-6.35-1.65v-4.42l-3.59-.55-8.56 1.1-2.76 4.97-3.31-6.07-1.38 9.38-5.52 1.11-4.42 5.8-6.07 1.38-.27 4.14-10.49 3.58-2.05 3.27z"/><path d="M348.322 633.843l-11.301-3.182-.924-1.997-6.253-1.157-3.752-6.18-14.231-5.126.347-3.331-5.682-5.265-3.9.134-6.662 5.721-5.71-4.11-11.392 2.478-5.293-3.42.986-4.554-3.518-6.081 2.71-2.215.44-7.537-1.829-4.804-10.905-9.805 2.297-4.699 3.993-3.25-2.352-8.051-9.492-8.292 1.706-5.016-5.076-5.373-1.11-5.62-4.272-4.552-.348-4.746-4.314-3.282-10.541-4.343-.618-2.102-6.97-2.42-4.545-8.488-4.984-2.117 5.321-15.375-2.1-7.183.346-8.004 3.654-4.514 4.049-2.15 9.157-11.385 6.104 4.444 22.983 3.636-5.421 7.15.771 3.324 2.714.816 4.119 6.867 7.939.278 4.722 3.332 14.503 4.927 6.716-2.959 1.417-3.676 3.326.602 9.408 10.255-3.392 1.414 1.246 2.491 2.127 2.396 3.922.559.925 2.773-3.784 4.312 2.747 1.997 10.888-.543 6.392-3.895 8.072 2.512h5.707l6.649-3.049 7.307 1.132 5.757 4.377 7.219-1.659 2.392 3-1.65 3.86 2.171 2.711v3.055l3.71 5.834 2.601-1.037 3.151-.29 3.74 2.011 2.205 6.083 2.364 1.576 5.653.287 1.661 10.214 18.644 1.371 7.032 5.065.805 3.253 7.814 1.951-1.118 5.893 2.593 2.33 3.359.284 1.536 2.761-4.111 4.112 5.723 6.818-1.387 10.814 1.959 6.162-2.778 2.778 1.106 7.216-3.08 1.962-1.656 7.441-4.031 3.456-2.731-.91-4.119-9.612h-4.66l-5.465 9.563-4.383 4.393-.871 3.761-6.786-1.764v-4.398l-3.343-.513-8.4 1.08-2.919 5.257-3.17-5.813-1.296 8.814-5.6 1.127-4.418 5.797-5.977 1.358-.268 4.121-10.564 3.605-2.181 3.478-11.272-12.735zm13.123 8.841l10.416-3.555.272-4.159 6.163-1.402 4.422-5.803 5.44-1.093 1.464-9.946 3.45 6.327 2.601-4.683 8.72-1.12 3.837.587v4.442l5.914 1.536.789-3.399 4.436-4.447 5.576-9.757h5.28l4.161 9.708 2.249.75 3.689-3.164 1.664-7.479 2.98-1.898-1.094-7.144 2.742-2.742-1.901-5.978 1.373-10.706-5.877-7.002 4.169-4.168-1.224-2.199-3.261-.276-2.927-2.63 1.082-5.707-7.647-1.909-.834-3.367-6.768-4.875-18.896-1.389-1.659-10.206-5.387-.273-2.616-1.744-2.196-6.057-3.439-1.849-2.929.27-2.919 1.163-4.01-6.306v-3.025l-2.249-2.809 1.65-3.86-2.008-2.52-7.141 1.641-5.843-4.443-7.033-1.088-6.611 3.031h-5.893l-7.928-2.468-6.308 3.845-11.192.557-3.333-2.423 3.956-4.508-.735-2.207-3.798-.541-2.293-2.584-1.514-3.029 3.228-1.346-8.812-9.605-2.754-.498-1.343 3.484-7.084 3.121-14.757-5.013-4.658-3.288-8.062-.282-4.16-6.933-2.806-.844-.889-3.836 5.058-6.67-22.277-3.524-5.816-4.236-8.922 11.095-4.051 2.15-3.486 4.306-.334 7.756 2.12 7.257-5.219 15.085 4.716 2.003 4.535 8.472 7.03 2.44.622 2.118 10.379 4.277 4.546 3.458.352 4.794 4.248 4.528 1.11 5.62 5.184 5.487-1.694 4.984 9.348 8.168 2.487 8.509-4.166 3.39-2.083 4.261 10.715 9.635 1.911 5.016-.46 7.863-2.55 2.085 3.402 5.879-.954 4.406 4.827 3.12 11.408-2.482 5.57 4.01 6.498-5.579 4.28-.146 6.018 5.575-.333 3.189 14.029 5.054 3.728 6.14 6.287 1.163.935 2.023 11.22 3.158 10.928 12.345 1.919-3.062z"/><path d="M631.31 550.642l1.08-8.5-1.93-3.58 1.38-2.21 9.38 1.38 2.49-6.63.27-2.76-5.52-3.86-.55-4.69 2.49-3.59-6.35-7.73 4.14-8.01 5.24-3.31 4.7.28 2.2 2.76 3.87 1.38 9.11-3.87 1.38 2.49 5.79 1.38 1.94 4.41 6.62 2.21 4.42-2.48-1.11-8.28 5.25-6.35h4.97l2.48 3.31 3.04-1.93 6.62 3.59 1.66-2.49 5.24-1.93-2.76-6.9-5.24-3.86-1.11-6.35-3.86-1.66-3.31-3.59.82-5.79 3.32-1.38-3.04-5.53 1.93-1.38-1.38-3.58-4.14-1.11-1.93-3.31-6.63-2.21v-3.31l-5.79-5.8 6.35-4.69 2.76.55 3.59 3.59 9.66.83 1.1-8.01 4.14-1.38 3.59-7.73-.36-4.33 17.83-.11 13.5 3.24 11.33 7.33 13.3 23.38 8.49 7.28 7.1-2.91 2.42-4.51 10.77-10.94 7-.37 10.46 8.45 1.49 15.86 4.92 8.11-2.87 2.86-10.88 5.02-9.11 15.8-2.25 16.49-4.68 14.23-6.72 7.96-17.84 9.03-9.9 9.12-2.5 7.35 2.81 6.31-3.71 17.62-10.32 7.47-5.4 9.99-.62 8.87 3.74 8.12 6.75 3.27-1.38 8.82 1.03 11.61-32.97 4.06-12.33-6.34h-8.52l-2.43 1.49-1.73 7.55-3.05 2.33-12.12.75-4.8 2.39-3.1-5.03-3.86-1.93-7.18 1.1-2.21-3.86-3.31-.83-3.87 1.93-1.93-3.04h-2.21l-6.9-12.42-2.76-.55-.55-7.45 2.48-6.35 3.59-.28 1.66-9.38-8.01 1.93-2.48-3.86-4.42-.56 1.66-8 1.93-1.66h3.59l4.69-4.41 3.04-.28 4.69 3.86v-3.31l2.49-2.48-6.08-6.63 3.87-13.8-6.63-4.97-1.38-4.41-1.63-4.37z"/><path d="M632.132 542.19l-1.961-3.637 1.544-2.472 9.342 1.374 2.407-6.41.253-2.582-5.492-3.84-.574-4.896 2.436-3.512-6.335-7.712 4.247-8.216 5.366-3.389 4.891.291 2.225 2.791 3.711 1.324 9.228-3.92 1.435 2.59 5.804 1.384 1.945 4.422 6.41 2.14 4.176-2.343-1.102-8.22 5.394-6.525h5.213l2.416 3.225 2.969-1.885 6.549 3.551 1.578-2.367 5.075-1.87-2.638-6.595-5.263-3.877-1.104-6.316-3.785-1.627-3.426-3.717.856-6.048 3.195-1.328-3.013-5.48 1.953-1.397-1.265-3.28-4.116-1.104-1.934-3.318-6.712-2.237v-3.387l-5.922-5.932 6.672-4.928 2.943.587 3.579 3.579 9.333.802 1.088-7.929 4.186-1.395 3.516-7.572-.376-4.533 18.13-.112 13.571 3.257 11.417 7.386 13.309 23.396 8.341 7.152 6.875-2.818 2.395-4.463 10.863-11.035 7.193-.38 10.616 8.577 1.495 15.907 4.992 8.229-3.041 3.03-10.848 5.006-9.046 15.688-2.246 16.464-4.703 14.298-6.784 8.036-17.854 9.037-9.828 9.054-2.448 7.197 2.803 6.294-3.746 17.794-10.352 7.493-5.347 9.892-.612 8.753 3.676 7.98 6.836 3.312-1.404 8.972 1.048 11.821-33.286 4.099-12.344-6.348h-8.389l-2.281 1.398-1.726 7.536-3.183 2.431-12.145.751-4.959 2.47-3.182-5.164-3.726-1.863-7.271 1.114-2.242-3.916-3.117-.782-3.989 1.989-1.977-3.114h-2.22l-6.915-12.447-2.833-.565-.568-7.696 2.557-6.549 3.554-.277 1.559-8.813-7.811 1.882-2.513-3.912-4.573-.579 1.733-8.348 2.064-1.776h3.584l4.68-4.401 3.229-.297 4.36 3.588v-2.884l2.394-2.384-6.012-6.556 3.861-13.769-6.557-4.915-1.403-4.481-1.649-4.421 1.078-8.482zm1.042 12.735l1.361 4.345 6.702 5.025-3.879 13.831 6.148 6.704-2.586 2.576v3.736l-5.019-4.132-2.852.263-4.7 4.419h-3.596l-1.795 1.544-1.588 7.652 4.267.541 2.447 3.808 8.209-1.978-1.761 9.947-3.626.283-2.403 6.151.532 7.204 2.687.535 6.885 12.393h2.2l1.883 2.966 3.751-1.871 3.503.878 2.178 3.804 7.089-1.086 3.994 1.997 3.018 4.896 4.641-2.31 12.095-.749 2.917-2.229 1.734-7.564 2.579-1.582h8.652l12.315 6.332 32.654-4.021-1.012-11.399 1.356-8.668-6.664-3.228-3.804-8.26.628-8.987 5.453-10.088 10.288-7.447 3.674-17.446-2.817-6.326 2.552-7.503 9.972-9.186 17.826-9.023 6.656-7.884 4.657-14.162 2.254-16.516 9.174-15.912 10.912-5.034 2.699-2.69-4.848-7.991-1.485-15.813-10.304-8.323-6.807.36-10.677 10.845-2.445 4.557-7.325 3.002-8.639-7.408-13.291-23.364-11.243-7.274-13.429-3.223-17.529.108.343 4.127-3.664 7.888-4.094 1.365-1.112 8.091-9.987-.858-3.601-3.601-2.577-.513-6.028 4.452 5.658 5.668v3.233l6.549 2.183 1.925 3.302 4.164 1.116 1.495 3.88-1.907 1.363 3.067 5.58-3.445 1.432-.784 5.532 3.194 3.463 3.935 1.693 1.116 6.384 5.217 3.843 2.882 7.205-5.405 1.99-1.742 2.613-6.691-3.629-3.111 1.975-2.544-3.395h-4.727l-5.106 6.175 1.118 8.34-4.664 2.617-6.83-2.28-1.935-4.398-5.776-1.376-1.324-2.39-8.993 3.82-4.029-1.436-2.175-2.729-4.509-.269-5.114 3.231-4.033 7.804 6.365 7.748-2.544 3.668.526 4.484 5.548 3.88-.287 2.938-2.573 6.85-9.418-1.386-1.216 1.948 1.899 3.523-1.082 8.518 1.608 4.313z"/><path d="M386.46 523.852l-.84.08-2.76 1.1-3.86-6.07v-3.04l-2.21-2.76 1.65-3.86-2.2-2.76-7.18 1.65-5.8-4.41-7.17-1.11-6.63 3.04h-5.8l-8-2.49-6.35 3.87-11.04.55-3.04-2.21 3.87-4.41-.83-2.49-3.86-.55-2.21-2.49-1.38-2.76 3.31-1.38-9.11-9.93-3.04-.55-1.38 3.58-6.9 3.04-14.63-4.97-4.69-3.31-8-.28-4.14-6.9-2.76-.83-.83-3.58 5.24-6.91-22.63-3.58-5.96-4.34 2.43-4.76-5.79-4.42-5.75-9.2-6.68-2.16-3.95-4.27-3.29-1.04-2.46-4.41-3.78-12.69 4.47-5.97 2.6-7.8 2.11-.33 31.49 11.05 14.96-.14 14.31 2.35 3.63-1.7 11.88-15.65-2.8-8.7.86-2.4 14.86-11.53 13.3 2.07 46.83-8.66 5.54-3.25 3.06-4.96 12.77-1.65 11.04-4.42 1.38 4.14 5.8.55 3.03 3.04 1.11 3.59 3.03 1.65 3.04 4.42-.28 6.35h7.45l-.55 8.28-3.59 6.9v8.01l-4.41 8.83 1.38 5.52 4.14 3.59-.28 4.14-1.65 4.69-3.59 4.14-3.59.28-1.93 4.14.55 3.31 5.52 2.48.83 4.42 7.45 11.32 5.52-.28 3.04-3.03.83-3.87 2.48-1.1 4.69 4.41-2.21 2.49 2.76 1.65 1.66 4.97-6.07 4.42 1.65 8.28 8.29 1.66 5.24 3.86 1.38 7.45 2.21.83 3.31-1.66 2.76-.27-.28 4.14-2.76 6.9-11.04-.55-2.21-2.76-8.55 3.86-6.35 10.77-.55 5.24-3.32 4.97-3.31 1.66.28 3.58-10.49.56-4.97 2.2-11.87-1.65-5.52.83-1.92 2.35z"/><path d="M385.679 524.177l-2.919 1.164-4.01-6.306v-3.025l-2.249-2.809 1.65-3.86-2.008-2.52-7.141 1.641-5.843-4.443-7.033-1.088-6.611 3.031h-5.893l-7.928-2.468-6.308 3.845-11.192.557-3.333-2.423 3.956-4.508-.735-2.207-3.798-.541-2.293-2.584-1.514-3.029 3.228-1.346-8.812-9.605-2.754-.498-1.343 3.484-7.084 3.121-14.757-5.013-4.658-3.288-8.061-.282-4.161-6.933-2.806-.844-.889-3.836 5.058-6.67-22.277-3.524-6.181-4.502 2.432-4.764-5.66-4.321-5.726-9.161-6.655-2.152-3.95-4.27-3.321-1.05-2.522-4.52-3.824-12.837 4.522-6.038 2.635-7.906 2.322-.364 31.508 11.057 14.938-.14 14.255 2.341 3.504-1.641 11.764-15.497-2.786-8.657.913-2.549 15.003-11.641 13.364 2.08 46.745-8.644 5.449-3.196 3.09-5.009 12.857-1.661 11.256-4.507 1.413 4.238 5.727.543 3.138 3.147 1.098 3.552 2.993 1.63 3.121 4.538-.272 6.173h7.456l-.571 8.599-3.586 6.892v8.008l-4.395 8.8 1.338 5.354 4.175 3.62-.291 4.298-1.677 4.767-3.688 4.253-3.547.277-1.836 3.937.516 3.102 5.517 2.478.844 4.5 7.344 11.158 5.281-.268 2.92-2.91.841-3.922 2.748-1.219 4.988 4.69-2.171 2.446 2.581 1.543 1.747 5.231-6.089 4.434 1.587 7.96 8.181 1.638 5.364 3.951 1.372 7.409 1.976.742 3.253-1.632 3.1-.304-.302 4.474-2.841 7.103-11.331-.565-2.159-2.696-8.301 3.747-6.282 10.655-.551 5.248-3.391 5.076-3.219 1.614.287 3.668-10.7.571-4.993 2.21-11.905-1.654-5.388.81-1.925 2.356-.909.086zm2.568-2.908l5.652-.85 11.835 1.646 4.947-2.19 10.28-.549-.273-3.492 3.401-1.706 3.249-4.864.549-5.232 6.418-10.885 8.799-3.973 2.261 2.824 10.749.535 2.679-6.697.258-3.806-2.42.236-3.367 1.688-2.444-.918-1.388-7.491-5.116-3.769-8.399-1.682-1.713-8.6 6.051-4.406-1.573-4.709-2.939-1.757 2.249-2.534-4.392-4.13-2.212.981-.819 3.818-3.161 3.15-5.758.292-7.556-11.481-.816-4.341-5.523-2.482-.584-3.518 2.024-4.343 3.633-.283 3.492-4.027 1.623-4.613.269-3.982-4.105-3.56-1.422-5.686 4.425-8.86v-8.012l3.594-6.908.529-7.961h-7.444l.288-6.527-2.959-4.302-3.067-1.67-1.122-3.628-2.922-2.933-5.873-.556-1.347-4.043-10.824 4.333-12.683 1.639-3.03 4.911-5.631 3.304-46.915 8.676-13.236-2.06-14.717 11.419-.807 2.251 2.814 8.743-11.996 15.803-3.756 1.759-14.365-2.359-14.982.14-31.472-11.043-1.898.296-2.565 7.694-4.419 5.902 3.737 12.543 2.398 4.3 3.259 1.03 3.95 4.27 6.705 2.168 5.774 9.239 5.919 4.519-2.427 4.756 5.738 4.178 22.983 3.636-5.421 7.15.771 3.324 2.714.816 4.119 6.867 7.939.278 4.722 3.332 14.503 4.927 6.716-2.959 1.417-3.676 3.326.602 9.408 10.255-3.392 1.414 1.246 2.491 2.127 2.396 3.922.559.925 2.773-3.784 4.312 2.747 1.997 10.888-.543 6.392-3.895 8.072 2.512h5.707l6.649-3.049 7.307 1.132 5.757 4.377 7.219-1.659 2.392 3-1.65 3.86 2.171 2.711v3.055l3.71 5.834 2.601-1.036.771-.074 1.915-2.344z"/><path d="M666.13 651.682l-10.06 11.59-7.76 13.92-8.45 26.44-6.27 7.4-6.89 1.49-3.08-1.86-8.8 1.11-2.56-1.49-2.57-9.02-4.22-7.54-9.25-9.36-3.67-15.27-6.31-5.45-10.84-.74-4.09 4.19-9.14 5.12-5.26 7.82-20.02 12.32-6.08-14.51-3.03-3.31-6.08-1.11-4.69-3.31-11.04.28-12.15-2.76-.55-4.42 2.49-.83 2.21-3.03-1.39-7.46 3.59-1.65 6.35 3.58 4.14-6.07 7.73-3.86 2.49-9.11 3.31-.83 2.76 2.76 2.76-3.31 6.35-1.66-2.49-2.76-1.65-5.52 3.03-1.93.83-2.76-2.21-3.04v-3.31l-2.76-.55v-4.42l2.76-5.52-3.31-2.48v-4.97l-2.76-3.59-4.14-3.86h-4.97l-2.48-1.94-.28-3.03 3.59-1.66 5.52 2.76 1.66-3.31-6.63-5.52v-2.76l3.59-.28 1.1-4.14 4.14-.27 1.11-1.66-7.45-7.18.55-3.86-16.84-4.42-.55-1.93-.53-4.2 10.19-1.32 1.1-3.04 6.9-4.69 6.08 1.66 1.38 4.41 6.9-1.38 1.1-3.03 5.52 4.41 8.28-.55 6.35 3.04 10.21-4.7 3.87 3.32 10.76.83 2.49 7.17 3.04.28 6.07-3.87 3.59 1.11 6.9-2.49 6.9-.27 3.59 2.76 4.14-.55 4.96 7.17 2.21.28 1.38-2.76 2.49-.83 1.65 4.42 1.38 4.41 6.63 4.97-3.87 13.8 6.08 6.63-2.49 2.48v3.31l-4.69-3.86-3.04.28-4.69 4.41h-3.59l-1.93 1.66-1.66 8 4.42.56 2.48 3.86 8.01-1.93-1.66 9.38-3.59.28-2.48 6.35.55 7.45 2.76.55 6.9 12.42h2.21l1.93 3.04 3.87-1.93 3.31.83 2.21 3.86 7.18-1.1 3.86 1.93 3.1 5.03z"/><path d="M656.276 663.416l-7.735 13.876-8.458 26.464-6.357 7.502-7.07 1.529-3.091-1.866-8.798 1.11-2.72-1.584-2.589-9.088-4.19-7.485-9.275-9.386-3.667-15.259-6.186-5.343-10.642-.727-4.034 4.133-9.12 5.109-5.257 7.816-20.315 12.501-6.176-14.739-2.944-3.216-6.051-1.105-4.667-3.294-10.989.279-12.351-2.806-.597-4.797 2.608-.87 2.099-2.878-1.405-7.546 3.883-1.784 6.261 3.529 4.047-5.934 7.688-3.839 2.499-9.143 3.59-.9 2.666 2.667 2.636-3.162 6.03-1.576-2.252-2.496-1.721-5.755 3.111-1.982.768-2.552-2.185-3.006v-3.186l-2.76-.55v-4.684l2.693-5.386-3.243-2.43v-5.01l-2.696-3.506-4.052-3.779h-4.958l-2.633-2.06-.306-3.313 3.859-1.784 5.404 2.702 1.46-2.91-6.568-5.468v-3.108l3.644-.284 1.101-4.143 4.196-.273.925-1.384-7.392-7.124.537-3.766-16.762-4.399-.595-2.086-.563-4.466 10.286-1.332 1.075-2.973 7.063-4.801 6.323 1.727 1.353 4.326 6.542-1.309 1.171-3.225 5.716 4.567 8.249-.548 6.303 3.018 10.249-4.718 3.93 3.371 10.841.836 2.491 7.173 2.795.257 6.095-3.886 3.621 1.119 6.858-2.474 7.029-.275 3.579 2.752 4.189-.557 4.983 7.204 1.924.244 1.347-2.694 2.817-.939.084.226 1.655 4.432 1.356 4.333 6.702 5.025-3.879 13.831 6.148 6.704-2.586 2.576v3.736l-5.019-4.132-2.852.263-4.7 4.419h-3.596l-1.795 1.544-1.588 7.652 4.267.541 2.447 3.808 8.209-1.977-1.761 9.946-3.626.283-2.402 6.151.531 7.204 2.687.535 6.885 12.393h2.2l1.883 2.966 3.751-1.871 3.503.878 2.178 3.804 7.089-1.086 3.994 1.997 3.234 5.247-10.163 11.709zm6.579-16.572l-3.726-1.863-7.271 1.114-2.242-3.916-3.117-.782-3.989 1.989-1.977-3.114h-2.22l-6.915-12.447-2.833-.565-.568-7.696 2.557-6.549 3.554-.277 1.559-8.813-7.811 1.882-2.513-3.912-4.573-.579 1.732-8.348 2.065-1.776h3.584l4.68-4.401 3.228-.297 4.361 3.588v-2.884l2.394-2.384-6.012-6.556 3.861-13.769-6.558-4.915-1.402-4.481-1.563-4.188-2.163.721-1.413 2.826-2.496-.316-4.937-7.136-4.091.543-3.601-2.768-6.771.265-6.942 2.506-3.559-1.101-6.045 3.854-3.285-.303-2.489-7.167-10.679-.824-3.81-3.269-10.171 4.682-6.397-3.062-8.311.552-5.324-4.253-1.029 2.835-7.258 1.451-1.407-4.494-5.837-1.593-6.737 4.579-1.125 3.107-10.094 1.308.497 3.934.505 1.774 16.918 4.441-.563 3.954 7.508 7.236-1.295 1.936-4.084.267-1.099 4.137-3.536.276v2.412l6.692 5.572-1.86 3.71-5.636-2.818-3.321 1.536.254 2.747 2.327 1.82h4.982l4.228 3.941 2.824 3.674v4.93l3.377 2.53-2.827 5.654v4.156l2.76.55v3.434l2.235 3.074-.892 2.968-2.949 1.878 1.579 5.285 2.728 3.024-6.67 1.744-2.884 3.458-2.854-2.853-3.03.76-2.481 9.077-7.772 3.881-4.233 6.206-6.439-3.631-3.297 1.516 1.375 7.374-2.321 3.182-2.372.79.503 4.043 11.949 2.714 11.091-.281 4.713 3.326 6.109 1.115 3.116 3.404 5.984 14.281 19.725-12.139 5.263-7.824 9.16-5.131 4.146-4.247 11.038.753 6.434 5.557 3.673 15.281 9.225 9.334 4.25 7.595 2.551 8.952 2.4 1.396 8.802-1.11 3.069 1.854 6.71-1.451 6.183-7.298 8.442-26.416 7.785-13.964 9.957-11.471-2.966-4.813z"/><path d="M536.89 692.352l-4.71 3.56-9.36 1.35-6.13 2.7-14.23 15.35-12.26.09-7.56 4.46-13.19 2.05-2.6 2.05-14.27 23.51 1.11 21.74 4.57 10.67-1.18 9.61 5.16 9.69-12.26 11.96-3.7 5.47-22.86 13.99-2.91 7.37-7.97 10.23-4.54 8.89-4.12 2.82-5.3-2.04-4.81 2.23-3.95-.51-1.94-1.39v-4.91l-4.02-12.31 1.04-9.17-1.11-10.57 4.4-3.52 7.2-.88-.13-3.38-5.96-14.47 14.89-11.36 2.29-9.84-.66-6.54-4.4-6.04-5.02-15.09-.97-9.89-8.28-8.04-5.44-10.51 3.74-7.16-1.62-4.84 2.21-5.77-3.98-9.03.66-2.93-5.16-6.56.69-1.82-4.54-9.82-2.77-12.67-8.1-8.3-.73-4.47-2.55-2.15 2.05-3.27 10.49-3.58.27-4.14 6.07-1.38 4.42-5.8 5.52-1.11 1.38-9.38 3.31 6.07 2.76-4.97 8.56-1.1 3.59.55v4.42l6.35 1.65.83-3.58 4.41-4.42 5.52-9.66h4.97l4.14 9.66 2.49.83 3.86-3.31 1.66-7.46 3.03-1.93-1.1-7.18 2.76-2.76-1.93-6.07 1.38-10.76-5.8-6.91 4.14-4.14-1.38-2.48-3.31-.28-2.76-2.48 1.1-5.8-7.73-1.93-.82-3.31-6.9-4.97-18.77-1.38-1.66-10.21-5.52-.28-2.49-1.66-2.2-6.07-3.59-1.93-2.2.2 1.92-2.35 5.52-.83 11.87 1.65 4.97-2.2 10.49-.56-.28-3.58 3.31-1.66 3.32-4.97.55-5.24 6.35-10.77 8.55-3.86 2.21 2.76 11.04.55 2.76-6.9.26-3.89 6.65-.97 5.52 3.04-.83 4.97-4.14 4.14v2.76l8.28 5.52-.55 6.9-3.04 2.76-.55 7.17-3.31 3.87 1.38 5.8 5.24-5.52 4.69-.56 2.49-2.21h6.62l2.49-6.07 2.2-.55 1.38 4.14 1.94.83-.28 6.62-5.52.56 1.93 5.79-3.59 4.69 2.76 2.21 5.8-4.14 6.07 1.93 1.94 7.73.55 4.42.55 1.93 16.84 4.42-.55 3.86 7.45 7.18-1.11 1.66-4.14.27-1.1 4.14-3.59.28v2.76l6.63 5.52-1.66 3.31-5.52-2.76-3.59 1.66.28 3.03 2.48 1.94h4.97l4.14 3.86 2.76 3.59v4.97l3.31 2.48-2.76 5.52v4.42l2.76.55v3.31l2.21 3.04-.83 2.76-3.03 1.93 1.65 5.52 2.49 2.76-6.35 1.66-2.76 3.31-2.76-2.76-3.31.83-2.49 9.11-7.73 3.86-4.14 6.07-6.35-3.58-3.59 1.65 1.39 7.46-2.21 3.03-2.49.83.55 4.42 12.15 2.76 11.04-.28 4.69 3.31 6.08 1.11 3.03 3.31 6.08 14.51z"/><path d="M532.279 696.15l-9.389 1.355-6.052 2.665-14.268 15.391-12.301.091-7.543 4.45-13.173 2.047-2.513 1.981-14.206 23.406 1.103 21.619 4.579 10.691-1.178 9.598 5.211 9.786-12.376 12.073-3.716 5.494-22.835 13.975-2.893 7.325-7.977 10.24-4.558 8.925-4.281 2.931-5.324-2.05-4.779 2.216-4.084-.527-2.096-1.502v-4.998l-4.025-12.324 1.044-9.197-1.122-10.679 4.562-3.65 7.042-.86-.119-3.106-6.016-14.606 14.971-11.422 2.26-9.712-.649-6.432-4.383-6.016-5.041-15.154-.964-9.826-8.243-8.005-5.519-10.662 3.751-7.18-1.615-4.825 2.206-5.757-3.972-9.012.652-2.894-5.174-6.577.703-1.854-4.507-9.75-2.761-12.627-8.105-8.305-.728-4.456-2.645-2.231 2.212-3.529 10.416-3.555.272-4.159 6.163-1.402 4.422-5.802 5.44-1.094 1.464-9.946 3.45 6.327 2.601-4.683 8.72-1.12 3.837.587v4.442l5.914 1.536.789-3.399 4.436-4.447 5.576-9.757h5.28l4.161 9.708 2.249.75 3.689-3.164 1.664-7.479 2.98-1.898-1.094-7.144 2.742-2.742-1.901-5.978 1.373-10.706-5.877-7.002 4.169-4.168-1.224-2.199-3.261-.276-2.927-2.63 1.082-5.707-7.647-1.909-.834-3.367-6.768-4.875-18.896-1.389-1.659-10.206-5.387-.273-2.616-1.744-2.196-6.057-3.439-1.849-2.718.247 2.357-2.886 5.652-.85 11.835 1.646 4.947-2.19 10.28-.549-.273-3.492 3.401-1.706 3.249-4.864.549-5.232 6.418-10.885 8.799-3.973 2.261 2.824 10.749.535 2.679-6.697.271-4.052 6.933-1.012 5.749 3.166-.873 5.224-4.123 4.124v2.522l8.291 5.527-.57 7.146-3.039 2.759-.549 7.152-3.28 3.836 1.243 5.227 4.985-5.251 4.702-.561 2.502-2.221h6.547l2.475-6.032 2.547-.637 1.418 4.253 1.995.854-.296 7.009-5.425.55 1.873 5.62-3.522 4.601 2.422 1.939 5.748-4.103 6.322 2.01 1.977 7.88.55 4.416.505 1.774 16.918 4.441-.563 3.954 7.508 7.236-1.295 1.936-4.084.267-1.099 4.137-3.536.276v2.412l6.692 5.572-1.86 3.71-5.636-2.818-3.321 1.536.254 2.747 2.327 1.82h4.982l4.228 3.941 2.824 3.674v4.93l3.377 2.53-2.827 5.654v4.156l2.76.55v3.434l2.235 3.074-.892 2.968-2.949 1.878 1.579 5.285 2.728 3.024-6.67 1.744-2.884 3.458-2.854-2.853-3.03.76-2.481 9.077-7.772 3.881-4.233 6.205-6.439-3.63-3.297 1.516 1.374 7.374-2.32 3.182-2.372.79.503 4.043 11.949 2.714 11.091-.281 4.713 3.326 6.109 1.115 3.116 3.404 6.172 14.729-4.917 3.716zm-1.683-18.171l-2.944-3.216-6.051-1.105-4.667-3.294-10.989.279-12.351-2.806-.597-4.797 2.608-.87 2.099-2.878-1.405-7.546 3.883-1.784 6.261 3.529 4.047-5.934 7.688-3.839 2.499-9.143 3.59-.9 2.666 2.667 2.636-3.162 6.03-1.576-2.252-2.496-1.721-5.755 3.111-1.982.768-2.552-2.185-3.006v-3.186l-2.76-.55v-4.684l2.693-5.386-3.243-2.43v-5.01l-2.696-3.506-4.052-3.779h-4.958l-2.633-2.06-.306-3.313 3.859-1.784 5.404 2.702 1.46-2.91-6.568-5.468v-3.108l3.644-.284 1.101-4.143 4.196-.273.925-1.384-7.392-7.124.537-3.766-16.762-4.399-.595-2.086-.55-4.424-1.903-7.58-5.818-1.85-5.852 4.177-3.098-2.481 3.658-4.779-1.987-5.96 5.615-.57.264-6.231-1.885-.806-1.342-4.027-1.853.463-2.505 6.108h-6.693l-2.478 2.199-4.678.559-5.495 5.789-1.517-6.373 3.34-3.904.551-7.188 3.041-2.761.53-6.654-8.269-5.513v-2.998l4.157-4.156.787-4.716-5.291-2.915-6.367.929-.249 3.728-2.841 7.103-11.331-.565-2.159-2.696-8.301 3.747-6.282 10.655-.551 5.247-3.391 5.077-3.219 1.614.287 3.668-10.7.571-4.993 2.21-11.905-1.654-5.388.81-1.483 1.814 1.682-.153 3.741 2.011 2.204 6.083 2.364 1.576 5.653.287 1.661 10.214 18.644 1.371 7.032 5.065.806 3.253 7.813 1.951-1.118 5.893 2.593 2.33 3.359.284 1.536 2.761-4.111 4.112 5.723 6.818-1.387 10.814 1.959 6.162-2.778 2.778 1.106 7.216-3.08 1.962-1.656 7.441-4.031 3.456-2.731-.91-4.119-9.612h-4.66l-5.464 9.563-4.384 4.393-.871 3.76-6.786-1.763v-4.398l-3.343-.513-8.4 1.08-2.919 5.256-3.17-5.812-1.296 8.814-5.6 1.126-4.418 5.798-5.977 1.358-.268 4.121-10.564 3.605-1.888 3.011 2.455 2.069.732 4.484 8.095 8.295 2.779 12.713 4.573 9.89-.677 1.786 5.146 6.543-.668 2.966 3.988 9.048-2.214 5.783 1.625 4.855-3.729 7.14 5.361 10.358 8.317 8.075.976 9.954 4.999 15.026 4.417 6.064.671 6.648-2.32 9.968-14.809 11.298 5.904 14.334.141 3.654-7.358.9-4.238 3.39 1.098 10.461-1.036 9.143 4.015 12.296v4.822l1.784 1.278 3.816.493 4.841-2.244 5.276 2.03 3.959-2.709 4.522-8.855 7.963-10.22 2.927-7.415 22.885-14.005 3.684-5.446 12.144-11.847-5.109-9.594 1.182-9.622-4.561-10.649-1.117-21.861 14.334-23.614 2.687-2.119 13.207-2.053 7.577-4.47 12.219-.089 14.192-15.309 6.208-2.735 9.331-1.345 4.503-3.404-5.988-14.291z"/></svg>