<svg width="1024" height="1024" xmlns="http://www.w3.org/2000/svg" viewBox="0 0 1024 1024" fill="#e83c4b" stroke-linecap="round"><path d="M853.824 817.233l-.842.74-.93-.445c-.785.126-1.652.139-2.27.71-.114-.058-1.2-.6-1.236-.631-.75-.646-1.377-2.07-2.18-2.717-.415-.335-1.631-.597-2.165-.427l-.683-.65c-.018-.654-.551-1.685-1.142-2.009-.291-.075-1.394-.29-1.575-.506-.295-.034-1.279.101-1.496.241-.841.543-2.031 2.002-2.128 3.076-.01.115.153.836.186.958.119.458.261.922.63 1.256l-.487.32-.026.813c-1 1.148-1.25 2.729-2.467 3.767-1.241-.13-2.297.38-3.083 1.322-.14.167-.123.492-.646.896l-.472.102-.026.347.147.261-.525.71c-.441-.291-1.19-.038-1.84-.404-.168.32-.626.693-.972.794l-.355.869.37.892.706.51-.328.495-.51-.057c-.383.104-.933 1.036-1.088 1.355.118.585.535 1.298.865 1.78l.26-.464c.887.296 2.116.388 3.035.211l-.722.65.733.91-.117.213-.578.203.223.476-.457.439v.45c-.327.099-.645.23-.96.363l-.185.267c.14.533.442.49.632.73.204.258.38.635.551.921l.631.333-.328.669-1.311.193v.233l-1.22.25.34.4 1.232-.098.08.208-.983.038-.487.385-.355-.037-.957-1.262c-.668.105-1.586.61-2.047 1.1-.523-.12-1.622.216-2.09.407l-.302.442c-.983.081-3.78.406-4.515 1.042l-.484-.513-.445.075-.239.325-.25-.147c-.5.417-1.83 1.688-1.956 2.376l-9.816 4.013c-1.344.55-2.799 1.518-3.915 2.44-.644-.09-1.754.226-2.192.734l-.064-.544c-.43-.028-1.072.231-1.432.438l.16.616-.118.306-.699-.083-.287.555c-.163-.25-.714-.407-.987-.423l-.627.56-.843.083-.011-.465c-.242-.188-1.042-.434-1.315-.434-.095 0-.553.198-.642.197-.368-.01-.785-.234-1.152-.239-.45-.006-.881.309-1.538.212l-.88.722-.605-.193c-.23.136-.755.536-.839.812l.053.303.488.393-.594.083-.25.438-.747.193-.408.514c.01.314.108 1.085.329 1.341l1.654.642c.266.319.43.965.435 1.368-.249.045-.77.259-.88.518l.037.491-.472-.08-.34.239c-.022.449.08 1.06.302 1.458l-.355-.087.106.275.446-.037-.302.144.17.265c-.256-.183-.814-.26-1.115-.254l.25.533.407.208.182.329-.552.638-1.179-.755-.461.117-.483-.36-.212.348.185.416-.62.098-.154.816c-.188.052-2.365.647-2.403.67-.047.026-1.86 1.703-2.021 1.85l-.197-.407c.22-.189.476-.669.42-.971-.533.14-2.647.565-3.114.166-.625.149-.96.608-1.364.752-.539.192-1.244.275-1.81.4-.575-.322-1.272-.817-1.878-1.05-.152-.06-1.07-.114-1.3-.174-.694-.18-1.456-.61-2.153-.722l-.736.13c-1.941.347-2.728 2.434-3.292 4.093.197.47.231 1.308.037 1.784l-2.901-.009c-1.258 1.865-.867 4.548-2.23 6.605-.498.088-3.363.604-3.766.835-.277.159-.505.543-.775.726-.992.673-2.074 1.273-3.098 1.9-1.161-.595-2.595.372-3.82-.302l-1.946.605-.181-.442-.657-.409c-.778-.095-1.683.152-2.403.44l-.156.747c-.361.44-.98.826-1.484 1.07l-.59 1.712.563.748-.472-.054-.328-.267c-.244-.063-1.935 1.143-2.23 1.333l.038-.528.643-.326-.303-.65c-.294-.165-.877-.153-1.167.015-.36-.241-1.068-.467-1.508-.381l-.88-1.183-.514.14.068-.632-.302-.502-.684.555-.526-.098-.89.703c.05.406-.033 1.15-.277 1.5l.276.212-.329.604c-1.111.835-2.229 1.78-3.385 2.543-.233.154-2.13 1.075-2.192 1.141-.215.235-2.292 3.593-2.6 4.074-.15.234-1.392.792-1.707.865.565-.827 1.333-1.039 1.68-1.436.22-.25.793-1.417.787-1.818l.642-.268.499-1.217c-.13-.426-.122-.997-.053-1.432l.382-.275-.08-2.381.45-.676-.08-.676-.88-.155.026-.749c-.251-.266-1.527-.318-1.825-.268-.052.01-1.15.462-1.273.51-.826.885-.841 2.553-.158 3.506l-.208.36.052 1.242c-.459.444-.999.95-1.34 1.497l.17.268c-.156.396-.172 1.006-.144 1.421-.366.161-.78.668-.944 1.02l-.393.046-.487 1.017-.393-.11-.657.375-.155.502-.381.037-.053.19c-.313.065-.668.138-.96.275l-.208.34-.25-.265c-.128.074-.96.58-1.038.695-.143.213-.49.996-.355 1.27l-.26.256-.303.064-.08.137.223.174-.18.064-.148.245.068.284c-.325.531-.824 1.058-1.3 1.455-.105.665.01 2.188-.068 2.524-.271 1.158-1.814 2.57-2.218 4.236-.606.39-1.292.789-1.825 1.28l-.155-.291-.302.015v.34l-.25.419-.79-.06-.116.227.366.264-.037.32.302-.036.484.404-.458.869-.566-.14-.117-.567-.367.68-.578-.03-.038.219-.578.299-.094.279c-.313-.01-1.403.027-1.64.276l-.775-.106-.196.235-.34.041a.817.817 0 01-.329.303l-.302-.265-2.573-.03-.238.241.026.53.699.457c-.183.103-.52.152-.725.102l-.129.128c-.544-.074-1.535-.187-1.904.355-.061.493-.396 1.258-.79 1.582-.661-.107-1.707.118-2.27.477l-.038.344-1.417.763-1.628-.567-1.089.288-.37-.25-.267.185c-.928.644-.497.7-1.032 1.413-.261.347-.734.716-1.051 1.024l.423.953-.238.052-.303.48-.525.242-.09.442-.34-.019-.186-.25c-.338.246-1.057.358-1.459.34-1.086-.53-1.63-1.721-2.754-2.176-1.959-.792-2.688-.519-4.674.155-.738.25-1.67.565-2.36.915-.04.019-.43.466-.5.529-1.097.987-1.41 1.194-1.998 2.735a5.735 5.735 0 01-1.312-.721c-1.03.178-1.735-.061-2.52 0-.582.045-1.177.28-1.76.34-.58.058-1.408-.162-2.203.136-.164.061-1.16.852-1.47 1.035l-.695-.076c-.535.585-1.598.772-1.904 1.452l-.25-.356c-.66.577-1.548 1.069-2.35 1.41l-.42-.265-.355.098-.393-.17-.264.034-.276-.521.015-.348-.25-.227c.06-.354.095-.715.129-1.073l.211-.11.159-.993.392-.227.133-.434.472-.144 1.104-2.728c-.014-.08-.163-.954-.174-.974-.468-.834-1.2-1.689-1.757-2.475l.116-.465c-.31-.288-.84-.99-.865-1.443.593-.691.41-1.377.144-2.188-1.04-1.42-6.482-3.318-8.121-3.94-.677-.256-1.043-.45-1.737-.658-.053-.016-2.911-.476-2.954-.476-1.079-.013-2.826.266-3.938.393-.744.084-1.654.151-2.376.328-1.925.472-5.233 1.77-6.627 3.283-.477.518-.885 1.198-1.394 1.674-.953.892-2.923 2.046-4.043 2.853-.966.695-1.796 1.473-3.004 1.738-.117.4-.957 1.164-1.262 1.417l-.106.525c-1.292-.182-2.54 1.183-3.083 2.21-.33-.171-.845-.237-1.21-.189l-1.666 1.104-.669 1.519.212.559c-.578.86-1.338 1.328-2.377 1.326l-.567-.328-1.193.472-.156-1.443-.774-.284.563-.128-.026-.695c-.865-1.27-2.402-1.65-3.768-2.094-.395-.128-.608-.232-1.011-.328-.996-.239-2.961 0-3.932.216-2.674.59-3.41.746-5.362 2.642l-1.312 1.275c-.447.527-.762 1.24-1.179 1.798-.416.558-.95 1.204-1.432 1.704-1.656 1.721-3.712 3.276-5.04 5.282.15.859-.66 2.754-1.013 3.503.266.572.01 1.712-.536 2.06l-.96-.522c.126-.653-.187-.954-.34-1.504-.13-.466-.197-.989-.292-1.466.082-.41.626-.961.96-1.17v-.704l.303-.287c-.242-.65-1.118-.926-1.67-1.173-.831-.371-.361-.211-1.425-.423l-1.723-.342c-1.364-.116-3.711.787-4.87 1.492-.85.518-1.54 1.223-2.196 1.956-.36.401-1.306 1.465-1.269 2.05l.67.128.234.31c-.6.73-2.335 2.485-3.344 2.655-.688.049-1.735-.356-2.01-1.039l-.064-.763c-1.112.214-2.468.254-3.586.053-.452-.725-.92-1.678-1.455-2.332a307.71 307.71 0 00-2.169-2.097c-.389-.24-.667-.256-1.093-.42l-2.186-.842-1.068-.15c-2.04-.29-4.298 0-5.93 1.348-.393.326-.318.65-.55 1.005-.37.564-1.244 1.012-1.21 1.807l.763.009-1.538 1.647-.249-.242c-.136-.256-.19-.772-.05-1.039l.224-.098-.106-.446-.79-.204-.34.239-.132-.367c-.306-.21-.781-.28-1.116-.341l-1.182-.215c-.374-.027-1.989.454-2.256.612-.446.266-.962.817-1.367 1.16l-.235.688.208.31-.77.027-.148.185.015.896c-.126.164-1.47.599-1.734.695l.197.14-.08.173c-1.584-.614-4.614.142-5.289 1.863-1.125.153-2.076-.355-3.148-.427-1.085-.072-2.295.05-3.388.072l-.408-.495-.023-.374.563-.174-.329-.177 1.077-.299.106-.495.59-.54-.235-.2.076-.36c.569 0 1.38-.565 1.696-1.005l-.37-.574.355-.129.552-.922c.306-.067.599-.199.853-.377l.118-.083 3.362-.31c.48-1.125 2.06-2.216 2.177-3.208.235-.135.906-.44 1.194-.355l.355-.45v-.555l.29-.012-.094-.404.345-.31.234.148.223-.261.25.03.25-.42-.643-.604 1.168-1.198.79.19c.218-.258.378-.548.301-.896l.707.294c.213-.298.25-1.022.223-1.364l2.022-.091.223-1.17.275-.061-.064-.295-.34-.168.982-.236-.117-.454h-.328l-.196-.32.064-.33 1.04-.056-.027-.643-.211-.009-.091-.17.207-.177-.419-.072-.064-.174.408-.07.143-.224-.721.046-.344-.208.37-.559.707.102-.143-.412.238-.102-.041-.245.578-.458.854.265.09-.136-.223-.166c.183-.61.907-.807 1.444-.986v-.2c.375.077.887.028 1.246-.099l.16.269.748.05.079-.42c.428-.508 1.505-.179 2.1-.495l.458.155.026.328-.325.367.484.74c.435.082 2.714.662 3.018.658.03 0 1.065-.246 1.115-.265.203-.075.39-.283.593-.363.367-.144.812-.23 1.194-.34l.106-.23c.543-.224 1.131-.755 1.48-1.217-.111-.197-.001-.791.053-.99.283-.16 1.573-.79 1.64-1.084l-.313-.628.827-.419.643.037-.038-.155.355-.174.076.291.408-.189-.17-.366.25-.45.131.328.355-.116.17-.374.223.238.288-.295.616.094.211-.366.632.034c.04-.047.281-.345.313-.367 1.58-1.054 4.955-3.053 6.208-4.424l1.716-2.194.858-1.097v-.707l-.67-.499.33-.094-.224-.624 1.156-.657.303.253.155.533.672-.238.129-.348 2.142-.767 1.863 1.14c1.024-.305 2.298-.552 3.268-.974 1.241-.541 3.266-2.046 4.296-2.84l3.105-2.393c.652-.6 3.191-3.427 3.745-4.145.782-1.013 2.493-4.017 2.925-5.347l-.17-.54-.431.177-.488-.355c.352-.373.76-1.25.643-1.783l-.748-.393c1.051.016 1.482-.397 1.617-1.424.666-.717 1.98-1.868 2.754-2.342.09-.056.871-.16.998-.224.79-.397 1.5-1.015 2.286-1.425.743-.388 1.613-.686 2.388-1.017.598.283 1.7-.318 2.323-.328.852-.013 2.603.421 3.454.748.076.03.428.263.472.269.566.072 1.186-.037 1.756.014.52.047 1.059.256 1.576.284.93.05 2.232.061 3.008-.537.415-.32.326-.635.483-.99.131-.295.36-.61.526-.892.253-.225 1.22-.106 1.511-.045l.472-.333c1.012-.088 1.814.51 2.808.58.28.02.62-.113.907-.114.625-.01 1.302.241 1.889-.117l1.024.238.79-.253c.461.101 2.242.579 2.467 1.039 1.65.14 2.267.11 3.782-.593l1.863.51c.57-.302 1.098-.25 1.666-.427a9.216 9.216 0 002.086-.99l.185-.34 1.013-.428.17-.367.276.23c.422-.098.553-.451.929-.611l.185.105.616-.672.499-.068.211-.181c.957-.151 4.515-.505 5.173-1.115l1.231.208c1.158-.575 2.391-1.228 3.598-1.663.313-.113.75-.065 1.076-.154.875-.24 1.573-.709 2.535-.552l.25-.212c.775.064 1.66-.043 2.414-.215.731.519 1.598.036 2.664.484l.37.419c.396.173.949.228 1.376.211l.132-.43c.448.188 1.234.453 1.734.419l.472.483.563.038.329.396 1.034-.03.265.238c.514-.198 1.365-.209 1.89-.053l.917-.4.027.29c1.116.04 2.394-.986 3.153-1.646 1.56-1.357 2.826-2.513 3.86-4.312 1.393-2.424 1.891-5.257 1.674-8.03l-.114-1.446c-.063-.234-.173-.336-.284-.55l-.57-1.101c-.471-.59-1.942-1.287-2.678-1.418l-1.572.934c-.418-.061-1.061-.099-1.473.037l-.956-.39-.461.413c-.246-.229-.82-.375-1.141-.386l-.106-.454.393-.43.699-.197c.02-.038.209-.397.223-.407.495-.375 1.096-.753 1.549-1.172.73-.675 1.41-1.481 2.097-2.203.01-.011.17-.553.185-.604 1.43-1.473 3.058-2.541 4.734-3.7l2.487-1.718 1.98-.575c1.565-.36 2.246-.039 3.691-.072.065 0 .43-.2.526-.218 1.017-.206 2.13-.352 3.124-.632.806-.226 1.957-1.113 2.834-.744l1.405-.695.605.068.721-.514.998.098c1.205-.429 2.194-1.344 3.295-1.965 1.194-.674 1.531-.268 2.255-.412.585-.116 1.286-.32 1.852-.51 1.037-.35 2.042-.804 2.86-1.546.11-.1.489-.644.568-.698.524-.363 2.107-.855 2.255-1.527l1.852-.83.328-.674c.572-.276 1.283-.54 1.814-.877.966-.613 3.51-2.537 4.356-3.332.773-.726 1.702-1.704 2.362-2.532 1.153-1.447 1.872-3.145 2.6-4.823.21-.484.414-.728.54-1.24.009-.036-.112-2.206-.122-2.388l-2.02-1.043.079-.548-.998-.419-.328-.91 1.447-1.123.117-1.205-.367-.314.272-.514-1.273-.4-.182-.257.484-.204-.038-.318-.498-.09c-.122-.558.328-1.623.604-2.075l-.212-.275-.407-.083.067-1.894.775-.083.234-.978-3.57-2.641.068-.578c-1.34-.36-1.406-1.488-2.917-1.931l-.393-.85-1.851-.688c-.234-.52-1.29-1.081-1.784-1.254l.17-.412 1.353-.068.408-.488-.397-.59.317-.638 1.062.094-.064-.498c.777.162 1.782-.078 2.44.223l.144-.28 1.957-.627.053-.567.562-.203c.107-.21.4-.535.643-.59l.265-.56-.159-.212c.152-.43.385-.894.658-1.261l-.117-.835c.619-.619.6-1.073.956-1.587.262-.379.712-.616.971-1.054l.658.566.381.053.707.65.54-.11.526.265c.287-.103.627-.487.722-.77-.393-.482-.59-1.49-.54-2.09.133-.329.889-1.63 1.05-1.787.11-.107.21-.113.346-.185.83-.444 1.247-.566 2.2-.465l.329-.431.223.374.646.178.275-.276.378-.026.446-.65.329.064.17-.132c.133.237.41.561.657.688.272-.208.534-.72.54-1.062l.34-.132.027-.46.616-.212c.105-.212-.209-.956-.302-1.149.946-.562 2.003-1.096 2.902-1.723.526-.366.943-.96 1.47-1.326.998-.692 2.786-1.719 4.016-1.95l.446-.74.446.695.477.038.472-.53-.197-.951c.08-.387.37-.848.643-1.126l.276-.083c.05-.054.384-.434.419-.457.739-.488 1.575-.96 2.27-1.5.623-.483 1.145-1.196 1.784-1.647.702-.495 1.641-.419 2.418-.605.528-.127 1.188-.45 1.666-.722l.51.212 1.724-1.065.982.204.356-.227c1.415.6 3.375-1.72 4.187-2.467l2.52-2.32c.077-.072 1.089-.318 1.707-.982l.012-.344 1.67-.487.445.392c1.045-.242 2.102-.666 3.084-1.088l.997.378.393-.147.62.265c.855-.339 1.717-.718 2.584-1.02.793-.278 1.7-.421 2.468-.745.899-.38 1.823-.969 2.69-1.429.045-.024.42-.006.498-.026.33-.094.645-.296.975-.392a36.52 36.52 0 012.796-.707c.228-.047 1.33-.118 1.455-.163.5-.177 1.068-.653 1.55-.907 1.417-.746 3.968-1.8 5.21-2.686.58-.414 1.045-1.06 1.617-1.489.336-.251.832-.363 1.18-.605.863-.6 1.602-1.725 2.036-2.66l.28-.091c.607-.2.966-.548 1.518-.804.353-.164.727-.079 1.103-.359.295.118.67.16.983.178.61 1.392 1.76 2.666 2.902 3.658.106.092.898.67.934.718.41.566.747 1.433 1.076 2.063.263.274 1.333.499 1.651.468.038-.006.98-.357 1.077-.393.422.12.845.238 1.262.37 1.019-.391 1.262-1.092 1.995-1.609.665-.469 1.966-.824 2.78-.748.371-.35.857-.93 1.274-1.201.084-.056.822-.186.96-.253 1.328-.645 2.374-1.752 3.608-2.516.385-.24 1.641-.532 2.116-.578l.707-.715.12-.472.314-.185.038-.31.211.381.17-.215.367.144c.611-.501 3.17-.877 3.94-.968l.197-.378c.738-.338 1.486-.665 2.217-1.016.191-.091.409-.271.605-.336.197-.065.464-.033.669-.083.657-.161 1.298-.61 1.772-1.081l.695.148c.225-.166.433-.592.435-.87.535.057 1.433-.067 1.889-.385.214.17.718.365.997.264l.355-.446.987-.268.419.359c.389 0 .817-.118 1.194-.204l.235.283c.847.107 1.41-.727 2.535-.457l.381-.547.775-.019.234.34c0 .422-.277 1.157-.657 1.391.136.47-1.476 2.328-1.417 2.962.052.557.42.938.695 1.383.06.097.34.675.381.718.205.213.599.339.828.536.32.276.565.685.892.948.564.457 1.463 1.139 2.1 1.47.034.018 1.212.283 1.327.31.26.061 3.968-1.924 4.45-2.17.056-.028.397-.53.484-.604.239-.2.65-.262.896-.457.51-.405 1.042-.795 1.523-1.235l.117-.4c.165-.14.631-.463.865-.458l.196.238.128-.022c.639-.114.594-.538.976-.749.609-.337 1.388-.646 2.036-.907.773-.311 1.596-.403 2.347-.831.272-.042.72.11.907.314 1.509-.584 3.078-1.565 4.371-2.52.294-.218.51-.602.801-.824.206-.157.541-.224.764-.367.893-.571 1.762-1.21 2.637-1.81l.196-.544a11.491 11.491 0 002-.594c.13-.05.195-.127.336-.13.75-.02 1.638.364 2.376.309.8-.06 1.682-.615 2.482-.676.656-.051 2.59.343 3.53.392.049.31.165.638.29.922.334.125 1.041.218 1.38.045l.233-.272.382-.117.09-.189.96.05c.137.22.506.445.76.483.546-.007 1.809-.487 2.127-.933l.09-.393c.318-.134.717-.586.775-.934-.068-.913-1.046-1.456-.971-2.421.033-.432.643-1.119.948-1.376.299-.251.798-.391 1.073-.657.031-.03.498-.822.552-.91l.29-.144c.122-.498 2.786-1.782 3.439-2.747.368.033 1.159-.652 1.39-.877l.356.136.34-.42.699-.21.313.302.329.056.446-.276c-.17.108-.395.407-.393.62.425-.28.867-.539 1.311-.786l.186.049.314-.102.264.147.325-.128.042-.152.26-.128a.54.54 0 01-.037-.348l.106-.117-.053-.132.132-.083c.033-.232.213-.408.405-.525.027-.13.08-.258.132-.378.136-.101 1.005-.456 1.114-.446l.08-.151.117.019.08-.166c.139-.09 1.01-.29 1.22-.28.102-.127.32-.251.473-.298.128-.418.54-.341.646-1.11l-.17-.28.116-.05c-.79-.938-.315-1.765.132-2.705.063-.131.024-.236.181-.347-.029-.128.102-.233.16-.329.066-.111.113-.417.131-.544.195-.276.486-.44.733-.66l.027-.118c.172-.048.38-.431.446-.59l.116-.067.213.049c.044-.015.253-.098.287-.098.598-.016.87.36 1.315-.37.15-.248.173-.412.106-.703l-.197-.05-.12-.18.014-.152h-.392c.08-.154.112-.464.027-.624.065-.245.359-.515.51-.725l.185-.068.053-.166.117-.045c.175-.336.262-.634.526-.926l.275-.098.065-.148.143-.038c.07-.117.124-.258.147-.392.163-.131 1.086-.119 1.285-.064l.117.113h.264c-.009.174.018.36.064.529a.827.827 0 01.355.328h.17v.117l.186.083.26-.166c.116.006.242.008.355-.019l.038.132.147.034c.235-.076.56-.164.748-.328h.129l.25-.265c.173 0 .979-.206 1.102-.329.125.031.368-.06.473-.117l-.143.23c.122.058.25.114.38.151.144.203.128.66.107.907l.143-.015c-.083.097-.14.288-.17.408l.17-.034-.185.186-.026.177.147-.03v.166l-.147.049-.037.211c-.904.707-1.827 2.372-2.086 3.47l.235.366c-.032.46-.239 1.191-.552 1.549-.72.277-1.538.955-2.085 1.477-.37 1.38-.618 2.983-.212 4.387l1.288.415c-.613.443-1.162 1.059-.88 1.856l.43.503-.049.623c.24.09.53.417.59.665.427.354 1.103.619 1.64.726l.604.759c-.579.823-1.78 1.13-2.44 2.006-.812-.124-4.12-.756-4.764-.578-.2.354-1.36.237-2.101 1.198.167.885-.172 1.496.143 2.504-.212.896-2.01 1.338-1.654 2.521-.851.234-1.855 1.114-2.426 1.746-.346.382-.61 1.01-.985 1.443l-.053.532.132.22c-.148 1.234-.823 1.99-1.867 2.614a7.48 7.48 0 00-.43 2.561l-.866 1.1c-1.032.176-2.053.582-2.482 1.594l-2.759.144c-.05 0-.403.188-.483.211-.822.239-1.588.364-2.366.767l-.483.869c-.424-.097-.96.025-1.348.158l-.964.33c-.671.394-1.903 2.572-2.23 3.233l-.525.246c-.627.93-1.052 3.098-1.326 4.187l-.328.245-.17.398-.382.101-.34.404-.382-.343c-.33.147-1.078.094-1.417.041-1.6.598-3.469 2.199-4.175 3.785-.243.546-.256 1.349-.302 1.93-.037.468-.029 1.058.105 1.517.085.293.3.586.408.877.17.46.258.973.446 1.424.354.855 1.016 1.734 1.644 2.404.3.319.687.867 1.152.978l.446-.035.419-.509-.091.845c.868 1.06 1.736 1.985 3.083 2.396l2.063-2.059 1.1-.22c.593.157 1.395.878 1.76 1.339-.033.477-.038.958-.037 1.436l.351.133.026.773-.653 1.017c.066.32.429 1.64.275 1.9-.263-.025-.55.209-.72.35-.777.645-.86.956-1.157 1.91l.51.623c-.066.58-.235 1.483-.537 2l-.185-.636-.457-.42-.933.114-.117-.226c-1.084-.153-2.832 1.441-2.694 2.527-.741-.051-2.272-.04-2.887.548-.035.033-.387.594-.435.669-.186.29-.3.565-.287.926l.212.366.196.11-.408.437c-.102.977.759 1.614.737 2.589-.34.562-.929 2.085-.578 2.754l-.408.382-.25 1.95c.21.312 1.045.626 1.38.718l.328 1.16c-.374.506-.997.569-1.352 1.14-.157.932.775 1.702.407 2.6l.575 1.017-.012.65c-.467.404-1.213 1.13-1.194 1.81l.394.506c-.304.177-1.158.137-1.486.099l-.695-.65-.037-.45-.302-.412-1.496.31c-.66.136-1.398-.336-2.048-.336-.19 0-1.062.34-1.146.371l-1.113.433c-.364.244-1.288 1.777-1.481 2.214.117.123 1.267 1.301 1.3 1.353.362.576.307 1.682.982 2.063h.265l.499 1.137-.393 1.065-.869.208-.695.884c-.786-.168-2.946 1.317-3.528 1.764l-1.04-.094-.275-.518-1.417.366-.828-1.076-1.337.676-.722-.525c-.311.108-1.69.471-1.772.812l-.238-.276-.355.212-.526-.144-.106.318.632.348c-.32.12-1.074 1.4-1.168 1.666-.014.04-.058 1.023-.064 1.13l-1.76 1.888a65.135 65.135 0 01-4.623.469z"/><path d="M402.155 691.53c-.979.104-2.19.11-3.137.333-.714.168-3.231 1.364-4.121 1.73-1.196-.375-3.511-.281-4.621.329l-1.406 2.724-1.062-1.402-1.485 2.06-1.326.358-.733-.276c-1.895.58-2.334.56-3.99-.741-1.204-.947-.897-.488-1.458-1.73l-.106-.222c.334-.89.98-1.81 1.746-2.374l-.144-.166-.154.01c-.706.047-1.25-.446-1.92-.55-1.016-.158-2.118-.016-3.136-.166-.623-.092-1.266-.49-1.888-.575-.963-.13-2.006.038-2.971-.083-.966-.12-2.02-.449-2.977-.66l.17-.413-4.372-1.314-5.12 1.892c-.133.703-.32 1.439-.407 2.146-.158 1.281.004 2.673-.579 3.873l-1.48.745-1.079-.083-.578.412-1.156.823c-1.059.509-2.29.513-3.294 1.24l.25.906 1.076.658c.053.615.2 1.64.515 2.191.374-.18 1.084-.11 1.427.114l.132.578-.249.627.5.283-.08.575c.44.213.936.777 1.182 1.186l-.276.76-2.335-.537c1.332.792 4.128 2.01 5.619 2.312 1.134.23 2.417.079 3.544.328l1.093.547.547.273.42-.416c.085.009.875.075.906.087 1.41.561 3.47 1.239 4.777 1.9.014.008 1.383 1.208 1.405 1.237.312.403.592 1.178.827 1.647l-1.654.495.419.578a19.88 19.88 0 004.621-1.647l.816-1.568-1.813-.083.174-1.897a16.255 16.255 0 002.716-2.724l6.102-1.398-.827-.166-.08-.745c1.266-.42 2.514-.998 3.719-1.564l.234-1.077.918.083 1.157.828 2.312-.745c.884-1.04 1.787-2.188 2.468-3.378h1.153l-.824-1.65 2.23-.579.735.25.328-.661 1.402-.329.673.658.982-.246.748-.907.567.74.42-.906c.81-.277 1.828-1.435 2.229-2.146z"/><path d="M507.405 723.862c-.447.35-1.593.69-2.15.578-1.363-.273-3.261-1.033-4.372-1.897v-.578l-1.315-.412-.997.99-.578-.163-.904-1.16h-1.654c-.152-.458-.203-1.276 0-1.73l-1.89-.08c-.278.649-1.878 1.313-2.482 1.485l-1.486-.495-.483-.828-3.39.995 1.327.82-.828.993 1.406-.166.816 1.153.827-.246c.49.477.972 1.063 1.323 1.651l1.894-.827 1.247.332-.92 1.073c.11.164 1.097 1.675 1.153 1.73.03.03 1.288.755 1.406.824 1.172-.382 3.938-1.051 5.199-.74l.25.985c1.521-.242 3.09-.576 4.62-.736 1.162-.122 1.76.255 3.215-.25l2.219-2.142-2.546.407-.67-.491z"/><path d="M525.402 726.321c-.903.58-1.828 1.832-2.494 2.657-.128-.022-1.44-.249-1.481-.246-.5.037-1.884.6-2.562.741l-.578-.907-.824.166a13.681 13.681 0 01-.827-1.65c-.526.065-1.503.024-1.984-.25l-.657-1.24c-.783.52-1.66 1.453-2.059 2.313l.907.907c.845.118 1.706.21 2.558.25l1.655 1.318 1.39-.083.67.824-.091.907-.812.744-.042.609c.503.551 1.295 1 1.93 1.371l-.143.412.458.138.917.274c.248.014 1.491-.272 1.655-.245.072.012 2.109.827 2.312.907 1.695-.5 3.389-1.062 5.104-1.485l.828-1.401c-1.47-.753-1.735-1.19-1.735-2.749v-.879c-.091-.421-.427-.905-.574-1.323-.18-.512-.302-1.074-.45-1.598-.172-.346-2.626-.439-3.071-.482z"/><path d="M576.651 721.172l-1.406-.578c-.8.697-1.767.854-2.758.495l-.18-.446c-.745-.42-1.69.283-2.495.28l-.721-.51c-.094.005-1.093.04-1.119.048-.745.273-1.585.83-2.297 1.202.97.166 2.77.08 3.65-.446l1.167.348.461-.329.106.397.381-.083.117-.25.262.363c.795 0 1.88-.123 2.652 0 .025.006 1.088.564 1.182.612.34-.274.796-.706.998-1.103z"/><path d="M516.084 947.583c-.086-.756.146-1.974.59-2.608-.135.082-.417.17-.578.133l-.117-.152h.328l.302-.265h.25l.053-.181-.121-.177-.155.113-.238-.03-.064-.117-.106.211-.435.037-.196.163a.777.777 0 00-.458.014c.134 0 .326.093.431.166-.243-.05-.373.014-.59.114l-.185-.08-.392.065c-.012.14-.066.283-.117.412.155-.01.558.01.695.102-.301.02-.507.23-.828.166l.015.196.26.211c-.211.083-.74.042-.959.02l-.128.132.498.196.09.177-.09.254h-.25v.143h.17l.106.235-.026.25h.144l.117-.102.143.019.053.18.132.015c.024.174.103.337.08.514h.131c.163-.195 1.074-.3 1.445-.527z"/><path d="M354.82 683.614l-1.248-.66c-.586.332-2.165-.102-2.716-.33l-.408.578.657 1.153c.685.502 2.067.742 2.887.578z"/><path d="M517.093 950.784c.268-.06 1.479-.405 1.681-.262v-.2l-.238-.114c-.122-.443-.34-.693-.34-1.19-.209-.029-.495-.205-.632-.362l-.011-.148-.71-.51c-.802.138-1.603.28-2.4.446l.05.147.222-.052c.094.053.2.204.212.313l-.196.102.026.166.185-.019.012.166.275-.117.106-.215c.132-.12.466-.064.605.02l.076.214-.25.295.37-.083-.17.234c-.136-.009-.273.01-.408.015l-.117.102.076.128c.095.053.294.087.397.034.064-.156.346-.367.483-.446l.091-.215.303.034v.298l.185-.019.038.132-.208.053-.068.144-.155.019a3.584 3.584 0 01-.366.363c.02.215.086.463.181.657.214.01.429-.009.642-.015z"/><path d="M401.078 686.418l-.733.74-.328-.577-1.984.827-.404.578c.109.042 1.277.492 1.31.496 1.026.092 2.256-.054 3.296-.08-.566-.344-1.124-1.327-1.157-1.984z"/><path d="M543.9 960.962c.16-.178.401-.545.43-.794a2.505 2.505 0 01-.234-.66c-.458-.129-1.082.345-1.522.498v.261c.282.349.833.803 1.326.695z"/><path d="M851.304 738.284l.235-.442c-.04-.134-.147-.374-.26-.465-.443.152-.608-.437-1.72.235v.23c.148.219.391.328.563.525.174-.04.616-.062.76.083.13.01.328-.083.422-.166z"/><path d="M558.682 720.167c-.369.032-.937-.237-1.172-.514-.483.07-1.642.057-2.048-.295l-.6.363 1.023.046-.106.299.563.347.276-.412.265.016-.122.363.54-.23.643.279z"/><path d="M518.185 720.212l.25-.612-.605.234-.068.212z"/><path d="M36.719 77.78l-.424-.215-.037-.669c1.11-.476 2.398-2.2 2.69-3.348.138-.54.12-1.326.17-1.892.726-.531 1.587-2.223 1.905-3.071l1.326-.586c-.435-.676-.766-1.552-.96-2.327l1.273-2.117-.366-.902 1.012-1.376-.646-.532c-.51.54-1.304 1.072-2.006 1.322v.794l-.747.638.694.847-.536.74c-1.734.106-3.033 1.844-4.227 2.86-.979.831-2.052 1.398-2.86 2.44l-.054.53-.106 1.058c.09.712.546 1.457.631 2.17.12 1.003-.465 3.198-.789 4.235l.472 1.114 1.168.264a11.843 11.843 0 00-1.587 1.64h-.642l-.579.745.42 2.168-1.114-.051-.579.422.42 1.38-.367.846.552.634h.827c.343-.505.9-1.062 1.141-1.59.072-.159.058-.267.096-.436.265-1.208.109-.764.892-1.794l.35-.461-.404-1.136.93-.93.264-1.338c.427-.272 1.695-1.03 2.217-1.039z"/><path d="M851.478 737.695l.06.147-.06.113z"/><path d="M996.84 675.93l-.393.064-.144-.265-.317.215c-.542-.139-1.507.146-1.969.412-.612-.257-1.786-.29-2.376.064l-.722-.461v-.824c-.83-.064-2.251.613-2.913 1.04-.101-.11-1.059-1.124-1.088-1.172-.27-.442-1.157-2.425-1.119-3.004.554-.165 1.207-.907 1.369-1.447l.59-.234-.17-.397h-1.024c-.203.148-2.161 1.523-2.35 1.568-.522.123-1.28.09-1.826.128l-.158.779c-.228.36-.811.734-1.22.827-.904-.668-1.54-2.631-1.508-3.717l1.496-.404 1.561.574.827-.907-1.325-.397-1.062-1.338.483-1.152-3.948.986-.673.661c-.812.131-1.734.392-2.467.775l-.17.725-.382-.457-.351.325-.054.66-.328.133-.42-.28.09-.362-.562-.363-.896.049-.695.559 1.379.79.106.415-.684.412c-1.73-.084-3.662-.548-5.278-1.152l-.17-.578 1.076-1.485-1.73-.907-3.639.491-1.152-1.81.325-.332-2.218-.986c-1.788.715-3.03 2.154-4.7 3.045v1.077l-1.247.827 1.076.574c-.092.603.01 1.606.329 2.143l-3.624 3.298-.498-.412c-1.301.03-2.709.238-3.964.578l-1.485-.495-1.311.745-1.81-.166-4.716 2.803-.154.907-2.313 3.132 1.236 2.396 1.655.574.499 3.057.562.574c.317 3.175.548 6.379.67 9.567-.664.375-1.974 1.26-2.638 1.489-.634.219-3.255.274-4.043.162l-.907 2.146.578 1.07-2.403.66c.578.489 1.347 1.402 1.576 2.143 1.389.113 2.6.74 3.794 1.375.322.171.477.333.827.439.66.2 2.223.25 2.966.332l1.655-1.401h.578l1.152-1.323v-.985c.572-.025 1.43.04 1.973-.083.023-.006.842-.531.918-.578l.234-.911c1.023-.393 3.43-1.18 4.292-1.648.076-.04 1.3-1.322 1.485-1.48.263-.226.642-.356.907-.578 1.164-.975 2.67-2.204 3.544-3.465 0-.122.01-1.367 0-1.406-.163-.608-.639-1.39-.907-1.976.035-.162.4-1.939.42-1.98.018-.042 1.058-1.283 1.155-1.402l.796.027 1.592.052c.701.166 1.443.85 2.142.99.023.006 2.753.01 2.808 0 .024-.006 1.064-.532 1.156-.578.013-.117.14-1.276.154-1.314.164-.432 1.079-1.481 1.576-1.572.894-.163 1.9-.006 2.796-.163.994-.175 2.386-1.302 2.981-2.063 2.554.981 5.56 1.045 8.245.824l.983.578c.108-.995 1.627-2.017 2.561-2.06l-.158-.495c.387-.235 1.136-.3 1.564-.166l.499-.328-.25-.994.499-.163.732-1.65 1.406-.61c.619.148 1.24.283 1.863.417l.105.166c.283-.007.644-.091.892-.23l.08-.186.276-.166h.578l.42-.295c.081-.108.057-.363.014-.48l.208.137c.512-.207 1.045-.142 1.549-.397l.17-.234-.128-.197v-.2l.223-.06.17.113c.174.006.5-.067.631-.196h.25l.01-.348.197-.015.159.114.733-.197a1.55 1.55 0 01.185-.612 3.81 3.81 0 00.578-.132v-.132c.243.01.491-.013.733-.03l.174-.133.143.197.17-.099-.036-.218-.132-.129.027-.196c.282.04.604-.1.812-.284.07-.172.109-.373.117-.559l-.17-.113c-.401-.066-.82.377-1.258.412l-.185.25-.393.06-.159.185h-.117z"/><path d="M942.575 661.273c0-.234-.327-.378-.514-.408-.037.277-.503.494-.721.624l-.038.147a4.547 4.547 0 00-.487.068l-.25.23c-.403.014-.978-.175-1.326.02l-.154.177-.25-.015-1.076 1.103-.144-.113c-.214.24-.597.462-.907.544l-.053.196c.046.088.14.208.235.25-.126.063-.252.211-.325.328l.011.117c-.09.22-.31.254-.483.378h-.132l-.026.234c.328 0 1.246-.019 1.48.06-.23.149-.496.276-.774.284.058.173.15.353.265.495.661.179.997-.34 1.613-.461l.08-.166c.29-.063.585-.168.801-.378v-.147l.132-.151c.157.031.765-.43.828-.578l.196-.034.42-.363a.711.711 0 00-.133-.344l.027-.197c.142-.021.399.09.514.163a.606.606 0 01.287-.245l-.223-.151.015-.182c.833.11.804-1.236 1.112-1.485z"/><path d="M990.71 668.554l-.025-.427.43-.348-.574.08-.015-.132-.25.117-.275-.216-.706.053.392-.328-.71.045-.09.2-.606.114-.366-.147-.015.265-.197-.132c-.122.228.01.715.117.921l2.52.152z"/><path d="M1002.575 672.862l-.97-.167-.447.495.567.333.42-.284.17.118.037-.28z"/><path d="M987.167 673.652l.748-.035.378-.51-.023-.28-.895.48z"/><path d="M680.873 852.647c.05-.785.322-1.757.718-2.44l1.655.14.144.422.272-.336c1.722.277 3.508.366 5.248.495.32.023.7-.027 1.012.026.752.13 1.667.605 2.34.945.35.45 1.415 1.903 1.48 2.482l-.566.336-.205 1.134-.23-.087c.156.817.076 1.783.008 2.603-.033.402-.161.73-.125 1.16l-.17.12-.098.673-3.268 1.761c-.105.056-.727.95-.839 1.028-.17.118-.294.135-.482.222l-.965.443c-.311.118-.749.133-1.039.28-.511.257-.732.733-1.406.891-.119-.326-.682-.315-.887-.495-.787-.688-1.366-2.063-1.372-3.11 0-.08.132-.346.136-.438.08-1.632.264-4.242-.32-5.804l.124-.287c-.123-.065-.248-.503-.276-.627-.294-.038-.765-1.274-.888-1.537z"/><path d="M801.513 811.89c.199.08.434.176.605.31.367-.069.918.268 1.152.12l.072-.146c.121-.022.349-.11.427-.215l.045-.17c-.03-.069-.135-.255-.215-.28v-.19c-.18.012-.474-.01-.638-.1l-.295.094-.114.158a2.1 2.1 0 00-.446.076l-.328-.132c-.13.09-.25.321-.265.475zm-4.492 5.475l.57-.318c.151-1.403.824-2.307 1.637-3.377.052-.07.09-.165.132-.242l.631-.265.25-.336-.152-.4c-.5.164-.96-.244-1.512-.133l-.408-.495.087-.48.695-.253.026-.211.559-.125-.166-.26c.441-.333 1.31-.183 1.829-.243.117-.013.284-.138.4-.151.237-.027 1.017-.034 1.243.095l.4-.17.072-.382a3.1 3.1 0 01.748-.404l.159.17.17-.374h.321l.053-.151.238.159.367-.71c.128-.063.264-.12.388-.19.904-.508 1.894-1.189 2.838-1.598.24-.103 1.055 0 1.813-.374.442-.217.575-.645.975-.842l.057-.17c.212-.008.48-.077.665-.185l.32.101.586-.189.106-.317.435-.253.446.139c.214.197.403.494.532.753.465.333 1.318.695 1.905.68l.08.17-.435.114c-.13.213-.3.41-.472.59l.034.241-.204.45c.123.199.141.64.124.861l.303.095c.13.173.204.463.23.672-.151.438-.596 1.087-.506 1.527-.245.14-.452.076-.665.148-.418.142-.745.413-1.209.442l-.223-.076-.019-.234-.302.018-.14-.132-.714.246-.026.298.517.197c-.173.203-.553.783-.505 1.077l-.314.29c-.124-.104-.392-.16-.548-.124-.13.099-.303.345-.302.517a.462.462 0 01-.262-.196l-.177.082-.026.197.215.038.132-.05.212.076c-.14.338-.197.707-.328 1.05l-.461.11-.125-.287.072-.412-.303-.506h-.177l-.099-.272-.683.037-.23.204-.472-.09-.099-.215c.1-.117.251-.317.295-.47l-.19-.011v-.147l-.468.14-.26.29c.056.07.125.233.097.325l.205.125c-.497.249-.684.72-.896 1.2-.208-.077-.638-.067-.82.08l-.264-.1-.303.558.166.068-.04.355-.232.076c.086.227.135.478.159.718l-.348.321.132.148-.211.355-.178.038.098.158-.374.076-.105.14-.117-.102-.265.101-.208.461-.31.16-.42-.133-.218.253.132.253-.544.159-.166-.246-.578.03.239-.551.392-.17-.578-.216a6.402 6.402 0 01-1.228.227c-.325-.181-.693-.316-1.04-.45l.08-.532-.525.253.098.325-.257.385.348.337-.695.26c-.041.239-.282.554-.468.696l-.526.034-.23-.692-.392-.203-.034-.499z"/><path d="M583.301 921.565c.333-.16 1.715-1.857 1.939-2.23.194-.323.341-.761.498-1.11l-.098-.17c.116-.483.536-.774.835-1.133.334-.4.465-1.012 1.043-1.168l.125-.317c.267-.08.535-.782.593-1.013.14-.173.425-.249.62-.283 1.217-.213.947.226 1.53.257l.18-.208c.589-.051 1.28-.478 1.822-.42l.204.14c.795-.453 1.279-.266 1.84-.476l.4.18c.46-.179 3.3-1.006 3.51-.863l.204.299c-.118.197-.482.492-.468.702-.267.065-.614.44-.74.666.256.024.528 0 .782-.037l.25.132.07.279.232.076c-.147.364-.118.636-.382.971.237.24.133.661.328.9l.367-.122.185.363a.947.947 0 00.525.095l.098.223.284.094.177-.045.257.253.223-.067.223.067v.3l-.23.158c-.379-.12-1.164-.119-1.47.159l-.026-.355-.193-.17c-.275-.01-.72.406-.872.6v.14c-.884.201-1.765.245-2.649.393-1.208.202-2.927 1.055-3.857 1.861-.21.181-.847.826-.952 1.105-.046.12-.078.468-.125.563-.082.167-.292.343-.4.503-.567.827-1.17 1.916-2.347 1.9-.289-.131-.65-.323-.967-.366-.466-.823-1.894-.75-2.702-.673-.535-.303-.748-1.595-.866-2.151z"/><path d="M641.136 901.596c.17-.742.262-1.498.367-2.25.05-.362.018-.738.095-1.116l.544.166.238.33c.386.06.815.295.971.672l.473.037.203.246c.72-.156 1.407.18 1.855.73l-.166.589.114.299.223.151-.125.344c.08.179.46.308.631.328l.144.29c.143-.008.402.061.498.178l.23-.03.284.227.518.046.355-.242 1.145.203.314-.419c.19.065.596.088.77-.045l.16.102-.266.306.408.019.321-.215.472.125.291-.133.19-.721c-.157-.114-.212-.698-.216-.87l-.159-.094c-.007-.464.54-1.187.934-1.414l.23-.933.159-.121.045-.253.283-.151.19-.983.177-.159c.385.165 1.06.148 1.447.01l.144.124c.255.052.594.035.816.178l.057.204-.208.31-.284.112-.052.28c.163-.08.362-.184.544-.215l.246.43-.088.326-.32.144-.106.412-.303.26.117.469.178.177c-.13.415-.581.707-.934.926l-.328.009-.144.321-.159.053-.136.189-.257.064a1.8 1.8 0 01-.294.627l.32.151c-.06.182-.16.656-.06.843.21.084.434.397.488.608h.302l.16.253-.009.355-.203.178c.207.245.255.587.203.895l-.223.133a1.392 1.392 0 01-.348.562c.099.257.145.604.117.877-.216.309-.515.532-.748.824a3.434 3.434 0 00-.125.925l.098.114-.06.158-.19.012-.094.336-.215.027c-.1-.254-.406-.808-.665-.945-.337-.178-.73-.287-1.077-.45-.708-.33-1.337-.906-1.984-1.318-.057-.036-.263-.06-.336-.094-.73-.346-1.445-.688-2.195-1.016l-.132-.386c-.314.29-1.358-.039-1.681-.151-.22-.076-.405-.302-.597-.374-.106-.04-.43-.062-.514-.102-.364-.175-.586-.543-1.024-.646-.613.325-1.599.121-1.707.19-.21-.149-.274-.683-.257-.908l.098-.113-.098-.14.037-1.405z"/><path d="M585.553 902.465l.007-.268c.78-.467 1.758-.88 2.127-1.78.13-.07.257-.15.39-.215.67-.326 1.357-.637 2.017-.982.307-.16.574-.399.892-.544.231.244.499.46.763.665l.117-.16-.071-.185.203-.264a2.462 2.462 0 00-.162-1.04c.406-.61 2.295-3.534 2.1-3.982l.205-.125.835-1.711c.95-.475 1.625.12 2.221-.045l.446.253c.775-.107 1.54.09 2.301.12.428.018.866-.069 1.3-.037.582.043 1.16.157 1.75.185l.302.302c.166-.009.582-.078.695-.226.592.074 1.133-.195 1.703-.26.236-.028.51.05.748.036.39-.022.877-.227 1.262-.075.028.328-.06.777-.223 1.065-.735-.139-3.313.769-3.653 1.5-.132.012-.375-.039-.469-.143-.621.132-1.142.432-1.726.6-.502.146-1.058.15-1.565.3-.207.061-.47.24-.691.234-.583-.017-1.073-.185-1.629.17-.081.53-1.213.97-1.629 1.133-1.111.439-1.406.632-1.383 1.916-.273.343-.54.695-.786 1.058-.856.124-2.982.02-3.35 1.065-.114.045-.96.391-1.021.439-.138.106-.23.319-.367.423-.277.21-.638.34-.914.552-.556.427-1.085.935-1.617 1.394-.255-.533-.87-.792-1.128-1.367z"/><path d="M550.509 923.227c-.052-.179-.007-.474.064-.642.542-.65 1.635-.939 2.187-.143l.095.366c.397.33 1.922-.17 2.437-.177.34-.01 1.323.447 1.68.59.057.335.149 1.488-.135 1.757l-.658.449c.169.517.038 1.012.17 1.527l.25.196c.14.396.219 1.338-.02 1.692.545.17 1.69.157 2.037.582l-.117.476a5.34 5.34 0 01-.646.495l-.052.439-.36.272c-.16-.014-.417.054-.54.16-.188-.017-.469-.115-.612-.242.082-.219-.012-.804-.057-1.021-.212.13-.446.336-.585.544-.127.048-.47-.148-.568-.215-.288.252-1.542-.448-2.029-.318-.12-.21-1.065-.27-1.296-.302l-.09-.363-.719-.095-.135.159-.284.03c-.309-.293-.692-.598-.967-.918-.446-.518-.429-3.619-.11-4.107.29-.442.835-.703 1.06-1.19z"/><path d="M875.74 771.624l.48-.049.113-.132c-.105-.551.359-1.854.865-2.12.35 0 1.336-.026 1.65-.198.179-.24.716-.762 1.025-.74l.197.16.009.26c-.073.125-.292.396-.45.423.201.264.876.333 1.202.36.244.278.616.399.873.672l-.095.219-.59.185.01.378-.235.216c.279.05.727-.087.948-.254.628.05 1.872 1.707 1.803 2.207l.302.253.186-.02c.234.091.507.4.612.62l-.012.59c-.26.742-1.915 1.164-2.607 1.081-.434-.052-.847-.299-1.307-.253-.498.05-.833.463-1.315.488l-.166.366c-.555.29-1.923.51-2.573.552l-.235.358c-.358-.006-.885.308-1.08.601l-.261.02c-.373-.644.009-.958.037-1.569.015-.302-.105-.772-.159-1.064-.335-1.816-.307-2.09.776-3.61z"/><path d="M566.352 931.06c.417-.542 1.142-1.145 1.723-1.508.023-.316.203-1.317.525-1.496.244-.061.509-.2.748-.241.589-.102 1.308-.05 1.874-.234.161-.053.319-.244.48-.299.552-.187 1.188.049 1.708-.068.422-.094 1.623-.631 2.025-.925l.09.234c.697.01 1.47.043 2.143-.177.086-.27.166-.55.212-.832.228-.187 1.067-.257 1.345-.264l.087-.261c.15-.141.476-.234.676-.227l.454.217c.549-.231 1.144-.05 1.708-.224.047-.134.225-.597.336-.684l.007-.204.216.121c.139.162.203.518.158.722-.117.081-.318.289-.347.438l-.337.057-.31.4c.32.347.602.474 1.059.321l.007.438-.25.215-.026.54.446.62c.23.001.572.182.71.364l.143.392-.11.423c-.394.381-.838.785-1.307 1.077-.434-.346-1.012-.33-1.492-.646-.83-.546-1.715-1.07-2.516-1.655-.362-.264-.535-.66-.986-.854l-.375.011c-.139.138-.57.407-.762.43-.595.072-1.23-.021-1.822.084-.404.071-.781.251-1.164.392-.705.259-1.467.475-2.154.775-1.254.548-3.307 1.984-3.876 3.333l-.986-.45z"/><path d="M978.813 676.9l.294-.396.627.265.794-.196.064-.265-.872-.299c-.044-.4.058-1.791.494-2.01l1.965-.397c.28.674 1.576.932 2.192 1.02l-.084.382.662-.117.627.465.147.956.843.627-.363.593-.363-.068c-.235.152-.74.321-1.024.235l-.691.392c.032.318-.124.832-.23 1.122l-.942-.294-.347.196-.461-.412c-.616.213-2.06.68-2.724.643-.26-.437-.52-1.928-.608-2.442z"/><path d="M559.97 933.12c.372-.023.75-.052 1.118-.114l.019.336c.33.166.975.055 1.307-.037l.068-.177c.253-.28 1.767-1.01 2.17-1.225l.589.075.691-.468 1.202.59c.013.043.1.286.098.317-.005.205-.096.447-.125.654a10.98 10.98 0 00-.053 2.154l-.287.298c-.76.021-1.287.65-1.965.722-.238-.123-.655-.204-.921-.15l-.287-.507c-.246-.172-1.01-.106-1.278-.057l-.267.442-1.183.147-.472-.597.037-.215-.302-.298c-.097-.507-.63-1.472-.16-1.89z"/><path d="M799.053 781.01c.55-.889.38-1.565 1.38-2.12.248-.068.7.06.918.174.278.288.224 1.303.219 1.666.428.505.785 1.181 1.277 1.614.14.124.782.273.94.389.227.164.499.612.73.839l.963-.163c.464.318.961 1.159 1.066 1.711l-.143.514c-.212.208-.475.39-.722.552-.278-.037-.687-.045-.948-.128-.69-.22-1.335-.6-2.04-.824-.126-.04-.21-.032-.321-.101-.387-.242-.706-.7-1.081-.968-.53-.379-.89-.314-1.353-.956-.437-.605-.67-1.488-.885-2.199z"/><path d="M939.091 685.428l.495-.578 1.651.083 1.07 1.073-.99.824.083 1.073c.756.357 1.766 1.392 1.98 2.225-.656.637-1.808 1.508-2.72 1.734-.578-.531-1.365-2.258-1.486-2.97-.017-.098.166-1.2.166-1.4 0-.645-.17-1.417-.249-2.064z"/><path d="M854.312 785.925l.117-.105c.383-.062.832.328 1.066.593l.135-.431c.274-.077.667-.033.934.046.188-.245.695-.99.7-1.319l-.171-.548.064-.26c.27.114.677.13.96.072l.348-.404.476.294.351-.06.08-.469c.589-.144 1.282.126 1.802-.086.339.138.598.586.64.94-.972 1.432-1.742.835-2.396 2.108-.872.465-1.533-.035-2.404.224-.058.27-.37.618-.612.737l-.09.843-.832.294-.468-.294c-.076-.122-.657-1.959-.7-2.175z"/><path d="M602.423 917.923l.08-.121.615-.046.008-.495-.105-.095c.058-.272-.213-1.522-.367-1.787.089-.4.117-.836.125-1.243l.178-.095.143.056.223.597.25.152c.147.01.428-.033.548-.133l.17.046.097.208-.044.102c-.079-.088-.303-.11-.409-.095l-.087.125-.438.053c-.106.078-.208.342-.238.461.217.693.022 1.38.283 2.169l.212-.083c.226.141.78.166 1.032.15.272.338 1.597.776 2.048.749.385-.024.753-.186 1.152-.125.492.074 1.037.281 1.512.43.206-.06.489-.243.616-.419l.086-.366c.18-.078.505-.08.684 0l.117.404-.302.167-.695 1.303-.416-.152-.151.317.31.208-.283.382-.382-.242-.215.317.17.514-.132.17-.367-.03-.132.14-.215-.035c-.106-.447-2.524-2.222-2.577-2.977-.615-.045-1.036-.338-1.59-.468-.478-.11-1.027-.144-1.514-.213z"/><path d="M678.55 915.622l.034-.303.276-.026c.22-.134.825-.728 1.001-.759l-.02-.446.1-.185-.1-.208a7.91 7.91 0 00.115-.695c.377-.067.915-.057 1.276.09.244.114.403.913.81 1.254l.033 1.289c-.214.122-.692.47-.782.721l-.442.193-.053.211-.227.155-.45-.392c-.406.086-1.463-.492-1.571-.9z"/><path d="M540.058 931.744l.272-.348c1.426-.717 3.037 1.134 4.738.28.3-.151.605-.499.892-.692.493-.332 1.005-.557 1.473-.952l-.026-.215.196-.126.238.076c.045-.257.262-.593.428-.786l-.088-.215.16-.234-.186-.344c.078-.308.327-.736.578-.937l.257.261.098.412c-.146.169-.176.759-.17.964l.177-.091c.012.13.14.308.25.373l.026.431-.177.25c-1.159-.143-4.713 2.209-4.882 3.257-.103.133-.39.214-.548.207l-.037.16h-.62l-.26-.19-.087-.495c-.227-.233-.544-.486-.847-.615l-.124-.284c-.523-.061-1.145-.074-1.663.037z"/><path d="M369.386 709.308c.623-.298 1.311-.152 1.861-.461l.58.166c.33.362.743 1.216.626 1.73l-.294.378-.495-.26c-.187.483-.568 1.1-.99 1.416-1.061-.548-1.467-1.85-1.288-2.97z"/><path d="M583.248 925.774l.196-.215.295.102c.079-.175.327-.419.525-.45l-.223-.522c.03-.153.194-.375.344-.43h.32l.118.197.25-.068c.048-.107.14-.373.113-.495.35-.078.681.164 1.005.265l.249.306.329.094c.085.23.076.617-.008.843a4.812 4.812 0 00-.631-.355l-.367.476.027.458-.159.17-.215-.027-.257.401-.427-.133-.113-.317.151-.344-.208-.31-.185.065-.144.506-.272.095-.189.336-.238.02-.26-.235z"/><path d="M584.744 902.44l.525-.02c.32.571.854 1.019 1.281 1.508-.467.574-.993.935-1.745.812-.323-.477-.578-1.873-.06-2.301z"/><path d="M524.555 728.978l.148-.23.245-.065c.252.155.603.234.828.397.416.302.87 1.03.79 1.564l-.114.201-.759.113-.314-.215c-.14-.214-.137-.72-.098-.956l-.676-.378z"/><path d="M682.117 864.497l.241-.227.303-.009.631.654-.151.227-.578.02a2.835 2.835 0 00-.446-.666z"/><path d="M633.153 904.283l.276-.046-.08-.151c.158-.078.468-.067.632-.028l.189.187.605-.064-.19.203c-.514.114-.843.295-1.386.14z"/><path d="M605.17 914.51l.098-.067.303.011.06.064v.113c-.097.052-.299.07-.397.01z"/><path d="M604.736 914.689l.06-.114c.091-.021.262.009.33.075v.102l-.08.075-.113-.05-.152.02z"/></svg>