<svg width="1024" height="1024" version="1.0" xmlns="http://www.w3.org/2000/svg" viewBox="0 0 1024 1024" fill="#e83c4b" stroke-linecap="round"><path d="M65.744 348.526c-.45 0-2.863-1.697-5.364-3.77l-4.547-3.77 3.303-.065 3.303-.063 2.061 3.834c1.134 2.109 1.694 3.834 1.244 3.834zM656.42 913.618l-7.704-.017-4.079-2.368c-2.243-1.302-6.503-4.07-9.465-6.15l-5.387-3.782-23.116.434-23.117.435-3.723-3.362c-2.048-1.85-7.32-5.096-11.716-7.214l-7.992-3.85.863-2.86c.474-1.572.705-6.176.511-10.23l-.35-7.373 1.963-3.651 1.963-3.652h5.647l5.977-12.59 5.976-12.591.388-5.582.388-5.581 4.544-4.814 4.544-4.815-2.485-5.29c-1.366-2.91-4.489-11.496-6.938-19.08l-4.453-13.787-9.916-12.56-9.916-12.56 4.04-6.507c2.223-3.58 5.382-7.615 7.02-8.969l2.98-2.461-1.3-7.66-1.3-7.659-3.622-5.911c-1.991-3.251-3.624-7.218-3.628-8.815-.005-1.598-1.685-6.02-3.735-9.826-2.05-3.808-7.466-10.779-12.037-15.492a3202.47 3202.47 0 01-18.173-18.946l-9.862-10.376-15.176-7.565-15.175-7.564-9.068-9.411c-4.987-5.176-11.872-11.47-15.3-13.988L458.258 605H447.33l-1.246 3.232-1.247 3.233 3.64 2.04c2.002 1.121 6.145 4.433 9.207 7.359l5.567 5.32-2.357 2.826-2.356 2.826 2.42 5.815 2.42 5.814-1.058 1.053-1.057 1.052-4.14-2.206-4.14-2.205-2.766 2.285-2.766 2.285v12.95h-1.463c-.804 0-2.579-1.779-3.943-3.953l-2.48-3.953-5.189.598-5.189.598-4.52 8.617-4.522 8.617 1.194 7.427 1.193 7.427-3.43-1.445c-1.886-.795-5.163-1.545-7.282-1.666l-3.852-.22-.61 5.272-.609 5.272h-6.727l-5.124 5.324-5.124 5.324 1.159 7.107 1.158 7.107 2.642 2.182 2.642 2.183v10.623l-2.889 1.103-2.889 1.104v5.966l4.815 1.823 4.815 1.822v2.766c0 1.522-.526 4.131-1.169 5.799l-1.169 3.032h-12.314l-5.925-6.23c-3.258-3.427-6.938-8.196-8.178-10.598l-2.254-4.367-6.235.418-6.236.418-2.108-1.297-2.109-1.297-5.04 3.947-5.042 3.948v5.275l-4.334 4.528-4.333 4.529-7.704-.357c-4.237-.196-10.52-1.327-13.963-2.512a1983.05 1983.05 0 01-12.52-4.368l-6.259-2.213-5.778.209c-3.177.115-7.728-.2-10.111-.7l-4.333-.908v-8.09l-6.738-7.9c-3.705-4.346-7.822-8.964-9.148-10.264a1015.4 1015.4 0 00-6.959-6.71c-2.5-2.39-10.639-12.112-18.084-21.601-7.446-9.49-14.716-17.944-16.157-18.788l-2.62-1.533v-8.661l-2.46-3.35-2.46-3.348-3.8-.705c-2.09-.388-4.166-.771-4.616-.852-.45-.08 1.146-2.226 3.545-4.768l4.362-4.622-.731-3.526-.732-3.526-5.342.378-5.343.377.62-3.253.618-3.253 7.207-.595 7.206-.595V611.14l-5.815-11.004-5.815-11.004 1.214-6.445 1.215-6.444h-1.755c-.966 0-2.85 1.078-4.186 2.396l-2.432 2.397-1.901-3.355-1.902-3.355h-7.513v5.49l-5.432 3.85-2.439 9.09-2.396-6.595-2.396-6.596h-5.269l-1.236 3.878c-.68 2.133-.995 6.675-.699 10.093l.538 6.214-1.47 2.37c-.81-.944-2.077 2.368-2.817 2.368h-1.345l-.322-10.065c-.177-5.536-.31-13.516-.295-17.733.015-4.218-.059-10.688-.163-14.379-.105-3.69-.426-13.335-.714-21.433l-.524-14.723-3.156-3.49-3.155-3.49 3.697-4.525 3.698-4.526v-7.26l5.661-17.566 8.655-12.326-.981-2.523c-.54-1.387-3.568-3.992-6.73-5.789l-5.747-3.265v-5.514l4.815-1.203 4.815-1.203v-1.806c0-.993 1.728-3.409 3.84-5.367l3.84-3.561-.743-25.967-.742-25.968-2.091-3.889c-1.15-2.139-4.778-6.14-8.06-8.889l-5.97-5h-8.134l-5.888-1.496-1.983-1.974-1.983-1.974-14.577-1.627c-8.018-.895-15.533-2.215-16.7-2.932l-2.121-1.305v-10.51l-2.311-2.3-2.312-2.301h-8.632l-1.087-1.751c-.598-.964-5.101-3.686-10.007-6.05l-8.919-4.297-3.5 2.175-3.5 2.176-1.217-1.962-1.218-1.962 2.125-2.55 2.126-2.548-4.85-3.163-4.848-3.162 2.994-2.229c0-1.225-1.796-4.132-3.991-6.458-2.196-2.326-4.166-5.401-4.379-6.833-.213-1.432-1.543-5.38-2.956-8.771l-2.57-6.167L44 291.85l-3.822-1.207.964-3.669 4.707-2.92-2.75-11.963c-1.513-6.58 2.642-12.508 1.914-14.09l-1.324-2.876 3.659-13.899c-.047-7.644.058-13.899.232-13.899.174 0 2.405 3.72 4.957 8.265l4.64 8.264-1.816 4.054-1.817 4.053-.624 9.112c1.716 5.012-1.372 7.683-2.869 11.841v3.478l5.47 4.852c3.009 2.668 3.36 5.29 5.354 6.742l3.625 2.639-2.79 5.19-2.791 5.191 4.77 4.142 1.774 4.141 4.234 8.594 4.233 8.594 6.749 3.608 6.749 3.607 7.306.227 7.306.227 1.701-3.835 1.702-3.834 12.059.234 12.058.234 6.075 3.016 6.074 3.016 6.818 2.74c4.985.684 11.395 2.213 14.245 3.398l5.182 2.155.917 3.494.918 3.493 4.817-1.203 4.817-1.204 2.077 3.864 2.078 3.864-1.163 3.014-1.162 3.015h3.646l2.194-4.793 2.194-4.793h3.934v9.175l3.063 1.17 3.063 1.17 2.044-1.257 2.045-1.258 2.115 2.855c1.163 1.57 4.065 3.89 6.449 5.153l4.333 2.298v11.503l3.11 4.725 3.111 4.726h6.78l1.203 5.99c.662 3.296 1.204 11.386 1.204 17.98v11.987l4.152 2.744 4.151 2.744-3.403 8.87-3.403 8.87-7.326 2.918c-4.029 1.604-7.84 3.747-8.47 4.76l-1.144 1.844 3.237 3.223 3.238 3.222 6.891-1.134c3.79-.624 10.183-2.056 14.206-3.183l7.314-2.05 1.787-4.677 1.786-4.677h5.614l1.093 3.428 1.093 3.428-3.443 6.637c-1.893 3.65-5.001 8.97-6.907 11.824l-3.464 5.188 1.242 2.001c.684 1.101 2.33 2.002 3.658 2.002h2.415l5.536-5.752 5.535-5.75h6.984v8.626l-6.741 5.354-6.741 5.354v5.588h7.774l10.076-5.131c5.542-2.822 10.452-5.425 10.911-5.783.459-.36-.191-1.674-1.445-2.922-1.253-1.247-2.279-3.715-2.279-5.484v-3.216l2.645-2.185 2.645-2.185 3.133 1.197 3.133 1.196v11.093h5.642l2.062-3.834 2.062-3.835h20.8l5.253 1.989 5.254 1.988 2.094-2.146 2.094-2.146-6.438-5.402-6.438-5.402.679-3.507.678-3.507 5.185-1.815 5.184-1.815 7.67 2.52 7.671 2.52 8.265-2.089 8.265-2.088 3.088 2.782 3.088 2.781h6.558l.986-2.559.986-2.558-6.754-9.991-6.754-9.99-1.246-6.61-1.245-6.609 1.211-4.805 1.212-4.806h13.408v-5.285c0-2.906-.852-8.241-1.893-11.856l-1.893-6.571 2.652-10.11 2.652-10.109 4.056-5.132 4.056-5.133v-12.684l-4.042-6.82-4.042-6.82h-1.855c-1.02 0-6.205 1.417-11.522 3.148l-9.665 3.147-3.812-3.794-3.812-3.794-.211-6.542-.212-6.542 3.033-12.462c1.669-6.854 3.91-15.05 4.98-18.213 1.07-3.163 3.006-9.202 4.302-13.42l2.356-7.668 5.84-8.152 5.84-8.152 6.457-3.792c3.551-2.086 6.802-4.888 7.224-6.227.422-1.338 1.308-5.672 1.969-9.63l1.201-7.196 3.035-2.39c1.67-1.314 5.53-4.853 8.578-7.864l5.544-5.475v-5.346h-3.467c-1.906 0-4.431.96-5.61 2.134l-2.143 2.133-2.094-1.288-2.094-1.288v-9.26l5.778-2.975 5.778-2.974.035-3.306.035-3.305 5.743-8.437c3.159-4.64 5.73-9.384 5.713-10.544-.016-1.16-.767-3.266-1.668-4.682l-1.639-2.573 4.076-7.476c2.242-4.111 4.704-7.482 5.47-7.49.768-.01 2.768 2.625 4.446 5.854l3.05 5.87 3.182-.61 3.183-.61 1.186-5.74c.653-3.156 2.235-7.68 3.515-10.053 1.28-2.372 3.044-4.313 3.92-4.313h1.59l-.915 4.769-.916 4.769 2.646 1.01 2.645 1.011 9.32-1.733 9.321-1.734 5.106 2.652c2.809 1.459 7.026 2.657 9.372 2.664l4.266.012 2.058-3.828 2.058-3.828 8.064-4.095 8.065-4.096 12.575-.946 12.576-.946 2.889-2.35 2.889-2.351 8.313.288 8.313.288 4.827 6.139 4.827 6.14h2.513c1.383 0 3.513-1.2 4.734-2.664l2.221-2.664 5.203-.99 5.203-.99 5.47 2.816 5.47 2.815 10.179-1.265 10.18-1.266 6.533 6.474c3.594 3.561 9.942 8.985 14.107 12.053l7.573 5.578 16.502 2.718c9.076 1.495 18.982 2.653 22.012 2.573l5.51-.145 5.873 3.023 5.874 3.024 10.796-.778 10.795-.777 6.206-4.567 6.205-4.567 1.21 1.204 1.209 1.204.27 14.956.27 14.955 4.793 6.377 4.793 6.376 5.499-1.094 5.5-1.095 5.89-4.934 5.891-4.935 4.029.984c2.215.54 8.795 1.577 14.621 2.303l10.593 1.321 2.353 1.852c1.294 1.018 5.627 2.723 9.63 3.788 4.002 1.066 9.877 2.137 13.055 2.382l5.778.445.666 4.618c.366 2.54 1.556 5.696 2.643 7.014l1.977 2.397h8.709l1.058-4.028 1.058-4.027 2.224 1.368 2.223 1.368-.879 3.345-.879 3.346 1.77 3.148 1.77 3.148h5.488l2.987-5.751c1.644-3.164 3.703-5.752 4.577-5.752.874 0 4.536.98 8.136 2.178l6.547 2.178 5.469 5.011c3.007 2.757 6.76 7.474 8.338 10.483l2.87 5.472-1.297 9.386-1.296 9.386h-9.718l1.394 5.272c.767 2.9-1.476 4.98-1.325 9.198l-.473 12.908 3.68 4.583c1.202 2.109 5.047 5.471 5.802 10.216l1.371 8.627 2.857 4.478 2.857 4.479-.614 24.444c2.955 11.387 11.898 17.824 12.555 18.881l1.192 1.922-3.17 2.613-3.171 2.614-14.623.345c-8.043.19-17.645.622-21.338.959l-6.715.613-.72 3.725-.721 3.725-4.602 3.603-4.603 3.604v9.307h-19.26v1.85c0 1.017 1.835 2.827 4.077 4.021l4.077 2.172 19.308.418 19.307.417 3.58 4.4 3.58 4.4v7.245h1.808c.995 0 5.814 3.45 10.71 7.668l8.901 7.669h9.587l5.664 2.915 5.663 2.915 3.73 7.278c2.052 4.003 5.002 8.329 6.557 9.613 1.555 1.285 3.568 2.203 4.474 2.042.906-.162 2.8-.193 4.208-.068l2.56.227-1.266 5.739-1.266 5.738 3.895 4.928 3.894 4.928-1.07 2.776-1.07 2.776 5.148 10.823 5.148 10.822-1.22 7.186-1.22 7.186 3.158 9.257 3.157 9.256-1.006 5.783-1.006 5.783 1.657 8.562 1.656 8.562-2.421 3.442-2.422 3.442.925 10.043c.509 5.523 1.711 11.552 2.672 13.398l1.747 3.355h2.707c1.49 0 3.303.958 4.03 2.13l1.322 2.129-5.32 4.223-5.32 4.222 2.185 4.066 2.186 4.066v13.076l-17.105 6.324c-6.938 9.654-12.242 23.53-12.81 22.792-6.92-8.982-.06 5.845-1.722 7.5l-3.023 4.506 1.922 3.575c1.058 1.966 1.923 5.295 1.923 7.398v3.824l3.187 3.172 3.187 3.173.87 9.02.871 9.021-2.764 2.284c-1.52 1.256-6.158 2.986-10.307 3.844l-7.543 1.56-.699 3.75c-.384 2.063-1.578 4.829-2.653 6.147l-1.955 2.396h-8.465l-8.26 7.038-8.26 7.038-3.537 8.214-3.537 8.213-1.285 12.068-1.285 12.067-2.664 4.234-2.664 4.233.473 4.256.473 4.256-4.815 1.385c-2.648.761-8.043 1.47-11.988 1.575l-7.173.191-2.825 5.438-2.825 5.438 2.776 5.326c1.526 2.929 2.775 6.796 2.775 8.594v3.269l-7.251 9.452c-3.988 5.2-10.215 12.688-13.836 16.642l-6.585 7.19H834.8l-1.188 1.913c-.653 1.052-6.121 4.11-12.15 6.795-6.03 2.686-14.992 7-19.915 9.59-4.923 2.589-10.055 4.707-11.404 4.707-1.35 0-3.822 1.139-5.494 2.531-1.672 1.393-6.507 3.544-10.745 4.78l-7.704 2.247-2.273-3.046-2.274-3.046-11.208.486-11.208.487-3.184-1.395-3.184-1.395-8.164 4.146-8.165 4.147-4.444-2.368-4.445-2.368-5.95 2.454-5.952 2.454-2.629 3.735-2.628 3.736-3.91-2.083c-2.15-1.145-5.6-2.082-7.667-2.082s-6.24 1.288-9.275 2.864l-5.516 2.863zM136.562 420.203c-1.675.64-3.136.856-3.247.48-.11-.377-.402-3.84-.647-7.696l-.446-7.012-3.31-3.296-3.312-3.295.588-5.03.587-5.03-6.26-.6-6.259-.601v-7.426h-1.69c-.93 0-2.844 1.384-4.254 3.075l-2.563 3.074-7.567-1.01-7.568-1.01-2.94-2.927-2.94-2.927 2.276-2.728 2.275-2.73 18.726.746 18.726.746 10.945 3.056 10.944 3.057 5.927 5.768 5.927 5.768v4.691c0 2.58-.898 6.36-1.994 8.4-1.097 2.04-2.863 3.708-3.925 3.708h-1.931l.554-5.272.555-5.272-5.413-.618-5.413-.618-2.56 2.114-2.559 2.115-.938 4.885-.938 4.885 2.651 1.013 2.65 1.012v2.671c0 1.469-.362 2.67-.805 2.67-.443 0-2.176.524-3.852 1.164zm214.507-11.918h-3.342l-3.059-10.704-6.802-11.452-9.498-9.307-9.497-9.306-2.063-5.888-2.062-5.888 4.61-3.006 4.61-3.007 4.444.627 4.445.628.615 4.313.616 4.314h7.209l1.263 2.035c.695 1.12 3.351 2.825 5.902 3.79l4.638 1.756 3.167 6.61 3.166 6.61-.638 14.312-4.382 13.563zM61.708 233.078H59.14l1.284-1.278 1.284-1.278 1.284 1.278 1.284 1.278zm490.87 536.644l-3.692.151 1.163-1.158 1.164-1.158 2.528 1.007 2.528 1.007zm-503.39-546.23a.964.964 0 01-.963-.958.964.964 0 011.926 0 .964.964 0 01-.963.959zm380.834 511.44c-1.64.311-3.59-.04-4.333-.779l-1.351-1.344.07-8.787.069-8.787 4.78 5.752 4.779 5.751-.515 3.815-.516 3.814zm-205.458-12.238c-.873 0-2.204-.994-2.958-2.208l-1.371-2.208 3.524-2.565c1.938-1.41 3.77-2.32 4.07-2.022.3.299.045 2.447-.566 4.773l-1.111 4.23zm3.963-15.337h-2.568l1.284-1.278 1.284-1.278 1.284 1.278 1.284 1.278zm-9.674-11.503c-.91 0-2.02-.647-2.465-1.438-.445-.79-1.38-3.81-2.076-6.71l-1.266-5.272h7.502l3.027 3.013c1.664 1.657 3.026 4.153 3.026 5.546v2.534l-3.046 1.163c-1.676.64-3.791 1.164-4.702 1.164zM138.62 589.658l-1.36 2.45-1.338-1.332-1.338-1.331v-22.619l2.023-3.762 2.022-3.762 2.029 1.248 8.016 1.248-7.341 12.705c5.244 8.485-1.966 13.808-2.713 15.155zM296.765 450.81c-.483.482-3.178-.925-5.988-3.125l-5.109-4v-5.475h1.795c.987 0 3.682 2.638 5.988 5.862 2.307 3.224 3.798 6.255 3.314 6.736zm-133.283-16.432c-1.526 0-3.346-.92-4.045-2.045l-1.269-2.045 1.073-1.068 1.073-1.067 2.972 1.135 2.972 1.135v3.955zm166.484-1.918a1.927 1.927 0 01-1.926-1.917 1.927 1.927 0 013.852 0 1.927 1.927 0 01-1.926 1.917zM95.028 414.227l-1.958 1.205v-2.99c0-1.643.383-2.988.85-2.988.467 0 1.348.803 1.957 1.785l1.108 1.784zm-80.09-158.385l.749-5.24 5.24-10.479 2.994 5.988zm7.486-35.929l-4.492 5.988 3.743 11.977v-9.731l2.994-4.491zM54.61 340.425l20.21 20.958 7.485-1.497h-.748l-2.246-5.988-11.976-9.73-5.24-5.24zm0-115.272l-8.982-4.491 5.24-7.485 8.233 6.736zm-30.69-32.186l1.498-6.737-6.737 5.24zm67.367-95.062c-7.485 8.982-4.49 12.724-4.49 12.724l8.982-10.479zm62.127 348.061l8.234.749 2.994-8.234-11.976.748zm849.57 150.452l1.497-14.97 10.48 2.994H999.99zM73.323 285.034L82.305 303l5.988-11.976zm405.697-166.17l-1.497 8.981 7.486-1.497zM110.75 403.3l-10.48 1.497 4.492 14.97z"/></svg>