<svg xmlns="http://www.w3.org/2000/svg" xmlns:xlink="http://www.w3.org/1999/xlink" width="1024" height="1024" viewBox="0 0 270.933 270.933" fill="#e83c4b" stroke-linecap="round"><defs><clipPath id="svg-b"><use xlink:href="#svg-a" overflow="visible" width="100%" height="100%"/></clipPath><path id="svg-a" d="M-223.3-524.2l-1.3-.6-.3-.7.6-1.5 1.4 2zm19.7 19.2l-.3-1.6-.9.4-.9-1 .1-.5 2.5.4.2.7zm1.6 1.7l-.3-.6.3-1c.3-.5 1.5-.8 2.1-.8l.8.8-.1.7c-.6-.2-2.2.6-2.8.9zm38.3-94.2l.3-.7 1.2-.3.9-1.5c.7.1 2.4.5 2.9 1.1-.5.5-1.6 1.2-2.4 1.2l-.5 1c-.8.3-2-.1-2.4-.8zm6.2.5l-.5 1.5c-.6 0-1.8-.2-2.1-.8l.3-.6zm13.4 7.7c-2.4-.2-3.2-1.8-4.7-1.8l-.1-.4h1.6c.7.7 2.3 1.4 3.4 1.2l.3.7zm34.9 13.5c2.7 2.3 3.5-.5 6 3.6l-.2.8-1.1.7-1.2-.2c.2-3.5-2.5-2.4-3.9-4.4zm18.9 13.3l-1-1.1.7-1.5c.5-.4 2.3 0 2.8.1l.1.3-1.4 2.1zm7-.2l-1.7-1.2-1.2.2-.3-.4.1-.5.5-.3 1.9.3zm57.7 6c1.4-.9 4.3.6 5.6 1.2l.1.3-.4.5-1.8-.3c-.6.3-2.6 1.1-3.2.9zm-108.1 13.8l-.2-.7-1-.2c-1.3.5-3.4 3.1-4.4 4.1l-.2-.6c.3-1 2.8-3.7 3.5-4.1 2.6-1.7 5.8-3.1 8.5-4.5l1-.6.8-2.2.9-.4c.5.8-1 2.9.1 4.9l-1 .2-1-1c-7.5 7-5.5 4.2-8.2 15.3l-.5.2c.4-3.6.4-7.1 1.7-10.4zm128.4 4.1l.4.6c-.1 0-.4.3-.4.3-.2 0-2 .4-2 .4-1.6-.3-6.2-1.9-7.7-3l.6-.8-2.2-1.4.5-.5c1.8.2 4.4 2.3 5.2 3.9 1.9.4 3.8.4 5.6.5zm20.6 6.3l-.1-.9.8-.3c1.5 1.3 3.6 2.9 5.7 2.5l.7 1.8-.4.2c-2-1.1-4.5-2.7-6.7-3.3zm-9 5.6l.7.8c-1.3.3-2.8-.6-3.9-1.3l-.2-.6.4-.3c1 .5 1.9 1.3 3 1.4zm-1.1 5.8l1.1-1.1.6.1v1.1l1.6-.1.2.3-1.1 2.5.3.9 1 .8c4.3.6 5.4 1 9.4.6l.2.7c-.8.6-.7.5-1.9.6-1.8-1.3-5 0-6.2 1.5-2.2-.3-5.6-.5-7.7.4-.8.3-1.4 1.2-2.4 1.1-1.8-1.3-5.4-1.8-7.6-1.5-.9-.7-1.2-.9-2.4-1.1l-.5-.8-1.2-.6.1-.7-1.8-1.4-1.3-.2-.5-.8-1-.5-2-1c-2.1-.6-5.3 1.7-6.7 3-.9.4-3.6-.5-4.4-.8l-.3-.5.7-.9 2 .2.5-.8-.5-.7-.9.6-1.4-.2-1-.9c-1 .1-2.2-.3-3.1-.7l-.5.8-1-.8c-1-.4-2.8-.1-3.7.3-1-.5-2.8-.7-3.9-.3l-.9-1.3c-1.7.1-3.1-1-4.7-.6l-1-.8c-1.7.4-3.4-.1-4.8.1-2.3.3-6 2.5-8.4 3-3.3.7-6.9.9-10.2 1.3-.7.1-1.7.5-2.4.7l-.6-.8c.3-.7 9.1-1.6 10.4-1.7.6-.1 1.4-.8 2-1 .9-.2 1.9-.2 2.7-.4 1.9-.5 3.9-1.5 5.8-1.9 1.4-.3 4-.4 5.5-.3 1 0 2.1.5 3.1.6 2.2.2 3.5-1.4 4.9-1.5 1.4-.1 3.7.3 5.2.5.1 0 .8-.2.9-.2.6.3 1.2.7 1.9.8 2.2.5 4.5 1.3 6.7 1.5.6.1 1.3-.1 1.9 0 .3.1 1.3.6 1.6.7 2.3.3 4.8.5 7.1.9 4.1.8 1.9 1.5 7 1l1.5-.1c.5.5 1.1 1.1 1.6 1.5 1.3.9 6.8-1.1 8.2-1.3.6.2 1.5.2 2.3.2zm26.4 2.4l-1-.5-1.1-2.6.3-1.5.8-.7 2.6 1.2-.9 1.6.6 1.4-.1.7zm-80.5-3.6l4.6 2.4-.2.4c-1 .3-3.8-1.4-4.6-2zm-9 9l-.5-.7.2-1.9 1 .2.9.9zm-1 1.8l.5 1.3-.4.7-.6.2-.4-1.7c-1.3-1.2-3.6-1.9-5.2-1.1l-1.8-1.1.5-.8-.2-.7c.6-.5 1.9-1 2.6-.8l1.6 1.2-.6.6c1.3.5 2.8 1.3 4 2.2zm34.8-1.7l-.1-1.3c.6-.4 1.8-.7 2.5-.8l.7.7c-.2.9-2.3 1.4-3.1 1.4zm43.4 4.3l-1.6-.7c-.2-.9-.7-3.3-.4-4.2l1.8 1.1-.2 2 .7 1.4 1.3.7.8 1.6-.6.5c-.8-.3-1.6-1.6-1.8-2.4zm.9-1.4l-.2-1.5 2.7.5-.3.8c-.4 0-1.9.4-2.2.2zm-83.8 7.3l-1.4-2.5.2-.7.9.4.8 2.4zm-132.3 4.4l-.6-.2-.5-1.6-2.4-.7.5-.8 3.1.1.6.7.2 1.4zm-2.1 6.3l1.4 4.3-.2.7-1.1-1c-.3-.9-1.2-3.5-.9-4.4zm1.1 1.7l.3-.8c1.1.4 2.4 1.4 3 2.4l.4-.5-.2-1.1.9-1.7.8-.1c.3 1.4.7 3.7.3 5.2-.8-.5-2.5-.4-3.3-.1l-.9-.9-.3-1.4zm-2.4-.2l-.6.1-.4 1c0 .4.2 1.8.5 2.1h1.7l-1.6 1.9-1.6-2.1-.3-2.9 1.2-2 .7.5zm-4.4 2.4c0 .7.2 2.1.7 2.6l.7-1.5.5 1 1 .6c-.8 1.5-1.6 3.4-3.8 3l-.9-.4-.6-1 1.6-2.1.2-1.6zm15.4 7.6l-1.1.1-.9-1.2v-.8l1.1-.1 1.7-2.8 1.9-.3.1 1-1.2 2.1c.3.5.6 1.7.3 2.3l-.7.5-.6-.1zM-290-464.3l-.7-1.1-1.3-.5c-.6-1-1.2-2.8-1-4l-2.8.3-.8-.4.3-.6 2.5-.4 2.5 2-.2 1.8.5.8 1.1.2 1.3 2.1-.1.6zm16 4.3l-1-2.2.8-.7.8 1.5zm8.1 2.8l-2-2.7-.1-1.5.8-.5.2-1.3c.7.5 1.7 1.8 1.8 2.7l-.5 1.3.8 1.4zm-2.5.3l-1.8-1.3-1.7-.1-.4-.5.6-1.4 1.2-.4-.1-1.3.7-.1.4.4c-.1 1.3.6 3.6 1.7 4.4zm2.6 3.8l-3-1.4.3-.5.9-.3c.2.5 1.2 1 1.7 1.1l.3.5zm32.2 1.2l-.9-.6-.9.5-1.9-.1-.4-1.1.4-1.5.7-.7 1-.2.8.3.6 1.2c.5.2 1.4.8 1.5 1.4l-.2.5zm-10.3 6.6l-.3-1 1.1-2.3 2-.1.3.8-.4.5-1.2-.4zm-19.2 4.4l.2-4.1.5-.3 1.6.1 1.8-1.1c.5.8-.2 5.3-.7 6.3h-.8c-.5-.4-.4-2.5-.3-3l-.4-.1-.5 1.1.2 2.4h-.5c-.4-.5-.8-.9-1.1-1.3zm7.5.6c.2.2.4.5.6.8l-.5 1.9c-.4-.7-2-1.1-2.8-1l-.8-1.4c2.3-2.9-1.7-4.2 3.9-7.3l1.2.1.8.5c-.7.1-1.7 1.1-2.1 1.6l.3 1.1c.6.2 1.6.7 1.9 1.3zm-113.3 183.9l.5.4c.4.6.2 2.7.1 3.3.2.3 1.8 3.2 1.8 3.3.4 1.3.3 3.4.4 4.7h-.6l-.4-.4c.2-.6.2-1.7-.2-2.2h-1.4l.6.8-.3.4-1.3.2-.5.7 1.2.7-.2.7-2.3-.9-.2-1-.8-.8 1.5-1.7-.5-.9c1.1-1.3 1.6-4.2 1.5-5.8l-2.8 3.7-.1 1.4c-3.3.2-5 4.9-5.8 7.5l-.7.4-.3-.6c.8-2.9 2.9-5.5 4.5-8 .1-.2.9-.8 1.1-1 1.1-1.5 2.9-5.1 5.2-4.9zm-11.6 21.1l-.2-.4c.2-.7 1.2-4.9 1.8-5.1l1 .1 1 1.1.5-.4c1.5 1.8 3.3 1 4.9 1.6 1.4.6 3.1 1.9 4.5 2.7-.3.6-1.4 1.2-2 1.4-1.1.3-4.5-1.8-5.4-2.4-2.5.5-3.8.4-6.1 1.4zm-.7 25.5l.9-.3 1.7 1.1-.1 2-1.3-2.1-.8-.2zm3.2 3.8c1.6 2.1 3.1 4.2 4.6 6.2l-.2.3-1.8-.5-.3-.4.3-.7c-1.1-1.6-2.2-3.2-3.1-5zm5.5 7c1.5.9 2.9 3.4 3.2 5.1l-.5.4-.5-.2.2-1-2.3-3zM-200.1 7.9l-.8 3 .8.6-.2-1.8 1-.2.3.8c-.4.9-.5 2.6-.1 3.5l-.7.2-.6-.3-1.8-3.9.4-.9c.6-.1 1.5-.5 1.7-1zm-415 159.7c-.9.7-3.1 1.8-4.2 1.3l.8-.8c.9-.5 2.3-.6 3.4-.5zM-640 177l-.2.5-.9-.2c-.7.5-2.4 1.5-3.3 1.4l.3-.6 2.4-1.5c.4-.1 1.3 0 1.7.4zm-10 9.4l-.7-.2c.9-1.9 2.4-4 4-5.4l.3.3c-.3.8-3 4.3-3.6 5.3zm19.5 51.6l-1.1-.6-.7-1.7.5-1.2c.9-.1 2.6 1.1 3.2 1.7l.3.8-.3.7zm189.9 37l.2.9-.4.4c-1.2-1.3-2.4-2.7-3.6-3.9-.9-.8-2.1-1.5-3-2.3-1.9-1.6-3.7-3.6-5-5.7v-.5l.7-.2.5.5c-.2 2.7 6.1 6.4 7.8 7.8.9.9 1.9 2.1 2.8 3zm9.2 10.2v.8l-.7.1c-.3-.1-2.9-1.6-3-1.6-.7-.8-3.2-4.9-3.4-6.2l1 .2c0 1.2 2.1 4.1 2.9 4.8-.1.1 2.8 1.7 3.2 1.9zM16.8-518.4l-.5 1.4-.6.4c-.9 0-2 .1-2.8 0-.3-.1-1-.6-1.3-.7-.9-.3-1.9-.4-2.8-.5.2-.9.8-4.1 1.8-4.5l1.5.1.1-.5-.6-.6-1.6.3-1.1 1.2-.5-.6.2-1.4-.7-1.6.3-.3c2.8 1 6.2 2.6 8.6 4.5.7.6 1.2 1.6 1.9 2.1.2.1 1.3.5 1.6.6 1 .6 1.8 1.6 2.8 2.3.4.3 1 .4 1.4.7 1.8 1.5 3.3 3.4 5.2 4.8 4.8 3.7 9.5 7.3 13.9 11.5l.2.9 8.2 7.2-.4.8c.3 1.2 1.4 2.3 2.2 3.1 4 4.1 3.3 2.8 7.8 5.9.7.5 1.3 1.3 2 1.7 2.3 1.4 4.7 2.7 7.1 4 .6.3 1.1.7 1.4 1.4l-.3 1.6.7 1.2c1.2.7 2.4 1.7 3.4 2.2 1.7.7 3.9.3 5.1-1.1l.2.8c-1 .4-2.3 2.8-2.7 3.7l-1.5-.5-.2-.7.6-.6-.5-.3-1 .2-.5 1.2-1.2.4-.4 1.2c-2.3-2.4-2.2-3-3.7-6.4l-.3-.2-.7.7c1.7 1.7 1.9 4.9 3.1 6.5.8 1.1 2.2 2.3 3.2 3.3.3.3.8.5.9 1-.3 0-2.1-1-2.5-1.3l-.7.1.3.8c1.7.7 2.9 1.6 4.3 2.8l2.1.1.3 1c1.7.8 5.3 2.3 6.4 4l1.3.1 1.5 1.3h.7l1.2.7 1.2-.1c.9.9 3.6 1 4.7.9.9-1.1 3.4-.9 4.9-2.2l.9 1.1-.5 1.1c1-.1 2.4 1.7 3.2 2.2.8.6 2 1 2.9 1.5 0 0 .8 1.1.8 1.2l1.1.3.4-.3 2.5-.2.6.4-.1 1.1c1.9 2 5 4.1 7.5 5.2l3 .8c.6.2.9.4 1.5.4l2-.5 1-.2.4-.6c-.5-.3-2.1 0-2.5.3l-.7-.6.7-1.5c2.4.7 4.3 1 6.9 1-.5.6-2.6 2.4-3.4 2.2-.7 1-1.4 2.5-1.6 3.7l.6 2-.4 1c.2 1.9 1.8 4.5 3.7 5l-.9 1.6-1.2-.2-.6 2.4-1.8 1.5-.3 2.4-.6 4.8c0 .9.3 1.3.4 2.2 1.1 5.4 1.6 7.1 5.1 11.5l.3-.4-.4-.9.2-.8 1 .5c.8 1.8 1 2.4 2.3 3.7l1.2.2 1.7-.7.9-1.2.9-.2.8.5v4.7l-1.7 1.6c-.5-.4-1.5-.5-2-.3l-.6-1.2-.9.1-.7-.9c-2.1-.1-3.8 3.7-3.7 5.4l.7 1.8 1.5.4.8 2.1c.4.3 1.9 1.5 2.5 1.3l.5-.4-.2-.4-1-.3v-.7c1.1.3 3.3-.5 4-1.4l.5.6.8.1c-.5 2.4-1.8 7.2-3.6 9.2l-1.1.3v-1.5c-.5-.1-1.7-.2-2.1 0-1 2.3-1.4 3.3-3.7 4.9l-.9.1-.4.9-.7.3-1-1.8-3-1.8 1.2-.5c.7.2 1.9 0 2.5-.2l.4.6 2.2-1.1-1.8-1.6.8-.5.5-.9-.8-1.6c-.1 0-.8-.1-.8-.1-1.3.6-3.1 1.6-4.5 1.9l-1.9-.1c-1.4 0-2.2.6-3.4 1.3l.5.6 1.1.2.2.4-.3.2h-.3c-.2 0-2.2-.2-2.3-.2-4.2.6-5.5 4.1-8.1 7-1.5 1.6-3.3 3.1-5 4.7l-.3 2.9-1.1.6-3 5.7.5 1.8-1 .4c-.6 2.1.1 5.9.6 7.9l1 .9-.2 2.3-1.5.3c-2 2 0 8.8.6 11-.7 1.9-1.2 3.8-2 5.6-2.2 5.5-3.8 7-2.2 12.7l.9.9c-.7 1.1-.1 2.5.2 3.6 0 .7-.2 1.6-.2 2.2 0 .6.4 1.3.4 1.9 0 1-.4 1.7-.2 2.8.7 3.1 2.4 9.2 2 12.4-.2 2-1.9 11.2-.8 12.6-.1 2.2-4.6 5.4-6.7 5.4-.1-.1-1.2-.7-1.2-.8-1.4-2.2-3-4.4-4.3-6.7-.7-1.2-.9-2.7-1.6-3.8-1.4-2.2-3.9-3.1-5-5-.7 0-1.8-.5-2.4-1l-.7.1-.2-.5 1-1.5-.7-1.5.7-.8 1 1.5.4-.2.8-1.6-1.5-2.4-.5 1.4-.7-.2c.3-2.2.5-5.7-1-7.6-1-.2-2.2-1.8-2.7-2.7l-1.5-.3-.6.3.1.4 2 .4v1l-3.3.2-2.1-1.2c-1.1 0-2.5.2-3.6 0-1.4-.2-2.9-1.3-4.4-1l-1 .7-.3.8c-1.3-1.5-6.8-3.1-8.8-2.9l-1-1.3c-.3-1 .3-2.7.5-3.6 0-.1-.2-2-.2-2.2l1.2-1c.8.6 1.2 2.4 1.5 3.4l-.8.9.4.4c2.4-.9 7.5-2 8.4-4.7l-.4-.5-1.4-.5.1-.7 3.8-1.5-.6-.4-1.7.7-.5-.6 5.1-2.1c1.4-1.1 1.5-3.7 1.8-5.4l.6-.3.6.7.1 2.4 1.4-1.8.9.3c1.1-1.1 2.8-2.4 4.5-1.7l.7-1.7-1.4-.1.2-.7c1.2-1 5.6-3.7 6.9-3.2l1.2-1.9v-.8l-.3-.2-1 .7-1-.8.2-.4.5-.3c1.1.3 2.9-.1 3.8-.9l1.5-2.5c2 .5 4-.7 5.7-1.4.1 0 .5-.5.6-.5l-1.1-1.3 1.4-.6.6.7 1.1.1.8-.9-.2-.7.5-.6-1.6-1.3-1.4 1c-1.2-.6-3.6-1-4.9-.4-.4-.5-.3-1.9-.1-2.5.6-.9 1.9-1.9 2.9-2.3-.8-1.3-1.3-3.9-.8-5.4l-.5-.9c-.9.2-2.4-.6-3.1-1.2l-2.3 2.2.2.5 3.8.9-.2.7-5.1-1.2-1.6-2.7.6-.7 2-.2 1.3-1.2.6.3 1-.4 3.1-4.9 1.7-.5.3-1.4.5-.8-.2-1.2h1.4c.7-.4 1.4-1.5 1.7-2.2l-.7-2.7-.8 1.8-.7.5-.7-.4-.5-1.2.4-1.1 2-1.3-1.4-1.9-.9 1.8-.7-.7.3-1.7.9-.8-.1-.7c-.8-.6-1.8-2.2-1.6-3.2.2-.3 1.3-.9 1.6-1.1l.4.8.6-.1.6-1.4-.3-1.2h-1.2c-1.5 1.3-3.3 3.1-2.3 5.3l-.5.4-.9-2.3.2-.9.9-.5-.6-.5c-.8-.2-2.8.7-3.5 1.1-.7 0-1.7-.6-2.1-1.2l.7-.7c3.4.2 5.7-1.3 7.8-3.8l.7-3.5 2.5.4-.7-.9c-1.1-.1-2.3-.2-3.4-.1l-.5.4 1 1.2-.7.6-1.3-1.7c.4-.8 1.5-2.9 2.3-3.3l.2-3-.4-.8.1-1.8 1.1-1.4-2.9-.9v-1l-.8-.4-1.5.9-1.1-.6-.2-.5 1.2-2.1 3 1 .3.9.9.2.9-.5-1.5-1.1-.2-.7c.5-.1 1.2 0 1.7.1l.1-.7.5-.5-.6-1c.8.2 1.6.5 2.4.9l1.7-.5.9-1.2-.8-.7-2.2 1v-.7l1.3-1.3-.3-.4h-2.2l-.7.6H92l-.4-1.3-1.8-.4-.5-.6.5-.5c1-.3 3.4.5 4.3.9 1.5 0 3.1-2.7 3.3-4l-.4-1.5c1.8-.7 1.3-7.3 4.2-9.1h1.4l-.6-1.2c.7-.9 3.3-3.6 4.2-3.6l1.1.8 1.5-.1.2.7-.4.7-1.3.1c-.5.3-1.1 1.1-1.3 1.7l.6 1.1c1.9-1.8 1.1-1.4 3.3-2.4.6-.5.8-1.9.7-2.6l1.1-1.1.4-4.7c-.9-1.8-2-3.9-3.4-5.4l-.6.3.2 1.1-.4.8c-2 .1-5.2.1-7.1-.7l-.9-.9v-.8c.5-1 1.1-1.7 1.9-2.5l-.1-.5-1.6.5-.4 1c-1.7.7-2.9-1.3-4.5-1.3l-1.3 1-2.9.1-1.6-2.3-2.4-.9-.8-1.3-1.5.7.8 1.6 1-.4c.6.1 1.5.7 1.9 1.2l.2 1.3-.4.4-.9-.1-1.1-1.1c-.1.2-.6 1.1-.7.9l-.8-1.5c-1.1.6-3.6 1.7-4.4 2.9l-1.2.3-1-1.1.5-1.8-.7-.7-1.1 1.2-.9.3c-.6.1-2-1.3-2.4-1.7l-1-.1.5-2.2c-1.2-.5-3.5-.2-4.7.4-.4-.5-1.7-1.6-2.5-1.5l-1.1-2-.7-.2-1.2.5c-.5-.7-1-1.5-1.4-2.3.2-.9.6-3.1.1-3.9 1.2-1 3.4-3.8 3.2-5.6l.3-.1-1.6-2.4-2.9 1.4-.5-1c.2-.6.9-1.4 1.5-1.6l4.4.7.1-2.1-.6-.8-2.6-.6-.2.5 1.2 1-.6.9-1.1-.7c-.6-1.5-.7-2.9-.9-4.5-1.3-.5-2-2.5-2.6-3.6l-.8 1.1c-.8 0-2.2.5-2.7 1.2l.1 2-.4.8c-2.2.6-4 .6-5.5 2.4l-.6-.8.4-.6-.6-.3c-1.4.9-2.9 1.1-4.2.1-.3-1.1-1.3-2.6-2.3-3.1l-.1-1.8-2.1-2.1-1.2.1c-.7-.5-1-3.2-1.2-4.1 0-.1.4-1.4.4-1.6 0-.4-.3-1.7-.3-2 .1-.6.7-1.7.8-2.2.2-1.7-.2-7.7-1.4-9.1l-3.7-4.2.4-1c-2-3.4-1.9-1.9-3.7-3.8-.8-.9-1.7-3.1-3.4-2.8l-.2-1.1c-2.1-1.4-3.3-3.7-5.1-5.4-1.1-1-2.4-2-3.6-2.9.1-.3-.7-.7-.8-.7zm41.1 15.8c-.5-.6-1.8-1-2.6-.9l-.6-2.2-2.2-1.4.3-.7c.7-.2 5.6 3.8 7.6 4.4l-.4.5-1.1-.2zm-123 2.6c-.2-2.1-2.3-4.6-2.1-5.5l.7-.3 3.1 5.2-.3.5zm-3.3-1.1l-.7.8-2.8-.2-1-1.6.1-1 1.7-1.7.5.1c.1.8.7 2.8 1.4 3.4zm93-2.6l1.9 1.8.3 1-.6.3-1.4-.5-.4-1.5zm-99.4 4.3l-1.1-.9-.7-2.1 2.4.5.5.9-.4 1.2zm132.9-.5l-.6-.6.7-1 1.3-.6c.6 0 1.7.4 2.1.9-.9.5-2.6 1.4-3.5 1.3zm-135 36.7c-2.4 1.4-6.7-.1-9.3-.1-1.9 0-4.1.4-6 .7-.1 0-.3.1-.4.2-3.8 1.7-2.2 1.4-6.7 1-.7-.1-1.1-.2-1.8-.2-3 .3-6.1 1.4-9.1 1.7-.9.1-2.9-.7-4.5-.5l-.2.5c-.7.1-1.4.2-2 .4-3.1.7-6.1 1.5-9.2 2.1-2.2.4-4.5.6-6.7 1-8.7 1.8-6.5 2.7-15.2 1.1-2.4.2-2.6.6-4.6 1.1-1.4.3-2.8.5-4.2.8-3.3.7-6.7 1.6-10.1 2.1-2.1.3-4.4.3-6.5.5-1.6.2-2.8.9-4.3 1.2-1.7.4-3.7.3-5.4.9-1.2.4-2.2 1.4-3.4 1.7-1.3.4-2.8.4-4.1.8-2.2.7-4.7 2-6.3 3.8-3 .2-8.1 1.8-10.9 2.8-2.1.8-4 2.2-6.1 2.9-.7.2-1.9.2-2.5.5-2.7 1.3-5.4 3-8.1 4.4-.1 0-1.5 1.4-1.6 1.6h-2.4l-3.8 3.2c-1.8 1.5-3.8.9-5.5 1.2-.8.2-1.6.8-2.4 1.1-1.9.6-5.1.5-7 .3l-2.2-.9-1.9.2c-2.8-2.6-5-2.2-6.6-3.1-.1-.1-3.1-2.9-3.4-3.2-.9-.8-2.2-1.2-3.3-1.7l-.9-1.7c-2.3-1.2-4.8-2.3-6.9-3.7-1.5-1-3.5-3.5-5.4-3.7-2-3.1-4.7-5.6-7.2-8.1-1.6-1.6-2.1-3.7-4.1-5.6-1.1-1-2.6-2.1-3.8-2.9-.4-.3-1.1-.4-1.5-.7-2.1-1.5-2.2-2.8-5.3-2.9-1.6-3.8-6.1-6.9-9.1-9.5l-1.6-.2-.3-.5.6-.5.5-1.9.3-.3.9.1c1 1.5 2.6 1.2 4.1 1.9 1.4.6 2.3 3.2 3.2 4.3.1.1 1.7 1.5 1.9 1.6 2.2 1.6 5.9 2.3 8.8 4h.6l.6 1.7-1.3 1.8 1.2 1.4 1 .2.6-.4c-.2-.7-.8-3.4-.4-4.1l.5.1 1.5 2.5-.2-2.7.8-.4c.5.7.7 1.9.7 2.8l1.1.6.6-1.3-.2-2.5.5.1.5 2 .9.6-.7 1.9c.6 1.9 1.7 4.1 3.1 5.6l1.1.3 1.2-.9c1.1.4 1.7 2.3 1.8 3.2h1l.2-.3c-.4-.4-.5-1.4-.3-2l2.5.1.3.4c.9.5 2.7.7 3.6.2.3.4 1.5.6 2 .5v.8l-1.6 1.6-.7-.1.1-1.3-.9-.3c-.5.1-1.1.3-1.6.6l-.2.5 2 1.8c.2.5 0 1.3-.4 1.7l-1-.3c-.2.8-.5 3.3.2 4.1.6.3 1.6.4 2.3.2l.4-.4-.3-1.1 1.2.1.9-1.1c-.3-.5-1.3-.7-1.8-.8l-.1-.8 4.4-.8.8-.7.8.9-.3.6-1.9.4-.5.6c.2 1.3.1 2.8.1 4.1-.8-.2-2.7-.5-3.5 0l-.1 1 .5.7c.7-.4 2.3-.7 3.1-.3l.8 1.6c.8.4 2.7.3 3.5.2l.5.7 2.3.3 1 .9c.4 1.1.6 2.6-.6 3.3-.8-.1-2.5-.1-3.1.5l.2.4 2.5 1.2 2-1.9.8-2.8c-.4-2-1.2-1.7-.5-5.1l2.8-1.8.8.1.9 1 .7-.1-.5-1.7.3-.7 1.2-.2 1.3 1.5.9.2-.9-2.1.6-.4 1.7 1.5c.5-.2 1.5-.7 1.6-1.3.1 0 .7-.2.8-.3.7-.6 1.9-1.5 2.5-2.2.5-.7.7-1.9 1.2-2.7 1.2-1.8 4.5-1.7 5.7.1l2.4-2.6h1l-.8-1.6c3.6-2.7 6.2-9.9 8.9-11.4l.1-1.4-1.5-1.8.8-.7 2.4.3.8-1 2.3-.4.5-.6-1.2-.5-.5.7-1.2.2-.5.5-.6-1c.1-.8 1.7-2 2.3-2.3l-.3-.6-1.5.8-.3-.8.8-.8 2.3-.3 2.1-1.6-2.9.4.1-1.2c-2-.5-3.4 1.4-4.2 2.9l-.4.1c-.5-.6.7-6 1.6-6.6l-.3-.5c-1 1.8-4.8 4.2-6.6 5.1l-.6-.2v-1l-1.3-.3-.3-.7.2-.5.8.1.5.4c1.1-.3 2.8-1.3 3.4-2.3l1.4-.3-.2-.6-3.3-.1-.5-.6.4-.5 5.2.7.7-.5 1.2.1-.2-.8-3.2-1.4.6-.9 1.4-.1c.3-.5.4-1.5.2-2.1l.6-.8-.6-.8 1-1.1-1.4-.7-.2-.5c.8-1 3.2-3.6 4.7-3.6.6-2 .4-2.7-.7-4.7l.4-.8c.8.3 1.6 2.3 1.8 3.1l1 .4 1.3 2-1.2 1.5.5.3 2.8-2.4c-.6.7-1.1 2.3-.9 3.3l-.3.5.9 1.3.1 1.9.5.6 1.4.3-1.2 3 .7.3 1.1-.7v3.4h1.9l.5.3-.1.4-1.7.9 1.3 1.1c.9.1 1.9.1 2.8.1l1.4-.8-1.8-.6-.2-.4.3-.5 2.8-.5.5.9 1.5-1.1 1.8.6 3.7-1.7.6.2-.1.8.8.5c-.4 1.2-3.6 3-4.9 3.2l.2.6.9.7.8-.1c.6-1.4 2.8-2.7 4.2-2.9v.9c.2.8 1.6 1.6 2.3 1.9l1.4-.2 1 .6.9-.9.8.3.2 1.5 1.2.4 1.2 1.6c.7-.8 2-2.7 1.9-3.9l.9-.8.3 2.5 1 .9.2 1.1 3.3 1.7.6-.2.1-1.9.6-.3c2.4 4.1 3.4 2.3 5.1 4.5l1.6-.4 2.3.9 1.3-1.1c1.6.3 3.7-.6 5.1-1.3l.8 1.9.7-1.8h.5l.2.5-.6 1.1.3 1.5.9-.1-.2-1c.5-.5 1-1.6.9-2.3h1.6l.7 1.4c1.4-.4 1.7-1.9 2.6-2.8.4-.4 1.3-.7 1.7-1.1.7-.7.7-1.7 1.7-2.2l2-.3.3-.5-.4-1 .5-1.3.6-.1c.2 1 .8 3.1 1.6 3.9l1.6-.1 1.2 1.4.5-.1c.8.7 2.2 1.5 3.3 1.7l1-.8c.5.4 1.5.7 2.1.6.3-.6 1.4-1.9 2.2-1.9l.5.2-.7.6.2.7h.8c1.1-.5 1.6-2.1 2.6-2.3l.3.6.8-.3.1-1.1.3-.2.5.3.3 1.4 2.7-.6.2-.5-.7-1.4.6-1.2.5-.2.7.3c0 1 .6 2.5 1.2 3.3.2.1 2.9.9 2.9.9 2 1.3 3.3 3.7 3.7 6 0-.8.3-1.7.6-2.4 1.8-3.7 2.6-1.8 4-3.4l-.3-.8.6-1.3-.2-.9.4-.5 3.5 1.1.9-.7.5.2c2.3-1.5 6.3-3.2 8.9-2.1l1.1 1c1.1.1 2.8-.6 3.7-1.2.9.4 2.2 1.2 3.1 1.5 1.1.3 2.8-.2 3.8.7.7-.3 2.1.2 2.6.6v-2l1.7-.5.3-1.8c1.3.2 1.5 1.9 2.8 2.2l.5-1.6-.2-.7-.9-.4-.1-.5 2.2-1.2.5 2.5 3.8-3.1 1 .3.7-.2 1.1-1.4.6 1.5.9-.8.9.2.3.7-.8.3-.7 1.3.7.9.1.7-.9 2.2c.6 2.4-.5 4.2 1.2 6.4-.1.3-.3.7-.4 1 .7 1.2 1.3 2.3 2 3.5l3.5 1.4.6.9 1 .3.2.6c-1.4 2.7-3.2 4.6-5.2 6.8-3.7 1.3-3.9.9-7.3-.2l-.4-1.3c-2.2 0-3.1.1-5.3-.8l-1.6.4-2.1-.9 1.4-.4zm106.7-32.9l-1.3-.6-.5-1.2-1.3.7-1.9-1.7.7-.8 1.1-.1.7.9.6-.8c1 .5 3 1.9 3.5 3zm34.6.8l-1.4-1.8.4-.6c2.6 3 3.7 6.8 5.1 10.5l-.5.5-1.9-.1-1-.9.9-1c-1.1-2.3-1.8-2.6-3.5-4.2l.2-.8c.8.7 1.7 1.5 2.6 2.1l.6-.2-2.5-2.4.8-.5zm-130.1 6.4c-.4-.1-1.9-.5-2.1-1l.1-.7.8-.8 2 .2.3.5-.1.4h-1.7zm-81 10.7l-.8-.2-.8-1.3-.6-.2-1.4-1.6-.4 1.4-.5-.3c-.9-1.5-2.2-3.5-2.6-5.2l.5-.7 1.1-.2 1.5 1 2.3.1.3.7-.6 1.6 1.5-.4 1.8 1.4-.5 1.2 1.1.5-.2.7zM75-482.9l-.9-.3c-.3-.6-1.1-1.3-1.7-1.4l-.4-.8.3-.7h.6l2.2 2.8zm9.6 4.8l.3-.4c.6-.3 4.5 2.3 5.2 2.9l-.1.5c-2.5-.9-3.4-1.1-5.4-3zm25.3 8.6l-1 .3-.7-.3-1.3.3-.5-2.7c-.4-.6-2.8-1-3.5-1.1l-.5-.6.1-.7 3.3-1.6 1.3 3.7 1.8 1.4 1.4.1c.3.8 1.3.6 1.8 1 .9.6 1.7 1.8 2.7 2.3 1.5.8 3.3 1.4 4.9 2.1l1-.1c.1.8.8 2 1.5 2.5l-1 .2c-1.4-.6-2.3-.9-3.4-1.8l-.9.1-.7-.8-1.1.4-.6-.3.7-.7-.2-.5c-2.1-.9-3.5-1.9-5.1-3.2zm-270.9-2.7l-1-.5.9-.9.2-.8 1.3.9-.8.4-.2.7zm205.1 3.6l-.4 1.6.4 1.2-.4 1.8c-.2-.9-1.2-4.2-.9-5 .4-.3.8-.6 1.1-1l.9-.1.3.8zm-99.3 5.8l.1-3.2.6-.3c.2 1.2 1.1 2.9 2 3.6v.5l-1.4-.1.1.7c-1.4 1.4-2.6 2.7-3.6 4.4-1.4 0-3.8 1.3-4.9 2.1l-1.6-.2-.5.6-1.4-.2c-1.2-1.1-2.5-2.2-3.7-3.4l.2-.5 4 2.1c5 .2 6.3-2.4 9-6zm115.9-1.3l2.2.1.2.5-.6 1.2-2.2 1-.7 1.4H59l-.6-1.4.2-.8zm-20 5.5l-1.2-1.8v-.8l1-1.2 2.3-.7c0 .7-1.1 1.3-1.4 1.9-.3.8-.5 1.9-.7 2.6zm82-3.9c1.6 0 3.5 2.6 4.6 3.8l-.9.1-3-2zm-69.9 4.3l-1.2-.3.3-3.2.5.1 1 2zm-103.3-2.4l.7.8-.5 1.9-2.1.1-.9-.4c1.3-.5 2-1.5 2.8-2.4zm-12.2 8.3l-.7-.8-.1-.8c1.2-.7 4.4.3 6.5-.9l.4-.5c.9-.2 4.1-1 4.6-1.7l1.6-.1 1.1 1.4c-.9.8-3.9 3-5.1 3.2-.6.1-1.4-.1-2.1 0-1 .2-1.6.7-2.6.6zm107.5-3.3l.2-.8c1.2.2 2.7 1.7 3.2 2.7l-.4.6-1-.3c-.1-.8-1.2-1.8-2-2.2zm-.8 0l.9 3.1-.5.9.3.6 2.4 1.6c-.4.4-1.4.5-1.9.5-.7-1.4-2.5-2-3.5-3.4l.6-1.6-1-1.4.1-.6.7-.2.9 1zm13.6 5l-1.7-1.7-.4-1.7.8-.2 1.2 1.1.4 1.8zm78.3-2.8l.7-.5c1.1 1.4 2.1 3 3.3 4.3.6.6 1.7.7 2.1 1.6l-.7.6c-2.6-.2-4.3-3.9-5.4-6zM-48-453l.7-.6.6.3.3.9-1.3 2.2-2.4.3-.1.7.9.3.2.5-.5 1.2-.5.1-1 1c1.1 1.7-3 5.2-2.6 6.3l-1 .1c-2.3-4.1-4.9-5.3-5.9-10.2l-.3-.2.2-.5c4.3.3 8.3-.8 12.1-2.9zm105.1 4.4l1.8-.9 1-1.8 1-.5.4 1.3-2.7 3.4-.1.6-1-.6v-.9zm8.8 4.4c-.1-1.1-.6-2.4-1.2-3.2l-1.4-.2-.2-1.5-.6-.3-1 .3-.4-.7 2.2-.8.6.7.9.2c.2 1.3 1.8 3.2 2.8 4l-.8 1.6zm-16.7-5.4l.3 1.8-.4.5-1.1.3v-2.3zm11.6 1.7l.3-.3c.4 0 1.1 1.1 1.3 1.4l-.4 1.6-.5.4-1-.8zm-109.1 10.5l-.8.6-.9-.1-1.6.9 1.2.4.6 1-.4.7-.6.1c-1.3-1-2.7-2.6-3.4-4.1l.8-.5-.1-.8.6-.2 2.2-4 .3 2.9.7.8c.4-.1.8-1.2.9-1.5l-.9-1.5c-.2-1 .6-3.3 1-4.2l.6-.5.8.7.9-1.1c0 .2.4 1.4.4 1.5.1 1.9-1.7 7.2-2.3 8.9zm3.2-7.3l.5-.6 1-.1.7 1.2c-.3 1.7-1.7 3.4-3 4.3.3-1.6.6-3.2.8-4.8zm96.8 3.4l-2-.6-.3-.6.1-.9 2.3.9.2.5zm51.5 11l-.6.8-2.3.9-.7 1.2c-.8.3-2.6-.2-3.3-.4-.1.9-.2 2.9.3 3.8l-.3.5-1.4-.4-.4 1.5-.8.2-.4-1.9.2-.7 1-.5-.1-.7-1 .1-3.3-1.9.4-.8-.1-1.6.8-1.4 1.4.3c-.3 1-.1 2.7.3 3.7l1.4.3.3-1.5-.9-.9.1-1.5c-.2-.6-1-1.9-1.6-2.1-.2.6-1 1.4-1.7 1.6l-.9-.1-.4-.8.2-.8.9-.5 1.3.2 1.4-.9c.4.5 1.4.8 2 .7l.5-.4c.2-.8.2-1.9-.1-2.7l-.8.3v-2.7l-1.4.9-.8-.8.6-1.3-.1-.6 2.9.7.4-.9 1-.6.8.1.8 2.1-1 .7.3 1.2-1.3 2.5c.7.6 3.2.3 3.9.1l-1.5 1.2.2.5 1.3.6 1.6-.2.6-1.1h.9l.4.9-1.2 2.4zm41.3 19.4c-1.8-2.6-1.7-6.5-2-9.5l-.9-.6v-.5l1.7-.1c0-2.5 1.6-6.6 2.6-8.8l.8-.3c-.8-1.5.8-4 2-4.8l1.1-4.5.9.3.6 1.3c0 .2-.3 1.5-.4 1.6-1.6 3.5-5.1 10.3-6.2 13.6-.9 2.2-.5 10-.2 12.3zm-56.1-26.6l-.3-.9 1.4-1.5 1.2-.2.5.9c-.6.8-1.9 1.8-2.8 1.7zm-135.1-.3h.9l1.4 1.7v.9l-.5 1-1.6.6-1.1-2.3c.1-.7.6-1.5.9-1.9zm136.7.1l1.7-.1.6.8-.9 1.1-1-.6zm-7 5.1l-2 .4-.6.9-.6-.7-.2-.9c.3-1 1.5-2.2 2.4-2.6l-.1-1.1.6-.3.4.2c-.3 1.1.7 2.2.1 4.1zm4.4 1.3c-.7-.4-2.2-.2-2.9.2l-.4.5.1.6.7-.4 1.5.3-1.6 1.3c.4.4 1.1 1.3 1 1.9l-.3.5-.6-.3-1.1-2.2-.9-.3-.5.6c-.3.8.3 2.4.8 3l-1.2.4-.2.5.8 1.4-.2.7-.5.4h-.7l-.6 1.3-.8.4-1.2-.2-.5-.6.2-.5 1.6-1 .3-.9.6-.2-.2-.7c-.7-.2-2.3.3-2.6 1.1l-.7-.1-1.1-1.6-.9 1.7-.6.2.3-1.2-1-1.5-1.2.5c.2-1.2.4-2.3.7-3.5l1.3-.3.1 1.9.9.2.5-.8.1-1.4-.8-1 .3-.8 2-.3.6.2c.5.9-.2 3-.7 3.8.3.5 1.2 1.6 1.8 1.7l1.3-.3.6-3.9c1.5-1.2 3.5-4 3.6-6.1l.8.6v.8l.5.5c.5-.4 1.6-.9 2.3-.7-1.1.9-.4 2.5-1.3 3.6zM57.3-434h-2v-.9l.9-1 .7.1.7 1.2zm18.8 2.2l-.7-.1-.3-.4.8-.6.4-1.1 1.6-1.2.6.7-.5.6.2.9-1.9.8zm-12-.2l-1.1-.3-.9-1.5.5-.8h1l.4.3zm77.2 8.5l-.9-3.6c.5-.5 2.2-2.3 3-2.4l.2.3c-.9 1-1.4 4-1.5 5.3zm-72.8-.4l-.2.6h-.4c-.7-.5-1.8-1.6-2.1-2.5l.1-.5.6-.2zm22.7-2.4l.6 1.6-.7 1.5c.6 1.2-.3 2.5-1.2 3.2l-.3-.9.6-1.7-.2-.7-1.1-.5.3-.7.9-.2-.2-1.1.2-.4zm-4.2.8l.4-.1.2.6-.5 1.4 1.4 1.9-.6.9-1-.1-1.3-1.3zm-6.7 8.4l-1.6 1.1-.6-.2c-.5-.6-2.2-2.9-2-3.7l1-.3.8.8.1 1.2c1 .1 1.9.2 2.9.1l.5-.8 2 .5.2-.9-.6-.4-.1-.9-.6-.2-.5.7-.7.3c.1-1.4 1.3-2.9 2.5-3.5.3 1.9 3.3 2.6 3.8 4.4-.2 3.3-3.1 5.3-6 6.4l1 1.5-1.4-.1-.7.6c-.1 1 1.3 2.7 2 3.3l-.4.6-2.1-.2c-.2.2-2.7 1.8-2.7 1.9-.9 1-1.8 2.9-2.5 4.1l-.6-.1-.4-.9 2.7-3.2-.4-.7-.9 1.1h-.5l-.3-.8.3-.7c1.6-.2 3.7-2.5 4.4-3.8l.3-3.7 1.2-.3-.9-.6v-.5l.9-.2zm11.5 1.7l-.5.4h-.8c.1-.7 0-2.1-.3-2.8l-.6-.4.7-.6.8.2c.6.6.7 2.5.7 3.2zm-5.2 2.8c-.8-.2-2 0-2.7.4l-.5-.1-.3-.9 3.6-1.5.5.1zm42.2 2.2l-.7-3.6h.7l1.2 3-.5.6zm-46.8-.1l4.7-1.5.9.3.3.8-.2 1.1h.4c.3-.2.6-.8.7-1.2l.7-.1-.3 1.6 1.3.2.7 1.9-1.2.4-.7-1.2c-1.3.3-2.9 2.3-3.4 3.5l-.4-.8.7-.9-.2-.5-.8.2-.8 1.7-1.2-.7-.1-.8 2.7-2.3.1-1h-.7l-.3.6c-.7-.2-2-.3-2.7.1l-.5-.9zm49.3 1.2l1.3 2.4-2.2.9 1.2.3 2 2.8-.3.6-1.2.5v-1.6h-.9c-1.2-.8-2.5-4.2-1.7-5.5l.5-.2.7.8zm-49.9 7.7l-1.4-2.2.2-.5 1.8-.3.2.7zm-8.1 1.1l.5.3c-.1.5-1.6 1.1-2 1.2l.5 1.3c-.6.1-1.6-.1-2.1-.5l-.5-.9c1.3-.7 3-3.6 3.6-4.8l.7.1.2.4-.7.6c-.3.8-.3 1.6-.2 2.3zm10-2c0 .9 1.1 2.2 1.9 2.6l.5-.3.1-1.3.7.1c.9.9 2.4 2.9 2.5 4.2l1.3.2.4 2-3 6.2-.5-.1v-1.3l-.5-.7c2.2-2.7 1.1-4.4.7-7.8l-.4-.2c-.5 1.4-1.4 3.2-1.7 4.6 0 .2.3 1.9.3 2.2-.1 1.3-1 2-.5 3.6l.5.4 1 .1.7 1.1-2 .5-1-.8-.6-1.9 1.1-3.3-.3-.8-.8.1-.3-.9-1.3-.3-.2-1.9c-1-.8-1-1.8-1.3-2.9l-1.5-.3-.3-1.6.8-.4 1.5 1h.7l.3 1.4.8-.3.4-.9-.5-1.3zm60.9 10.4c.4-1.4.7-3.8.2-5.2l1.3-2.4c.6 2.2.1 5.7-1 7.6zm-67.8-1.7l-1.2-.7-1.6.1c-.4-.8 0-3.2.2-4l.5-.4.6.1.3.6-.2 2.4c.6.3 1.7.1 2.3-.2l.2.5c-.1.6-.6 1.4-1.1 1.6zm4.7 4.3l-1.4-.9c-.2-.6-.9-3.3-.4-3.9h1c.1 1.1.8 3.5 2 4.1l-.4.5zm-5-.3c2.2 1.6 1 4.9.6 7l-.4 1.9-1.7-1.3c.1-.8 1-2 1.7-2.5.2-.6.5-2.4 0-2.9l-.8-.6H75l-.2.7.8 1.2c-3 .2-5.3-1.3-7.3-3.3l-.2-.7c1.5-.5 4.2-.9 5.3-2.1l2-.1c.4.7.7 1.8.7 2.7zm-67.2 5.5l.3-1.1 1.2-.3-.1-.9.6-.3c.1.2.9 1.3.9 1.3l5.8 3.8c.5.3.6 1.3 2 1.8l.2 1-1.7 4.5c-1 .3-2.3 1.6-2.6 2.6l-.8.1-.7-.9c-.1.8 0 4.4-.7 4.9l-.6-.2c-1.7-3.2 2.1-7.8 0-10.4h-1.2zm113.7 11.8l-.6-1.2.5-.7 1.9.6.3.8-.4.6c-.5.3-1.3.1-1.7-.1zm-112.3 5.2l-.3-.6.4-1.5-.7-1.1.5-.3c.6.2 1.2 1 1.4 1.6-.2.7-.8 1.5-1.3 1.9zm-1.1 6.1l-.3-.5 2.5-2.4c.6 0 1.5.5 1.8 1-1 1-2.6 1.3-4 1.9zm6.4 1.4l-1.2-1.2 2.2-.8.5 1.1-.4.7zm5.1 34.9l-1-1.4-1.2-.6c-.4-1.2.2-3.2.9-4.2l1.1.9.6-.3-.8-1.4 1.2-.4.7 2.9 1.3 1.1-.5 1.4zM-67.1-265l-.3-.5 2.2-.9 3.3.6.4.5-.4.3c-1.8-.3-3.4-.4-5.2 0zm8 2.7l-.7-.7v-.7c.2-.1 1.3.5 1.5.7.1.9.1 2.1.4 3 .1.2 2.5 5.1 2.8 5.3.5.5 1.3 1 1.9 1.5.4.4 1 .6 1.6.8 0 2.7 1.2 4.4 3.2 6 .4.3 1 .8 1.6.8.4.6.6 1.4.9 2l1.6-1.4.6.1 1.7 9.2-.5.8-1.1-.7h-1.3l-1.4-.9-.9-2.5.2-.8-.5-.5-1.3-.3-.6-1.1-.7 1-.7-.1c-1-.9-2-2.4-2.5-3.7l1.7-.8c-.7-1.7-4.3-1.2-4.7-4.5l.5-1.2c.2.6.8 1.8 1.4 2l.5-.4c0-.1-.2-1.1-.2-1.2-.7-1.5-1.7-3-2.3-4.5-.5-1.2-.1-1.9-1.3-3.2l-.6.1c.2 1.7.8 3.5 1.4 5.1l-.3.7-1-1.3-.6 1.6-.8.2c-.2-1.3-.3-3-.7-4.3-.4-1.2-2.2-3.5-1.7-4.8l.6-.1 1.2 2.9.7.3c.3-1.6.5-2.8.4-4.4zm12.2 28.4l-.5 2.4-1.3-1.4-.1-.7 1-.4zm.1 7.5l-.9-.3-.4-1-1.6-1.2.4-.9 1.6-.6c.8 1.6 1.9 4.1 2.1 6l-1-.5zm21.8 9.9l-.7-.2c-.5-.5-1.2-1.7-1.1-2.5l-1.5-1.6-.3-4 .7-.2.9 4.2 1.1.8 1.2 3.4zm4 12.3l-1.7-1.4.8-.6c-.7-.6-.5-2.5-1.6-3.7l.5-.5c1 .4 2.3 4.9 2.6 5.9zM335.6-91.5l-1.1-1.3.1-1.2-.4-.2-2 .3-.3-.5 1.7-2.4c.1-1.7-2.2-2.6-3-3.7-.4-.6-.8-1.5-1.1-2.1-2.2-1.5-5.9-1.5-8.5-3-1.1-.6-1.6-1.8-3.1-2.2l-.3-1.6-4.1-4.3c-.6 0-2.3-.1-2.8-.7l-.3-2.6-.8-.7.1-.9c-1.1-.7-2.4-1.4-3.4-2.1-.2-.1-.6-1.1-.8-1.3-1.4-1.4-3.7-2.7-4.3-4.7-.8-.2-1.8-1-2.4-1.6-.5-.3-2 .1-2.5.3l-.2-1.1-1.2-.6 1-.9c.1-2.1-2.2-3.7-3.4-5.1-.1-.1-.7-1.2-.8-1.4l-3.9-7.3c-.4-.2-4.6-2-4.8-2.1-3.2-.6-8.5-.7-11.9-1-.9-1.2-2.4-1-3.6-1.4-.6-.2-1.1-.9-1.7-1.1-1.3-.6-4.5-2.4-6-1.8l-1.2 1.3-1 .1c-5.6-2.5-10.3-7.1-14.9-10.9-.5-.4-1.2-.7-1.7-1l-1.5.1c-.6-1.5-4.5-4-6.2-3.8l.6-1.8c-.2-.8-1.2-1.9-2-2.3l-.3-1.4c-.8-.6-1.8-1.6-2.6-2.1-1.2-.7-6.9.9-8.3 1-3.2.3-7.5-2.7-12-2.7h-2c-1.8.4-9.4 2.1-10.8 3.4-1.3 1.2-4.7 3.8-5 5.5-.9.6-1.6.6-2.5.5v-1.2c1.5-1.9 4.4-5.3 5.5-7.3 0-.1.6-3.3.6-3.6l.1-.8.9-.4c-.1.7-.2 1.9.1 2.6l.4-.3c.5-1.1.9-3.2.4-4.5l-.7 1.1-.6-.1c-.3-2.7 10.1-14.9 7.6-18.7l-2.5-1.7.3-1.9c2.4.3 3.8-1.3 6.5-.6.7.2 1.5.6 2.2.9.8.2 2-.1 2.7.2 2 .6 1.9 1.3 4.4 1.6l-.1.7h-3.7l-1.2 1c-.9-.4-2.2-.4-3.1-.2l-2.6 3.7.2.6.7-.1c.3-.7 1.1-2.1 1.9-2.3.4.7-.6 2.8-.9 3.4l1.2 2.6H207l-.3.6.8 1.1-.1.9 1.4.8v.4l-1.3.5 1.6 1.3 3 .1.5 1.1.3-.2v-2.3l-2.2-.5-.1-.4 1.3-.3.5-.6-.7-1.2.5-.9 1-.4.5-.6.7 1.1 1.1.1c.7 1 .6 2.4.7 3.6h.6c0 .2.5 2.8.5 2.9.4.7.7 1 1.2 1.6 1.1 1.5 2.2 4 4.4 4h2.7l.5-.5-.8-1.9.3-1.1c1.3 1.8 2.5 4.2 3 6.4 1.4 1.2 3.6 3.5 5.1 4.3.9.5 2.3.6 3.2 1.1.2.1 4.1 2.5 4.2 2.6 1.9 1.6 3.5 3.8 5.4 5.6 3.2 2.9 5.1 3.9 8.9 5.6.7.3 2.7 0 4.8 1.1 3.1 1.7 6.2 3.7 9.4 5.1 1.6.8 8.7 1.2 10.6.8.1 0 1.7-.8 2-.9.3-.7 1.3-2 2.1-2.1.2.1 1.2.6 1.2.7.3.3 3.5 3.6 3.5 3.7 1 1.7 2.1 5.2 2.9 7.2l.7.1c1.6 2.7 4.6 7.3 7 9.3.9.8 1.9 1.4 2.9 2.1.6.5 1.1 1.5 1.6 2.1.8.8 1.9 1.5 2.6 2.3.5.5.7 1.4 1.2 1.9 1.6 1.7 3.8 2 4.9 2.9 2.1 1.7 3.9 4.1 6 5.8.1.1 2 .5 2.3.6.6.3 1.1 1 1.7 1.3 1.3.7 2.7 1.1 4.1 1.3 1.1.8 2.2 2 3.3 2.6.8.5 2.1.5 2.9.9 4.2 1.9 4.6 4.2 6.5 8.3 0 .1.8.7.9.8l1.9.3-1 2.6-2.4.2-.9.9c.4 1.2 2.3 8 2.5 8.1l.5-.7c.3-1-1-3.5-1.4-4.3l.4-1.2.6.2c0 1.2.5 3.1 1.2 4.1-.6 2.9-1.2 8-.3 11l-.4.5c-.2-.9-1.1-2-1.7-2.6l.5-.7-.3-2.2.7-1.1v-1.1c-1.6 1.3-1.9 5.5-1.2 7.4l1 1.1c-1.3 1.3-2.6 4.8-3.3 6.5-.7 1.6-1.4 5.8-1.9 8l-.5.2-.9 2.2c-.5-.3-1.6-.1-2.1.2-.3.5-.7 1.8-.5 2.4.6.3 2.4 1.4 2.6 2.1l-.5.9-1.1-.2-.4-.9-1-.1-.2.3c.7 1.2-1.2 3.9.4 5.5l1.4.3c.4-.5.3-1.9.1-2.5l.6-1.1h.7l.3 1.2c1.1 3.7 2.2 7.6 2.4 11.5l-.2 3.2c-.1 1.2-.2 2.8-.6 3.9-.3.7-.9 1.3-1.1 1.9-.3.8.1 1.8-.6 2.8-1.3 1.7-2.5 2.8-3.7 4.8-.8 1.4-1.1 3.5-1.6 5.1l-1.9.6-.9 2.7c-.5.2-1.5 1-1.6 1.6l.1 1.3-1.3 2.2c1.2 1.3.6 3 1.8 4.8l-.9.4c.3 1.3.9 3.6 1.8 4.7l2.1.6-.2.7c.3 2 2.5 3.2 2.7 3.8l3.9 12.1s-.3 1.7-.3 1.8c-1.5-.1-3.5-.9-4.8-1.6l-1.2-1.8.2-.5h.6c.1-.8-1.1-2.1-1.6-2.8l-.8.3-.3-.9-.6-1.8C324 8 322.1 7 321 5.6c-.1-.2-.9-2.4-1.1-2.8-.5-1-1.4-1.8-2-2.8-.1-.1-.1-.9-.1-1.1l-2.3-5.5c-1.8-.6-2.4-1.9-3.8-3-.5-.4-1.4-.7-2.1-1v-.6l.7-.3 1.2 1 .7-.3-1.3-1.9c-1.6-1.1-6.2-3.6-8-4.4-.2-.1-2.8-.3-3.2-.4-1.1-.2-2.3-.7-3.4-1.1l-.5.4.3.5c2 1.2 4.2 1.3 6.5 1.5l.4.3-.3.3c-4.4-.3-4.1-.4-8.7-2.2l-.8-.7c-.6-1.3-1.4-2.7-2-4-.5-1.2-2.3-7.5-1.4-8.6l.5-.2c4.2 2.2 5.4 4.3 7.8 8 .9.5 3.8 1.7 4.9 1.1.7.7 1.5.5 2.2.9 1 .5 2 1.4 2.9 2.1 2-.1 3.9 0 5.8.1l1.5.1 3-1.1c.9-.5 1.9-1.7 2.7-2.5.3-.2.9-1.8 1.1-2.2l-.2-.7c-.6-.4-2.1-1.5-2.3-2.1l.2-.4 2.6-.1 1.7 2c1.3-2.1 3.5-3.3 5.4-4.7 2.8-2.1-.6-9.7-1.3-11.7-.5-.6-2-.7-2.8-.9-.8.1-2 .9-2.4 1.6-.2 1.6-.5 6.1.5 7.6l-.5.7c-1.2-.9-2.4-2.4-3.1-3.6-.9-1.5-2.7-4.5-2.1-6.4.4-1.2 1.2-2.4 1.6-3.7.5-1.6.8-4.2 1.1-5.7.8-4 .4-4.8 2.4-8.3l.6-1.1 2-.9 3.9-1.8c.2-.1 3.8-4 4.2-4.4l.3-.8c1.5-4 .8-7.4 1.1-11.6.1-1 .5-2.1.6-3.1.4-1.9.2-4.4-.1-6.6zM223.1-197.4c-1.5-2.5-3-3.9-5.9-4.5l.4-.5c2-.1 6.8 2.4 5.8 4.8zm-39-.8l-.1-1.2c.4-.1 1.2-.4 1.5-.4.4 0 4 .1 4.1.1 1.2-.2 2.9-2 4.2-1.6 1.2.9 3.2 1.5 4.7 1.8l-.1 1.5-.7.3c-.8-1.4-2.4-1.7-3.8-2.1l-.1 1.1c-1.4 0-2.9.2-4.3.1-1-.1-2-.5-3-.5 0 .1-2.2.8-2.4.9zm-8.8 4.7c1.6.3 3.8.1 5.4-.5 1-.4 1.1-1.1 3.1-1.3-1.3 3-3.4 1.8-5.6 3.3l-1.4-.1v-.5l-.9-.2-.8.5.2.7c-.7.2-1.6.7-2 1.3l-3.3.5c-.3 1.1-1.5 2.7-2.6 3.2h-.6c-.3-.7.1-1.9.5-2.4l.9-.1.6-1.4c3.1-.5 3.8-.7 6.5-3zm49.1 10.4l-2-6.9c.7-.9.8-2.9.4-3.9l.7-.2c1.5 3 .4 7.5 1.9 10.1l-.4.7zM-22-189l-1.1-3.1.2-1 2-.6-.2 1.3-.6.6zm-19-.1l1.7-.2 1.4.8-.8.4zm19 .1l.7 2.1c-.4 1.7-2.5 4.1-3.7 5.3l-.8.2-.4-1 .8-1.5c2.6-1.2 3.1-2.1 3.4-5.1zm-16.7 10.3l-.7-.5 2.4-1.5.2.6-.9 1.3zm7.9 4c-.3 1.8-.1 3.9.3 5.7l-.9.5 1.1 1.3-3.4.6-2.3 2.6-1.5.1-1.1.8h-.8l-.8 1.2-.9-.1c.5-.7 1.1-2.4.7-3.3l.3-.3.5.7.6-.3.3.6c1.2.2 2.2-.7 3.1-1.3l.4-1.3 2.5-1.1c.4-.8.9-3.3.4-4.2.1-.7.6-1.7 1.1-2.1zm-24.8 9.8l-.7-.6.8-1.4 3.2-.1 3.8-4.9.1-1.1.9-.2.2.4c-.4 3.4-4.1 4.9-4.7 8l-2.6-.7zm-1.2-.4l-2.3-.1-1.1-1.1-1.8-.3c-.7.5-2.5 1.5-3.4 1.4l-.7-.8.1-.7 1-.6 1 .1.6-.7c1.2-.4 4 .4 5.1.9.5.6.9 1.3 1.5 1.9zm243.7.3l.8-.5.8.8.3 1.2-1.6 2.3-1 .4c0 1.2-.1 1.5.6 2.6l-.4.6c-.7 0-2.9 1.2-3.2 1.6-1.3 1.7-6.5 7.8-6.8 9.8l-1.6 1.2-.7-.2c1.4-5.5 5.6-10.1 8.8-14.6.7-1 2-1.9 2.9-2.8.2-.1 1-2.2 1.1-2.4zm-231.1.1l1.4.4.5 1.4-2.9.5-.6.7c-.7.4-1.8.5-2.6.4.3-1.3 2.8-2.3 3.9-2.6zm213.4 19.3l-.6-.1c.9-3.2 4-5.2 4.6-8.5l.4-.2c.6 2.2-1.8 4.4-2.9 6-.5.9-1 1.9-1.5 2.8zm-284.3-2c1.4 1 1.4 2.9 2.5 4.2l.1 2.1c-1-2-1.9-4.2-2.6-6.3zm4.2 8.6c.6.4 1.8 1.7 1.8 2.5l-1 1.6-1.8.8-.3-.4c.4-.3 1.6-1.6 1.5-2.2l-.6-1.5zm-.9 8.6l-.7-.4-.6-1.1.1-1 1.6 1.4 1.5.1.3.5-.5.4zm-3.1 4.1l-1.1-.7.7-1.1 1.3-.2.4 1-.3.7zm55.1 95.4c-.3-.4-.8-1.3-.6-1.9l1.8-1.1.5.2c-.2 2.8 1.9 3.9 3.8 5.4 1.1 2.1 2.1 4.6 3.3 6.4 1.8 2.7 4.4 4 5.8 7.7h.8c.6.9 3.1 4.3 4.2 4.5 1 .2 3.2-.2 3.8.7l.4.9-.7 2.4 2.2-.7c2.1 1.9 3.9 5.1 4.9 7.7l-.6.8c.3.9.7 1.9.9 2.8.2.8-.2 2.2.5 2.8l-1.2.8.5 2.1 1 .9.3-1.4.4-.2c1.1 1.6-.4 3.5.5 5.1l-.8.5-1 3.1.2.6 1.3-.2-1.3 1.8-1.2-.3-.6.6-.4-.1c-.6 1-.3 3.3.1 4.3l1.5 1.2c-.6 2 .1 5.5 1 7.3-.3.8-.8 2.7-.4 3.5l1.4 1.6.1 2.1.9.6 1 2.9.6-.4-.1-.6.7-1.6.4-.2c.2 1.1 1.2 2.6 2.1 3.2l1.2 6.8-1.2.5-.5.6.5 1-1.6 4-1.6-.1-.6-1c-1.6 0-2.2 2.3-2.8 3.3-.1.3-.6.6-.8.9l-3.1.4-.2.8c-1.7.8-5 .7-6.8.3l-.5.8-1.6-.1-.2.4.8.7c-1 .3-2.2 2-2.6 2.9l-.9.4-.7-.5v1.4l-1.1.8-.9-1-.7.2.5 1.2-2.7-.4.6-1.2-2 .1.2 1.6-2.1-1.5-.4-1.5-1.9.7.6 1.1-.1.9c-.4-.2-.8-.3-1.2-.4l-.3.7-2.3.5-.1.6.6 1.2.5.2.7-.4.5.2 1-.3.6 1.1.8-.1.4.4-.1.7-.5.3c-.7-.4-2.4.1-3.1.4v.3c.3.5 1.7.7 2.3.7l1.2-.8c1-.2 2.7.2 3.6.5l-.1.5-.9.3c-1.2.5-2.9 1.4-4.2 1.7-2.6.5-5.3-.5-7.6 1.5l-.1.4.6.2 2.8-1.2-.6 2.1-1.4.1-.6 1.2-.9.4-.2.9c-1.4.2-3.5 2.2-4.3 3.2L-69 86c-.9.4-3 1.7-3.3 2.8-.4-.3-1.5 0-1.9.1l-1-.5c.3-.6.4-1.7 0-2.3-.5-.5-1.5-1.2-2.2-1.3l-.5 2.8c-.6.9-2 1.7-3 2l-1-.5c-2.4-.1-4.6.6-5.3 3.1-.9-.3-4 1.2-5.7 1.2l.3 1.1 2 .3-.4 1.5 2.5 1.5.5 1h1.2l.6.6-1.3.6-.5 1.8h-.6l-.4-1.9c-.7.7-2.5 1.5-3.5 1.3l-.7.9-2.3-.3-2.3-2.2c0-1.7-.9-1.9-1.3-2.9-.3-.8 0-2-.8-2.7 1.1-1.3-.2-3.2.8-4.6l-2.8-2.9c1.6-2.9-1.6-4.3-1.1-5.8-1.7-.5-3.3-2.2-3.7-3.9.2-.9 1.3-2.2 2-2.8l-.5-.3-.9.3-1.1 1.4-.9.2c-.7-1.2-.4-5.1-.2-6.4l-1.1 1.3c-.1 1.3 0 3.8-1.1 4.6l-.7.3c-3.6.1-9.1-6-11.4-8.1l-.7-1.7c.2-3.2 5.8-9.1 7.6-12.1 1-1.7.3-3 1-5 .3-.8 1.2-2.6.7-3.4-.1.1-.5.4-.5.4-.2.4-2 4.1-2.1 4.2-1.8 2.2-4.5 4-6.5 6.1-2 2.1-3.4 4.6-5.8 6.3l-.6.1c-1.7-1-3.3-2.1-4.9-2.9-.5-.3-1.3-.3-1.8-.6-.2-.1-.5-.6-.7-.7-2.2-1.1-4.5-2.4-6.8-3.3-3.9-1.6-8.2-2.3-11.8-4.6-.3-.5-1-1.7-1.3-2-2.6-2.2-5.4-4.3-8.4-5.9-1.8-.9-4-.6-4.9-2.8l-.6-1.4c-.3-3.3-.3-9.6-2.3-12.4-.7 2.6 1.3 8.3-.3 9.9l-1-.2c-1.4-1.3-2.7-2.9-4.2-4.2-2.1-1.8-7.3-4.5-8.4-7.2.9-3.4 3.5-2.3 5-3.1.1 0 3.3-2.5 3.4-2.7.6-.6 1.1-1.4 1.7-2 1-.9 1.7-.6 2.8-2.4l2.2.3.3-.3.1-.4c-.4-.6-2.5-3.2-2.2-4l1.9-.8 1.3.9.6-.7c.8-.1 2.7.1 3.3.7l-.2-.9c-1.7-.7-5.2-3.4-5.7-5.2l.6-.9 1-.3.3-.9h1.1l.5-.5-.3-1.1.6-1 .7.2c0 2.1.6 4.5 1.3 6.4l.6.4.8 2.3 1.3.1.5-1.8-.9-.3c-.5-.5-.8-3-.9-3.7l.4-.8 1.1.1 1.4 1.2.5-.5c-.4-.5-1-1.8-.9-2.5l1.4.8 2.1-3.7-.6-.8.4-.6 2.6.3.5-.8-.5-1 .3-.7 1.2.4 1-1.3.1-1.4c-1.4-1.5-1-3.2-1.7-3.9.2-.8 1.8-2.6 2.3-3.3 2-.7 5.4 1.9 7 2.5 1.3.5 3 .7 4.4 1v-1.7c-1.2-.6-2-.2-3.2-.3-.5-.1-1.2-.4-1.7-.5-1.1-.3-3.1-3.5-3.7-4.5l.3-.8 2.3.4.8-.4.6-1.6 1.6-.8.4-.9c1-.2 2.1-2.3 2.5-3.1l-.2-2.5.9-.6 1.3-3 .8 1.4 3.9-1 3.5-3.9c-.3-1.7 2.6-3.4 2.7-5.5l2.7-2.5c0-.9.7-2.4 1.3-3 1.1-2.7-3.3-6.1-3.9-8.6.1-1 .5-2.1.9-3 1.3-1 4.9-4 5.4-5.6-1.1-1.1-.7-3.1-.7-4.4 0-.1-.5-1.3-.6-1.4.2-.6 1.7-1.1 2.2-1.3l.4-2.3-1.1-1.3.5-2.3 1-1 .3-2.2c-1.4-2.3-2-4.8-3.8-7.2l.5-1-.2-.6.4-1.1-5-6.4-.3-2.5-1.9-1.5c-.2-.9-.6-3.1-.3-4l-.3-.5-1.4-.3c.9-3-2.1-6.2-1.7-8.6l.5-.9 1.1-.5-.7-1.1.3-.3h2.4v1.3l.8.7c1.8-.3 4.8-.3 6.6.4l.6-.5c-1.7-.9-4.7-1.1-6.6-.7l-.7-.7.7-1.2c1.3-.9 7.4 1.5 8.6 2.3.5.4 1.1 1.1 1.5 1.6l2.5.7.2.5-1.8.5-.8-.4c-1 1-4.7.4-5.8.2-1.5-.3-2.1-1.1-4-.7-.7.6-2.1 1.4-3 1.5l2.1.4 1.7-.9.5.6-.7.7c3.6.4 7.5.3 11.1-.1l3.9 2.4c.4 1.6 1.6 3.5 2.8 4.7l.6.1v-2.3l.6-.1 1.2 1.4 1.5-.8c.4.1.9.1 1.3 0l.5-1.1.5-.2 5.9 1.4.7-.4-.1-.4c-.4-.3-2-1.5-2-2l-1-.5-.2-.6c.9-.2 2.9-.2 3.7.5l.2-2 .7-1 1.1.1 2.3 2.1.4-.6 1.9-.4 1 .9 1 .2.3-1.3.9.3c1.3 4.5 4.9 8 6.7 12.3l-.4 2.1c-.5.6-1.7 1.4-2.5 1.3l-.5.9c-.2.7.9 2.2 1.3 2.7l-.3.8-1.4.7c.8 0 3.5 2 4.3 2.5l.7-.1-1.2-2.6.2-1 1.5 2.2 1.7.6c.9 1.7 1.8 3.3 2.6 5l-.2 1.6-.4.5-1.2-.4-1.3.6c-1.4.7-.5 6-1.6 7.3l-1.2.5c-.1 2.1-.7 5 .1 7.1l-.9.1-.5.6.3.5 1.9-.4 1.6 1.2-.2.7h-.8l-.5.5.1.8 2.3-.9c.1.4.5 1.3.8 1.5l.6-.1.9-1.5-1.4-.4.3-1.4.7-.2.2-.4-.2-.3.2-.4c.6.1 2.3.7 2.6 1.4l.9.1.7.7h.8l.3.5-.7.9c-.3 1-.2 2.6 0 3.5l-.7 1c.5 1.4.7 3.2 2 4.1.1 1.1.6 2.9 1.4 3.7l.7.2.3 3.6-.7.8c.4.6 1.7 2.1 2.4 2.1.3 1.1 1.3 2.3 2.1 3l-.2 1.7-1.8-.2-.1.7c1 1.7 1.4 3.4 2.6 5l-.1.8 1.8 2.6zm-79.3-70.4l-.4-.4 1.5-1.7h.9l.3.8-.4.7-.5-.2zm259.9 2.9l-3.6 1.8c-.7.3-1 .6-1.8.9-3.2 1-6.9.8-10 2.3-2.5 1.3-5 3.6-7.8 4.3-1.8.4-4 .5-5.8.8-.8.1-3-.6-3.7-1l.8-1.1 4.9 1c1.1-.6 2.8-.3 3.1-.4l9.7-4.8c.3-.1 3.3-.7 3.6-.8 3.3-1 6.6-2.3 10-3zm-45.7 6.5l.8-.8c.6-.4 2.5 0 3.1.2l1.3-.7.6.5c-.6.9-4.8.8-5.8.8zm-12.7 1.7l-.1-.8c.9.5 2.9 1 4 .7l.6-.8.9.1 2.1 1.6c1.2.4 2.1-.7 3.5-.1l.7-.4.7 2.2-.2.3c-.8-.4-2.7-.8-3.5-.3-1.3-1.4-3.9-.5-5.2-1.6-.8.2-2.8-.6-3.5-.9zM14.2-72.8l.6-.6 2-.1.5-1.9-.3-.6h-2.5l-.1-.7 2.5-.4 2.4 1.1.3-.3c2.1-1.6 2-1.9 4.7-2.4l1-.2.1-1.3 1.5-1.1.1-1.6 1.3-1.4 9.5-1.1c.4 0 1.7-1.4 3.2-1.4l1.9-1.8.7 1.4 4.6-.4c.5 0 3.9 1.7 5.7 1.7l1.2-2.3c1.7-.5 4.5-.8 6 .2 1.4-1.1 5.4.3 6.9.6 1.1.2 2.4.3 3.6.4l4 4.3 1 .1c1 1.2 3.1 1.1 4.4 1.9.1.1 2 2.1 2.2 2.3 0 .1.2.5.3.5l-.2.4c-2 1.5-1.9 1.4-3 3.6-1.2.1-3.5.5-4.6 1.3l-1.3-.4c-1.2 0-3.4 1.5-4.3 2.2l-.9-.2-2.5 1.2-.4-.9c-.8.1-1.9 0-2.6.2-.1 0-2.8 1.4-2.9 1.5-.7.5-1.3 1.3-2 1.7-.8.5-1.9.6-2.8 1.1-1.1.6-2.1 2.1-3.6 1.8l-1.3 1.1-.6-.3-.1-1h-1.1l-.2-.4.8-.6.2-.9c.3.6 1.1 1.5 1.7 1.7l.7-.3.2-.4-.6-.3-.3-1.1-.5-.4c-2.5-1.2-7 3.9-10.1 1.9l-1.4.3-.5.5v.7l-6.3-.4-.6-.7.3-.5c-1.5-2.1-1.1-1.7-3.1-3-3.1-.1-6.3-.7-9.4.1-.9-.5-2.3-.8-3.4-.7-1.2-1.3-1.7-2.1-2.6-3.7zm62.5-15c2-.9 3.8.1 5.4 1.3l-.4.5c-.5.2-2.1-1.1-2.5-1.4l-2.3-.1zM-73.2-69.9l-1.3-.8c-.2-.4-.9-2-.5-2.5 1.3.6 2 2.7 2.5 4.1l-.2.4-1-.2zm2.3 11.6l.4-.1 3.3 3 1.3.1.4.4-.2.5c-2 .4-4.5-2.4-5.2-3.9zm8.8 18h.6c.5 1.9 1.3 4.2 2.4 5.9l-.6.3c-.8-1-2.9-5.1-2.4-6.2zm-1.8 1.8l.9.5 1.5 3.1-.7-.1zm247.6 7.6v.5L182-27l.1.6.8.1c-.3 1-1.3 2.8-2.2 3.3.1-2.7 1-6 3-7.9zM308-12.8l-1.1-.2-2.1-1.8.6-.1c1 .5 2 1.2 2.9 1.9zM183.4-.8c-1.4-.6-2.2-1.5-1.9-3.1l.5-.3.5.6.6.1 1.1-3 1.1-.7.5.4c-1.2 1.4-2 4.1-2.4 6zm317.5 134.6c-3.5-1-6 .1-8.1 2.9-1 1.3-1.2 2.9-2.7 3.9l-.6.1c-.9-1.1-1.4-1.3-2.7-2l-4.8.3c-.4 0-3.8-1.8-4.1-2-.2-.1-.2-.3-.4-.4-.8-.9-1.6-1.2-2.4-2-.6-.6-.7-1.3-1.8-1.6l-.5-1.1.7-1c1.6.5 6.3-1.6 7.7-2.3.2-.1 1-.9 1.2-1.1.7-.4 1.7-.6 2.3-1.1 1.7-1.3 4.8-4.4 7.3-3.4l.7-1c2.1 0 4-2 5.3-1.8l.3.8.5.1c.3-.4 1.9-.6 2.3-.6l2.2-2.5-.1-.9c-.5.6-2.2 2.8-3 3l-.4-.4c.7-.8 1.8-1.6 2.4-2.5 3.2-4.8 1.2-8.1-.8-13-1.4-3.5-2-5.2-5.6-6.9-1.2-.6-2.1.4-3.2.6-.6.1-1.6.1-2.2.1h-.3l-.7-.5-.9-1.8-.9.1-1.2-2.2.6-1.3-1-.7-.9-4.5c-3.6-3.3-9.6-9.4-11.5-14.4-2.7-7.2-3.1-13.6-9.1-19.3 0-1.7-.9-3.3-1.6-4.7-.9-2.1-1.3-2.9-2.8-4.7-2.2-2.5-3.9-2.2-7.1-1.9l-4.7.5c-.7-1.4 1.1-3.5 1.4-4.8.5-2.1.6-7.3-.7-9.3-1-1.5-2-2.6-3.3-3.9-2.5-2.6-2.6-3.1-5.9-4.9l-5-2.8c-1.6-1.1-2.5-3.9-4.7-4.3l-.2-.7-.5-.3-1 .1.6 1.3-.3 1.2.2.6 1.7-.8 1 .6c-.5.7-3 1.4-3.8 1.6.2-1.5-.6-4-1.6-5.2-1.6-.5-4-1.9-5-3.3l.2-.5c1-.9 3.7.1 5.2-.4l2.4-1.1c1.1-.8 1.8-2.5 3.2-2.9.1 0 1.7-.1 2-.1 11.1 4.3 4.6 2 11.9 7.8 1.1.9 2.5 1.5 3.5 2.4 1.1 1 .9 2.3 3.1 3.4 0 .1.4 1 .4 1-.2 3.7-.2 6.6.1 10.3l1 1.2c0 .2.2 2.1.2 2.1.8 1.5 2.5 3.9 3.5 5.2.7.8 2 1.3 2.7 2.1.6.7.9 2 1.5 2.8.5.7 1.6 1.1 2.2 1.7 1.7 2 4.4 11 5.7 13.6l4 7.2c.9 1.7 2.4 4.8 3.7 6.6l2.7 3.2 1.4 1.6c.7.8 1.9 3.5 2.3 3.8 2.6 2.1 5.6 5.1 8.4 6.9.2.1 3 .9 3.4 1.1l.9.7c1 .9 2 1.8 3.1 2.6.3.2 1.8 1 2 1.1.2.1 1 1.7 1.2 1.9.9 1.2 2.3 2.3 3.7 2.9l1.5 4.4 3 2.4c.5 2.3 1.6 6.3 3 8.3 2.2.1 5.5 6 6.6 7.6.5.8 4.4 10.4 5.1 11.9v.9l.5.4.8 3.2-1 .3-1.5-2c-1-.3-1.9 0-2.8.2l-1.7-.6c-.3-.6-1-1.4-1.6-1.6-1.2.1-2.6 0-3.8.2-1 .2-2.1.6-3.1.7-.6.1-1.3-.2-1.9-.1-.4.1-1.1.6-1.5.7-.3.1-1.4 0-1.6.1-1.4.4-2.9 1.2-4.4 1.7h-.3l.4-1.5c-.7.3-1.3.5-1.6.7zM185.6 10.2l-.6-1.8 1.1-3.7.5-.3zm-377.8 4.1l-.4-1.4.6-2.6.3-.3.7.9.7-.4 1.9.1 1.1-1 1.1-.2c.5-.6.8-2.4.9-3.1l.5-.4.4 1.7.8.8 3-.6c-.4 1.2 0 3.2.4 4.4l-.3.7c-.5.6-4.6 1.3-5.5 1.5l-.1.8c-.9 1.1-5 0-6.1-.9zM-24 11.4l.9.4-.5 3-.7.5-.7-.6.9-.9zm207.8 2.1l.7-.3-.7 13.3-.6-.1-.7-.7c.7-2.5.3-4.5.5-7 .2-1.7.5-3.5.8-5.2zm1.8 2l1.2 2.8-.7.4c-.4-.6-1-2-.9-2.8zm207.6 16.7l.3.6-.4.8-.6.3-1.8-.4-2 1-1-.3c-.2-.9-2.6-2.5-3.3-2.9-.9.1-2.4-.2-3-.8l-.7.1-.4.3c.5.9 1.9 1.9 2.8 2.2l.6-.2 2.1.7-2 .8c-1.4-.5-3.1-1.2-4.3-2.1l-1.1-2.4c-.8-.1-2.2-.5-2.8-1l.4-.8c.2.1 2.1.7 2.1.7.2 0 1.9-.2 1.9-.2 2.6.6 5.1 2.2 7.6 2.9 2 .4 3.9.4 5.6.7zm4.2.3c.8 0 4.6 0 5.1.3l.2.6c-1.7-.1-3.7-.3-5.3-.9zM193 37.8l-.4 1.1.2 1.1c-1.3 1.1-1.8 1.7-3.6 2.1-.2-1.6.2-4.4 1.2-5.8l-.5-2.4.7-.2c.8 1.5 1.3 2.9 2.4 4.1zm2 18.7l-1-2.9.4-1.8-1-1.8.3-3.2h1.6c-.6 1.1.2 5.7.5 6.8 0 .1.9 1.5 1 1.7l-.1.5zm9.9 6.7l-1.8-.7-.1-1.9.3-.1c0 .9 1 2.2 1.6 2.7zm-244 4.1l-.2-.7-1 .1V66c1 0 2.4-1 3-1.7 1.9.3 4.6-1.3 5.6-.9l-.9 1c-2 0-5.1 1.3-6.5 2.9zm17.3 12.4l-1.4-.2-.8-.5c-1.4.1-2.9 0-4.3.2-1 .1-1.8.9-2.9.4l1.5-1.6.2-1.1c-.5-.4-.9-1.7-1-2.3l1.6-1.5h1l.3.8-.8 3.6.3 1 2.2-3 .7-.2 1 .8c.6-.1 1.5-.7 1.8-1.3-1.3-1.6-.7-4.8.3-6.4l.6-.2.9.4c1.4 3.2 3.1 6.6 4 10l-.7 1.6 1.3.1c1.1 2.4 2 5 2.9 7.5l-.9.9c-.9.1-3.4-.5-4.2-1-3.1-2.1-7.5-3.4-10.9-1.4l-.5.9c-.9.1-2.3 2.5-2.6 3.1l-1.9.6-1.2 2.1-2.9.2-.8-.8v-1c.3-.7 1.9-1.5 2.6-1.7V89l-.4-.2c-.8.5-2.4.7-3.3.5l-.4-.8c-.1-1.5 2.8-2.1 3.7-2.5.8-.4 1.6-1.2 2.3-1.8l1-.1 1.7 1.3.3-.3c.1-.5-.8-2.1-1.1-2.5l.2-.7c.8.2 3-.8 3.6-1.2 2 .6 5.2.5 7.1-.3zm244.4-3.2l-2.1-.6-.3-1.6h-1.8l-.5-.5.3-.6.8-.1.2-.3-.5-.8-.6-.2-1.2.8c-.3-.4-1.2-.8-1.7-.8l-.2-.4.6-1.9.7-.2c1.8 1.9 2.7 1.4 4.5 2 1.4.4 1.3 2.3 2.7 2.7v1.6zm-266.8-1.6l-2.3-.2-.7-.7.3-.4h.9l1.6-2.7.8.3.7-1.4.5-.1.3 1 1.8.2.6.6-1.7 1.1-.2.9c-.7 0-2.1 1-2.6 1.4zM231 85.4c-.5-.7-1.8-1.3-2.6-1.4l-1.2-2.5c-.7-.1-1.7-.7-2.1-1.2-.3-.8-.7-3.5-.4-4.4.9.9 2.5 1.7 3.7 2l1.7 2.5 1.6.8-.7 2.1.9 1.4-.3.5zm-281.5-9.3l.7.7v.7c-1.4-.6-6.9 2.1-7.3 3.3h-1.4l.3.8-.3 1 .9 1.2-.9.5-.4 1.1c-1.6.5-5.2 2-6.3 3.4-2.5-.9-4.6 2.9-7.4 1.4v-1.3l1.9.4 2.7-.9c.3-1.3 2.5-2.8 3.5-3.5.6-.4 1.4-.6 2-1 .4-.3.7-1 1.1-1.4.7-.6 1.6-1.1 2.3-1.7l-.3-.9.3-.6c2.8-.2 6.3-1.9 8.6-3.2zm4.8 2.6l-1.4.7c-.4 1.2-1.7 2.6-2.8 3.2h-1.5l-.4-.6.3-.5 2.2-.4c.4-.9 1.5-2.5 2.5-2.8h.7zm4.2 7.8l-.2-.9 1.2-3 1.6-.2 1.3-1.2.6.1.9 1.4-.5.7-1.3-.3-.5 1.2c-1 .3-2.4 1.2-3.1 2.2zm274.1.2l-.2-.3.4-1.2-.3-1 .5-.4c.6 1.3 1.4 1.7 2.6 2.3l.3.7-.4.8c-1.3-1-1-.8-2.9-.9zm-286.1 6l-1.3-.3c-.9-.5-.7-1.5-1.1-2.2-.3-.6-.9-1-1.1-1.6 0-.1-.4-2.6-.4-2.8l.6-1 .9-.2-.2 1 .6.2 1.3-.8c.3 0 3.2.3 3.3.2.1 0 3.1-1.3 3.4-1.4l1.1.8 2-.1.2.5-1.3.8-.8 3.3c-.5 1.1-3 1.4-4 1.8-1.1.5-2.2 1.2-3.2 1.8zm28.7-3.2l-1.2-1.3-2 .2-.4-.3 1.1-1c3-.6 5.4-.5 8 1.3-.5.8-4.6 1-5.5 1.1zM231 87.4c1.3.3 2.1 1 3 1.9l.8-.3.7.2c.3.7.4 1.9.1 2.6l-3.4-.4c-.3-.8-.5-1.7-1.2-2.3zm-291.2 3.9l-3.2-.2c.3-1.1 2.4-2.5 3.4-2.9l1.3.2.4.9-.2.7zm299.4 2.8l-1.5-.3-.7-2.1.4-1-.7-1.9.2-.4.7-.1 3 4.7zm-274.2 0c.2-1.1 1.8-1.2 2.5-1.8.7-.6 1.4-1.8 2.1-2.5l1 .3 1.2-.6c.6-.1 1.6.4 2.1.7-.8.7-1.2 2.1-2 2.8-1.2 1-3 1.9-4.3 2.8l-1.2-1.6-.5.3-.4 1.3h-.4zm8.8-3.1c1.5-.5 6.9-2.2 8.3-.6l-1 .9c-1.8-.6-5.6.2-7.3.8zm5 .5l.8 1.1-.8 1.3c-.6.6-6.1 1-6.6.4l.6-.5c1.4.1 3.1 0 4.4-.5l-.1-.9zm-36.3 3.1c-2.5.3-6.5 1.2-8.6 2.8l-2.8-.7 1.8-1.5 2.7-.1.9-1.5c.9 0 2.2-.5 3-1.1l.9.1-1.4 1.3 2.9-.1zm10.8 3.2l-.3-.5c.4-.4.5-1.6.4-2.1l1.1-1.5 1-.2.2.5-1.1 1.4v2.1zm288 1.5l-.4-.7c.1-.6.7-1.6 1.3-1.9l-.5-1.3.4-.5.7-.2c.2.5.9 1.4 1.4 1.5 0 1.1.8 2.6 1.6 3.3-1.3.9-3.4.5-4.5-.2zm-279.4-3l1.1-.5.3.6-.7.8c-1.4.4-5.5-.3-6.9-.5v-.5c1.4-.2 5.3-.9 6.2.1zM-3 116.7l-.6.4h-1.2l-.7.7c-1.1 2.8.3 4.3-1.6 7.9l.2.5 1.5-1c.4.7-.5 3.5-.8 4.1 0 .1-1.4 1.4-1.6 1.6l-.4-.4-2.6 2.5 1.8 3.2-.5.6c-1.3 0-3.3 1-4.2 2.1l-1.5-.4-.9.9.4.7c-1.6 1.4-2.7 3.9-3.2 5.9-.2.8 0 1.8-.2 2.7 0 .2-.9 1.4-.9 1.6-.1 1.7-.1 6.4-1.4 7.7l-1.6-.2-.3.5.4.9-.7.1c-2.1-1.2-5.1-3.4-7.2-4.3-.1 0-1.9-.1-2.1-.1l-.4-.5 1.1-.7-.2-.6-2.4.4-1.3-1.3-.1 1.3-.4.1-1.5-1.4 1.1-.6-2-1-.3.7c-.1 1 1 2 1.6 2.6 2.4 2.3 3 2.9 6.3 2.4l.4.6c-1 .2-4 .6-4.9.3-1.2-.4-2.6-1.9-4-1.6l-2.5 1.4c.6.7 1.9 1.8 2.9 1.9l.6 1.5-1 1.2.3.7 1.6-.7c.2-.8.9-2.6 1.7-3.1l.9-.1 1.7.9c-.9 1-1.9 2.3-3 3.1-.1.1-1.4.5-1.6.6-1.5.8-3 2.8-3.9 4.2l-.7.2c-.7-.6-2.2-1-3.2-1l-3.8-4.9h-.9c-.8-1-2.9-3.2-4.2-3.4l-.7-1.3.6-1.1c1-.2 2.2-2.2 2.5-3l-2.2-.7-.3-1.3c-1.4-.2-3.7.8-4.8 1.5l-2.5-.3c-2.4-3.3-6-1.9-7.9-6l.2-1c2.9-.2 5.1 1.6 7 1.4.6-.5 1.8-.8 2.5-.8l-1.6-2.5.1-.6-.8-1-1-.2c-.8-.6-2.9-3.3-3.3-4.1-.2-.5-.5-2.8-.1-3.4l.9-.7 1.5-.1.2 1.5c1 .5 2.4.9 3.5 1l1.8.1c1.4 0 2.4-2 3.7-1.8l3.2-4.5 1.4.3v-1.7c.7-.6 1.9-2.1 1.7-3.1-.5-.7-1.2-2.4-.9-3.3l.8-.7 2.8-.1c1.3-.4 2-4.9 2.1-5.9l1-.1 2.2-1.9 1.2 1.8-.8 1.2c.4-.1 1.3 0 1.6.4l-.1.4-3.2.6-2.8 5.6.5.8c1-.4 2.5-5 5.2-5.8l.7.9 1-1.3 1 .3c1.9-1.2 3.2-6.9 2.2-8.6l3.2-3.2 1.1.3c.2-.1 1.9-1.1 2-1.2.3-.1 1.8 0 2.2 0 1.2-.2 1.9-1 3.9-1.2.7-1 1.5-2.3 2.3-3.2.6-.7 8.9-3.7 9.7-3.9.1.2 1.2 1.6 1.2 1.7.3 1.3.5 2.5 1.3 3.6l-.1.9c.9 1.2 1.4 3.5 1.6 4.9l2.7 2.3 2.9-.1.7.9c-.7 1-1.7 2-2.6 2.9-.3.1-.9 2.2-.2 3zm-30.8-17.5l-1.1-.5-.1-.5c1.1.1 2.8-.2 3.7-.9l.6.4c-.6.6-2.2 1.6-3.1 1.5zm-10.5-.3l-.6 1.4-1.4-.8v-.4c1-.4 2.1-.9 3.2-1.1l.7.2c-.6.2-1.2.5-1.9.7zm-5.3 3c.4-.5 1.4-1 2.1-1.1 2.1.6 4.8 1.3 6.6 2.6l.7-.1.2-.3-1.1-.8c5.6-4.3 4.3-.9 8.2-1.7 2.1-.4 4.4-1.6 6.3-2.6l.2.5c-1.8 1.9-6.5 2.9-8.9 4.1-1 .5-2.9 2.6-4 2.3-1.8-.5-5.1-.9-6.5-2.3l-2.1.1-.3-.7zm-3.7-.8l-2.3-.3 1.7-2.2.9.2.3.6-.8.8zm-38.9 8.2c-1.3-1.2-3.2-3.5-3.6-5.3l.3-1.4c2.5.3 3.4 2.4 3.7 4.7l.6.5 1-.3.6-1.2h1.5l.3-.4-.7-.9-.1-1c.5-1 2.7-1.8 3.6-2.8l1.6.6c1.1-.2 3.5-1.9 4.4-2.5l1.2.4 1.4-.5.2.5-.3.8-2.4 1.3-.5 1.8-.9.5c-.8 0-4.2-.4-4.8.1l-.5.6.3.9-.3.8c-1.1.2-3.1 1.8-3.9 2.5zm336.5-3.9l-1.4-.5c-.1-1-.6-2.7-1.4-3.4l.3-.5 1.5.2c.7-.6 2.3-.6 3.1-.3.4.9.5 2.6-.3 3.4l-1.4.1zm-320.9 8.7l-1 1.3-2 .9-.7 1.8h-1.4c-.6-.8-1.2-2-1.8-2.7-.1-.1-1.1-.4-1.2-.6-.3-.2-1.2-1.6-1.3-1.7-1.2-.8-4.1-2-5.6-1.5l-.3-.6c.8-.2 1.8-.5 2.6-.8.2-.1 1-.8 1.2-.9 1-.4 2.3-.5 3.4-.8v1.2c.9.3 2.7-.1 3.5-.6.7-.5 1.2-1.4 1.9-1.9.9-.6 3-1.1 3.4-2.3l-.3-1.1c0-.7 3.3-2.6 4-3l.6.8 1.5-.3.3 1 2.8.6-.9 1.1.7.3 1.9-.5.1.6-3.5 1.3-.5.8 1.2 2.2-5.1 1.8-.2.5.8.7-1.3 1.2.8.8.8-1.1.8.8 2.2-.9.4.5c-.6.3-1.3 1.3-1.4 1.9l-.9-.1-1.4 1.5-4.1-.3.8-1.6zm7 2.8l-.8-.1.4-.9c2.2-.8 9.4-9.1 8.5-11.3l.7-.5 1.7-.1 1.4-1.4.6-.1 1 .8-.5.8.1.8 1.4-.3.8.3-.9 1.8-1.5.6-.3.5-1 .2-1 1-.4-.7 1.8-2.5-2.4.7c-.5.7-1 1.7-1.5 2.3-1.1 1.2-2.4 2.3-3.5 3.4-1.4 1.6-2.8 3.4-4.6 4.7zm317.2-9.2l-.6.3-.4-.4.8-3.4 1-.2.4.5-.3 1.5c2.8 1 3.4 2.7 5.1 5.1h1.1c1.3.5 1.8 2.1 3.5 2.7l1.3 2.6 1.6 1-.2.7.4 1-.2.4c-.7.3-2.9-.4-3.6-.7l-1.2-1.5h-.9l-.9.6c-.1 0-.3-.2-.3-.3-.8-1.8-1.7-3.5-1.3-5.5l-1 .3c-.5-.1-2.4-.6-2.7-1.1-.5-1.2-1.4-2.3-1.6-3.6zm-305.4 4.8c1.3-.4 3.1-.3 4.3.1l1.2 1.2 1.8.2.2.3-1.1 1.5.2 1-1.8.6-.8 1.6 1 3.7c-2.1 3.2-3.2 2.5-6.5 3-.8.1-1.6.4-2.4.6-.8.2-1.7 1.2-3.5 1.5-1.8.3-4 .1-5.7 1-.2.1-1.5 1.6-1.8 1.8-1 .6-3.3.8-4.4.6-.5-1.1-1.9-2.5-3-3-.4-2.3-2.6-3.8-2.9-6.2l.5-1.4.9-.3.3.1c.2.1 1.6.5 1.7.6 1.3.8 2.1 2.3 3.9 2.1l1-.8.5-2.7.8.4.9-.5.2-1.3.5-.3c.6-.1 1.5.2 1.9.5l2.2-1.1.4.4-1.3 1.7.1.8 1.5 1.3.1-2.1.7-.9c1.3-.6 3.5 1.3 5.7-.5.5-.8.1-3.4-.1-4.2l.9-1.6-.2-.7.2-.5c3.5.1 5.6-2.7 7.4-5.3l2.8.5 1.7-1 1.2.6 2.2-.4c.9.6 3.8 2.2 4 3.2l-1 1.5c-1-.1-1.9 2.4-3.3 2.6l-2.2-1.7-.3-1.1h-1.2l-1-.8-1.7 2.1c.1-.7.2-3.1-.4-3.7l-.8.1-.5.6.4.9c-1.9.1-4.3 2.1-5.4 3.4zm43.7 106l.4 1.2-.3.8-.8.1-1.3-1.1c-1.5.3-3.2.2-4.5-.7l-1.1-2-2-.3-.3-.4 1.5-1.4-.3-.7c-2.1.4-4.3-1.7-6.1-1l-1-1-2.5-.5 1.3-1.4 1 .2.6-.9 1.6.6.3 1.2 1.4.2.6-1.1 1.1-.3-.1-.8-1.4-1.3.4-.6 4.5.7 1.1 1.2c.5.3 2-.1 2.4-.3l.4 1.5 1.1-.6.6.1.6 1.2 3.4-1.7 2.6.7 1.3-1.1 1.3-.2.3 1 1.3-.4.3-.5-1.1-.4.3-.5c1.7 0 4.5-1.7 5.7-2.8l.1-.7-1.3-.2-2.6 2.2c-1.4-.2-4.3-.1-5.4.9l-1-.2c1.1-1.1 1.5-3.2 2-4.7-.5.4-3.5 2.3-3.5 2.8l.4 1c-.5.7-2 2.5-2.9 2.6l-.8-.2-1.7-1.7 1.5-2.3c1.2-.1 4.5-1.2 5.3-1.9l2-2.7c.4-.6 1.4-1.8 1.3-2.7l-3.1 4.4c-1.5 2.1-4 1.1-6.1 2l-.7 1.8-1.8-1.2 1.2-.8.5-1c.9.1 2.5-.2 3.3-.8l-.3-.5c-.9.2-3.5.3-4.3-.4l-.9-2.1-1.1 1.5h-.8l-.2-.5 1-1.6-.2-.6-.7.2-1.1 1.2-1.3.1-.6.5.5.8c-.1.1-.5.4-.5.4-.4.1-.9.1-1.3.2-1.5.5-3.1 1.5-4.6 1.9-1.1.3-2.5-.1-3.6.1-2.3.4-5.7 2.1-7.9 1.2-.9-.4-2.6-.8-3-1.9l.1-.5h2.1l.1-.3-.8-.2.2-1-.9-.6.7-2.8c1.1-1.1 2.9-.3 4.2-1.4l4.3.4 2.6 2.6c1.5 1.5 2.5 2.4 4.7 2l1.1-.9-3.2-.7c-.2-.2-.3-.4-.5-.5-4-3.8-2.6-3.6-7.7-3.7l-1-.8c-1.3.4-3.9.3-5.1-.6l-.4-.7.3-.5 2.6-.1c1-.9 3-1.9 4.4-2l-.4-.3c-2.1.7-4.1-.7-6 0l-.4-.3.9-.8 1.5-.2c1.1 1 4.2.5 5.3-.2-1 .1-3.7.2-4.5-.5l-.4-1.2-2.3.6c-1.4-.6-3.2-1.8-3.2-3.5l.5-1.2.9-.8 1.5.1.6.4.9-1.5-.7.2-.6-.4-1.5-.2-1.5-1.5c.2-1.6 1.4-3.8 2.2-5.1l-.3-2.3c-.2.6-1.1 1.4-1.7 1.5-.5-.3-.8-1.7-.8-2.2l-.9-.9-2.3-.4-1-1.6h8.5l.5.6 1.5-.6v-.6c.7-1.8 4.3-4.4 5.8-5.4l.6.3v.7h.6l1.7-1.5c.6 0 2.1.3 2.5.8l.3 1.4.8.1.5-.5-.4-.4-.1-.7.9-.8c1.8.5 3.3 1 5.2.9.8-.3 1.4-2.3 1.6-3.1l.5-.2.3.8 1.3.9.7-.4-1.3-1.5.3-1.3c.8-3.4.2-2 2.4-4.8.4-.4.6-.6.9-1.1.1-.2.5-2.6.7-3 .6-1.5 1.5-3 2.3-4.4 0-.7-.2-1.5-.4-2.2l.4-.8c3.6-1.4 6.9-3.3 8.6-6.9l.7-1.6c.4-1.9.6-4.6.6-6.6 0-1.7-1-3.7.2-5.3 1.1-.6 2.2-2 2.9-3.1l.6-.2.2.7 1.6.2-.3-.9.2-.4.8-.1c.6.3 2.5 1.4 2.6 2.2l-.6 1.4c.3 2.4 1.3 3 1.9 4.8.7 2 .9 4.2 1.6 6.2.8 2.1 2.6 2.9 3.5 4.1 1.4 2 2.7 4.3 3.9 6.4l-.2.8.3.8c-.2.8-.5 1.8-.6 2.7 0 .3.3 1.1.3 1.4 0 .6-.4 1.2-.4 1.7 0 .2.3 4 .3 4 .5 1.8 1.8 3.4 2.3 5.2.3 1 0 2.4.2 3.4.4 2 1.1 3.9 1.6 5.9.4 1.8.5 3.8 1 5.5.1.2.9 1.2.9 1.5.9 2.6-.3 5.5.9 8 .7 1.4 2.7 3.5 2.7 5.1-.8 2.8-3.3 8.9-1 11.7-1.2 2.1-1.4 4.2-2.2 6.4-.3.9-1 1.7-1.3 2.6-.3.9-.5 3.4-1.3 4l-.5.1-.2-.7 1-3-.3-.5-1.7 3.6-.6-.3c-.4-.7-.7-1.5-1.1-2.1-1.4-2-5.2-1.3-6.1-2.4l.2-.4 1.3-.2c.2-.8.4-3-.2-3.8l-.5-.1-.2 1.6-.8-.1-1.8-2.1-.5-.1c-1 1.7-2.9 2.3-3.6 4.2l-1.4.3-.7 1.2-1.6.9c0 .8-.7 1.9-1.3 2.3l-1.5.2-1.2-.6-.7.2c-.5 1.1-2.3 2.6-3.2 3.2l-1.5.2c-1 1.2-3 2.4-4.6 2l-.9.6c-1.7.2-3.2-1.3-5.1-1.2l-.6.5c.9.3 2.9 1.2 3.4 2.2zm283.9-88.8c-.8-.6-2.4-1.4-3.4-1.4l.1-2.7c-1.3-1.4-2.8-2.9-3.8-4.5l.1-.5.8-.3.9 1.5c2 .2 5.1 5.5 6 6.9l-.2.8zm-14.6 1.2l.2-.6c.7-.9 4.4-.9 5.4-.5l.4.5-1.8 1.4c-.8.4-3.4-.4-4.2-.8zm20.8 7.3l-1.4-1.4-1.5-.2c-.7-.4-1.5-1.4-1.7-2.2l-.9-.5-.3-.5.6-2 .9-.1c.5 1 2 2.5 3.2 2.7.5.7 2.3 3.1 2.2 4zm13.5 29.4l-1.4-2.8c-1.6-.3-2.1-1.3-2.1-2.9l-1-1.1c-.6-.1-2.3-.4-2.7-1l.1-4.1c-1.4-1.4-3-3.5-3.6-5.4l-3.7-2.3-.4-.8-1.4-.6c1.1-.9 3.1-5.1 3.7-6.4l.6-.2c1.7 2.5 3.7 5 4.9 7.8-.2.7-.2 1.8.1 2.5l.8.7c.9.7.3.2 1.1 2l1.5 3.4c.1.2 1.1 1.1 1.3 1.4.3.4.4 1.1.7 1.5.5.7 1.5 1.2 2 1.9 1.3 1.8 1.3 4.2 2.2 6.1.1.3 1.4 1.5 1.6 1.9.7 1.1 1.2 2.6 1.7 3.8l-.3.5-1.2-.7-1.5-3.8zm-307.8-13.9l-.5-.6c-.2-1.2.9-2.2 1.3-3.2.7-1.7 1.3-3.6 1.9-5.3l.6.1.1 3.9c-1.5 1.1-2.8 3.5-3.4 5.1zm122.5 7.6l-3.3-1.6-.1-.8c.5-.6 2.2-1 2.9-1l.7.4.5 1.9-.4 1zm-131.3-1.8l-3.9.2-.3-.5 2.1-.5zM301 183c-.6-.4-1.7-.7-2.4-.6 0-.6-1-1.6-1.4-1.9l.4-1.6-1.4-2.3.1-.8.3-.1c1.5 1 4 4.8 4.6 6.5zm5.9 6.2h-.8c-1.1-.9-2.3-2.2-3-3.5l.1-.7.7.2c.4 1.7 2.7 2.7 3 4zm-278.2-1.3l1.5-1.7 2 1.5zm286.2 9.9l-3-1c-.6-1.4-2.4-1.7-2.9-3.1l.1-.6.8-.2c1.4.1 2.8 3.7 4.8 3.9zm-357-1.1c-.7.3-1.5 1.1-1.8 1.8l-.8.1c-.4-.6-1.7-1.1-2.4-1.2 1.1-.1 2.6-1.2 3.1-2h.7zm361.5 6.1l-1.3-.5-1.7-2.5.2-.5 1.2.3.5 1.6 1.5 1zm249 8.9l-.8-.3c-.9-.8-1.6-2.2-2-3.3-.8-2.3-1.3-2.2-.2-4.3l1.1-2.1-.4-1 .3-.5 2.3 1.3.5 1.5 2.1.3.5.7c-.1 1.2-3.4 1.6-3.4 7.7zm-253.3-6c-.3-1.3-1.6-2.9-2.5-3.9l.2-.7c.6-.6 2.2-.5 2.9-.4 1.4.7 1.1 2.8.8 4l-.6.8zm-289.5-.9l-.3-.5c.2-1.1.7-2.2 1.1-3.3l.6-.2.2.5-.7 3zm-47.9-1.7l-.2-.8.3-.9 4.4.5.2.7c-.9.4-2.8.2-3.7 0zm32.9.6l-.1 2.3-.5.4H7c1-.4 2.1-1.7 2.3-2.7zm-52.4 3.8l-.1-.4c.8-1.7 3.4-1.3 4.4-1.5 1.4-.3 2.9-1.1 4.3-1.5l1.7.6c-2 1.7-3.8.7-5.1 1.6l-1.4 1.8c-.9.1-3-.4-3.8-.6zm6.9 4.1l-.6-1.4c-1.4.9-4.3 1.8-5.9 1.3l.1-1.4c2.4.3 4.2-1.1 5.6-3l2.9-.1 1.6-1.4 1.1-.1.4.8c-.2 1.1-1.8 1.8-2.8 1.9v1.1c-.3 1.1-1.1 2.3-2.4 2.3zm359.1-1.5c-.4-.4-.7-1.2-.7-1.7l.4-1.1-.4-.1-.5-1 .4-.8c1.1.8 2.6 2.5 2.9 3.9l-.2.5c-.5.4-1.4.6-1.9.3zM-8.4 221.8l.4-1.6c.4-.6 1.8-.8 2.4-.8l.5-.7c-.8-.1-2.9-.5-3.5-1.1l-.1-.5c2.6-.8 5.7-2.8 7.8-4.5l2.3-.1 1.5-1.5.3 1.3c.4-.7 1.6-1.6 2.4-1.6l.1-.8-.4-.5H3.8c.3-.5 1.1-1.2 1.8-1.2l1.8 2.6 1.1.1.4-2.1-1.2-.9 1.8-.6c1.7.2 3.5 2 4.9 2.9.8.5 1.9.8 2.7 1.3.8.5 1.7 1.4 2.4 2l1.1.2.3.4c-.7 2.4-1.4 4.9-2.3 7.2-.3.9-1 1.7-1.3 2.7-.1.4-.5 2.5-.6 2.7-.7 1.4-2.1 2.9-3.1 4.2l-1.2.3c-.5.8-1.9 1.5-2.8 1.7l-.3-.3 1.6-1.5.2-.8-.3-.2-2 .8-1.1 2.1H6.5l-.8-1.8-1-.3-.4 2.5-.6.1-.7-2.2c-.2-.2-2.8-1.8-2.9-1.9-.9-1-1.8-2.9-2.6-4.1l-.6-.2-.4 1c-1.3-.1-2.9-.8-3.9-1.6-.3.7.3 2.1.6 2.7.4.6 4.1 1.2 4.9 1.4.2.6.6 2 .3 2.6l-.7.1-.1-1.6-.3-.4-.8 2.7-1.1.7c-.8.8.1 2.6-.8 3.4l-1.3.2-.6-.3.9-1.4-.3-.4-1.2.1-.9-1.5.6-.8-.1-.5-2-.2-.5-1-1.6.4c-.8-.9-2.2-.4-3.2-.6-.9-.2-1.3-.9-2.4-.7-.7.1-1.4.5-2.1.6-1.3.1-1.7-.4-2.7-.9-1-.4-5.9-1-6.8-.8-.1 0-1.5.8-1.7.9l-.4-1.1-1.3.2-.3-.9-1-.2.1-1.7 6.3-1.9.5-.6-.2-.4-1-.1-.2-.6.8-1.6 1.6.2c0-.8-1.2-2.2-1.8-2.7l3.8-.1c.3.6 1.1 1.3 1.7 1.5l.1.7-.5 1c.8.1 1.8.3 2.6.3 1 0 2.1-.5 3.1.1l1.1 2 .7.2c2.3-1.1 4.9-2.4 7.2-1.7zm25.8-11.3l-2.6-1v-.5l.4-.2c.5.2 2 .8 2.4 1.1zm312.6 3.4c-1.2-.5-2.9-1.5-2.7-3l.5-.6 1-.3 1.1.4.2.8-.3.9.5 1.3zm-376.3-.7l.6-1h1.5l.7-.7.9-.1.6 1.8-.7.8-3.3-.4zm18.2 3l-.3-.9.4-1c.5-.2 2 .5 2.4.7l-.1.5zm-18.2 2.2l-.3-.4.3-2.1 1.8-.7 1 .4.4.7-1.3 1.7zm15.2 3.9l-1.1-.7c-1.5.3-1.8.4-3.2.2l-.3-1-1.8-.6-.5-.6h1.6l2.3-1.4-.2-.6c-.9 0-3-.3-3.8-.8 0-.3.5-.7.7-.9l.9-.2.8.8c.8-.4 3.7.6 4.4 1l.4.7-.2.7-1.2.1.1 1.1 2.5.1.2.5-1 1.6zm368.3-3.9l-1.5-1.4v-.8l.6-.2c.8.2 2.9 3.6 3.4 4.4.4.6.6 1.7.3 2.4l-.9.4-.5-.4c-.3-1.6-1.2-2.8-1.4-4.4zm-351.3.1v-.5c.6-.1 2.2-.5 2.6-1.1l.8.1v2.6c-.8-.6-2.4-1-3.4-1.1zm355.1 0l.6-.7c1-.2 1.9-.1 2.9.2 0 1.2 2.9 3.9 3.8 4.6.9.7 2 .4 2.7 2l1.9.6c.3 1 1.6 2.1 2.5 2.5l-.4.5-1.5-.1c-1.4-1.8-3.2-2.6-5.2-3.5l-1.3-1.9-1.7-.4-1.1-1.8-2.8-.5-.6-.6zm-388.9 3.8l-.8-.3.9-1.2 1.2-.2.6.5-.7 1zm11.2 3.3l-.9-1.9-1-.4-.8-2 .2-.5c1.1.2 2.8 1 3.5 1.8l.2 1zm366.2 1.3l-2.8-.2-.3-.6.3-.6.5-.1c.6.4 1.7.6 2.4.5l.3.5zm28 3.9l-.3-.4.5-.7-.3-1.1.7.1 1.7 1.4-.4.5zm-28.2 4.3l-.8-.4c.1-.8-.9-2.3-1.4-2.9l.6-1.6 1.1 1.7 1-.2 1.1.8.2.8c-.2.6-.5 1.2-.9 1.7zM-.5 233.2l-.4-.5.9-1.7.6-.2c.9.3 2 2.8 2.3 3.6l-.2.4-1.7-.2-1.5.9-.5-1.8zm-17.4 9.6l-3.6-1.9c.5-.8 1.4-1.8 2.3-2.2 1-1.1-1.4-5.3-.3-7.4l1.3.7c.9 2.3 2.9 3.8 5.4 4.1l.4 1.1-.4 1c-1.4.7-4.1 2.7-4.4 4.4zm371.3 2.2l-1.2-.6-.4-1.6 1-1.9-.5-1.2.8-1v-.7l-1.1-.1-.3-.7 1.1-2.7-.9-1.4.2-.9.6-.1c2.3.7 2.1 5.8 6.9 6.3l.2.7-.3.9-1 .6-.1.5.9 1-.3.9zm-18.3-7l-2.7-.7-1.1-2.5.7-.1 3.6 2.3v.7zM2 238.3L.5 238l-.8-1.2 1-.2c.6.1 1.5.8 1.8 1.4zm340.3 1.7c-.5-.7-2.4-1.1-3.2-1.1l.2-.5 1.8-.4c.6.1 1.4.7 1.7 1.2v.8zm1.4-.9l.2-.3c.6-.3 1.8 0 2.3.3l.7 1-.3.5c-.4.5-2.5-.9-2.9-1.5zm69.9 37.5l6 6.8c.8.9 2.2 1.8 3.2 2.6l-.7 1.6.4.4 1.5.2.8.7-.1.4-.7.1-.4.5c.5.6 2.3.9 3 .9l-.2.8.7.8c.5.1 1.2.2 1.7.1.2-.1 1.9-.7 2-.7 1 0 2.5.4 3.6.6l4.3 4.8 5.9-.4.1.9-1.4 1-.6 1.4.9.1 1-1.3 1.2-.2.6.9-.1.7c-.4.6-1.9 1.1-2.6 1.3-1.5-.7-4.1-.6-5.7-.3l-.6-.4c-.1-.6-.5-1.7-1-2l-1.4-.4-.9-1.1-1.8-.3c-.2-.6-.9-1.4-1.5-1.7h-1l-8.8-.4-4.7-.2c-.1 0-2.2-1-2.4-1.1l-.5-.2-.3-1.6c-.6-.6-2.9-2.8-3.9-2.8l-.2 1.6-1.8.5c0 .5-.3 1.7-.8 1.9h-1l-1.8-2.3 2.9-2 .5-1.6.6-.4c1.3-.1 3.4.7 4.4 1.7l.4-1 .6-.2.5-.7-.1-.4c-.6 0-2.4 0-2.9-.5l-1.6.1-.4-.6.1-.9-.9-.3-.6-.8.3-.5h2.5l.3-.5-.2-.4c-1.7-.3-2.8-.8-4.4-.4l-1.2 1.2-.8-2.1-.4-.1-.1 1.1h-.5c-.2-.2-1.8-2.3-1.9-2.3 0-.1-.6-3.4-.7-3.8l-.7-.3c-.1.6-.4 3.7-1 4-2-2.7-4.9-4.8-7.5-6.9-.8-.6-1.4-1.6-2.1-2.3-3-.3-4.7-2.1-7.1-3.5-4.5-2.5-9-3.2-14-4.1-1.1-.2-1.7-.4-2.7-.4-.8-.1-4.4.9-5.1 1.7l-.5 2.1-.7.5-.7-.6c.6-.9.9-2.7.5-3.7 2.4-.7 5-1.9 6.3-4.1l.8.1 1.7 1.4 1.2.2c.6-.1 1.4-1.1 1.6-1.6l-.8-.3-1.2.5-.4-.5.2-.9-.3-.8-2.1-1.4-.1-1.5c-1-1.1-3.6-1.6-5-1.7l-1.2.8-.6-.1c1.7-1.7 3-5.3 3.3-7.6l3.9.9 1.4-.6 1.7-2.6-.6-1.6.3-.6c.2.1 1.5.6 1.6.6 1.5 1.9 3.1 4 5 5.5.5.4 1.4.6 1.8 1 1.6 1.5 5.1 6.4 7.7 6.3l1.8-.6c.9.4 2.2 1.2 2.8 2l-.3.4h-2l-.4.6.2.6.5.4c1.1.9 2.3 1.8 3.3 2.7 1.7 1.6 3.1 3.5 4.7 5.1 4 3.8 8.3 7.3 12.5 11 .1.1 3.2 1.5 3.7 1.7zm-49.3-33l-.9-.1c-.3-.9-1.4-2-2.3-2.4l.1-.5.5-.1c.6.8 2.1 1.7 3.1 1.9l.5.7zm-387.1-.3c-1 .5-3 .4-4 .4l-.3-.6.7-.6 3.6.6zm380.6 7.1l-.5-1.2-2-.6-.3-.6.5-.9-.6-.3-.2-.9.3-.5 1.4-.4.7 1.5h.6l.4-2.2c.4-.5 1.4-.7 2-.6.6 1.3-.9 5.9-2.3 6.7zm3.4 6.2c-.4-.6-1.3-1.5-2-1.7l.1-.5c.6-.6 2-1.2 2.9-1.1.3.8.2 2.2-.3 2.9zm154.9 6l-.3-.6c.5-.7 1-2.2.8-3.1l.5-.1.9.9 1-.1v.9l-1 .4-.9 1.5zM416.8 275l.3-.4 1.6.4c2.9 3.4 3.9 4.5 8.1 6.6l.4.7-.1.7c-1.1.2-2.2-1.2-3.8-1l-.8-1.7-1.1-.3c-1-2-3.1-3.5-4.6-5zm-18.4 19.7l-.4-1.5.7-1.9.8-.6 1.5.1.3.4c-.7.7-1.3 2.1-1.6 3.1zm39.2.2l-1.3-2.1v-1.4l.6-.2c.7.6.8 2.9.7 3.7zm-29.8-.7l-.7-.5 1.5-2.2 2.5 1.2.3.6-.6.8zm-3.6.7c-.5-.5-1.7-.9-2.5-.8l-.4-.6.8-.9.1-1h.6c.9.4 1.8 1.6 2 2.5zm36.7.9l1.1-1.2c0-.5.2-2 .7-2.3l1.1-.1 2.5 1.6-.2.5h-1.5l-1.6 1.5zm-56.4-.3l-.4-.4.1-.8c.6-.5 2.4-1.8 3.3-1.6l.3.5-.3.6zm-4.1 1.1l-.3-.6c.1-.6.7-2.1 1.3-2.3l.9.5.5 1-.9 1zm96.4 12.6h-.4c-2.9-2.8-5.9-2.5-9.7-1.8-1.5-1.7-3.4-2.5-5.3-3.4-2.3 1-4.8 1.6-7 0l.9-1-.4-.8.3-.7-.3-.5-5.3.1c.2-1.6-1.8-3.2-3-3.8l.7-.5-.9-1.2.6-1.1.7-.3c1.8 2.1 2.6 1.6 5.2 1.6 1.4.7 3.5 2 4.4 3.3 2.3.2 7.2.6 9.3 1.7 1.8 1 6 2.9 7.5 4l2.1 2.7 1 1.3zm-101.6-10.9l-.6-.6.1-.7c.6-.5 2.1-1.7 3-1.7l.6.2.3.5-.9 1.3zm38.5-.6l-.5-.7.4-1c.7-.4 2.6-.4 3.4-.3l.5.4c-.7.8-2.7 1.8-3.8 1.6zm-50.1 1.3l-.1-.7c.8 0 2.1-.9 2.7-1.4l.8.2.4 1 .8.4.3.6-.3.3c-1.2.2-3.6.4-4.6-.4zm71.5 3.4l-1.2-1.3-1.1.1-.3-.3.3-.8 1.5-1 1 .2c.1.7.6 1.6 1.1 2.1l-.3.7zm16.4 3.3l-.4-.3V304c-.6-1.3-3.5-1.2-3.8-2.1l.1-.6.7-.1 1.4.7 2.6-.2.8.8c-.5.7-.9 2.1-.9 2.9zm-36.1-1.7v-.8c.7-.7 1.8-1.4 2.7-1.7l.6.1v.7c-.6.6-2.3 1.9-3.3 1.7zm68.3 6.9c-1.2 0-4.9-.6-5.4-1.9l.2-.5 5 1c.5-.6 2.1-.6 2.8-.5l3.6 2.6-.4.5c-2.4.8-3.9.6-5.8-1.2zm56.4 37.5l-.5-.5.7-.6 2.4.1.4.5-.3.4zm-2 13.8l-.7-.6.4-.6 3.6-.4.2.4-.3.4zm-110.2 43l-.6-.8c.2-.7.9-3.8 1.6-4l1.2-.1c.4.9-1.7 4.1-2.2 4.9zm-29.5 28.3h-1l-.4-.8.6-1.8-.4-.7.2-.5.8.2 1.2-.7.3.6zm4.9 98.6l-1-2.4.8-2.2.7-.3c.1.9.9 2.9 1.8 3.3l-.8 1.3zm2.5 10.2c-.4-1 .3-2.3.3-3.4 0-.7-.7-1.7-.2-2.3l.6-.2.7.8c.4 1.8.4 4-1.4 5.1zm8.1 17.5l-.7-.2-.4-1.2-.5-.3c0-.9-.4-2.2-.9-2.9l-1.3-.7c-1.4-1.8-.4-4.2-1.6-6.1l.5-.5 1.2.1.4.7c-.8 5 4 7.6 4.1 8.8.1.6-.3 1.8-.8 2.3zm8.7 11.2l-.5-.2-1.1-1.6c.6-.8.1-3.3-.2-4.2h.7c.5 1 1.4 5 1.1 6zm-5.6.8l-.8-1.3 3.5-1.1.4.8-.3 1.5-.9-.4zm6 0l.5.5c.3.7.7 2.8.2 3.5l-.7.2-.7-.3-.7-1.8.2-.7 1.1.4zm4.7 28.4c-.6-1.1-1.5-2.3-2-3.4-.6-1.4-.1-2.2-1.6-4l.2-.9 1.1.1c1.6 1 1.6 2.8 1.8 4.5l1 .4.4-.6-.2-1.8.6-.8c.1-.6-.2-1.6-.6-2l-.7.5-.4-.2-.6-4.7c-.6-.8-1.6-1.6-2.5-2.1l-1.2.6-.5-.2v-.7l1.6-.5.5-2.2-1.3-4.1.9-1.1.5.2.1.4c.6 2.1 1.1 4.4 1.8 6.5.2.6.9 1.2 1.1 1.8.6 1.6 1 3.4 1.5 5.1 1.4.2 3.8 6 4.4 7.2l-.4.8-1 .1-.7-.7c-.5-.3-1.5-.1-2 .1l-1.1 1.5zm8.9 4.9l-2-2.2c-.5.1-2.1.1-2.4-.4 0-.7.5-1.8 1-2.3h1.4l1 .6.6 1.9c.6.2 1.2 1 1.4 1.6l-.3.6zm275.8-437.5l-.7 1.1c-1.7 2.8-1.3 2.2-1.5 5.3l-.3.5c-1.1-.2-3.9 1.7-4.7 2.3l-.1.9 1.2-.2.5.6.9-.3c.2-1.1.2-1.6.9-2.4l1.6-.2c-.3.8.2 2.3.6 3-.5.8-6.5.4-7.6.3-.5 0-1.3-1-1.5-1.4-.8-.4-4.7.5-5.4.8-.1 0-2.6 1.7-2.9 1.9l-1.1-.1-.2-1.2c.6-1.8 1.7-1.6 2.3-2.3 2.1-2.4 2.9-5.8 3.8-8.8.9-2.7 2.2-3 2.3-6.4.1-3-2.9-6.3-2.5-8.5.3-1.8 2.1-4.4 1.2-6.3.8-2 2.3-3.8 3.5-5.6.3-.5 1.6-.8 2.3-1.9 1.4-.8 4.6.1 6.2-.1 1.3-.1 2.3-1.4 3.8-1l.6-.4.7-1.8c.3.6 1.3 2.4 2 2.6.4 1.8 1.6 3.5 1.8 4.4.4 1.3.3 2.8.6 4.1.5 2 1.7 4.1 2.5 6l-.2.3-.7-.1-.9.9c-.5 1.2-.3 3.5 0 4.7-1.9 1.6-4.5 6.6-4.9 9.1-.8 0-1.6-.1-2.3.4-1.7 2.2-.5 4.4-1.6 6.1l-.9.5-.4-2.7c1.5-.8.9-3.3 1.9-4.4zm-72.5 81.7l-.3.2-3-2.2c-.6 0-1.3 0-1.9.1-.7.1-3.1 1.4-3.4 2l.1.9.7.1.8-1.5.4.3.5 1.9.9.1.5-.4 1 .2.3-1.1 1.4-.6.2 1.4-.5.8c-.9.3-4.6 1.9-5.5 1.7l-2.5-3-4.5-.5-1.9-2.1c-.9-.3-2.4-.1-3.2.5-.2.1-1.4 1-1.5 1-2.4.9-5.8-2.5-8-.2l-1.5-.1c-.4.3-2 1.2-2.6 1-.7-.3-1.6-3.9-1.9-4.7 0-.5.4-1.4.8-1.7 2.2-.5 5.2-.4 5.2-3.4 3.1.2 6.1-1.8 6.6-1.8 1.9-.1 3.7-.3 5.5-.8.5-.2 1-.8 1.5-1.1 1.6-.7 2.6-.6 4.1-1 1.3-.4 2.8-1.5 4.3-.3l2.3-.8 1.1.9c1.8 0 2.5-.2 4.3.9 2 5 1.8 3.4.3 9-.2 1.2-.4 2.8-.6 4.3zM901.2 384l-2.2-.6v-.5l.6-.3 2 .3.3.6zm-24.4 3.9l-.3-1.7-1.1-.1c-.7.4-4 1.9-4.8 1.4-1.5-.9-3-2-4.5-2.9-1.9-1-4-1.8-6-2.7l.1-.4c2 .3 3.5-1.2 5.3-1.5.2 0 2.6.4 3 .4 1.7 0 3.6-.5 5.3-.4 2.1.1 4.4.8 6.5 1.1l4.7-1.8c1.8.7 3.7.6 5.7.7l1.3 1.4c.8-.2 2.1-.1 2.8.2l.5.8 1.1.4-.4.5c-.3 0-.6.1-.8.1-6 .3-9.8-.5-14.4 3.6-1.3-.1-3 .4-4 .9zm-52.6 91.6l-.8-.8c-1 .2-2.6-.6-3.3-1.2v-.7l1.4.7 2.1-.2 2.9-2.5.8-.1.3.4c-.3 1-2.6 2.1-3.4 4.4zm23.1 2.1l.4 2.5.9-1.2.4.1c.4 3.3.7 6.7 1.1 10.1.2 1.4.6 2.8.9 4.1l3 13.6c.3 1.3 1.4 3 2.7 3.5l-.2.6-2.3-1.1-.8.1c-2.6 2-3.5 8.5-4.3 11.6-.1.5-.1.9-.4 1.4-.2.4-.5.5-.8.9l-1.5 1.7c-1.8 1.5-4.5 2.6-5.9 4.6-.8 1.2-.8 2.1-2.1 3l-2.2-.3c-1.4.5-1.5 2.4-2.1 3.5-.5.9-1.7 1.7-2.3 2.6-.4.6-.5 1.4-.8 1.9-.4.6-3.3 4-3.4 4.3-1 2.1-2.2 7.1-2.9 9.5-.4.3-2.6 1.6-2.6 1.7-1.4 1.6-.8 2.7-3.9 4.5-4 2.4-4.1 1.2-7.3 1.7-1.5.3-3 1.1-4.6 1.3-1.1.2-2.5-.2-3.6.1-.6.2-.9.4-1.5.7l-3 1.3c-1.3.7-2.2 2.2-4.1 3.1l-1.3-.1c-.5-.6-1.1-1.9-.9-2.8l-.3-.3-1.2-.1-1 1.1.2.4 1.1.1.5.6c-.6.8-2 .8-2.8 1.3-.9.5-2.5 2-2.9 3-.3.8-.2 1.8-.6 2.5-.8 1.8-2.5 3.2-2.3 5.4-1.1 1.2-2.6 3.5-4.2 3.8l-.6 1.2c-2.5.4-2.7 3.9-5.3 4.3l-3.2-.6-1.4.9c-2.8-.7-3.9 0-6.2 1.4-.4.2-.7.3-1 .6-1.3 1.3-3 4.4-4.1 6.1l-1.7.7-.9-.3-.5-1c0-1.1 2.4-2.6 2.6-5.5-.6-1.3-1.8-4.5-1.6-6 .6-2.1 3.2-1.5 4.6-1.9.8-.3 2-1.1 2.8-1.6l2.4.7 1.4 1.4c1.1.4 2.8-.3 4.7.4 3.2-1.1 5.1-4 6.7-6.8v-1.1l-2.1.9-.9-.8c.3-1.4 4.4-4.1 5.5-6.6l-.4-1-2.8-.6-.5-.7.2-.5c2.5-1 3.8-3.7 6.6-4.1.6-.5 1-1.7 1-2.4.9-1.3 3.2-.6 4.4-.9.8-.1 1.9-.7 2.7-1l.5.2-.5 1 .7.1c3.6-1.5 5.8-3.2 8.2-6.2.3-.4.5-.5.7-.9l.4-2 .2-1c-.4-.7-2.6-1.2-3.3-1.3l1-1.4-1.7-2.3.2-.4c1.3-.3 2.7-.7 4-.9 2.4-.3 14.8-.5 16.2-2.1.8-1 1.6-2.3 2.3-3.3-.2-.6-1.1-3-.7-3.5l1.6 1.2.5-1.1-.6-3.1-1.5.6-.4-.6.6-1 3.5-1.6c.1 0 .8-.1.9-.1 4.3-.4 7.8-.8 12-1.6 3-.6 7.7-3.9 8.5-6.9l-.1-.8 1.5-.9.3-.9c3.9-.9 1.4-9.1 0-11.1l.2-.8c-.7-1.8-1.9-2.8-3.2-4.3l-1.4.2-.7-1.4-1-.4-.2-1.4-.7-.2c-.4-.5-1.5-2.2-1.4-2.9l-.7.1-.7-1-.4-.1-1.2 2.3-1.2-1.7-.3 1.5-1.2-.7-.8.1-.3.5v2.1l-.6 1.1-.6.2c-.3-.8-.1-2.3.3-3.1l-1-.4-.6 1.3-1.2-1.2-.2 3.3-.6.3-.5-.8.3-1.5-.5-.1c-.4.7-1.4 2-2.3 2.1l-.6-.1 1-1.2-.4-.2-1.3.6-5.4-.8.3-.9 2.3-1.6.1-.5-.4-.4c-.8.4-2.5.9-3.4.7l-.6-.9-.8.1.1-2.1-1.2 1.8h-1.2l-.2-.3c.6-.5 1-1.8 1-2.5l-.3-.9c-.2.7-1 1.6-1.7 1.8l-.7-.2-.6-.9.1-1.1-.3-.6.8-.6-.2-.9.8-1.4 1 1.1h.5v-1.2l.9-1.2 1-.1.6.3.5-.3.1-1.4 1.2-.8h.6l.2.4.7-.1 1.1.8v-1.9h1.2l.1-.7-.5-.9.5-1.2-1.9.9-.2-1 .8-.9-.5-.6c-1.5-.4-3.2-.8-4-2.2v-.7l.6-.9.4.2.5 1.5.6-.6 1-.1 1 1.3 2.7.4.9-.8 1.5-.2.7.3-.5 1.4.5.5-.2.6.9.2.6-.9-.1-1.3 1.3-1.3-.9-.3v-.5l3.3-3.9c1.1.3 2.6.8 3.8.8l.4-.4c-.5-.3-2-1.4-2.1-2l-.7-.2-1.5.6-.4-.2 1.2-2.1-.5-2.1.8-.4 2 .6.3.5-.1.9.8 1.5c1.3 1.1 5.2.7 6.8.4l1.2-1.1-.2-.9c.3-1 3-1.2 3.7-.7l.7.9 1.1.2 1.1-1.1-.5-.8c1.5-.3 4-1.7 4.7-3.2l.8.2 1.3 1.6c0 .1.1.9.1.9-.8 2.1-1.8 4.2-1.9 6.5l-.7.5c-.4-.7-1.7-1.3-2.5-1.3l-.5.7-.5.1c-.5 1.4-.8 4.2-.1 5.6zm-103.2-38.9v.5l-2.8 1.7-.3.6 1.4 2.5.8-.4-.8-1.7.1-.8c1.3-1 2.6-2 4-2.9 1.1-.2 4.5-.3 5.4.6.9 2.5 2.4 2.9 4.6 3.8.5.2 1.2.6 1.7.8.3.1 2 .1 2.2.2 1.1.5 2.4 1.7 3.5 2.3l3.1.1c.6.4 1.7 1.4 1.7 2.2 1.4.5 5 5 5.4 6.1-1.2 2.7 2.9 5.5 5.3 5.2l.4-1.2.8-.4 1 1 1-.1.3.5 1.2.4.4 2.8c.2.7 3.1 2 3.9 2 .7-.3 1.1-1.7 1.4-2.3 1-.3 3.2.3 4.1.7l.4 1 .5.5c.6.2 1.8 0 2.3-.4l.5-.6-.2-.5h-.6l-.7.6-.4-.2.3-1.7c1.4.1 5.6.4 7-.1 3.4 4.6 13.7 4.1 14.8 5.4v.4l-1.3.1-.8.7-2 .1-1.2 1.2-1.2.2c-1.8 1.2-2.3 4.6-3.5 5.2-2.2-.2-5.2 2.9-5.9 4.8-1.4.6-3.8 1.9-5.3 1.6l-.4-.3c.2-.7.2-2.6-.5-3.2l-1.9-.7.1-.6.7-.5h1.6l.6-.8v-.3l-1.7.1-.3-1.5c-2.5-.2-3.3 2.9-4.9 3.4-1.2-.2-2.9.1-4 .6l-.4.7-2.5 1.3-.8-.3 1.1-1.1-1.9-.8-.4-.6h-1l-.7-.7-2.4 1.4-.9-.3c.5-.2 1.8-.9 2-1.5l-.7-1.2-.5 1.3c-1 .2-2.8-.2-3.8-.5l-.6-1.6-.7-.5-.7.7-1-.7-.7 1c-1.3-2.5-.6-1.8-2.5-3.3l-1 .3-.8 1.5-.8.1-.2-.5.8-1.5-.5-1.1.7-1.5-.4-1.3-.7-.2-.5 2.4-1.5 1.6-1.6.4-2.2 3.9c-.9.2-3.3.5-4.1 0l-.7-1.2c.3-1.2 1.6-6.3 1.6-6.7 0-2.3-3-7.1-3.9-8.9-.9-.2-1.8-1-2.4-1.5l-2.1-1.8c-1-1.2-2.4-3.4-3.1-4.7-.9-1.8-2.4-7.2-3.2-9.5l.2-.5c1.7-1.2 1.5-1.1 3.7-1.3zm36.1 42.5l-.7-1.1 1-1.3.8-.1.3 1.3-.4 1zm32.7-1l-.3 1.5-1.2.3-.2.5-.6-.2-.5-1.2-.9-.4.8-.6.5.4zm-36.7 3.8l-2-.2-.5-1.3.5-.7 1.3-.1c.4.4 1.4.7 2.1.7l.4.5zm164.3 12.9L929 497c-2.2-.8-6 .1-8.2.1 0 0-.9-.4-1-.5 1.3-1.5 4.3-1 6-1.2.6-.1 1.4-.5 2-.5.1 0 4.1.4 4.2.4 1.9.5 3.9 1.4 5.8 2.1.7 1.5 2.5 1.7 3 3.1zm-35.3 5.5l-.9-1.4 1.4-7.1 2.2-.1 1-1.1 1.2-.2.9.5.8 2.4-.9.1-1.5 3.6-2.1 1.7-1.2 1.5zM734.6 515l-.7-.1-1.2-1.7c-.3-1.4-.1-3.1.2-4.4l.8-3.4c.8-2 4.2-4.8 5.7-6.3.1-.1.2-.1.2-.1 2.4-1.4 5.5-2.9 7.5-5 .9-1 1.6-2.3 2.4-3.3.6-.7 1.6-1.4 2.1-2.2.7-1.1 1.3-2.7 1.9-3.9l.7-.6.7.2.3.7c-.1.1-.5.6-.6.6-.2.5-.2 1.1-.4 1.6-.5 1.2-1.2 2.4-1.7 3.5-.1.1-.5.6-.6.7-2.6 3.2-4.5 5.8-6 9.7-2.3 1-5.8 3.2-6.9 5.6-.6 1.2-.7 2.8-1.3 4-.2 1.1-1.9 4.3-3.1 4.4zm19 5.4l-1.1-1.2-.1-1.1.7-.4.4 1.4.4.2.7-1.2.6-.3.3.7c-.2.6-.7 1.3-1.1 1.8zm10.5 7.3h-.6l-1.8-2.2.1-.9h.6l1.3.8zm32.9 24.5l-.8-.2-.6-.7-.1-1.1.7-.9.6.1zm310.6 15.1l-.4-.5c.6-.7 2.1-1.6 3-1.7l.5 1-.2.9zM778 568.7l-.4-.2c.3-1 2-2.4 3.1-2.3l-.2.9zm230.1-13.3l-.3-1.4c.9-2 4.6-5.4 6.2-6.8.3-1.8.4-2.9 1.7-4.4l-.1-.9c1.1-1.3 1.8-6.3 1.4-8l.4-.1 1.5.5 2 2.5 1.1.3c1.3 4.2 7.1 2.2 7.6 0l-.2-1.3c.6-.1 2.3.6 2.8.9.3.2 1 1.1 1.2 1.2.1 0 1.6.5 1.8.5 1.2.2 3.3-.5 4.3.4l5.1 4.1.7 2.5c1.5.6 3.2 1.5 4.7 2 .7.2 1.8.1 2.6.2.6.1 1.3.4 2 .6l.8 1.1c1 .5 2.5.5 3.5.6l1-1 .1-1.1-.7-.7-1.5-.2-1 .7-1.3-.2-.7-1c0-.5.4-1.3.8-1.5 1-.2 4.3.9 5.2 1.4.3.2 1.6 1.2 1.8 1.3 3 1 6.6.2 9.6.5 1.5.1 4 2.1 4.9 3.2h4.1c4.1 0 4.4 1.2 6.9 4l1.1.3 1-1 .8.1c.9 1.1 5.8 6.6 7.6 6l1.1-1.1 1.4-.1c1.1 1.5 3.1 2.9 4.7 3.7l.5 1c-.7 1.4-1.2 3.2-1.3 4.8-.6.6-1.2 1.4-1.8 1.9-.9.7-2.1 1.1-3 1.8-1.2.8-2.4 1.9-3.5 2.8l-1.6.1c-.4-.3-5.8-3.8-5.8-3.8-.6-.8-1.2-1.8-1.8-2.5-.6-.6-1.7-.9-2.4-1.6l-9.6-8.9c-.1-.1-1.2-.6-1.4-.6-3.9-1.8-8.3-1.1-12.3-.3-2.1.4-4.3 1.4-6.3 2.1-.1 0-1.9.2-2.2.2l-.6-.4c0-.7-.4-2.4-1-2.9-2.2-.4-4.2-1.1-6.4-.8l-1.8-1.3c-3.6 1.9-7.4 5.4-10.2 8.3-1.8-.1-4.2-3-5.5-4.1-1.3-1-3.4-2.4-4.8-3.1-5.3-2.9-9.2 1.6-14.9-.5zM746 612l-.9-.5-.2-.8.5-1.2c1.6-1.3 2.8-1.1 4.8-.5l1.6-.7.3.3c0 .7-.2 2-.6 2.7l-3.4-.6zm106.6 104.7l-.6-1.6c.3-.7 1.2-1.6 2-1.9l.4 1.2c-.2.7-.5 1.5-.8 2.1zm192.9 34.4l2-2.1 1.1-.1c1 .6 2.3 3.2 2.7 4.2 1.8.8 2.4 1.9 3.7 3.2 1.8 1.8 4.6 2.6 7.1 2.8l2.4 3 .2 1.7c-.5.5-1.5 1.7-1.5 2.5l-1.8 1.7-1.8.2-3.7.3c-1 .3-5.2 3.4-6.1 4.1-1.5-.5-2.8-.2-4.3 0-2.4.3-3.1 1.1-5.3 2.3-.9.5-2.6 3.7-4.5 4.7h-.9c-.2-1-.6-2.2-.7-3.2-.1-.7.2-1.6.1-2.3-.9-4.9-2.8-8.3-5-12.7-.3-.5 0-2 .3-2.5.2-.1 1.8-1.5 1.9-1.5 1.6-.5 3.8-.8 5.3-1.5 2-.9 5.5-4 6.9-5.8.6.2 1.4.6 1.9 1zm-125.6 97.3c.6-.9.7-2.6.4-3.6l2.5-2.7.1-1.6c1.2-1 2.2-3.7 2.5-5.2 1.2.7 2.7.5 4 .8.3.1.7.5 1 .5 2.1.5 4.6.2 6.7.2 2.4 0 4.6-.3 6.9-.6 4.4-.6 5-.1 8.3-3.4.9-.9 2-2.2 2.7-3.3.8-1.3 1.1-3.3 2.4-4.2.4-.1 1.2-.3 1.5 0 1.4 3.9 3.2 8 5.5 11.5 1.2 1.8 4 6.6 6.3 7.3 1.4.5 3.1.2 4.5 1 .5.3.9 1 1.4 1.4.8.5 4.3.7 5.2.7.5.6 1.8 1.6 2.7 1.5l.5-.4 2.1-.1c2.2-1.5 4.3-3 6.8-4 1-.4 2.7-1 3.7-1.2 1-.2 2.3.2 3.3.1s3.9-1.5 4.4-1.7c3.3-1.5 7.4-2.8 9.5-6 .1-.1.5-1.5.5-1.7.3-.9.1-2.4.1-3.4l2.4-3.4.3-3.2c1.4-2.3 5.3-3.1 6.4-5.2.7-1.2.9-2.9 1.6-4.1.1-.2 1.4-1.4 1.7-1.7.1-.2.3-1 .4-1.2.5-.9 1.8-2.3 1.8-3.4s-.8-3.1.7-3.7c2.1-.9 10.2-5.4 12.5-2.8 2.1 4.2 1.5 7 1.3 11.6-.1 1.6-.1 3.4-.3 4.9-.2 1.5-.8 3-1.1 4.6-.6 4.2-.5 8.5-1.9 12.5-.7 1.9-1.6 3.8-2.3 5.8-.6 1.8-.8 3.8-1.5 5.5-.9 1.9-3.1 2.2-4.6 3.3-2.3 1.8-6.7 6.1-8.2 8.7l-1.2 3c-1.2 2.9-2.6 7.1-3.9 9.6-1.5 2.8-5.1 4.4-6.1 6.6-.3.8-.4 1.8-.7 2.7-.5 1.4-1.9 5.6-3 6.6-.2.2-.3.2-.5.3-1.4.8-2.2.6-3.8.6-3.6.1-7.6-.2-11.1.7-.7.2-4.6 1.7-4.9 1.7-1.9.2-5.9-.4-8-.5-1.4-.1-5.1 2.8-6.1 3.7l-1.3.1-.6-.6.1-.6 2.4-2.3-.1-.6-1-.1c-2.4 1.5-6.4 1.1-9.1 2.1-2.3.9-4.7 2.6-6.8 3.8-1.2.7-4.2-.9-5.5-1.1-.1 0-1.5.3-1.7.3-1.3.2-2.8.4-4.1.7-1.5.4-3 1.3-4.5 1.7l-3.2.4c-.6.1-1 .3-1.6.2-2.1-.2-6.6-1.3-8.7-1.8-.8-.2-1.6-.8-2.4-1.1-2.1-.7-9.4-2.5-11.1-2.7-1.7-.2-5.3-.1-7 0-1.5.1-3.5.9-4.9 1.5l-2.3 1c-2.4 1.4-2.2 4.4-5.1 5.5-2.2 0-4.2-.7-5.5-2.6-.1-.1-.7-1.8-.8-2.1-.1-.2-.7-1.7-.7-1.8-.2-2.5.1-5.1-.2-7.5 0-.1-3.3-6.6-3.3-6.6-.9-1.4-2.5-2.5-3.1-4.1l.9-1.2c5.7.2 7.6-.5 11.3-4.5l1.7-1.8c.1-.2.3-.2.4-.4.9-1.7.5-5.4-.4-7-.7-1.3-3-3-4.4-3.4l-.9-1.7.1-.4c.9-.5 4.6 1.4 5.5 1.8.8.4 1.6.4 2.4.4l.4-.2c1.1-.5 2.6-1 3.6-1.6 1.7-1.1 3.2-3 4.9-3.9.1 0 4.6-1.5 4.9-1.5 1-.2 2.1-.1 3-.3 1.2-.2 2.3-.8 3.3-1.1zM419.7 409.6v-.8c.7-.7 1.8-1.4 2.7-1.7l.6.1v.7c-.5.6-2.3 1.9-3.3 1.7zm-2.8 4.3l-1.8-.7-.1-1.9.3-.1c.1.8 1.1 2.1 1.6 2.7zm-14.9 12l.5-2.2 2.4.4zm9.1-6.2l-1.7 1-1.5-1 .1-.3c.7.3 2.4.4 3.1.3zM394.6 442l.5-.5.7.7.1 2.4-.5.4-.4-.3zm-.4 10.6l-.9-1.7 1.1-1.5.3.1c-.4.7-.5 2.3-.5 3.1zm-3.1 9.4l-.6-1.6c.3-.7 1.2-1.6 2-1.9l.4 1.2c-.2.7-.5 1.5-.8 2.1zm-196.8-10.8l-.8-.3.9-1.2 1.2-.2.6.6-.7 1zm198.8 25.5l-.6.7-.9-1.3.2-1.2.7-.4.7 1zm-689.3-786.8l-1.1-.7.8-1.1 1.3-.2.5 1-.3.7zm9.2 6.8l-1 .9-.8-1 .2-1.2 1.1-.1.6.6zM561.9 358l-.6-1.1.4-1.1c1.6-.7 2.8-2.4 1.8-4.1l-1.1-.6-.2-.5.7-1-.8-1.4 1.9-1.3.2-.9-.3-.3-1.4.3-.2-.5c.8-.7 1.6-1.5 2.4-2.2.4-.3 1.1-.5 1.5-.9 1.2-1.1 4.4-4.2 4-6.1l-.6-1c-.8-.3-2.2 0-3 .4l-.7-.8.9-1.5c-.4-.6-1.9-3.3-1.4-4.1h.9l.4-1.1c-.4-1.1-3.2-9.8-4.6-10l-2.2.6-1.7 2.1-.8.2.1-2.1 2.6-1.7.7-2.4-.6-.6c-2.2 0-3-.9-4.5-2.2-1.4-.2-3.6-.1-4.6-1.3l.5-.7-.4-.9-2 .7-.7-.6-1.3-.2-.7-.9c.8-.5 1.8-1.9 1.9-2.8-.6-3.1-2.7-4.5-5.9-4.3l-1-2.3 1.1-4c-.3-1.8-2.3-3.9-4-4.5l-.3-1.5c-.3-.6-1.7-1-2.3-1.1l-.4-.7c.9-1.5 2-4.2.4-5.7.8-2.3-1-5.1-2.4-6.7-.6-.7-1.6-1.2-2.2-1.8-.1-.1-1.6-3-1.7-3.2l1.2-.4c.6-1.5.8-3.5-.6-4.5l-1.8-.6c-.6.1-2.4.5-2.8.9-.6 2.1-1.7 3.4-3.5 4.6h-.6l-.1-1.3c1.5-2.6 2.7-5.3 3.4-8.2.1-.4-.1-1.2-.2-1.6l.9-1.6-.4-4-.5-.2-.6 1.5-.9-.1-.7 1.5c-.8.3-2.4 1.2-2.7 2.1l-1-.2-.6.8-.4-.9 1.3-2.6 1.6-.8c.1-1.8 2-1.8 1.2-4.8l-.6-.1c-.9 2.1-1.9 4.2-3.4 6.1-.2.2-1 .7-1.2.9-.7.8-1.2 1.9-1.8 2.8l-.3-.1c.5-.9.6-2.2.6-3.2 1.4-1.6 2.6-3.7 3.5-5.6l-.1-1.8.5-.3.8 1.2.6.1.2-.5-1.6-2.2-1.1-.1-.3.6-1.3.6-.3-.7c.3-.4.8-1.4.6-2l-1-.5-.4-.6.1-.4c.7.5 3.1.6 3.9.5l.4-.6c-.1-.3-.5-.7-.8-.8l-.9.4-.6-.2 1.6-1.4c.8 0 4.1 3.3 4.9 4l-.5 1 .5.7.7-.5.6.1c.9 1.4 1.8 3.2 2.9 4.4.7.8 1.7 1.5 2.4 2.3l.4 1.1c.4 2.8.7 7.7 2.8 9.8.6.6 1.5 1 2 1.6 2.1 2.2 4.1 4.6 6.1 7 .2.3.4.7.6 1 .9 1.2 3 3.1 4.2 3.7 1.5 2.6.9 5.7 1.4 8.5.3 1.5 1.1 3 1.4 4.6.3 1.5 0 2.9.9 4.7 1.2 2.1 4.5 7.3 6.1 9.4 1.1 1.4 3.2 3 4.1 4.5 1.7 3 3.3 6.2 5.1 9.1 1.3 2.1 3.1 4 4.4 6.1.3.5 2.7 8.6 3 9.4l-.8 1.4 1.8 1 1.6 5.2c.3 1.1-1.8 3.9-2 5 0 .1-.1 5.8-.1 6.1 0 .1.5 1.7.5 1.9 1.2 4.4 2.1 9.1 4.2 13.1l.7.3c0 .1.1.7.2.8 2.7 3.5 6 8 9.9 10.4 1.1.1 2 .2 3-.4l1.1.4c2-.2 8 .1 9.7.9 1.7 3.9 3.3 1.9 4.8 4l1.3.1 1.1-.6c2.9 4.1 3 5.2 6.8 7.5 1.9 5 6.2 8.7 9.9 12.4 1.8 1.8.1 4.5-.6 6.4l.2.5 1.7.2.7.5c.6 3.5-2.7 5.8.8 9.1l-.6.9 1.2 1.2.1 2.6c.1.1 1 1.6 1 1.6l1.5 8.4c.1.5-1.3 2.5-1.6 2.8-.7.4-1.9.8-2.6 1.1-.8.3-1.6 1.1-2.3 1.6-.7-.8-1-2.8-1-3.8-2.8-1.8-1.9-2.1-2.3-5-.2-1.8-1-3.8-1.8-5.4l-.5-.1-.2.7c.3.8 1.8 4.7 1.5 5.4l-.5.5c-2-6.2-3.9-12.4-6.2-18.5l-2.2-5.9-3-5.1c-2-3.3-3.8-6.7-6-9.9-.7-1-2.9-4-4.1-4.6-2.2.1-5.2-1.2-6.8-2.7l-1.2-.8c-5.1.4-13-.7-17.6-2.2-1.1-.4-2.3-1.2-3.4-1.7s-2.4-.6-3.4-1.4c-1.9-1.4-2.5-3.8-4.5-5l-2-.1c-.3-.2-2.6-2.2-2.7-2.2-1-.5-2.1-.9-3-1.4-1.7-1-3.4-2.5-5.1-3.4-1.3-.7-3.1-1.2-4.5-1.8-1-.4-2.1-1.2-3.1-1.7l-.5-1 .3-.8c.9-.6 2-1.2 2.3-2.3l-.4-1.2.5-.5 1.1.5.4-.6-.1-.8.7-.6.7.3.5 2.9c.3.5 1.1 1.3 1.7 1.5 1.2-.1 2.6-.4 3.9-.4 1.4 0 2.1.7 3.6 0l-.2-.6.4-1.1 2.4-.7.6.4z"/></defs><g clip-path="url(#svg-b)" transform="translate(100.094 118.703) scale(.15314)"><path d="M-920-100h3000v500H-920z"/><path d="M-920-600h3000v500H-920z"/><path d="M-920 400h3000v500H-920z"/><path d="M-920-600V900L379 150z"/></g></svg>