<svg width="1024" height="1024" viewBox="0 0 270.933 270.933" xmlns="http://www.w3.org/2000/svg" fill="#e83c4b" stroke-linecap="round"><path d="M124.771 38.82l-.081-.08v-.104l.106-.026.027.13z"/><path d="M137.611 42.593h-.12l.026-.105.145-.157.105.026-.051.21z"/><path d="M167.482 47.52l-.16-.053-.026-.104.195-.105.094.078-.025.105z"/><path d="M175.772 51.005l-.092-.183.09-.105.108.026.053.105-.052.105z"/><path d="M146.55 51.267l-.107-.183-.005-.42.171-.183.11.498-.026.105z"/><path d="M146.873 51.949l-.05-.079.01-.105.107-.026.052.105-.038.105z"/><path d="M181.484 51.975l-.107-.026.036-.21.08-.079h.107l.027.131z"/><path d="M30.265 65.497l-.081-.078.025-.105.094-.052.079.078-.026.105z"/><path d="M59.602 68.72l-.079-.156.026-.105.104-.053.12.184-.064.105z"/><path d="M87.515 69.586l-.095-.21.039-.131.107-.026.078.078-.035.236z"/><path d="M66.192 70.477l-.011-.105.09-.079.03.026-.016.105z"/><path d="M77.119 72.442l-.036-.052.078-.079.107.026-.025.105h-.096z"/><path d="M19.54 80.435l-.094-.052-.013-.105h.211l-.01.105z"/><path d="M232.125 80.304l-.118-.105.01-.105.106-.052.092.079.003.104z"/><path d="M13.33 87.354l-.089-.027-.07-.078.064-.079.147.079z"/><path d="M12.196 89.581l-.126-.079.044-.052.094-.052.069.104z"/><path d="M12.876 90.813l-.089-.026-.01-.105.039-.105.067.052.01.131z"/><path d="M11.158 104.178h-.049l-.078-.183.045-.079h.095l.068.157z"/><path d="M17.801 116.102h-.12l-.027-.236.078-.105.095.236z"/><path d="M16.655 133.32l-.069-.079.026-.079.132.027.018.104z"/><path d="M15.506 135.416l-.029-.13.094-.132.065.105-.038.105z"/><path d="M16.574 148.179l-.186-.105-.016-.105.094-.052.107.052.04.105z"/><path d="M24.246 159.264l-.066-.079.026-.13.065.104z"/><path d="M8.04 173.494l-.197-.079-.043-.157.092-.052.188.105-.016.157z"/><path d="M18.267 174.49l-.147-.079.026-.105.091-.052h.107l.079.079z"/><path d="M21.082 176.22l-.016-.105.054-.105.079.078-.013.105z"/><path d="M21.591 176.875l-.319-.079v-.105l.316-.105.068.105z"/><path d="M32.117 180.203l-.147-.157.09-.053h.108l.014.105z"/><path d="M37.511 184.003l-.332-.157.026-.105.211-.026.134.183z"/><path d="M46.512 190.371l-.134-.105.052-.105.12.027.043.104z"/><path d="M58.722 204.916l-.241-.132.012-.104.107.026.186.105z"/><path d="M150.511 209.633l-.12-.158.067-.104.104.052.01.079z"/><path d="M160.659 210.497l-.189-.104-.013-.131.12-.053.199.105z"/><path d="M155.6 211.52l-.042-.105.052-.079.107.026-.025.105-.035.026z"/><path d="M230.322 213.747l-.001-.183.145-.158.107.027v.104l-.144.184z"/><path d="M122.03 219.8l-.095-.052v-.104l.09-.08.108.053-.013.105z"/><path d="M68.243 228.134l-.068-.078.025-.131h.107l.079.078-.039.105z"/><path d="M132.76 36.408l-.068-.026-.047-.079.023-.13.068-.027.08.026.046.079v.131z"/><path d="M127.099 36.801l-.293-.078-.188-.158-.07-.34.038-.21.065-.105.107-.026.246.053.272.21.056.418-.082.132z"/><path d="M169.231 38.06l-.052-.027-.049-.026-.034-.053.049-.078.042-.026.08.026.027.13z"/><path d="M168.734 38.164l-.065-.052-.064-.105.031-.053.047-.026.105.026.042.105-.05.079z"/><path d="M168.138 38.95l-.24-.13-.109-.21.087-.42.093-.078.108.052.052.079h.107l.158-.158h.105l.154.289-.058.157-.156.157-.106.184z"/><path d="M138.07 43.536l-.134-.157v-.105l.01-.105.024-.104.013-.027h.14l.143.027.105.078.016.105-.106.21z"/><path d="M172.46 49.905l-.086-.053-.058-.052.033-.053.045-.026.052-.026.055.026.014.105z"/><path d="M177.354 50.271h-.058l-.02-.052.03-.079.037-.026.044-.026.06.026v.053l-.014.026-.032.052z"/><path d="M177.211 51.005l-.032-.026-.021-.026-.042-.105.04-.052.072.052.018.079z"/><path d="M172.277 51.293l-.238-.104-.042-.105.038-.131.12-.053.212.053.078.078.017.158-.08.078z"/><path d="M161.307 51.713l-.066-.026-.036-.053-.006-.052.041-.053h.109l.036.079z"/><path d="M159.548 52.21l-.12-.104.054-.079.182-.13.107.025.016.105-.025.131z"/><path d="M161.076 52.473l-.081-.079-.027-.105.065-.078.107.026.014.105-.052.105z"/><path d="M156.75 52.84l-.048-.027-.036-.026.001-.052.018-.053.05-.026h.055l.03.053.017.052-.04.026z"/><path d="M164.97 52.97l-.15-.052-.029-.105.039-.104.106-.053h.105l.094.079.014.105-.082.078z"/><path d="M188.902 54.229l-.173-.105-.15-.315.065-.078.426.157.042.105-.025.105z"/><path d="M188.664 55.513l-.01-.053-.046-.078-.005-.053.005-.052.116.052h.024l.061.053-.018.052-.02.053-.05.026z"/><path d="M226.83 60.544h-.098l-.094-.078-.027-.105.017-.131.037-.105.195-.052.237-.027.081.079.001.105-.103.157-.133.131z"/><path d="M105.878 61.566l-.12-.157-.027-.105.025-.104.105-.027.081.105.014.21z"/><path d="M105.59 61.697l-.082-.078-.04-.105.039-.105h.104l.055.079-.012.105z"/><path d="M104.239 62.012l-.134-.131.025-.21.078-.078.107.026.094.052.04.105-.025.105z"/><path d="M23.23 62.903l-.027-.026-.107.026-.094-.052.051-.21.094-.053.108.21z"/><path d="M29.96 65.707l-.104-.052-.068-.105.065-.105.107.026.08.079.014.105z"/><path d="M4.222 66.074l-.094-.131.013-.105.09-.052.095.052.026.105-.025.105z"/><path d="M24.728 66.467h-.04l-.155-.079.038-.104h.12l.092.052-.026.105z"/><path d="M87.714 68.04l-.081-.105.025-.131.078-.08.107.053.027.105-.052.131z"/><path d="M62.633 68.668l-.014-.026-.074-.052-.016-.105.094-.053.068.08v.104z"/><path d="M210.16 68.537l-.153-.105-.055-.078.026-.131.106-.026.105.026.03.105z"/><path d="M72.94 70.24l-.027-.104-.094-.053-.084-.157-.05-.157.025-.105.091-.078.16.183.07.157.041.157-.039.105z"/><path d="M210.472 69.795l-.135-.105-.079-.078.063-.105.08-.079.1.027.1.078.03.131-.055.105z"/><path d="M73.672 70.634l-.065-.053-.016-.052.025-.105.049-.026.071.026.056.079-.013.105z"/><path d="M72.88 70.791l-.082-.079-.021-.052.02-.052.053-.079h.055l.039.052.013.105-.025.053z"/><path d="M75.889 70.87l-.094-.079.064-.183.12-.027.107.053.053.13-.078.08h-.107z"/><path d="M52.678 71.158l-.12-.079-.026-.104.077-.08h.107l.082.08-.013.104z"/><path d="M211.79 70.372l-.067-.026-.265-.236-.018-.341.107-.052.212.13.148.315z"/><path d="M65.885 71.053l-.15.105-.172-.157-.07-.21.052-.314.107.052z"/><path d="M51.263 71.472l-.134-.078.013-.105.107-.052.091.078.016.105z"/><path d="M52.046 71.577l-.04-.13.078-.08.095.08-.026.104z"/><path d="M74.715 71.472l-.202-.13.026-.053.214-.052.078.078-.012.105z"/><path d="M51.748 71.708l-.124-.026.012-.105.092-.052.068.078z"/><path d="M219.63 72.94l-.008-.052.002-.027.03-.052.035-.052h.047l.052.026-.005.052-.013.026-.045.053h-.032z"/><path d="M27.796 74.198l-.053-.079h-.107l-.236-.078-.177-.131.014-.367.088-.289.078-.078.107-.026.201.157.213.236-.032.314z"/><path d="M224.9 74.04h-.039l-.08-.078-.041-.105.09-.21.116-.13.16-.08.107.027.188.157-.125.21-.165.157z"/><path d="M226.297 74.67h-.078l-.107-.079.06-.105.098-.052.092.078.03.105z"/><path d="M226.496 74.88h-.036l.015-.106.05-.078.03-.026.074.026-.04.105-.05.078z"/><path d="M228.545 75.141l-.174-.21-.016-.104.107-.026.186.13-.025.132z"/><path d="M24.34 80.487l-.464-.052-.466-.183-.026-.105.065-.079.568-.026.677.131.003.105-.052.078z"/><path d="M24.766 80.618l-.081-.104.052-.105.133.026-.026.105z"/><path d="M19.626 81.09l-.146-.078-.003-.131.12-.053.107.079.013.105z"/><path d="M16.622 86.043l-.134-.026-.055-.079v-.13l.09-.08.121.053.082.21z"/><path d="M1.963 86.62l-.147-.053-.016-.105.08-.078.105-.026.055.078v.105z"/><path d="M14.234 87.537l-.201-.131-.054-.21.078-.078.12.026.108.183v.105z"/><path d="M237.709 86.698l-.108-.052-.012-.105.011-.105.078-.105.107.027.079.078.003.105-.052.105z"/><path d="M14.132 88.061l-.199-.052-.293-.158-.04-.104.026-.105.13-.053.212.105z"/><path d="M15.349 88.585l-.127-.13.067-.106h.105l.055.105.026.079z"/><path d="M12.533 89.607h-.035l-.156-.13-.093-.158-.058-.131.051-.079.095-.078.145.078.162.131.061.131.034.131-.052.08z"/><path d="M244.656 92.542l-.038-.052v-.079l.066-.078.044-.026.041.052-.04.131z"/><path d="M243.012 92.778h-.172l-.081-.078.008-.105.082-.105.12-.026.09.052.099.105-.039.105z"/><path d="M243.988 93.198l-.067-.027-.034-.078.017-.053.046-.026.055-.026.056.052.038.053.007.078-.034.027z"/><path d="M11.698 96.342l-.068-.052-.023-.053.01-.104.093-.053.095.053.026.104-.065.08h-.031z"/><path d="M244.472 95.66h-.106l-.04-.104.072-.078.09-.053.043.026.048.053.01.078.004.053z"/><path d="M10.678 100.876l-.108-.183.197-.262.014.21z"/><path d="M10.737 104.676l-.044-.052-.008-.08.004-.078.035-.052.077-.079.038.026.025.08.019.078-.052.105z"/><path d="M14.263 108.764l-.13-.105-.02-.078.025-.026h.069l.033.026.022.078z"/><path d="M14.625 109.157h-.134l-.07-.105v-.026l.028-.026h.056l.09.052z"/><path d="M14.604 109.839l-.105-.053-.042-.078.006-.053.006-.026.12.026.013.131z"/><path d="M257.525 108.03l.025-.13.199.104.154.21.102.236-.052.105-.104.052-.107-.026-.151-.236z"/><path d="M14.767 110.18h-.03l-.093-.053-.026-.105.074-.026.072.026.026.105z"/><path d="M257.522 108.974l-.055-.105.012-.105.04-.026.051-.052.069.078-.013.131z"/><path d="M15.475 110.834h-.068l-.08-.104-.002-.105.051-.026.069.026z"/><path d="M15.988 111.883h-.081l-.014-.105.078-.105.095.079.026.105z"/><path d="M16.477 112.983l-.096-.026.013-.105.091-.052z"/><path d="M16.558 130.28l-.078-.079-.013-.105.078-.078.107.052.068.079-.067.104z"/><path d="M17.152 130.778l-.043-.027v-.236l-.096-.183.182-.314.293.235h.214l.108.21-.077.21-.345-.026-.198.13z"/><path d="M16.871 132.77h-.05l-.106-.027.026-.105.106-.078h.105l.081.078-.065.105z"/><path d="M16.372 134.446l-.062-.052.022-.079.057-.052.07-.026.085.026v.105z"/><path d="M15.826 135.73l-.056-.026-.047-.026.034-.13.081-.106.058.027.02.052-.01.13z"/><path d="M268.315 140.238h-.042l-.032-.052-.021-.053.007-.052.016-.053.044-.026.05-.026.043.052.038.027-.002.052-.01.052-.039.053z"/><path d="M268.493 140.474l-.086-.026.01-.053.019-.052.016-.053.025-.026.042.026.034.027-.026.078z"/><path d="M18.421 142.623l-.094-.105.052-.105.093-.052h.105l.081.078-.025.105z"/><path d="M18.331 142.964l.237-.158h.107l.082.105z"/><path d="M18.362 143.409l.013-.052-.082-.079.081-.079.092.053.003.105z"/><path d="M17.213 145.427l-.107-.026.065-.105.107-.026.026.105z"/><path d="M16.645 145.715l-.081-.105.08-.078.092.052.013.105z"/><path d="M17.175 145.715l-.052-.052.065-.105.08.079z"/><path d="M16.714 145.951l-.068-.131.107-.026.052.078z"/><path d="M16.464 146.16l-.133-.025.012-.105.105-.053.211.026.016.105z"/><path d="M15.802 146.528l-.053-.184.078-.078h.107l.04.104-.065.105z"/><path d="M16.138 146.868l-.134-.078.039-.21h.107l.16.131-.068.105z"/><path d="M23.501 156.067l-.306-.157.013-.105.093-.079h.225l.094.079.092.21z"/><path d="M24.098 158.923l-.12-.052-.027-.105.091-.052.107.026.027.105z"/><path d="M24.008 159.212l-.069-.132.094-.052.053.105z"/><path d="M23.898 161.649l-.108-.026-.068-.132.052-.104h.107l.094.078v.105z"/><path d="M22.44 167.86l-.121-.158.013-.104.078-.079.094.079.04.104-.013.105z"/><path d="M6.482 172.97l-.13-.053-.079-.157-.019-.13h.107l.157.052.15.13.003.105z"/><path d="M7.071 173.284l-.107-.052.13-.183-.053-.21-.107-.079.039-.105.104-.026.228.079.055.13-.025.237-.146.157z"/><path d="M7.379 173.677l-.037-.13.01-.105.091-.053.107.026.066.105-.026.105z"/><path d="M30.572 173.73l-.053-.131-.107-.053-.014-.104.105-.027.201.158-.025.104z"/><path d="M7.69 174.28l-.082-.078-.04-.131.066-.08.107-.025.078.078.03.105-.003.105z"/><path d="M19.185 174.883l-.047-.105-.047-.026-.027-.105.078-.079.12.027v.105l-.033.078-.016.026z"/><path d="M6.785 175.276l-.184-.079-.07-.078-.017-.21.052-.105.094-.052.124.157.04.236z"/><path d="M21.893 176.482l-.119-.08-.041-.078-.055-.078.093-.079.238-.079.107.053.053.078v.105l-.065.105z"/><path d="M22.668 177.058l-.095-.236.09-.314.092-.053.211-.026.095.21-.052.078z"/><path d="M32.048 179.967h-.107l-.118-.052-.055-.105.08-.079.118-.026.107.052.04.105z"/><path d="M34.859 181.251l-.024-.026-.084-.053.023-.13.098-.08.13.027.068.105.003.105z"/><path d="M35.168 181.566l-.047-.079.023-.052.074-.053.08.053-.025.104z"/><path d="M34.67 182.22l-.082-.104.025-.157.107-.053.092.079.016.105z"/><path d="M38.64 183.924l-.121-.078-.042-.105.093-.079.148.184z"/><path d="M41.157 185.077l-.08-.078-.027-.105.064-.079.107-.026.053.105-.026.105z"/><path d="M46.223 189.296l-.212-.026-.066-.105.156-.13.108.026z"/><path d="M47.263 191.13l-.132-.078-.029-.13.091-.08h.107l.08.08-.004.183z"/><path d="M49.03 194.276l-.16-.053.025-.105.094-.078.092.078.042.105z"/><path d="M54.062 201.666l-.189-.184.052-.104h.107l.094.078z"/><path d="M233.434 206.645l-.064-.052-.044-.053-.005-.052.018-.053h.107l.019.053.007.052-.006.053z"/><path d="M153.87 209.816l-.105-.052-.121-.21.078-.079.211-.026.095.053.014.235-.018.053z"/><path d="M155.292 210.026l-.2-.157-.013-.105.173-.131.21-.079.053.105-.012.105-.117.21z"/><path d="M204.919 210.104h-.04l-.031-.026-.024-.078.014-.053.025-.052h.056l.051-.026.047.052.047.026-.07.105z"/><path d="M217.597 210.104l-.12-.026.037-.183.146-.131.094.052-.064.21z"/><path d="M150.26 210.89l-.03-.052-.021-.105.02-.104.072-.027.071.027.085.078.026.105-.11.052z"/><path d="M185.305 211.231l-.044-.13-.01-.106.078-.078.108.078.042.079-.067.105z"/><path d="M164.367 211.782l-.077-.027-.038-.157.127-.052.085.026.052.079-.05.13z"/><path d="M176.036 212.41h-.055l-.011-.052-.021-.052-.006-.079h.1l.006.105-.008.052z"/><path d="M182.008 213.197l-.081-.131-.04-.158.033-.052.057-.026.043.026.052.026.034.079.021.052-.056.105z"/><path d="M168.092 213.354l-.108-.052-.026-.105.013-.105.117-.026.081.078-.01.079z"/><path d="M65.846 214.297h-.09l-.063-.104.044-.131.081-.027.1.027.008.078-.026.079z"/><path d="M167.486 213.852l-.082-.131.013-.105.094-.052.104.026.011.105-.049.104z"/><path d="M237.277 213.59l-.032-.079-.009-.105.105-.026.094.053-.051.13z"/><path d="M238.399 214.245l-.052-.052-.043-.027-.005-.052.005-.052h.053l.054.026-.003.105z"/><path d="M114.024 220.325l-.18-.026-.02-.053.14-.157.079.026.123.053.024.078z"/><path d="M98.877 227.348h-.089l-.084-.026-.052-.052-.027-.053.065-.078h.105l.084.052.089.079z"/><path d="M99.541 227.505l-.06-.078-.032-.105.051-.052h.053l.098.026.101.105-.112.052z"/><path d="M68.812 228.056l-.12-.026-.079-.053.065-.078h.114l.085.052z"/><path d="M67.781 228.396l-.105-.052-.084-.105.013-.105.107-.026.105.026.094.027.002.104-.027.105z"/><path d="M68.515 228.79l-.228-.08-.134-.183.013-.104.065-.079.137-.079.168-.052.154.079.098.157.016.105-.026.105-.107.078-.075.053z"/><path d="M84.69 228.763l-.086-.104-.034-.132.078-.078.107.026.02.105-.006.105z"/><path d="M85.42 228.868h-.104l-.105-.052-.068-.079-.016-.105.107-.052.086.026.112.053.043.104z"/><path d="M58.638 231.515l-.094-.079.051-.104.094-.053h.105l.03.105-.081.105z"/><path d="M59.99 232.93l-.199-.13-.053-.106-.188-.105-.053-.104.211-.079.108.026.316-.052.038-.105-.052-.105-.212-.052-.003-.105.158-.157.104-.21-.147-.21-.474.341-.24.053-.386-.236-.03-.105.082-.079.448-.21.117-.21-.092-.078h-.107l.025-.105.078-.104.212-.079.158-.21.09-.314-.332-.105v-.105l.445-.367-.054-.236.199-.104.78-.131.478-.184.208-.314.278-.21.013-.131-.215-.131.487-.314.25-.236-.04-.105.146-.157-.043-.158-.081-.078.237-.236.663-.105.211-.079.052-.21.158-.183h.677l.32.079.065.105.189.13.556.027.202.157.545.289.363.471.734.55.139.55-.25.29-.061.314-.159.157-.107-.026-.109-.315-.147-.105.03.341-.075.498-.206.734-.091.078-.225.053-.296-.21-.065.105-.064.236-.552.629-.331.052-.185.105-.212.026-.04-.105-.003-.262-.362-.314-.183.157-.435.236-.236.393-.832.42h-.107l-.107-.08-.109-.314-.198.079h-.105l-.055-.079h-.107l-.091.079-.207.472-.038.21-.068.104-.211.131h-.225l-.091-.052-.056-.236-.108-.026-.078.104v.105l-.183.262z"/><path d="M121.26 218.648h-.172l-.87.471-.478.079-.582.157-.107-.026-.423.026-.44-.13-.982.104h-.583l-.466-.157h-.238l-.818.42-.24.13h-.57l-.452-.026-.634.052-.357.289-.332.052-.753.42-.116.209-.245.786-.198.131-.319-.105-.758-.026-.182.157-.345.027-.145.183-.212.079-.09.078-.026.105-.094.079-.332.052-.405.42-.24.078-.345-.052-.41.262h-.357l-.767.34-.421.446-.316.183-.116.184-.662.393-.052.105-.025.236-.078.078-.647.184-.184.314-.104.053-1.801.471-.479-.026-.21.184-.212.078-.904-.026-1.28.445-.32.053-.473.367-.572.078-.437-.104-.185.157-.331.105-.172.157-.449.183-.05.341-.323.865-.35-.367-.694-.55-.703.026-.906-.262-.586-.21-.45-.026-1.09-.184-.466-.183h-.12l-.678-.21-2.31.105-.276.21-.475.183h-.358l-1.365.367h-.344l-.187-.13-.107-.027-.673.183-.465.105-1.208-.105-1.245.21-.534-.105-.397.131-.953.105-.453-.157-.211.078-.573-.026-.12-.078-.428-.498-.108-.053-.548-.445-2.407-.708-.319.053-.051.13-.092.053h-.12l-.294-.21-.439-.078-.846.236v.104l-.183.315-.104.078-.28-.183-.72-.131-.092-.079-.095-.183-.061-.839.583-1.572-.042-.131-.212-.052-.055-.08.089-.55.076-.524-.392-.602.051-.236-.119-1.39-.476-1.257-.112-.629-.256-.42-.056-.314-.316-1.153-.71-.786-.095-.34-.296-.21-.109-.315-.186-.157-.444-.55-.08-.21-.922-.734-.243-.55-.538-.524-.013-.053-.066-.078-.644-1.992-.097-.655-.203-.498-.737-.498-.179-.865-.349-.393-.12-.026-.332.052-.491-.105-.105.027-1.662-1.756-.867-.655-.484-.682-.245-.55-.174-.157-.04-.105.013-.105-.323-.445-.013-.105.038-.131-.03-.105-.57-.21-.094-.13-.267-.184-.282-.42-.974-.445-.504.052-.357.184-.467-.472-.107-.026-.065.105h-.12l-.428-.472-.6-.157-.138-.603.09-.42-.017-.314-.242-.393-.164-.472-.589-.76-.31-.393-.588-.576-.496-.524-.188-.131-.027-.131.039-.105-.105-.026.01-.236-.082-.184-.294-.236-.04-.104.01-.394-.242-.235.024-.393-.055-.105-.238-.079-.135-.34-.107-.08-.32-.104-.042-.262-.217-.498h-.227l.089-.603-.07-.314-.173-.158-.19-.445.052-.079-.07-.524-.216-.524-.444-.42-.068-.104-.028-.472-.163-.157-.44-.157-.16-.184-.133-.052-.57-.079-.32-.157-.318-.026-.414-.157-.389-.577-.439-.079-.027-.104.117-.341-.203-.42-.095-.052-.462.105-.28-.183h-.12l-.198.104-.04-.13.182-.158-.177-.524-.002-.393-.108-.21-.069-.314-.176-.131-.36-.472-.107-.026-.141.445-.78.289-.452.13-.091-.052-.15-.183-.092-.053-.211.027-.094-.053-.583-.026-.094-.079.103-.21-.014-.157-.068-.078-.638-.236-.65.052-.16-.183h-.212l-.081-.079-.014-.13-.189-.132-.026-.105-.079-.052-.107-.026-.608.262h-.107l-.013-.105.116-.21.013-.104-.066-.079-.107-.026-.078.078-.12.027-.069-.236-.375-.262.08-.21-.08-.079h-.108l.013-.13.198-.132-.082-.21.038-.104.02-.786-.068-.105-.277-.184-.7-.943-.612-.34-.055-.106-.004-.34-.306-.157-.436.13-.332-.052.039-.105.09-.052.068-.105.198-.13.052-.106-.056-.236.039-.104.078-.08-.027-.13-.255-.393h-.211l-.602-.288-.096-.446-.53-.105-.363-.34.013-.105.078-.105.025-.105-.043-.445.025-.236.276-.236-.043-.315.355-.55.01-.157-.066-.079-.215-.157-.254-.262-.105-.053-.12.027-.263.183-.714.367-.04-.105.026-.13.367-.29-.013-.104-.16-.157-.65.183-.092-.052-.12-.184-.772-.183-.055-.079-.72-.471-.324-.577-.092-.052-.107.052-.038.105-.406.55-.662.21-.447.524-.087.472.027.21-.034.733-.156.184-.107.026-1.25-.446-.173-.157-.214-.026-.224.236-.06.471.125.577.057.734-.103.21-.25.235h-.107l-.134-.236-.332-.078-.318.13-.118.027-.201-.105.025-.13-.105-.053-.24-.053-.053-.105-.003-.104.093-.236.091-.105.013-.105-.055-.105-.108-.026-.806.288-.16-.183-.082-.21.077-.471-.241-.236-.212.026-.094-.079-.082-.21.235-.55.538-.707.104-.21 1.45-1.1.25-.053 1.035.052.16-.078.314-.315.06-.864-.162-.341-.616-.63-.204-.68-.081-.08-.555.29-.027-.106.375-.995-.006-.76.246-.603.088-.786.323-.865.14-.682-.056-.314.039-.105.185-.157.035-.367.223-.393-.043-.236.025-.183-.12-.21.025-.105-.017-.42.34-.497.263-.262v-.105l-.178-.393-.172-.131-.053-.105.01-.105-.096-.34.077-.472-.095-.315.274-.498.039-.21-.212-1.179-.268-.419-.134-.314-.202-.105-.04-.105.039-.21-.622-1.362-.388-.341-.12-.183-.362-.315-.229-.236-.237-.026-.318.131-.333-.131-.24-.21-.118-.026-.322-.105-.346-.314-.017-.21-.082-.314-.212-.053-.173-.13-.081-.21.037-.315-.111-.42-.107-.052-.316.079-.069-.21.198-.262v-.105l-.216-.262-.426-.13-.19-.315-.306-.262-.436.052-.12-.052-.38-.891-.267-.21.154-.681-.056-.105.037-.577-.107-.026-.305.105-.053-.079.052-.104.908-.97.92-.812.34-.63-.016-.104.104-.262.153-.786-.017-.446.038-.236.276-.21.012-.13-.173-.184-.332-.131-.081-.079-.083-.55.17-1.677-.29-1.18-.918-.524-.254-.235-.073-.603-.362-.446-.406-.838-.027-.131-.147-.236.026-.105-.017-.236.374-1.127.103-.419.279-.236.022-.157-.044-.577.065-.236.184-.157.039-.21-.2-.13.208-.472.46-.34.326-.735-.016-.21.038-.209-.013-.131.146-.026.078-.079.012-.262.129-.367-.086-.603.353-.497.103-.341-.08-.21-.227-.026-.766.288-.094-.105.05-.235.624-.289.038-.104-.016-.21.207-.55.205-.891.351-.891-.018-.525-.193-.733.073-.656.024-.104.035-.787-.255-.393.103-.419.334-1.363-.206-.576.062-.682-.086-.498-.336-.497-.174-.446-.137-.183-.013-.105.05-.367-.124-.55-.35-.394-.026-.104-.404-.682.025-.105-.16-.183-.423-.105-.055-.13.077-.21.13-.105-.105-.236-.368-1.075-.135-.236-.351-.419-.506-.655-.098-.524-.108-.184-.496-.524-.134-.236-.33-1.52-.094-.078-.042-.105-.251-.105h-.319l-.413-.236-.134-.236-.134-.104-.108-.21-.081-.079-.014-.13.09-.446-.03-.21-.482-.498-.013.026-.092-.078-.202-.288-.107-.053-.08-.21.048-.55-.233-.996-.12.027-.082-.105-.066-.21-.184.288-.133.053-.105-.026v-.105l.034-.105.147-.446-.014-.104.048-.315-.017-.472.399-1.467.32-1.232.164-.97.078-.104-.04-.105-.017-.34-.108-.315.32-1.442.065-.262-.016-.13.021-.499.14-.812-.159.026-.042-.105.08-.078.142-.446.078-.105.249-.524.254-1.074.25-.262.076-.341.008-.655.528-.367 1.12-.629.171-.288.755-.053.486-.288.447-.577.606-.471.026-.131-.056-.236-.081-.105-.186-.105-.319-.052-.16-.157-.016-.236.08-.079.388.236.758.393.105-.026.08-.079-.309-.236.107-.183h.422v-.105l-.336-.34-.225-.132-.029-.104.08-.105h.32l.53.183.107-.026-.082-.079-.04-.104.557.052.263-.236.09-.314-.693-.289-.092-.236.025-.13-.387-.236.026-.105-.03-.105-.091-.052-.055-.08.012-.104.078-.079.93.053.112.078h.074l.476-.235.793-.105.559.052.452.21.052-.079-.095-.288.064-.236.555-.34.34-.42.646-.236.095.053.33-.105.34-.446.143-.34-.014-.105.315-.184h.228l.185.105.344-.078.607-.42.169-.21.395-.235h.227l.173.157h.107l.035-.052.066-.053.15-.105.379-.34-.027-.21.078-.079.21-.052.16-.21-.114-.838-.241-.262-.056-.341-.225-.105h-.12l-.255-.262-.029-.105.04-.105 1.773-.262.054-.13.048-.446.223-.262-.108-.21v-.105l.194-.288-.346-.367-.068-.21.024-.34-.016-.105-.092-.079-.546-.157-.094-.078-.04-.132-.005-.655-.173-.183-.082-.21.026-.105-.056-.21-.094-.078-.9.053-.642-.525-.357-.026-2.405-.812-.094-.079.038-.105-.04-.104-.213-.08.051-.104.636-.314.59-.656.21-1.493.12-.184.103-.052.159-.157-.03-.236-.104-.053-.198.079-.58.603h-.104l-.094.078-.012.105.228.262.042.105-.103.314-.038.341-.289.184-.107-.027-.293-.183-.465-.21h-.319l-.094-.052-.013-.105.038-.105.379-.602.263-.184.025-.105-.12-.21.038-.104.198-.079-.147-.183.013-.105.107-.026h.37l.449-.079-.053-.079-.185-.104-.771-.21-.189-.131-.436-.105-.094-.079-.26-1.048.065-.105.551-.393-.052-.078-.319-.079-.173-.157-.319-.079-.094-.078.026-.105.104-.079.65-.157.011-.236-.465-.052-.08-.079-.083-.34.025-.237.305-.104.212.078.215.262.742.341.551.681.032.76-.035.446-.052.105-.197.13-.052.08.027.209.134.183.214.027.28.419.238-.105.201.131.212.053.091-.053-.001-.34.09-.08h.108l.323.499-.038.445.164.446.16.157.107.026.21-.105.45-.078.093-.053-.125-.681.166-.865.09-.13.436-.21.53.104.214-.026.078-.078-.018-.446-.036-.052.037-.027.356.053.176.157.285.839.423-.105.184-.131.075-.367.094.079.31.497.069.315.108.21.104.026.159-.157-.014-.21.026-.105.599.34.104-.025.12.026.12-.053.116-.34.065-.079.201.079.36.524.077.89.63.735.224.052.186.157.23 1.887.33 1.52.392.891.12-.026.284-.655.211-.184.107.053.79.76.425.236.082.078.745.315.293.183.212.105.37-.026.766-.341.332-.026.237-.079.171-.157.141-.577.195-.314.33-.157.862-.053.062-.052.141-.105.072-.105.185-.13.44.34.2-.053h.105l.322.367.105.053.214.026.091-.079.116-.34.408-.446.318-.078.225.052 2.204.314.265.105h.08l.104.026.676-.157 1.39.079.216.262h.225l.08-.079.22-.471.184-.21.12-.026.107.026.453.314h.105l.434-.419.293.157.318.027 1.02-.289.224.026.224-.078.556.026.623-.105.72.288.357.053.078-.105-.053-.105.078-.078.237-.079.094.052.281.367.535.498.878.289.44.419.426.026.87-.367.132-.21.25-.314.698-.288.515-.236-.164-.55-.195-.944.039-.13.171-.158.107-.026.225.052.361.288.25-.026-.108-.314-.003-.21h.12l.19.288.103-.026-.013-.105-.16-.288-.03-.262-.082-.236-.014-.21.077-.13.212.104.771.236.293.21.908 2.175.972.393.336.288.237.026.04-.104.391-.472.45-.157.428.393.413.157.203.55.08.079.24-.053.71-.34.413.183 1.27-.13.714-.446.365-.577.211-.078.145-.184-.003-.21-.618-1.1-.122-.315.078-.078.107.026 1.07 1.205.312.708.293.157.172.053h.253l.302-.184.224-.026.375.236.345.078.293.262.215.105.542-.157.107.026.359.289 1.038.366.465.105.4.446.56.236.265.21h.822l.12-.21.02-.472-.095-.34-.081-.08-.015-.288.792-.34.04.236.137.183.612.367.35.603.066.183.427.157h.21l1.149-.655.064-.314-.04-.105.052-.105.315-.21.119-.183.262-.262h.105l.21-.262-.053-.079.104-.026 1.583-.943.701-.132 1.511-.052.895-.576.25-.236.107.026.052.105-.022.21.092.078 1.006-.315.435-.052.052-.079.951-.34.37-.053.49-.157.52.288.57-.078.434-.21.345.053.335.183 1.335-.183.435-.21.263-.236-.057-.445.26-.76-.086-.446-.466-.367-.514-1.127.103-.21 1.071-.314.225.026.469.42.294.419.828.708.438-.08 1.438-.523.435-.288.223-.289.224-.105.407-.393.58-.445h.238l.197-.131.104-.21.198-.13.274-.446 1.978-1.049.37-.078.095.052.13-.052.407-.55.091-.053h.107l.16.131.246.681.439.131h.237l.212.105.45-.21 1.31-.157.705.158.793-.263.778-.34.834-.184.013-.104.577-.367.331-.079.542-.236.379-.472.317-.183.332.052.83-.655.327-.105.683-.68.585-.053.775-.42.606-.393.702-.157.686-.42h.118l.773-.917.432-.76.629-.602.089-.472-.014-.105.09-.21.522-.235.207-.105.14-.315.657-.602.155-.21.78-.288.213.026.429-.891.223-.288-.003-.105.183-.393.156-.184-.132-1.336.184-.131.167-.55-.222-1.075-.583-1.31-.07-.42.244-.838-.03-1.966.102-.367-.38-.917.223-.236.035-.262-.096-.445.025-.262-.177-.42-.352-.865.06-.602-.016-.105.342-.524.198.078.211-.104.563-.682.211-.052.388.314.457.577.186.157h.12l.184-.157.319.105.632-.289.276-.262.304-.157.434-.393.354-.079.411-.235.768.183.287-.524.172-.131.199.078.297.42.53.262.108.026.12.183-.167.42-.132.183.016.105-.183.393-.078.079-.025.13.052.08.714-.132.396-.236.559.08.104.052.022.76-.09.34.083.34-.124.787.07.446.255.366.095.08.49-.053.793-.131.79-.42.212.079.15.34-.05.341-.906.813-.052.105.014.104.094.079.151.472.092.052.253.053.108.078.108.236-.038.21-.198.157-.038.13.043.342-.274.419.056.236 1.078.655.006.707-.18.315-.12.105-.283.943.328.891.174.157.237.027h.36l.251.105.415.419 1.154.105.296.236.066.21.017.314.203.288.694.21.359.629.387.235h.585l.199.079.315-.105 1.234.053.517.288 1.104.262.438-.105.664.367.535.393.559.157.503-.105.836.236.345-.026.319.131.464-.105h.581l.612.105.345.184.874-.131.49.026.847-.157.479.104 1.695-.157.208-.078.12-.21-.018-.21.546.053h.103l.096.078.04.105.107.079.795-.131.66-.184.21-.105.546.079.319.157.878.315 1.288.21.983.366.237-.105.185-.157.252-.052h.582l.358-.026.094.052.332.079.306.13.754-.026.777-.576.767-.079.437-.21 1.11-.235.83-.524.567-.105.186.052.358.053 1.799-.446.317-.157.115-.472h.25l.852.21.479.236.975.733.07.341.211.105.345.026.093-.078.251.104.069.105.104-.052 1.42.13.198-.104.103-.21.302-.21.52.21.37-.288h.33l.105.052.324.525.016.104.816.76.281.394.44.104.834-.026.398.21.24-.026.226.262.03.21.254.288 1.009.288 1.195.026.345-.026.358.105.936.943.808 1.1.681.551.16.184.613.34.478.105.668.498 1.435 1.756.374.262.573.183.427.341.332.052.758.289h.676l.118.052.055.105-.129.288.001.105 1.019 1.127.907.707 1.502.236.574.42.654.34.252.262.604.708.24.105h.225l.12-.026.238.052 1.565 1.284 2.1.734.737.655 1.303.55 1.361.734.812.498.465.053.318-.08h.107l.092.106.013.105-.116.21.23.392 1.038.498.121.184.202.104.396-.13.745.262.304.104.321.079h.449l.307.21.679.157.104-.079.783.079.12-.026.398.288.319-.026.227-.053 1.008.105.105.079.226-.079.198-.105.294.367 1.13.315.438.026.332.13.982.027.8.367h.212l.448-.157.078-.079.025-.13.236-.29.28-.156.368-.131.053.078-.09.236.027.105.226-.131h.104l.04.13-.187.446-.2.42-.191.262.182.288.31.21.37.026.701-.131.094.052.027.105-.38.524.017.262.215.289.824.157.267.21 1.09 1.52.479.34.203.34 1.377 1.154.561.42.345.156.31.21.157.052.364.263.525.917.333.314h.214l.027.105-.103.21.455.602.795 1.206.75.655-.077.21-.093.052-.039.105.043.105.562.576.163.315.589.629.345.157.255.262.013.105 1.011 1.363 1.097.97 1.77 1.965.653.445.682.472.133.026.198-.078h.107l-.05.445.135.184.107.052.203.288.084.577.151.42.024.916.053.131.216.289.082.21.269.419-.013.104.204.498-.025.105.177.34.11.525.527.734.414.236.797 1.493.994 1.31.015.21.577.446.255.367 1.637 1.808 1.374.865.254.262.586.157.225.026.229.262.186.158.003.104.575.525.068.104.307.158.25.026.148.183.478.105.699.708.224-.079.957.21.077-.236.227.078.16.21.028.105-.026.105h-.211l-.065.078.096.341.066.105.191 1.808.287.786.553.813.006.576.138.34.347.446.152.472.377.55.176.184.027.21-.025.104.164.446.656.576.257.472 1.49 1.599.04.105.267.235.053.105-.034.393.34.787.056.393.099.288.212.131.105.105.03.13.635.97.093.236.297.42.019.471.53 1.258v.105l-.09.236.058.42-.065.13-.09.079.231.786.004.236-.192.55.007.76.165.472.047.865-.034.445.052 1.206-.047.314.31.682-.058.314-.052.157.025.21.324.524.076.917.292 1.258.165.42-.025.235.298.472.228 1.363.174.314-.023.472-.141.34-.085.656-.134 1.127.057.34-.18.63.084.445-.038.131.082.21-.115.314-.274.446-.321.864-.05.498-1.225 2.097-.319 1.205-.11.603-1.061 1.284-.257.682-.421.314-.077.236.058.445-.299.76-.365.446-.447.367-.396 1.441-.3.393-.345.053-.782 1.231-.076.341-.265.236-.103.21-.224.078-.53 1.232-.34.34-.286.734-.653.891-.126.682-.43.602-.103.341-.887 1.31-.861 1.442-.128.445-.353.446-.508.97-.091.078-.459.708-.365.498-.18.445-.185.131-.288.21-.193.55-.278.184-.322.838-.316.42-.208.157-.765 1.73.043.209-.37.288-.423 1.18-.29.55-.129.183-.41 1.415.144.891.109.21-.126.786-.288.367-.047.446.015.34-.193.42-.013.105.243.288.374.236.027.104-.158.158-.211.052-.117.184.057.366-.106.42-.054.157.051.446-.077.21.172 1.126.256.42.315-.027.176.157.108.027.078-.079.53.026.107.053-.051.104h-.107l-.052.079.081.079h.225l.212.052.122.21.03.21-.236.445.033.55.147.184-.282.917-.078.105-.211.026-.667.812-.226.131-.94.027-.435.235-.327.42-.318.105-.325.707-.313.498-.12.052-.118-.026-.106.053-.12-.027-.487.315-.212.026.084.42-.051.235-.978.42-.657.602-.305.158-.506.864-.104.105-.436.184-.418.786-.182.157-.224.053-.068.078-.035.236-.119.21-.45.236-.078.078-.051.21-.156.21-.288.288-.087.733.246.603-.115.315-.318.262-1.123.445-1.72 1.704-.46.183-.197.34-.417.604.013.104-.12.079-.051.105.03.105-.352.681-.094.105-.224.052-.249.315-.208.157-.145.21-.289.21-.284.943-.078.078-.224.079-.078.079.11.576-.089.42-.078.078-.255-.236-.56-.183-.461.157-1.327.052-.864-.314-.267.026-1.25-.105-.224-.052-.225.026-.12.053-.267-.105-.622-.053-1.02.184h-.437l-.947-.289-.582.08-.5.34-1.494.576-.96.839-.967.262-.844.367-1.761.524-2.142.577-2.267.157-.333-.105-.93-.21-.505.105-1.607-.13-.342.156-.68-.026-.104-.026-.294-.288-.12-.079h-.385l-3.427 1.153h-.104l-.091.026-.146.105-.342.55.004.21-.211.079-.332-.053-.476.393-.62.236-2.855-.078-1.755-.446-.212.053-.32-.131-.33.078-.959-.34-.224.026-.427-.105-1.262-.105-.226-.105h-.582l-.137-.052-.914.026-1.517-.367-.251.052-.146-.026-.595.131-.466-.026-.754.131-1.313.262-.103.184.03.21-.04.104-.093.053h-.104l-.177-.289-.16-.157-.332.079-.293-.158-.634.184-.322-.105-.424-.026-.688.157-.166-.131-.073.079-.213.078-.187-.13-.104-.027-1.485.262-.87.472-.703.157-.784-.131-1.788.367h-.319l-.212-.079h-1.565l-1.546.63-.219.654-.144.315-.353.472-.316.104h-.227l-.6-.314-.678-.131-1.101.21-.424-.131-.63-.55-.238-.053-.202-.131-1.424-.393-.362-.315-.583-.078-.189-.131-1.502-.446-.637.079-.255-.236-.519-.288-.65-.105-.428-.184-.147-.157-.918-.21-.2-.104-1.235.026-.462.026-1-.184-.703-.078-1.903-.681-.569.104-.24-.026-1.04-.603-.558-.104-.305.157-.224.026-.345-.026-.362-.262-1.225-.289-1.112.053-.146.157.043.131.186.105-.052.105-.423.157-1.05-.131-1.191.183-1.434.105-.396.236-.768.079-.171.183-.596.053-.572-.053-1.06.079-.193.078-.473.027-.645.078-2.562 1.363-1.043.393-.476.367-1.453.445-.344.315-.516.288H133l-.565.34-.543.132-1.176.55-.567.42-1.177.445-.343.315-.952.393-.103.34-.365.55-.091.053-.212.026-.594.42-.792.419-.132.183h-.437l-1.519.865z"/></svg>