<svg version="1.1" id="svg837" width="1024" height="1024" xmlns="http://www.w3.org/2000/svg" viewBox="0 0 1024 1024" fill="#e83c4b" stroke-linecap="round"><defs id="defs826"><style type="text/css" id="style824"/></defs><g id="g835" transform="translate(167.268 18.135) scale(.92886)"><path id="GD-06" d="M369.37 697.77l-3.52-29.21-16.47-34.12 12.31-11.78 1.28-6.22-42.54-26.84-44.87-6.06-41.18 7.37-20.99 25.61 25.6 19.35 19.4 28.12 6.47 41.35h48.49l55.14 4.97zm39.03-237.15l-4.4-11.87 9.2-9.66-13.52-7.69-8.8 4.91-4.56 11.54-11.11 15.06-1.6 4.26 9.68 6.22 9.19 7.28 4.8 2.29z"/><path id="GD-05" d="M264.86 705.34l-6.47-41.35-19.4-28.12-25.6-19.35-64.88 79.2 37.13 9.62 37.18 18.19 29.1 23.15z"/><path id="GD-04" d="M251.92 746.68l-29.1-23.15-37.18-18.19-37.13-9.62-28.49 34.78-1.28 34.85-40.79 78.85 68.89.04 58.2-1.65-3.23-21.5 22.63-28.11z"/><path id="GD-03" d="M188.23 1059.76l2.96-18.97 8-15.04 12.55-11.28-11.55-8.22-14.55-23.14v-34.72l12.94-44.63 25.86-8.27-9.7-13.22-9.7-39.68-58.2 1.65-68.89-.04-10.56 44.74 5.2 27.48 9.68 23.14 5.68 23.55-6.96 29.36-12.48 12.18-68.13 43.99 29.43 8.1 36.54 1.88 33.35-7.03 20.32-17.91 15.51 9.57 16.71 7.6 17.68 5.48z"/><path id="GD-02" d="M326.67 926.72l-35.95-27.92-30.71-13.23-35.57 9.92-25.86 8.27-12.94 44.63v34.72l14.55 23.14 11.55 8.22 16.8-8.26v14.96l84.21-44.32 10.88-17.99.64-16.44z"/><path id="GD-01" d="M368.49 710.31l-55.14-4.97h-48.49l-12.94 41.34-27.48 46.3-22.63 28.11 3.23 21.5 9.7 39.68 9.7 13.22 35.57-9.92 30.71 13.23 35.95 27.92 5.75-11.86 10.24-4.74 4.96-6.21-11.04-32.88-.64-15.71 13.12-30.75 8.63-13.91 4.72-14.07z"/><path id="GD-10" d="M799.62 19.17L770.67 24l3.04 10.16 8.56 6.39 9.2 2.46zM712.77 0l-30.31 26.54-21.35 47.76-25.43 34.73-42.47-12.94-11.59 19.49-2.88 8.03 20.63-.98 6.08.98-6.72 12.28-13.19 31.7-6.8 12.28 33.43-12.77 32.79-16.96 33.18-9.33 34.63 10.32 1.28-41.77 8-39.81 3.36-36.62z"/></g></svg>