<?xml version="1.0" encoding="UTF-8" standalone="no"?>
<svg
   width="1024"
   height="1024"
   viewBox="0 0 270.933 270.933"
   version="1.1"
   id="svg178"
   sodipodi:docname="gg.svg"
   inkscape:version="1.3.2 (091e20e, 2023-11-25)"
   xmlns:inkscape="http://www.inkscape.org/namespaces/inkscape"
   xmlns:sodipodi="http://sodipodi.sourceforge.net/DTD/sodipodi-0.dtd"
   xmlns="http://www.w3.org/2000/svg"
   xmlns:svg="http://www.w3.org/2000/svg">
  <defs
     id="defs178" />
  <sodipodi:namedview
     id="namedview178"
     pagecolor="#ffffff"
     bordercolor="#666666"
     borderopacity="1.0"
     inkscape:showpageshadow="2"
     inkscape:pageopacity="0.0"
     inkscape:pagecheckerboard="0"
     inkscape:deskcolor="#d1d1d1"
     inkscape:zoom="0.796875"
     inkscape:cx="511.37255"
     inkscape:cy="512"
     inkscape:window-width="1866"
     inkscape:window-height="1016"
     inkscape:window-x="1974"
     inkscape:window-y="27"
     inkscape:window-maximized="1"
     inkscape:current-layer="svg178" />
  <path
     d="M310.278 123.577l.14.003-.005.278-.137-.002z"
     id="path1" />
  <path
     d="M286.278 264.124l-.5-.053.003-.14.55-.127.043.23.09.048v.138l-.138-.003z"
     id="path2" />
  <path
     d="M285.799 264.237l-.003.138-.138-.003.003-.138z"
     id="path3" />
  <path
     d="M280.28 264.408l-.138-.006-.002.138h-.135l.002-.275.276.002z"
     id="path4" />
  <path
     d="M267.787 263.667l-.002.138-.138-.003.002-.138z"
     id="path5" />
  <path
     d="M240.116 436.379l-.41-.006.01-.682.136.002.068.138.133.275z"
     id="path6" />
  <path
     d="M265.34 11.077l.297.326-.808.32.07-.434z"
     id="path7" />
  <path
     d="M263.303 7.477l-.066.318-.586.093c-.11-.148-.555-.226-.718-.238l-.026-.218 1.137.07c.123-.085.193-.352.2-.485h.193l-.004.389z"
     id="path8" />
  <path
     d="M260.914 7.184l-.008.585h-.192l.007-.585z"
     id="path9" />
  <path
     d="M260.422 16.52c.11.14.174.607.185.777l-.39-.004v.196l-.389-.004c.13-.14.193-.789.205-.97z"
     id="path10" />
  <path
     d="M201.964 431.419l-.003.273-.272-.003.003-.273z"
     id="path11" />
  <path
     d="M201.405 432.233l-.41-.006v-.135l.138-.066.137-.068.066.137z"
     id="path12" />
  <path
     d="M200.315 431.947l.003-.275.272-.064.275-.066-.002.273-.273-.003-.003.137z"
     id="path13" />
  <path
     d="M253.15 7.492l-.004.189h-.193l-.063-.13-.518-.07.004-.196c.144-.097.414-.16.585-.186l.059.323z"
     id="path14" />
  <path
     d="M239.884 33.022l-.008.386c-.167-.03-.437-.1-.578-.2l.004-.196z"
     id="path15" />
  <path
     d="M234.283 30.63l-.004.388-.192-.003.003-.39z"
     id="path16" />
  <path
     d="M233.898 30.626l-.004.192-.192-.004-.004.197h-.193l.004-.393z"
     id="path17" />
  <path
     d="M228.867 29.407h.193v.196h-.193z"
     id="path18" />
  <path
     d="M175.134 23.512l.279.003.134.278-.415-.003z"
     id="path19" />
  <path
     d="M220.951 6.762l.385.007v.385h-.196l-.004.193c-.137.07-.541.248-.615.322-.019.019-.155.156-.166.156l-.582.193c-.14.044-.226.477-.393.578l-.389.092-.004.39c-.126-.13-.618-.123-.774-.104l-.196.193c-.804.151-1-.345-1.16-.4-.118-.041-.64-.182-.678-.3-.033-.304.067-.671.108-.971.31.096.644.16.966.204l.004-.39c.352-.044.663-.225.974-.377l-.004.385c.322-.038.663-.09.97-.185.104-.141.171-.415.2-.582.197-.089.39-.207.586-.285.255-.097.548-.137.782-.282z"
     id="path20" />
  <path
     d="M214.724 8.451c.296-.185.678-.196.974-.378l-.008.97h-.196v.193c-.17.108-.8.33-.975.286-.081-.056-.162-.208-.192-.297l.389.005z"
     id="path21" />
  <path
     d="M206.804 4.873l-.004.389a1.793 1.793 0 01-.778.093l-.093-.1c-.026-.16.049-.438.1-.582.234.189.716.059.97.008v.193h-.195z"
     id="path22" />
  <path
     d="M199.928 13.756h.196v.196h-.196z"
     id="path23" />
  <path
     d="M176.643 235.085v.193h-.196l-.063-.13-.127-.066-.004.193c-.166.03-.43.088-.578.189l.004-.39.771-.185.067.126z"
     id="path24" />
  <path
     d="M174.765 229.074l.192.388-.322.063-.067.13-.192-.004.003-.196.126-.063.067-.322z"
     id="path25" />
  <path
     d="M174.009 225.777l-.004.385h-.193l.004-.39z"
     id="path26" />
  <path
     d="M162.773 256.568l-.193-.004-.004.774c-.222.074-.5.362-.585.574h-.193l.004-.196.126-.063c-.096-.263-.088-.623-.118-.9h.385l.004-.386.578.008z"
     id="path27" />
  <path
     d="M161.632 220.064l-.096-.389h-.193l.008-.581.193.004-.004.385c.133.04.3.182.385.293l.385.104c.026.163.09.437.185.578l-.578-.1z"
     id="path28" />
  <path
     d="M163.459 220.853c-.226.018-1.223.03-1.352.185l-.004.386c.2.074.333.237.477.388.026.16-.051.434-.1.582l.385.004c-.066.196-.151.496-.073.704l-.126.066-.1.386-.193.192-.104.964.382.004c-.226.222-.093 1.089.185 1.259l.578.1-.004.39-.385-.197c.045.26.197 1.349-.011 1.549-.145-.1-.412-.17-.578-.2l.004-.389c-.24.07-.344.318-.581.385-.108.244-.193 1.185-.011 1.356-.149.048-.423.118-.582.092l-.189-.2-.771-.098-.004.385.77.007-.196.386.385.004c-.03.167-.096.433-.197.578l-.385-.004.09.582c.262.263.429.592.473.97-.466.015-1 .37-1.348.278-.097-.026-.296-.178-.385-.196-.297-.067-.66-.075-.964-.108l-.103.581c-.115.116-.3.256-.39.385-.077.115-.114.27-.196.386-.303.452-.578.403-.681 1.155l.381.1.29.29.088.97c.374.033.796.078 1.155.2l-.004.196-.577-.008c-.03.17-.097.434-.197.58-.167-.03-.433-.098-.577-.198-.012.182-.075.826-.2.967l.255.064c.21.055.589 0 .707.04.415.145.319.2.77.2.145.148.312.282.382.485l-.775-.008c.074.204.238.338.382.49l.77.195.193.197c.208.074.4-.145.578-.19.152-.036.415.005.582.009l.192-.196c.16-.023.431.051.58.103l-.105.77a.897.897 0 00-.292.39l-.386-.008c.04.322.093.659.185.97l-.385-.004.093.578.093.104c.277 0 .504.008.774.1l.093.39.092.096c.115.025.3-.027.389-.097-.048.348-.236.655-.392.962h-.384l-.004.385-.967-.007c-.03.167-.095.433-.196.578-.452-.23-.811-.393-1.348-.396v.384l.385-.188c-.03.166-.096.433-.197.578l-.578.092-.196.189c-1.374.289-1.26.286-2.13 1.145l-.318.026-.067-.126-.193-.004v.192l.126.07-.033.127-.582.574-.1.385c-.17.015-.63.078-.774.186.104.459.088.892.088 1.355l.092.1h.39l.096-.092a.56.56 0 00-.093-.389c.167-.011.634-.074.77-.189.116.349.072 1.537.375 1.648l.963.104v-.385l.582.004c-.06.419-.34.74-.396 1.16l-.386-.008-.007.967-.385-.004c.03.089.107.236.189.292l.578.004.192.196c.438 0 1.163.067 1.541-.085-.048-.148-.118-.422-.092-.581.452-.43.456-.448 1.067-.764l-.004.39h.193l.007-.58c.745-.088 1.064-.418 1.068-1.151.008-.77-.104-2.4.218-3.09.044-.044.267-.273.293-.288.122-.074.263-.115.389-.189.137-.081.53-.533.581-.674l-.385-.004c-.048-.148-.118-.419-.089-.578l.385-.386a1.762 1.762 0 00-.089-.774c.103-.122.199-.25.291-.384v-.193l.1-.096c.255.008.515.008.77.008.5-.497 1-.948 1.745-1.048.063-.471.048-1.093.205-1.545.659-.126 1.247-.467 1.93-.178-.283.337.136.789.184 1.163l.575.004.103-.578c.13-.126.256-.255.39-.38l.004-.583c.27-.26.437-.585.492-.963.252-.048.734-.181.963.007l.004-.385.385.004c.09.275.037.612.088.775.208.649.19.222.186.967l.19.196.029.318-.318.063-.004.196h.384l.067-.125.13-.063.003-.386c.164.03.434.096.575.197-.052-.278-.223-1.038-.471-1.164v-.389l.393-.381.1-.582.581-.093.096-.092.101-.581c.226.196.711.059.963.011l.004-.386-.385-.1c-.078-.11-.248-.255-.381-.292v-.196l.385.004.3-.348-.196-.233.078-.352.34.04-.247.244.18.253.327-.564c-.074-.518.03-1.115.077-1.634a1.853 1.853 0 01-.244.042l-.008.332a1.983 1.983 0 01-.777-.1c-.049-.4-.386-.766-.283-1.166l.197-.19.004-.388-.192-.193.004-.196.192-.193c.052-.192-.251-1.026-.273-1.356-.17.015-.638.078-.779.189l.008-.389h-.581l.004-.393-.77-.1-.005.482h-.192l.092-.379-.089-.203-.155.014-.042.467c-.296.06-.899-.133-1.15-.3.107-.11.122-.437.099-.578l-.192-.196c0-.041.01-.56.007-.578-.045-.134-.149-.256-.193-.389-.078-.252-.104-.526-.185-.778-.041-.13-.145-.256-.19-.39a1.57 1.57 0 01.004-.189l.193-.192c.048-.34-.078-1.286-.278-1.549-.275.11-.675.119-.963.085l-.193-.196-.77-.197c-.23-.059-.538.042-.771-.01-.163-.034-.412-.208-.575-.293l-.004.385c-.26-.126-.511-.263-.77-.393.059-.285.222-1.544.015-1.737-.285.14-.666.44-.967.181l-.092-.384-.19-.197z"
     id="path29" />
  <path
     d="M157.443 14.256c.24-.03.552.015.778.104l-.004.189h-.193l-.004.196c-.322.04-.66.096-.97.189l.004-.393c.133-.037.307-.178.388-.285z"
     id="path30" />
  <path
     d="M156.983 233.756v.389a.765.765 0 00-.581.285l-.385.093v-.385h-.19v-.196c.23.04.479.066.704.133l.067-.126z"
     id="path31" />
  <path
     d="M154.842 248.433c0-.463.015-.897-.089-1.356.145-.108.604-.17.775-.185l.1-.386.582-.574.033-.126-.126-.07v-.193l.193.004.066.126.319-.025c.87-.86.755-.856 2.13-1.145l.196-.19.578-.092c.1-.144.167-.411.196-.578l-.385.19v-.386c.537.004.896.167 1.348.396.1-.145.167-.41.197-.578l.967.008.004-.385h.385l.574.2c.082.225.122.533.089.774l-.385.385c-.03.16.04.43.089.578l.384.004c-.051.14-.444.593-.58.674-.127.074-.267.115-.39.189-.026.015-.248.244-.292.289-.323.689-.212 2.32-.22 3.09-.003.733-.321 1.062-1.066 1.151l-.007.579h-.193l.004-.39c-.611.316-.615.334-1.067.764-.026.16.044.433.092.581-.378.152-1.103.085-1.54.085l-.194-.196-.577-.004c-.082-.056-.16-.204-.19-.293l.386.004.008-.966.385.007c.055-.419.337-.741.396-1.16l-.581-.004v.385l-.964-.103c-.303-.112-.259-1.3-.374-1.649-.137.115-.604.178-.77.19.07.088.118.277.092.388l-.096.093h-.39z"
     id="path32" />
  <path
     d="M154.764 245.921h.193v.193h-.193z"
     id="path33" />
  <path
     d="M153.975 248.233l-.003.385-.385-.197.003-.192z"
     id="path34" />
  <path
     d="M154.857 234.515l.004-.39h-.193l-.004.386c-.577.045-1.17.148-1.737.278l-.096.093-.1.581-.385-.004-.004.385c-.423-.026-.945-.052-1.349-.204l.004-.385c.182-.144.708-.1.963-.185-.03-.085-.11-.237-.189-.289l-.385-.104.004-.388h-.385v-.386c-.619.252-1.019.06-1.537-.208l-.004.193-.77-.008.1-.385.581-.574.1-.582c.17-.025.434-.088.582-.185l-.004.385c.137-.037.307-.177.389-.285.17 0 .426.04.578.004.13-.033.26-.152.389-.192.04-.015.511.022.578.007.211-.052.33-.241.578-.19 1.282.267 1.119.167 1.922.982l.386.1c.04.545.27 1.023.37 1.549h-.385z"
     id="path35" />
  <path
     d="M141.632 175.33l.19.385-.775-.003.004-.386-.193-.004.004-.192z"
     id="path36" />
  <path
     d="M134.083 177.79l.189.385h-.39l.005-.389z"
     id="path37" />
  <path
     d="M132.501 182.62l-.004.386c-.167-.03-.437-.097-.578-.2v-.386c.145.1.412.167.582.2z"
     id="path38" />
  <path
     d="M131.671 189.97l-.77-.2.004-.39.578.009c.1.144.163.414.189.58z"
     id="path39" />
  <path
     d="M128.4 188.785l-.581-.004.008-.582h.189c.066.241.314.345.385.586z"
     id="path40" />
  <path
     d="M126.34 205.995l-.003.196-.193-.003-.063-.126-.126-.07v-.193l.193.004.067.125z"
     id="path41" />
  <path
     d="M120.717 210.251l.349-.27-.253-.111-.055-.378-.296-.049c-.119-.518-.319-.996-.43-1.526l-.018-.089.288-.055a3.48 3.48 0 01-.085-.552l-.352-.11c.007-.55-.081-.346-.185-.775-.022-.097.03-1.367.034-1.504.144.13.303.248.455.37l.255-.004c.026-.082.082-1.26.045-1.374l-.126-.263c-.045-.09-.233-.256-.256-.319-.189-.589-.463-1.134-.566-1.748-.238-.241-.27-.445-.382-.778-.004-.023-.181-.17-.189-.193-.174-.541-.237-.893-.863-.975-.014-.515-.218-.678-.282-.97-.059-.3-.059-.663-.088-.97.144-.093 1.545-.62 1.741-.664.026-.007.333.004.385.004l.196-.192.774-.093v-.385c.141-.115.604-.174.775-.19l.004-.388c.078-.023 1.06-.7 1.222-.79l.134.22c-.008.903-.011 1.807-.023 2.71-.004.386-.103 1.771.09 2.116.092.163.262.345.373.504.141.207.293.451.478.622.197-.026.593.278.719.396-.015.241-.045.5-.115.73.063.204.24.445.408.574.022.238.037.597.118.808.452.374.422.941 1.115.978-.052.352-.037.696-.152 1.034h-.581a6.177 6.177 0 00-.2.963l-.386-.004.4.537c.038.141.019.385-.059.511l-.155.116c-.09-.07-.274-.127-.386-.097l-.096.097-.022.092.044.078c-.082.4.078.844-.011 1.282a1.315 1.315 0 01-.57.33l-.227-.241c-.351.055-.537.103-.87.282l-.089-.023c-.296.178-.486.511-.878.5-.133.138-.26.286-.378.441-.178.133-.581.104-.774.03z"
     id="path42" />
  <path
     d="M118.643 203.232l-.004.192-.192-.003v-.193z"
     id="path43" />
  <path
     d="M117.502 212.945l.06.696-.268.508-.459.037-.004.196-.192-.004-.004.385-.127.067a.64.64 0 00.122.322l-.473-.122c-.182.155-.341.496-.415.715l-.756.348-.193-.507-.488-.07c-.138-.679-.223-1.779.01-2.453.367-.085.83-.518.994-.844l1.337-.352z"
     id="path44" />
  <path
     d="M117.395 215.797l-.004.385h-.385l.003-.39z"
     id="path45" />
  <path
     d="M116.161 199.15v.188h-.193l-.066-.126-.319-.07.004-.385.385.003.063.319z"
     id="path46" />
  <path
     d="M114.735 209.781c.044.545.274 1.022.374 1.552-.185-.181-.745-.089-.964-.007l.004-.582-.193-.004v-.192l.193.004.004-.386c.238-.07.345-.315.582-.385z"
     id="path47" />
  <path
     d="M112.316 197.186h.193v.193h-.193z"
     id="path48" />
  <path
     d="M112.123 196.793v.39l-.385-.197v-.193z"
     id="path49" />
  <path
     d="M111.912 199.698v.192l-.196-.003-.063-.126-.126-.067v-.193h.192l.063.13z"
     id="path50" />
  <path
     d="M111.149 198.338h.193v.193h-.193z"
     id="path51" />
  <path
     d="M98.106 185.858c.118.36.16.785.185 1.163-.167-.063-.263-.17-.385-.292l-.574-.1c.151-.315.34-.619.389-.97l.13-.064.066-.126h.193v.193l-.13.07-.066.126z"
     id="path52" />
  <path
     d="M97.554 181.594h.196v.193h-.196z"
     id="path53" />
  <path
     d="M97.747 181.98v.196h-.197l.004-.196z"
     id="path54" />
  <path
     d="M96.146 190.103l.004-.193h.193v.193z"
     id="path55" />
  <path
     d="M95.79 185.843l.004-.582h.386v.197h-.193l-.004.385z"
     id="path56" />
  <path
     d="M84.348 217.086c.052.308.248 1.37.4 1.57-.167.027-.438.093-.582.19-.055-.493-.178-.352-.285-.582-.108-.226-.17-.526-.26-.822l-.01-.034c.488-.159 1.366-.837 1.736-1.133l-.004-.082.07.03.027.077z"
     id="path57" />
  <path
     d="M77.902 243.891l-.008.293-.156.126-.04.281-.048.026-.067-.233c-.04.14-.141.3-.238.407-.33-.089-.307-.51-.251-.767l.147-.147z"
     id="path58" />
  <path
     d="M30.623 206.376l-.004.386-.385-.196.004-.193z"
     id="path59" />
  <path
     d="M21.45 228.2l-.007.096c-.078.096-.252.115-.36.063l-.059-.089a.386.386 0 01.045-.24.39.39 0 01.226-.016.333.333 0 01.156.185z"
     id="path60" />
  <path
     d="M16.131 210.37c.126.14.182.79.19.97l-.193-.003-.004.389.196.004c-.115.274-.13.674-.104.963l.193.193.096.389c-.51-.023-1.178-.312-1.54-.686h-.578l-.193-.193-.77-.004-.097-.1c-.215-.656-.255-.863-.093-1.548.719.144 1.1.385 1.93.396v-.385c.137-.041.304-.182.39-.29z"
     id="path61" />
  <path
     d="M11.493 211.9v.385c-.23-.081-.356-.3-.578-.389l.004-.193h.193l.063.127z"
     id="path62" />
  <path
     d="M255.67 6.423c-.227.018-.55.238-.675.36l-.014.418c.212.072.363.305.383.524-.022.068-.228.14-.287.155l-.174-.096a.883.883 0 00-.41-.762l-.294-.052-.045.228c.033.137.184.313.304.38l.049.258c.145.006.364.13.47.223l.082.637c-.863.737-.943.903-2.043.3l-.095-.39c-.109-.085-.248-.256-.286-.393l-.846-.37c-.121 1.158.34 1.042.368 1.97-.232-.08-.56-.181-.775-.008l-.102.583c-.448.057-.428.213-1.07.181l.09.586c.19.194.243.35.38.586.015.026.516.532.577.59l.069.509c-.305.58-.777.902-1.155 1.425-.144-.014-.44.297-.578.353-.193.078-.443.12-.647.177-1.1.301-1.815.278-2.928.01-.389-.094-.831-.211-1.173-.428l-.18-.567.146-.505.38-.01.216.2-.193-.294-.422.016a4.345 4.345 0 01-.405-1.687l-.268.933-.53.043.027.476-.064.035-.513-.05-.062-.462.216-.113-.239-.18-.051-.975c1.377-1.161.065 1.402 1.484.293l-1.484-.293-.669 1.194c-.093.285 1.061-1.741.594-1.37-.143.114-.224.294-.39.4a6.16 6.16 0 00-.204.97l-.388-.004c.125.147.238.958.278 1.17l.383.395-.001.192c-.235.153-.367.529-.494.775l-.774-.107-.383-.393-.581-.105.008.436c-.433.197-1.72.528-2.175.547-.354.015-.71-.07-1.06-.075-.304-.006-.635.04-.94.068l-.223-.262c-.602.124-1.294.046-1.829.39l-.101.387-.196.194c-.071.21.145.401.188.586.095.401-.19 1.535-.537 1.78l-.035.34c-.122.18-.487.45-.715.394a8.435 8.435 0 00-.395.675 5.353 5.353 0 00-.394.208l-.281-.094c-.47.083-.55.316-1.253.311-.07.512-.24 1.674-.039 2.183l-.388-.004-.003.386c-.171-.028-.436-.093-.58-.2l-.006.584-.39.092c-.082.11-.255.253-.39.29l-.005.39-.128-.07-.064-.128-.193-.003-.004.196.128.066c.068.33.13.493.35.715.085.372-.41.783-.109 1.167l-.58-.005.087.777c.06.183.714.216.771.398.028.24-.053.545-.103.776l-.582-.006-.004.39.39-.194.093.392.096.098.386.102-.003.389c.17-.013.636-.074.778-.187l-.006.388.388.006-.007.777.58.006c-.124-.377-.118-.597.01-.972a1.59 1.59 0 01.582-.09c.656.008.63.216 1.16.4.02.01.726.01.775.01l.095.098.092.581c.184.015.828.08.97.208l.099-.39.1-.095.776-.089-.004.39c.168-.06.269-.166.39-.288l.39-.092-.004.387c.119-.111.31-.094.454-.092.277.003.64.052.905.01.386-.062.783-.189 1.165-.282l.1-.388.1-.094.39-.092.099-.389.295-.287c.195-.002.42.04.582-.094l-.004.39c.404-.135.682-.634.883-.961.217-.355.741-.473 1.073-.669l.392-.386c.294-.109 1.518-.337 1.746-.08l.004-.389c.224.085.412.319.576.492l.389.007.098-.098.1-.388c.299.074.66.136.969.108a3.79 3.79 0 01.196-.19c.322-.105 1.29-.372 1.552-.085l.006-.387.387.004c.206-1.444 1.518-.916 1.662-1.344.05-.277-.12-1.15-.275-1.364.182.012.826.078.967.206l.006-.39.582-.089.294-.29.1-.387.39.004.1-.39.097-.096c.294-.024.691-.007.97.109-.172-.211-.087-1.072-.084-1.362l.295-.288c.45-.101 1.428.523 2.127.412l.1-.097.1-.388.39-.093.097-.096.008-.777.296-.288.777-.09c.073-.3.134-.662.107-.972-.55-.371-.247-.883-.471-1.172l-.386-.102c-.082-.111-.251-.255-.387-.295a1.66 1.66 0 01.49-1.05c.598-.591 2.716-.613 3.405-.367l.192.197.389.004.294-.288.202-.777c.065-.062.575-.55.59-.574.144-.235.197-.39.393-.58l.104-.399.132.038.056.168.388.007.008-.583.388-.094.099-.096.104-.583.39-.094.096-.096c.263-1.003.29-.711-.011-1.58l.148-.164.023-.43-.096-.156-.302-.025c-.15.098-.322.247-.418.4l-.449-.02.163-.407-.255-.124c-.14.084-.41.1-.566.062l-.185-.281c-.116.039-.473.171-.555.268l-.354-.072-.405.147-.212-.36-.471-.026-.101.39c-.181.026-.425.215-.53.356-.152-.18-.27-.552-.322-.774-.122.188-.312.407-.505.526.02.24-.188.601-.379.736-.595.026-1.295-.295-1.66-.773-.16-.208-.24-.402-.48-.55l-.033-.783-.442.046a2.44 2.44 0 01-.112-.898.317.317 0 00-.09-.005zm1.238 2.995l.16.045.135.19.046.554-.22.121-.191-.068a1.152 1.152 0 01-.31.175c-.085-.01-.198-.107-.235-.182.01-.15.12-.387.19-.517.157-.078.3-.194.425-.318zm-14.043 4.758c.2.114.094.428.285.547l.023.165-.055.12-.154.022-.175-.088c-.032-.101-.156-.248-.263-.274l.022-.164a1.41 1.41 0 01.317-.328zm6.299 1.596l.131.082c.16.246.124.488-.057.707-.076.044-.246.104-.337.082-.174-.124-.222-.514-.124-.69z"
     id="path63" />
  <path
     d="M70.872 183.354c-.295 0-.598.05-.876.1-.656 1.43-.485 1.856-1.76 3.004-.53-.248-1.21-.166-1.777-.34v-.474l-.856-.397-.41.104c-.105.19-.412.385-.62.422l-.341-.13.085-.344-.307-.263-.39.011-.095-.192c-.92.188-.641-.07-1.545.374.03.088.11.237.189.293l.581.007c.478.27.233 1.36-.015 1.696-.107.145-.259.152-.385.238-.108.073-.167.17-.273.235l1.583 2.214 3.242-.609.972-1.08 3.673-2.022a2.663 2.663 0 01-.291-.579c.39-.423.415-1.53.456-2.06-.254-.155-.544-.208-.84-.208zm2.292 4.072l-1.4 2.486-3.472.967-2.64 1.489v1.474l.555 2.594 1.575 1.018.092 5.094 2.871.185v.648h2.87l1.112.926h4.357l.829.649.793.474c.207-.545.27-1.123.37-1.693.215-.363.722-.052.874-1.156l.582-.093.192-.193.386-.096.004-.385.386-.097c.196-.192.389-.385.585-.573l.77-.19c.234-.056.541.049.775.004.055-.011.31-.168.388-.193.03-.007.32.014.386.004.374-.06.789-.097 1.155-.185.13-.03.264-.148.39-.193.244-.078.522-.126.774-.185l.193-.196c.374.007.8-.045 1.159.007.23.037 1.041.318 1.349.4.119.03.466-.06.578-.096l.004-.386.582-.096c.222-.226.455-.445.678-.67.155-.49.262-1.038.3-1.55-.497-.022-.627-.203-.964-.292-.204-.056-.551.011-.774-.007-.255-.022-.515-.067-.77-.104a.472.472 0 00.004-.578c-.116.108-.438.119-.578.093l-.049-.486c-.585-.207-1.156-.463-1.749-.648l.067-.39c.134.038.27.068.408.083l.007-.178-.685-.156-.09.552c-.103-.022-.688-.155-.74-.259l-1.256-.389v-1.482h-2.778l-.556-.648h-2.038l-.74-1.111v-.649l-2.382 1.112-.842-1.978v-.8l-.736-1.079c-.074.27-.256.545-.37.767-.316.2-.46.023-.675.094-.074.023-.334.182-.39.193-.207.041-.755-.019-.963-.104-.026-.196-.392-1.189-.474-1.36-.063-.121-.23-.184-.289-.388z"
     id="path64" />
  <path
     d="M88.29 175.668l-.378.037c-.285.849.337.867-.011 1.741h-.385l-.037.448-.352.13c-.167.382-.104 1.111-.107 1.549l-.39.385-.407-.197-.323.105-.14.474-.334.262c-.79.178-3.293-.259-4.119-.715-.259-.14-.593-.6-.837-.807l-.012-.515c.044-.07.793-.47.97-.77.25-.405.304-.89.556-1.286l.13-.067.067-.126.126-.067.004-.193h-.193l-.067.126-.13.063c-.148.385-.47.47-.778.674-.188.126-.322.333-.578.385-.3.063-.663.064-.966.09l.005-.775-.386-.096-.192-.196h-.194l-.585.574h-.77c-.23-.004-.552.033-.771-.008-.244-.04-.489-.256-.774-.296l-.1.775c-.015.007-.115.07-.126.073-.192.019-.426.019-.615.06-.107.025-.215.118-.323.151-.048.011-.148-.014-.192 0-.26.085-.507.23-.774.319-.078.023-.123.026-.193.063-.13.063-.193.233-.389.289l-.004.578.386.004.092.39.1.095 1.737.011c.04.041.371.386.382.39.204.066.952.3 1.06.489l-.005.97-.197.193v.193l.194.193-.012 1.552-.196.192-.097.386c-.166.03-.437.092-.581.189l-.005.58c-.14-.1-.41-.166-.578-.195l-.004.581c.144-.1.415-.163.582-.193.03.19.133.982.088 1.164l-.13.26c-.318.636-.313.55-.166 1.288l.385.1.093.097a.707.707 0 01-.023.389v.004l.738 1.078v.8l.84 1.978 2.383-1.111v.648l.74 1.111h2.038l.556.649h2.778v1.481l1.256.389c-.048-.096.06-.455.093-.548l.396.093.03-.096c.722.159 1.46.232 2.174.425-.018.256-.052.474-.052.737h.192c.005-.137.078-.4.197-.482.159-.03.433.05.578.101-.07.122-.13.255-.196.381l.774-.089.097-.096.1-.386.577.004.2-.774h.386c.074-.696.307-1.249-.264-1.767l-.014-.167c.182-.444.451-.655.811-.952l.16-.011-.093-.39-.426-.1c.22-.402-.303-.759-.318-1.01.193-.1.322-.282.563-.341.886-.211 1.13.856 1.345.978h.192c.123-.122.22-.23.39-.289l.092.389.096.097.386.1-.097-.39-.381-.388.004-.386-.193-.196c-.07-.593.233-1.723.4-2.319l.196-.196.103-1.16c-.147.141-.625.137-.77-.004a1.67 1.67 0 01-.092-.774c.118-.126.23-.215.289-.39h-.382v-.58l.775-.09c.08-.055.162-.204.196-.289-.167-.03-.438-.1-.578-.2.104-.429.166-.93.007-1.355-.167-.03-.438-.096-.579-.196-.222-.674.093-.957.397-1.55-.452.07-.897.13-1.352.186.059-.167.17-.263.293-.385 0-.278-.004-.5-.093-.774.17.06.263.17.385.292l.386.1-.097-.389-.382-.389v-.388l.197-.194c-.04-.177.011-.514.152-.648l-.27-.278-.245.275c-.267-.104-.667.084-.886-.13l-.007.581-.963-.007-.004.778-1.16-.107c-.222-.448-1.319-.4-1.737-.397a.885.885 0 00-.382-.296l-.092-.775-.193-.196c.004-.477.007-.882-.089-1.355-.196-.06-.474-.253-.585-.43zM71.547 186.2l-3.673 2.022-.972 1.08-3.242.608-1.582-2.213a.416.416 0 01-.113.05c-.2.03-.526-.064-.673-.201-.038-.185-.597-.755-.734-.914.04 1.007-.463 1.359-1.34 1.748.318-.015.799.004 1.103.133.355.449.189 1.452-.252 1.782-.423.067-.837-.019-1.256.034l-.27.243c-.048.33.03.786.174 1.083l-.148.3a1.893 1.893 0 01-1.063.407v.004l1.385.734v3.521l.74 1.388h1.205l.463 2.779v1.389h1.204l1.574 3.334-.37 1.055.37 1.353.723-1.127-.074-.048.926-2.344 1.667-1.297.555-.556-.092-5.093-1.575-1.019-.555-2.593v-1.474l2.641-1.49 3.47-.967 1.402-2.485c-.086.07-.275.125-.386.095-.414-.325-.904-.81-1.232-1.32z"
     id="path65" />
  <path
     d="M64.818 206.762l-.019.03-.074-.049.926-2.344 1.667-1.297.556-.556 2.87.186v.648h2.872l1.111.926h4.356l.83.648.793.474c-.393 1.03-.67 1.286-.9 2.497-.04.23-.104.57-.085.8.055.57.433.833.774 1.204.074.074.122.181.196.255.248.245.886.738 1.208.908.574 1.16.107.518.011 1.504l-.204-.04-.085-.674-.552.022-.485.926c.248.563.751.381 1.267.408l1.322.066-.511-1.778.133-.044c.444 1.567.656 2.423 1.56 3.775l-.43.162c-.174-.185-.778-.915-1.082-1.03l-.13.323.126.067c-.04.166.13.67.186.826l-.2-.06c-.152-.418-.312-.362-.497-1.063-.033-.13-.085-.318-.052-.463a.667.667 0 00-.34.034c-.005.066-.005.378-.034.422-.04.03-.541.004-.66-.052l.012-.526c-.19-.037-.445-.019-.64-.022-.356-.015-.349.285-.472.596-.092.226-.133.545-.192.793.11.008.259.022.366.059.07-.163.278-.582.219-.719l.219-.259c-.041.297-.245.64-.345.967l.419.044c-.012.09-.06.367-.034.445l-.107-.033-.005-.263c-.14-.015-.74-.152-.822-.06-.107.333-.14.693-.133 1.041.077.149.744.126.781.1.048-.051.074-.544.085-.637.044-.007.111.026.137.056-.015.437-.133.63.293.781l-.078.112c-.093-.019-.834-.23-.934-.13-.026.214-.074 1.178-.04 1.222.14.082.759.004.904-.07l.051-.841v.837l.823-.2.33-.081-.137-.512-.604.167-.023-.074.612-.163.022-.144.074.285c.137-.007.77-.23.963-.241l.152-.044.2.544.233-.033a.28.28 0 01.038-.011l.01.033-.022.07c-.063-.037-2.667.664-2.83.704-.304.074-.593.038-.934.033a.178.178 0 01-.07.079c.04.273.048 1.085.141 1.318.115.297 1.123.786 1.378.945.178.111 1 .811 1.06.97-.038.315-.045.608-.093.923.107.27.378.444.57.652l.005.163-.23-.185c-.089.022-.3.048-.385-.004-.04-.074-.178-.145-.26-.152l-.296.337c-.177.04-.36.015-.533-.026l.004.122c-.04.186-.052.39-.052.578a.835.835 0 01-.196.167c-.018.219.085.426.16.63l-.108.133.096.181-.033.17-.093.071c.038.17.07.43.034.604l.174.152-.163.292.1.137c-.096.286-.177.8-.248.993-.122.311-.322.419-.315.834l.133.037.085.107-.06.063-.2-.011c.045.178.127.433.071.611.056.063.137.223.108.311-.048.049-.07.16-.063.223.115.074.24.204.27.34-.04.086-.1.3-.167.36-.033.096.04.33.023.467l-.067-.022c.022-.07.015-.226-.06-.263-.114-.008-.214.077-.384.066a.435.435 0 00-.275-.333c-.366.385-.692.856-.81 1.385l-3.153-1.252-.649-6.39-.555-.556H69.91v-1.481l-1.111-.834-.648-5-2.5-4.457z"
     id="path66" />
  <path
     d="M56.853 231.07h-1.667l-6.668.852 1.39-2.056.648-1.478.74-1.67 2.472-3.242L55 221.068l2.504-2.685 3.053-3.612 2.222-3.89.556-2.563.74-.4.724-1.126.018-.03.833 4.941 2.5 4.457.649 5-1.39 1.112v2.5l-2.685 1.76-1.945.556v2.223l-2.037 1.76z"
     id="path67" />
  <path
     d="M59.68 239.608l-.234.149-.214-.086c-.208-.278-.274-.681-.419-1l-.204.13c.111.226.223.456.319.69l-.208.144c-.037.237-.052.548.015.781l-.252.211-.026-.111.122-.145c-.007-.23-.026-.518-.11-.737l-.242-.133.123-.233-.108-.278-.126.13c-.33-.208-.537-.278-.7-.682l-.23-.044a.992.992 0 00-.244.192v-1.133h1.948v-.634l-2.5-.47 1.252-.834.508-.463.74-1.297-.463-1.11v-.723l-.785.352-.789.37-1.019-.722-.648-.852h5.557l2.037-1.76v-2.222l1.945-.556 2.685-1.76v-2.5l1.39-1.111 1.11.833v1.482h4.817l.555.555.649 6.39 3.152 1.253c.208.3.59.77.926.878l.19-.041.185.148-.07.2.08-.011.104-.137c.17.074.304.219.275.415a.38.38 0 01-.119.155c.063.03.145.13.152.204l-.082.112c.07.13.1.244.115.389l.104.074.026.225.088.063-.007.067.074.108-.008.11c-.163.068-.06.3-.103.42l.096-.005c.04.03.107.108.115.16l.122.078a.409.409 0 01.211 0 .32.32 0 01.06-.16l.048.074.074.015h.092l.045.063.004.093c-.085.151-.445.273-.423.496l-.078.078-.126.025.023.097c.018-.026.059-.055.133.004a.22.22 0 00-.078.148.804.804 0 00.211.123.315.315 0 00.115-.07l.07.018c-.018.148.23.585.393.737l.056-.063.089.03-.053.118.063.107c.045-.103.112-.222.241-.255l.004.085c-.037.04-.155.193-.152.252.045.048.145.096.212.089l.081.126c-.048.011-.118.066-.13.118l.067.06c-.063.144.104.392-.018.64l-.115.063-.052.118.07.082.122-.034-.085.167-.074.038.026.096.115.007.063.092.122-.044.104.056.03.185.1.063.04.163c-.022.17-.152.26-.122.396l.063-.096.074.018.107-.07.152.033c.041-.026.134-.074.185-.063.038.056.049.17.026.237-.152.078-.326.004-.47.116a.992.992 0 01-.012.362c.074.104.26.37.4.378-.004.1.015.756-.055.83l-.056-.07c-.004-.208.004-.419-.04-.622-.252-.116-.378-.386-.548-.456l-.07.011-.056.156-.093.033-.085-.03a.317.317 0 01.097-.166l-.033-.085-.152.063c-.082-.048-.223-.122-.323-.078l-.115-.092-.07.088.111.052.007.137-.11.093c-.026.11-.056.3.003.41l-.067.123c.156.237.015.596-.033.856l.111.307h-.21c-.078.067-.164.226-.152.33.092.226.326.574.288.819l-.2-.011-.122-.19-.082.152a1.554 1.554 0 00-.326-.296c.038-.274-.085-.504-.059-.704l-.07-.011c.011.088.015.333-.056.403l-.207.026a1.809 1.809 0 01-.286-.252l-.107.09.052.188-.118.193-.145.019c-.104.081-.16.125-.211.266l-.148-.074-.033.085.03.178-.19-.111-.01.151-.168-.118-.155.118.085.17-.111.053-.004.218.126.178a1.97 1.97 0 00-.637.315.566.566 0 01-.182-.193l-.166.019-.22.252-.132-.145c-.07-.14.055-.285-.019-.448l.13-.06c-.096-.014-.222-.133-.27-.207v-.219c.096-.055.267-.189.307-.296-.037-.107-.16-.255-.27-.296l-.16.174-.13-.185-.159.207-.31-.089a2.39 2.39 0 01.177-.581l.148-.04-.038-.1.06-.082.118-.056-.04-.263-.093-.018c-.034-.13.067-.375.137-.475l.126-.077a6.922 6.922 0 01-.045-.678l-.115-.145.138-.248.277.052c.19-.274.193-.593.337-.87.152-.301.123-.597.286-.897l.166-.108-.096-.1c-.085-.07-.585.122-.682.2l-.163-.067-.096.03-.018-.14c-.082.033-.175.188-.204.262l-.108-.048-.207.178.037-.126-.063-.052a.721.721 0 00-.141.218l.03.193-.148-.019-.148-.174.01-.11-.077-.068-.085.093-.237-.093-.023-.185.093-.163-.163-.026c-.063.041-.111.152-.107.223l-.148-.04-.019-.19-.126.082-.092-.148-.063-.026.033.318a1.106 1.106 0 00-.322.078l-.07-.1.037-.285c-.063.004-.2-.007-.249-.056l-.033-.115-.1.019-.09-.056a.28.28 0 00-.114.09l-.026.106-.107-.029-.026-.097a.591.591 0 01.152-.248l-.04-.089-.079-.048a.74.74 0 00.082-.351l-.185-.193c-.13.018-.645.474-.704.596l.13.137-.067.111c.226.248.215.363.27.663l-.155.145c-.16 0-.419.03-.549.14.026.175.053.356.06.534a.449.449 0 01-.24.019c-.253.114-.209.222-.379.374a.603.603 0 01-.074.3l-.133-.048c.03.04.1.14.104.196l-.067.078-.13-.049.048-.092-.163-.093-.111.07c-.148-.118-.296-.296-.296-.496a6.837 6.837 0 00-.452-.3l-.19.13-.11.3.096.092c.044.249.296.967.115 1.164l.018.296-.07.104-.067-.049c.056-.148.074-.34.078-.496-.06.004-.215.03-.252.085l-.026.163-.081-.256c-.078.004-.204.064-.245.134l.015.381-.063-.033-.055-.148-.145.166a3.21 3.21 0 00-.311-.489c-.24-.144-.548-.13-.774-.303-.116-.089-.13-.297-.304-.43l-.245.007-.237.152c.023.13.141.541.274.604l.015.156c-.048.004-.122-.056-.155-.09l-.148.009.048.181c.407.326.615 1 1.089 1.204l.111.267.1.078-.004.144-.119.045a2.741 2.741 0 00-.137-.46l-.093.078.053.385-.097.026c-.111.09-.2.315-.2.452l-.052-.274-.16-.055-.21.13a.328.328 0 01-.115.207l.03.315-.09-.044-.062-.126-.093.115-.274-.023c-.045-.096-.13-.218-.16-.314-.044-.163-.03-.316-.115-.478l-.115.004c-.008.107.034.226.023.326-.023.23-.167.422-.178.67l.167.19.033.296c-.122-.078-.374-.085-.507-.026l.048.278-.111.137c-.104-.04-.382-.133-.497-.104l.408.256.092.193-.063.092-.048-.111-.078-.015-.033.211-.111.1-.115.007c-.06-.059-.067-.248-.056-.325l-.088.014-.1.111c.073.163-.204.745-.29.908l-.292.082-.07-.186.21-.147.064-.205c-.019-.096-.104-.355-.2-.407l.078-.078-.067-.111-.1-.052-.2.059-.212-.311-.007-.304.312-.018-.041-.112-.282-.166c.004-.104-.085-.26-.162-.323a1.284 1.284 0 00-.486-.077l-.089-.208.037-.111a1.15 1.15 0 01-.14-.093l.004.16-.089.078a.368.368 0 01-.111-.249l-.078-.044a.417.417 0 00.119-.233.713.713 0 00-.205.126l-.107-.093.023-.152.177-.115v-.103l-.2-.104.011-.178a.688.688 0 01-.122-.31l.133-.156.026-.163-.237.048-.011-.19c.133-.058.496-.295.477-.473l-.059-.185-.089-.007-.081-.16.066-.21-.159-.153c-.256.126-.567.07-.808-.066l-.096.029-.063.089.104.204-.086.103-.115-.014a1.036 1.036 0 01-.081-.33l-.167-.038a5.795 5.795 0 00-.037-.34.332.332 0 00-.318-.067l-.041-.081.122-.145.13-.085.145-.023c.096-.136-.193-.57-.36-.622-.126.008-.348.148-.352.286a.241.241 0 01.052.137c-.196.248-.263.51-.352.804l-.218-.086-.086-.222-.022.215-.215-.052-.096.074h-.156c-.037-.2-.096-.49-.23-.652l-.022.274-.096.03c-.022-.13-.126-.327-.24-.4l-.22.04.053.463-.23.055-.263-.355c-.148.081-.185.289-.363.333l-.093-.07-.018-.122z"
     id="path68" />
  <path
     d="M33.919 206.81l-.244.033c.044.148.103.297.181.434l-.18 1.226-.583.093c-.181.181-.54.604-.774.674-.181.548-.107.756.285 1.163.37.927-1.37 2.363-1.955 2.956-.253.082-.697.153-.96.1-.752-.14-1.93-.9-2.152-1.652l-.175-.044c-.14.096-.281.24-.43.322-.61.34-1.259-.092-1.714.078-.089.081-.337.333-.615.614l1.041 1.408.648.741h1.112l1.204 1.749v1.307l.555 2.038 1.071 2.315h2.541l.463 1.574.556 1.297v3.982h2.515l.911 1.204h1.575l1.111 1.5.507 1.186h1.16l.556.833v1.111h1.574V233.2l2.315.093 1.019-1.37h1.482l1.389-2.057.648-1.478.741-1.67 2.47-3.242-1.451-1.889h-5.65l-.37-1.26h-2.594v-.74h-1.204l-2.085-2.015-.021-.02-.003.013c-.12.162-1.308.15-1.438.156-.06.003-.135.035-.195.032-.116-.006-.318-.146-.433-.084-.177.156.045 1.052.278 1.205.028.064.03.13.03.197 0 .129-.034.388-.005.496.045.162.121.3.127.477.004.151-.108.288-.09.416l-.049.064-.069.02c-.03.076-.16.27-.155.337a.36.36 0 01-.076.064c-.074.14.064.47.156.585l-.004.046-.067.013c-.153-.047-.348-.271-.393-.422.089-.303.016-.566-.012-.859-.064-.654.193-.863-.129-1.622-.063-.15-.195-.397-.33-.5l-.17-.03-.097.072c-.096.6-.252.507-.366.817-.054.147-.018.291-.034.44-.011.108-.366.948-.45.997l-.012.084-.067-.022c-.034-.077-.025-.486-.033-.59l.069-.08c.041-.164-.022-.316-.01-.475.006-.068.057-.148.069-.216.017-.1-.05-.202-.05-.294 0-.203.094-.409.07-.632-.014-.137-.074-.226-.005-.37l.104-.064a1.19 1.19 0 00.08-.245.362.362 0 01-.04-.134c.028-.033 1.26-.638 1.48-.739l.063.006.193.266c.046.044.878-.031 1.48.09l-1.673-.358-.455-.826-1.374-1.76-1.497-2.419.408-3.386.004-.97-1.085-.208a.823.823 0 00-.22-.33zm5.892 10.257l.072.016.509.47.021-.114c-.056-.201-.301-.31-.602-.372z"
     id="path69" />
  <path
     d="M43.407 243.417l-.167.104-.163-.03.007-.256-.159.004-.167-.181-.126.078c.115.189.286.374.36.585l-.163-.022-.145.07v.107l-.155-.014.022.344-.111.023.067.225-.175-.137-.122.093-.204-.163-.103.03a1.902 1.902 0 00-.311-.234l-.196.04a4.618 4.618 0 00-.193-.418.68.68 0 00.13-.374l.318-.293.048-.252-.14-.218-.163.026c-.097-.056-.29-.119-.404-.1l-.067-.734.185-3.797 2.593-2.87V233.2l2.315.092 1.019-1.37h1.482l6.668-.852.648.852 1.019.722.789-.37.785-.352v.722l.463 1.111-.74 1.297-.508.463-1.252.834 2.5.47v.634h-1.948v1.133a.425.425 0 00-.097.149c.067.055.085.144.097.24.01.119.01.252.066.348l-.063.16.167.01c.137.13.263.404.218.597l-.192-.126.089.148-.052.078-.09-.06-.107.086a.811.811 0 01-.033-.39l-.107.186-.126-.226.059.167a1.12 1.12 0 01-.119-.115l-.022-.133-.126-.07a.505.505 0 00-.223.247c.034.208.163.375.185.586l-.14.148.018.115a.708.708 0 00.274.096c.1.115.174.33.208.474-.008.115-.126.274-.215.337l.011.156.138-.052c-.019.24-.148.378-.323.526l-.16-.022-.006-.215-.112-.056-.018.197a1.916 1.916 0 01-.196-.375l.037-.225-.1-.208-.2.1c-.056.118-.204.341-.333.393l-.1-.022-.03.1c.103.052.27.185.315.296l-.023.248-.203-.118-.138.14-.23-.022.142.186-.112.081-.203-.148a8.793 8.793 0 00-.46 0l-.147-.122-.193.096-.219-.181-.174.074.17.204-.103.096-.112-.044-.044-.119-.137.133-.133-.033-.038-.189-.096-.074-.07.24-.2-.014c-.196-.118-.315-.333-.522-.434l-.16.116.04.066c.075.13.06.223.116.334.063.137.189.251.255.392-.178.011-.392.023-.567-.022l-.066.133c.252.063.585.178.792.333l-.092.252-.156.038.174.273-.118.067-.137-.085-.008.115.23.126-.153.123c.152.077.323.23.42.374l-.208.078-.152-.104-.111.082.081.155-.081.348-.09-.2-.132.1-.17-.107c-.079-.248-.153-.522-.283-.744-.063.081-.051.288-.029.38l-.133.09-.2-.208.055-.222-.152-.26.005-.148c-.145-.155-.238-.233-.304-.452l-.222-.008-.053.26-.118.026-.126-.319-.1.315-.23-.022-.004-.245-.137-.015-.037.16c-.078-.067-.197-.215-.215-.322l-.056.204-.289-.041-.063-.193c.012.103-.04.282-.122.352a.683.683 0 00-.366-.008l-.156.148-.185-.333-.056.196c-.189-.04-.407-.081-.581-.167a9.909 9.909 0 01-.374.6l-.275-.11.023-.341-.333-.149.24-.43a1.728 1.728 0 01-.277-.344l-.178-.037-.048.307-.249-.1-.103-.211-.089.533-.311.056-.145.152-.404-.2-.03-.27-.192.23-.2-.112.026-.196a.853.853 0 01-.4-.208.74.74 0 00-.156-.396.619.619 0 00-.37.189c-.04.081-.07.26-.019.344-.115.049-.604-.066-.804-.044l-.085.19z"
     id="path70" />
  <path
     d="M24.604 212.808c-.437.437-.941.944-.986.97-.178.085-.404.105-.581.19-.27.137-.571.618-.967.766-.215 0-.426 0-.637.008-.112-.126-.27-.33-.326-.493l-.578-.1c-.385-.379-.475-.43-.964-.682.241 1.126-.033 1.16-.296 2.286-.163.07-.326.144-.485.225l-.004.386c.474-.015 1.097-.015 1.545-.185v.582c.281.04.526.251.77.292.152.026.841.044.963-.093l.097.39c.655.636.581.6.955 1.552.13.329.297.614.382.966.055.23-.06.545-.004.774.048.2.14.386.189.582.03.115-.03.274 0 .389.067.274.19.485.19.77 0 .278.062.708-.005.971l-.196.77c-.03.115.026.274-.003.39-.097.384-.293.703-.112 1.114-.433 1.048-1.181 1.864-1.737 2.842.044.226.137.922.089 1.063-.089.26-.252.374-.386.582-.077.115-.118.266-.196.385l-.966.959c-.104.067-.848.433-.937.463l.856.815 1.177.093v1.019l1.138.555.74 1.112 1.482-1.76 1.76-1.667h1.204l1.667 1.852-.648.834h1.83l.67-.834h.741l.74 1.575 1.112 2.5v.926l.741.448 1.682.478v1.852l.01.56h.027l.166.14c.07-.055.29-.018.367.004l.2-.111-.1-.152.137-.081c.204.066.408.14.605.226l.036.24.112.112.159-.012.022.186.182-.06-.078.104.04.107.215.089.208-.037-.175.203.142.045.073.219.22.122c.17-.1.296-.22.437-.356l-.009-.355.278-.023c.093.23.248.46.4.652.03-.152-.022-.385-.085-.522a.699.699 0 01.37-.037l.104.192c.127-.066.141-.437.619-.722l-.067-.733.186-3.797 2.593-2.87h-1.575v-1.112l-.555-.834h-1.16l-.507-1.185-1.112-1.5h-1.574l-.912-1.204h-2.514v-3.982l-.556-1.297-.463-1.574h-2.54l-1.072-2.316-.555-2.037v-1.308l-1.204-1.748h-1.112l-.648-.741zm-1.274 22.707h-.464l-1.844.834-1.675 1.296v.463l-.486 1.283c.274-.108.526.01.804.01l-.174.382.282.178c.14-.048.389.014.5.107.322-.104.444-.133.74-.177.323-.3.605-.541.972-.808.207 0 .588.048.766.17.052.127.119.267.2.375l.185.081.29-.288c-.03-.09.021-.33.066-.4.2-.305.56-.509.789-.786l.16-.193c.029-.022.422-.178.481-.204l.27.141-.011-.526-.648-.918-.463-1.02z"
     id="path71" />
  <path
     d="M35.754 208.996c.096.266.703.915 1 .974.196.04 2.456.03 2.511.015.167-.056.474-.23.578-.385l1.897-.486c.74-.19 2.304-1.415 2.686-2.012.193-.303.355-.692.359-1.059l.008-1.74c0-.06-.596-1.22-.67-1.264l-1.349-.2-.193-.193-.385-.1-.093-.389-.385-.389-.097-.385.193.096.567-.063c.267.182.533.363.804.537l.267-.01a.605.605 0 01.389-.164l.193-.193.1-.385c.17-.015.637-.078.774-.192.148.14.167 1.13.185 1.36h.385c.074.266.374.38.504 1.025.36-.011.782-.27.952-.589l.03-.318c-.241-.282-.537-.89-.515-1.274.14.1.41.17.578.196l.018.463c.223-.174.474-.234.656-.46l.104-.58c.233.184 1.63.273 1.922.225.345-.06.882-.137 1.196-.3.134-.074.26-.193.39-.274.248-.148.64-.178.91-.252.075-.2.241-.352.312-.533.27-.675.352-1.471.689-2.127.018-.033.193-.196.226-.24.16-.208.274-.482.36-.723.188-.551.21-1.16.38-1.726.171-.563.69-.823.53-1.496-.281-.267-.922-.575-1.3-.634-.104-.015-.237.037-.345.026-.5-.037-1.277-.341-1.744 0-.167.126-.386.422-.522.593l-.178-1.334.64-.952.975.733c.07-.037.804-.407.83-.415.04-.007 1.096.008 1.207.008l.656.523.415-.082.067-.748c.378.048.84.281 1.137.518l.318.596c.186.115.408.156.63.145v.004l1.385.733v3.519l.741 1.39h1.204l.463 2.777v1.39h1.204l1.574 3.333-.37 1.057.37 1.351-.74.4-.556 2.564-2.223 3.89-3.052 3.611-2.504 2.686-1.234 2.408-1.452-1.89h-5.649l-.37-1.259h-2.594v-.74H42.5l-2.085-2.016-.53-.489-1.745-.374-.455-.826-1.375-1.76-1.496-2.418.407-3.386.771.196v.193h-.182z"
     id="path72" />
  <path
     d="M13.22 229.666c-.22.355-.193.755-.786.67.004.145.004.289-.01.434-.064.073-.223.111-.32.099l-.085-.189-.063-.011c.156.693-.152.988-.512 1.566.108.533-.159.897-.044 1.204.141.122.274.3.367.463.104.297-.23.557-.23.842 0 .418.226 1.074.67 1.207a1.187 1.187 0 01-.185-.351l.123-.049.04-.181a2.5 2.5 0 01.149.463l.115-.148-.045.181.092.1-.126.012-.022.155.111.23c.096.004.193.019.29.037-.068.064-.209.085-.279.13l.1.282.141-.022-.04.133a.49.49 0 01.178.333l.285.04c.066-.07.074-.248.052-.336l.148.014c-.03.093.204.73.267.856l.093.06c.044-.167.259-.242.348-.386.066.118.207.24.322.307l.159-.17c-.052.263-.007.563.067.819l-.104.14c.048.156.12.309.197.45l.208.003c.288.208.373.63.503.708l.1.022c.055-.193.01-.393.03-.593l.096-.096a5.551 5.551 0 01-.055-.348c.133-.111.333-.211.503-.248l.049.259.203-.044c.134.163.378.307.456.496l-.337.226.145.174.173.06-.07.147c.019.133.178.393.252.5l.116-.23-.09-.251.06-.115.192.192c.256-.27.049-.803-.066-1.1l.063-.044c.166.251.23.844.304 1.167l.296-.034.03.175-.134.162.185.13.282-.152-.097-.367c.223-.015.445-.051.66-.11l.122-.349.485-1.282v-.463l1.675-1.296 1.845-.834h.463l-.741-1.11-1.137-.557v-1.018l-1.179-.093-.855-.814c-.386.122-.819-.041-1.182-.182l-.048-.107c-.159-.082-.408.085-.511.189-.297.081-.863-.026-1.052-.289-.134-.189-.1-.419-.379-.545v-.244l-.115-.186a1.552 1.552 0 00-.521-.174c-.123.033-.315.123-.4.223l-.038.315-.137.166c-.152.008-.337-.159-.489-.21a.698.698 0 00-.189.14l-.081.019-.13.04c-.156-.074-.785-.648-.867-.785l-.022-.145c.085-.084.16-.185.215-.288l-.063-.145zm10.11 5.849h-.001.74l.464 1.02.648.918.012.526.047.025c.045.175.019.42-.036.586l.091.246a3.49 3.49 0 00.434-.17c-.004-.133.022-.282.04-.416.127-.018.293-.162.356-.266l.304-.097c.115.1.281.186.385.29.108.11.189.273.3.392.07.24-.059.46-.014.7.214.082.44.141.666.185l.093-.17c.348.056.992-.226 1.108.444a2.25 2.25 0 01-.085.411l.23.082a.218.218 0 00.054.122l.104.04c.019.1.14.231.233.271l.23.015.167-.193c.17-.077.56.03.76.048.2-.174.455-.355.736-.33l.22.138.143-.19.193-.077c.175.137.26.344.408.503l.178-.03c.04.1.126.182.163.282.111.274.029.245.259.482.248.081.6-.211.774-.381.419-.089.589.177.856.185a.783.783 0 01-.074.203l.267.045-.122.063-.04.107.077.085.181.004c-.018.093-.137.215-.226.245l-.008.122c.082-.018.26-.033.337.007l-.137.238.382-.007.037.166c.097.081.333.185.463.137l-.133-.16.156-.059.103-.207.208.018.122.171.137-.004-.011-.56v-1.851l-1.682-.478-.741-.448v-.927l-1.112-2.5-.74-1.574h-.741l-.671.833h-1.83l.649-.833-1.667-1.853H26.57l-1.76 1.667z"
     id="path73" />
  <path
     d="M133.747 129.63h-.622l-.098.282h-.4l.571-1.543h.475l.57 1.543h-.4zm-.522-.285h.422l-.21-.614z"
     id="path74" />
  <path
     d="M134.433 128.304h.37v1.608h-.37z"
     id="path75" />
  <path
     d="M135.946 128.924v-.62h.372v1.608h-.372v-.168a.498.498 0 01-.169.15.458.458 0 01-.213.048.431.431 0 01-.351-.17.674.674 0 01-.138-.438c0-.179.046-.325.138-.438a.433.433 0 01.351-.17c.08 0 .15.016.213.048a.509.509 0 01.169.15zm-.244.75a.21.21 0 00.181-.088.425.425 0 00.063-.252c0-.11-.02-.194-.063-.252a.21.21 0 00-.181-.086.21.21 0 00-.18.086.426.426 0 00-.063.252c0 .11.02.194.062.252a.21.21 0 00.18.087z"
     id="path76" />
  <path
     d="M137.829 129.33v.105h-.866c.01.087.04.152.094.195a.349.349 0 00.226.065.877.877 0 00.239-.034c.082-.023.165-.059.252-.105v.285a1.55 1.55 0 01-.525.1c-.21 0-.372-.053-.489-.16-.116-.106-.174-.255-.174-.447 0-.19.057-.337.171-.446.114-.108.27-.162.47-.162a.59.59 0 01.437.164c.11.11.165.257.165.44zm-.38-.123c0-.07-.02-.127-.061-.17a.21.21 0 00-.161-.065.25.25 0 00-.175.06.278.278 0 00-.083.175z"
     id="path77" />
  <path
     d="M138.969 129.07a.433.433 0 00-.193-.045c-.095 0-.169.03-.22.091a.398.398 0 00-.076.262v.534h-.37v-1.158h.37v.19a.479.479 0 01.163-.165.443.443 0 01.262-.05c.015 0 .036.003.063.006z"
     id="path78" />
  <path
     d="M140.317 129.207v.705h-.372v-.54c0-.1-.003-.169-.007-.206a.217.217 0 00-.023-.084.154.154 0 00-.06-.056.17.17 0 00-.084-.02.213.213 0 00-.182.09.409.409 0 00-.066.247v.57h-.37v-1.159h.37v.17a.578.578 0 01.178-.15.449.449 0 01.208-.048c.133 0 .235.041.304.124.069.082.104.2.104.357z"
     id="path79" />
  <path
     d="M141.815 129.33v.105h-.865c.009.087.04.152.094.195a.35.35 0 00.226.065.874.874 0 00.238-.034 1.24 1.24 0 00.252-.105v.285a1.55 1.55 0 01-.525.1c-.209 0-.372-.053-.488-.16-.116-.106-.174-.255-.174-.447 0-.19.057-.337.17-.446.115-.109.272-.162.472-.162a.59.59 0 01.436.164c.109.11.164.257.164.44zm-.38-.123c0-.07-.02-.127-.061-.17a.21.21 0 00-.16-.065.25.25 0 00-.175.06.278.278 0 00-.084.175z"
     id="path80" />
  <path
     d="M141.943 128.754h.37l.312.786.264-.786h.37l-.487 1.267a.62.62 0 01-.171.27.404.404 0 01-.258.077h-.214v-.242h.116a.25.25 0 00.137-.03.208.208 0 00.067-.107l.01-.033z"
     id="path81" />
  <path
     d="M122.169 121.104l.015-.078h.123l.158-.808h-.123l.014-.078h.572c.117 0 .202.02.253.06.051.039.07.099.054.178a.208.208 0 01-.087.137.403.403 0 01-.194.063c.095.01.164.035.208.077.043.043.058.1.044.17a.294.294 0 01-.148.212.74.74 0 01-.353.068zm.387-.078h.092a.33.33 0 00.193-.049.23.23 0 00.089-.152c.013-.07.003-.12-.03-.154s-.09-.051-.172-.051h-.093zm.094-.484h.084a.315.315 0 00.172-.04.183.183 0 00.078-.124c.011-.056.002-.096-.028-.122-.03-.025-.082-.038-.159-.038h-.084z"
     id="path82" />
  <path
     d="M124.205 120.417l-.118.61h.097l-.014.077h-.327l.018-.097a.337.337 0 01-.11.09.326.326 0 01-.14.026c-.077 0-.13-.022-.16-.067a.203.203 0 01-.03-.114.41.41 0 01.01-.088l.07-.358h-.099l.015-.078h.327l-.078.401a.717.717 0 00-.016.124c0 .017.002.03.005.039.01.023.034.034.072.034a.136.136 0 00.111-.05.365.365 0 00.063-.163l.075-.385h.229z"
     id="path83" />
  <path
     d="M125.057 120.41l-.04.205h-.073a.173.173 0 00.002-.026.092.092 0 00-.016-.056c-.014-.018-.037-.027-.07-.027a.169.169 0 00-.13.065.396.396 0 00-.08.183l-.068.35h-.228l.118-.61h-.105l.015-.078h.334l-.024.123a.312.312 0 01.11-.106.288.288 0 01.141-.035l.049.003.065.009z"
     id="path84" />
  <path
     d="M125.022 121.104l.18-.927h-.102l.015-.078h.33l-.08.416a.338.338 0 01.111-.09.328.328 0 01.14-.027c.076 0 .13.023.16.069a.2.2 0 01.03.113.463.463 0 01-.01.087l-.07.359h.099l-.016.078h-.326l.085-.443a.398.398 0 00.01-.077.118.118 0 00-.008-.045c-.01-.022-.034-.033-.07-.033a.138.138 0 00-.112.05.358.358 0 00-.064.161l-.074.386h-.229v.001z"
     id="path85" />
  <path
     d="M126.613 121.027a.473.473 0 01-.303.096c-.121 0-.21-.032-.266-.096a.26.26 0 01-.06-.177c0-.028.002-.058.009-.09a.428.428 0 01.154-.265.476.476 0 01.304-.096c.121 0 .21.032.266.095.04.047.06.105.06.177a.464.464 0 01-.01.09.43.43 0 01-.154.266zm-.29.023a.13.13 0 00.115-.062.685.685 0 00.073-.227.948.948 0 00.022-.172.206.206 0 00-.007-.055c-.01-.04-.04-.061-.09-.061a.133.133 0 00-.115.062.666.666 0 00-.073.226.908.908 0 00-.02.17c0 .023.001.042.005.057.012.041.042.062.09.062z"
     id="path86" />
  <path
     d="M127.708 120.417l-.118.61h.097l-.015.077h-.326l.018-.097a.332.332 0 01-.111.09.326.326 0 01-.139.026c-.077 0-.13-.022-.16-.067a.199.199 0 01-.03-.114.41.41 0 01.01-.088l.07-.358h-.099l.015-.078h.327l-.078.401a.717.717 0 00-.016.124c0 .017.002.03.005.039.01.023.034.034.072.034a.136.136 0 00.11-.05.362.362 0 00.064-.163l.075-.385h.23z"
     id="path87" />
  <text
     x="241.372"
     y="302.594"
     id="text102"><tspan
       x="241.372"
       y="302.594"
       id="tspan102">St Martin</tspan></text>
  <text
     x="239.294"
     y="321.123"
     id="text103"><tspan
       x="239.294"
       y="321.123"
       id="tspan103">Grouville</tspan></text>
  <text
     x="231.39"
     y="312.291"
     id="text104"><tspan
       x="231.39"
       y="312.291"
       id="tspan104">St Saviour</tspan></text>
  <text
     x="216.828"
     y="315.062"
     id="text105"><tspan
       x="216.828"
       y="315.062"
       id="tspan105">St Helier</tspan></text>
  <text
     x="232.566"
     y="328.916"
     id="text106"><tspan
       x="232.566"
       y="328.916"
       id="tspan106">St Clement</tspan></text>
  <text
     x="192.563"
     y="308.135"
     id="text107"><tspan
       x="192.563"
       y="308.135"
       id="tspan107">St Peter</tspan></text>
  <text
     x="197.211"
     y="291.307"
     id="text108"><tspan
       x="197.211"
       y="291.307"
       id="tspan108">St Mary</tspan></text>
  <text
     x="211.592"
     y="291.427"
     id="text109"><tspan
       x="211.592"
       y="291.427"
       id="tspan109">St John</tspan></text>
  <text
     x="227.18"
     y="298.437"
     id="text110"><tspan
       x="227.18"
       y="298.437"
       id="tspan110">Trinity</tspan></text>
  <text
     x="187.686"
     y="318.669"
     id="text111"><tspan
       x="187.686"
       y="318.669"
       id="tspan111">St Brelade</tspan></text>
  <text
     x="181.694"
     y="294.801"
     id="text112"><tspan
       x="181.694"
       y="294.801"
       id="tspan112">St Ouen</tspan></text>
  <text
     x="206.89"
     y="305.285"
     id="text114"><tspan
       x="206.89"
       y="305.285"
       id="tspan113">St</tspan><tspan
       x="206.89"
       y="308.152"
       id="tspan114">Lawrence</tspan></text>
  <path
     d="M122.546 121.402l.139-.137c.114-.013.464-.02.554.074l.002-.278.278-.066c.12-.07.182-.381.281-.414l.417-.135c.008-.003.103-.1.117-.114.052-.05.342-.18.44-.228l.003-.139.138.001.002-.277-.277-.005-.133-.556c-.166.105-.376.132-.557.203-.14.056-.278.14-.417.204-.021.119-.07.313-.142.414a3.929 3.929 0 01-.695.134l.003-.277c-.223.109-.445.24-.696.27l-.003.278a4.382 4.382 0 01-.69-.145c-.03.215-.1.476-.077.693.027.086.399.185.483.214.116.04.254.394.829.286z"
     id="path116" />
  <path
     d="M120.743 121.454l.001-.14.14.003.005-.696c-.212.132-.484.14-.695.272l-.006.555-.277-.003a.48.48 0 00.136.21c.125.034.575-.126.695-.201z"
     id="path117" />
  <path
     d="M154.426 120.49l.416-.066.05-.229.092-.049.003-.278h-.138c-.004.096-.056.285-.143.345l-.812-.048.018.156c.117.008.433.064.513.168z"
     id="path118" />
  <path
     d="M114.535 118.614l.003-.278h.138v-.136c-.182.035-.527.128-.692-.007-.037.105-.091.302-.073.416l.069.07c.171.022.392-.006.554-.065z"
     id="path119" />
  <path
     d="M79 125.52a4.5 4.5 0 01.695-.133l.001-.139h.139v-.136a1.247 1.247 0 00-.553-.075.644.644 0 01-.28.206z"
     id="path120" />
  <path
     d="M130.079 129.953l.21-.205.072-.278c-.255.096-.578.09-.832-.007v.139h.137l-.002.278c.104.037.303.093.415.073z"
     id="path121" />
  <path
     d="M152.687 127.347l.001-.138.277.002c-.009-.123-.051-.456-.132-.557l-.277-.002c-.008.13-.055.592-.146.693z"
     id="path122" />
  <path
     d="M155.982 123.227l.577-.226-.213-.233-.314.15z"
     id="path123" />
  <path
     d="M147.638 120.343v-.138l-.09-.05-.045-.229c-.12.02-.314.064-.417.133l-.001.139.368.052.046.093h.139z"
     id="path124" />
  <path
     d="M124.945 116.91l.416.004-.135-.28-.277-.001z"
     id="path125" />
  <path
     d="M138.16 138.718l.003-.277-.415-.006-.002.138c.1.073.295.124.414.145z"
     id="path126" />
  <path
     d="M153.04 120.404l.14.002.004-.419h-.138z"
     id="path127" />
  <path
     d="M133.608 137.004h.138l.002-.138.138.002.002-.139-.278-.004z"
     id="path128" />
  <path
     d="M134.023 137.009l.14.002.002-.278-.14-.003z"
     id="path129" />
  <path
     d="M109.627 124.681h.138v.139h-.138z"
     id="path130" />
  <path
     d="M130.295 135.999h.138l.002-.14h-.139z"
     id="path131" />
  <path
     d="M156.032 122.919l.314-.151.212.233-.577.227z"
     id="path132" />
  <path
     d="M154.891 120.196l-.048.227-.418.067c-.08-.106-.397-.162-.513-.17l-.018-.156.812.05c.088-.06.138-.251.143-.346h.138l-.003.277z"
     id="path133" />
  <path
     d="M153.047 119.987h.138l-.006.418h-.137z"
     id="path134" />
  <path
     d="M152.833 126.655c.08.1.124.433.132.555l-.278-.003v.14l-.278-.003c.093-.1.138-.563.146-.693z"
     id="path135" />
  <path
     d="M147.64 120.207l-.004.135h-.138l-.045-.093-.37-.05.003-.14c.103-.07.296-.114.418-.133l.042.23z"
     id="path136" />
  <path
     d="M138.164 138.442l-.005.275c-.119-.021-.312-.072-.413-.143l.003-.14z"
     id="path137" />
  <path
     d="M134.026 136.73l.138.003-.003.277-.137-.002z"
     id="path138" />
  <path
     d="M133.61 136.725l.279.005-.003.138-.137-.003-.003.14h-.138z"
     id="path139" />
  <path
     d="M130.296 135.859h.138v.14h-.138z"
     id="path140" />
  <path
     d="M130.288 129.748l-.21.206c-.11.018-.312-.037-.415-.074l.003-.278h-.137l.003-.14c.251.098.574.103.83.008z"
     id="path141" />
  <path
     d="M124.948 116.632l.278.003.135.278-.415-.003z"
     id="path142" />
  <path
     d="M109.627 124.681h.14v.14h-.14z"
     id="path143" />
  <path
     d="M79.281 125.038c.172-.021.395.01.556.074l-.003.135h-.137l-.003.14c-.23.03-.471.07-.693.135l.003-.28a.645.645 0 00.277-.204z"
     id="path144" />
  <path
     d="M113.985 118.192c-.037.105-.092.302-.073.417l.068.07c.171.021.393-.006.555-.065l.004-.278h.138v-.137c-.182.036-.527.13-.692-.007zm10.523.936c-.166.105-.376.133-.557.204-.14.055-.278.14-.417.204-.021.119-.07.313-.143.414a3.93 3.93 0 01-.694.134l.003-.278c-.223.11-.445.24-.696.27l-.004.278a4.382 4.382 0 01-.69-.144c-.03.215-.1.475-.077.692.028.086.4.186.484.215.115.04.253.394.828.285l.14-.137c.113-.013.463-.02.554.074l.002-.278.278-.066c.12-.07.181-.381.28-.414l.417-.135c.008-.003.104-.1.117-.114.052-.05.342-.18.441-.228l.002-.139.138.001.003-.277-.277-.004zm-3.618 1.493c-.213.131-.484.14-.696.272l-.006.555-.277-.003c.02.063.08.172.137.21.125.034.574-.126.695-.2v-.14l.14.002zm-11.263 4.06v.14h.138v-.14z"
     id="path145" />
  <path
     stroke="#0978ab"
     stroke-width="1.559"
     stroke-linejoin="round"
     stroke-miterlimit="3.864"
     d="M154.426 120.49l.416-.066.05-.229.092-.049.003-.278h-.138c-.004.096-.056.285-.143.345l-.812-.048.018.156c.117.008.433.064.513.168z"
     id="path146" />
  <path
     stroke="#0978ab"
     stroke-width="1.559"
     stroke-linejoin="round"
     stroke-miterlimit="3.864"
     d="M152.687 127.347l.001-.138.277.002c-.009-.123-.051-.456-.132-.557l-.277-.002c-.008.13-.055.592-.146.693z"
     id="path147" />
  <path
     stroke="#0978ab"
     stroke-width=".412"
     stroke-linejoin="round"
     stroke-miterlimit="3.864"
     d="M155.982 123.227l.577-.226-.213-.233-.314.15z"
     id="path148" />
  <path
     stroke="#0978ab"
     stroke-width="1.559"
     stroke-linejoin="round"
     stroke-miterlimit="3.864"
     d="M147.638 120.343v-.138l-.09-.05-.045-.229c-.12.02-.314.064-.417.133l-.001.139.368.052.046.093h.139z"
     id="path149" />
  <path
     stroke="#0978ab"
     stroke-width=".412"
     stroke-linejoin="round"
     stroke-miterlimit="3.864"
     d="M124.945 116.91l.416.004-.135-.28-.277-.001z"
     id="path150" />
  <path
     stroke="#0978ab"
     stroke-width="1.559"
     stroke-linejoin="round"
     stroke-miterlimit="3.864"
     d="M138.16 138.718l.003-.277-.415-.006-.002.138c.1.073.295.124.414.145z"
     id="path151" />
  <path
     stroke="#0978ab"
     stroke-width=".412"
     stroke-linejoin="round"
     stroke-miterlimit="3.864"
     d="M153.04 120.404l.14.002.004-.419h-.138z"
     id="path152" />
  <path
     stroke="#0978ab"
     stroke-width=".412"
     stroke-linejoin="round"
     stroke-miterlimit="3.864"
     d="M133.608 137.004h.138l.002-.138.138.002.002-.139-.278-.004z"
     id="path153" />
  <path
     stroke="#0978ab"
     stroke-width=".412"
     stroke-linejoin="round"
     stroke-miterlimit="3.864"
     d="M134.023 137.009l.14.002.002-.278-.14-.003z"
     id="path154" />
  <path
     stroke="#0978ab"
     stroke-width=".412"
     stroke-linejoin="round"
     stroke-miterlimit="3.864"
     d="M130.295 135.999h.138l.002-.14h-.139z"
     id="path155" />
  <path
     d="M155.982 123.228l.05-.31.315-.15.212.232z"
     id="path156" />
  <path
     d="M154.891 120.196l-.047.227-.418.067c-.08-.106-.397-.162-.513-.17l-.019-.156.813.05c.087-.06.137-.251.142-.347h.138l-.003.278z"
     id="path157" />
  <path
     d="M153.042 120.405l.005-.418h.138l-.005.418z"
     id="path158" />
  <path
     d="M152.833 126.654c.08.1.125.434.133.556l-.278-.003v.14l-.278-.002c.093-.1.138-.564.145-.693z"
     id="path159" />
  <path
     d="M147.64 120.206l-.003.135h-.138l-.045-.092-.37-.05.002-.14c.104-.07.297-.115.418-.133l.043.23z"
     id="path160" />
  <path
     d="M138.165 138.442l-.006.275c-.12-.021-.313-.072-.413-.143l.003-.14z"
     id="path161" />
  <path
     d="M134.024 137.007l.002-.277.138.002-.003.278z"
     id="path162" />
  <path
     d="M133.608 137.005l.003-.28.278.005-.003.137-.137-.002-.003.14z"
     id="path163" />
  <path
     d="M130.296 135.86h.138v.14h-.138z"
     id="path164" />
  <path
     d="M130.288 129.747l-.209.206c-.111.019-.312-.037-.415-.073l.003-.278h-.138l.003-.14c.25.097.574.103.83.007z"
     id="path165" />
  <path
     d="M130.288 129.747l-.209.206c-.111.019-.312-.037-.415-.073l.003-.278h-.138l.003-.14c.25.097.574.103.83.007z"
     id="path166" />
  <path
     d="M124.946 116.91l.003-.278.278.003.134.277z"
     id="path167" />
  <path
     d="M124.642 119.685l.275.005v.276h-.14l-.003.138c-.098.05-.386.177-.439.23-.013.013-.111.11-.12.11l-.414.138c-.1.032-.162.342-.28.413l-.279.067-.002.277c-.09-.092-.442-.087-.553-.074l-.14.138c-.575.108-.715-.246-.829-.286-.084-.029-.457-.13-.484-.214-.024-.217.048-.48.077-.693.222.069.46.114.69.145l.003-.278c.251-.031.474-.16.696-.27l-.003.276a3.84 3.84 0 00.693-.133c.074-.1.122-.296.143-.415.14-.064.278-.148.418-.204.182-.069.391-.098.558-.201z"
     id="path168" />
  <path
     d="M120.194 120.892c.212-.133.484-.14.696-.27l-.006.693h-.14v.138c-.122.076-.571.235-.696.204a.494.494 0 01-.137-.212l.277.003z"
     id="path169" />
  <path
     d="M114.537 118.336l-.002.278c-.162.06-.384.087-.556.066l-.066-.072c-.019-.113.034-.312.071-.415.167.135.511.042.693.006v.137h-.14z"
     id="path170" />
  <path
     d="M109.627 124.68h.14v.14h-.14z"
     id="path171" />
  <path
     d="M79.281 125.038c.172-.021.395.01.556.074l-.002.135h-.138l-.003.14c-.23.03-.47.069-.693.135l.003-.28a.645.645 0 00.277-.204z"
     id="path172" />
  <path
     d="M79.281 125.038c.172-.021.395.01.556.074l-.002.135h-.138l-.003.14c-.23.03-.47.069-.693.135l.003-.28a.645.645 0 00.277-.204z"
     id="path173" />
  <path
     stroke="#0978ab"
     stroke-width=".412"
     stroke-linejoin="round"
     stroke-miterlimit="3.864"
     d="M130.989 135.724l.003-.275c-.1.08-.434.124-.556.132l.003-.277-.275-.072-.07-.072-.065-.278-.279.136.003-.279.416.006c.037-.164.095-.384.074-.553-.043-.132-.508-.156-.55-.286l-.064-.556.415.006c-.217-.275.138-.569.077-.833-.156-.16-.201-.276-.249-.511l-.092-.048.002-.14.138.003.048.09.09.05.003-.278a.625.625 0 00.28-.206l.278-.066.003-.418c.103.076.294.124.415.142l.003-.275.278.003c-.145-.365-.024-1.193.027-1.559.502.003.558-.164.894-.222l.202.066a3.74 3.74 0 01.28-.148 6.2 6.2 0 01.283-.481c.161.04.423-.154.51-.283l.025-.244c.248-.174.452-.984.383-1.27-.029-.132-.185-.267-.132-.418l.14-.14.072-.275c.38-.246.876-.19 1.307-.278l.158.185c.217-.018.453-.05.67-.048.251.006.505.064.76.053.324-.013 1.243-.248 1.552-.389l-.005-.312.415.074.273.28.553.077c.09-.174.185-.442.351-.553l.003-.138-.275-.28c-.03-.153-.109-.733-.199-.836l.278.003a4.46 4.46 0 01.146-.694c.119-.076.174-.203.278-.285.334-.265 2.89-2.201 2.956-2.405l.14.002-.003.138c-1.014.794-2.056 1.56-3.04 2.392l.037.696.172.126-.157.083.045.33.366.035.048-.024-.021-.341.378-.03.193-.666c.007.386.116.857.288 1.204l.302-.01.138.208-.154-.143-.272.008-.103.36.126.405c.244.156.561.24.84.307.793.19 1.304.209 2.09-.008.145-.04.325-.07.462-.125.098-.04.31-.262.413-.254.27-.373.606-.603.826-1.016l-.05-.362c-.042-.045-.4-.405-.41-.424-.098-.167-.138-.28-.273-.418l-.066-.418c.46.021.445-.09.765-.13l.074-.417c.153-.122.386-.05.553.005-.019-.662-.35-.58-.262-1.405l.603.265a.67.67 0 00.204.28l.07.278c.785.431.84.312 1.457-.214l-.058-.456c-.074-.066-.23-.156-.334-.159l-.037-.185a.534.534 0 01-.217-.27l.032-.164.211.038a.629.629 0 01.292.545l.124.068c.043-.013.19-.063.207-.11-.014-.157-.122-.323-.275-.376l.01-.3c.103-.097.39-.29.548-.25-.01.2.01.45.08.64l.314-.035.023.561c.172.106.23.244.345.394.259.342.762.569 1.185.55.138-.095.286-.354.27-.526.138-.085.275-.24.363-.373.037.156.121.424.23.553.073-.103.248-.238.378-.257l.071-.277.337.018.153.257.289-.106.251.053c.058-.069.314-.164.397-.193l.132.201a.645.645 0 00.404-.042l.183.087-.116.291.32.013c.069-.108.19-.214.299-.285l.215.018.068.111-.016.31-.105.116c.214.62.195.41.008 1.127l-.07.07-.277.065-.074.418-.072.07-.278.065-.005.416-.275-.003-.042-.12-.094-.028-.076.286c-.138.135-.178.246-.28.413a19.6 19.6 0 01-.421.412l-.143.553-.212.207-.275-.003-.138-.14c-.492-.177-2.006-.161-2.434.262a1.2 1.2 0 00-.349.748c.098.03.217.133.275.212l.278.072c.159.206-.058.571.336.839.019.22-.024.478-.076.693l-.556.063-.21.206-.007.556-.069.07-.278.065-.072.278-.071.069c-.5.08-1.199-.368-1.519-.296l-.212.206c-.002.209-.063.823.059.974-.199-.082-.481-.095-.69-.077l-.07.066-.073.28-.275-.002-.075.275-.209.206-.415.066-.005.278c-.1-.092-.561-.137-.69-.148.11.154.232.775.198.974-.104.307-1.042-.072-1.188.96l-.278-.002-.003.277c-.185-.206-.878-.015-1.108.059a5.907 5.907 0 00-.14.137c-.22.019-.48-.026-.69-.076l-.074.275-.07.069-.277-.003c-.117-.124-.252-.291-.41-.352l-.006.278c-.16-.182-1.034-.021-1.246.058l-.28.276c-.236.14-.612.224-.766.476-.145.235-.34.59-.632.688l.002-.278c-.115.095-.275.066-.414.066l-.21.204-.071.278-.278.066-.072.069-.071.278c-.273.066-.558.156-.834.198-.188.032-.446-.005-.645-.005-.103-.003-.24-.016-.325.066l.005-.278-.28.066a.744.744 0 01-.279.206l.003-.28-.553.063-.071.07-.072.277c-.1-.09-.56-.138-.693-.148l-.063-.416-.07-.068c-.037 0-.539 0-.555-.006-.376-.132-.36-.283-.828-.288-.13 0-.292.016-.416.066-.09.267-.094.423-.005.693l-.415-.003.005-.555z"
     id="path174" />
  <path
     d="M150.323 121.58a1.198 1.198 0 01-.304.228c-.05.093-.128.262-.136.369.027.053.107.123.168.13a.82.82 0 00.222-.125l.136.049.158-.087-.034-.395-.097-.136zm-10.03 3.399a1.012 1.012 0 00-.227.234l-.016.117c.077.019.165.124.188.196l.126.063.11-.016.038-.086-.016-.117c-.136-.086-.06-.31-.204-.391zm4.498 1.14l-.276.129c-.07.126-.036.404.089.493.065.016.186-.027.24-.058.13-.157.156-.33.041-.505z"
     id="path175" />
  <path
     d="M149.439 119.441c-.162.013-.393.17-.482.257l-.01.299c.151.05.26.218.273.374-.016.049-.162.1-.205.11l-.125-.067a.63.63 0 00-.291-.545l-.211-.037-.032.163a.525.525 0 00.217.271l.035.184c.104.004.26.093.335.16l.06.455c-.617.526-.674.645-1.46.215l-.067-.28a.65.65 0 01-.205-.28l-.604-.265c-.087.827.243.745.263 1.407-.166-.057-.4-.13-.554-.005l-.073.417c-.32.04-.306.151-.764.129l.065.418c.134.138.173.25.271.419.01.018.368.38.412.422l.049.362c-.217.414-.555.645-.825 1.018-.102-.009-.314.213-.412.253-.138.055-.317.085-.462.126-.786.215-1.297.198-2.092.007-.278-.067-.594-.15-.838-.306l-.128-.405.105-.36.27-.008.155.143-.138-.21-.301.011a3.099 3.099 0 01-.29-1.204l-.191.666-.379.03.02.34-.046.026-.366-.036-.044-.33.154-.081-.171-.13-.037-.695c.984-.829 2.025-1.598 3.038-2.39l.002-.139-.138-.002c-.066.204-2.622 2.14-2.955 2.405-.103.082-.16.21-.279.285a4.46 4.46 0 00-.146.694l-.277-.003c.09.105.17.684.199.836l.274.282-.002.137c-.168.11-.262.377-.352.554l-.554-.077-.273-.281-.416-.074.006.31c-.309.141-1.228.378-1.553.391-.253.01-.507-.05-.757-.053-.218-.004-.453.029-.67.048l-.16-.187c-.431.088-.925.033-1.307.28l-.072.276-.14.138c-.05.15.103.286.135.418.068.287-.136 1.097-.384 1.272l-.025.243c-.087.128-.348.321-.51.28a5.702 5.702 0 00-.282.484c-.096.045-.19.095-.282.148l-.201-.067c-.335.06-.392.226-.895.222-.049.366-.17 1.195-.027 1.559l-.277-.002-.003.276c-.123-.02-.311-.067-.414-.143l-.005.417-.278.066a.623.623 0 01-.279.206l-.004.279-.09-.05-.046-.091-.139-.002-.002.139.091.048c.048.236.093.35.25.51.061.266-.293.559-.077.833l-.416-.003.063.555c.043.13.51.154.551.284.02.171-.038.39-.074.554l-.415-.004-.004.278.28-.137.065.279.069.07.276.073-.002.278c.121-.01.454-.053.555-.134l-.003.277.277.004-.006.556.415.004c-.089-.27-.085-.427.007-.695a1.13 1.13 0 01.415-.064c.469.006.45.155.828.286.016.006.52.006.554.006l.069.07.065.416c.13.01.59.058.691.149l.072-.279.072-.068.554-.063-.003.278c.12-.043.192-.119.279-.205l.278-.066-.003.277c.084-.08.22-.068.324-.067.198.002.457.037.646.007.276-.044.56-.134.833-.2l.072-.278.07-.067.278-.066.072-.278.21-.205c.14 0 .3.029.416-.067l-.003.279c.289-.096.487-.453.63-.686.156-.254.53-.338.767-.478l.28-.276c.21-.078 1.084-.24 1.247-.057l.003-.278c.16.06.293.228.411.351l.278.005.07-.07.072-.277c.213.053.47.097.691.078.015-.016.131-.133.14-.137.23-.074.923-.265 1.11-.06l.002-.276.277.003c.148-1.032 1.085-.655 1.188-.96.035-.199-.086-.822-.198-.974.131.008.59.055.691.147l.004-.278.417-.065.21-.207.071-.276.277.002.073-.278.069-.068c.21-.018.494-.005.692.077-.122-.151-.06-.766-.059-.973l.21-.206c.322-.073 1.02.374 1.52.295l.07-.07.073-.276.278-.068.07-.068.005-.555.212-.205.555-.066a2.25 2.25 0 00.076-.693c-.393-.265-.177-.63-.337-.837l-.276-.073a.64.64 0 00-.276-.21c.016-.277.156-.557.35-.75.428-.423 1.94-.438 2.433-.262l.137.14.277.003.21-.206.145-.554c.046-.045.411-.394.42-.41.104-.168.142-.28.282-.415l.074-.285.094.028.04.12.278.003.006-.416.277-.067.07-.068.074-.417.279-.067.07-.068c.187-.717.206-.508-.009-1.129l.106-.117.016-.308-.069-.11-.215-.018c-.106.07-.23.175-.299.284l-.32-.013.116-.29-.182-.09a.643.643 0 01-.404.045l-.132-.202c-.084.029-.338.123-.397.193l-.252-.052-.29.105-.152-.257-.336-.019-.072.278c-.13.02-.303.154-.379.256-.108-.129-.192-.395-.228-.553-.088.134-.224.29-.362.375.015.171-.134.43-.27.526a1.515 1.515 0 01-1.186-.552c-.114-.149-.172-.288-.343-.394l-.024-.559-.316.033a1.74 1.74 0 01-.08-.64.195.195 0 00-.064-.004zm.884 2.139l.113.032.097.136.034.395-.158.087-.137-.049a.822.822 0 01-.22.125c-.062-.007-.142-.076-.169-.13.007-.107.087-.276.136-.369.112-.056.215-.139.304-.227zm-10.03 3.398c.142.082.067.306.203.391l.016.118-.039.085-.11.016-.125-.063c-.023-.072-.111-.177-.188-.195l.016-.117c.063-.087.138-.172.226-.235zm4.498 1.14l.094.059c.115.175.089.348-.04.505-.055.03-.176.074-.241.058-.125-.088-.159-.367-.089-.493z"
     id="path176" />
</svg>
