<svg version="1.1" id="svg22" width="1024" height="1024" xmlns="http://www.w3.org/2000/svg" viewBox="0 0 1024 1024" fill="#e83c4b" stroke-linecap="round"><defs id="defs11"><style type="text/css" id="style9"/></defs><g id="g20" transform="translate(-718.463 82.827) scale(2.12543)"><path id="GQ-BS" d="M424.407 11.143l-1.82-.35-2.093-.833-6.697-4.725-2.006-1.15-4.143-1.36-2.236.12h-.022l-.866 11.839-.899 1.962-2.115 2.05-2.4 1.72-1.908 1.03 1.381 2.149.439 2.828-.855 2.444-2.576 1.041-5.448-.997-2.575-.12-1.94 1.117-3.628-.997-2.85 2.532-2.006 3.858-1.03 2.981-.943 6.478-.603 1.414-.493 1.7.986 2.005 1.403 2.006.69 1.655 1.228 4.505 2.938 2.29 3.628.856 3.288.11 1.995.438 3.234 2.071 1.644.724 1.545.022 3.508-.779 1.107-.383 4.253 2.367 2.214.8.964-.416.8.997 3.508 1.491 1.469.997 1.425-1.72 5.239-8.616 6.872-7.935.954-2.5.077-7.058.537-2.477 4.395-2.62.35-.504.417-.822.724-3.606 2.641-2.094 3.058-8.231.439-.516-2.423-5.984-.405-.669-.45-.58-1.424-.954-2.006-.746-4.144-.833-3.88-.197-1.162.142z"/><path id="GQ-BN" d="M423.234-18.506l-6.28 1.754-5.382 5.316-4.012 6.555L405.565.51l-.175 2.335h.022l2.236-.12 4.143 1.359 2.006 1.15 6.697 4.725 2.094.833 1.82.35 1.303-.033 1.162-.142 3.88.197 4.144.833 2.005.746 1.425.953.45.581.405.669 2.423 5.984 5.086-6.028 1.567-4.242 5.524-4.91 1.228-2.028.975-2.39.625-2.674.23-2.949-.603-3.244-1.523-2.62-4.056-5.03-1.25-.22-.47-.252-.46-.669-4.254 1.666-5.195.143-4.954-.756-3.453-1.053-1.502 1.107-2.093-.11-4.757-.997.624-1.6z"/><path id="GQ-WN" d="M747.03 263.67l-3.903-.723-2.674-.844-17.549-7.475-4.198-.866-1.501-.099-5.525 2.16-17.077 10.171 3.946 4.768 10.282 8.2.822 2.52-.252 3.551-.855 3.65-1.009 2.795-3.924 5.864-.635 2.204.306 2.016 1.897 2.938.592 1.688-.823 4.308-1.753 3.145.197 2.51 5.053 2.445 4.735 1.238 4.198.472 4.056-.384 4.384-1.392 5.053-2.521 1.787-.395 1.446.132 2.653.855 1.512.219 1.491-.68 1.228-1.15 1.041-.307 2.028 3.66 1.195-.47 1.863-2.127 1.14-.482 1.107-.724 1.074-.394 1.02.504.317.701.252 1.622.494.494 2.433.723 7.76 1.293.767-.098.592-.362 1.447-.69v.898l-.953 1.655-1.513.79-5.437 2.093-1.731 1.239-6.917 7.486-1.183 1.809-2.258 4.296-6.314 8.506-2.894 4.79-1.973 4.812-.263 1.677.33 2.093 1.161 2.412 9.93 11.015 1.875 1.305 6.357 2.893 1.765 2.138 1.545 3.112 2.51 10.019 1.37 2.641 1.217.844 1.26.636 1.075.844.877 1.085.11 1.644-.143 1.36-2.127 3.09-.284.395-.011.033 11.158.033 45.816.164-.23-40.095-.241-40.084-.187-32.06h-.054l-15.905-2.127-6.642.998-1.743.822-1.841.285-9.755-1.041-3.376.164-3.07.647-3.002.35-2.543-.142-2.565-1.304-1.283-1.349-.778-1.863-4.494-28.63-.668-2.06-1.042-1.228-1.326-.537-2.083.822-1.523 1.173-2.422 2.587-1.502 1.205-2.083.757z"/><path id="GQ-LI" d="M513.629 423.513l.372-1.49.866-.625-2.104-1.809.493-1.666-.614-1.315-1.238-.866h-1.995l-.79 5.107 1.908 1.173 1.25 2.116zm97.354-196.386l-9.678-4.834-2.653-.624-2.751-1.02-3.88-2.652-3.54-3.135-1.963-2.433-.329-3.157.494-3.157-.132-2.872-1.754-2.575-3.025 2.126-1.973 2.653 1.228 3.43 1.304 2.675.45 3.452L581.509 234l-.34.822-.701.767-.713 1.03-.34 1.611.165 1.678.471 1.304 1.458 2.872 4.242 12.506.603 6.346-1.633 5.185-5.415 5.349-.844 1.447-.329.8-.723.745-.69 1.02-.582 3.704-.493 1.02-.701.646-.647.932-1.304 3.036-.658 1.085-1.195 1.217-3.135 2.082-.767.866-.888 1.71-.416.57-8.988 8.911-1.568 4.144 2.302 4.23 6.632 6.303 2.718.647 6.248-4.231 3.09-.165-3.408 1.688-2.664 1.732-2.893 1.36-4.078.536-2.894-1.019-1.918-1.798-1.995-.657-3.134 2.433-2.467 4.505-1.786 4.384-.34 1.633-.712 1.02-.702.745-.34.822-.482.252-2.653 3.442-6.028 5.47-4.209 1.84-.592 2.511.395 5.864-.768 2.773-1.644 3.464-2.148 2.96-2.335 1.249-1.742 1.184-1.349 2.773-2.488 7.837-1.293 2.236-1.798 1.797-2.39.987 1.985 2.576.383 1.205-.296 1.535 1.962 1.414 3.585 4.011 1.348.844 2.313-.493 4.526-2.16 4.867-.92 1.787-.811 1.995-.46 2.784.657 2.455 1.26 1.655 1.48 1.25 1.93 2.389 7.354 1.37 1.798 3.792-1.6 5.042-1.25 1.053-1.096 1.238-2.203 2.96-3.398 3.485-3.069 2.84-1.206-.943.614-1.195 1.337-.669 1.644.614 1.535 1.633.406 6.28-1.349 1.853.472 3.825 2.17 1.568.482 1.874.154 2.214.405 1.875.636.92.811-1.962.132-2.269.405-1.994.69-1.184.954-.34 1.82 1.173 3.913.208 2.62-.23.8 4.549.526 2.367.866 2.532 1.786 3.968 4.538 2.532 1.962 2.696 1.15 2.73.417 2.433-.537 1.797-1.753.56-2.006.01-4.538.812-2.236 2.992-.384v-.043l-.044-.296 1.008-3.168 1.447-3.003.855-1.228.855-.943.8-.668 3.563-1.951 3.704-1.436.713-.395 1.852-.712 1.425-.198 1.392.143 3.146.888 1.863.362 2.357.11 2.926-.242 5.711-1.162 2.4-.833 2.346-1.184 2.017-1.567 1.359-1.962.515-1.918-.142-1.962-.592-1.798-.833-1.414-1.326-.767-.921.143-.954.833-1.063 1.15-1.304.57-1.6-.175-1.656-.899-.81-1.14-.779-3.858-.526-1.228-.855-1.03-.471-1.271-.121-2.094.055-1.765-.285-1.446-.855-.921-1.721-.044-1.392-.46-1.26-1.118-.877-3.004-.428-2.389-.427-10.018-.592-1.677-3.047-1.633-1.349-1.25-1.118-2.411-.263-2.061.263-1.82 1.59-3.463 1.096-1.93-.143-.712-.526-.789-2.707-2.29-4.527-2.105-9.788-2.861-10.742-2.905-1.096-.657-.592-.943-.142-1.326.833-1.7 1.37-1.194 2.576-.888 2.96-.635 2.016-1.327 2.817-4.011 9.437-16.694 5.48-7.278 1.305-3.047.822-16.529.57-2.762.91-2.411 1.776-2.949 1.403-1.611 5.842-5.14 1.118-1.513.778-1.93.614-2.674.175-7.322-1.173-8.462h-30.449z"/><path id="GQ-KN" d="M819.217 293.9l-.043-8.023-.241-40.116-.066-12.288-1.173-5.864h-45.75l-45.773.011h-48.042l.23 7.618 1.305 4.955 2.345 6.532.33 2.192-.242 1.875-1.25 3.047-.591 2.28-.384 3.562.285 1.951.69 1.36.286.153 1.71 1.534 1.666.22 6.5-.549 2.761.647.834.997 17.077-10.171 5.524-2.16 1.501.099 4.198.866 17.549 7.475 2.674.844 3.902.724 2.488-.241 2.083-.757 1.502-1.205 2.422-2.587 1.524-1.173 2.082-.822 1.326.537 1.042 1.228.668 2.06 4.494 28.63.778 1.863 1.283 1.349 2.565 1.304 2.543.142 3.003-.35 3.069-.647 3.376-.164 9.755 1.04 1.842-.284 1.742-.822 6.643-.998 15.904 2.127z"/><path id="GQ-CS" d="M684.508 264.898l-1.666-.219-1.71-1.534-.284-.154-.691-1.359-.285-1.951.384-3.562.592-2.28 1.25-3.047.24-1.875-.329-2.192-2.345-6.533-1.305-4.954-.23-7.618-33.606.011 1.173 8.462-.175 7.322-.614 2.674-.778 1.93-1.118 1.512-5.843 5.14-1.403 1.612-1.775 2.949-.91 2.41-.57 2.763-.822 16.53-1.304 3.046-5.48 7.278-9.438 16.694-2.817 4.011-2.017 1.327-2.96.635-2.575.888-1.37 1.195-.833 1.699.142 1.326.592.943 1.096.657 10.742 2.905 9.788 2.86 4.527 2.105 2.707 2.291.526.79.143.712-1.096 1.929-1.59 3.463-.263 1.82.263 2.06 1.118 2.412 1.349 1.25 3.047 1.633.592 1.677.427 10.018.428 2.39.876 3.003 1.26 1.118 1.393.46 1.72.044.856.92.285 1.447-.055 1.765.12 2.094.472 1.271.855 1.03.526 1.228.778 3.858.811 1.14 1.655.899 1.6.175 1.305-.57 1.063-1.15.954-.834.92-.142 1.327.767.833 1.414.592 1.798.142 1.962-.515 1.918-1.36 1.962-2.016 1.567-2.346 1.184-2.4.833-5.71 1.162-2.927.241-2.357-.11-1.863-.361-3.146-.888-1.392-.143-1.425.198-1.852.712-.713.395-3.704 1.436-3.563 1.95-.8.67-.855.942-.855 1.228-1.447 3.003-1.008 3.168.044.295v.044l4.45-.58 16.693.065 42.298.132 3.519.01 45.794.154 34.637.11.01-.033.285-.395 2.127-3.09.142-1.36-.11-1.644-.876-1.085-1.074-.844-1.26-.636-1.217-.844-1.37-2.642-2.51-10.018-1.546-3.113-1.765-2.137-6.357-2.894-1.874-1.304-9.93-11.016-1.163-2.411-.329-2.094.263-1.677 1.973-4.811 2.894-4.79 6.314-8.506 2.258-4.297 1.183-1.808 6.917-7.486 1.731-1.239 5.437-2.094 1.513-.789.953-1.655v-.899l-1.447.69-.592.363-.767.098-7.76-1.293-2.433-.724-.494-.493-.252-1.622-.318-.702-1.019-.504-1.074.395-1.107.723-1.14.483-1.863 2.126-1.195.471-2.028-3.66-1.041.306-1.228 1.151-1.49.68-1.513-.22-2.653-.854-1.446-.132-1.787.395-5.053 2.52-4.384 1.393-4.056.383-4.198-.471-4.735-1.239-5.053-2.444-.197-2.51 1.753-3.146.823-4.307-.592-1.688-1.897-2.938-.306-2.017.635-2.203 3.924-5.864 1.009-2.795.855-3.65.252-3.551-.822-2.521-10.282-8.199-3.946-4.768-.833-.997-2.762-.647z"/></g></svg>