<svg width="1024" height="1024" viewBox="0 0 270.933 270.933" xmlns="http://www.w3.org/2000/svg" fill="#e83c4b" stroke-linecap="round"><path d="M142.934 107.98l.258-.58.642-.513.258-.965.386-.387 1.157-.578.579-.13.514-.127.13-.386v-.386l.193-.129.514.579.577.064.773-.771 1.351-.773 2.25-.963 1.223-1.094.13-.707-.387-.837.321-.578.771-.193.322.321v1.287l-.322.643-.128 1.158.387 1.093 1.093.513.964-.32.965.578.257.386.965.386.707.708.129.578-.064 1.093 1.415 1.93 1.48 3.15.127.194.772.193.772.964.515.322.257 1.029.515.321.578 1.544.386.837.064.77.708.45.77.13.709.58.837.77-.065.514.257.451.836-.13 1.223-.643.192-.77v-.644l-.45-.45-.772.064-.193-.515.065-.835.707-1.672 1.029-1.994 1.286-1.48.772-.063h.708l-.13-.45h.258l.064-.13.386.451-.193.772.515.515.642.77-.063.772v1.03l.063.642.388.322v.258l-.516.321-.707.258-.386.321-.129.644.064.9.451.643 2.894 1.543 2.573.258 2.38-.129 2.7-.321 1.03-.58 2.444-.515 1.993-1.028.707-.835.258-.644-.193-.257-.515-.13.064-1.092 1.223-.58 1.029.13.257.192.644-.064.193.322-.193 1.286.77.257 1.866-.064 1.802-.451 1.286-1.093.835.065 1.158 1.092 2.252 1.158.513-.127 2.637-.388 1.222.388 2.959 2.57 1.222 1.416 1.416.9.512.45.773.58 2.059-.13h.771l.772.58-.258.385-.578-.257-.58-.257-.9.836-.772 1.48-.45 1.864-.064 1.414.387.709.835.322 1.028.191.066.516.385.257.772-1.159 1.158-.77 1.028-.451.58-.708 1.286-.45-.065-.964-.257-.772-.45-.386-.45.257-.644-.578-.514-.643-.514-.45.191-.386.516.45 1.222.32 1.351 1.545.643 1.672 1.223 2.894 1.928 3.344.965.9.835 1.479.387 3.28.708.836.643.644 1.864 1.67 2.122.965 1.415 1.094 2.509 2.637 4.374 3.344 2.314.77h2.702l3.473-.191 4.824-.643 5.016-1.35 1.801-.58 5.146-1.608.127.386-.193.45-.45.643-2.057.259-1.738.128-.513.385-3.216.773-3.601 1.22-4.247.388-1.735.128-1.545.578-1.543.45-2.314.258-2.38.771-1.545.708-.964.964-1.35 1.479-1.03.773-1.351.321-1.992.386-1.544.964-1.286.45-.964 1.094-1.03 1.35-.515.514h-.771l-.386.194-.13.578-.385.321h-.385v-.256l.385-.451.065-.45.385-.257 1.03-.322.257-.321-.256-.386-.966-.45-1.802-.964-.578-.836-.386-.323-.514-.257-1.544-.707-.321.193-.193.322.193.45-.45 1.929-.129.45.128.387.58.707.063 1.028v1.223l.13.643.578.257 1.03-.387 1.093-.77.45-.258.256.128-.449.643-.964.708-1.16.45-1.54.258-1.287.965-.259.385-1.286.322-3.346 3.601-1.799 1.993-1.286.836-4.952 1.545h-.515l-2.187-.58-4.309-1.221-2.444-.258-1.608.064-.9.965-.772 1.48-.772.643-1.092-.129-2.252.129-.836-1.352-1.094-.964h-.514l-.965-.45-1.93-1.286-.513-.837-2.251-2.186-3.73-3.152-1.223-1.478-.771-1.222-.901-1.994-.708-1.865-.578-.256-1.48-1.544-.192-1.159-1.094-2.507-.321-4.308-.321-.643-.066-2.252-.771-3.408-.193-3.665-.644-.837-.77-1.8-1.545-1.158-2.443.45-1.03-.964-.514-.772 1.544-.128 1.028-.515 1.03-1.415.772-2.057.128-2.188-.45-2.83-.772-.964-.708-.45-.193.643-.642.256-.451-.384-.322-.773.258-.643.836-.128.129-.45v-.642l-.387-.451-.449-.258-.45.193-.515.065-.386-.129-.193-.579.065-.579 1.414-.578.643.256.58-.513-.064-.708-.451-.772-.257-.45-1.222-.579-1.158.064-1.736-.256-1.866.128-1.35-.128-1.157-1.03-1.287-.128-1.157-.386-.451-.13-.257.194-1.094.771-2.057.965-1.738-.835-1.414-1.029-1.415-.066-1.222-.45-1.029-.127-.772-1.03-.193-1.736-.193-.578h-.321l-.258-.515-.193-.515.258-.837-.065-1.67-.514-1.03-.321-.193-.065-.386"/><path d="M10.51 127.336l.194 1.48-1.286.387-1.93-.643-2.186-1.609-.129-1.865.322-1.48 1.8-.45.515-.964 1.093-1.608h.385l.709 2.7.772.837 1.028.965.58.515-1.03.77-.836.965"/><path d="M210.786 84.892l.514-.065.193-.192.386-.194.13-.32-.259-.323.065-.385-.065-.45-.257-.13-.193.13.065.642-.194.258-.321.128-.128.258-.194.129-.065.128v.321l.323.065"/><path d="M212.651 86.5l-.193.128-.258-.128-.065.128.13.194h.257l.193-.194v-.064l-.064-.064"/><path d="M212.008 86.693l.192.064.066.129h.064v.128l-.064-.064-.066-.064-.065-.064h-.127v-.129"/><path d="M212.394 87.078h.064l.064.065v.128l-.064.065-.064-.129v-.129"/><path d="M211.686 82.512h-.129v.13l.066.128.127.064.065-.064v-.193l-.065-.065h-.064"/><path d="M211.428 82.255l.065.065.064.128.066-.064v-.064l-.066-.065h-.129"/><path d="M208.085 78.396l-.065.13.065.063.128-.128-.064-.065h-.064"/><path d="M2.536 115.053l.451-.064.386.58-.45.256-.257-.385-.13-.387"/></svg>