<svg viewBox="0 0 1024 1024" width="208" height="208" xmlns="http://www.w3.org/2000/svg" fill="#e83c4b" stroke-linecap="round"><path d="M353.642 229.306c-3.203.748-10.889 1.495-17.082 1.495-24.981.32-30.746 2.029-36.832 11.21-2.562 3.843-2.775 5.018-2.348 11.85.32 6.833 1.174 9.075 9.074 25.089 8.541 17.508 14.84 34.27 17.295 46.334 1.388 6.832 3.523 10.142 6.406 10.142.961 0 2.669.961 3.736 2.135 2.349 2.562 3.737 1.815 3.737-2.028 0-3.417-2.135-5.765-4.377-4.911-2.242.747-6.192-7.901-7.367-16.548-.533-4.057-2.989-12.491-5.338-18.683-4.91-12.811-5.231-16.228-2.028-19.644 2.562-2.776 8.327-5.445 11.53-5.445 1.281 0 4.911-1.815 8.327-3.95 9.929-6.299 21.139-6.085 20.392.427-.534 4.271-2.99 5.231-8.862 3.31l-5.017-1.708.64 3.416c.961 5.018 6.299 9.395 11.103 9.075 9.182-.641 10.57-.107 21.459 8.113 9.075 6.833 11.744 8.328 16.868 9.182 14.733 2.669 19.751 5.765 23.914 14.519 3.417 7.473 5.018 8.861 9.502 8.861 5.445 0 6.833 1.922 5.872 8.114-.427 2.882-.107 6.939.64 9.928.854 3.63.961 6.406.321 9.289-1.495 5.765-.854 7.259 3.416 9.288 2.028.961 4.164 2.989 4.697 4.484.748 1.921 1.709 2.562 3.523 2.455 1.388-.107 4.057.961 5.766 2.349 3.416 2.776 4.59 6.085 4.59 12.918 0 2.242.427 4.27.854 4.59.534.321 4.164-1.708 8.221-4.377 5.124-3.416 8.754-5.017 12.064-5.444 6.298-.748 5.231 1.281-2.456 4.697-6.085 2.669-7.153 4.27-6.512 9.715.32 1.922.213 3.523-.107 3.523s-2.882-1.281-5.872-2.989c-5.231-2.883-5.231-2.883-6.832-.747-2.883 3.95-.854 6.192 7.58 8.754 3.096.961 3.202 1.174 3.096 6.726-.214 4.377-1.068 7.58-3.737 12.491l-3.63 6.619 2.456 4.911c2.775 5.658 4.27 6.512 8.967 4.911 2.669-.961 3.844-.854 5.872.427 4.591 2.989 4.484 8.647-.213 13.772-2.349 2.455-3.31 2.776-10.356 2.776-13.879 0-19.003 4.484-19.857 17.401l-.427 7.901 5.658 6.299c3.203 3.523 7.9 8.861 10.569 11.957l4.698 5.658 7.686-.641c8.114-.747 10.249.107 7.046 2.883-4.27 3.843-11.103 4.697-30.64 3.736l-4.27-.213-.32 5.658c-.321 5.338-.427 5.552-2.669 4.271-1.281-.641-6.192-4.484-10.783-8.541-4.591-3.95-9.395-7.26-10.569-7.26-1.281 0-5.338 3.203-9.822 7.687-4.164 4.27-8.434 8.434-9.395 9.181-4.804 3.737 1.708 5.659 9.608 2.99 5.765-1.922 13.772-2.242 18.15-.534 3.95 1.388 9.501 6.832 11.103 10.782 1.067 2.776.96 3.417-1.282 5.765-8.647 9.289-20.07 8.755-28.184-1.174-2.029-2.455-5.338-5.338-7.26-6.405-3.203-1.709-3.95-1.709-6.619-.427-2.028.96-3.416 2.669-3.95 5.017-.534 2.135-1.922 3.844-3.31 4.377-3.523 1.388-12.597-.32-14.305-2.669-2.242-2.989-1.709-7.259 1.281-9.822 1.494-1.281 2.669-2.775 2.669-3.309 0-1.495-3.096-2.349-6.086-1.601-1.388.427-4.59.106-6.939-.748-3.737-1.174-4.591-1.174-7.9.641-3.31 1.708-4.271 1.815-7.153.64-1.922-.747-6.94-2.562-11.21-4.163-7.046-2.563-8.648-3.737-15.373-11.21-8.328-9.181-10.89-10.89-18.15-11.957-6.619-.961-8.647-.214-11.957 4.804-3.309 5.018-5.017 5.231-18.042 2.455-7.153-1.494-10.036-1.601-21.032-.533-14.519 1.281-17.615 2.455-21.138 7.686-2.563 3.95-2.669 3.844 2.562 6.94 1.388.961 1.708 2.028 1.067 5.124-.854 4.698-3.096 7.153-5.871 6.406-1.495-.32-2.242-1.602-2.456-3.95-.32-3.096-.64-3.31-4.911-3.63-5.231-.427-7.259 2.028-3.843 4.591 1.922 1.387 1.922 1.494.107 2.135-2.776 1.067-6.833-2.135-7.687-5.979-.854-3.95.427-5.231 5.445-5.231 6.085 0 7.259-1.922 8.007-13.025.64-9.181 1.067-10.676 5.978-20.604 3.95-7.687 6.299-11.21 8.755-12.598 1.814-1.068 5.551-4.591 8.327-7.794 2.882-3.309 10.569-9.821 17.188-14.519 6.619-4.697 14.52-10.676 17.402-13.131 3.843-3.31 7.687-5.338 13.452-7.047 4.377-1.387 8.434-3.309 8.968-4.27.854-1.708-.641-8.434-1.922-8.434-1.174 0-25.195 14.092-35.444 20.711-5.659 3.737-15.054 9.822-21.032 13.666-9.395 6.085-10.996 7.58-13.132 12.17-6.192 13.132-13.558 20.925-34.59 36.619-10.035 7.473-10.889 8.434-10.783 11.53.214 4.804 12.491 24.982 19.431 31.921 6.085 6.086 16.868 12.171 21.565 12.171 1.602 0 7.901-2.562 14.093-5.765 11.53-5.872 11.103-5.765 34.91-8.754 3.843-.534 5.552-1.495 8.861-5.018l4.057-4.377 5.018 1.815c11.423 4.27 30.213 16.014 30.213 19.003 0 2.135-4.057.747-10.036-3.31-3.523-2.348-7.58-4.59-9.074-5.017-1.495-.321-4.591-2.136-6.833-3.951-3.203-2.562-4.484-2.989-5.872-2.135-3.416 2.242-1.708 4.164 8.328 9.715 13.558 7.367 15.693 9.182 17.081 14.52 6.726 26.69 20.498 52.632 35.018 65.977 12.384 11.317 38.113 22.313 72.703 30.961 11.317 2.882 24.982 6.939 30.213 9.074 9.181 3.737 9.822 3.844 15.053 2.669 6.192-1.281 32.135-1.814 35.445-.64 1.174.427 10.676 4.591 21.138 9.288 13.238 5.979 22.313 9.288 30.427 11.21 27.33 6.299 35.871 10.676 50.284 25.302 6.085 6.192 9.821 8.968 16.761 12.384 6.085 2.989 10.996 6.406 15.16 10.463 5.017 4.91 9.501 7.793 23.167 14.626 17.935 8.967 21.138 11.53 34.803 27.33 9.182 10.463 12.918 12.064 37.9 16.014 24.555 3.95 32.882 4.164 42.277 1.175 4.271-1.388 10.89-2.349 17.936-2.669 6.192-.321 13.238-1.068 15.8-1.922 5.552-1.602 11.317-7.687 12.918-13.452 2.029-7.153 1.495-35.444-.961-47.188-3.523-17.402-9.181-34.377-12.491-37.579-1.708-1.602-11.636-7.046-22.206-12.064l-19.216-9.075-14.52-1.601c-8.007-.961-16.441-2.349-18.896-3.203-2.349-.854-8.328-2.669-13.238-3.95-13.239-3.523-18.897-6.406-25.836-13.025-7.26-6.939-10.997-8.861-19.537-10.462-8.862-1.708-14.093-4.057-19.538-8.755-5.978-5.338-9.608-6.832-20.284-8.647-8.22-1.495-14.199-4.164-17.188-7.687-2.242-2.776-8.648-5.445-14.84-6.192-7.9-.961-18.576-8.114-24.128-16.227-4.057-5.872-5.124-6.513-14.839-8.434-6.299-1.282-31.067-29.68-34.27-39.288-2.883-8.754-1.602-18.576 3.736-29.573 4.911-10.142 4.911-10.142.107-21.885-1.708-4.164-3.416-9.929-3.736-12.918-.961-6.833 1.814-20.071 5.978-28.292 1.601-3.203 3.31-7.793 3.63-10.142 2.669-14.733 17.722-30.854 40.569-43.238 11.103-6.085 15.693-10.355 19.75-18.256 4.805-9.608 4.484-15.48-1.174-25.622-10.569-18.576-15.053-23.381-23.487-25.302-6.406-1.495-51.459-6.619-57.864-6.513-6.94 0-30.854-7.579-41.316-13.131-4.377-2.242-10.676-6.192-13.879-8.648-3.203-2.562-13.559-9.074-22.847-14.626-18.789-11.103-16.974-9.181-30.213-31.28-2.882-4.698-6.299-9.395-7.793-10.463-1.495-1.067-8.541-3.416-15.694-5.124-7.153-1.815-16.761-4.377-21.352-5.765-11.85-3.63-13.025-3.737-19.537-2.136zM499.263 370.55c8.861 8.647 14.946 12.918 18.256 12.918 2.775 0 6.085-3.416 8.007-8.327 1.814-4.484 6.832-8.755 10.569-8.755 3.203 0 5.338 2.029 10.783 9.929 2.562 3.95 3.096 5.551 2.241 6.406-.747.747-6.085 1.387-12.384 1.601-10.889.427-11.209.534-11.85 3.096-1.068 4.164.534 11.21 3.523 15.587 1.815 2.562 2.776 5.338 2.776 8.114 0 5.017-3.95 13.665-6.726 14.519-1.068.32-5.872.107-10.676-.427-9.395-1.174-18.042-.107-20.391 2.669-.748.961-1.068 3.523-.748 6.833.321 2.989.107 5.338-.32 5.338-.534 0-.961-1.602-.961-3.523 0-5.552-2.028-11.21-5.444-15.054-4.378-5.017-4.164-9.288.747-14.305 5.658-5.659 6.833-9.395 6.833-20.498 0-9.716 0-9.716-3.203-11.53-2.776-1.602-3.203-2.456-3.203-6.299 0-4.057.854-5.338 3.63-5.552.427-.107 4.27 3.203 8.541 7.26zm19.216 180.104c3.523 1.388 1.495 2.562-4.377 2.562-5.872-.107-6.085-.107-3.523-1.601 2.883-1.708 5.338-1.922 7.9-.961zm-24.127 3.309c-2.456 2.349-3.096 2.563-4.591 1.388-2.349-1.921-.107-4.27 4.057-4.27h3.416l-2.882 2.882zm4.59 8.114c-3.202 7.473-11.637 11.744-15.053 7.687-1.922-2.349 2.135-6.406 8.648-8.541 2.775-.961 5.658-2.455 6.405-3.309 2.136-2.669 2.136-.961 0 4.163zm30.961 21.139c2.882 2.882 2.348 6.726-1.175 7.153-5.551.854-16.334 9.394-19.43 15.693-4.057 8.007-4.591 8.328-10.676 5.232-7.9-4.057-9.715-10.143-3.31-11.424 3.844-.747 13.025-7.259 19.644-13.879 4.164-4.163 5.765-5.017 8.861-5.017 2.456 0 4.591.747 6.086 2.242zm37.045 69.5c.748.748 1.282 2.456 1.282 3.737 0 3.63-3.844 10.676-6.726 12.171-1.281.64-3.096 2.135-3.95 3.202-1.602 1.922-1.922 1.709-7.26-5.017-2.989-3.844-5.552-7.473-5.552-8.007 0-2.563 4.911-5.232 9.502-5.232 2.669 0 5.658-.533 6.512-1.067 2.136-1.388 4.698-1.281 6.192.213zm19.965 8.434c2.562.748 5.978 2.99 8.861 5.872 2.455 2.562 5.551 4.698 6.725 4.698 1.175 0 4.698 2.348 7.794 5.338 3.31 3.096 7.046 5.658 9.075 5.978 3.629.748 5.444 3.096 5.444 7.153 0 3.63-3.843 8.221-6.939 8.221-1.388 0-7.9-3.737-14.519-8.221-6.62-4.484-15.908-9.715-20.605-11.743-4.698-1.922-8.861-4.057-9.395-4.805-1.281-2.135-.961-10.996.427-12.384 1.601-1.601 7.473-1.601 13.132-.107zm64.376 36.406c6.192 7.366 8.647 9.394 11.423 9.394 4.057 0 6.619 1.602 14.092 8.648 3.63 3.523 7.474 6.299 8.648 6.299 1.281 0 2.455.961 2.882 2.135.641 1.922 1.282 2.135 5.659 1.601 4.697-.64 5.124-.533 6.832 2.563 1.281 2.348 2.669 3.202 5.232 3.523 2.775.213 3.736.961 4.163 2.989.321 1.495 1.815 3.203 3.203 3.95 1.388.641 3.096 2.669 3.843 4.484 1.602 3.95 2.349 4.057 7.26 1.068 7.794-4.591 17.936-1.815 20.818 5.765.748 2.242 1.281 4.163 1.068 4.484-.32.213-4.057.747-8.541 1.174-7.26.641-8.647.427-13.879-2.028-3.203-1.495-8.647-3.096-12.17-3.417-8.221-1.067-18.256-4.163-20.925-6.512-1.068-.961-2.563-3.63-3.096-5.872-.641-2.135-1.922-4.27-2.883-4.591-1.067-.427-7.153-1.281-13.665-1.815-6.406-.64-13.345-1.921-15.267-2.775-2.028-.961-6.192-4.911-9.395-8.755-3.096-3.843-7.686-9.288-10.142-12.063-5.338-6.086-5.018-8.648 1.495-11.637 6.619-2.99 10.035-2.669 13.345 1.388z"/></svg>