<svg width="1024pt" height="1024pt" viewBox="0 0 1024 1024" xmlns:xlink="http://www.w3.org/1999/xlink" xmlns="http://www.w3.org/2000/svg" fill="#e83c4b" stroke-linecap="round"><defs><clipPath id="svg-a"><path d="M0 0h739v295H0zm0 0"/></clipPath></defs><g clip-path="url(#svg-a)" transform="translate(-54.316 370.431) scale(1.45759)"><path d="M70.246 230.32l-.008 3.461-1.758.281 1.215.86 2.868-6.543.933 1.613 5.734.293 5.22-4.168 2.84 2.324-.954-1.28 1.586-1.067-.734 3.86.902-3.907 1.656.07 1.473-2.555-3.13.645 1.798-7.008 5.554 1.617 2.922-3.632 4.453 3.207 1.641-1.993-1.258-1.414 1.012-6.129-1.387-.789-.886 1.973-1.27-2.387-2.055 1.16 1.836-2.714-.515-2.836 1.683 1.5 1.106-1.117-3.813-2.024-1.722 2.606-3.172-.036 3.238-.53 1.5-6.294 8.203 6.602 7.227 3.406 9.593-1.64 8.735 2.648 21.34-3.598 13.8.422 4.907 4.77.328 8.242-1.938 5.64-8.992 6.239-11.316.875-6.465-.7-3.344-2.976-5.5.004-7.11 2.933-6.25-.859-6.679 2.18-11.73 9.664-5.926 2.015-10.344-.906-3.559-2.594-11.53.075-1.298-3.305-2.375-.102-13.129 6.098-3.992-1.727-.926-5.253 3.965-5.575-1.41-7.441 1.586-13.992-5.355-8.555-9.442-2.582 1.985-5.535 10.761-4.871 8.965 4.058 1.406 2.817-4.71-1.149-3.047 1.606 2.582 6.027-3.516 2.438 3.457-.547.422-1.418 1.601 2.387-2.125 1.742.832-1.637-1.933-.57.71 1.437-2.277.906 1.372-.289-.934 1.364 2.465 1.492-.805 3.5.395-2.953 2.886-2.446-2.261-.293 1.175-1.546 3.746 5.308-.527 2.418-2.293-2.05-1.25 1.144 2.051-.887.043 1.762-2.727.012 4.383.218-1.773 3.149-3.828-.254 3.46.289-.359 2.691-3.945.07 4.715.176.972 2.66-1.273.989 2.828 1.976.453 2.707 4.309 2.657.273 2.793 1.754-1.403"/><path d="M70.246 230.32l-.008 3.461-1.758.281 1.215.86 2.868-6.543.933 1.613 5.734.293 5.22-4.168 2.84 2.324-.954-1.28 1.586-1.067-.734 3.86.902-3.907 1.656.07 1.473-2.555-3.13.645 1.798-7.008 5.554 1.617 2.922-3.632 4.453 3.207 1.641-1.993-1.258-1.414 1.012-6.129-1.387-.789-.886 1.973-1.27-2.387-2.055 1.16 1.836-2.714-.515-2.836 1.683 1.5 1.106-1.117-3.813-2.024-1.722 2.606-3.172-.036 3.238-.53 1.5-6.294 8.203 6.602 7.227 3.406 9.593-1.64 8.735 2.648 21.34-3.598 13.8.422 4.907 4.77.328 8.242-1.938 5.64-8.992 6.239-11.316.875-6.465-.7-3.344-2.976-5.5.004-7.11 2.933-6.25-.859-6.679 2.18-11.73 9.664-5.926 2.015-10.344-.906-3.559-2.594-11.53.075-1.298-3.305-2.375-.102-13.129 6.098-3.992-1.727-.926-5.253 3.965-5.575-1.41-7.441 1.586-13.992-5.355-8.555-9.442-2.582 1.985-5.535 10.761-4.871 8.965 4.058 1.406 2.817-4.71-1.149-3.047 1.606 2.582 6.027-3.516 2.438 3.457-.547.422-1.418 1.601 2.387-2.125 1.742.832-1.637-1.933-.57.71 1.437-2.277.906 1.372-.289-.934 1.364 2.465 1.492-.805 3.5.395-2.953 2.886-2.446-2.261-.293 1.175-1.546 3.746 5.308-.527 2.418-2.293-2.05-1.25 1.144 2.051-.887.043 1.762-2.727.012 4.383.218-1.773 3.149-3.828-.254 3.46.289-.359 2.691-3.945.07 4.715.176.972 2.66-1.273.989 2.828 1.976.453 2.707 4.309 2.657.273 2.793 1.754-1.403"/><path d="M619.059 56.504l-1.965 3.285-12.535 1.148-18.325 9.403-6.129-1.184-3.03 4.332-5.27 2.844-10.008.613-1.89-1.203 4.323-5.117 10.407-4.848 4.883-4.808 23.093-3.883 10.528-3.621 5.918 3.039"/><path d="M708.168 35.352l6.066 1.77-.093 1.163-4.989 6.383-7.59 5.555-17.289 4.277-22.226 9.586-15.707 2.02 8.867-6.797 11.16-3.52 11.293-8.312 11.27-2.793L699 37.496l9.168-2.144"/><path d="M619.059 56.504l-1.965 3.285-12.535 1.148-18.325 9.403-6.129-1.184-3.03 4.332-5.27 2.844-10.008.613-1.89-1.203 4.323-5.117 10.407-4.848 4.883-4.808 23.093-3.883 10.528-3.621 5.918 3.039"/><path d="M2293.957-1538.883l1.324-1.457.446 1.227-1.77.23"/><path d="M2255.668-80.738l1.113-.68-.18-.781-2.324.148-.332-2.73.457-.516.73-.824 3.63 2.41 1.57-1.137 2.09 1.793 2.351-1.507 2.582-3.258.954.605 1.105 2.746-.832 3.098.941 1.183 2.918-.718 2.504.633.133 3.117-.418 1.351-3.304.907-1.387 1.722-4.078.89-2.946 2.079-.789 2.598-1.011.48-1.016-.48-2.434-1.145-1.324-1.39-.156-1.946 2.176-2.488.23-1.938-.574-.129.379-.812.687-1.461-.37-.883-3.075-.937"/><use xlink:href="#svg-b" x="615.754" y="60.256" width="100%" height="100%"/><use xlink:href="#svg-b" x="169.731" y="222.803" width="100%" height="100%"/><use xlink:href="#svg-b" x="131.862" y="208.977" width="100%" height="100%"/><use xlink:href="#svg-b" x="36.504" y="201.774" width="100%" height="100%"/></g></svg>