<svg version="1.1" id="svg832" width="1024" height="1024" xmlns="http://www.w3.org/2000/svg" viewBox="0 0 1024 1024" fill="#e83c4b" stroke-linecap="round"><defs id="defs826"><style type="text/css" id="style824"/></defs><g id="g830" transform="translate(253.797 1.045) scale(.75812)"><path id="MO-01" d="M188.78 0l-27.8 45.54-13.89 30.02H74.82v9.51l-51.88 16.01 34.28 61.54 63-20.01-9.27-19.51h18.53l17.61 39.52-55.59 74.06-5.44 9.33-5.14 40.75-23.84 38.62-37.92 46.81-7.59 29.26L.3 431.89l8.02 23.39 31.42 50.32 17.66 34.32 17.42-22.58h45.4l35.21-48.52h31l-2.64-13.1-21.67-3.66-10.84-2.19-8.12-24.14-4.74-14.63 4.74-12.43 6.09-8.78 9.48 2.2 18.29-4.39 14.9 2.92 2.71 26.33 1.35 29.99 5.02 21.28 34.1-18.41 21.14-16.19.02-11.98 10.16-8.05 8.12-8.78 12.19-9.5 11.52-8.05 7.76 10.38 26.38-13.87v-57.04l-9.27-20.51 17.6-19.01 17.61 19.01v-9.51l37.98-71.54-73.19 43.03-17.6-9.51-8.34-28.52 26.61-21.93 3.92-3.23 8.46-15.24h8.81l8.8-5.12 3.39-.73 8.12 6.58 5.95 17.43 21.37 3.73-13.9-49.04-20.38-48.53-35.21-29.02-70.41-28.02V38.03z"/><path id="MO-02" d="M137.31 1029.98l6.65 140.04 3.92 6.83 51.97 35.69 10.13-.25 8.23-147.59.34-7.27.84-28.96.37-6.61-79.43 4.56zm185.88 315.38l5.63-4.26 2.35-5.08-3.1-1.18.32-2.31 1.43-1.34 4.16-2.84 2.29 1.59 3.6-4.13 2.09-.45 1.56 1.48 1.55-2.86 1.16.55 2.02-1.4 1.16-1.51.24-1.79-.98-1.71.6-1.73 1.06-3.04 1.88-2.44 4.75-4.48 5.54-3.26 5.97-1.15 5.59-.09 4.7 1.16-.84 2.93 1.47.35-.53 5.69.93.52.17 3.01 2.63.38 2.48 4.96 3.99.82 5.92-2.09 2.1.34 4.26-.8 5.38-4.03 4.11 1.25 3.26 1.85 4.19-.05 2.17-1.54 1.23-1.96 1.34-.03 1.01-1.52 2.83.32 1.45.67 3.95-.13 1.06 1.1-.02 1.64-8.97.19.47 1.59 22.01-.43.99-3 2.01-.3 2.86 1.24 10.9 4.72 7.24 1.31 5.88-.02 6.66-2 2.08 1.08 4.43-3.9 2.35.53 4.79-2.85 1.63-2.46 2.08.32 1.19-1.39 11.99-.82.03-7.22 1.67-1.99 3.22-.47v-2.63l3.6-1.11 2.75-2.18.27-2.26-1.92-1.36-1.86 1.12.99-5.6.01-4.19-1-1.04.58-1.87 1.78-4.55-1.23-.96-.34-1.58h-2.25l-4.11-7.11-2.45-1.14-1.46 1.05-.99 1.45-10.57-1.53-6.34-.3-8.39 1.61 3.36-2.72-1.01-1.35-4.06 2.86-2.91-1.37-1.14-1.46-1-1.08-.49-.52-1.25-5.45-.39-8.8.59-7.59 2.06-6.08 4.22-15.14 2.48-6.19 1.98-5.71 2.99-6.06 3.27-4.2 3.39-4.72 3.23-5.13 3.06-4.21 2.9-4.26 2.92-3.4 3.93-3.53 6.74-5.06 4.49-3.74 5.97-5.13 8.24-2.64.37 2.01 2.53 2.13 1.93 2.89 16.93 8.62 2.8 3.31 2.77 1.16 7.82-.74 5.93-.55 9.57 4.82 4.19.84 2.4-2.07 2.94-2 4.35-3.24 3.85-2.81 3.41-2.51 2.98-1.71 6.06-2.92 4.64-1.9 3.48-1.59 2.26-2.62 1.09-4.59 5.87-12.52 5.16-3.11 3.08-3.67 5.45-2.12 1.86-3.26 5.53-3.47 4.03.5.3 1.02 5.3 2.63 7.58-1.58 2.26 1.5h1.1l1.94-.69 1.39-1.36-.47 1.24-.44 1.1-.19 1.51 2.17 1.86 2.41 1.36 1.47-.33 1.87.11 3.33.55 2.2.58 2.67.04 5.71-.95 1.98-1.69 2.01-2.82 2.28-3.22 1.42-2.27.04-1.39-.26-1.43-1.68-.11-1.1-.07.11-.88.95-.88 4.29-2.75 2.23-1.21 2.8-1.48.67.2 1.29-.55 2.79-2.71 1.01-.95.6-.33.88.4-1.38 1.56.41.69 1.37.21h2.31l1.87-.42.54.5 1.08-.88-.22-.49.36-.62-.24-.6.43-.4.43.41.72-.86.19-2.06.37-1.69.04-.51-.59-.62.73-1.84-1.13-2.89-1.03-1.13-.15-1.36 1.4-3.66.29-1.8.15-2.82-.85-4.03-.95-1.42-.73-.59-3.25 1.13-.12.04-1.66.55-6.8-14.07-8.25-17.86.01-1.07 1.9-3.92.04-2.27-1.17-3-2.27-.92-.66.55-5.46-3.7.95-1.32-3.95-2.75-2.71-1.9-16.05 22.09-5.23-3.92 4.98-7.03-.11-.7-.74-.54-11.35-8.32-.81.03-.91 1.1-4.31-2.99-8.7 11.78-.31.41-15.56-11.57-3.15 4.36-8.72 1.5-.38-2.78.55-1.87-1.66-.86-1.22-.91-.05-.86 1.22-3.69.32-1.58-1.52-1.08v-1.83l.63-1.58-.82-2.46-.13-.86-.45-1.03-.32-1.75-1.46.23-.61 1.13-1.01 1.13-1.32 1.46.42 1.68.64 1.26.72 1.04-.94.9-1.01 1.46-.54 1.46-.49 1.06-.19.75 1.1 1-.88.75-1.32.61-1.23 1.59-.13.87-.68 1.1-1.04.26-3.3 1.23-2.81.99-1.28.64-1.73-.48-4.06-1.98-.62-1.3.14-1.21.7-1.09-.33-.96-.89-.35-.74.72-1.34 1.1-1.71-.54 1.76-10.83.91-9.76-.38-6.65-5.69-8.48-.01-1.06.5-.56.51.57 11.44-12.36 9.16-9.29 5.47-5.63 3.62-3.49 2.2-3.21 2.1-5.5.98-2.95.28-.85 2.61-6.54 2.28-4 .04-.72-.85-.68-2.6-.97-2.83-.52-3.05.27-3.37.86-11.53 8.09-11.68 8.34-21.59 14.56-3.64 3.14-1.07.97-.04 2.06.23 1.14.57.67 1.09 1.28 5.4 7.96-2.52 2.57-.5-1.22-1.64 1.13-.72-.84-1.35.04-1.05.29-.98 1.01-1.53.98-.99 1.03-.77 1.02-3.87 2.52-4.89 3.19-1.7-2.19-.1-1.45-3.63-4.23 1.6-3.93 1.38-3.48.93-2.79 5.13-7.44 2.67-5.34 1.78-8.25 1.14-6.07-.11-1.46-3.62-3.85-.06-4.21 2.16-1.44 1.46-3.2-1.01-2.06-1.13-.49-.69-1.53-3.07-2.75-2.43-2.96-1.13-4.04 4.34-3.84 2.39-3.93 2.43.95 3 .29 5.46-2.17 8.47-.78 1.01 3.63 3.47 4.26 6.07.93 11.95.05 6.67-3.85 4.72-3.23 4.35-.11h7.08l-1.66 3.75-.32 3.65 6.57 2.29 3.02-.62 3.13 1.98 4.27 3.54 2.71-2.39 1.57-6.15 7.4 3.44 4.06 4.06 2.4 7.92 3.33 2.92 4.28-3.75h2.39l4.59 2.08 5.11-1.25 1.14-5.21-10.52-11.25-3.24-7.2-.31-5.62 3.89-3.83 9.13-4.93-2.38-19.2-12.58-8.35-104.65-69.47-13.62-3-11.05 8.35-7.61 5.93-2.58 2.06-2.06 3.02-1.33-.73.01-3.25 4.93-2.87 13.82-10.38 3.21-3.4 4.44-6.17 3.84-3.93.08-2.42.53-1.18h.23l127.23 84.98 18.5 12.36-1.86 2.55-.56 1.52 3.15 10.95 1.42 1.39 1.24 1.84.8-.5-.06-.49 1.63.12 1.74.48 2.53 6.02 4.24 12.91 40.23 117.87 1.32 4.89 3.39 3.34 4.88 3.08 3.58.01 3.69-.68 23.1-8.26 2.56-2.79 1.72-3.38 1.15-3.6-1.15-5.22-53.31-154.41-18.79-54.41-45.06-133.17-5.06-15-1.34-3.65-2.34-2.07-5.23-2.87-3.98-.17-6.55 2.21-7.02 2.58-2.22 2.08-1.92 3.09-1.48 4.83 1.83 7.57 1.82 5-69.85 24.11-1-3.85 1.29-1.33 1.86-1.29 15.04-5.17 1.15.58 25.72-9.34.03-.99 9.4-4.14.89-.86.31-1.27-8.96-26.44-1.59-.83-1.76.12-9.64 3.29-1.54-.02-1.01-1.68-3.43-10.03-1.45.35-1.51-3.68.49-2.39-.31-1.01-.47-.46-13.23-38.1-.26-.61-.4-.04-.37.32.02.71 12.51 37.26-.79 1.98-2.21 7.94-4.69 18.93-1.35 1.74-3.73 4.3-1.91 1.56-.57 1.17.18 1.09 4.71 12.32-15.77 5.47.38-4.36.45-3.3-.33-1.58 3.1-12.72-1.72-.47.64-2.47 2.21-8.49.53-2.02-.69-.21-1.31-.34-.49 2.02-.45 1.87-1.62 6.69-.6 2.49-.28 1.14-.37 1.52-.96-.27-9.93-2.45 1.5-5.99 2.1-.51-.24-.84 1.32-.38-.35-1.47-1.37.4-.39-1.38.89-3.54 2.12-.53-.21-.84 1.3-.34-.4-1.48-1.33.37-.38-1.47.91-3.45 2.09-.56-.2-.82 1.34-.42-.42-1.37-1.34.38-.41-1.52.9-3.38 2.07-.56-.18-.85 1.39-.37-.41-1.45-1.33.4-.46-1.42.94-3.61-13.96-3.81-.94 3.79-1.09 1.13-1-1.02-1.08 1.11 1.02.93-.52.6 1.56 1.49-.86 3.45-1.03 1.09-1.03-.95-1.04 1.05.99.99-.59.61 1.56 1.46-.87 3.51-1.04 1.08-1.04-.94-1 1.05.99.93-.59.64 1.58 1.51-.89 3.48-1.01 1.03-1.04-.96-1.05 1.13 1 .9-.57.64 1.54 1.45-1.65 6.86-.69-.17.04-.16-.93-.24-.05.16-6.78-1.74.02-.17-.97-.25-.06.16-6.66-1.7.04-.19-1.04-.26-.06.18-2.99-.77 2.92-11.18-3.4-.88-2.82 11.22-.46-.14.03-.16-.93-.27-.05.19-4.98-1.28.05-.2-.99-.24-.05.17-.59-.14 4.3-16.83-2.09-.55.29-1.21-.08-.01.44-1.47 23.67-37.6 1.18-3.27-.49-3.24-1.66-3-2.21-1.6-13.03 18.7-17.12-4.4-2.07.69-1.16 1.4-7.28 28.94-9.67 38.48-38.26-9.67-22.57.68-2.21.06-6.99-2.03-6.73-1.99-4.11-1.54-3.41.32-2.12.85-2.88.58-3.62.5-5.54.35-10.33-.4-11.53-1.44-5-1.49-1.24-1.58-2.63.2-13.79-4.04-.87-.75-4.3-.85-3.51.13-5.22-.65-2.79-2.07-1.53-1.03-.5-2.57-1.11-.4-1.1 1.05-.31 2.07-.76 1.35-1.91.21-2.37.71-1.73 1.85-2.89 2.6-2.57 1.25-4.41-.05-3.5.64-1.64-.04-2.68-.06-7.72-3.02-6.06-1.28-7.26-.27-9.72.38-3.3.64-11.56 4.25-10.34 5.35-8.96-2.15-2.64.08-.91 2.85-.4 1.94-2.04 1.59-5.73.87-12.59 1.84-14.46 3.56-7.9-.1-8.34.21-5.97.41-5.78 1.26-6.13 3.92-2.29 1.65-1.68 1.69-1.67.22-1.82-.14-3.22-.72-2.95-1.24-3.31-1.99-1.62-1.24-.84-.95-1.25-5.32-2.83-7.22-6.26-12.74-2.08-2.08-2.74-.12-5.28 2.78-1.11 3.5 1.29 2.86 4.2 18.95 1.51 8.91.95 9.85 1.14 9.56 2.28 11.23 1.96 7.71 17.58 55.28 1.92 4.92 3.48 4.7 4.73 4.95 27.74 21.76 8.3 6.82.98.91 2.06.07 2.38 3.8 14.25 16.27 16.52 21.67 1.82.73 1.76-.26 1.37-1.06.53-.9.26-1.43-.29-1.27-1.9-2.21-7.15-10.21-9.12-10.55.09-1.18 3.01-2.35 1.03-.2 22.81.13.05 37.37-6.04-.1h-.36l-1.88-2.62-1.18.49 28.23 42.81 2.19 3.33-1.49 115.09.27 56.72-.36 2.83-2.55 2.95-1.87 6.46-1.97 3.34.32 3.32-.23 2.96 1.51 3.72 1.24 1.91 1.01-.01.06 1.58-.07 4-.7 3.43v1.71l-.11 24.81.8-.02.14 2.75-.82.08.08 14.27.25 6.82.26 10.22 3.04 5.16-.44 7.9-3.31 2.17-1.59 1.47-1.6 1.48-3.39 1.8.27.69-1.8 1.06.19.38-2.04 1.27-2.13-1.9-1.49 1.52 1.31 1-.4.51-3.33-.4-.36 2.83 2.03.41-.23.56-3.68-1.14-.93 2.74 2.42 1.11-1.71 5.81-1.12-.34-.58 1.78 1.18.79.3 3.82-.08.01.07 1.22-.53.13-.39.11-3.49.9.02.16-.72.15-.02-.12-.64.16.02.6.19-.04.04.77-.19.01.05 1.13.6-.07v-.57h-.02l-.05-.78.07-.03v-.54l3.68-1-.1.09 1.93-.49-.07 2.15.6-.19-.67 2.43-.02.56 3.03.86 1.25-1.09 3.13 3.59-1.16 1.44-.54 4.3.28 1.03 6.15-1.73-13.45 4.49.42.09 13.26-4.36.16 6.52-3.92 19.82-5.81 14.48-1.59 1.47-2.23 2.21-4.38 2.03.79 1.47-2.68 2.39-.89 1.06.86 1.74.81-.13 1.9 1.62 3.21 3.05.68 3.86 1.3 5.88 1.19 3.88 1.51.09 1.67 1.5 2.06 2.26 1.69 1.68 1.35-1.1 2.4-.43 1.62-.02 1.2 1.51.51 1.99 1.64 1.37 2.98-1.93 3.43 1.44.17 1.62 1.77 2.67 1.65.76.78 1.24 4.4 2 .87-1.41 1.64 2.58 1.12-.75 7.84 3.55.33 3.05 1.63 1.98 3.1 1.49 4.88.78 4.85.77 4.61-2.01 7.95 1.54 1.02-.36z"/></g></svg>