<svg width="1024" height="1024" xmlns="http://www.w3.org/2000/svg" viewBox="0 0 1024 1024" fill="#e83c4b" stroke-linecap="round"><path d="M128.84 340.02c.143 2.137-1.171-1.732 0 0zm38.575-22.4c-.681-1.11 1.068-.912 0-.001zm-8.892 1.38c.592 1.799.167-1.57-.93-1.692-.322-.711-2.828-.758-.834-1.114 2.78-.637 1.667 3.609 3.935 3.603 1.024-1.085 3.182-2.108 3.985-1.073 1.267-.684 1.007 2.089 2.193.408-2.177-.161 2.523-3.142 2.208-.091-.67 1.322.664 3.722 1.464 3.402-1.472-1.519-.8-3.534-.381-5.29-.12-.66.202-3.118-.859-1.559-.79-1.932 1.959-1.685 1.678.191-.345 1.977.988.27.46-.834-1.718-2.165-.844-4.862-1.624-7.308-.263-.778-1.752-2.37.221-1.886 1.884.677 3.972-.262 5.71 1.046 1.306.723 3.285.733 3.992 1.656.765-.777 1.995-.122.311-.877-.82-1.97 2.756-.075 3.334.699 1.45.536.057 2.54 1.95 2.335.809 2.13 3.131 1.519 4.81 2.091 1.957-.282 4.333-.207 5.589 1.563.653 1.073.878 2.299 2.468 1.729 2.244.714 4.737 1.082 6.44 2.843 1.369 1.214 3.278 3.087 5.212 1.906 1.512-.295 1.904.89 1.698 1.88.382-1.269 2.943-.635 1.853.094.77.735 1.18.966 1.353 0 2.211.718 3.472 2.727 5.24 4.155.987 2.123 3.156 3.352 5.29 4.317a17.133 17.133 0 004.502 4.929c.852 1.8 3.844.839 4.1 2.79-1.642-.711-2.387 2.222-1.892 2.375 1.765.66.358 3.846 2.051 5.034a13.631 13.631 0 005.45 2.024c1.446.984 1.518 3.075 3.772 2.797 1.066 1.236 3.343-.457 3.661 1.774 1.583 1.852 3.864 2.79 4.639 5.217a44.85 44.85 0 005.126 2.755c.89 1.755 2.98 1.58 4.537 2.243 2.742.514 5.512 1.439 7.234 3.822 2.319.936 3.186 3.076 3.658 5.28 1.817 1.254 2.525 3.22 4.192 4.615a7.943 7.943 0 013.517 4.845c.488 2.025 3.393 1.191 4.335 2.85 1.008 1.738 1.726 4.165 2.7 5.574.821 1.478 2.021 2.823 2.938 4.32.12 1.833 2.347 2.46 2.361 4.205-.575.585-3.266 2.677-1.234 1.785.966-2.877 2.79.088 4.366.102 1.926-2.039 3.693 1.156 5.744 1.409a30.444 30.444 0 004.578 2.74c2.082 1.379 2.976 3.664 4.867 5.276 1.703 1.247-1.717 2.267-2.605 2.63 1.168-.428 2.841.23 4.25.645a1.839 1.839 0 01.615 2.052c1.604-.094 1.296-2.19 2.92-2.48a3.74 3.74 0 014.647 1.296c1.666.144 2.783 1.775 4.213 2.576 1.834.84 3.371 2.352 5.03 3.303 1.852.655 2.71 2.324 4.088 3.542 2.301-.416 3.623 2.02 5.568 2.88 1.89 1.033 4.098 1.164 6.099 1.931 2.108.515 4.078 2.254 6.266 2.09 1.776.134 3.564-.27 5.316-.064 1.888.614 3.87.728 5.781 1.212 0 .448-.594 2.85 1.227 1.976 1.545.547.507-.122.853-1.213 1.758.913 4.838-1.125 6.629.825.733 1.562 1.017.66 2.168.23 1.623 1.038.116 4.408 2.724 3.23 1.337-.095 1.987-2.784 3.275-.752.375 2.529 3.674 2.204 3.744 4.758.557 2.014.869 4.787-1.852 4.98 1.905 1.45 1.322 4.741.562 6.353-2.575.899 1.06 2.277 1.361 3.74 1.77 1.61-3.562.932-1.13 2.111 1.75-1.131 3.22.924 4.024 2.011 1.566.137.636 1.943 2.089 2.26-.392 1.235 2.204.595 2.878 1.632 1.845.644-.401 3.435 2.009 3.878 2.592 1.114 1.94 4.86 4.912 5.402 1.407 1.717 3.567.15 5.39.881 1.718.918 3.766-.717 5.704-.25 2.254.62 4.937-.076 6.737 1.711a2.674 2.674 0 01.395 4.868c.362 2.361-1.717 3.85-1.98 5.985-.259 1.776 1.013 3.373 1.169 4.948-1.16 1.86-4.708-.26-5.077 1.527 1.433-.09 2.552-.038 2.961 1.61 2.791 1.405.155 4.623 1.484 6.399.137 1.967 1.217 2.944 2.703 3.988a4.93 4.93 0 003.113 4.401c1.046.27 2.053 1.68.772 2.3 1.932-.516 2.57 1.073 3.45 2.241 2.408.878 5.729.769 7.25 3.075 1.016.669 1.23 2.8 1.342 3.031 1.947-1.18.908 2.558 2.926 1.462 2.234-1.032 4.817-.637 7.245-.557 1.413.102 4.3 2.284 1.585 3.053-1.327.374-2.088 2.4-.214 2.068 2.122-2.79 5.704-.981 6.825 1.732 1.323 1.144 2.377 2.618 4.098 3.045 1.917 1.145 4.858 1.163 4.677 4.079 1.91 1.198 2.103 5.152-.858 4.358-2.35-.03-4.018-1.654-6.216-2.803-2.228-.436-3.474-2.084-5.277-3.182-2.43-1.443-1.492 3.424.644 2.846 2.468 1.74 4.605 4.03 7.43 5.26 2.684 1.086 2.181 4.67 4.524 6.199.436 1.654 1.624 2.992 2.312 4.584.655-1.138.067 1.734 1.346 1.63 1.255-1.089 3.517-.019 4.535 1.61 2.208.415 3.962 2.34 6.382 2.311a5.903 5.903 0 016.44 2.142c.943 2.29 3.368 2.254 5.075.912 1.815-1.782 3.526-.068 5.746-.206 2.046.966 3.273 3.349 4.985 4.897 1.294 1.503 2.602 3.22 2.345 5.195.196 2.34 4.572-.094 3.736 2.053-1.59.872-.912 2.46.774 1.56 1.626-.083 2.533-1.125 3.728-.01 2.817.788.107 2.28-.902 3.039.02 1.293 1.744 2.116-.347 2.46-.74 1.042 1.489 2.122.15 3.401.302 1.097.887-.283 1.087-.396-1.489-1.436 1.61-.946 1.352.58a6.44 6.44 0 002.094 4.846c.448 1.12 2.683 1.957 2.539.214-1.463-1.332-1.622-3.058-2.599-4.538-.235-1.516-2.82-2.344-.206-2.969.186-1.987 1.418-3.355 3.625-2.82 2.607-.314 1.99 3.088 3.096 4.485.148 1.742 4.35 1.879 1.717.345-1.106-1.495-.352-2.564.81-3.497a6.408 6.408 0 00-2.176-5.132c2.12-1.18 2.898 1.402 4.293 2.403a28.074 28.074 0 003.205 5.743c1.256 1.63 2.52 3.138 1.737 5.227 2.704.235 3.971 3.076 5.536 4.873 1.134 1.357 3.19 2.869 2.164 4.83-.644 1.09 1.191 4.003-1.21 2.857-1.289-.484-1.972-2.374-3.706-1.066-2.81.275-.249 3.122 1.273 1.372.47 2.223 3.192 3.086 5.09 3.992 1.218 1.492 4.042 2.13 4.615 3.422-.798 1.503-2.215 1.906-3.113.357-.823.536 1.825 3.365 2.596.982 1.824-1.855 2.504.825 2.86 2.066 1.295-.285.663-2.44 1.595-3.316-2.576-.765.769-3.327-1.754-4.147-1.258.107-3.61-2.003-1.385-2.339 2.217 1.396.74-2.846-.88-1.311-1.111 1.093-2.396-.25-.906-1.2.06-1.387-3.184-.392-1.181-2.098 1.206-1.775-.82-3.434-.956-4.984-1.52-.951-2.594-3.702-1.42-5.177 1.254-1.772 3.067.714 4.41 1.141.607 1.448 1.595 3.7 3.529 3.268.368.752-.379 2.204 1.011 2.78 1.098.867 3.073.482 2.636 2.503.555 1.735 2.182.68 3.035.951-.972 1.345.657 1.957 1.515 1.09.982.876 2.14-.074 1.717 1.638 1.105.724 2.576-1.352 3.42.676 1.142-.814 2.728.143.995 1.116-1.022 1.203-4.658 1.567-2.931 3.687 1.62.043 3.926-.764 4.162 1.389 1.389-.459 1.64.401.693 1.422-.266 1.548-.454 2.82 1.074 3.842.879 1.05.536 3.701-1.396 3.194-.751 1.024 2.057.52 2.732.613a2.662 2.662 0 003.112-3.315c.72-2.313 3.65.567 5.367-.468 2.172-.322 3.014 2.074 4.156 3.413 1.932 2.64 5.38 3.567 7.204 6.325a10.671 10.671 0 005.488 4.134c2.974.44 4.533 3.333 6.142 5.541.874.713 4.507 2.117 1.502 2.368-1.599-.567-1.99 3.013-.445.977.691-1.09 2.169.91 1.701-1.062 2.063-.363 2.049 2.607 4.35 2.08 1.899.708 3.364 2.1 5.302 2.71 2.059.874 3.297 2.897 5.725 3a14.93 14.93 0 005.106 2.022c1.41.417 1.53-2.79 2.797-.874 1.688.075 2.326 2.355 4.28 1.772 1.692.501 2.204 3.605-.194 2.698-1.798 1.467-3.444-2.683-5.366-.806.529 1.202 1.97 1.864 2.262 3.298 1.894.58.108 3.322 2.484 2.659 2.376.938 3.778 3.628 6.281 4.17 2.3-.199 4.992 2.127 6.818-.288.766 1.79 3.992 3.159 3.22 5.384 2.107-1.042.012 2.567 2.443 1.777 2.512-.222 3.505 2.576 5.623 3.175a6.633 6.633 0 013.167 3.972 4.375 4.375 0 001.008 2.6c-.189.948-1.476.536-1.023-.157-1.325-.282-.066.94-.446 1.718 2 .805 2.236 3.063 4.024 3.931 1.967.495 2.71 3.127 4.928 3.133-1.737 1.953 1.756 2.746 3.038 3.337.809 2.098 3.092 2.94 4.654 4.529 1.958 1.438 2.291 3.81 3.42 5.822 1.024 1.312.75 1.906-.249 2.965 1.374-2.059 2.812.394 4.119 1.276 1.9.953 4.26.896 5.29 3.174 1.873.987 3.955 2.023 3.297 4.563.584 2.296 2.694-.287 3.785 1.278 1.601.232 3.12.537 1.317 1.921.657 2.03 3.907.932 4.957 2.917 1.667.98 2.791-.293 1.238-1.603.012-1.079-.81-3.656 1.41-2.752 2.062.838 2.3 3.766 4.78 3.87a16.405 16.405 0 014.955 3.932c1.453 1.852-2.09 1.302-3.005 1.92-2.064-1.647-1.747 3.864-3.62 3.18-1.584-.243-3.9-2.77-2.807.462.364.476 1.28-.526 1.63.785 1.696 2.433 3.388-1.226 5.473-.374 2.528-.502 4.95.349 7.256 1.252 1.073.55 3.182 1.886 3.282-.284 2.43-.226.26 3.295.411 4.615.084 1.074-1.252 3.687.548 1.75 1.86-.874 3.41.95 5.307.588a26.039 26.039 0 015.916 1.553c1.605 1.566 3.937.751 5.904 1.463 2.254 1.23 5.58-.706 7.15 1.984 1.264 1.722 4.27 1.417 4.571 3.944 1.16 1.877 3.321 2.34 4.4 4.34 1.975.348 2.597 2.63 4.712 2.948a3.55 3.55 0 002.817 2.878c1.595 1.348 1.125 3.886 1.628 5.648-1.335 1.436-.677 3.303-.76 5.056.366 2.254-2.376 2.738-3.897 3.443 1.126 1.642 4.844-1.105 5.646 1.604 1.365 2.08 3.971 3.206 4.778 5.591.131 2.833 3.328 3.38 3.877 5.879 1.152 1.91 1.99 4.259 4.364 4.916.992 1.236 2.64 1.38 3.411 2.89 2.71.946-.694 3.78-1.796 1.43-2.287-1.553-.89 2.277-1.751 3.184 2.663.764 3.147 4.63 1.288 6.447a13.214 13.214 0 00-1.533 5.91c.446 1.856-.892 3.541-1.774 4.985.509 1.963-2.271 2.772-3.637 2.197-.886-2.626-2.504.929-2.356 2.341-.805.447-2.217-.895-3.113-1.288-.414-1.368-1.508-.751-1.12.466-1.943.985-.585 2.177.617 2.935-.422 1.575-2.625 2.531-3.696 4.073-1.51 1.674-2.858 4.365-5.308 4.42-2.35.443-5.224-1.188-6.716-1.502.708-2.265 3.462-.468 4.33-1.882.7-.592 1.527.179 1.824-1.157.364-1.344-2.348-.478-3.426-.779-1.728.311-4.46.145-2.16-1.777.148-1.245 2.81-.108 1.265-1.592a12.644 12.644 0 00-3.807-4.4c-.751-1.012-.905-3.006-1.168-4.494-1.118.353-2.231.82-3.367-.035-1.958 1.937.476 4.024 1.135 5.738-1.242 1.334-3.91 1.073-3.336-1.262.28-2.176-2.876-2.871-2.342-5.29-.63-1.546 2.146-1.157 2.508-2.703 1.236-1.135.593-1.325-.715-.904-.475.21-2.436-.847-1.114.147 1.67.762.215 1.988-1.018 1.358a20.418 20.418 0 00-3.704 4.992c.49.9 2.047.086 1.042 1.71-.226 1.74-2.684 1.494-2.898 2.586 1.912.78-.162 1.897-.276 2.61 2.092.019 4.526.239 4.753 2.674.566 1.181 3.612 3.402 1.144 4.051-2.538.365-2.57-2.846-4.78-2.993-1.243-1.115-4.195.15-4.229 1.666-1.439 1.324-3.762 2.769-5.856 2.017-1.238-1.468-3.308-1.76-5.187-1.568-1.785.59-3.95-1.517-3.997-3.027-.51-2.332 1.843-3.553 3.162-5.044.837-.761 4.598-.358 2.41-1.803-2.213-.91-4.527 1.193-6.87.494-1.37-1.27-3.565-.942-4.986-2.217-.205-1.825.78-3.99.565-5.988-2.106-.826-.947 3.208-2.411 3.285-1.61-.173-3.65-.723-2.336-2.648.215-2.275-3.435-.467-4.066-2.717-.886-2.07-3.516-.397-4.063-2.822-1.583-.94-2.443-4.967-4.581-3.01.19 2.871-3.101 3.31-5.272 3.756-1.9.966-3.074-.334-3.768-1.892-2.536-.715-3.336-3.972-6.298-3.435.933-1.43-.88-3.819 1.348-4.113 1.847-1.864-.144-2.898-1.65-3.698-1.319.071-2.42.886-3.808-.084-1.302-.057-2.741.664-2.772-1.255-.983-2.402-2.842-.43-4.286-.192-.275-1.782-4.104-2.546-2.45-.077.39.982 3.05 2.949.565 1.918-1.495-.285-2.41.163-.915 1.423 1.61.677.882 2.336 1.536 3.373-1.494-.95-3.377.415-4.739-.975-2.13.988-1.451 3.27-.024 4.532.494 1.503-3.387 3.793-2.832 1.752-.89-1.856-3.264.438-1.791 1.825.22 1.596-.483 2.655.252 4.078-1.035 2.11-2.977.572-3.956-.526-1.42.305-1.925-.226-1.233-1.428-1.819-.731-.435-1.592.644-2.197 1.704-.943-.637-1.718-1.426-1.52-.306-1.378 3.281-1.196 1.117-2.434-1.037-1.43 2.362-2.79-.232-3.081-.164-1.847 3.21-1.224 3.542-3.28.884-.485 2.254-.283.626-1.032-.524 1.318-2.694 1.166-3.971.243-.9.599-3.604-1.598-2.591.609.123 1.902-2.279-.387-2.469-1.2-1.856 1.426-1.046-2.103-3.062-1.344-1.055.07-2.28-1.801-.407-1.358 1.074-1.36 2.483 1.969 3.463-.314 1.102-.791 3.611 1.868 2.869-.676.173-1.526 1.75.334 1.601 1.137 1.16.966.379-1.74 1.893-.759 1.758.6 2.798-.032 3.643-1.584.702-1.131-1.88-1.601-2.648-2.318-2.126 1.294-3.89-1.066-5.63-1.861-.057-2.074 3.98.872 3.55-.653-1.419.814-.762-1.437-2.285-.785-2.068-.182-.335-2.278.859-1.089 2.222-.545-.446-2.576-1.635-2.576-.22-1.412-1.597-1.976.083-2.71-.876-1.011-1.966 2.104-2.495 2.899-1.22-.966-1.517-3.655-3.463-2.353a5.456 5.456 0 01-3.75-.725c-1.908-.459-3.756 1.746-1.636 2.875.998 1.455 1.756 3.662.12 4.976.03 2.611-3.152-.118-.954-1.1 1.84-1.202-1.18-2.362-.906-.322-1.056 1.18-3.49 1.44-1.825 3.591.29 2.412-3.26 1.196-2.997 3.626-1.165-.537-3.705-2.482-1.983-3.435 2.415.834 2.918-2.024 2.506-3.77-.823-1.854-3.625 2.101-3.559-1.172-.667-1.005-3.689-1.718-1.043-2.263 1.062-1.404-2.003-2.269-3.122-2.19-1.66-.108-1.516-2.013.189-1.283.946.514 3.098.559 1.975-1.127-1.236-1.314 2.234-.592 2.102-2.341 2.54-.36.053-3.944-.784-1.6-.245 2.543-3.526 1.238-4.705 2.167-.379 2.286-2.576.84-2.723-.763-1.227-2.129-2.26.202-1.04 1.542-.216 1.03 1.313 2.383-.487 1.669-1.295.345-2.516.183-3.851.96-1.123-.301-1.355-2.097-2.898-1.958-1.093-1.048-3.005 1.81-2.585-.86.108-2.308-3.136-2.642-4.773-3.053-1.717.209.338-1.924-.605-3.08-.93-1.886-3.005-2.83-4.419-4.316-1.536-1.594-3.836-1.269-5.763-2.063-1.824.06-.785-2.658-2.254-3.616-.75-2.004-3.856-1.965-5.082-.496-.663 1.644-1.242 3.097-3.417 2.997a4.265 4.265 0 00-2.703-2.7c.229-1.443 4.03-3.18 1.407-5.093-.143-1.34-3.462-.839-1.395-1.92 1.657-.075 4.186.322 3.28 2.512 2.04-.704 3.153 1.304 5.14.945 2.068.996 2.89-1.708 1.628-2.97-.757-.977-1.112-1.617.322-2.193 1.273-1.825-2.039-2.904-3.327-2.666-1.59-1.866-4.796.675-6.521-1.429-1.133-1.038-.171-3.434 1.039-1.558 1.92.56 3.815 2.6 5.574.56 1.487.52 2.595 1.443 4.322.897 2.226.423-.225-2.156-.138-3.262-1.073-.536-1.346-1.206-.27-2.03-1.093-1.39-2.124-.088-2.973.705-.796-.18-.494-1.23-1.68-.632-.977-.496 1.15-1.53.8-2.651.321-.859-3.832-.712-2.381-2.495.567 1.636 1.886.579.537-.271-1.932-.609-.046-3.198.634-4.331.696-.697 2.214-2.147.15-2.313-1.514-.683-.84-3.068-3.042-3.099-1.677.162-1.502-1.834-3.147-2.024-1.057-.238-2.462.651-2.79-.441.042 1.419-1.923 2.484-2.526 1.465-1.325 1.022-.345-3.235-2.23-1.366-.88 1.41-1.701-2.52-1.925-.715 1.004 1.03.888 1.33 0 2.484-.782-.87-1.502-4.672.663-3.49 2.592 1.415 1.414-3.691-.108-4.04-2.57 1.073-2.622-2.292-2.783-3.932-1.562.152-3.606-.068-4.857.684-.181 1.164-2.368.798-1.893 2.576-.802 1.945-.322-1.859-.978-.147.35 2.254 1.66 4.12 1.583 6.284-.827 2.632-2.619-.328-3.339-1.356-1.59-.395-4.335 1.04-3.044 2.905 2.644.513.522 3.005-.849 3.62-1.2.554 1.89 2.756-.476 1.898-1.034-.509-2.524-1.77-.537-2.197-1.907.13-2.213-2.294-4.044-2.781-1.247-1.834-2.361-4.76-5.037-5.16-2.087 1.037-3.707-1.258-5.726-1.121-1.043.252-.537 2.246-1.377.45 1.04-.873.593-3.127 2.73-2.334.822-1.453-3.469-1.772-3.65-3.694a4.573 4.573 0 00-4.185-3.923c-1.288-1.495-3.1-3.155-5.2-3.043-.42-.36-.898-2.964-1.087-1.017-.858 1.113-3.56-1.866-4.553-.43-.523 1.42-3.112 2.753-4.193 1.26-1.084-.1-3.68 2.737-3.846.473.012-1.17 1.867.308.644-.791-1.703-.418-4.143-1.61-2.83-3.73-.544-2.499 1.882.119 3.093.043.694 1.452 3.971.429 2.702-.738-.95.462-.674-1.203-.348-1.357-.916.828-.735-1.11-2.106-1.087-.099-1.584-.714-2.95-2.641-2.4-1.345-.937-2.346-2.874-4.459-2.118-1.425-.873-.322-4.745 1.618-3.313-.141.322-2.424 1.356-.793 1.783.183-1.28 2.384-1.732 1.121-2.702 1.288-1.016 1.288-2.24-.633-2.289-1.207-.265-1.503-1.502-2.495-.272-2.459-.123-2.305 2.541-.76 3.743-1.74.098-.998 1.663-.865 2.452-1.443-.847-3.434-1.728-3.85-3.46.13-1.653-.972-2.836-1.355-4.18.67-.537 1.545-.52 1.203-1.63 1.15-.032 2.489-1.895.613-1.054a7.96 7.96 0 01-3.733-3.606c-1.917-.629-5.433-2.377-4.171-4.765 1.717-.4.948-1.042.575-2.205.348-1.045 1.717-2.335-.205-2.095-.947-1.147-1.632-.895-.728.473 1.181 1.8-1.662 2.028-1.706 3.699-2.24.25-1.3 2.826-3.366 3.621.127-1.956-.69.322.751.322 1.525 1.13-2.44 2.875-3.165 1.06.246-1.866-2.09-1.053-1.418.439a2.486 2.486 0 01-4.174-1.69c-1.47-1.933 2.147-1.129 1.63-3.022a5.735 5.735 0 00.44-3.244c-1.08-.536-1.289 2.562-2.022 1.084-1.477.527-.858-2.997-2.978-2.007-1.798-.693-2.548 2.84-.671 1.75 1.116 1.472-1.596 4.424-3.166 3.917-1.288-.806.39-2.904-1.563-2.124-1.845.055-2.385-2.312-2.32-3.562 1.11-.435.974-2.446.302-.633-.637-.265-1.864 2.522-2.648.614 1.18-1.165-.195-1.958-1.386-1.447-1.808-1.222-3.837 1.405-5.26-.93-1.34-.781-2.645-1.625-4.018-.73-1.76-1.001-3.972-1.22-5.704-1.995-2.155-.113-3.472-2.097-5.464-2.676-1.618-1.395-2.308-3.872-4.508-4.09a13.31 13.31 0 00-4.232-4.034c-1.725-1.593-.255-3.72 1.75-3.303.752-.902.714-2.165 1.812-2.735-1.482-1.316-3.21 1.938-5.109.915-2.096-.488-.681-3.15 1.18-2.576 1.275-.72 2.28-1.383 1.245-2.65.55-1.691-3.103-2.137-3.848-.694-1.248-.068-2.446-.45-3.699.288-1.144-.438.067 3.074-2.115 2.884-1.86-.034-4.762-.074-6.06-1.279-1.943-1.05-4.49-.07-6.169-1.908-1.058-.196-1.568-1.421-2.351-.363a8.494 8.494 0 00-5.096-2.254 11.598 11.598 0 00-6.346-3.15c-2.202-.716-4.258-1.74-6.406-2.607-1.742-1.3-4.186-2.753-4.55-4.895a5.504 5.504 0 01-.954-5.886c.137-1.073 1.326.548 1.657-.81-1.882.476-2.35-1.867-2.051-3.123a1.165 1.165 0 00-2.06 1.073c-.715 1.757-2.576-.705-2.942.91-3.245.46.197-3.738-2.746-3.826-1.548.107-3.913.572-3.44-1.579-1.512-.966-2.38-3.01-4.532-2.396a39.343 39.343 0 00-5.219-2.113 24.794 24.794 0 01-6.395-8.313c.215-1.863.16-3.498-.98-4.86-2.52.509-1.677-2.104-1.652-3.463-.592-.86-4.204-.027-2.345-1.562 1.825-.703 1.884-3.785 3.28-3.794-.806-.859-.8-1.074-2.003-.663-.42-1.509-.982-4.414-1.153-4.996-.558 1.63-2.438 2.243-2.469 1.395-1.165.872-2.48 1.383-2.674 2.952-1.36.953-1.737 3.457-4.064 2.784-1.18-.654-.275-2.522-1.85-3.26-.89-1.234-1.424.498-2.212-.35-.245 1.384-1.547 4.186-3.39 3.736a3.365 3.365 0 00-2.062-1.983c.23-1.27 1.575-2.18 2.04-3.201 1.332 1.211 4.384 1.147 3.668-1.428-.93-1.31-1.489-3.354-2.352-4.464-2.458.614-3.932-4.4-5.435-1.09-.682 2.392-4.427 1.147-2.614-.934 1.825 0 3.642-2.807 1.23-3.206.305-2.11-1.78-1.551-2.077.08-.506 1.544-1.365 4.177-3.043 2.098-2.4-.233-1.446-3.158-.859-4.565.471-.53 3.494-1.375 1.225-1.18-.771 1.418-2.38.206-2.003-1.112-1.038.727-1.549-1.495-1.736.411 1.045 2.24-2.73 4.12-.322 5.964.644 1.093 2.04 2.11.09 2.647-1.334-.511.644 3.16-1.78 2.53-1.773-.475-3.38 2.453-4.81.773-.452-1.346-2.022-2.73-1.988-3.897 1.192-.573 3.66-2.508 1.056-2.96-3.26-.74 1.92-3.16.879-5.23 1.652-1.876-.744-3.4-2.46-3.687-1.202-1.975-3.57-.85-5.086-1.758-1.646-1.111-.252-3.302-2.333-4.3-.973-1.695-1.258-3.522-2.254-4.874-1.12-1.395-2.228-2.872-4.079-3.327-1.882-.623-2.054-3.462-2.77-4.454.96-2.169-2.964-1.908-2.98-4.06-.813-1.61-3.807-1.064-2.576-3.515.859-.303 1.853-1.816.252-1.18-2.628 1.51-1.126-2.299-.522-3.176-.916-1.639-.464-3.59-1.18-5.315-.477-2.27 3.46-.39 2.278-2.93-.16-1.396-2.424-.562-1.717-2.47-1.187-1.249.095-4.45-2.756-3.734-1.552-.429-2.523 1.355-3.484 1.562-.183-1.717-1.468-3.622.805-4.485 1.363-1.974-2.312-.915-3.369-1.288-2.974-1.143 1.01-3.16 1.804-4.508.43-2.147-3.106-1.644-3.853-.38-2.13.322.47 3.146-1.668 3.971-1.493 2.925-4.937.322-6.225-1.18-.289-1.383 1.54-3.786-.796-3.812-.885-2.361-3.055-.419-3.176 1.275-2.09.322-5.304-.438-5.006-3.067-.397-2.353-4.488-1.339-4.023-4.216.592-1.422.43-3.06-1.495-2.945-1.013-1.502-3.095-2.03-2.972-4.186.612-1.118 1.9 1.375 2.873-.185 1.907-1.624 2.542 2.714 4.022.43 1.525-1.125.311-2.156-1.074-2.16-.98-1.066-1.708 2.383-2.102-.038.469-1.376-1.057-2.926-2.022-1.94a6.118 6.118 0 01-3.134-.35c-1.388 2.213-3.065-1.213-1.566-2.215 1.942-1.652-3.113-.903-1.198-2.421 1.96.818 5.133-.508 3.596-2.898-.71-1.517-2.683-4.079-3.823-3.486-1.49 1.22-1.45-.92-1.107-1.44-1.267.723-3.502 1.234-4.762.554-1.121-1.263 1.235-3.095 0-4.626-1.568.071-2.973-.7-2.674 1.675-.15 1.722-1.792 1.871-2.79 1.084-2.027.322-5.046-1-5.722-2.807 1.694-1.323-.38-3.83-1.365-4.723-1.765-.107-3.814.966-5.391-.239-1.94-.015-3.65.868-5.11-1.033-2.024-.858-1.42-3.649-2.19-5.238.88-2.174-2.182-2.76-3.716-2.14-1.837-.67-3.495-2.212-5.515-2.701-3.201.3-1.813-2.87-2.66-4.458-1.753-.984-3.633-1.774-4.938-3.347-.437-1.947-2.525-2.848-3.22-4.636-1.834-1.097-.173-3.89-2.962-4.124-1.091-1.735-3.293-1.358-5.044-1.473-1.633-.864-3.162-2.892-3.053-4.464 2.015-.656 3.55 2.028 5.752 1.165 1.446-.507 4.518-.828 3.84-2.982.15-1.892 2.632-2.898 1.486-4.96-.244-1.664-1.741-1.698-2.982-1.266-1.039-2.306-4.217-.294-5.74-1.932-1.366-1.61-3.55-.99-4.064-3.055.79-1.9-.516-3.512-1.175-5.036a15.895 15.895 0 01-4.293-5.689c-1.18-2.008-3.61-3.346-4.084-5.682a8.184 8.184 0 00-1.704-6.054c-1.015-1.36-2.23-2.883-2.24-4.666-1.157-.96-2.976-4.144-4.263-1.784-.997 1.87-2.497.708-1.374-.947-.184-.986.008-2.407-1.654-1.767-2.245.552-3.75-1.494-5.449-2.582-2.803-.505-.78-5.152-4.203-5.396-2.03-.429-3.282-2.196-4.193-3.924-1.164-2.421-4.376-2.355-5.131-4.927-.293-1.205-1.411-1.564-1.944-2.192 1.76-1.97-.48-4.002-.521-6.11a11.232 11.232 0 00-1.633-5.527c-.43-2.369-1.799-4.837-4.563-5.16-1.847-.027-1.694-2.79-3.587-3.243a37.258 37.258 0 01-1.223-5.079c1.527 1.766 4.273.022 5.57 1.528.976 1.315 3.442 2.628 4.436 1.551-.71-1.561 1.644-2.874 1.266-4.293.936-.578 3.542-1.495 1.315-2.342a2.506 2.506 0 01-.832-4.448c1.422-1.321-1.13-2.261-1.14-3.724-1.483-1.322-1.61-3.656-2.898-4.738-1.048-1.2-3.618.147-2.97-2.11-.023-2.14-2.547 1.052-2.641-1.25a24.209 24.209 0 00-5.702-1.143c-1.916.029-1.058 2.976-2.874 1.63-1.155.503-2.517.165-1.91-1.408-.766-1.059 1.637-2.268-.227-3.184-1.717-2.054 2.66.833 1.395-1.099-.68-1.753-.496-3.534-2.436-4.571-1.472-1.27-2.48.482-2.219 1.775-2.671 1.154 1.904 2.553.269 4.122-1.235 2.739-4.49 2.303-6.285 4.34-1.395.465-4.326-2.03-2.587-3.374 2.853-.3.322-3.098-1.038-3.188-1.105-1.861-3.258-2.545-4.455-4.34-1.037-1.238-1.511-2.556-.173-3.854 1.22-1.332 3.89-1.116 5.378-2.44 1.784-1.289 3.357.664 4.515 1.61 1.69.224 3.285.336 3.565-1.872 1.26-1.883-1.126-3.757-2.362-4.899.475-1.527.266-3.402-1.7-3.082-.94-1.949 3.565.35 2.587-2.36-.442-1.38-.316-2.307 1.138-2.726 1.257-1.717-.042-3.947-.801-5.57-.42-1.556-3.72-1.59-2.316-2.762-.98-.78-2.642-.644-2.887-2.198-2.338-1.476-3.257 1.341-2.511 3.107.24 1.784-2.398 1.61-1.782-.253-.272-1.273-2.261-3.034.352-3.367 1.253-1.503-.083-4.025-1.163-4.961-.948.713-3.266 3.158-3.054.354-1.566-.954-1.013-3.206.947-2.642.598-1.686-2.823-2.72-.568-4.427 2.008-.343 3.553 2.514 5.724.816 1.764-1.969 1.114 2.497 3.34 2.126 1.288.883 1.24 3.22 2.395 3.099-.006 1.226 1.524 2.201 1.218.275 1.438-1.005 2.238 2.47 2.719 3.56.684 2.102 2.868 3.3 3.172 5.52.125 1.09 2.176 1.166 2.039 2.834 1.15 1.79 3.479 2.21 4.902 3.757 1.388 1.351 3.856.954 4.151 3.19 1.82 1.76 2.484 3.971 4.15 5.736 1.428 1.535 2.7 2.95 2.754 5.172a8.283 8.283 0 004.454 3.796 7.528 7.528 0 013.393.282c.518 2.23 3.373 1.146 3.422 3.508.09 2.742 3.542 1.78 4.433 3.919 1.235.794 2.654 1.186 3.748 2.216zm152.55 98.358c1.758.889 1.064-3.045.681-.597-.067.385-.543.264-.68.596zm68.414 28.071c.775 1.086 1.91-.536 0 0zm-121.933 41.753c1.267 1.017.394-2.068 0 0zm246.094 195.334c1.156.345-.537-2.387-.79-.206-.167.417.71.135.79.206zm.977 1.002c1.194 1.983 1.091-1.491 0-.001zm5.513 9.008c-1.31.96 1.708.351.663-.28l-.352.177-.31.107v0zm321.245-270.974c1.41 2.677 4.674.457 6.384 1.476.717 1.896.628 4.421-.98 5.848-1.024 1.547-4.169.618-4.428 3.315a18.34 18.34 0 00.128 7.695c-.578 2.254-1.706 4.715-.478 6.984.125 2.012 1.655 3.426 2.172 5.276.088 2.122 1.258 3.917 1.524 5.99-.243 1.841-2.884 2.522-3.804 4.226-1.095 1.218-5.19 2.085-3.38 4.196 1.337.935 2.655 3.028 4.464 1.922a3.164 3.164 0 014.946.537 8.413 8.413 0 005.38 4.092c1.859.878 3.89-.12 5.796.322 1.61 1.323 3.882 1.625 5.128 3.413a9.924 9.924 0 012.374 6.067c.612 2.54-2.373 4.016-1.638 6.532.131 2.22 2.219 2.988 3.72 4.186 1.666.722 2.636 2.733 4.694 2.475 2.388-1.315 4.596 1.067 4.746 3.406-.013 2.566 2.063-1.56 3.435.45 2.232.893 1.75 4.471-.497 5.12-2.64.214-4.293 2.08-6.225 3.672-1.706 1.46-3.826 2.119-3.803 4.666-.351 2.741 2.361 4.903 1.357 7.655.734 1.786.491 3.434.454 5.34-.556 1.863-3.273 1.669-4.465 3.012a2.132 2.132 0 01-4.079.722c-2.195-1.446-3.012 1.155-4.079 2.355-2.077-.45-4.238-.483-5.597-2.165-1.152-.476-.793-2.512-2.406-3.061a5.88 5.88 0 01-1.35-5.518c-.845-2.046-3.239-1.754-4.872-2.48-1.917-.117-3.127-1.958-5.18-1.169-2.02-.909.154-2.884-.522-4.38 1.395-1.593-.694-4.68-2.749-4.15-2.46.116-4.937-.589-7.364-.124-2.184.55-4.252-.523-6.412-.711-2.395-.526-5.031-1.274-7.4-.246a25.35 25.35 0 01-6.125-2.77c-1.917-1.493-2.81-3.87-4.615-5.494-1.481-1.476-4.316-1.49-4.813-3.982-.499-2.272-.178-4.966-2.538-6.332a52.446 52.446 0 00-4.796-4.4c-2.215-1.22 2.23-2.899 1.228-4.807-.559-1.459-1.552-2.311-1.522-3.79-1.395-2.643-4.729-1.43-6.772-2.898-1.694-1.28-1.777-3.66-3.27-5.106-.375-2.668 3.942-.95 5.428-1.717 1.503-.938 2.56-.342 2.873 1.32 1.758 1.378 3.887 2.557 6.196 2.12 2.307.356 2.435-2.634 4.371-2.767a14.614 14.614 0 006.123-2.362 23.372 23.372 0 003.31-5.761c-.487-2.542 2.052-2.782 3.386-4.358 1.343-.998 3.434-2.146 1.895-4.04.19-2.331 3.745-2.04 3.62-4.357-.536-2.183 1.04-4.294-.782-6.192-.097-3.457-4.26-.69-5.044-3.506-1.361-1.37-4.326-2.127-5.707-.546-.26 1.073-1.298 2.413-1.279.504-1.43-.6-.923-3.158-2.62-3.971-1.582-1.35-3.404-1.857-5.214-.393-2.834.816-5.887.335-8.617 1.604-1.718 1.643-3.864.372-3.922-1.886-1.89-1.88 1.96-2.17 1.775-4.255.29-2.2-.471-4.937 2-6.159 1.88-.346 2.928-2.3 4.877-2.704 2.071-1.212 4.4.805 6.403-.453 1.395-1.621 3.184.595 4.583 1.17 2.696.611 6.076 2.805 8.431.361 2.716-1.243 1.301-3.828 1.24-5.976.835-1.743 3.602-1.532 5.014-2.96 3.24-.215 6.715-.417 9.704 1.022 2.048 1.621 5.021 1.946 6.427 4.362.63 2.146 3.731 1.595 3.63 4.249l.13.278v0zM985.18 575.46c-1.782 1.592-3.428 4.242-2.377 6.634.71 2.469 3.106 3.953 3.708 6.557a17.156 17.156 0 004.186 5.853c1.322 1.717 2.746 3.72 5.219 3.27 2.056.032 3.404 2.13 5.366.618 2.016-.654 3.444-2.486 5.777-1.943 1.968-.247 4.441.606 5.926-1.082 2.33-.537 3.719-3.91 6.475-3.552 1.137 1.455 4.897 2.454 2.536 4.723-2.455 1.288-2.317 4.4-2.898 6.735-.072 1.7 2.46 2.282 1.484 4.355-1.315 1.693-3.476 3.502-2.617 6.185.585 2.12.694 4.7-.578 6.617a31.625 31.625 0 00-.429 7.071c.107 2.85 1.805 5.507 1.774 8.424.78 2.585-2.48 2.65-4.186 2.528-3.112-.895-4.83 2.385-7.406 2.857a3.068 3.068 0 00-4.83 1.825c.26 2.587-2.967 1.57-4.545 1.815-2.138.982-4.004-.716-6.241-.342-1.638-.03-3.67 1.717-4.11-.802-1.97-.565-4.602-.129-4.473-2.986-.589-1.42-3.654-1.938-1.668-3.995 1.588-1.447-.2-3.65-.913-4.823-1.947 1.087-3.957-.66-5.99-.248-2.087-2.014-4.82-.67-7.394-.322-2.413-.576-4.792.198-7.144.214-2.93.12-1.017-3.24.888-2.85 1.85-.635.287-4.339 3.038-4.159 1.653-1.52 1.824-4.339 1.472-6.432-2.495-.453-2.127-3.89-4.85-4.39-.665-1.727-2.005-3.018-2.208-4.938-.047-2.213-2.554-3.26-2.744-5.428.24-2.353 1.273-4.665 1.364-6.969-.927-2.124-.537-4.667-2.007-6.593-1.011-2.137-3.058-3.374-4.753-4.86-.499-1.947-1.113-4.089-1.464-5.985 1.304-.55 2.782-.772 3.773-2.078 1.74.33 4.99-.191 6.614 1.753 1.727 1.54 3.57 2.445 5.13 4.185 1.48.688 3.956 1.825 5.067.056 1.61-1.47-.201-5.796 3.39-4.472 2.315 1.373 2.974-1.771 5.114-1.625 1.62-.752 3.453-1.908 5.236-1.356 1.14-1.702 2.04-5.657 4.698-4.688 1.61 1.996-.825 3.695-2.408 4.64v0zM672.522 348.804c-.131-.84-.814-3.677-.51-1.31.644 1.12.125 3.164-1.432 1.932-.507-1.708-1.196-4.768 1.552-4.394 1.464-.056 3.8-.859 4.783-.368-.644.903-1.697 2.228-.338.688 1.437-.55-.08-1.666 1.51-2.474 1.323-1.273 4.079-1.008 4.83.873 1.209 2.24 2.563 4.354 3.624 6.684a11.42 11.42 0 006.225 5.123 7.094 7.094 0 013.565 3.794c-.545 1.503-2.231 2.437-3.243 3.702-1.19-1.684-2.53-3.496-4.891-2.49-1.904 1.194-5.234.329-6.22 2.836-.12 1.344.52 2.536-1.158 3.35a26.092 26.092 0 00-4.458 5.96c-1.739 2.29 2 3.92.074 5.736-2.514.695-1.165 3.128-1.042 4.83 1.222 2.007.045 3.58-.803 5.325a6.124 6.124 0 002.67 5.158c2.79.888 4.963-1.469 7.544-1.792 2.065-1.372.305 2.168-.247 2.849.086 3.046-3.664 3.89-4.01 6.822-.494 2.23-.686 4.823-2.756 6.18-1.3 1.87-.766 4.497-2.395 6.248-1.251 2.413-4.646.983-6.192 3.046-1.43 1.717-3.342-.307-4.998 1.296a9.53 9.53 0 01-7.138.935c-.897.313-3.885 1.275-1.817-.107 2.877-.817-3.817-1.073-.877-2.017 1.748-1.098 3.8-1.71 5.084-3.455 3.97-3.263 7.657-7.043 9.865-11.747a32.414 32.414 0 002.703-6.67c-.35-2.298.769-4.873.446-7.34a22.19 22.19 0 01.462-7.685 32.364 32.364 0 001.457-5.636 18.89 18.89 0 011.878-4.921c.712-2.17 3.327-2.986 3.234-5.513.089-2.839.937-6.017-.077-8.716a8.314 8.314 0 00-4.901-5.55c-1.74.25-1.95-1.118-.322-1.236-.558-1.147 3.238-1.131.935-1.81-1.313.027-1.234 1.64-1.547-.26-.997-1.22.122 2.231-1.073 2.124zM874.736 856.76a17.388 17.388 0 003.633 2.272c.966.389 1.89 1.634 3.298.795 2.674-1.405 1.08 2.731 2.853 3.502 1.083 1.202 3.186-.082 3.106 2.338.981 2.008 3.907 2.254 4.263 4.464a5.651 5.651 0 011.773 5.832c-.523 1.592-1.305 2.988-.929 4.723-1.052.677-3.288 1.066-2.367-1.003 1.314-1.073.644-3.059-1.031-2.388a2.538 2.538 0 00-2.122-2.215c-.715-1.86 1.815-3.297.979-5.111-2.04.021-3.09 3.1-3.392 4.963-.028 1.47-.938 3.826 1.001 3.953 1.033 1.795.226 4.689-2.076 4.83-1.874.737-1.45 3.49-3.677 3.884-1.932.592-3.97-.065-5.795-.713-1.372-.922-3.423-2.267-4.527-.485-.585-.185-.22-2.55-1.169-1.329-.047 2.79-3.737-1.472-.594-1.073.56-1.579-1.856-1.007-2.386-2.543-.989-.224-2.284 1.963-2.254-.247-.742-1.724-.455-3.456 1.425-4.027.644-1.462-2.146-1.315-.43-2.806-.187-1.552-2.164-1.417-1.45-2.97-.47-.582-2.181.064-.743-1.107 2.78-1.217 1.708-4.4.495-6.281-.368-1.945-1.288-4.259.554-5.796.762-1.113 3.399-.629 2.067-2.744.686-2.04 2.35 1.764 3.435 1.288-.348-1.206-.44-2.928 1.173-1.747a24.538 24.538 0 014.881 1.741zM30.824 179.568c.675 2.052-1.61 4.666.436 5.933 2.01-.858 1.861 3.803 4.422 2.174 1.413-.06.505 2.636 1.376 3.63.563 1.752.844 4.436-1.792 4.018-1.322.393-1.798-2.238-3.006-.353-1.196.718.243 4.802-1.514 3.747-1.474-1.274.16-3.504-2.213-4.265a13.151 13.151 0 00-2.913-3.495c.258-2.197-.064-4.258-2.072-5.564-1.86-1.59 2.218-4.026-.895-4.564-1.685.492-1.047-.17-.985-1.33-1.034-1.725-1.652-4.217.13-5.675 1.147-1.219 3.444-1.77 1.464-3.744-.413-1.743-.31-3.818-1.733-5.174-1.246-1.294-3.112-3.063-2.437-4.866 2.02 0 2.999 1.932 3.729 3.56 1.107 1.474 1.74 3.204 3.049 4.551 1.573 1.202 1.38 3.157 2.79 4.382.738 1.596 2.424 3.086 1.857 4.991a4.541 4.541 0 00.307 2.044zM729.06 821.674c.673.678 1.743-.82 2.418.57 2.284-.678 2.815 1.767 3.314 3.435 1.165 1.68-1.61 2.493-.74 4.435-.986.95-3.593-1.362-4.28 1.073-.494 3.011-2.657-.07-4.331.506-1.585 1.164 1.448 2.683 2.224 3.005.672-1.322 5.214-1.288 3.925.878-1.664 1-3.064 5.022-5.206 2.8-1.43-1.08-3.529.38-5.206-.502-1.434-.127-1.396-.88-.923-1.843-.581-1.203-2.898-3.745-.353-4.13 2.18-.172 1.367-3.034.966-4.427-1.687-1.137-2.068-3.228-.041-4.103 1.18-2.073 4.047 3.247 4.86.523a2.278 2.278 0 013.373-2.22zM94.728 250.984c2.293 1.71 2.958 4.328 3.103 7.09-.125 2.604 2.77 2.55 3.683 4.527-.42 1.787 1.187 3.707.086 5.352-1.012.937-2.97 3.756-3.947 1.439.613-1.138.948-2.64-.722-1.665-1.53-.536-2.55 3.239-3.368.718-2.458-.322-2.078-2.854-1.622-4.615.285-1.61 1.646-4.11-.937-4.288-1.165-.827-.997-2.736.5-1.264.204 1.144 1.598 1.28.663-.065.1-1.379 1.534-3.282-.298-3.99.215-1.187.036-2.468 1.707-2.612a.675.675 0 011.154-.628zm54.12 33.578c1.191-.76-.85-.953-.055.262-1.027.31-2.098-1.37-3.307-1.567-1.825-1.738-4.053-3.273-5.217-5.504-1.573-1.617-1.193-4.264-2.898-5.76-.936-1.032 2.945-3.005.67-4.304.982-1.368-.198-4.195 1.289-4.792 1.227 1.265.312 4.723 3.112 4.14.294 1.511-.368 3.552 1.837 3.915 1.298 1.344 1.841 3.045 3.91 3.656 1.86 1.181 2.216 3.136 2.697 5.027 1.762 1.365 2.04 3.635 3.273 5.434 1.77 1.869-.131 3.905-1.258 1.065a5.414 5.414 0 00-4.051-1.572zm744.403 600.701c.644 2.219-1.413 4.249-1.539 6.57-1.502 1.575-4.438-.676-6.557-.03-1.747.582-4.172-.52-1.738-1.63 1.773-1.098 4.765 1.895 5.35-.782 1.628-.797 5.117-1.878 2.596-3.955-1.631.118-3.213 1.478-4.894 1.795-.38 1.06.031 2.452-1.126 1.009-1.515-.872-2.705-2.834-.414-3.36.292-1.648 1.645-3.2 2.462-4.44 1.334 1.36 3.156 1.847 4.694 2.783a2.53 2.53 0 011.166 2.04zm-340.27-161.159c1.602.588 4.563.658 4.488 2.836.287 1.914 1.376.573 1.447-.618 1.45-1.195 3.949.214 4.34 1.962-1.117-.12-3.4-.122-1.85 1.516 1.711 2.41-2.299-1.556-2.413-.503-.435 1.148-2.147.836-1.61 2.516-.475 1.118-2.16 1.717-3.26 1.976a8.016 8.016 0 01-1.862-5.162c.543-1.785-1.697-3.61-.779-4.83a1.426 1.426 0 011.499.307zM61.837 256.854c1.555.993 3.457 2.631 3.275 4.734-2.657-.07-2.412 3.57-.852 4.956.983 1.622-.595 3.232-1.947 1.66-1.64-.683-1.417-3.426-3.513-3.94-1.852-.996-3.608-2.281-2.696-4.475.078-1.103 2.204-2.31 2.909-2.469a13.283 13.283 0 012.824-.467zm-48.264-109.37c.165 1.984 2.005 3.307 3.181 4.78 2.509.7-1.395 2.72-2.588 2.916-1.686 1.946-2.698-1.549-3.8-2.261.622-1.469-1.33-3.292 1.054-3.542.68-1.98-2.556-.447-2.694-2.413-1.142-1.357-2.385-3.22-.447-4.482-.338-.866-.915-2.118.695-1.582 1.61 1.142 1.56 3.383 2.767 4.836.625.564 1.252 1.133 1.832 1.748zM559.099 737.14c.417 1.403.841 3.278-1.23 3.278-1.373 1.782.974 3.38 2.22 4.461 1.262.228 1.622 1.38.03.728a4.533 4.533 0 01-4.507-4.449c-.406-1.26-4.177-2.641-1.749-3.864 1.723-.313 2.315-2.714 3.157-3.455 1.633.298 2.863 1.588 2.079 3.3zm89.917-315.363c-1.55 1.385-2.204 3.586-4.722 3.055-2.45-.2-4.045 2.86-6.034.652-1.539-.92-2.891-2.361-4.702-2.453.929-2.881 4.374 1.057 6.428.305 1.91-.482 4.079-.339 5.735-1.56 1.88-.08 3.798-2.737 5.223-2.293a3.492 3.492 0 01-1.928 2.294zm-81.29 295.892c.994.931 1.932 1.427.43 2.182-.183 1.55-.248 3.427-2.147 3.595-1.074 2.2-3.384.435-2.248-1.53.298-.553 2.482-.061 2.539-1.724 1.026-.985.047-1.8-.248-2.42.947.303 1.213-2.46 1.925-.473l-.072.204-.177.168v0zm69.551 71.616a6.584 6.584 0 005.126 1.73c.15 1.034-.559 4.977-.996 2.13-.078-2.001-2.79-.744-3.663-.717a6.187 6.187 0 01-4.508-2.942c1.494-.658-2.03-2.8.601-3.13 1.43.559 1.722 2.722 3.44 2.929zm29.548-442.221c1.576-.161.264-1.544-.125-.146-.751-.656-.107-1.294-1.052-.966-.457-1.377-1.59 1.381-1.626-.77 1.815-1.105 4.079-.272 5.436 1.19 1.01 2.993-2.912 2.39-4.7 2.218-.83-1.685.938-2.07 1.914-1.277l.153-.248v0zM953.61 518.63c-1.86-.25-2.394-3.318-4.463-3.938-1.156-1.06-2.797-2.624-3.026-3.971.817-2.594 4.46-2.524 5.855-.47a23.627 23.627 0 004.22 5.153c1.491 1.323-1.403 2.99-2.586 3.226zM168.303 313.4c-1.165 1.8-1.795-2.146-2.608-2.805a7.232 7.232 0 01-1.906-5.029c.799-.795-2.028-2.796.507-2.456 2.18-.333 2.084 2.205 2.79 3.656.413 1.899 1.206 3.45 1.74 5.211a.978.978 0 01-.523 1.423zm-78.954-24.047c1.16.57 1.794 3.106 0 1.596-1.12-1.406-4.646.758-3.07-2.243.188-2.558-3.739-2.6-3.883-4.39-.197-1.61 1.097-2.607 1.65-.63.775 1.963 3.192 1.838 3.553 4.124.393.772 1.346.835 1.75 1.543zm457.128 431.27c1.166.21 4.73 1.278 3.372 2.435-1.731 1.142-3.23 2.314-5.392 2.394-1.141.93-3.48.845-2.53-1.082 1.33-.689 2.146-2.066.343-3.053-1.478-.676-2.397-3.09.071-2.618 1.171 1.141 3.862-.002 4.13 1.93zm-391.44-407.39c.966.358 4.293 1.41 2.253 2.597-2.291-.214 1.304-1.024-.677-1.441-1.229.84-3.205-1.725-3.834.082-1.574.09-2.545-1.61-.39-1.097.616-.822 1.841-.372 2.643-.14zm490.312 340.97c-.419 1.318 1.83 3.734-.449 3.485-.582-1.595-1.061-.624-1.953-.264-1.227-1.395-3.65-.41-4.83-1.97-.626-.556-2.469-2.482-.473-1.88 1.31 1.406 5.084.687 3.783-1.6 1.428-.613 2.72 1.662 3.922 2.23zm289.084-75.292c-2.57 0-.35-3.93-1.872-5.394-.414-1.404.96-4.954 2.592-3.22 1.89 2.056-2.63 3.353-.953 5.62.15.994.172 1.995.231 2.994zM123.659 329.27c-2.123 1.148-3.512-1.457-1.845-2.929 1.216-.505-.43-3.483 1.256-2.644 1.13 1.044 1.538 1.94.832 3.353-.239.73.658 1.727-.243 2.22zm201.043 248.714c-2.031.623-2.676-2.355-3.632-3.614 1.574-.343 1.168-2.762 3.237-1.939.903.903 3.837 2.773 1.742 3.826-1.2.296-.055 1.61-1.347 1.727zM655.07 797.72c1.366 1.103-.6 4.124-1.764 3.935-.88-1.595 2.147-2.278.582-3.996-.444-1.937 1.422-1.54 1.177.064zM263.178 510.518c-2.379.503-2.273-2.552-2.63-4.079-.36-.904-1.62-3.82.254-2 2.32.565 1.733 3.327 2.69 5.074a1.039 1.039 0 01-.314 1.005zm309.264 236.25c-1.192 1.648-2.158 3.815-4.518 2.627-1.995-.632-.204-2.264 1.18-1.673.943-.53 2.432-2.69 3.338-.955zm62.36-96.737a4.386 4.386 0 01-5.25.33c.314-1.732 2.42.537 3.417-.892.455-.672 3.76.315 1.839.563zm261.641-126.747c-2.268-.02-4.023-2.44-5.63-3.704 1.414-1.296 3.288.84 4.508 1.668a1.717 1.717 0 011.122 2.036zm-418.39 151.392c-1.596 1.062-3.493-.108-2.147-1.91-.143-1.128-.108-2.838 1.693-1.656a2.934 2.934 0 01.454 3.566zm58.589 44.304c1.243.498 3.77-.374 3.196 2.082 1.015 2.576-1.886 2.5-2.785.852-1.697.527-2.254-2.186-2.356-2.97.648-.049 1.296.06 1.945.036zM103.758 301.293c1.003.62 5.06 1.104 2.55 2.648-1.562.122-2.842-2.017-3.397-2.885a.927.927 0 01.847.237zm276.999 312.111c.893.88 2.254 3.486.047 1.99-1.993.158-1.19-1.093-.441-1.578-.068-.227.256-.35.394-.412zM651.985 356.65c-2.106.764-.721-2.4.51-1.421a1.073 1.073 0 00-.514 1.42zM97.088 272.765c1.088 2.086-1.973-.361-3.012.266-1.462-1.61 2.755-3.488 2.763-1.345a1.71 1.71 0 00.249 1.08zm-65.33-64.223c-2.024.943-2.127-1.253-.27-1.377-.305-1.477 1.86-3.694 1.65-.983 1.273.876-.766 1.88-1.38 2.36zM285.146 527.11c-1.445.544-2.153 0-.69-.978-.224-1.256.122-1.738 1.453-1.003 1.415.148.009 2.062-.763 1.981zm209.917 154.93c.169 1.467-.333 5.797-2.4 3.508-1.67-.779-.056-4.01 1.248-2.767.69-.138.332-1.343 1.152-.74zM331.22 574.128c.38 1.135-1.68 2.31-.693.62l.347-.302.346-.322v0zm0 0c-.584-1.046.555-4.633.726-1.9-.126.675-.606 1.22-.726 1.9zm198.886 140.659c-.674 1.764-3.57-2.845-1.001-1.66.375.526.656 1.113 1 1.66zm146.837 85.773c-1.395.172-3.005-.308-1.452-1.656.185.706 2.86 1.116 1.45 1.655zM119.97 327.225c-.89.429-3.547-.068-2.494-1.074.927-.15 2.892-.518 2.492 1.072zm-13.92-38.23c2.62-.686.593 4.38.407 1.491a13.265 13.265 0 00-.407-1.49zm548.923 387.278c-.868.717-2.147-1.626-2.929-2.193.992-1.132 2.196 1.553 2.93 2.193zm-17.69-319.552c-.332 1.835-2.976-.188-.504-.243l.253.088zm140.293 433.424c-2.348.406-1.437-4.294-.017-2.958-.282 1.032.82 2.068.017 2.958zm-139.722-11.322c-.267 1.216-2.401.978-2.537-.65 1.27.048 2.1-1.508 2.537.65zm-56.76-432.07c-.309 1.728-4.31 2.487-3.442.36a12.442 12.442 0 003.441-.36zm71.124 74.454c-2.83 1.224-.354-3.542 1.104-1.16.38.613-.672 1.031-1.103 1.16zM99.509 278.347c-.858 1.345-2.206-.59-.477-.972.574-1.113 2.683-1.61 1.169-.017a3.554 3.554 0 01-.69.984zm415.32 425.094c-.906-.144-2.654-.472-2.922-1.404.694-.845 2.506.749 2.923 1.404zm-84.8-67.282c-1.017.354-.95-1.594-1.59-2.003 1.711-1.188 1.497 1.015 1.59 2.003zm-.752.786c-1.873 1.76-1.18-1.639-2.402-2.384.305-1.55 2.718 1.416 2.397 2.389zm144.875 115.259c-1.584 2.111-1.234-3.65-.055-1.396.066.466-.036.934.055 1.396zM87.638 254.915c-1.588 1.54-1.587-3.288-.2-2.82.778.63.58 2.043.2 2.82zm476.265 351.267c-3.014 1.233.687-3.407.802-.76a.665.665 0 01-.802.76zm-61.501 72.4c.484 1.583-1.402-.497 0 0zm63.834 62.225c-.119 1.295-1.983-1.99-.204-2.03 2.083-1.682 1.053 1.398.204 2.03zm45.738 30.556c-1.75.685-2.746-3.506-1.605-2.836.18 1.136 1.141 1.833 1.605 2.838zm165.734 21.662c-1.35 2.302-3.906-1.384-.986-1.59.69.414 1.238.677.986 1.591zM631.63 414.818c.032 1.893-2.921-1.502-.421-.751a3.249 3.249 0 01.42.752zm-76.775 300.968c.486 2.165-3.278.859-.808.107.34-.149.7-1.116.808-.107zm306.448 159.71c-1.765.264.107-3.605.782-1.054a3.015 3.015 0 01-.782 1.05zm11.294 20.853c-1.773.706-2.287-1.037-.391-1.278 1.568-.896 1.736.85.391 1.273zM498.823 678.656c-.021 1.478-1.056 1.775-1.21.178-.261-.957 2.585-1.481 1.21-.178zM102.357 287.16c-1.694.723-2.254-1.382-.41-1.376a.737.737 0 01.41 1.376zm539.795 69.752c-1.371.559-1.98-1.16-.271-.173zm-71.556 358.112c-1.167.604-2.734.113-.955-.828.859-1.104 4.21-.059 1.825.752l-.443.02-.429.057v0zm327.326-151.283c-1.524 2.43-2.315-2.27-.127-1.764a1.169 1.169 0 01.127 1.764zm-448.639-28.866c-.698 1.428-2.172-1.032-.33-.337zM329.55 578.298c-.18 2.08-2.2-1.035-.144-.693 1.12-.157 1.13.172.144.693zm316.025-220.053c-1.229 1.378-2.317-1.156-.232-.775.733.054.722.29.232.775zM584.074 734.59c-2.63.966-1.48-3.776.052-1.43a4.525 4.525 0 01-.058 1.43zm75.183-384.924c-1.46.545-1.704-1.88-.537-1.42-.093.595.471.883.531 1.42zm-90.052 374.653c-.148 1.695-2.192-2.274-.134-1.058.415.158.73.827.124 1.058zM902.7 551.45c-1.534 1.267-3.495-3.27-.742-2.322.893.413.58 1.543.742 2.322zM506.246 688.926c-2.146.437-1.793-2.641.223-1.238.318.374.383 1.123-.223 1.238zm65.595 34.796c-.937 1.301-1.75-2.65-.074-.677a1.088 1.088 0 01.074.678zM527.084 711.4c-.878 1.946-3.441-2.817-1.017-.878a9.782 9.782 0 011.015.876zM889.36 880.473c-1.782 1.812-.852-3.824.107-1.278 0 .43-.068.853-.107 1.278zM620.493 366.32c-2.76.778 1.395-1.669 0 0zM36.406 209.943c-1.387 1.617-1.433-2.254-.215-.278zm698.61 602.24c-.734 2.165-2.665-1.97-.317-.56l.158.28zm-236.26-129.57c-1.503 1.68-1.096-2.717.095-.631l-.089.304-.006.322v0zm186.702 21.758c-1.65.995-.055-1.669.45-.168zM224.759 465.93c-1.68.262-.671-1.41.522-.624 1.67.395.18.755-.522.624zM581.49 755.11c.347 1.735-3.051-.94-.61-.464.236.033.66.122.61.463zM87.415 245.62c-2.18.78-1.797-1.985.037-.983.385.253-.015.677-.037.983zm567.035 108.1c-1.083 1.422-1.245-1.795-.239-.653a.455.455 0 00.236.653zm-44.275 45.037c-1.068.914-3.694-.644-1.932-1.428 1.026-.16 1.394.768 1.93 1.427zM87.415 257.491c-1.328.751.45-1.642.31-.372zm25.259 35.464c-1.39.9-1.58-1.718-.261-.215zm523.54 65.39c-2.207.386-.246-1.654.215-.154zm100.918 459.71c-.764 1.36-3.273-.521-.717-.388.301.06.878-.432.717.385zM322.168 405.226c-1.807.406-.737-2.576-.047-.402zm-196.619-68.065c-1.109.951-.46-1.772.355-.397l-.158.176-.196.223v0zm472.912 33.018c-1.556 1.542-.424-3.296 0-.805l-.06.311.062.494v0zm32.166 40.446c-.814 1.39-2.082-1.593-.17-.67a.751.751 0 01.17.67zM374.531 613.068c-1.655.075 1.405-1.073 0 0zM680.368 799.39c-1.005 1.632-1.434-2.343-.24-.352zm-109.264-71.496c-1.084 1.567-1.932-1.769.006-.564l.077.224-.084.34v0zm314.16 134.751c-.567 1.016-1.182-.942.004 0zm11.564 45.784c-2.24.827-.194-3.36.059-.843a2.295 2.295 0 00-.056.843zM622.712 400.948c.441 1.731-1.717-.537 0 0zm-53.428 338.767c-1.137 1.288-.803-1.151.527-.528 1.757-.107.283.564-.527.528zm83.31 62.896c-1.443.896-.392-2.02 0-.004zm-90.938-79.48c-1.339.105.382-1.563 0-.003zM56.868 103.483c-1.162 1.711-2.225-.98-.292-.75a.676.676 0 01.292.75zm68.659 228.888c1.188 1.055-1.331.35 0 0zm2.133 12.32c-.271 1.37-.27-1.364 0 0zm254.387 91.47c-1.525 1.343-1.492-2.432-.215-.43zm98.276 241.589c-1.363 1.146.607-2.084 0 0zm52.32 27.86c-.138 1.033-1.812.266 0 0zm1.846 23.881c-.998 1.518-2.43-1.34-.666-.197a1.247 1.247 0 00.666.197zm181.72 97.045c-1.343.916-1.306-1.302 0 0zm-73.707-29.266c-1.476.614-.357-2.402-.081-.28zm242.678 64.16c.107 1.865-1.717-1.18-.186-.16zm-20.68 25.116c-.542 2.03-1.807-.865.001.004zm-88.882-95c-2.136.91.536-2.146.266-.147zm125.235 109.99c-2.561-.162 1.577-1.288.33-.037zM653.537 354.357c-.655 1.485-1.065-1.03 0 0zm-342.733 45.408c-1.746.167 1.201-1.303 0 0zM157.57 290.475c-1.784.803-.267-2.235 0 0zm-49.741 9.222c-1.249 1.1-.15-1.917-.003 0zM38.03 223.582c.361 1.247-.995.421-.004 0zm-1.425-2.98c.974.663-.839.626 0 0zM862.168 879.15c.398 2.47-1.562-.555-.001 0zm9.961 8.294c-1.098 1.02-.2-1.427 0 0zM572.086 732.076c-.252 1.325-1.191.252 0 0zm9.048 29.05c-1.105.686-.614-.871-.003 0zm60.014 9.105c.5 1.963-1.963-.559-.003 0zm18.653 18.924c-1.896 1.421.542-2.168-.003-.001zm-194.973-236.99c-.205 1.348-1.206-.5-.003 0zm-37.446 94.471c-1.631.792-.892-1.89-.002 0zm13.452-137.679c-.874.675-.3-.996-.002 0zm214.434-157.014c-.3.9-.92-.455 0 0zm-516.138-21.54c-1.584 2.337-1.146-1.332 0 0zM99.288 297.92c-1.18 1.321-.214-1.052 0 0zM36.5 211.937c-.926 1.49-.867-1.773-.005 0zm57.23 37.933c.37 1.533-1.424-.312 0 0zm384.48 297.836c.317 1.04-1.19.176 0 0zm-27.08-31.6c-1.12.677-1.24-1.224 0 0zm-22.863 117.613c-.556.937-1.12-.625.002 0zM246.28 483.264c-.38.998-1.448-.42 0 0zM93.14 341.193c-.465 1.247-1.071-.608 0 0zm209.483 218.216c.24 1.21-.905.429 0 0zm237.82 160.582c.033 3-1.21-1.93 0 0zm-41.91-23.834c-.43 1.218-1.687-.732 0 0zm363.855 158.25c-.537 1.164-2.192 1.059-.734-.087a.546.546 0 01.735.09zM550.07 720.588c-1.261.569-.964-1.657 0 0zM357.964 421.85c-1.293.61-.404-1.714 0 0zM36.293 213.034c-.693 1.095-.696-1.114 0 0zm3.113 25.286c-1.082.552-.331-1.308-.002 0zm-1.447-12.679c-1.03.884-.15-1.265 0 0zM152.274 382.17c-.36 1.223-1.09-.542 0 0zm160.309 29.17c-1.16.98-1.392-1.387 0 0zm-5.982-11.893c-.362 1.299-1.056-.591.001 0zm30.24 9.58c-1.001 1.247-1.453-1.62 0 0zm8.316 5.888c-.474 1.48-1.402-.289 0 0zm296.15-57.372c-.67 1.144-.723-1.108 0 0zm4.825-.882c-.935 1.164-1.128-.737 0 .005zm11.138-5.863c-.688 1.146-.757-1.108 0 0zm-48.078 42.107c-1.645.204.518-2.703 0-.35zm163.937 12.666c.705 1.181-1.181.176 0 .002zM662 666.893c-1.114.565-.348-1.304 0 0zm-62.252-40.324c-1.104.588-.355-1.288-.004 0zm-107.71 55.576c.314 1.132-1-.112 0 0zM452.77 660.63c-.36 1.306-1.048-.628 0 0zm20.57-107.726c-1.054.528-.596-1.05 0 0zm-208.048-42.137c-.659.95-1.31-.34 0 0zm368.579 270.546c-.939 1.523-1.142-1.527.003 0zm-28.218-11.964c-.541.928-1.212-.383.004.001zm-22.236-13.202c-1.556.382-.218-1.667.004 0zm-4.336-25.145c.41.832-.933.397.004 0zm.824 2.624c-2.145.472-.563-1.348.004 0zm-26.68 8.72c-.78.474-.343-.94.003 0zM871.283 886.18c.522 1.17-.973.651 0 0zm-6.25-33.89c.894 2.345-1.553.137 0 0zm-1.09-.31c-.538 2.177-2.161-.854 0 .002zm-2.022-2.121c-1.101.589-.35-1.29 0-.001zm-3.535 31.864c-.55 1.402-1.557-.478 0 .001zm-273.765-146.62c-.532.749-1.018-.657 0 0zm16.167 38.961c.958.893-1.253.185 0 .004zm62.345 8.247c-.567.809-.567-.83-.001.004zM374.819 611.794c-.516 1.067-.645-.751 0 0zm-22.46-30.697c-.884.322-.09-.939 0 0zm-2.599-4.385c.447 1.132-1.14.667 0 0zM527.726 711.72c1.229 1.13-1.922.055 0 0zm87.667-313.05c.41 1.157-1.105.642 0 .002zm33.543-41.436c-.478 1.42-1.25-1.33 0 0zm-36.56 42.249c-.412 1.197-1.377-.839-.005-.001zm-227.708 29.015c.913.617-.77.64 0 0zm22.925 41.777c-.906.347-.116-1.047 0 0zm-7.963-23.184c-.25 1.058-.982-.374 0-.004zM126.55 276.067c-.342 1.317-.899-1.322 0 0zm-5.8 61.725c.37 1.271-1.087.765-.005 0zm-10.685 8.821c.52.944 2.823.322.966-.342a1.037 1.037 0 00-.97.342z" /></svg>