<svg version="1.2" xmlns="http://www.w3.org/2000/svg" width="1024" height="1024" viewBox="0 0 1024 1024" fill="#e83c4b" stroke-linecap="round"><path class="a" d="M589 392.8l-.5 1 .4 8.7 1.9 2.2.2 1.4-1.6 2.3 2.9 6.4-1.1 7.2-3.1 3 1.7 8.5 3 1.9-1.7 3.3 1.8 2.9-1.3 3.8 2.1 11.8-4.2 7.5-6.6-6.1-1-1.5-.3-2.7-2.4-1.5-4.9.1-4.9 1.6-4.1-2.1-.7-1.2 1.1-2.3-1.1-1.6-1.8-.9-.4-5.2 5.5.8.8-.8.5-1.8-.7-3.9.4-3.5 1.6-2.7.3-1.3-1.7-3.9.2-3-1-3 1.5-1.5 1.4-4.2-.4-.7-2.3-.8-2.9-3.1.4-.7 3.4-.5.2-.9-1.3-1.6-1-3v-3.7l-1.3-3.1.2-1.8 1.4-1.9 5.6-1.1 1-.5.3-.8-1.6-4 .7-3.4-.5-3.9.9-4.9-1.3-1.3-2.7.4-.4-1 3.3-3.8 2.4-6 4.6 2.7 2 3.4 1.3 3.9 1.3 1.4 1.1-.2 3.6-2.8 7.5-.4-1.5 3-2.3 12.7-2.4 3.3-.6 3.6z"/><path class="a" d="M574.5 325.3l-.8.5-1.3 2.2-2.1.9-2.2 1.7-1.5 2-3-.9-2.6 2-3.1.8-1.1 4.8.3 4-2.3 4.7-2.7-1.6-3.6-3.3-1.9 2.1-1.8.5-6.3-.7-2.5-1-5.4.7-1.3-.5-.5-1 .3-2.7-.3-1.3-5.2-2.4-1.6-1.9-2.5-.9.8-5-.1-3.8 1-2.5-.2-1-1-.5h-2.3l-4 2-1.4-.9.2-1.5 3.1-1.5.6-2.1-.4-1.6-.7-.9-2.6-.5 1-1.9 1.3-1 6.9-2.6 4.3-2.2 3.4-2.5 2.1-2 .6-1.2 3.1-3.6 2.6-.7 2.4 1.3 3.1 3.2 2.6 1.9 4.1 1.7 10.5-1.5 4.7.4 2.8 2.1 2.8 4.7.6 4.4-.3 4.1 1 2.9 1.3 1.6-.1 1z"/><path class="a" d="M527.6 357.5l-7.4 1.7-3.4 3.6-.5 1.7-2.2.7-1 1.4-2.3.2-3.7-2.5-8-10.5.4-.3.6-1.5-.9-5.8.2-5.5 3-4.9 4.5-2 1.2-1.1.7-5.2 1.5-4.1 1.6-8.1.6-1.1 2.6.5.7.9.4 1.6-.6 2.1-3.1 1.5-.2 1.5 1.4.9 4-2h2.3l1 .5.2 1-1 2.5.1 3.8-.8 5 2.5.9 1.6 1.9 5.2 2.4.3 1.3-.3 2.7-4.9-2.1.3 3.6 2.6 1.9.9 1.4-.1 2.6-1.7 1.4-.5 1.6z"/><path class="a" d="M594.4 329.3l-.4 3.6 1.7 2.8-1.1 6.1 1.3 3.6-.9 3.8 1.2 2.9-.6 4.5 1.3 7.8.2 2.3-.4 1.7-7.5.4-3.6 2.8-1.1.2-1.3-1.4-1.3-3.9-2-3.4-4.6-2.7-1.8-5.9-1.1-1.7-2.8-.4-2.2 1-5.6 1.2-2-2.8-2.7-1.4-2.3-2.4 2.3-4.7-.3-4 1.1-4.8 3.1-.8 2.6-2 3 .9 1.5-2 2.2-1.7 2.1-.9 1.3-2.2.8-.5 2.1.4 2.6-.8 3.9.2 7.3 3z"/><path class="a" d="M531.8 396.8l4.5-5 3.9-2.1 3.7-1 .7-1.6.1-1.6-.8-1.5-1.2-1-4.4-1.3-1.8-.1-2.4 1.1-2.8-.7-1.3-1.4-1.6-4.1-1-1.1 2.5-5.9.8-5.3-.2-2-1.1-2.9-1.8-1.8-2.2-3.9.5-1.6 1.7-1.4.1-2.6-.9-1.4-2.6-1.9-.3-3.6 4.9 2.1.5 1 1.3.5 5.4-.7 2.5 1 6.3.7 1.8-.5 1.9-2.1 3.6 3.3 2.7 1.6 2.3 2.4 2.7 1.4 2 2.8 5.6-1.2 2.2-1 2.8.4 1.1 1.7 1.8 5.9-2.4 6-3.3 3.8.4 1 2.7-.4 1.3 1.3-.9 4.9.5 3.9-.7 3.4 1.6 4-.3.8-1 .5-5.6 1.1-1.4 1.9-.2 1.8 1.3 3.1v3.7l1 3-3.9-.3-1.8 1.7-.9.2-2.1-2.3-1.1-3.6-6.4-2.5-3.3.4-2.4-1.5-5.5.2-2.4-1.5-3.6 1.6z"/><path class="a" d="M527.4 375.4l-5.4.1-9.2-3-.7.7-.8 3-3.1 5.8-3.4 2.5-3.4.7-3.4 1.4-2.9 2.6.1-.8 1.9-4.8-.2-2.6-1.3-5.8-3.3-5.4v-2.4l.2-2.4 3.2-7 2.3-3.5 1.1-.7 8 10.5 3.7 2.5 2.3-.2 1-1.4 2.2-.7.5-1.7 3.4-3.6 7.4-1.7 1.8 1.8 1.1 2.9.2 2-.8 5.3z"/><path class="a" d="M531.8 396.8l-4-2.3-3.6.3-3.4-1.6-2 .4-1.8 1.9-2.2.4-3.8 1.5-7.8-1.3-1.3-.6-1.5-1.7-2.8-.1-.3-.5-1.8-1.9-.5-1.3.1-.8 2.9-2.6 3.4-1.4 3.4-.7 3.4-2.5 3.1-5.8.8-3 .7-.7 9.2 3 5.4-.1 1 1.1 1.6 4.1 1.3 1.4 2.8.7 2.4-1.1 1.8.1 4.4 1.3 1.2 1 .8 1.5-.1 1.6-.7 1.6-3.7 1-3.9 2.1z"/><path class="a" d="M562.4 441.3h-4.2l-2.8-5-3.5-.9-2.4-2.7-4.3-.8-2 1.6-2.4-1.7-3.1-.2-1.5.4-2.2-.7-2.3 1.1-.6 1.1v2l-.9.4-3.1-.1-1.6-.8h-6.4l-3.7-1.2-1 1.1-.6 3.1-2.6 2.4-2.4 1.4-3.2 3.5-4.4 1.6-4.8-.7-3.3-1.4-1.4-5.4 2.1-3.2 8.6-1.5 1.5-4.7-.8-3.3-3.9-3.1-2.7-3.6-.4-4.5 2.4-5.1-.8-2 .8-.6-.4-2.4 1.4-3.1.4-2.9-.6-2.4-1.7-3.3 2.8.1 1.5 1.7 1.3.6 7.8 1.3 3.8-1.5 2.2-.4 1.8-1.9 2-.4 3.4 1.6 3.6-.3 4 2.3 3.1-.2 3.6-1.6 2.4 1.5 5.5-.2 2.4 1.5 3.3-.4 6.4 2.5 1.1 3.6 2.1 2.3.9-.2 1.8-1.7 3.9.3 1.3 1.6-.2.9-3.4.5-.4.7 2.9 3.1 2.3.8.4.7-1.4 4.2-1.5 1.5 1 3-.2 3 1.7 3.9-.3 1.3-1.6 2.7-.4 3.5.7 3.9-.5 1.8-.8.8z"/><path class="a" d="M589.5 464.7l-1.8 5.4-6.9-7-3.7-1.6-3.8.4-7.3-1.3-4.5 1.6-4.2-.6-4.4 2-2.9.5-2.4-.2-3.4 1.4-1.7.1-1.6-.4-5.3-3.6 1.8-2.8.6-7.3-3.2-3.3h-8l-10.9-4.6-3.8-3.5-.9.5 2.6-2.4.6-3.1 1-1.1 3.7 1.2h6.4l1.6.8 3.1.1.9-.4v-2l.6-1.1 2.3-1.1 2.2.7 1.5-.4 3.1.2 2.4 1.7 2-1.6 4.3.8 2.4 2.7 3.5.9 2.8 5h4.2l.4 5.2 1.8.9 1.1 1.6-1.1 2.3.7 1.2 4.1 2.1 4.9-1.6 4.9-.1 2.4 1.5.3 2.7 1 1.5z"/><path class="a" d="M561.3 516.4l-2.4.3-4.9-2.4-1.9-3.8.8-2.8-.5-1.5-2.7-2.2-4.6-1.8-3.2-3.8-1.9-1.5-.4-3.1-3.3-8.9-2.1-2.9h-.6l-.4.5-.3 3.7-.8 1.1-1.6.3-4.7-.7-1.3-.8-.7-1.4 2.3-2.1.2-1.1-.7-1-3.1-1.8-2.6.8-1.6-.4-1.3-4-5.1-2.7 7.5-7.4 7.3-3 8.7-.2.2-.4 5.3 3.6 1.6.4 1.7-.1 3.5-1.4 2.3.2 2.9-.5 4.4-2 4.2.6 4.5-1.6 7.3 1.3 3.8-.4 3.7 1.6 6.9 7-7.4 24.2-.4 17.4-11.4-.2-2.7.9z"/><path class="a" d="M492.6 488.6l1.6-2.6 8.1-8.2 8.1-3.9 1.5-1.5 5.1 2.7 1.3 4 1.6.4 2.6-.8 3.1 1.8.7 1-.2 1.1-2.3 2.1.7 1.4 1.3.8 4.7.7 1.6-.3.8-1.1.3-3.7.4-.5h.6l2.1 2.9 3.3 8.9.4 3.1 1.9 1.5 3.2 3.8 4.6 1.8 2.7 2.2.5 1.5-.8 2.8 1.9 3.8 4.9 2.3 2.4-.3-1.6 1.5-5.8 4.2-5.5 2.5-9.4 10-2.5 1.5-11.1 1.7-2.4-.6-3.6 1.9-17-1.2-7.2 1.8-7.9 1-4.2-1.1-2.8-2.3-1.9-3.2-.5-4 3.3-6.7 3.9-4.9 3.4-6.6.6-3.5-.7-8.2 1.5-7.5z"/><path class="a" d="M403.6 499.5l6.2-9.2 7.5 6.9 2.4 3.5v3.9l-1.6 2.7-4.9 1.2-3.4-2.1-2.3-.7-.8-2.5z"/><path class="a" d="M397.2 523.9l-.1-2.5-1.3-3.4-3.1-1.1-3-.1 13.9-17.3 3.1 3.7.9 2.5 2.2.7 3.4 2.1z"/><path class="a" d="M389.4 534.9l-1.5-.3-2.3-1.9-5.6-2.1-1.7-1.3 11.4-12.5 3 .1 3.1 1.1 1.3 3.4.1 2.5-1.4 1.4-5.7 7.3z"/><path class="a" d="M380.8 557.9l-2.6-7.7-6.6-3.6-6.2-4.3 12.9-13 1.6 1.3 5.6 2 2.4 2 1.5.3-.8 2.8.4 11.2-1.9 3.5z"/><path class="a" d="M371.7 564.8l-6.7-22.2.4-.3 6.2 4.3 6.7 3.6 2.5 7.7-1.3 1.1z"/><path fill-rule="evenodd" class="a" d="M656 183.9l-.4.8.4 1.1 2 2.2-.1 1.4-2.8.8-3.5-.9-1.1 1.7.9 3.5-.6 6.5.9 2.9 1.5 13.6 3.6 5.6v1.1l-1.4 3.3-5.7 11-2.8 3-4.2 7.6-5.4 6.3-.1-.7-1.1-.6-3.8 1.5-1.8.2-.8.8-1.4 4.3-3.9.5-5.3 4.5-2.9 1.3-4.3.3-2 1.3-4.9 2.1-1.1 1.3.3 2.9-1.9.7v1.3l-.4.5-1.5.4-2.5 1.9.1 5.7.4 1 1.3.7.3 1.3-.8 1.9-.1 1.9 1.7 3.6-.1.5-1.8-.1-.3 2-2.1-.5.1 1.2 1.1 1.9-.3.6-1.8.4-.9 1.3.8.6h1.1l1.1 2.5 1.6 1.1-2.4 5.9.2.9 1.4.7.4.7-.4.9-1.5.6.5 2.7-2.1.6.5 4.6-.3.8-1.4.7 1.6 2.8-1.4-.2-4-1.1-7.2-3-3.9-.2-2.6.7-2.2-.3-1.1-1v-1l-1.2-1.6-1-3 .2-4-.5-4.4-2.8-4.7-2.8-2.1-4.8-.4-10.5 1.5-4-1.7-2.7-1.9-3.1-3.2-2.3-1.3-2.6.7-1 1.1-2.2 2.5-.6 1.2-2.1 2-3.4 2.5-4.2 2.2-7 2.6-1.3 1-1.6 3-1.6 8-1.5 4.2-.3 2.5-.4 2.6-1.2 1.2-4.5 2-2.9 4.9-.2 5.5.8 5.8-.6 1.5-1.4 1-2.4 3.5-3.1 7-.3 2.4.1 2.3 3.2 5.5 1.4 5.8.2 2.6-2 4.8-.2 1.6.6 1.3 1.8 1.9 1.9 3.8.6 2.3-.4 3-1.4 3 .4 2.5-.8.6.8 2-2.4 5 .5 4.6 2.6 3.6 3.9 3.1.9 3.3-1.6 4.7-8.6 1.5-.1.3-2 2.9 1.4 5.4 3.4 1.4 4.7.7 4.4-1.6 3.3-3.5 3.2-1.9 3.8 3.5 10.9 4.6h8l3.2 3.3-.5 7.3-1.8 2.8-.3.4-8.7.2-7.3 3-9 8.9-8.1 3.9-8.1 8.2-1.6 2.6-2.7 4-1.5 7.5.8 8.2-.7 3.5-3.4 6.6-3.9 4.9-3.3 6.7.5 4 1.9 3.2 2.8 2.2 4.3 1.2 7.8-1 7.2-1.8 17 1.2 3.6-1.9 2.4.5 11.1-1.7 2.5-1.5 9.4-10 5.6-2.4 5.7-4.2 6.1-5.4 2.7-1 11.4.2v3.5l-.1 10.3-.6 4-2.9 8.1-10.3 19-.9 4.1 2 4.3 7.7 10.3 1.3 2.9.9 4.2.2 3.1-2.3 8.9-6.5 10.1-.8 4.1.4 3.3 1.5 3.9v4.1l-3 2.7-6.5 4.3-4.6 10.1-.1 3.7.9 3.3-.9 4-3.3 1.2-2.6 3.1-1.5 4.2v8.1l-2.4 5.7-4.3 7.7-.9 4.4-2.6 2.4-5 9.8-4.3 21.4-1.2 3.5-2.4 3.4-.7 2.7 6 11.2.9 3.1-.6 2.4-3.8 4.3-1.1 3.4.6 3.9-3.3 7.3 5.4 23.9-13.3 19.2-3.6 14.2.5 15.5-5.1 10.2-.7 3.7.5 2.9-.5 4-3 12.3.5 14.6-2.2 2.8-3.1 2.3-2.6 3-3.6 8.4-1.8-.5-.8 1.7-.9.5-.8 1.9-2.3 2.3v.9l-1.4 1.9-1.5 1.2-4.4-5.1-2.2-4.3-.8-3.3-.7-5.7 1.6-5.4.8-5.4-.8-3.7-3.1-5.4.1-9.5-17.6-49.5.4-3-20.4-57.4-3.6-13.2-12-7.8-.4-6.2 3.5-10-7.4-8.8.5-10.9-5-20.7-15.2-31.9-9.9-28.8-14.2-47.2 7.7-5.8 7.7-6.6 1.9-3.5-.5-11.2 1.6-5.1 5.7-7.4 17.3-16.7 5-1.2 1.5-2.7v-3.9l-2.3-3.5-7.5-7 4.1-6.7 1.1-1-.4-.9.5-.7-.4.8.7.2 3-5.5 1.6-1.7 1.1-2.5.6.1 5.5-9.6 8.4-17.4-.8-1.5.6-2-.4 2.1 1 1.1-.3-.6.1-1.9 1.7.2.5-.7-.1-2 .7-.3 2.5-5.9 3.1-8.9 2.8-4.4 1.3-3 3.3-10.5 2.2-8.2.6-.4-.2-.7 1.3-.9 1.1-2.2 1.3-4.3-.3-1.2.6-.2.7-1.8-.2-.8.5.3 1.4-4.3 1.1-5.1.5-.3-.3-1.9.6-.3 1.4-5.3 3.7-12.1 1.2-6.2 1-3.2h.3l1-5.7-.3-.7.7-.5 1.6-7.4v-2.1l.6-.8.3-2.6-.3-.2 1.1-2.6.6-1.2-.5-.1.9-1.3 1.7-8.5-.4-1-2.1-.3 1.8-.1.3-.5.2.5h.6l-.4-.2.1-1.2h.6l.5-1.7-.5-1 .7-1.5-.1-1.2.9-1.7-.6-.4 1.4-3.8-.5-1.5 1.3-1.6-.6-.8 1.7-4.8-.4-1.2.8-2.7.4-5 1.2-4.1-.1-2.3.5-.6.6-7.2-.3-.9.8-2.2 1.1-.4.8-1.3.9-4.8 1.3-13-.3-1.1.6-.1-.3-3.8 1.8-1.2 1.1-.1 1.9-1 1.1 1 1.9 1-1.5-.5 2.2 2.2.2-.7.5.5-.1-.8h.3l1.1 2.2 1.4-.3v-.4l.8.5.1.9 1-.3-.7-1-.6-.1 3.4-2.1 4.2-7.4 1.9-7.7v-2.5l-.5-1-.7-.8-.5-.1-.2.7-.8-.1v-.4l.8-2.1 1.8-11.7 1.1-2.3.1-3 2.2-7.5.8-5.2-.1-2.8 13.1-.6 6.1 1.1 1.6-1.3 2-.7 6.4-.2 6.6-.9 3.4.8 2.9 5.5 1.6 1.9 2.6 1.5 1 .3 4.4-2 4.8-.3 1.2-.7 5.2-5 3.8.6 2.9-1.1 1-3.9 3.3-1.4.9-2 .3-4.5 1.1-5 2-4.2-.7-6.9 1.4-3.3 2.7-3 1.6-3.7.4-.4 1.2 1 4.1 5.8.7.2.6-.6 1.5-2.7 10.2-5.5 5.8-7.1 1.1-.4 4.3.4 2.6-.5 3.5-1.4 4.2-4 1.3-6.9 1.5-2.3 12.1-7.2.9.7.3 1.5-.6 2.6-1.9 2.9-3.4 4-1.5 3.8-.5 3.7.9 8.3-.3 1.4-2 3.4 4.9 5.3 1.8 5.1-.1 4.1-.7 1.6-2.1 2.8.4 2.2 5.1 1.4 3.6 5.3-.4 5.4zm-156.5 56.9l-1.1-.3 2.4-.3zm-1.3-.3l-.4-.1.5.1z"/></svg>