<svg version="1.0" width="1024" height="1024" xmlns="http://www.w3.org/2000/svg" viewBox="0 0 1024 1024" fill="#e83c4b" stroke-linecap="round"><path d="M830.626 169.127l.003.661-.483.267-.442-.17c-.26-.342-.53-.684-.85-.971.275-.596.065-1.354.081-1.99l.218-.352.266.305.14.885.267.043c.334-.217.819-1.39.958-1.814l-.176-.4c-2.144.273-3.214-1.121-5.173.55l-.216.442c-1.162-1.146-2.908-2.671-3.736-4.095l-.794.975-.26.043c-.757-.412-3.236-2.275-3.285-3.216 1.671.185 4.13.88 5.669 1.574.152.46.664 1.232 1.151 1.407.277.046 4.667-1.25 4.817-1.428.085-.227.111-.507.085-.747l.395-.4c.54.336 1.033.875 1.374 1.408.132.752.077 1.598.41 2.298 2.363.77.634 3.724-.419 4.725z"/><path d="M869.796 19.605l.457.56c.22.808.244 4.015-.774 4.39l-.267-.081-.064-.704.556-.987-.641-2.32.293-.671z"/><path d="M868.228 25.69l.431-.406.442.033.287.874-.794 1.786-.58-.16c-.103-.72.03-1.434.214-2.127z"/><path d="M832.325 122.395a17.88 17.88 0 012.481-.009l.885-.661c1.26-3.816-.923-4.221-.422-7.018l.443-.49c.552-.173 1.975-.375 2.305-.886l.393-.048.272.486c1.07-.816 3.897-2.773 4.508-3.766 1.083-.677 3.316.907 4.474.997 1.72.135 3.058-1.778 4.153-2.88 1.334-1.34 2.413-3.091 3.132-4.906-.1-.583-.646-1.321-.492-1.855l-.483-.31c-.193-.908.296-1.65.17-2.56-.435-.245-3.042-4.751-3.03-5.285a26.537 26.537 0 01-1.6-1.583c.156-1.41.856-2.074 2.031-2.747.594-.036 1.255.157 1.807.347.246.256 2.217 3.453 2.236 3.75.345.177.675.41.975.655l.091.928c-1.883 4.054-.292 3.15-.117 6.4.029.543-.353 1.239-.304 1.903.21 2.918 1.069 5.468.556 8.426-.233 1.345-.36 2.895-.7 4.197-.2.768-.95 1.382-1.191 2.345-.078.306-.187.692-.174 1.014.068 1.738.763 3.447.902 5.163l-.22.534-.574.132-.711.97c-.544-.064-1.08.12-1.679.006l-.443.266-.752 1.414c.516 3.067 4.57 4.745 3.743 8.069-1.476 1.44-4.41 2.29-5.44 3.685.494 5.783.601 3.749-3.076 7.423-.252 1.85.978 5.208-.96 6.32l-.086 1.103c1.807 2.809 1.554 2.941 1.568 6l-.618.49-.308.837c-.362.302-1.537.882-1.989.49.218-1.03-.92-2-.363-3.045l-.492-.57c-.38-.14-.948-.185-1.322.006-.849 1.08-1.145 2.004-1.807 3.093l-1.154.448c-1 .252-1.154.44-1.901.448l-.493-.485-.752-.177-.217.358c.336.586.672 1.01 1.158 1.45.108.304.174.648.18.971l.484.528.443.133.269.528-.088.485-.665-.304c-.577.037-1.092.33-1.546.667.102-.51-.037-1.392-.364-1.813l-.395-.261.175-.353c-1.341-.915-4.263-3.889-4.18-5.642.036-.748.267-1.593.17-2.341-.22-1.692-.967-3.972-1.477-5.647-.203-.357-3.49-2.231-4.473-3.253-.096-.4-.172-.82-.187-1.232l-1.152-1.365-.934-.043-.483-.442.125-.57c1.235-.603.903-2.326 1.1-3.361l.623.043.797-.4.126-1.856.351-.357c.162-.667-.18-1.35-.137-2.026l.486-.577c.672.018 1.56-.262 2.121-.624.083-.284.176-.577.31-.842l1.638.085.006 2.16.489.618 1.151.17c.671-.768 1-1.609 1.858-2.255l.085-.4-.534-.655c-1.047-.218-4.267-.358-4.698-1.403-.298-1.259.736-2.44.524-3.706l.26-.31c.91-.166 1.867-.404 2.795-.32l.568-.576c-.4-.345-.66-1.138-.755-1.632.421-.736.27-1.839.521-2.693z"/><path d="M812.247 172.023c.53.342.92.996 1.058 1.605l-.402.224-.398-.128c-.222-.563-.827-.703-.976-1.237l-.357-.043.307-.267c.204.012.616.025.768-.154z"/><path d="M786.644 173.298l.981.42c.329.355.524 1.09.182 1.499l-.358.225-.392-.225c-.199-.51-.597-1.025-.624-1.583z"/><path d="M792.857 176.566l-.885.224c-.59-.213-1.421-.509-2.035-.213l-.22.358c-.383-.038-.82-.148-1.151-.353-.176-.26-.275-.411-.358-.703 1.042-.528 4.251-.72 4.65.687z"/><path d="M796.853 176.076c.767.733 1.262 1.793 1.28 2.859l-.267.047c-.404-.412-1.608-2.528-1.013-2.906z"/><path d="M807.789 175.873c.425.777.328 1.571.257 2.41-.348-.05-.8.003-1.11.182.337 1.212.83 1.69-.123 2.826l-.835.091.035-1.06c-.31-.441-.574-1.008-.665-1.542l.132-.267c-.098-.472-.194-.958-.357-1.413 1.033-.12 1.564-.434 2.25-1.152z"/><path d="M815.475 165.095c-2.049 4.144 4.95 3.09 4.105 7.147-.444.062-1.454.132-1.86-.128l-.528.133c.075 3.367-.488 2.896 1.125 5.738l.618.219.486-.576.49.442c.085.776-.478 1.528-.437 2.384l-.618.491-.226-.486c-1.39-.488-2.132-1.167-2.308-2.73l-1.06-.747-.844.092-.132.394.489.443-.09.267c-3.12 1.712-1.342 1.99-2.822 4.158l-1.054.577c-.104.281-.265.71-.534.885l-.885-.304-.71.352c-.08 1.487-2.2 1.688-2.245 3.498l-.358.267c-.131-.377-.19-.798-.22-1.194-.386.006-.94.006-1.282.23-.534-1.081-1.672-3.14-2.54-4.011-1.486.236-2.17-1.485-3.062-2.336 1.804.225 3.244 1.608 4.662 2.724.13.437.328.925.623 1.28.384.185.855.294 1.28.305l.619-.31c.635-2.285 3.53-2.292 4.598-4.17-.013-1.042.193-2.389.833-3.226.714-.14 1.768-1.181 1.757-1.947l.534-.133c.246.274.422.734.401 1.104l.266.127.528-.175.225-.358-.182-.794.358-.443c.269.11.589.177.879.176l.175-.267c-.111-.84.054-1.578-.222-2.426l.393-.31.448.177.571-.224c-.282-2.09-1.823-2.822-3.333-4.01-.283-.624-.469-1.523-.399-2.209l.75-.618z"/><path d="M803.907 201.354c-1.214.52-3.011 1.178-4.336.72-.93-1.523-1.263-2.139-.805-3.93-.03-.275-.232-.584-.448-.748l.175-.842.888-.31 1.193.348c-.066.674-.123 1.277-.086 1.946l.534.085c.218.21.38.545.447.838 2.877-.469 1.77-1.392 2.517-2.171.191.25.518.44.796.57.166-.911.039-3.553.3-4.106l.357-.048c.078 1.334.836 2.318.893 3.574.057 1.235-1.08 2.037-1.133 3.343l-.005.107c.346.697.943 1.571 1.022 2.335-.013.115-.165.33-.308.267-.33-.788-1.31-1.49-2-1.979z"/><path d="M783.047 224.743c-1.145.54-2.15.657-3.184 1.472l-.045.928c.669.064 1.842-.743 2.347-1.205l.352-.042c.081.246.32.482.533.618l.445-.14.266.092.308.619.533.351.05.395-.357.576c-.577.008-1.293-.52-1.723-.39-1.135 1.747-1.937 2.042-3.313 3.365l-.662-.084c-.357.11-.717.36-.976.623l-.085.443.267.485.351.043.182.395-.266.4-.396-.352h-.398l-.085.752-.492.31-.261-.177c.126-1.544-.66-3.77-.458-5.386.37-2.94 2.851-2.786 4.278-4.699.725-.972.964-2.264 1.666-3.183.42-.206 2.006-.96 2.432-.939.383.502-.974 4.055-1.31 4.73z"/><path d="M755.469 249.935l.442-.133c.23-.187.425-.51.486-.8l.572-.048c.098-.404.23-.81.393-1.194-.314-1.025-1.109-2.687-.495-3.664 1.102 0 2.522-.081 3.588.288.401.552.832 1.08 1.28 1.595.58 1.644-2.3 3.827-3.252 4.96-.837.187-2.397.473-3.184.234l-.14-.619z"/><path d="M341.077 677.448l.665.458.078.796c-.177.34-.708.654-1.08.704-.322.024-.797-.371-.996-.582a3.55 3.55 0 01.087-1.045c.349-.197.837-.373 1.246-.33z"/><path d="M407.815 745.336l-.484.047c-.514-.863-.72-1.522-.56-2.506.542-3.326 2.933 1.004 1.044 2.459z"/><path d="M188.812 995.712l.24.198.135.539c-.068.268-.66.578-.882.687l-.229-.133-.032-.8z"/><path d="M780.704 195.42s1.422 3.047 2.641 1.422c1.22-1.626-2.641-1.423-2.641-1.423z"/><path d="M789.644 205.172c-1.626.203-1.422 3.86.203 3.657 1.625-.203 1.422-3.86-.203-3.657z"/><path d="M798.787 207c-.406.813 2.235 3.048 3.25 1.626 1.017-1.422-2.844-2.438-3.25-1.625z"/><path d="M389.345 552.86l.563.79c.599.036 1.399.34 1.859.731.199.615.199 1.525 0 2.14l-.733.676c-.656.132-1.428.156-2.083 0-1.04-.8-1.583-2.257-1.41-3.548.563-.014 1.42-.371 1.804-.789z"/><path d="M392.221 546.516c-1.219 0-2.031 2.439-.203 2.439 1.829 0 1.422-2.439.203-2.439z"/><path d="M309.933 1007.738c2.032.812 3.657-3.657 1.625-4.47-2.031-.813-3.657 3.657-1.625 4.47z"/></svg>