<svg version="1.1" id="svg20" width="1024" height="1024" xmlns="http://www.w3.org/2000/svg" viewBox="0 0 1024 1024" fill="#e83c4b" stroke-linecap="round"><defs id="defs11"><style type="text/css" id="style9"/></defs><g id="g18"><path id="RW-01" d="M668.94 450.632l-12.28-8.73-12.97-8.62-6.51-3.83-3.07-1.38-1.99 5.14-2.73 6.7-2.15 2.76-3.74-.57-9.64 1.71-7.97 3.58-2.19 2.89-4.27 4.92-5.17 3.05-4.84-3.25-5.24-3.42-3.78 1.3-2.99 4.76-3.23 5.37-1.75 3.99 2.15 5.98 1.55 4.72-1.47 1.14-1.03.41-.21.5.8 1.33 1.18 3.35 1.05 2.99.82 1.31 1.14 1.54 1.17 2.44 1.18 2.97 1.14 2.85-.67 1.73-.12.73-.06 1.51-.29 2.5-.75 2.48-1.34 2.03 3.72 5.86 2.56 6.07-1.79 3.01-1.38 1.5-3.19 1.28-2.89 2.93-.75 3.81 2.4 4.78 3.37 2.09 1.71.25 2.24.73 2.48.77.93.71 1.79-1.52 3.78-1.67 2.44-1.34 2.06-2.16 2.82-.77 1.42 1.69 1.83 2.42 3.38.36 2.42-.3 1.1-.35 1.32-.32 2.34-.45 2.58-.57 2.27-.71 3.54-.75 3.17-.29 1.14-.04 1.34-.24.96-1.47 2.36-2.01 2.74-2.02 2.26-1.18 4.21-1.83 4.78-1.69 4.81 1.37 4.15 5.45 2.66 4.09 2.99 3.74 2.56 3.56 2.67-3.78 3.11-7.12 2.6-14.2 1.18-14.2.24-4.56 2.14-2.44 5.67-2.4 5.37-2.56 1.85-3.32.14-7.73-.81-6.45-2.32-2.34-2.44-2.99.26-5.43-1.5-5.67-2.68-3.83-.51-2.09-2.89-.43z"/><path id="RW-03" d="M512.22 248.802l-3.49-.52-3.42 1.01-3.63 2.28-3.56 4.23-2.36 7.77-3.25 1.91-2.73-.97-8.37-5.09-4.68-1.06-9.55 1.71-6.59 3.42-6.08 4.39-8.11 4.56-7.32 1.99-8.26.61-15.81-.85-15.45 5.49-15.7 11.3-13.54 14.12-7.58 11.94 1.71 2.44 7.04 9.58 9.49 11.15 8.48 2.92 7.44 2.36 3.21-.08 2.6-1.04 1.57.96 2.09.65 6.39 2.99 7.29 3.62 7.95-.45 7.73.55 1.62 11.92.55 16.13-.16 11.41-.49 8.58 4.9 5.9 4.23 3.21 2.34-.71 4.49-.63 4.39.82 6.47 4.29 7.38 2.7 4.92-.91 3.03.49 1.4 3.64 4.05 6.3 5.24 7.81 4.64 7.16 5.49 5.21 1.97 5.65 7.46 4.76 10.75 3.66 7.59-.08 7.8-1.42 6.87.16 4.76 1.43 2.71 1.95 3.13 1.63 2.9 1.97 2.48 2.34 3.22 3.21 3.78 4.07 3.82 2.6 3.13.61 1.04.7 1.03-.41 1.47-1.14-1.55-4.72-2.15-5.98 1.75-3.99 3.23-5.37 2.99-4.76 3.78-1.3 5.24 3.42 4.84 3.25 5.17-3.05 4.27-4.92 2.19-2.89 7.97-3.58 9.64-1.71 3.74.57 2.15-2.76 2.73-6.7 1.99-5.14 3.07 1.38 6.51 3.83 12.97 8.62 12.28 8.73 6.44 2.13 2.89.43 1.56-1.14 2.79-2.95 3.37-2.32 2.24-1.34-.12-6-3.05-12.08-4.07-13.51-1.4-8.26 1.5-4.37 1.32-4.51-2.31-5.29-5.61-6.08-7.65-9.5-7.13-9.28-5.13-5.41-3.88-6.99-3.03-8.02-1.65-8.8 2.08-6.61 3.13-2.81.16-1.81-2.15-1.16h-3.85l-4.69 1.65-3.56 1.08-.29-3.62-.99-6.06-1.67-3.7-3.39-7.41-3.44-6.4-4.39-6.63-4.96-8.3-2.56-2.05-2.18-2.97-1.24-4.01-2.21-1.75-1.14-.3-1.65-.86h-.01l-2.05 1.09-5.12 5.29-3.58 8.58-4.06.86-26.72 14.8-8.64 3.22-8.27.89-7.69-2.2-6.75-6.3-3.82-8.34-.93-16.19-1.75-8.25-11.06-16.07-4.31-2.19z"/><path id="RW-02" d="M756.37 144.452l-5.35.73-5.16 2.32-6.18 1.55-6.63-.86-6.71-1.95-6.5-.98-6.02 2.16-3.31 5.61-2.54 16.27-2.04 5.98-2.4 1.99-6.58 2.97-1.43 1.17-1.34 1.11-1.14 2.35-.87 5.66-.75 2.6-4.23 7.12-5.15 6.59-17.5 16.63-6.08 3.62-2.91.85-3.13.25-3.13.53-3.09 1.83-2.8 5.36-2.4 15.26-2.04 5.97-4.26 3.99-16.07 6.26-11.61 6.23h.01l1.65.86 1.14.3 2.21 1.75 1.24 4.01 2.18 2.97 2.56 2.05 4.96 8.3 4.39 6.63 3.44 6.4 3.39 7.41 1.67 3.7.99 6.06.29 3.62 3.56-1.08 4.69-1.65h3.85l2.15 1.16-.16 1.81-3.13 2.81-2.08 6.61 1.65 8.8 3.03 8.02 3.88 6.99 5.13 5.41 7.13 9.28 7.65 9.5 5.61 6.08 2.31 5.29-1.32 4.51-1.5 4.37 1.4 8.26 4.07 13.51 3.05 12.08.12 6-2.24 1.34-3.37 2.32-2.79 2.95-1.56 1.14.51 2.09 2.68 3.83 1.5 5.67-.26 5.43 2.44 2.99 2.32 2.34.81 6.45-.14 7.73-1.85 3.32-5.37 2.56-5.67 2.4-2.14 2.44-.24 4.56-1.18 14.2-2.6 14.2-3.11 7.12-2.67 3.78-2.56-3.56-2.99-3.74-2.66-4.09-4.15-5.45-4.81-1.37-4.78 1.69-4.21 1.83-2.26 1.18-2.74 2.02-2.36 2.01-.96 1.47-1.34.24-1.14.04-3.17.29-3.54.75-2.27.71-2.58.57-2.34.45-1.32.32-1.1.35-2.42.3-3.38-.36-1.83-2.42-1.42-1.69-2.82.77-2.06 2.16-2.44 1.34-3.78 1.67-1.79 1.52-.47 3.81-.02 7.14-.04 4.54-2.6 4.78-5.85 6.41-4.23 8.17.65 13.07-2.18 19.32-4.69 13.67-.21.62-.14.73-1.4 7.38-.94 7.55-.45.97-.52 1.13-.93 1.07.68.59 6.93 5.96 3.05.45 3.32-.33 3.78.13 4.49 1.58 4.8 3.71 12.2 14.44 6.46 5.66 8.21 5.45 9.03 3.5 8.78-.28 6.71-4.64 17.77-22.3.81-2.77.21-3.7 1.4-2.65 4.57.45 12.28 5.98 4.88 1.1 6.35-.28 7.52-1.55 7.4-2.4 5.65-2.89 5.06-4.68 1.81-2.38 1.63-2.14 3.84-3.58 6.32-1.87 1.91.98 12.45 2.97 1.34-.49 1.87 2.16 2.03 5.53 2.26 3.09 21.36 17.54 13.1 6.15 12.93.49 7.6-4.48 8.38 1.06 8.54 2.44 8.23-.45 4.41-3.7 5.61-10.58 4.52-3.54 5.08-.69 4.23 1.34 20.53 10.13 3.21.77 3.58-.97 2.85-1.63 5.49-1.34 6.07-3.5 6.61-2.93 5.12-3.71 4.07-7.36 1.67-8.02-1.67-26.94 3.42-17.33 13.54-43.82-3.3-11.44-4.21-5.69-5.99-6.02-7.1-3.54-7.36 1.58 5.19-22.9-1.18-10.42-11.79-1.87 1.95-3.17 2.4-2.56 6.38-5.01-3.01-7.04 2.22-6.06 4-5.9 2.16-6.67-3.13-15.78-1.39-4.15 4.52-10.82-.98-3.62-3.5-5.37-.89-2.04.12-4.23 5.08-31.03.33-10.13-2.87-8.34-9.35 3.58-6.16-4.84-3.78-8.87-3.82-14.16-1.75-3.01-4.88-5.2-6.51-8.71-2.33-5.12 2.09-2.28 1.22-4.64.73-10.24-2.23-10.29-7.65-4.64-7.72-1.1-25.99-9.64-3.61-2.2-5.9-5.61-4.15-2.93-11.59-4.8-5.08-3.82-2.11-6.3.4-2.93.94-2.32.89-1.71.39-1.22-.79-3.21-3.66-4.76-2.32-8.01-7.16-11.88-2.39-5.73-1.55-10.17-1.67-2.44-4.84-3.5-1.62.45-2.56 1.38-3.13.49-3.46-2.32-.65-2.35 1.06-2.36 1.48-2.24.83-2.32-1.3-5.37-5.73-3.94-1.3-4.23 1.24-4.43 3.03-4.31 3.12-3.27-4.31-1.34z"/><path id="RW-04" d="M371.49 329.062l-7.04-9.58-1.71-2.44-1.32 2.09-.82.85-.87.57-.98.25-30.06 1.22-6.18 2.6-4.56 5.86-10.77 22.21-3.99 5.16-18.99 15.74-4.75 6.96-8.3 15.74-10.07 16.13-14.69 23.49-7.4 17.33-1.95 14.08.85 14.4 10.45 61.8.81 14.16-2.27 16.44-6.18 18.64-9.84 15.34-13.54 10.7-17.51 4.64-11.32-.37-3.33 1.18-4.05 3.78-.47 3.42-1.34 4.23-2.97 5.86-4.55 7.13-5.59 5.69-6.81 4.03-8.22 2.4-10.57 3.67-5.53 4.76-2.95 10.33.8 8.43 1.46 7.81 3.99 7.12 1.38 4.81-6.83 6.1-1.43 5.17 1.47 5.05 3.49 2.4 4.42 2.11 4.04 4.12 2.64 9.15-2.64 30.08 3.05 3.14 14.68 9.6 5.24 2.08 11.76 1.26 8.07 3.99 5.99 6.72 6.77-39.41 8.93-8.75 22.89-1.5 6.4.93 23.89 10.42 8.79 2.69 16.6 2.08 8.32 1.99 7.2 4.11 4.79 3.58.29 1.84-.51 4.64 1.35 5.33 7.44-3.92 1.97-.59 3.6-1.9 5.55-9.91 1.3-14.2-4.6-6.76-1.97-2.95-.53-2.77.47-3.64.75-3.85-1.62-2.46-1.95-3.87-2.97-3.92-2.36-4.91-.85-5.98-3.26-4.38-5.28-2.42-7.32-2.3-4.76-2.58-.37-2.65 1.79-5.17 3.42-5 8.29-4.44 8.08-4.43 1.6-3.59-1.18-4.43-1.16-3.7 3.32-5.32 3.94-6.24.33-3.62-2.69-5.5-2.6-6.47 1.06-5.33 3.98-4.76 5.96-3.05 5.83-.9 4.44 1.35 5-2.26 7.32-5.52 7.95-1.3 6.81-.16 4.65-.21 2.4.35 5.73-5.96 9.78-7.65 5.25-2.93 4.29-3.78 5.02-3.14 2.28-2.4 1.62-2.32 2.12.75 2.48.96 2.88-1.14 3.22-.93 2.7-1.53 4.21-2.54 3.21-1.71-.14-5.39-1.47-5.44-1.15-2.44.42-4 3.6-6.62 2.24-5.45.02-2.93 1.44-2.48.98-1.91 1.93-2.77 2.72-4.19.63-3.66.33-3.42.44-3.3-1.15-2.64-1.39-4.41.39-8.32-1.4-8.67-1.77-3.97h4l5.92.27 4.55-1.45 3.6-3.23.92-4.13-1.75-3.21-1.51-4.4-.1-4.37 1.53-3.05 2.03-5.05-1.1-10.45-1.87-9.69.12-4.76 1.3-4.55 1.08-10.96-1.32-13.23-1.5-7.14-1.14-3.98-1.02-1.43-4.23-3.21-4.9-5.9.49-8.58.16-11.41-.55-16.13-1.62-11.92-7.73-.55-7.95.45-7.29-3.62-6.39-2.99-2.09-.65-1.57-.96-2.6 1.04-3.21.08-7.44-2.36-8.48-2.92z"/><path id="RW-05" d="M385.98 840.492l7.48-2.52 7.36-4.68 8.62-1.14 4.06.16 3.13-1.22 2.93-1.79 11.71-4.24 2.81.17 4.21 1.39 16.36 5.41 7.42 1.14 8.81-1.1 3.82-2.32 1.7-3.67 1.31-8.26 2.92-3.66 4.52-.05 8.78 2.65 9.78.29 7.95-1.51 7.4-4.36 8.05-8.18 5.24-7.12 4.8-8.14 3.74-8.59 2.12-8.67.18-4.39 1.65-40.38 8.51-29.76-2.82-30.27 2.56-20.15-.04-3.66 1.14-2.2 4.02-.12 3.15 1.79 2.7 2.32.93-1.07.52-1.13.45-.97.94-7.55 1.4-7.38.14-.73.21-.62 4.69-13.67 2.18-19.32-.65-13.07 4.23-8.17 5.85-6.41 2.6-4.78.04-4.54.02-7.14.47-3.81-.93-.71-2.48-.77-2.24-.73-1.71-.25-3.37-2.09-2.4-4.78.75-3.81 2.89-2.93 3.19-1.28 1.38-1.5 1.79-3.01-2.56-6.07-3.72-5.86 1.34-2.03.75-2.48.29-2.5.06-1.51.12-.73.67-1.73-1.14-2.85-1.18-2.97-1.17-2.44-1.14-1.54-.82-1.31-1.05-2.99-1.18-3.35-.8-1.33.21-.5-1.04-.7-3.13-.61-3.82-2.6-3.78-4.07-3.22-3.21-2.48-2.34-2.9-1.97-3.13-1.63-2.71-1.95-4.76-1.43-6.87-.16-7.8 1.42-7.59.08-10.75-3.66-7.46-4.76-1.97-5.65-5.49-5.21-4.64-7.16-5.24-7.81-4.05-6.3-1.4-3.64-3.03-.49-4.92.91-7.38-2.7-6.47-4.29-4.39-.82-4.49.63-2.34.71 1.02 1.43 1.14 3.98 1.5 7.14 1.32 13.23-1.08 10.96-1.3 4.55-.12 4.76 1.87 9.69 1.1 10.45-2.03 5.05-1.53 3.05.1 4.37 1.51 4.4 1.75 3.21-.92 4.13-3.6 3.23-4.55 1.45-5.92-.27h-4l1.77 3.97 1.4 8.67-.39 8.32 1.39 4.41 1.15 2.64-.44 3.3-.33 3.42-.63 3.66-2.72 4.19-1.93 2.77-.98 1.91-1.44 2.48-.02 2.93-2.24 5.45-3.6 6.62-.42 4 1.15 2.44 1.47 5.44.14 5.39-3.21 1.71-4.21 2.54-2.7 1.53-3.22.93-2.88 1.14-2.48-.96-2.12-.75-1.62 2.32-2.28 2.4-5.02 3.14-4.29 3.78-5.25 2.93-9.78 7.65-5.73 5.96-2.4-.35-4.65.21-6.81.16-7.95 1.3-7.32 5.52-5 2.26-4.44-1.35-5.83.9-5.96 3.05-3.98 4.76-1.06 5.33 2.6 6.47 2.69 5.5-.33 3.62-3.94 6.24-3.32 5.32 1.16 3.7 1.18 4.43-1.6 3.59-8.08 4.43-8.29 4.44-3.42 5-1.79 5.17.37 2.65 4.76 2.58 7.32 2.3 5.28 2.42 3.26 4.38.85 5.98 2.36 4.91 2.97 3.92 1.95 3.87 1.62 2.46-.75 3.85-.47 3.64.53 2.77 1.97 2.95 4.6 6.76-1.3 14.2-5.55 9.91-3.6 1.9-1.97.59-7.44 3.92.09.36 8.54 8.02 2.4 4.89-.85 4.48-5.45 6.67-1.34 4.11.89 4.56 3.66 8.18.47 4.93 3.48 7.49 9.67-.89 16.98-7.37 7.05-.82 7.6 1.42 14.24 2.65z"/></g></svg>