<svg version="1.1" id="svg17" width="1024" height="1024" xmlns="http://www.w3.org/2000/svg" viewBox="0 0 1024 1024" fill="#e83c4b" stroke-linecap="round"><defs id="defs11"><style type="text/css" id="style9"/></defs><g id="g15" transform="translate(5.474 -320.334) scale(1.6563)"><path id="SJ-JN" d="M9.468 785.72h-.5l-.695-.085-.278.17-.304.255-.418.171-.473.171-.572.057-.13.348-.222.255-.597.383-.681 1.231-.5.679-.319.128-.257.826-.5.084h-.334l-.396.657-.493.697-.639.253-.604-.19.014-.55-.542-.805.028-.381.243-.19h.694l.257-.912.604-.7.833-.765.806-.255.639-.255 1.139-.511.25-.426.472-.256.59-.49.465-.532.908-.053.017-.438.194-.598.167-.513.431-.47.014-.728.521-.706.34-.493.708-.386.202-.665.306-.257.854-.365-.625-.859-.027-.302.632-.021.167-.603.639-.258.723.086.222-.345.327.194.285.409.604.623.285.323.271.451v.815l-.25.687-.215-.064-.243.279.181.214-.319.729-.056.899.208.384.167.685-.167.555-.799.704-1.639.427-.945.085-.778.512h-.89z"/><path id="SJ-SV" d="M395.273 229.047l.132.216.306-.173.334.346.409.043-.354.129v.519l-.416.172-.195.518-.576-.216.098-.432-.153-.518.271-.735zm4.21 6.03l-.209.086-.284.986-.521-.558.153-.601-.319-.429.125-.43-.16-1.075-.439-.011.134.527h-.278l-.277-.516-.361.172-.111.344-.417-.172.216-.301-.431-.602-.035-.302v-.345l-.465-.474.076-.216.583-.172.084-.691.111.345.354.216.035.647h.917l.111.172-.049.301.431.603.389.86.091-.043.25-.344.333-.517.195.172.333-.172.111-.344.417.172.139.86.277.172.306-.172.111.172-.139.516h-.278l-.277-.172-.278-.516h-.306l-.354.646.486.515-.688.386zm5.488-1.373l.354.558.438.043-.271.301-.285.3-.208.171.132.214h.389l.223.343.083.857-.222.171-1.223.171-.167-.171h-.5l-.056.171h-.528l.167.514-.528.171-.222-.685h-.389l-.133-.214.104-.471-.354-.215-.063-1.329.223-.172h.861l.473-.172h.75l.167.344h.277l.194-1.031zm-8.649 5.524l-.944-.17-.611-1.026h-.223l-.223-.342-.055-.513.917.342.055-.685h.361l.445-.171h.75l.222.685h.445l.111-.342h.639l.167.342h.222l.278.854h-.278l-.166-.342h-.306l.132.555-.111.428-.604.213.021.469.063.554.056.17.41.042-.076.298-.201.128-.216.554-.521-.895-.369-.298.049-.299-.354-.213zm-8.468 8.108l.597 1.097.035.295.41.38.111.758-.188.547-.306.336-.445.336.021.463-.188.042-.528.503h-.778l-.167-.335-.5-.168-.201-1.051-.069-.758.056-.673.743.295.389-.168-.056-.337h.528l-.167-.675-.243-.042v-.591l.243-.211h.5zm-7.835 21.655l.188.534.639.984.854 1.188.313.777.528.327.778.164h.583l.278-.327h.444v.327l.306-.164-.083-.817h-.39l-.556-.327.021-.287-.291-.41.041-.738.202-.533.166-.492.834-.494.326-.534-.048-.453-.223-.329-.5-.165-.188-.535.132-.454.257-.289.431-.33-1.16-.701-.076-.455.188-.537h.333l.445-.332.277-.166h.334l.465-.124-.271-.372h-.306l-.444.166-.167-.331h-.278l-.166.497-.299-.125.111-.331.132-.373.188-.041.034-.622h1.334l.056-.332-.223-.333h-.222l-.111-.332h.333l.278-.332h.611l.09-.125.021-.208-.194-.332-.278.166-.611-.333-.111.333-.389.166h-.278l-.632-.706-.535-.291h-.389l-.223.166-.556.167-.833.166-.778-.166-.354-1.041.153-.583-.432-1.083.209-1.169-.209-.92.306-1.34.716-.377.16.294.09.544.278.503.368.293.465.711h.557l.076.459-.104.71.111.333.778.333.222.667.299-.042-.583-2.254-.376-.25-.146-.46-.223-.334-.222-.334-.41-.88-.056-.42.209-.167-.265-.587.056-1.261.264-.757-.097-.253.326-.042.167.337.5.168.111.504.333.504.577.546-.382.798h.583l.194-.168.271.377-.125.42.299.712h.444l.027-.503h1.001l.444-.838h.444l.223.335-.076.964-.424.209-.077.293.792 2.006-.11.25.201.292.382.375-.132.458-.354.125.319.416.368.625.501-.167.277-1.333.723-.167h.778l.306-.167h.444l-.049.292.243.375.389.167.39.167.146.792.292.416.111.665.083.664.091.623v.333l.75.331.465.704-.215.621.132.537-.167.579-.514.413-.167.578.466-.124.604.701.277.66.084.659-.077.453.695.165.694-.494.223-.658.556-.66.444-.33.556.165-.167.33.195.33-.021.371.028.823.041.412-.291.822.271 1.518-.271.779.458.899-.056.654.174 1.103.25.164h.778l.056-.654h.277l.473.164.285-.694.132-.449.465.041.008.776.916.49h.501l.59-.368.077-.286.5-.49.277-.327.445-.327.09-.287.326-.368.133.041.313.287.326.286-.743.205-.076.286.235.164-.139.817-.208.163.132.205h.583l.473-.327.035-.612-.028-.245.104-.777.354-.532-.209-.411.459-.737-.181-.41.188-.533.806.328.389.656.118.451.348.246.201.287.084.492.361.327.389.327.361.164.382-.614-.083-.655-.167-.491-.264-.984-.084-.657.188-.205.278.329.223.164.11-.493v-.165l.667-.164.063.452.354.206.466 1.025.027.902-.027.41-.028.573-.166.491-.181.49.235.571.174.286.077.449-.104.204-.25-.163-.327.367-.09.448.007.203.021.448-.688.041-.402.733-.348.975.319.812-.299.041-.465.284.132.203.667-.162h.944l.611-.325h.278l-.077.446.236.081.702 1.094.027.647h1.223l.056-.162.39-.162h.277l-.326.607.291.404-.069.727.216.363.306.484.271.444.063.523-.222.322.007.443.382.362.229.121.208.241-.139.321-.076.282-.695-.482-.104.121.521.844h.361l.104.201-.431.401.354.841.494.2.117.441.494.52-.209.24-.174.52.584.16.583-.16.299-.28-.049-.2-.159-.44.264-.24.111-.32-.326-.602-.216-.04.271-.762.528.161-.083.481.473.16.527.642.556.16h.278l.271-.681-1.049-1.243h-.361l-.104-.201.32-.482-.125-.563.271-.684.139-.322h.64l.243-.201-.216-.443-.527-.322-.417.161-.132-.283.159-.362.584.161.243-.282-.327-.202-.25-.484-.944-.162-.299-.283.16-.363.415.321.446.002.243-.202-.077-.445-.055-.647-.383-.526-.056-.729-.166-1.217-.056-1.219.159-.366.258-.286.389-.977.41-.204.215-.529-.431-.98.216-.613.354-.858-.188-.45-.052-.491-.159-.532-.042-.902v-.739l-.125-.576.41-.205.194-.494 1.278-.329.104-.206-.077-.453-.118-.454-.215-.371h-.528l-.861-.33-.361-.661-.604-.372-.583-1.489-.028-.828-.222-1.161.181-.498-.069-1.58.076-.208h.527l.557-1.5.472-.333 1.111-.333h.807l.25.5h.222l.104.292-.208.167.264.916-.125.417.152.833-.132.374-.146.706-.236.748.348.249-.181.497-.195.58.16.538.361.331.399.02.435.807.416.661h.445l-.056-.496-.417-.992-.799-.703.403-.662-.07-.747.459-1.079.229-.291.694-.831.438-1.54-.277-1 .007-.46.188-.042.027-.584-.236-.167.028-.417.125-.418-.653-1.256-.027-.419-.223-1.09.208-.589-.326-.546-.104-.463.383-.715.306.842.174.21.048.462.354.21.201-.042.133.042-.042.253.292.419-.125.42.458.419.341.629h.277l.076-.209-.159-.629-.688-.545.298-.126.528.335.473.671.527.168.195.67h.889l-.021.294.41.711.527-.167.5-.167.306.502.216.376-.181.501.104.292h.444l.306-.501.159.543-.326.459-.473.334.167.167h.528l-.035.292-.354.042-.09.625-.354.042-.25.666-.424.625-.486.748.216.457h.389l.382.373-.159.457-.493.373.188.953h.611l.166.166.202.538.125.58.007.372-.361.33.194.661.139.33-.36.33.063.454.375.576-.16.453-.215.535.041.74-.083.657-.521.041-.306.164h-.75l-.361.492-.389.164-.586.646.132.942-.152.818-.137 1.057-.086.657.181.408-.326.367-.389-.163-.271.204.403.163-.236 2.359.521.853.466.203-.027.486-.16.607.611-.162-.028.324-.11.162.027.485h.278l.11-.323.528.162-.188.202.027.405.327.363.354-.525.056-.485-.292-.486.125-.38-.515-1.078-.284-.447-.194-.325-.299-.528.243-.284.527.163.361.649h.695l.333.649.444.487.194.324.299-.041-.604-1.095-.416-.649-.243-.365.291-.407-.354-.692h.277l.556.489.341.285.215.366.118.447.25 1.785.633.526.215-.202-.069-1.541-.035-.527-.048-.447.181-.487-.195-.325-.409-.692-.695-.814v-.163l-.333-.815h.277l.557.653.083.489h.611l.132-.448-.16-.367h.445l.632.53-.027.57-.292.244-.028.57.056.651.438 1.015.584.325v.649l.083.486-.493.365-.007.607.361.324h.75l.084-.647.556-.162.299-.688-.403-.974.111-.731.41-.203.277-1.139.466.041.007.611h.583l.41-.203.194-.489-.159-.937-.493-.204-.098-1.054-.348-.252-.125-1.389-.291-.409.326-.45.167.164.563.041.132.287h.417l.159-.368-.104-.288-.195-.327-.277-.164-.417-.164-.465.123-.056-.738.291-.246.028-.575-.181-.329.243-1.356h.25l.473.494.299.534.208 1.232.382.369.188-.205-.097-.575.243-.369.416.493h.39l1.028.82.277-.82-.361-.329-.166.165-.528-.165-.382-.37.104-.288.41-.205-.598-1.316.14-.412.298-.536.354.536.424.453.194.658.618.781.91 1.191.084.492.444.492.584-.328.132-.369-.111-.575-.431-.41-.007-.288-.445-.822-.034-.535-.021-.782.583.165h.5l.306.33.25.494.556.329-.048.288.243.206.465-.699-.348-.329.126-.412-.216-.371-.473-.166-.139-.33h-.389l-.077-.784.466-.041.132.289.063.371h.75l.528.495.132-.124-.292-.412.028-.604-.396-.014-.556-.496h-.722l-.306-.331-1.057-.33-.527-.332-.361-.331.139-.497.028-.497h.527l.334-.829.222-.167h1.111l1.528.333.14.331h.389l.361-.331h.25l.049.456.007.207.215.373-.125.414.417.993.41.702h.333l.132.207-.632.784-.59.289-.292.331-.091.371h-.277l-.194.494-.41.206.104.288.277-.165.104.206-.486.822.056.74.347.246.063.779h.278l.194-.492.118-.287.292-.246.257-.123.694-.165-.021-.781.493-1.192.466.041-.104.453h.945l.222-.165.299-.699-.042-1.072.181-.413-.027-.413.201-.372.049-.621-.188-.372-.243-.041-.091-1.118-.472-.166-.133-.29.438-.207h.944l-.083.331-.183.032-.005.424.958.414.195.662.027.331-.181.827.181.413-.348.825.084.989-.028.823.348.329-.16.37-.215.041-.146.781.306.984.216.041.007.451h-.333l-.083.322 1.167-.164.278-.328 1.25-.164.063-.615.375-.41-.181-.329.104-.288.556.494.139.328h.278l.111-.328.417-.165.139-.329.778-.657.194.493h1.167l-.083.329-.466.78.382.041.139.328.473.164-.083.328h-.25l-.584-.492h-.277l-.473.492-.25-.82-.417-.164-.604.369.104.287.639.164.14.328.215.041-.264.656.111.491.271.123.611.164.076-.287-.514-.655.104-.205.639-.328.271.041-.347.491.188.451h.277l.361.164-.049.286.271.205.277.164.584.163.973-.327.778.49-.084.327-.417-.163-.104.204.382.449.438-.368.146-.613h.777l.194-.49h.278l.271.531-.347.49.104.286 1.084-.163.139.327h.861l.216.368-.382.123-.368.041-.327.123-.215.041.027.408.466.204.361.652-.334.163-.139.326h-.25l-.333-.326-.188.204.104.286 1.028.65.188-.285-.319-.244.076-.286.694.164.14.325.396.122.354-.122h.333l.104-.203-.382-.122.083-.326h.417l.139.163h.528l.277-.326h.278l.306.326h1.417l.778.164h.611l.667.163 1.139.325 1.445.325.444.163.417.162.723.487h1l.417 1.136.444.162.501.972.409.688.341.93.521 1.009-.291.323.104.282 1.528-.484.917.162.917.484.382 2.053-.298.683h-.361l-.361.803-.118.281-.223.802-.243.521-.034.76-.14.64.111.719-.125.399.348 1.275-.223.478-.736 1.511.264.477-.041 1.191.771 1.465.633.515-.015 1.501-.055.395-.084.553.319.631-.055.472-.223.472-.16.354-.389.158-.361.786-.444.628-.063.432-.348.392-.174.118-.299.196.077.588-.306.156-.25-.47h-.251l-.271.196.076.587-.472.313-.39-.313h-.417l-.361.469-.118.274-.326.352-.222-.313h-.584l-.444.313-.16.352-.174.43-.354.351-.069.858-.264.546.181.701-.216 1.127h-.611l-.194.777-.833.466-.723.155-.111.62-.549.504-.285.271-.243.193-.146.735-.639.31-.229.58-.104.193-.277.31-.556.154-.334.463-.694.309-.473.154-.194.462-.75.308-.278.617h-.25l-.389-.308-.611.308-.111.308-1.001.154-.416.615-.89.614-.549.5-.201.882-.285.269-.181.383.265.766-.098.995.299.497.167.305.75.458.271.496.111 2.209-.625.684-.056.228-.139.228-.32 1.139-.159.341-.361.455-.771.341-.194.454-.229.568-.611.302-.583 1.057-1.195 1.659h-.444l-.639.603-.556.452-1.167.602-1.64-.301h-1.557l-.723.301-.527.15-.473.45-.694-.15-.445.3-.166.45-.667.15-.861.601-.806.15-.056.45h-1.807l-.5.149-.528.599-.389.149-.473.449-.667.897-.527.149-.778.448-.528.597-.215 1.23.014.67-.688 1.672-.444.742h-3.113l-1.528-.148h-.584l-.361-.148-.611-.296-.556.148-.361-.445-1.556-.297-.139-.297-.278-.446-1-.596-.139-.149-1.362-.149h-.889l-.667-.148-.5-.596h-.501l-.242-.187-.174-.261-.132-.485.014-.522-.403-.373-.417-.896-.014-.823.139-.674.348-1.275.326-.488.223-.15.667-.15.354-.563-.431-.375-.229-.565-1.334-.301-.111-.301-.139-.15h-1.14l-.11.301-.361.15-.361-.15h-.334l-.472.15-.5-.904h-.723l-.361.603-.528.151h-.528l-.166-.301h-.39l-.076.264-.257.188-.174.038h-.444l-.076.264h-.25l-.251-.301-.36.15-.251.151-.306.15h-.444l-.389-.15-.223.15-.389.602h-.444l-.251.301h-.611l-.722.3-.111.3-.306.451-.299-.338-.396-.113-.39-.45-.694.15-.695-.902-.666-.301-1.001-.452h-1.084l-.556-.15-.583-.301-.667.301-1.223.301-.667.301-1.056.452-.806.15-.417.301h-.834l-.861-.451h-.556l-.611-.15-.417-.151-.354-.338-.055-.376.389-1.055.299-.038.354-.491-.195-.831-.215-.038-.584-.453-.5-.302-.611-.757-.694-.151h-1.417l-.5-.605-1.307-.303-.694-.455h-.5l-.167-.303-.278-.456h-.361l-.576-.266-.229.114-.416.152-.557-.152-.409-.645-.056-.38-.118-.342-.16-.495-.034-.724-.41-.647-.396-.572-.39-.152-.778-.458-.639-.764-.667-.765.076-.421-.271-.651-.417.153-.444-.459v-.153l.25-.307.09-.191.07-.384-.431-.384.097-.385-.438-.345-.216-.346.14-.538.493-.963 1.64-.308.944-.462.646-.039.521-.27.64.154 1.528.154.666.308.501.309.521.809-.236.308.16.577h.833l.063.884.66.499.278.46.861.153h.389l.111-.307h.223l.277.153v.307l.417.153h.361l.361-.307.473-.153.25-.767.326-.039.451.039.133.038.257.729h.25l.076-.192-.16-.422.473-.153.229-.116.243-.038.549.346-.181.154.104.269.34.651.16.575.361-.306.271.038.167.843-.271.497h.64l.417.459h.5l.389.153.723.458h.417l.424-1.185.271-.344.549-.651-.215-.421-.445-.46h-.25l-.111.153-.75.153-.056.307h-.527l-.501-.153-.382-.345-.118-.422-.277-.768-.194-.154-.723-.768-.75-.461-.723.154-1.111-.308-.306-.308-.251-.154-.722-.154-.271-.347-.368-.578-.312-1.055-.167-.464-.792-1.159-.063-.426-.326-.271.299-.348h.444l.14-.311 1.027-.31 1.195-.31.5-.155h.473l.583-.311.667-.155.528.466h.389l.368-.582.438-.35h1.334l.64-.311 1.25.155.89.155.25.155h.25l.216-.533.423-.088h.473l.271.194.118.738 1.056-.311.417.466.417.155.417.155.723-.155h.361l.833.155.778-.311.417-.311.215-.504.118-1.206.584-.311.159-.35-.159-.584-.611-.468-.633-.195-.173-.273-.25-.468-.834-.156-.667.312-.41-.663.056-.626-.027-.391.243-.195.889.156-.056-.469h-.667l-.5-.47-.111.313-.389.157-.167.469-.166.469-.299-.039.604-2.467h.917l.243-.196-.104-.274-.827-.51-.507-.432-.361-.157h-.194l-.583.157-.584.157-.167-.314h-.889l-.111.314-.584.314h-.472l-.807.471-.215-.275.354-.039v-.157l-.528-.314h-.417l-.243.196.188.432-1.333.628h-.89l-.277.157h-.417l-.14-.471.133-.118-.354-.196-.528.942-.694.157-.778-.157-.361-.314h-.667l-.166-.314h-.39l-.723 1.568-.11.313h-.611l-.084.156-.361-.156.188-.196-.159-.587h-.473l-.167.157-.556-.157-.299.353.077.274-.834.157-1.361.313-.111.313-.5.313-.39.157-.166-.313-.341-.195-.056-.392-.271-.352v-.313h-.417l-.243 1.213-.146.352-.306.469-.89.313-.723.312-.389.156h-1.501l-.583.156-1.445.156-.667.624-.188.506.098.234-.493.972-.25-.778-.223-.312-.632-.194.215-.273h.473l.076-.663.125-.858-.201-.195-.417-.469-1.973.156-.723-.156-.333-.156h-.473l-.556-.157h-1.946l-.917.157-.306.469-.361.156-.166.468-.473.156-.25-.468-.091-.586-.354-.508h-.361l-.583-.157.132-.586-.493-.196-.201-.039-.327.039.077.274-.216.196-.361-.157-.277-.47-.223-.313h-.194l-.091.118-.215.195-.694.157h-.39l-.159-.274.264-.235-.028-.549-.188-.51-.361-.313-.271.118-.174-1.217-.527-.157-.361.314h-.194l-.223-.157-.299-1.141-.035-.591-.063-.749-.319-.474-.167-.394.042-.711-.222-.791-.41-.831-.473-.158-.049-.594.236-.237.223-.635.194-.635.229-.755.549-.198.063-.756h.277l-.076.438.299.198h1.028l-.14-.318-.11-.478-.417.159-.194-.796h-.361l-.278.159-1.139.159-.64.956-.299-.597.327-.518.333-.478.417-.319h.306l.639-.479.778-.479.194-.639.035-.52.159-.6.167.16h1.667l.271.2-.82.16.077.44.166.319.077.28-.438.359.077.279-.299.359h-.25l-.278-.479-.132.04-.118.279-.41-.12-.034.279.465.358.091.598.167.478h.527l1.001-.159.444-.16.473-.159.159-.598.208.116.16.322-.056.159.584.159.061-.309-.339-.168-.215-.438.576-.04.167.16.167-.479.09-.199.049-.758.639.319-.027.479.778.16.222.638.528.16.056-.319h-.194l-.243-.359.235-.319.368.04h.417l-.146-.598-1.133-.679v-.16l.549-.2-.243-.12v-.32l-.583.16-.243-.44.938-.04.361-.48.417.32h.417l.826-1.563-.604.441h-.277l-.194-.32-.077-.361.104-.441.389-.161-.076-.281.271-.361.556.963.493-.2.306-.482-.382-.442v-.321l.076-.282-.243-.362-.75.161-.41-.362-.201-.282-.216-.362.326-.605.584-.322v-.162l-.334-.484-.194.323h-.277l-1.307-.807h-.25l-.111.323h-.444l-.215-.444.271-.525-.667-.486h-.417l.223.324-.223.162-.438-.122.021.606.389.484.243.363-.021.766.277.162.25-.162.278.162.132.282-.243.04-.306.161-.417.805-.694.161-.354.041-.056.724.375.241.368.281.077.361-.383.762-.354-.361-.146-.441-.167-.321h-.361l-.639.321h-1.945l-.083.321-.64.642-.243-.361.042-.723-.299-.361-.139-.482-.694-.161-.028.321.167.804h-.584l-.132-.201-.167-.482.07-.402-.792-2.012-.015-1.049-.514-.888-.451-1.902-.306.162-.445-.162-.076.202.515.971v.486l.034.444-.382-.202.042-.243-.403-.728.098-.405-.32-.404-.174-.77h-.916l-1.112.972-.438-.04-.063-.284.056-.324.528-.162-.077-.284.327-.528.277.163.243-.203-.159-1.096.417-.325h.944l.611-.325.076-.774-.402-.732.076-.286h.277l.39 1.141.389.326.167-.164.396-.203.209-.163.166-.082h.181l.327-.529.222.489h.39l.389.326v.326h.444l.528-.164.694-.163.278-.326.354-.041-.077-.448-.243-.041.16-.611.243.204.146.448.278.489.354-.204-.077-.774.473.652h.556l.445-.326.36.326.417 1.14.584.325-.188.285.243.365.25-.162.639.325.216-.203.014-1.546.243-.203h.473l.132-.366-.243-.449-.278.163-.5-.489-.076-.449.243-.368.333.327.806.164.557.652.5.163.166.326.417-.163.111.326h-.306l-.243.285.188.53h.223l.215.366-.181 1.219.41.203.25-.163.201.284.486.893.611.648.598 1.214.243.364.278-.162.361.323-.188.283.277.565.132.282.64.323.166-.646.39.646h.75l.639-.484.133-.363-.354-.283v-.323l.021-.364v-.485l-.154-.562.465-.364.14-.648-.167-.162-.194.162-.243-.365-.285-.447-.111-.325.473-.162.277.487h.863l.444.487.583.162h.445l.271-.447-.604-.365v-.325l-.583-.65-.778-.163-.417-.163-.389-.325-1.084.163-.382-.366-.056-.408.159-.203-.527-.326-.444.163-.223-.326-.354-1.019.021-.449-.216-.368-.042-1.063-.458-.409-.341-1.926-.493-1.026-.034-.453.063-.699.208-.741-.611-2.144-.319-.909.097-.911-.188-.372.195-.166.444.332.132-.042-.076-.29 1.056.166.389.662h.89l.277.165.056.331h-.277l.166.662.557.496.5.825.451.454.299.701.09.617zm63.743-13.923l.604.376.493.877-.181.501.111.584.243.042.278.833.576.375.028.417-.292.249.097.582-.715.54-1.14-.333h-.833l-.167-.665-.493-.208.215-.625.216-.042-.181-.333.027-.583.515-1.585-.042-.752.382-.042-.056-.334zm-80.638 12.196l-.091-.206-.111.329h-.444l-.076-.37.208-.165-.104-.289.223-.165.278.165.11-.33.188-.041-.216-.619-.41-.041.265-.825-.098-.248.604.124.223-.661h.166l.327-.538-.077-.786h.167l.306-.497h.333v-.166l-.409-.041.076-.29h.333l.077-.208-.188-.457h.277l.167.332h.223l.277.498h.389v.332l.834.166v.332h.389l.056.166.278-.166v.331l.667.166.167.331.277-.165.299.703-.049.455.223.33.299-.124.056.413-.188.042.021.454-.264.247.132.289h.944v-.495h.444l.133.206v.578l-.188.041-.222.659-.584-.165-.688.535.326 1.604h-.166l-.167.493-.444.328-.417-.164-.444.82-.445-.82h-.277l-.216.205.077.287-.188.041.077.287-.5.164.076-.943-.243-.369h-.223v-.329h-.222l-.695-.822-.806-.165-.25-.658-.389-.165.083.329h-.444zm183.333 17.7l-.64.322-.777.161-.501.321-.222.322-.64.161h-.583l-1.39-1.287-.889-1.933-.452-.283-.188-.524.174-.524.027-.729.41-1.335.535-1.582.549-1.015.417-.488.806-1.466 1.334-.978 1.278-.817.833-.654.861-.654.834-.655.806-.82.806-1.477.5-.329.945-.822.527-.329 1.945-.823.751-.165 1.861-.99.861-.33 1-.33h2.084l1.445.66 1.195.825.194.494.139.329.743.535.417.986.118 1.109.473.328.861.492h.5l.889.164-.048.287.326.369h.333l.16.368-.104.287-.854.858-.027.409.292.245v.898l-.111.489-.604 1.018-.799 1.667.41.771h-.445l-.111-.325h-.5l-.5-.162-.139.324-.417.163-.917-.163-.778.487-.139.324-1 .324-1.167.324-.667.162h-2.029l-.528.324-1.056.81-1.39.485H553.4l-.889-.162-.778.162-1.194.323-.917 1.13-1.168.967-1 .644zm64.557-7.64l.792.406.194.569-.382.365h-.278l.056-.325-.611.163-.299-.365-.007-.609h.223l.166-.325zm-117.902 5.506l-.028-.404-.166-.888.041-.567-.458-.323.16-.364.146-.283.16-.364h.361l.055-.486.306-.324h.445l.104.284-.152.324.188.364.444.162-.027.324.361.162.11-.324.361-.162.354.364-.236.485.188.445.445.162.639.323.25.162.584.484.104.605-.354.041-.104.201-.014 1.048-.473.644-.375.402-.452.282-.639.482-.417-.161-.473-.322-.5-.644-.333-.322-.354-1.006zm-226.028 34.132l.361-.309.063.27.521.193.25.309.271-.425-.542-.231.132-.425.473.154.5.31-.021.733.354.347.882-.501.729.038.611-.154.479.347.625-.154.361.463.201.424.417.154.417-.309.278-.154.354.116.306-.849-1.903-1.159-.069-.541h-.598l-.118.271-.778-1.083-.243-.503-.333-.621-.236-.465.479-.116h.417l.306.155.048-.893-.215-.194h-1.111l-.299-.194-.444-1.012h.458l.785.583.243-.272-.792-.544-.125-.39-.569-.155-.195-.624.167-.78.243-.195.507.429.431-.078.222.546-.069.468h.458l.028-.234-.278-.857-.125-.234.264-.625-.695-.469-.688-.195-.021-.9.271-.195.889.313.111.313.493.039.125.392.382-.118-.299-.352.215-.744.535.9.25.313.382.195.09.586.236.313.868.351.188-1.054-.264-.078-.09-.587.271-.431-.458-.704.208-.313-.056-.549-.292-.078-.083-.393h.458l.257.275.278.157.354-.039-.125-.236.375-1.02.042-1.022.32-.078.118-.276 1.417.157.007-.433.514-.315.5.629-.056.394-.083.314.035.196.326.354.223.55-.223.313-.25.471-.827.196.063.431.223.47.431.078.264-.47.771.587.223-.313.493.822-.028.235-.347.078-.167.157-.201.274-.049.195.188.273.473-.156.076.118-.083 1.092-.354-.273-.41.195.153.858-.653.078-.056.39.549.039.194-.156.723.156.417.312.243.583-.473-.078h-.153l-.264.544-.354.039-.327.35.083.389h.306l.854.194-.604-.66.604-.117.202-.039.569.078-.375.544.208.466.167.542-.028.233-.431.621.521.348.118.271.25.232.604.116.271-.502-.097-.388.319-.775-.299-.504.077-.737-.236-.311.132-.194.354.039.479.583.118 1.203.542.232.042.698.243.503.667.155.354-.813-.083-1.939-.403-1.632-.368-1.051-.09-.585-.986-.39.028-.234.299.117.046-.182-.317-.716-.056-.469-.278-.86.042-.392-.486-.626.104-.196.146-.196.264-.471-.069-.55.299-.196.035.275.306-.079.069-1.1-.236-.235-.028-.708.521.275.306-.157.333.157-.16.276.66.511.243-.433-.236-.315h.931l.306.787-.181.236.875.942-.708.392-.125.549-.348.235-.028.235.271-.118.25-.157.333.47.132-.509-.125-.235.298-.196.16.196.055.47.083.313-.097.705.271-.117.417.156.132.352-.208.313-.174.273-.271.43.083.313.215.039.118-.273.347-.078.479-.273.257-.273.521-.352.313-.587h.292l.174.431.472-.157.473.313.577-.352.674-.587.007-.431.66-.196.396-1.059.806-.785.778-.628.854.275.778-.157 1.438-1.141.514-.866.744-.197.583.158.604-.197.479-.434 1.528-.315.445-.474.694-.315.466-.355.007-.435.306.158.173.276.542.237.535.908-.077.591.32.551.278.787-.014.866.327.354.25.314.216.589-.167.628-.57.47.056.47.25.313-.007.195-.354.508-.229.431-.007.586-.403.39-.083.391.431.078.083.39-.194.156-.5.78-.764.544-.583.467.181.544-.91.661.063.427h.292l-.25.465-.271.039-.361-.466-.361.311-.417-.466-.583.155-1.389-.155-1-.466-.611.155-.194-.466-.611-.311-.354.039-.417.467-.097.389-.271.194h-2.029l-.577.814.299.582-.035.427-.278.464-.167.155-.542.231-.417.464-.479 1.044-.722.617-.167-.154-.5.154-.035.733-.542.385-.417.463-.313.115-.215.192 1.132.27-.174.192-.41-.039-.382.192-.042.23-.486.077-.201.423h-.278l-.667-.615-.833.615h-.473l-.868-.73-.438-.039-.09.423-.514.308.854.192.257.423.194.46.688.039.16.191-.208.384.028.613-.118.038-.938.498h.597l.528.46-.299.268.16.421-.486.153-.229-.115-.16.573.375.229.063.268.778.153.167-.306.118-.267.41.114.778-.152.25.152.285-.42.104-.191-.048-.727.208-.229.34-.268.243-.422-.736.077-.055-.537.91-.191.521-.038.25-.46-.236-.384.354-.5.521.038-.028.845-.208.229.028.69.938.191.646-1.188 1.056-.614.299-.653.722-.153.361-.308h.861l.695.154.354-.116.368.116.417.307h.639l.417.154.194-.307.09-.116.653-.154.056.539-.236.307.632.346.361.46.076.575-1.07 1.302-.153.689-.688.955.104.268-.521.191-.472-.306-.66.726.083.305.403.076.167.686-.32.685.028.609-.389.38.195.456.354.19.09-.874.604-.19-.202.418-.069 1.063.632.342.354-.114.306.607-.153.228.208.909.174.492.215-.189-.097-.82.549.101.076-.265-.139-1.366-.431-.683-.083-.38.083-.304.055-.304h.292l.674.267.417.152-.021.418.382.645.111.152.299-.341h.153l.681.835.264.38.5 1.061.549.643-.035.266h-.431l.528 1.662.188.188.222-.151.299.038.25.151.778.68-.431.603.708.753-.604.188-.132.415.139.601.223.976-.111 1.126.194.973-.229.861-.063.411h-.292l.056.448.333.448.438-.262.473.149.424-.56.819-.224.334-.823.333-.673-.069-.375.764-1.274.028-.826-.361-1.655-.382-.64-.341-.716-.854-.642-.076-.415.361-.302.097-.453-.569-.756.375-.833.25-.455.028-.228-.41-.493-.229-1.177-1.319-1.444.326-.115.271-.571-.111-.762-.66-.801.035-.42-.097-.917-.264-.153.111-.459.111-.46.299-.038.077-.191.056-.383-.208-.307.25-.46.542-.23.833-.921.348-.846.111-.461.223-.308.222-.308.66.27h.361l-.076-.27.243-.193.701.654.236-.23.027-.848-.36-.462-.57-.077-.527-1.003.382-.348.118-.425.556-.464.438.116-.201-.426-.265-.077.375-1.007-.208-.465.64-.62.444-1.243.458-.544-.069-.389.611-.623.382-.039.188.272-.291.623.326.35.063-.739.278-.467.652-.077-.465-.584-1.028.467-.049-.506.223-1.014.083-.295.139-.642.111-.469.598-.391.25-.548-.014-1.097.604-.196.056-.314h.36l.334.471h.972l1.229.196.299-.039.243.353-.014.157.18.47.223.313.194.469.042.548.736.702.194.468.319.702.417.78.348.467-.264.389.055.389.584.777.438-.117.021.738-.235.31.056.465.286.533.484.9.16.193.139.619-.083.309-.042.387.264.618.341.347.479 1.35 1.125.308-.473 1.23.195 1.076-.195.767-.235.307.215.651.361.459.076.421-.375.229-.333.841.326.19.076.573-.458.61.215.19h.417l.827-.115.319.686.139.609.361.913.493.19-.576.722.215.189.361-.303.188.114-.417.835-.125.683.375.741-.208.244.027.53.14.605.222.302.084.226-.167.604-.028 1.283v.602l.188.188.146.866.598.977v.676l-.32.075-.055.226v.6l.298.337 1.084-.15-.243.562.604.337-.354.412.14.599.027.373.25.821.243.187.271-.485-.097-.224.465-.187-.409 1.157.354.187.11.596.479.707.334.447.431.521-.278 1.115-.236.297.354.185.076.408-.632.186-.299.482.098.814-.473.592-.25.444-.486 1.329-.139.958.319.442-.264.442-.223.368.299.331.778.441.306-.294.409-.037-.014-.515.139-.589.25-.885.41-.479.146-.554.494-.479.229.701.723.59.243-.111.132.249-.208.305.181.884.375.883.639.882.466.33-.271 1.578.681.659-.015.659.195.878.181.365-.028.657-1.042.146.576.328.494-.11-.015.657.493.182.216.328v.655l-.236.291.514.728-.409.036-.076.254.354.182.743.472-.055.218h-.265l.361.725.959.652-.069.362.194.29.271-.108.049.542-.208.29.416 1.012.354.036.584.577.354-.036.84-.108.417-.289.188-1.265-.792-.723.57-1.014-.682-.072-.117-.979-.494.036.042.363h-.292l-.194-.363.153-1.162-.167-.437-.41-.327.188-.328.084-.364-.028-.437-.465.109-.035-.328-.042-.949.265-.438-.417-.584.063-.768.021-.548-.409-.476-.035-.549-.111-1.174-.194-.44-.056-.22-.027-.515-1.001-1.177-.215.11-.299-.184.056-.369.361-.147.097-.442-.681-2.732-.056-.962-.111-1.705-.235-1.412-.334-.893-.333-1.043-.584-1.045-.5-.896-.431-1.197.319-.599-.139-1.2-.403-2.254.236-.903-.625-.979.056-.831.049-.34.271-.793v-1.135l-.542-.682-.027-1.138.236-.304-.348-1.52.319-.609-.111-.761-.438-.343-.299-.191-.007-.419.035-.268.375-.229-.375-1.452.694-.229.716.497h.473l.305-.153 1.945.765.104-.268-.223-.306-.416-.153-.417-.153-2.077-.497-.063-.575-.986-.307-.125-1.842-.216-.192-.326-.577.264-.461-.514-.924.166-.617.14-.462.299-.193.416.154.077-.116-.466-.347.049-.425-.361-.309-.938.271-.049-.58.382-.348.104-.426-.056-.31-.139-.619-.521-1.279.056-1.398-.361-1.556-.007-.741-.028-.468-.291-.625v-.625l-.056-.938.159-.195-.09-.744-.41-.509-.049-.588.265-.392-.098-.864-.056-.235v-.708l.054-.774.433-.406-.292-1.341.133-.197.117-.119.417-.315.243-.197 1.14.158.368-.593.271-.039-.021.277.549.671.306-.158.778.158.813.276.771.355.743-.198.056-.158-.375-.316-.39-.315-.083-.396.431-.474-.056-.316-.75-.079-.327.197-.215-.514.069-.396-1.015-1.347-.194-.556.153-1.032.083-.397v-.637l-.069-.796.111-.478.409-.837h.306l.271-.359-.264-.241.541-.719-.514-.56.569-.88-.041-.401.354-.2.368-.12.598-.401.306-.481.111-1.045.479-.201.527-.804.216.04-.042.242.521.201.333-.161.466.362-.098.402.521.04h.694l.5.482.223-.161.528-.161.382 1.084-.028.641.084 1.442-.403.24.153.56-.306-.081-.375-.239-.341.04-.326.599.75.16.348.48-.493.04-.243.279.465.359.368.12.319.398-.083.398-.41.04-.277-.319h-.334l-.166.16.063.757.632-.12.063.438.576.517.917-.477.327.199.139.716-.083.318-.223.159-.014 1.27.799.832.034.594.14.633.354.039.299.355-.069.869.493.355.834-.158.723.158.306-.315-.104-.75.292-.395-.028-.554-.375-.237-.201-.277-.229-1.069-.375-.317.083-.317.403-.238.319-1.669.326-.04.723-.637h.834l.194.159 1.077.04.639.478.348.557 1.271.834.632.675-.069.873.444.633.354.198 1.028.317h.777l.424.909.89 1.263.431.631.167.394.5 1.023-.271.669-.5-.157-.611.157-.493-.196-.389.314.549.511h.527l.479.589.438.353.979.118.375.706.265.235.333.47.375.235-.125 1.487.334.468.848.702.139 1.637-.208.156.027.467.438.35-.299.661.181.389-.903-.078-.313.582-.007.427-.653.077-.201.271-.222.155.313.582.236.077.027.542-.348.077-.639 1.083.152.542-.11.309-.736.385.188.27.215-.038.069-.232h.292l-.139.54-.306.462-.542.231-.153.54-.194.154-.652.077.083.846.236.077-.084.385-.36.615-.32.076-.25.307.111.23.111.613h.458l-.361.613-.319.076-.139.459-.25.842.799.038.223-.153.409.344-.264.458.403 1.069.472.458-.027.229-.021.343.133.647.027.533-.027.608-.354.949.007.722.208.303-.194.606-.319.53-.223.757-.431.302h-.431l-.125.982-.486.528-.083.302-.028.679.473.452.528.752h.444l.466.188.715-.64.153-.527.271-.188h.528l.313-.489.41-.415.063-1.17.306-.454.361-.757.298-.492.229-.719.604-.493.216-1.101-.042-1.901v-1.981l.139-1.375.056-1.225.278-.919.521-.191.104-.882-.348-.23-.056-.384.716-.346.132-.423-.236-.154.25-.308h.445l.326-.192.035-.424.298-.192.25.154.521.5-.042.231.765.384.451.423.508.576.882.192.09.576.709.537.341.269.25.613.729.881.514.229-.139.994-.292.458.348.763-.542.229-.098.838.146.343.75-.152.417.457.611-.153.326.495-.111.38-.333.608-.209.076-.083.38.056.304.431.379.027.531-.208.151.223.303.291-.076.194.379-.125.454.153.908v.831l-.098.378.223.679.098.679-.14.452-.236.226.376.678-.251.225-.465-.188-.271.188-.139.526.486.225.361.75.111.676-.194.15-.383.337-.549.187.188.262.333-.149.326.486-.111.375-.375.224-.139.524.542.15-.694 1.194-1.07.522-.889.97.027.446.125.447-.125.447.966.483.777-.149.473.446.368-.557.354-.037.896.78h.125l.284.409-.451 1.594-.348.518.056.37.466.037.188.259-.354.333.049-.407h-.431l-.194 1.109.326.185.076.406-.306.443-.409-.111-.063.701-.236.294.743-.11.194-.295.326.037-.041.664.965.919-.021.258 1.16.184.528-.294h.527l.383-.184.277-.441.695-1.178.139-.517-.181-.295.083-.295.167-.886.139-.444.799-.48.591.407h.125l-.042-.37.375.148.015.519.291.369-.236.37.188.185.472-.148.306.443.299.479-.042.222.501.737 1.188.332.444-.294.64.441.306.442.159.552-.056.588-.18.147-.056.587.431.44-.195.586-.326.037-.243.33-.368.257-.382.695.466.183.034-.403h.403l.208.805.569.365.167.439-.931 1.095.486.218.042.365.25.146.438-.11.382.183.027.364.056.655v.509l-.688.037-.132.254v.437l.25.581.194.291.403.362-.181.653.326.182.104-.182.069-1.524.278.073.235-.364-.235-.072-.008-.255.195-.291.243.037.152.509.236.146-.132.181-.118.109-.25.291-.459.072.14.508.271.036.333-.29.167-.145.257-.109.299-.036.361-.436.313.254.515.072.542.653.549.036.159-.544-.458-.218.056-.654.333-1.019.243-.036.285.691.25.582.777.291.223.581.569.362.861.435.473.291.507.543.021.543-.466.036-.215.253.222 1.879.167.289.473.722.409.324.258.684.75.288.271-.108.521.611.208.792.792.144.667-.288.424-.108.584-.144h.861l.306.575h.416l.751-.144.306.287.09.395.438.323.341-.539.243-.036-.076.395.521.323.41.609-.098.359.167.286 1.271.179.521.823-.111.286-.493.179-.271.322-.056.214.334.286.347.5.25.856-.076.535.132.534-.25.711-.402.711.277.426.431-.071.167.781-.167.426-.25.284-.549.177-.25-.142-.299.673.278.425.993.318.194-.283.382.177-.194.638-1.049-.531h-.306l-.361.424h-.473l-.833-.424-.195-.283-.242.248.485.495-.055.637-.306.424-.521.035-.354-.317-.041-.354-.854-.602.034-.672 1.042-.142-.736-.708-.069-.567-.326-.177-1.133.319-.708-.425-1.021-.035-.479.674-.743.318-.382-.318-.32-.781-.458-.213-.181-.355-1.188-.461.048.533-.25.284-.444.426-.41.177-.722-.142-.306.284-.417-.284-.257-.106-.376-.142.125.425-.125.071h-.291l-.306.426-.278.85-.333.566-.515.212-.444.848-.027.212.222.141.403-.071-.223.776-.854.176-.201-.529-.243-.035-.229 1.517-.382-.528-.229.247-.438.176.104-.458.027-.495-.854-.317.091.529-.084 1.057.125.493-.25.282-.521.175-1.028-.422-.035.387-.576.175-.083-.281-.41.316-.153.493v.421l-.25.281-1.604.877h-.556l-.632-.035-.042-.351-.375-.07-.056-.352.299-.175-.188-.527h.264l.424.246.146.246.473.281.216.035.243-.246-.14-.351h.153l.41.175.188-.316-.195-.352-.333-.21-.083-.212-.327-.035-.5-.422-.528.563-.833-.141-1.133.739.39.632.326.035.576.456.195.28v.492l-.271.175-.465-.035-.174-.245-.278-.421-.188.526.306.28.181.28-.438.175-.5-.14-.334-.28.021-.667.618.246.215-.667-.549-.316h-.306l-.306-.281-.284.386-.515.21-.083.772.069.561.167.35.194.7-.389 1.189-.716-.105-.194.14-.723-.279-.556-.559-.25-.28-.584.141-.549.314-.917 1.955.243.523.007-.383.292-.14.181.488.403.348-.32.557.056.348.236.557-.598.557.883.59h.527l.077.729.194 1.109.069.762.576.173.91 1.555v.415l-.069.759.181 1.033.028.275-.292.138.027.344.383-.103.215.309-.299.104-.063.653-.764.205-.431.481-.604-.103-.556.549-.883-.034.466.582.229-.239.597-.138-.347 1.097.139.479.625.479.069 1.162.278.41.889 1.5.236-.068.194.682-.291.545.125.476-.348.681-.535.577-.639-.137h-.723l-.076.238.375.407-.299.169-.299.102.139.407.431.203.417.813.556 1.286.417 1.147.278.81.056.741-.361.673-.611 1.479-.806 1.208-.361.269-.688.301-.527-.134-.202.503-.326.033-.889-.67-.258-.638-.354.101-.556-.402-.216-.302.069-.336-.188-.033-.104.234-.09.303-.917.536-.306.135-.771.436-.527.402-.084.268-.083.335.403.736.416 1.202.313.635.076.367-.028.533-.048.566.188.232-.611 1.065-.626.332-.056.199-.034.299.159.432-.25.465-.333.266-.688.165-.14-.133-.188.166.542.795-.069.332.875.463.417.793-.292.529-.257.099h-.417l-.333.265-.41.495.375.329-.208.33.111.132.771.297.334-.132.049-.231-.14-.396-.431-.264.278-.396.41.23.188.692-.07.33.403.725.111.526.223 1.315-.056.656-.084.328-.083.196-.069.328.056.263.152.263.056.654-.444 1.047-.167.522-.292.457-.014.457-.299.163-.833-.13-.243.162-.25.393-.084.325.848.652-.326.292-.049.423.125.456-.403.455v.455l.188.162.528-.13.604.747-.25.389-.319.583-.25.843-.084.582-.139.518-.007.872-.243.355.139.773.208.064.056.258-.235.838.347.515-.486 1.093-.292.964-.854.032-.14-.257h-1l-.049-.225.292-.129-.188-.16-.993.354-.848-.707-.577-.161-.777.257-.591-.096-.459-.064-.083-.579.966-.031.313-.354.792-.063.083-.322-1.104-.935-.715.161.208.193-.326.419-.223-.129-1.104.097-.083-1.096 1.069-.064-.486-.516.069-.323-.493.098-1.361-.905-.354.42.028.453.354.29.216.741-.549.161-.104.354.743.806.118.61.375-.064.563.226.132.996-.681.962.326.481.104.609.027.384-.167.512-.188-.096h-.222l-.091.096-.708.576-.069.702-.153.064.056.319.375-.064.056.319-.083.639-.82.19-.041.574-1.126-.064-.5.382.139.446.584.636 1.014.318.223.571.056.254-.389.889-.216.285-.229.35-.319.189-.25.887.208.569-.569.568-.236.443-.708.693-.973 1.514.444.692.611.503.382-.598.035.472.402.692-.694 1.067-.236-.063-.222.377.055.313.542.188.361.877-.236.375-.069.688-.222.375-.848.313-.473.749.25.438.931.25-.583 2.365.007.652.076.715-.431.186-.073.681-.438.402-.201-.341-.633-.154-.417-.372-.389.124-1.361-.124-.202.589-.264.062-.25.496.576.465.834.124.952 1.02.027.434h.236l-.014-.434h.125l.347.557.306.247.209.494.146.154.493.154v.925l-.139.8-.375.862-.64.491-.36.859-.563.706-.09.705-.736.429v.856l-.125.795-.306.245-.473.366-.465.152-.41-.092-.646.336-.276.123-.417-.366-.334.244-.333.366-.132.457-.084.731-.083.67-.083.305.597.851.667-.242-.014-.792.265-.121.222.486.028.365.125.547.402.183-.027.546-.299.03-.611.485-.021.213.215.03.341-.334.354-.151.771.455.125-.425h.486l.667.606-.153.182.278.728.167.241.299.03.159.454.139.303.056.303-.222.362v.362l-.084.725-.271.15-.194-.12-.382.392.069.543-.015.964-.173.15.048.691-.194.602-.556.72-.431-.18-.014 1.26-.521-.09-.326.149-.236.779-1.486 1.017-.069.3-1.3.388-.423-.328-.771-.03-.549-.628v-.539l-.027-.658.208-.899-.25-.36-.438.091-.091-.33-.215-.03-.243.45-.14.06-.097.78-.354.149-.313.09-.444-.659-.25-.36-.431-.06.083-.78.083-.36.354-.15.146.211.653.119.083-.24-.743-.33-.382.09-.09-.451-.035-.571-.319-.421.194-.302.417-.241h.236l.368-.03-.146-.813-.382-.15.076-.937-.777-.241h-.834l-1.069-.423-.542-.786-.445-.122-.736-.302-.235-.546-.918-1.092-.958-.91-.334-.485-.402-.427-.459-.061-.417-.729-.152-.915-.444-.609-.431-.122-.452-.396.049-.458-.389-.366-1.015-.184-.5-.855.473-1.409.639-.613.834-.307.444-.307.493-.031.007-.46.354-.153.257-.339.167-.122.243.338.326-.153.056-.308-.292-.246.354-.277 1.028.615.216-.276.055-.309-.041-.246.799-.399h.389l.389.246.702-.4.549.031.41-.093.264.555.403.184-.042.678.097.491-.375.062-.174.338-.409-.093.167.431.826.398-.216-.46.292-.185h.125l.327.031-.049.338.277.368.41.153.313-.153.466.03.076-.338-.25-.368-.375-.307-.444-1.106-.278-.801.799-.399.007.215.521.154.194-.123-.076-.216.11-.369.466-.031.66.832-.264-.801.354-.154.383.154.208.185.306.246.417-.185.271.093.243-.216-.264-.37.611-.37-.278-.37h.486l.084.186.146.277.216-.277-.084-.556-.465-.154-.528-.124h-.25l-.41.093-.042-.37-.166-.804-.493-.278-.89.123-.104-.154.098-.929-.653-.186-.166-.311.382-.65.438.278.069.311.223.124.514-.187-.027-.372-.403-.186-.181-.807-.326-.155-.694-.125-.334.373-.243.838.292 1.054.118.341-.035.341-.215.03-.202-.34-.36-.124-.348.062-.174-.217-.354.279-.056.31.236-.063.25.371-.277.989-.028.186.14.371-.104.154-.118.216-.375-.37.069-.31-.528-.803-1.41-.093-.188-.278-.25-1.858.209-.807-.223-.621-.883-.776-1.243.031.417.808.431.125.194 1.116-.41.403-.382-.218-.903-1.737-.549-.155-.556-.249-.188.218.194.622.417 1.24.542-.248-.348-.559.432-.248.139.868.723.992-.195.31-.076.155.438.835-.222.371-.827.031-.194-.248-.528.124-.257.34.028.371-.66.401-.466-.278-.152-.433-.306-.247-.327-.154-.424.711-.389.494-1.938.03-1.528-.741-.882-.525-.507-.34-.493-.712.097-.371-.236-.496-.416-.682.792-.807-.334-.621-.417-.373h-.486l.25-.497.431-.249-.242-.28-.251-.498-.313.592-.319-.125.028-.188.222-.373.625-.997-.569-.188.042-.687-.431-.25.382-.031.549.281.098.624.458-.375-.444-.749-.549-.156-.25.125-.368-.719-.354-.031-.076.844-.167.063-.229-.406-.473-.125h-.527l.021.344-.382.281-.604-.844.278-.501.416-.25.771-.031.104-.406-.236-.063-.563-.156-.646.47-.708-.125-.07-.251.167-.188-.806-.878-.299-.157h-.611l-.528.126-.118-.22-.444-.754-.382-.407h-.25l.049.345-.348.377.326.157.111-.126.41.597-.438.031-.223.251-.611-.502.076.471h-.375l.278.376.111.125.819.063.167.439-.354.156-.521-.22.167.438h.236l-.466.532-.063-.47-.402-.313-.508-.345-.271-.532-.361-.628.069-.816-.347-.564.083-.44-.118-.409-.466-.157.265-.692.236-.379-.125-.63-.195-.252-.659-.158-.667-.252-.695-.379-.159-.601.083-.822.014-1.203-.194-.761-.292-.189-.416-.382.083-.444.236.063.083-.444-.514-.317.069-.445-.82-.7-.333-.255-.264-.573-.348-.127-.056-.766.41-.159.076-.287-.152-.959h.486l.284.352.507-.352-.319-1.407-.389-.513-.41.097-.667-.256-.41-.61.458-1.347-.236-.579.25-.515.639-.515.521-.161.118-.354.334-.387.472-.387.89-.387.576-.032 1.258-.613.716-.032.944.646.444-.258.243.032.209.322.139.387.215.161.744 1.063-.265.708.042.257.042.836-.167 1.348h.486l.042-.193.549-.288.034.609.326.032.306.385.174.416.076.225.785-.609.327.225-.063-.353-.486-.448.083-.449.292-.064.083-.385-.208-1.156.264-.579-.069-.772 1.132.097.417-.258.479-.226.827-.806.465.29.424.226.633.677.069.322 1.216-.097 1.361.515.639-.129.556.387.89.643 1.139-.129.751-.386 1.146-.225.299.097.118.354.466.032.25-.129.632.16.236.708.382.288.633.61.785.802.146.608.639.896.556.768.876.447.583.638.265 1.467-.146.159-.326-.351.222 1.083h.265l.319-.255.167.382.521.286-.118-.478-.319-.255.292-.572-.098-.573.223-1.276.236-.319.083-.831-.208-.128.139-.512.292-.063.083-.832-.326-.032-.417-.385-.417.257-1.111-.257-.604-.673-.333-.642-.646-.611-.535-.867-.854-.934.216-.419-.194-.322-1.577-.677-.591-.354-1.111-.259-.299-.161-.563.097-.16.032-1.027-.388h-.834l-.479-.484-1.049-.421-1.25.13-.118-.355-.299-.162-.5-.129-.973.129-.285.098-1.216.032-.409-.162-.265-.583-.409-.291-.16.032-.146.745-.438-.422-.152-1.102-.5-.519-1.049-.292-.049-.487.66-.162-.021.228h.375l.292-.585.743-.032.383-.358.257-.423.25-.13.417-.13.465-.163.702-.488.313-.358.243-.163.354-.162.646-.49.396-.489.277-.131.466-.032.527.261h.361l.556-.13.216-.229-.319-.262.743-.555 1.306.261.417-.393.667.132.215-.229-.306-.327.258-.229h.556l.527.522.479.36.403-.131.534.033.299-.229-.306-.393-.354-.032-.021-.491.854-.426.25.262.479-.754.604-.032.056.394-.326.36.604.032.361-.262-.048-.36.548-.295.361.263h.39l1.473-.263.639-.131.799-.951.223-.395.201-.888.841.493.584.264.771.032.535-.493 1.049-.164 1.111-.132.75-.395.64.132.723.526.723.395 1.201 1.018.354-.361.424.361.465.032.077-.623-.236.065-.486-.723-.278-.395-1.848-.854-.236-.594-.458-.197-.403-1.385-.514-1.454.111-.396.271-.165.229.363.465.166.827-.563-.431-.265.319-.332-.361-1.061-.354-.431-.382.299.292 1.259-.299-.1-.132-.231-.153-.397-.347.265-.202.232-.556.132-.424 1.026-.159.43.021.496-.639.396-.66.165-2.278.528-.493-.165-.431-.462h-.515l-1.042.462-.354-.1-1.139.265-.688.56-.674-.164-1.758.89-.66-.362-.834.132-.833-.264-.618-.891-.682-.329-.84-.231-.25-.529-.285-.091-.966-.173-.694.132-.473-.132-.104.231.104.562-.139.132-.41-.099-.598 1.253-.333.264-.326.297-.229.362-.194.264-.271.427-.611.132-.173.493-.334.263-1.049.165-1.39.525-.194-.132-1.028.132-.034-.23-.438-.164.077.624-.493.164-.396.754-.438.296h-.25l-.479-.886-.632-.558-.646.492-.152.655.159.296.41-.033-.104-.36.41.163.285.754-1.612-.131-.063.229-.354.163h-.667l-.146-.229-.799-.295-1.028.131-.527-.786-.528-.132-.889.132-.771.294-.403.591.111.654-.493.033-.104.163-.125 1.111-.354-.098-.139.262-.271-.164-.139-.522-.292-.589-.243-.163h-.833l-.049-.491.299-.819.271-1.147-.32-.263.167-1.117-.195-.395-.056-.329-.368-.428-.694-.527.132-.759-.111-.659-.167-.396-.521-.43.285-.231.41-.033.048-.231-.569-.396.125-.53-.32-.265-.278-.463-.056-.398-.014-1.128-.375-.664-.056-.931.194-.8.083-.933-.056-1.401.097-1.673-.292-.334-.333-1.006.194-.806.82-.066-.042-.471.694-.672.243.102.188-.223-.097-.148.382-.168.167.135.354-.303.069-.336.966-.304h.694l.612.27.777 1.211.341 1.041.236.067.194.806-.153.201 1.16 2.175.285 1.303.486.066-.111.468-.264.066.167.467.389.533.466.166.659-.433-.541-2.135.027-.201.215.101.229-.234-.444-.937.319-.268-.361-.669-.771-.436-.188-.437.097-.604-.264-.47-.223-.739.194-.27-.034-.168-.299-.571.056-.337.438-.303h.25l.223.269.5-.134.5-.135.139-.135 1.14.403.223.27 1.243-.572 1.758-.506.222-.27h.611l1.167-.404 1.091 1.314 1.077.168.41-.303.25-.472-.542-1.417.139-1.149.271-.304.584.135.188-.236-.375-.067.056-.204.667-.541.438.372.104-.372-.431-.407.36-.406.195-.136.333-.271.688-.034.077-.373-.348-.067.167-.748.333-.271.584-.067.235.136.015-1.156.5-.818.667-.545.438-.307.25.272 1.306.137-.021.784-.111.408.167.408.389.137.028-.137.326-.374.334.272.972.408.466-.034.361-.408.083-.341-.166-.409-.584-.817-.639-.682-.626-.615-.236-.751-.409-.308-.049-.514.375-.411.229-.308.09-.377.556-.549.445-.068.215-.103.091-.515.194-.275 1.444-1.236.243-.034.361.274 1.112-.138 2.306-.963.604.447.431.619.632.034.834-.274.299.171.056.345-.153.137.438.31.722.274.611-.138h.417l.223-.274-.056-.274.382.034.528.549.257-.034.667.138.611-.412 1.361.138.521-.241.319.894.25.138.667.549.625.137.027-.206-.659-.309-.834-.961.007-.653.25-.412.986-.481.229-.379.361-.276.41-.447.014-.482 1.271-.863.034.242.216.034.382-.311.194-.139.181-.621.695-.554.333-.138.292-.069-.139-.485-.39-.554-.167-.346-.083-.209-.791-.141-.842.522-.527.415-.271.45-.639.277-.868.242-.306.139-.479 1.07-.271.173-.465-.104-.069.76-.243.034-3.05-1.969.083-.346h.792l-.333-.277-.486-.069.097-.484-.799-.45-.417-.139-.583.277-.667-.139-.083.416-.674-.798-.82-.555.223-.277.326.104.438-.312.306-.556.015-.626.597-.626.278-.975-.069-1.744.958-.908.278-.98-.208-.771.194-.701 1.403-.912.041-1.195.473-.703.556-1.41.521-.317h.5l1.028.565h.417l-.16-.318.16-.106.305.283.188-.67-.195-.283h-.541l.083-.282.271-.035.104-.389-.194-.283-.883-.176-.389-.284h-1.806l-.118.39-.438.177-.451-1.097-.438.106-.223.424-.271-.176.152-.566-.11-.212-.494.106-.201-.673-.382.106.132.39-.111.85-.264-.071-.083.283.014 1.061-.438.317-.445-.141-.194.141.271.458-.069.353-.195.635.431 1.479-.166.563-.459.632-.083.327-.375.866-.028.561-.222.84-.417.42-1.077.455-.382.314-.459.629-.5.279-.514-.14-.368-.524-.243.175.181.279-.181.349.299.174.188.523-.222.831-1.001 1.12-.577.034-.889.417h-1.306l-1.779 1.111-.889.139h-.834l-.659-.173-.584-.973-.152-.626-.987-.904-.181-1.046-.409-.873.104-1.083-.11-.7-.292-.91.042-.771-.598-.421.723-.562.097-.421-.215-.175-.584.281-.132-.246.632-.457.417.14.89-.281.277.141.306-.282.257-.809.41-.176.361-.563.063-1.799.056-.283.167-.566.166-.707-.222-.708.319-.709-.264-.567.333-.71.208-.781v-.641l-.055-.285-.653-.641-.285-.963-.354-.535.383-.321.132-.464-.153-.501.32-1.216-.183-.51-.438-.466-.299.036.292.502-.299.036-.167.286-.243-.322.104-.251h-.695l-.667.143-.382.967.125.572-.166.572-.251 1-.652.856.125 1.14-.236.427-.083.854.652.71-.056.284-.326.177-.132.532.514.709-.083.779-.236.495.542.495.306 1.06-.493.035-.25-.282h-.751l-.909.741.208.282-.027.212-.32.141-.201.317-.5.141-.438.669.139.563.459.352-.084.352-.473.703-.438-.105-.146-.387-.632-.597-.438-.598-.729-.951-.465-1.022.027-.212.709-.564.528-.424-.167-1.556-.111-1.276-.076-.745-.063-.39-.271-.319-.361.284-.306-.71-.889.426-.118-.391-.083-.285-.383-.036-.188.178v1.208l.319.284-.375.354.042.497-.931.212-.459.779-.688-.106-.215.318.431.425-.181.354.027.424.854.883.049.529-.236.423.292 1.127-.084.282-.347.844.347.843-.181.842.932 1.821-.077.175-.284.105-.243.175-1.417-.7-.723.14-.25-.14-.313-.105-.327-.175-.188.105.021.315-.077.455.084.35.188 1.013.479.803.354-.105.16.244-.083.279-.306.14-.216-.105-.826.313-.195.279.056.349.799-.104.368.521.327.313.146.521 1.243.451.778.278.452.521.486.208.389.764.223 1.177.235.899.966 1.416.049.518-.306-.483-.243-.034-1.084.689h-.667l-.257-.518-1.633-.587-.465.726.097.207-.159.31-.778-.827-.868-1.209-.938-.587-.528.138-.535-.935-.465-.034-.258 1.35-.208.276.306.552.771-.104-.104-.518.292-.139.25.208-.181.275.431.415-.25.414-.515-.069-.25.483.327.172.25-.138.438.792-.604.311-.424-.104h-.792l-.223.345.195.413-.424.172-.104.24.188.172 1.611-.412.084.274.257.241.216.171.326-.171-.069-.345.271-.171.271.171-.098.481-.181.138.208.962.57.343.056.343-.028.686-.583.685-.917.411-.41.034-.576.717.014.479-.056.82-.278.545h-.264l-.042-.478-.208-.204.042-1.435-.056-.273-.153-.342-.611-.411-.313-.24-.465-.444-.174-.515-.257.515-.577.171-.243.514.854.308.063.377.542.479-.139.614-.319.274.083.818.292.341-.056.886-.194.272-.347-.272-.07-.341-.403-.477-.181-.478-.389-.683-.486-.204.069-.343-.994-.307-.257.376-.042.273.236.137.264.682h.403l.598.954.333.273.208.272-.382.17h-.389l-.201-.238-.153.136.048.511.035.374.521.034.229-.374.264.068.139.544-.639.407-1.521.441-.945-.271-.778.136-1.417-.68-.806-.136-.389.136-1.362-.407-.361-.137-.917-.816-.444-.136-.646.374-.333.816-.327-.102-.493.169.292.477-.299.17-.243-.103-.445-1.02.125-.749-.431-.341-.278-.545.111-.614.111-1.093.486-1.572v-.754l-.389-.686-.465-.172-.16-.583-.194-.962.271-.104.528-.55.215-.31.278-.758-.41-.448h-.528l-.216.241-.194-.482-.118-.448.021-.38-.215-.173-.188.242-.32.138.389.621-.222.482-.243.172-.611.276-.882-.035-.542-.758-.361-.828-.576-.311-.354-.448-.472-.968-.479-.936-1.466-3.714.667-.557.382-.035-.132.244.542.626.069.487.708.347-.056.348-.799.035-.076.243.243.173.639-.139.528.416-.215-.937.167-.14.604-.313.577.104.313-.243-.076-.243.548-.174.369-.175 1.132.313.222.278.757-.104.382-.174h.583l.556.14.285-.522.41-.174.007.243.333.279 1.049.451.104-.104-.32-.347-.139-.627h.264l.202.243.215-.174-.097-.209.319-.278.333-.139.431 1.184.521.034.549-.522-.139-.557-.959-.627-.403-.209-.486-.209-.257-.524-.104-.384.799-.035.222.279.778.14.188-.523-.083-.28-.764-.209.278-1.33.632-.315.063-.245-.452-.876h-.25l-.41-.316-.285-.526-.91-1.018.111-1.197.375.141h.139l-.306-.563-.382-.035-.354-.388-.424.106-.215.317.097.774-.292.704 1.216 1.019.174.386.222.21.181.352-.153.14-.681-.772-.41-.315-.361-.281-.16.387.236.07-.028.211-.521.175-.25-.141-.299-.175.042-.351-.986-.492-.458-.633-.653-.141v.774l.333.421.736.351.347 1.053.486.21-.014.21.048.315.021 1.225-.417.559-.375-.14-.097-.91-.854-.175-.146-.385-.327-.175-.611.28-.132.385.403.629-.042.35.514.069.34.664-1.077-.454-.195-.35-.146-.314-.25-.28-.306.28h-.583l-.361.28-.528-.28h-.611l-.528.28-1.612-.14-.271-.314v-.771h.82l-.438.245.167.28.834-.14.104-.175-.465-.525-.021-1.087.208-.421-.167-.562-.348-.21h-.153l-.271.175-.417.141h-.417l-.528-.141-1.354.105-.202-.105-1.41-1.019-.313-.388-.229-.528-.319.282.208.352-.486-.282-.223-.281.042-.353-.91-.739-.104-.389-.056-.353-.069-.494-.299-.317-.306-.565-.223-.425.139-.283.257.389h.264l.194-.283.223-.425.125-.637-.306-.496-.195-.497.181-.284-.188-.178-.167.284-.299-.177.014-.213-.243-.035-.361.567-.667-.284-.313-.106-1.098-.781-.361-.426.153-1.565.583-.712-.028-.571.264-.642.695.143.069-.428-.188-.179-.417.143-.104-.679.083-.429.688-.608.09-.394.458-.143.486.43.458-.071.229.179 1.556-.143.521-.251-.194-.43-.466-.179-.215.036.208.502-.66-.107-.223-.287.021-.395-.736-.501-.319-.646-.278-.144-.604-.036-.771-.036-.591-.539-1.139-.863-1.091-1.982-.556-.866-.708-.65-.924-1.122-.049-.615-.167-1.378.715-.326.25.29h.473l.611-.436.889-.145.674.689.799.036 2.008 1.27.632.036.09.615.056.506.327.181h.833l.229.688.66.18.118-.325.82.072.201.253-.021.397.771.325.361.289.604-.108.125.938.466.036.667-.289.285.397.298.036.89-.433.556-.288.632-.469.25-.433-1.327-.397.188-.325-.055-.507-.32-.361.069-.507-.125-.724.083-.436.389-.435-.056-.435 1.07-.217.25-.509-.167-.582-.577-.472-.473.291h-.583l-.945-.582-1.083-.292-.869-.984-.743-.474-.472.146-.473.146-.25.146-.271.183.014.656-.688.036-.41-.328.042-.364-.306-.584-.528-.292-1.153-.657-.313-.402-.563-1.134-.5-.439-.653-.219.319-.367.292-.587.681-.513.292-.661.056-1.029.521-.037.833.588.354-.405-.042-.441.208-.294-.792-.368-.611-.663.083-.443.181-.073.069-1.107.278-.739.028-.74.278-.74.417-.593.389-.445.466-.333.479.037.41-.037-.007.26-.375.371.382.259.563-.333.438.333 1.14-.148.09.26.326.037.146-.259.319-.074-.243-.705-.361.148-.111.148h-.778l-.195.297-.278-.148-.007-.26-.667-.445-.66-.037-.924-.854-.243.111-.139-.148.222-.297.639.297.354-.334-.098-.224.542-.595-.194-.446.535.111.056-.446.827.707.194-.224-.215-.186.028-.596.583.149.174.856.604.334.521-.037.028-.223-.493-.186-.327-.112.083-.446.438.261.299-.186-.111-.224-.799-.186-.5-.447-.528-.448-1.306.149-.466-.335.111-.522.382-.187.229.037.66-.635.298.336-.18.224.083.299h.153l.278-.672.083-.374.174-.412.604.262-.972-1.123-.438.262-.423.262-.458.075-.646.412-.507.86-.382-.112-.271.411-.229.187-.257-.037.055-.299-.194-.523-.549-.187-.215.336-.202.411-.132-.262.236-.448-.25-.299-.375-.225-.202-.412.327-.412-.375-.224-.014-.824-.222-.301-.292.076-.389-.375.16-.488.306.3.507-.038.327.188.438-.413-.465-.338-.833-.15-.202-.263-.688-.188-.611.301h-.278l-.521-.113-.458.827-.542.45.361.451.403.075-.264.824.486.374.194.599.139.823v.747l-.32.074-.027.224.333.597.792.373-.347.298-.056.373.799.93-.354.559.458.594v.667l-.208.52.486 1.186-.056.296.028.518-.111.666-.139.591-.195.295-.41.037-.41-.332.014-.222-.262-.002.109.962.374.218-.026.224-.326.185-.257.553-.521.331-.063.258-1.299 1.067-.861-.294-.473.147-.167.294h-.473l-.604-.037-.07-.515-.389-.221.222-1.178-.264-.959-.167-1.477.319-.888-.083-.444-.215-.037-.243-.555.111-1.335.347-.297-.027-.594-.333-.595h-.153l-.07.373-.243-.112-.055-.447-.174-.855-1.125-1.118.264-.672-.431-.821-.306-.748.055-.375.438.112-.035-.711-.215-.187-.556.15-.827-.786-.535-1.013.104-.864-.319-.676.139-.678.743.565.194-.151.215-.188-.347-.527.222-.452.271.113-.063-.415-.382-.038-.507-.868-.264-.075-.194-.68.16-.491.785.416.403.151-.111-1.134-.264-.075-.223-.53.139-.606.472-.151.348-.303.063-.341.048-.266-.458-.759.57-.607-.327-.342-.333.304-.493-.19-.285-.418-.743-.724.16-.342.174.267.431.076.535.419-.396-1.181-.354-.19-.473.152-.528-.457-1.139-.61-.327-.878.271-.038.5.611.202-.115-.07-.458-.264-.076-.236-.535-.549-.038-.215-.65.132-.268.799.115-.111-.383-.493-.191.222-.306.424-.115.938.115.417-.153h.723l.174.268.347.536.236.537h.292l.167-.23-.208-.459.25-.459.5-.307.438-.038.201.881.25.307.32-.153-.132-.575.611.307h.528l.827 1.034-.056-.536.007-.345.41-.191-.111-.23-.848-.23-.201-.421-.896-.422-1.049-.652-1.612-.461-.576-.346-.611-.769.083-.539.827-.655.139-.154.063-.578.271-.347.778.309.243-.424-.382-.193-.25.154zm-.028-7.604l-.472.156-.75-.156h-.361l-.833-.156-.723-.78-.667-.156.055-.469.167-.156h.194l-.056-.782.584.157-.049-.587.215-.195.556.156.167.157.389.156.445.156.389.47.271.43-.104.507-.556-.156.056.156.389.78h.278l-.104-.273.188-.351.417.625.417-.156.16.195-.104.585-.306-.313zm.111 2.025l.577.816.111.388.063.194.473.311.222.155.271 1.202-.41.503-.278-.31-.611.155-.333.155-.118.581-.438.657.077.426-.438.039-.139-.464h-.833l-.583-.309-.09-.58-.083-.387-.069-.387.576-.039.063-.116.319-.155-.299-.194-.389.155-.027-.309-.495-.505.243-.427h.25l.889.465.028-.31h-.223l-.16-.272.438.117.333-.155.049-.271-.994-.194-.417-.311-.528-.467-.104-.583.465-.194 1.056.623h.417l-.111-.311h-.25l-.271-.35.076-.428.611.312.445.155.583-.311.299.194zm120.847 25.849h.223l.223.301.277.751h.5l.306.45-.222.751h-.39l-.194-.601-.194-.3-.611-.15-.584-.751h-.25l-.722.751h-.278l-1.278.15-.333.15-.361.15-.306-.15-.39.15-.25-.601-.354-.789.291-.452-.041-.376.159-.64-.118-.415-.11-.603-.236-.075.11-.378.271-.339.556.302.389-.151.861.453.445-.302.416.151.195.604.659.49.285.414.466.489.034.414zm2.556 17.405l.306.441-.021.257.243.184 1.223.294.889-.147.584-.441h.389l.361.588h.473l.194.293-.194.44.917.44.472.293.306.146.334.147-.167.293.883.695-.327.329.216.402-.604.475-.035.548-.271.329-.5.292-.306-.292-.75-.146-.945.583-.5.146-.313.547-.604.473-.306-.146-.528.146-.034-.546-.299-.474-1.528-.292-.361-.583.188-.767v-.512l-.216-.037-.194-.292-.299-.476v-.513l.236-.219.069-1.101.41.11.521-1.064-.16-.552-.549-.405.549-.037zm134.852 7.03l.361-.146.444-.146.243.182.201.11.077.182-.14.656h-.152l-.396-.4-.188.4.188.036.084.292-1.091.036-.549.255.188.545-.104.182-.34.109-.209.072-.117.545-.89-.145-.091-.545-.347-.364v-.364l.021-.182-.229-.837-.208-.073.104-.255.222-.146h1.111l.111.291 1.028-.146zm-23.702 4.215l.438-.181-.104-.689.556-.29h.694l1.001.29-.16.544.077.181 1.111-.145.882.326.285-.036.194.436.528.145.222.145.64 1.013.166.289.556.579.258.253.326.325 1.39-.145.722.289.056.289.14.145.416-.145h1.028l.361-.433.584-.289.194-.145h.25l.361.289.417-.578.444-.145.466.325.194.794-.16.325-1.084.721-1 .289-.583.288-.807.432-.639.72-.806.432-.035.396-.243.179-.222-.287-.223.287-.035.323-.139.359-.465.323-.243-.395.208-.071.139-.646-.41-.179-.222-.144-.361-.719-.778-1.007-.583-.577-.056-.433-.361-.145h-.444l-.14.145h-2.473l-.25-.145-.528-.289-.222.145-.091.541-.188.325-.277.288-.584-.144-.223-.289-.5-.289-.861.144-.444.289-.389.864-.723.576-.5.431-.258.252-.382.18-.139.574-.556.574-.723.287-.556.287-.528-.287-.861-.574h-1.445l-.465-.61.021-.396-.222-.144v.288h-.223l-.021-.396.215-.18.444.144.64-.287.5-.144h.444l.577-.611.313-.973.75-.289.16-.397-.104-.324.007-.397.326-.325.445.145.556-.145 1.084-.145.688-.253.451-.326.479-.108.431-.795-.027-.652-.41-.907.973.29-.049.254.243.181zm-225.765 40.644l-.056-.414.236-.551-.077-.517-.278.827-.215-.173.181-.275-.069-.345-.007-.448-.327-.586.097-.622-.215-.449-.361-.276-.5-.276-.667.276-.132-.173-.063-.242-.583-.969-.327-.174-.09-.658-.417-.277-.028-.278-.583-.139-.25-.139-.667-.277-.083.277-.25.694h-.25l-.278.555h-.222l-.444-.555-.333-.556-.215-.451-.111-.903-.229-1.287-.257-.662-.319-1.046-.083-1.188.347-.349.111-.63-.493-.595-.577-.315v-.701l-.083-.421-.069-1.194-.215-.457-.243-.035-.083-.353.153-.141-.215-.458-.465-.176-.458-2.328-.347-.212-.083-.424-.257-.672-.091-.531-.569-.637-.278-.851-.153-.923-.327-.177-.354-.604-.028-.641-.202-.32-.361-.712-.306-.285-.306-.713-.333-.428-.104-.321.431-1-.208-.358.375-.5-.125-.931.236-.574-.319-.502-.028-.574.208-.431-.083-.504-.931-1.799-.063-.541.473-.145h.528l.417.577.5.289 1-.289.167.145.611.288.25.576.417.144.222-.144 1.112 1.007.444 1.15.611.144.09.538.347.358-.243.395-.639-.143.298.608-.243.537h-.25l-.028-.286-.549.179.348.286-.236.572.056.501.403.071.194.429-.153.214.66 1.177-.077-.535.215-.321.417.143h.278l.861.428.243.321.313.534.188.605-.348.498.354.463.243.035-.438.675h-.223l-.132-.249.104-.319-.528-.427-.41.604.236.355-.347.213-.202.532-.076.319.104.391-.048.744-.507.248-.243.035.465.672.389-.141.111-.425.243.177.278.779-.271-.248h-.528l.194.707h.473l.167.283h.389l.083-.283.167-.141.215.176-.104.53-.41.035-.174.248-.41.599.347.283-.048.528.215.035.028.774-.299.035-.049.247.16.175.361-.141.167.282h.5l.445-.282.063.669.264.07-.125.773.243.315.438.315-.181.352.215.456.243.035.055.491-.271.595-.271.035-.222.42-.118.804h.222l.389-.559.111-.42h.222l.028.28.389.14.445-.279 1.167.14-.063.664-.181.14.347.349.014.768.458.349-.098.627.236.07.396 1.08h.473l.222.695.444.139-.021.382.319.347.34.243.028.278.063.243.521.312.528.139 1.195-.139.382.312-.264.693.014 1.314-.153.069-.139.76.215.449.577.31-.125.759.903 1.446-.07.481.181.412.223.893.507.652.368 1.199.403.615.042.411-.306.888.326.581.007.512.597.886-.097.613.188.578.215.034-.132.646h-.5l-.25-.136-.444-.407-.556-.408h-.445l-.25-.545-.243.034.049.374h-.361l-.25-.136-.417-.545-.299-.716-.035-.375-.445-.956-.298-.17.333-.479.375-.479-.139-1.438-.41-.72-.306-.137-.583-.824-.473-.138-.667-.687zm131.155-32.458l.438.179.243.682-.243.609-.41.322-.646 1.966-.743-.464-.027-.357.347-.572-.319-.214-.118-.394-.104-.25.652-.215.091-1.398h.583zm72.963 11.995h-.473l-.473.423h-.222l-.139-.141-.361-.141-.361.141-.528.706-.188-.317.042-.777-.056-.777-.153-.566-.034-.389h-.861l-.223-.708-.611-.283-.41-.461-.646-.674-.445-.568-.104-.178-.111-.711.098-.925-1.098-2.496.027-.429-.111-1.074.743-.322.334-.43h.417l.194-.43.139-.287h1.084l.104.251.423.18.14.573.389.43.354.608.063.68.257.25.292.5-.098.357.14.285.458.499.223.713.146.25.306.285.361.569.188.178.139.356.563.746.701.249.743.177-.027.709-.118.249-.209.07-.041.708-.14.354-.159.46-.111.425-.056.424zm-70.219 27.075l-.389-.272-.389.272-.39.683-1.056.272-.778.272h-.361l-.889.409-.584-.409-.583.137-.556.136-.556.408-.084.272-.167.408-.583.136-.64.68-.806-.271-.188-.714-.118-.646-.361-.136-1.473-.137h-1l-.528.272-.306-.136-.027-.409h.389l.132-.307-.347-1.023.632-.17.299-.443.111-.752-.132-1.266-.445-.686-1.444-.274-.216-.308.521-.104.527-.137.334.137.215-.651-.041-.55-.091-.31h-.306l-.396-.584-.236-.412.152-2.137-.354-.725-.466-.726-.098-1.453-.771-1.005-.75-.277-.778-.278-1.278-.693-.861-.278-.611-.556-.632-.035.416-1.601.223-.278.243-.314h.556l.584-.419.639-.279.944-.279.528-.279.444-.14.417-.14.861-.279.584-.419.583-.14.751-.141.944-.28.167-.42h2.361l.39-.14.277-.14.14-.42.076-.175.284-.386.035-.526-.007-.175-.361-.843-.306.141-.243-.105.625-.492.201-.95h.417l.39-.282.389-.705.5.282h.528l.111-.282h.222l.223.423.215.035-.152.422.104.247 4.362.141v.281l.444.282.223-.142.473.282.306.562.611-.281v-.704h.833l.167-.281.194-.141h.306l.389-.141h.223l-.299.668.326.035.14.282.444-.563.243.035-.25.704-.236.352.514.351.14.492.146.175.104.175-.076.246-.361-.141-.188.526.409.035.111.42-.528.28-.076.175.104.245-.076.455.041 1.049-.264.698.326.313h.334l.188.314-.264.767.521.592.66.592.277 1.112.056.277-.319 2.012.194.554.431.623-.236.691.056.621.493 1.001-.076.724v1.17l.056.481-.139.481.104.171.465.034-.549.79h-.277l-.16.72.076.377.41.172.027.343-.444.821-.083.547-.403.341-.229.239-.25.273-.611.546-.389.137-.584-.272-.556-.137-.333.137-.389.136v-.682h-.584l-.667-.138-.361-.137-.777.956h-.443zm13.728 55.561l-.556-.89-.577-.286.132-.351.035-.413-.139-.701.549-.415h.889l.584-.511-.133-.99.334-.512.348-.896-.348-.704-.341-.354-.882-1.443-.25-.386.056-.193.438.097.556.386.694.129 1.057-.386.806-.386.861-.257.076-.226-.215-.547-.445.129-.576-.29.076-.226.466-.161-.216-.612-.09-.29-.16-.354-.306-.258-.723-.13-.583-.129-1.028.129-.466.807.181.58-.444.451-.236-.322.028-.838.152-.387-.111-1.034-.938-1.066-.466-.291-.646-.228-.611-.388-.473-.13-.132.227.264.648-.326.808-.444.518-1.001.258-.277.388-.5.259-.035.483-.299.419-.25-.129-.639.129-.25.258-.556.773h-.307l-.229.097-.167.129-.264.321-.111.257.152.322-.326.546-.278-.129-.11-.385h-.194l-.188.225-.09.16-.223.258-.139.385-.5.257-.723.257-1.695-.128-.722-.386h-.334l-1 .257-.611.257-.271.417-.201.353-.25.129-1.334.512-.639.385-1.278 1.023-.778.384-.861.255-1.056-.383-.417.255-.694.128h-.334l-.299-.287-.083-1.344.194-.896.167-.77.111-.385.097-.577-.111-.45-.632-.547-.076-.289.181-.579.451-.161.382-.29-.264-1.096.319-.193.396-1.13.25-.13.083.259.723-.129.806-.13.667-.388.604-.938.139-.454.056-.453.25-1.882-.166-1.301.083-1.237.083-1.305.153-1.241.409-1.08.535-1.146.493-.951.091-.625.277-.788.383-.296.277-.396.083-.263.174-.495.271-.296.472-.264.111-.66.007-.297.028-1.256.25-1.059.188-.431.632-.298-.181-.929-.007-.232-.299-.697-.257-.365-.389-.665-.64-.399-1.278-.533-.917-.133-.527-.4-.438-.699-.125-.868-.688-1.103-.777-.536-.611-.535-.361-.134-.306-.269-.716-1.106-.014-.47-.271-.437-1.056-.537.188-1.447.056-.472.313-.506.473-.54.917-.675.528-.405 1.167-.946 1.139-.542.5.136 1.084-.406.716-.848.063-.509.139-.406.723.135.528.136.444-.407.361-.271.306.408.527-.137.271-.305-.132-.782h.5l.75-.271.611-.137.64.137.534.169.243.103.834.136.694.136h.861l1.167-.136-.382.441.188.374h.39l.583.136.473-.136v-.407l.194-.136.473-.137h1.083l.39.137.694-.137.257-1.054.354-.578 1.195.136.639-.272.25-.272.695-.409 2.056-.546.834.683.993.715.341.783.972.272.633.577-.014 1.155.902 1.694v1.15l-.5 1.217-.792 1.281.542.674-.125.74.111.403.458 1.21.174.436.167.269 1.021 1.508.152.737.514 1.002-.027.468-.271.434.472.533.611.134.633-.101.25.733-.104.433.146.5.438.033.438.698.284.764.807-.266.242.166.369.896.556.133-.111-.398-.229-.764-.236-.398.41-.299h.473l.556.398.104-.632-.243-.565-.048-.366.854-.433.583-.134.167.4h.333l.306-.4h1.14l.027.533h.556l.271.433-.292.399.243.232h1.251v-.266h.333l.417.266.306.532.966.1-.251 1.526-.375.928-.146.365-.438.694-.584 1.454-.361 2.109.125 1.382-.25.854.674 1.148.466.557-.069.852.014.916-.882 2.121-.89.261-.306.131-.299.684-.069 1.496-.486.844v.325l.292.194-.056.843-.403.323-.368.097-.25.13-.194.776-.299.421.319.774-.11.969-.604.806-.771.29-.146 1.384-.611-.129-.299.418-.083.322-.056 1.026.125.577-.132.354-.667.384-.883.288-.194.832.542.256-.132.288-.278.383-.417.384-.667.383-.368.351-.319.447.181.191-.465.541-.223-.255h-.334l-.409.414-.007.351-1.084.127-.723 1.526-.444-.127-.299.476.111.571.132.35-.91.031.049.349.466.349-.077.158h-.389l-.444.507-.278.38-.201.222-.132.411v.505l-1.084.506-.778.127-.444.126-.528.378-.799 1.04.098.442-.326.534-.39.629-.611.126-.806-.503-.368-.85-.486-1.387.083-.505.799-.79.035-.663.194-.57.334-.887.569-.443.167-.761-.042-.572zm37.263 40.132l-.341 1.056-.598.784-.041.421-.473.843-.875 1.142-.508.93-.222.24-.452.809-.431.419-.723 1.913-.306.717-.306.716.125.298-.5 1.132-.139.416-.604 1.1-.433.277-.144.286.375.415-.084.298-.242.267-.584.354-.215-.385-.028-1.127.542-.415.152-1.249.611-1.667.306-.477.32-.418.041-.418.778-.717.194-.479.361-.838.466-.748.361-.6.201-.21.598-.78.152-.66.084-.241.597-.781.403-1.265.389-.604.167-.361.354-.513.333-.242h.556zm-85.134 117.521l.883.338.243.338-.069.571.604.234.445.519.299.493-.084.569-.139.777-.083.311-.167.517-.604.853-.326.388.056.464-.07.877-.299.541-.861-.412-.048.489.235.052.028.36-.493.334-1.174-1.932-.598-.36-.229-.491-.472-.413-.361-.517-.521-.749-.167-.725-.041-.674-.486-.727.277-.83.633-.649.611.312.583-.207.139-.416h1.057l.583-.104h.167z"/></g></svg>