<?xml version="1.0" encoding="UTF-8" standalone="no"?>
<svg
   viewBox="0 0 1024 1024"
   version="1.1"
   id="svg5"
   sodipodi:docname="tv.svg"
   xml:space="preserve"
   inkscape:version="1.3.2 (091e20e, 2023-11-25)"
   xmlns:inkscape="http://www.inkscape.org/namespaces/inkscape"
   xmlns:sodipodi="http://sodipodi.sourceforge.net/DTD/sodipodi-0.dtd"
   xmlns="http://www.w3.org/2000/svg"
   xmlns:svg="http://www.w3.org/2000/svg"><defs
     id="defs5" /><sodipodi:namedview
     id="namedview5"
     pagecolor="#ffffff"
     bordercolor="#666666"
     borderopacity="1.0"
     inkscape:showpageshadow="2"
     inkscape:pageopacity="0.0"
     inkscape:pagecheckerboard="0"
     inkscape:deskcolor="#d1d1d1"
     inkscape:zoom="0.29507386"
     inkscape:cx="-269.42407"
     inkscape:cy="372.78802"
     inkscape:window-width="1866"
     inkscape:window-height="1016"
     inkscape:window-x="1974"
     inkscape:window-y="27"
     inkscape:window-maximized="1"
     inkscape:current-layer="svg5" /><g
     id="g38"
     transform="matrix(0.60826442,0,0,0.60826442,140.1395,19.481582)"
     style="stroke-width:0.86639952;stroke-dasharray:none;fill:#e83c4b;fill-opacity:1">
	<g
   id="g11"
   style="stroke-width:0.86639952;stroke-dasharray:none;fill:#e83c4b;fill-opacity:1">
		<path
   fill="#0096c8"
   d="M 1223.844,703.207 C 1222.695,701.995 1221.033,701.243 1220.24,699.78 1219.665,697.189 1220,694.504 1219.958,691.892 1220.324,691.819 1221.076,691.673 1221.442,691.61 1221.244,691.234 1220.836,690.492 1220.627,690.126 1214.078,688.753 1217.766,701.826 1186.62,615.362 1178.229,590.684 1181.128,616.174 1157.042,519.556 1132.096,430.265 1168.8,450.8 1132.26,370.749 1123.326,353.353 1110.667,351.3 1100.781,302.003 1098.069,288.741 1072.734,232.994 1046.453,188.238 1030.599,161.468 1022.159,161.722 1009.687,142.372 997.026,123.449 999.313,74.37 921.404,55.123 849.163,38.01 833.059,36.765 817.522,37.978 806.866,38.401 760.595,46.498 731.882,37.978 705.276,32.173 680.563,10.439 609.675,28.711 581.532,36.97 585.689,47.374 568.417,52.448 556.813,55.934 537.386,59.187 541.838,73.323 545.16,80.386 553.717,83.29 561.083,82.611 594.699,75.995 600.298,96.844 613.081,96.778 714.802,100.646 620.932,65.533 812.758,65.09 834.061,65.014 869.557,74.054 875.559,75.757 893.622,80.85 898.47,92.512 907.32,96.548 916.872,102.143 932.527,97.649 937.253,120.912 939.674,132.369 932.901,138.152 945.758,145.757 949.676,148.286 954.534,147.241 958.922,147.345 977.957,146.356 993.44,160.387 998.832,176.327 1000.287,180.501 1001.832,192.46 1015.026,203.982 1019.456,208.224 1024.962,211.63 1027.866,217.23 1056.023,270.716 1045.723,267.186 1066.199,306.328 1098.561,375.459 1102.53,380.549 1106.245,392.772 1120.343,435.694 1120.149,527.075 1147.075,575.503 1156.948,593.222 1160.176,613.888 1159.215,633.969 1159.664,641.492 1149.783,670.193 1143.575,674.349 1119.893,686.607 1107.82,649.834 1090.344,752.999 1084.136,784.718 1084.938,764.783 924.34,883.596 916.462,889.781 908.616,896.05 899.913,901.054 892.558,906.173 884.158,909.893 877.764,916.287 851.66,941.665 857.047,936.093 841.876,942.135 830.592,946.419 817.502,942.772 806.813,948.989 805.131,949.929 803.146,950.796 802.383,952.708 789.523,981.4 780.318,982.496 747.898,1006.963 736.551,1015.183 732.291,1015.845 685.139,1033.981 682.172,1039.257 679.748,1045.714 682.684,1051.575 686.518,1054.49 691.512,1052.045 695.608,1050.99 709.075,1046.539 723.765,1048.18 737.033,1043.008 760.057,1034.442 754.309,1029.476 771.333,1011.55 780.442,1002.25 807.785,996.717 811.421,995.366 828.82,990.841 835.427,983.262 858.843,960.178 865.216,953.732 873.303,949.511 880.585,944.266 891.682,936.128 900.431,939.978 925.918,920.665 937.805,911.63 938.098,918.597 982.179,877.704 1008.659,852.814 1038.7,861.478 1064.434,850.153 1081.865,843.008 1168.833,763.847 1198.959,743.471 1206.68,738.111 1213.993,731.801 1219.186,723.882 1222.749,718.481 1222.09,711.773 1220.962,705.745 1221.901,704.889 1222.852,704.032 1223.844,703.207 Z M 1204.882,723.402 C 1202.479,723.966 1199.762,727.153 1197.579,724.509 1197.14,722.66 1198.028,720.852 1198.498,719.108 1201.204,719.63 1203.973,719.62 1206.72,719.254 1205.665,718.032 1204.683,716.851 1203.659,715.66 1206.01,712.442 1207.911,708.89 1210.544,705.881 1211.035,705.714 1212.007,705.369 1212.487,705.202 1212.621,725.467 1209.18,721.191 1204.882,723.402 Z"
   id="path1-3"
   style="stroke-width:0.86639952;stroke-dasharray:none;fill:#e83c4b;fill-opacity:1" />
		<path
   fill="#0096c8"
   d="M 342.412,163.717 C 348.607,162.61 352.755,157.48 357.258,153.562 360.894,150.114 365.209,147.523 369.116,144.42 374.34,140.272 376.774,133.366 382.667,129.971 393.376,123.989 397.112,124.25 426.213,120.881 439.792,119.437 436.212,114.023 464.138,114.487 469.289,113.599 473.875,110.663 478.577,108.49 482.213,103.13 484.104,95.953 481.555,89.768 472.597,79.165 440.365,91.815 427.885,96.831 407.869,106.079 416.249,97.632 386.805,101.658 343.289,107.712 362.538,115.463 351.032,121.216 332.461,132.399 340.944,134.582 335.757,144.452 332.748,148.171 328.015,149.948 324.923,153.583 323.095,155.902 323.116,159.026 322.562,161.795 328.777,164.501 335.788,164.752 342.412,163.717 Z"
   id="path2-6"
   style="stroke-width:0.86639952;stroke-dasharray:none;fill:#e83c4b;fill-opacity:1" />
		<path
   fill="#0096c8"
   d="M 284.124,267.254 C 285.879,273.529 299.088,280.373 309.094,297.678 311.998,302.641 311.445,309.014 315.143,313.579 329.42,331.828 333.413,331.148 336.352,338.351 339.476,345.299 344.815,352.403 352.849,353.573 358.493,350.347 353.292,342.426 356.652,335.843 359.045,331.309 363.767,328.843 367.768,325.949 381.241,316.89 400.924,289.599 398.181,272.478 383.976,241.336 363.77,259.746 338.723,251.489 332.59,249.849 330.145,242.922 324.201,240.989 303.833,233.679 308.377,222.2 299.409,219.394 296.149,218.266 291.5,216.667 289.128,220.178 284.813,226.259 282.744,234.021 283.632,241.439 285.338,258.106 282.25,260.286 284.124,267.254 Z"
   id="path3-7"
   style="stroke-width:0.86639952;stroke-dasharray:none;fill:#e83c4b;fill-opacity:1" />
		<path
   fill="#0096c8"
   d="M 298.531,336.565 C 294.864,336.962 291.792,339.271 288.585,340.901 288.269,349.246 287.508,348.649 302.104,359.07 304.852,361.389 308.644,360.01 311.361,358.359 313.9,355.852 312.709,351.944 312.374,348.831 311.355,344.625 312.786,340.346 298.531,336.565 Z"
   id="path4-5"
   style="stroke-width:0.86639952;stroke-dasharray:none;fill:#e83c4b;fill-opacity:1" />
		<path
   fill="#0096c8"
   d="M 392.404,363.039 C 399.464,360.473 397.771,344.456 385.059,352.549 381.256,355.192 376.356,357.24 374.82,362.004 380.556,363.217 386.585,364.387 392.404,363.039 Z"
   id="path5-3"
   style="stroke-width:0.86639952;stroke-dasharray:none;fill:#e83c4b;fill-opacity:1" />
		<path
   fill="#0096c8"
   d="M 419.014,367.876 C 414.051,370.269 412.213,378.355 417.207,381.709 431.781,388.402 429.422,374.706 432.408,369.788 433.787,367.584 433.62,364.951 433.432,362.475 422.669,363.349 429.072,362.092 419.014,367.876 Z"
   id="path6"
   style="stroke-width:0.86639952;stroke-dasharray:none;fill:#e83c4b;fill-opacity:1" />
		<path
   fill="#0096c8"
   d="M 365.501,389.754 C 371.508,392.721 377.61,395.573 383.231,399.251 383.659,393.682 382.74,387.853 384.997,382.576 387.066,384.697 389.437,386.692 390.743,389.419 392.603,394.298 391.422,400.086 394.421,404.579 396.772,406.146 399.655,405.394 402.184,404.767 405.968,395.084 404.301,380.859 395.372,375.628 385.677,370.937 374.403,372.87 364.154,374.374 366.557,377.749 369.096,381.019 371.906,384.08 369.001,385.042 366.337,386.609 365.501,389.754 Z"
   id="path7"
   style="stroke-width:0.86639952;stroke-dasharray:none;fill:#e83c4b;fill-opacity:1" />
		<path
   fill="#0096c8"
   d="M 132.642,797.915 C 139.799,798.061 145.963,793.423 150.361,788.178 151.086,786.366 148.772,744.285 148.574,742.344 145.016,724.617 134.776,714.774 114.305,690.952 99.321,673.524 88.805,627.827 106.344,598.531 117.25,580.316 125.803,561.899 135.619,552.498 178.152,507.344 259.88,553.287 266.038,514.928 266.058,500.433 258.024,499.067 266.498,460.642 271.829,445.033 283.367,453.565 294.017,445.514 298.98,442.494 301.936,437.062 303.19,431.535 301.464,412.271 291.944,416.808 285.962,406.638 284.384,399.638 286.359,392.262 284.228,385.304 243.258,393.23 261.322,415.526 250.691,429.299 236.39,446.558 204.99,452.374 206.048,478.362 206.382,481.611 204.282,485.602 200.657,485.435 195.047,484.327 190.585,480.148 184.902,479.208 155.464,474.284 122.045,511.054 91.729,536.775 86.369,541.194 88.908,549.448 84.102,554.233 77.28,562.351 64.126,560.846 58.202,570.019 54.817,576.413 53.083,583.799 48.068,589.274 42.322,595.825 30.735,591.771 26.107,599.816 19.828,610.306 28.531,622.947 23.62,633.792 20.883,639.204 15.805,644.177 16.589,650.717 22.755,668.969 56.971,682.72 68.786,694.681 82.775,707.98 77.096,705.084 83.455,713.456 88.206,719.74 100.816,730.045 104.591,749.971 106.189,758.371 109.972,766.123 114.412,773.363 123.384,787.818 119.134,797.096 132.642,797.915 Z"
   id="path8"
   style="stroke-width:0.86639952;stroke-dasharray:none;fill:#e83c4b;fill-opacity:1" />
		<path
   fill="#0096c8"
   d="M 125.862,895.424 C 130.825,897.117 136.56,898.026 140.071,902.32 145.909,909.268 147.153,907.095 169.063,902.78 176.011,901.558 181.496,896.741 187.973,894.286 195.474,890.786 203.812,890.076 211.585,887.464 217.133,885.677 223.015,886.262 228.74,886.21 241.144,885.65 243.011,901.939 257.524,892.698 259.799,891.247 278.161,883.892 254.212,868.532 244.432,859.91 226.428,862.463 219.996,861.292 189.529,855.647 198.287,852.769 185.842,849.674 155.26,843.689 178.857,849.622 144.365,827.002 137.605,822.393 125.008,822.157 124.316,830.377 119.676,864.941 126.573,865.846 125.538,882.657 125.318,886.909 125.391,891.182 125.862,895.424 Z"
   id="path9"
   style="stroke-width:0.86639952;stroke-dasharray:none;fill:#e83c4b;fill-opacity:1" />
		<path
   fill="#0096c8"
   d="M 520.786,1211.206 C 517.777,1210.935 514.82,1211.927 512.02,1212.888 504.09,1221.194 498.825,1231.433 493.434,1241.442 492.496,1243.399 479.233,1260.423 478.995,1271.385 479.026,1275.972 474.952,1278.949 473.656,1283.086 473.207,1286.471 473.76,1289.908 473.416,1293.325 473.228,1296.752 471.995,1300.304 473.176,1303.7 476.101,1312.758 477.564,1322.464 476.509,1331.961 474.027,1338.842 463.252,1340.591 464.776,1345.47 465.413,1349.451 467.158,1353.233 467.357,1357.307 462.849,1374.24 453.793,1365.561 450.609,1411.301 450.149,1417.319 452.166,1423.87 449.721,1429.522 445.124,1431.758 440.506,1434.014 436.588,1437.368 433.078,1440.68 427.937,1438.893 423.748,1440.461 419.005,1442.112 413.436,1442.488 408.85,1440.242 404.953,1435.237 405.757,1427.538 400.837,1423.076 396.574,1420.683 390.724,1421.749 387.171,1417.946 382.584,1413.015 382.731,1405.9 381.31,1399.736 379.774,1396.685 376.588,1399.705 374.488,1400.426 365.459,1406.111 359.771,1390.642 357.657,1387.951 349.677,1380.492 343.21,1382.37 341.014,1366.784 340.554,1362.271 336.344,1359.721 333.701,1356.493 329.522,1352.22 328.519,1345.972 324.81,1341.407 319.67,1335.525 310.768,1335.87 305.335,1330.426 291.72,1317.46 309.281,1306.351 305.534,1294.893 303.727,1294.444 301.919,1294.005 300.112,1293.608 297.824,1289.011 301.585,1284.612 301.46,1280.036 298.429,1276.046 282.005,1263.625 277.127,1247.188 276.162,1223.292 286.013,1221.814 284.158,1204.446 281.251,1174.825 278.229,1181.052 270.283,1163.825 268.173,1159.416 265.373,1154.631 266.94,1149.574 268.852,1143.587 270.283,1137.099 274.567,1132.283 286.181,1118.87 287.051,1117.545 297.145,1114.866 297.657,1113.121 298.514,1111.23 297.438,1109.527 288.747,1091.694 271.592,1089.097 266.001,1087.681 201.419,1071.45 195.895,1053.608 173.842,1027.325 158.949,1009.445 135.865,965.604 173.947,953.052 199.71,944.797 202.966,950.29 221.557,943.503 226.509,941.549 232.182,940.86 236.435,937.496 242.564,926.787 234.422,918.812 223.511,912.735 213.84,906.108 211.957,894.06 181.334,910.656 175.985,913.54 169.862,914.24 164.252,916.402 137.72,926.283 147.898,913.602 121.97,937.903 99.977,959.201 115.422,974.262 117.603,984.354 121.061,995.972 121.5,1009.408 130.328,1018.623 139.585,1028.58 146.606,1040.595 157.2,1049.287 162.485,1053.881 193.396,1091.711 200.579,1105.047 214.073,1129.687 216.783,1127.415 219.677,1136.171 222.028,1142.983 226.259,1148.99 228.14,1155.98 229.665,1161.413 231.682,1166.71 234.315,1171.714 238.86,1180.233 236.813,1183.741 243.405,1203.151 245.557,1209.587 244.492,1216.597 246.592,1223.054 252.111,1240.079 262.516,1291.286 267.676,1301.339 270.622,1308.078 276.034,1313.218 279.879,1319.403 291.634,1337.759 285.124,1342.678 289.031,1350.955 301.817,1378.522 299.735,1390.924 307.356,1408.752 311.316,1417.392 311.514,1427.119 314.878,1435.958 324.418,1461.494 314.133,1477.446 302.299,1496.409 297.545,1504.381 296.793,1513.825 294.881,1522.706 291.715,1534.867 286.784,1546.454 282.594,1558.26 274.64,1586.582 288.827,1602.98 295.392,1606.842 317.95,1620.035 319.201,1612.246 329.849,1617.321 347.999,1625.219 344.549,1621.61 367.795,1610.06 377.167,1605.494 385.055,1598.567 393.987,1593.27 402.471,1587.513 411.957,1583.115 419.375,1575.895 438.58,1557.528 456.271,1550.858 467.34,1546.558 488.586,1538.468 504.529,1543.031 513.362,1535.17 526.248,1525.782 516.837,1498.724 506.028,1485.052 499.658,1476.931 483.454,1448.74 482.771,1447.733 475.103,1436.208 465.974,1428.483 467.235,1396.717 468.108,1373.781 486.217,1364.877 497.648,1345.899 506.4,1331.442 488.375,1305.641 494.064,1285.992 504.468,1247.255 539.639,1215.188 520.786,1211.206 Z M 326.75,1549.326 C 319.294,1531.309 335.896,1523.73 341.241,1513.375 344.25,1506.156 342.589,1497.077 348.105,1490.944 352.127,1486.755 358.396,1490.004 361.29,1493.869 383.346,1531.9 382.73,1491.078 384.672,1483.557 385.685,1478.594 389.311,1474.677 390.283,1469.724 391.495,1464.312 392.456,1458.639 395.58,1453.938 398.004,1452.465 401.243,1453.186 403.061,1455.307 404.91,1456.958 404.565,1459.643 404.921,1461.889 405.757,1462.474 406.593,1463.07 407.449,1463.696 409.716,1461.753 411.931,1459.757 414.031,1457.647 447.229,1464.336 425.647,1444.994 449.052,1449.237 447.168,1455.58 449.587,1453.024 439.9,1459.319 440.746,1463.153 443.954,1465.42 446.952,1467.562 446.691,1470.163 445.876,1472.869 446.586,1475.481 449.114,1477.696 452.886,1477.696 455.989,1478.751 456.062,1480.412 456.146,1482.084 456.24,1483.776 454.474,1484.236 452.594,1484.455 450.995,1485.375 450.546,1486.587 450.452,1487.903 450.264,1489.199 459.282,1493.95 462.086,1490.645 454.391,1508.496 451.675,1514.859 445.197,1518.244 441.29,1523.76 437.205,1529.694 429.787,1531.073 423.874,1534.448 360.942,1570.021 375.367,1584.007 348.776,1582.006 342.175,1581.575 330.778,1559.389 326.75,1549.326 Z"
   id="path10"
   style="stroke-width:0.86639952;stroke-dasharray:none;fill:#e83c4b;fill-opacity:1" />
		<path
   fill="#0096c8"
   d="M 611.9,1105.413 C 608.394,1105.964 599.311,1122.592 586.627,1136.171 582.114,1141.719 576.639,1146.326 571.614,1151.352 568.248,1159.952 564.399,1173.242 573.421,1175.392 581.884,1177.519 601.033,1169.594 608.828,1165.561 619.416,1160.304 619.352,1138.967 624.061,1128.628 626.192,1123.885 628.177,1118.838 627.582,1113.531 627.659,1104.699 618.645,1105.055 611.9,1105.413 Z"
   id="path11"
   style="stroke-width:0.86639952;stroke-dasharray:none;fill:#e83c4b;fill-opacity:1" />
	</g>
	<g
   id="g37"
   style="stroke-width:0.86639952;stroke-dasharray:none;fill:#e83c4b;fill-opacity:1">
		<g
   id="g18"
   style="stroke-width:0.86639952;stroke-dasharray:none;fill:#e83c4b;fill-opacity:1">
			
			
			
			
			
			
			
			
		</g>
		<g
   id="g22"
   style="stroke-width:0.86639952;stroke-dasharray:none;fill:#e83c4b;fill-opacity:1">
			
			
			
			
		</g>
		<g
   id="g27"
   style="stroke-width:0.86639952;stroke-dasharray:none;fill:#e83c4b;fill-opacity:1">
			
			
			
			
			
		</g>
		<g
   id="g36"
   style="stroke-width:0.86639952;stroke-dasharray:none;fill:#e83c4b;fill-opacity:1">
			
			
			
			
			
			
			
			
			
		</g>
	</g>
</g></svg>
