<svg xmlns="http://www.w3.org/2000/svg" width="1024" height="1024" viewBox="0 0 1024 1024" fill="#e83c4b" stroke-linecap="round"><path d="M103.231 792.838l4.053-.157 3.054-3.283 6.602-4.665 8.983-3.993 3.488-2.778-2.273-1.96-3.969-1.912-1.876.192-4.353-.745-5.411-2.742-4.871-1.167-15.657 7.36-3.187 3.127-.793 3.92 4.052 3.403 12.158 5.4zm-6.446-31.904l-21.321-11.34-5.868-1.804-1.432-3.018-10.546-11.268-1.936 8.875-.998 7.227 3.331 6.181 1.575 5.412 2.381.36 5.869 2.67 4.1-1.648 24.845 1.648v-3.295z"/><path d="M978.078 231.437l-6.951 6.001-6.362 7.864-2.862 9.164 3.44 10.005-7.817 6.085 2.237 7.708 5.063 8.19.517 7.396 4.473 3.44 6.386 1.827 5.748-1.203 2.477-5.7-2.706-12.158 1.48-4.593 7.6-1.25-1.119-3.392-.733-1.287-1.612-1.792 4.666-9.897-2.321-7.865-5.796-8.105-5.808-10.438z"/><path d="M52.243 727.755l-16.656-5.279-3.583 7.504 4.894 13.854 8.682 13.504 4.522 2.43 9.488 1.431-1.575-5.412-3.331-6.18.998-7.228 1.936-8.875-5.375-5.749z"/><path d="M86.472 784.227l.882-4.36 3.357-3.295 15.893-7.47 5.099 1.22 5.396 2.735 4.211.721 1.949-.2 4.156 2.002 2.779 2.397-4.009 3.194-8.997 4-6.519 4.605-3.159 3.397-4.376.17-12.328-5.477-4.334-3.639zm16.856 8.107l3.73-.145 2.949-3.169 6.685-4.724 8.969-3.987 2.967-2.362-1.767-1.523-3.782-1.822-1.803.184-4.495-.769-5.426-2.749-4.643-1.113-15.421 7.25-3.017 2.96-.704 3.478 3.77 3.167 11.988 5.324zm-31.307-29.247l-4.193 1.686-6.001-2.73-2.628-.397-1.649-5.668-3.384-6.279.023-.16 1.004-7.267 2.139-9.805 11.25 12.02 1.371 2.89 5.704 1.753 21.628 11.504v4.13l-25.264-1.677zm24.264-1.853l-21.014-11.176-6.032-1.855-1.493-3.146-9.842-10.516-1.729 7.926-.973 7.046 3.278 6.083 1.501 5.156 2.134.323 5.737 2.61 4.007-1.61 24.426 1.62v-2.46z"/><path d="M984.309 241.607l5.829 8.151 2.398 8.128-4.605 9.77 1.426 1.584.784 1.377 1.318 3.993-7.876 1.297-1.344 4.173 2.711 12.184-2.644 6.086-6.123 1.282-6.596-1.889-4.727-3.634-.524-7.497-5.034-8.143-2.351-8.099 7.803-6.074-3.377-9.823 2.939-9.41 6.45-7.974 7.45-6.432 6.093 10.95zm-.846.536l-5.523-9.926-6.452 5.57-6.274 7.755-2.785 8.917 3.503 10.187-7.831 6.096 2.123 7.317 5.092 8.237.51 7.295 4.219 3.244 6.176 1.767 5.373-1.124 2.31-5.314-2.701-12.132 1.616-5.013 7.324-1.205-.92-2.789-.682-1.197-1.798-1.999 4.727-10.025-2.244-7.602-5.763-8.059z"/><path d="M56.175 742.467l-.973 7.046 3.278 6.083 1.809 6.214-10.347-1.562-4.713-2.53-8.783-13.663-4.982-14.104 3.859-8.083 17.196 5.45 5.643 6.036-1.987 9.113zm-4.208-14.275l-16.116-5.108-3.307 6.925 4.806 13.604 8.581 13.346 4.331 2.327 8.629 1.302-1.341-4.61-3.384-6.279 1.021-7.388 1.887-8.657-5.107-5.462z"/></svg>