<svg width="1024" height="1024" xmlns="http://www.w3.org/2000/svg" viewBox="0 0 1024 1024" fill="#e83c4b" stroke-linecap="round"><path d="M725.484 543.385l4.439 4.438.038 2.078-2.21 2.89-4.571 1.397.68 1.738-2.531 2.984-2.266-.604-1.322 3.456-4.231-1.719-1.738 4.231 1.303 7.442 2.248.358 2.021 3.06 4.382.888 2.531-4.193 3.758 1.851-.132 2.984 12.05 3.929 7.139-2.229 6.611 4.287 2.89-.585 4.438 2.304 2.399-.982 3.74 3.853 2.946.019 1.568 3.437 4.041.775 6.932 13.107-16.337 19.246-5.213 1.889-10.407 11.087-5.912 2.814-16.413 22.287-26.253 28.406-5.893 3.4-2.946 4.306-10.974 5.534-3.343 6.535-8.65 7.499-8.594 4.476-35.47 26.423-26.461 11.842-8.273-.547-11.049-3.381-11.445 1.095-6.837 4.004-3.268 4.439-.963 4.646 4.249 4.76-5.949 1.227-8.424-.925-9.236-3.721-9.141.019-4.911 2.455-.51 4.042-4.325 5.175 1.813 1.587-1.813 1.303-9.349-2.701-1.662 1.19-5.156-1.19-5.969-4.004-11.37-2.984-24.988-4.193-.585-2.607 2.909-3.853-6.951-2.606-.17-2.72-8.556-.037 2.267-3.967 6.289-3.834 5.345.472.265-2.247-3.532-3.117-.397-4.419-4.646-3.173-7.668-.151-1.53-2.437-26.612.661-1.096-4.646 1.776-.302 8.48-13.146.075-8.669 3.155-3.853 4.344-.944-1.455-5.175 3.041 4.098 2.682-3.022 9.085 2.153.34-3.362-5.968-6.591 2.209-1.36-4.193-11.937 5.742-4.042 3.192 1.417 2.078-2.928 10.463.302.397-5.666 4.797-3.381 5.969 4.005 7.592-4.118-.226-1.416 2.36.321 2.21-1.795.019-1.832-1.492-.132-.17-2.115 1.908-.151-1.058-1.946 2.928-.793 2.172-3.249-2.588-3.003-2.663.472 3.362-4.872-.945-1.644.227-3.078 5.232 1.851 2.399-3.287 9.424-.359.756-12.541 2.021-1.001.113-3.815 10.955-.34 1.737-2.153 1.719.944.189-2.568 17.584-7.31 8.046.529-.019-3.135 4.023-3.853-1.114-1.379 4.23-6.931-2.474-4.382 3.475-4.174-3.532-.454-.736-9.745 6.875-.775 1.492 3.211 5.817 1.454 5.931-3.853 1.19-4.06 2.549 1.473 5.497-3.117 3.739 1.341 1.152-2.701 6.082 5.232 7.725-.982 2.021 3.929 7.668 1.851-.264 1.133 8.461-2.323 2.342 1.983 3.966-1.19 1.795-3.456 3.041-.133-1.36-3.286 5.364.472.925-2.625 8.31-.548-.604-2.852 3.324.038-1.435-2.569 3.532-.982-2.38-2.852 2.229-.453 3.872-.359 13.485 16.054 7.215.17 1.416 2.455 9.387 1.587-.113-3.947 3.438-5.95-1.53-1.945 6.138-5.553-2.814-4.155 4.608-1.965 4.061-6.006 4.042.472 3.626-2.096 6.29 1.114 8.065-2.455 8.914-5.477z"/><path d="M730.391 547.625l.046 2.433-2.403 3.141-4.229 1.291.597 1.526-2.907 3.427-2.143-.571-1.343 3.509-4.24-1.724-1.508 3.67 1.221 6.975 2.121.338 2.026 3.071 3.864.782 2.584-4.28 4.424 2.18-.131 2.933 11.567 3.772 7.207-2.252 6.633 4.305 2.866-.582 4.391 2.282 2.493-1.02 3.823 3.94 3.05.018 1.592 3.491 4.025.77 7.187 13.592-16.625 19.584-5.226 1.894-10.39 11.068-5.885 2.803-16.358 22.211-26.32 28.48-5.862 3.381-2.954 4.318-10.945 5.519-3.315 6.48-8.76 7.594-8.611 4.484-35.481 26.433-26.616 11.912-8.443-.559-11.013-3.369-11.247 1.076-6.663 3.902-3.149 4.276-.895 4.312 4.637 5.194-6.824 1.409-8.564-.94-9.209-3.712-8.94.019-4.585 2.293-.495 3.929-4.118 4.927 1.914 1.674-2.484 1.785-9.349-2.701-1.649 1.18-5.449-1.258-5.974-4.008-11.274-2.957-25.279-4.242-.702-3.13 2.659-3.523-6.644-2.493-.163-2.583-8.924-.04 2.729-4.775 6.526-3.977 5.043.445.181-1.547-3.487-3.076-.392-4.386-4.346-2.969-7.784-.153-1.522-2.425-26.727.665-1.298-5.51 2.066-.351 8.294-12.856.075-8.698 3.364-4.11 4.015-.872-2.013-7.161 4.221 5.691 2.484-2.799 8.835 2.095.265-2.618-6.208-6.856 2.368-1.458-4.185-11.916 6.253-4.401 3.083 1.369 2.002-2.82 10.261.297.382-5.438 5.247-3.696 6 4.025 7.047-3.821-.274-1.715 2.788.38 1.879-1.526.013-1.173-1.454-.131-.24-2.982 1.653-.132-.996-1.832 3.334-.903 1.873-2.803-2.175-2.527-3.513.623 3.836-5.558-.869-1.511.283-3.84 5.483 1.94 2.325-3.186 9.227-.352.746-12.388 2.013-.995.117-3.978 11.183-.345 1.849-2.293 1.421.78.156-2.125 17.955-7.462 7.649.502-.017-2.831 3.857-3.695-1.051-1.299 4.26-6.979-2.499-4.423 3.135-3.765-3.062-.392-.798-10.583 7.664-.865 1.539 3.315 5.4 1.35 5.611-3.645 1.311-4.471 2.835 1.64 5.449-3.09 3.526 1.263 1.23-2.884 6.412 5.515 7.844-.997 2.074 4.031 7.914 1.909-.191.818 7.936-2.18 2.337 1.98 3.53-1.06 1.828-3.52 2.64-.116-1.401-3.382 5.776.508.906-2.575 8.078-.53-.614-2.896 3.098.034-1.33-2.381 3.406-.947-2.418-2.897 3.028-.618 4.144-.383 13.508 16.081 7.266.17 1.439 2.493 8.599 1.454-.1-3.507 3.345-5.787-1.605-2.042 6.161-5.574-2.905-4.289 5.007-2.134 4.144-6.129 4.172.487 3.639-2.104 6.348 1.124 7.899-2.404 9.179-5.64 4.837 4.837zm-13.625 1.671l-8.233 2.507-6.231-1.105-3.613 2.089-3.912-.457-3.977 5.883-4.21 1.794 2.723 4.021-6.115 5.533 1.454 1.85-3.53 6.11.127 4.388-10.175-1.719-1.394-2.417-7.164-.17-13.463-16.028-3.599.334-1.43.289 2.342 2.807-3.659 1.018 1.542 2.756-3.551-.04.595 2.807-8.543.564-.944 2.677-4.953-.437 1.321 3.19-3.444.15-1.76 3.392-4.402 1.32-2.348-1.987-8.987 2.467.338-1.449-7.422-1.792-1.968-3.827-7.606.967-5.751-4.948-1.075 2.517-3.953-1.418-5.544 3.143-2.264-1.307-1.069 3.651-6.25 4.06-6.235-1.558-1.444-3.107-6.086.684.674 8.909 4.004.514-3.817 4.584 2.45 4.34-4.202 6.884 1.178 1.458-4.189 4.012.021 3.439-8.443-.555-17.214 7.157-.221 3.012-2.017-1.109-1.626 2.014-10.726.334-.11 3.653-2.028 1.007-.765 12.694-9.623.366-2.472 3.387-4.981-1.763-.17 2.318 1.02 1.775-2.888 4.188 1.815-.322 2.998 3.479-2.471 3.695-2.521.684 1.12 2.058-2.163.17.1 1.249 1.53.134-.024 2.491-2.541 2.062-1.934-.262.18 1.118-8.139 4.414-5.934-3.983-4.35 3.065-.412 5.895-10.665-.308-2.153 3.035-3.302-1.464-5.23 3.683 4.201 11.958-2.051 1.262 5.728 6.327-.416 4.106-9.334-2.212-2.88 3.245-1.86-2.506.897 3.19-4.675 1.016-2.944 3.596-.076 8.641-8.667 13.434-1.485.253.894 3.784 26.497-.658 1.537 2.448 7.553.149 4.947 3.377.4 4.454 3.577 3.156-.347 2.948-5.648-.498-6.053 3.69-1.804 3.158 8.188.036.177 2.856 7.257 2.721-3.158 4.182.468 2.083 24.675 4.14 11.411 2.994.078.021 5.962 4 4.864 1.122 1.675-1.199 9.349 2.701 1.143-.822-1.713-1.5 4.533-5.422.525-4.155 5.236-2.618 9.343-.019 9.262 3.73 8.284.911 5.075-1.047-3.862-4.325 1.031-4.981 3.387-4.601 7.01-4.106 11.644-1.114 11.085 3.394 8.103.536 26.306-11.774 35.459-26.414 8.577-4.468 8.54-7.402 3.372-6.59 11.002-5.549 2.939-4.295 5.923-3.417 26.187-28.334 16.467-22.363 5.939-2.825 10.423-11.106 5.2-1.883 16.05-18.908-6.676-12.624-4.059-.778-1.543-3.385-2.843-.019-3.656-3.766-2.304.944-4.486-2.327-2.914.59-6.588-4.271-7.072 2.206-12.533-4.085.134-3.035-3.094-1.522-2.478 4.106-4.899-.994-2.016-3.048-2.374-.38-1.386-7.908 1.968-4.792 4.221 1.713 1.302-3.401 2.389.636 2.155-2.542-.763-1.949 4.912-1.503 2.018-2.639-.031-1.722-4.04-4.04-8.648 5.314z"/><path d="M652.353 364.693l4.193-2.361.68 1.681 6.025 1.039 1.058-1.946 4.703-.774 3.947-3.249 2.814 6.516 5.78 5.931 1.454-2.229 1.435 2.38 2.985-.737 1.699 1.322 5.27 1.02 1.549 3.041 2.814-1.397 3.513 3.229-1.039 2.04 5.534-2.72-1.719-1.303 1.549-1.492 11.672 5.043 5.421-2.72 2.852 1.398 3.022 7.177 4.684-.85 5.742 3.286.396 2.097 5.289.755 8.442 13.939 3.797-.699 1.001-2.361 2.852.076-2.909 1.303 3.4 6.309-4.816 3.569 1.983 8.669-4.873 12.277 2.342 3.74-.189 3.23-3.381 4.551-4.948.775-3.986 5.175-9.122 5.043-1.719 5.194-10.898 2.153-5.099 10.237-7.31-4.533-.982-4.307-2.247-1.548-11.767 2.606-2.493 4.382-8.499-.397-6.365 6.838-1.134 3.531-4.646-1.416-2.531 3.494-6.516-.925-1.341 5.704-3.947 2.436 1.624 1.681-1.7.208.586 1.7-6.403 6.062.831 2.078-4.061 2.04-.888 4.212-1.511.094.794 2.172-5.61 4.816-.056 1.87-7.461 1.7-4.136 2.266-.548 1.965-1.681-1.096 14.827 30.277 3.947.037-2.021 3.929 1.077 5.458-2.248.472 2.38 2.852-3.513.983 1.416 2.568-3.305-.038.604 2.871-8.31.548-.925 2.625-5.364-.472 1.36 3.287-3.041.132-1.795 3.475-3.985 1.171-2.342-1.983-8.442 2.323.245-1.133-7.668-1.851-2.021-3.929-7.725.982-6.082-5.231-1.152 2.7-3.758-1.341-5.496 3.117-2.55-1.473-1.209 4.06-5.931 3.853-5.817-1.435-1.473-3.211-6.875.756-3.759-3.249-4.381-.34-5.912-5.402-13.807-15.77-4.703-10.105-5.666-1.587-1.378-4.042-11.05-6.195-3.777-5.496-.34-2.077 26.574-56.643-2.587-.944.699-7.385 2.285-2.569 1.568-6.894-1.908-2.38 3.664-1.7 2.569-6.856-1.322-2.285 4.117-1.114 2.965-6.913 5.364-3.267 1.304-3.948 15.298-7.63 3.797.736 7.082-5.156 3.098 2.115 6.478.813 1.077 4.325 2.455-.019.774-5.761 7.159-5.911 1.718-4.458 3.117.17 1.341-1.794 7.895.245-3.287-2.021 2.078-5.061-3.91-5.459 4.137-1.397 1.454-2.305 2.738.34 2.116-5.118 3.437.548 2.267-3.362 5.647-2.456 2.739 2.55.963-4.967 5.194 3.475 6.289-.604.85 2.436 6.668-6.459 4.797 3.72 2.795-1.775 3.211-5.968z"/><path d="M656.782 361.658l.784 1.934 5.432.936 1.007-1.851 4.804-.791 4.335-3.566 3.028 7.013 5.307 5.445 1.543-2.365 1.645 2.726 2.869-.708 1.791 1.394 5.384 1.042 1.441 2.829 2.688-1.333 4.016 3.691-.56 1.097 3.576-1.759-1.549-1.172 2.172-2.093 11.759 5.079 5.434-2.726 3.22 1.579 2.945 6.99 4.48-.812 6.08 3.479.374 1.98 5.177.738 8.388 13.852 3.226-.593 1.027-2.423 5.247.138-4.337 1.943 3.353 6.222-4.898 3.63 1.948 8.51-4.839 12.192 2.295 3.664-.206 3.521-3.579 4.82-4.955.776-3.93 5.103-9.045 5-1.749 5.281-10.94 2.16-5.228 10.494-7.917-4.911-.984-4.317-1.927-1.328-11.362 2.516-2.533 4.451-8.569-.4-6.144 6.601-1.243 3.874-4.769-1.454-2.501 3.452-6.37-.905-1.286 5.474-3.615 2.232 1.875 1.94-2.062.253.494 1.436-6.391 6.051.873 2.182-4.244 2.132-.916 4.342-1.238.078.688 1.885-5.698 4.893-.063 2.027-7.751 1.766-3.904 2.14-.669 2.393-.785-.512 13.946 28.474 4.422.044-2.297 4.463 1.135 5.755-1.936.406 2.346 2.81-3.643 1.018 1.52 2.756-3.526-.04.595 2.826-8.543.564-.944 2.677-4.953-.437 1.319 3.19-3.44.15-1.762 3.413-4.423 1.299-2.346-1.987-8.954 2.465.313-1.445-7.43-1.794-1.968-3.827-7.606.967-5.751-4.948-1.073 2.517-3.974-1.418-5.543 3.143-2.267-1.309-1.088 3.653-6.248 4.06-6.236-1.539-1.426-3.109-6.741.741-3.796-3.281-4.39-.34-6.051-5.53-13.869-15.841-4.639-9.969-5.696-1.596-1.402-4.106-10.986-6.159-3.9-5.673-.38-2.327 26.417-56.309-2.445-.891.747-7.903 2.307-2.593 1.49-6.554-2.142-2.672 4.036-1.872 2.422-6.465-1.517-2.624 4.489-1.216 2.935-6.841 5.344-3.256 1.31-3.968 15.618-7.791 3.753.729 7.185-5.232 3.279 2.238 6.686.839 1.065 4.278 1.673-.012.745-5.537 7.205-5.952 1.798-4.663 3.207.176 1.337-1.789 6.367.198-2.117-1.301 2.13-5.192-4.128-5.764 4.582-1.547 1.524-2.418 2.68.333 2.119-5.13 3.509.559 2.174-3.226 6.059-2.635 2.341 2.182.936-4.83 5.646 3.778 6.489-.626.729 2.089 6.432-6.229 4.857 3.768 2.412-1.531 3.217-5.98 4.78-2.691zm-7.283 9.335l-3.179 2.02-4.736-3.674-6.904 6.69-.971-2.784-6.089.583-4.742-3.173-.99 5.106-3.137-2.918-5.236 2.275-2.359 3.498-3.365-.536-2.112 5.107-2.797-.347-1.385 2.19-3.69 1.249 3.69 5.152-2.024 4.932 4.455 2.74-9.423-.292-1.345 1.8-3.025-.165-1.64 4.252-7.111 5.872-.804 5.983-3.238.027-1.087-4.373-6.271-.785-2.916-1.993-6.981 5.081-3.84-.745-14.979 7.47-1.296 3.927-5.385 3.279-2.995 6.984-3.745 1.013 1.127 1.947-2.716 7.247-3.292 1.528 1.674 2.087-1.646 7.234-2.264 2.544-.65 6.867 2.729.998-26.731 56.977.301 1.828 3.654 5.319 11.112 6.23 1.356 3.978 5.636 1.577 4.767 10.241 13.744 15.701 5.772 5.273 4.374.34 3.721 3.217 7.009-.771 1.52 3.313 5.398 1.331 5.614-3.647 1.329-4.467 2.833 1.638 5.449-3.09 3.544 1.264 1.231-2.885 6.412 5.516 7.844-.998 2.074 4.031 7.906 1.907-.177.822 7.93-2.181 2.339 1.979 3.547-1.043 1.826-3.537 2.642-.115-1.401-3.383 5.776.508.906-2.574 8.078-.533-.614-2.914 3.085.036-1.313-2.382 3.383-.946-2.414-2.894 2.559-.538-1.018-5.162 1.745-3.394-3.473-.034-15.707-32.076 2.577 1.679.426-1.536 4.369-2.393 7.17-1.633.051-1.714 5.52-4.738-.899-2.459 1.785-.112.86-4.081 3.877-1.948-.789-1.973 6.414-6.075-.676-1.964 1.337-.162-1.373-1.422 4.28-2.641 1.395-5.934 6.662.946 2.561-3.536 4.523 1.379 1.024-3.19 6.586-7.073 8.429.393 2.454-4.312 12.171-2.697 2.569 1.769.98 4.295 6.701 4.155 4.971-9.98 10.856-2.145 1.689-5.107 9.2-5.087 4.04-5.246 4.943-.773 3.182-4.284.172-2.938-2.389-3.816 4.907-12.361-2.019-8.828 4.735-3.509-3.034-5.631-.364.858-4.367.804-8.497-14.025-5.4-.773-.419-2.213-5.404-3.094-4.888.888-3.099-7.365-2.484-1.216-5.407 2.714-11.586-5.007-.925.892 1.888 1.433-7.492 3.681 1.518-2.982-3.01-2.769-2.941 1.462-1.656-3.252-5.155-.998-1.609-1.25-3.099.765-1.226-2.034-1.366 2.093-6.251-6.416-2.601-6.02-3.56 2.932-4.601.757-1.109 2.04-6.618-1.141-.576-1.428-3.606 2.03-3.205 5.957z"/><path d="M704.652 277.037l7.026-.774 1.397 3.721-6.327 3.003-1.719 13.24 2.645 9.443 7.611.68 5.364-6.497 4.873-1.322 1.171 4.117-4.646 1.87.755 3.494-2.323 4.325.378 2.852-3.116-.529-1.738 9.199-10.879-1.908-2.55 4.741-5.175.68 2.89 8.121 4.608 1.492.151 3.438 3.457 2.172 6.572-1.814 2.135 4.42-5.478 2.682-.113 3.249-9.689 1.643-4.212 5.572-4.476 1.416-1.001 3.494 1.322 1.889-4.231 2.191 1.001 2.512-1.209 2.417-1.699-1.322-2.985.737-1.435-2.38-1.454 2.229-5.78-5.931-2.814-6.516-3.947 3.249-4.703.774-1.058 1.946-6.025-1.039-.68-1.681-4.193 2.361 1.417-7.838-1.7-2.135 3.286-7.215-4.684.17-1.473-2.342-6.875 1.53.453 1.398-6.478 2.493-2.097-6.384 6.819-5.364-1.719-7.479 3.249.377.151-2.058 2.833-.416 2.228-13.485 8.537-4.628 2.229 4.514 2.512-1.341.189 2.154 10.294-2.701.528-4.817 1.417-.509-2.191-5.534 3.929-.605 4.268-4.476-1.662-7.272 3.721-.604-.831 2.814 8.65-2.115v-5.213l9.821-.453.359-2.55 5.459 1.303 3.116-3.324-1.738.094-1.718-3.645z"/><path d="M711.991 275.753l1.679 4.47-6.487 3.079-1.674 12.891 2.531 9.035 7.039.629 5.302-6.42 5.468-1.484 1.415 4.975-4.671 1.879.708 3.275-2.334 4.344.441 3.336-3.29-.558-1.737 9.2-11.002-1.93-2.503 4.654-4.837.636 2.616 7.351 4.699 1.523.155 3.516 3.071 1.931 6.751-1.863 2.51 5.196-5.644 2.765-.117 3.349-9.884 1.677-4.191 5.542-4.378 1.386-.869 3.033 1.504 2.148-4.331 2.242.922 2.312-1.562 3.122-1.974-1.536-3.099.765-1.226-2.034-1.366 2.093-6.251-6.416-2.601-6.02-3.56 2.932-4.601.757-1.109 2.04-6.618-1.141-.576-1.428-4.601 2.591 1.558-8.616-1.747-2.193 3.09-6.782-4.193.151-1.441-2.291-6.042 1.345.431 1.329-7.361 2.833-2.353-7.169 6.843-5.383-1.802-7.84 3.424.398.142-1.945 2.867-.421 2.21-13.372 9.171-4.973 2.231 4.518 2.712-1.449.202 2.308 9.438-2.476.527-4.786 1.235-.446-2.23-5.63 4.355-.671 3.982-4.176-1.717-7.515 4.958-.806-.811 2.748 7.493-1.832v-5.294l9.88-.456.378-2.676 5.696 1.36 2.125-2.267-.88.05-2.137-4.532 8.048-.887zm-5.757 7.524l-1.086 1.158-5.22-1.246-.34 2.423-9.763.451v5.132l-9.808 2.399.852-2.881-2.484.403 1.608 7.028-4.556 4.776-3.502.538 2.152 5.438-1.598.574-.531 4.847-11.149 2.925-.176-1.998-2.312 1.233-2.226-4.51-7.903 4.282-2.247 13.599-2.8.41-.16 2.172-3.073-.357 1.636 7.118-6.794 5.345 1.84 5.598 5.596-2.153-.476-1.465 7.708-1.715 1.505 2.393 5.175-.189-3.483 7.647 1.653 2.076-1.275 7.06 3.785-2.13.784 1.934 5.432.936 1.007-1.851 4.804-.791 4.335-3.566 3.028 7.013 5.307 5.445 1.543-2.365 1.645 2.726 2.869-.708 1.426 1.108.856-1.713-1.081-2.712 4.131-2.14-1.141-1.63 1.133-3.955 4.575-1.447 4.233-5.602 9.494-1.609.11-3.148 5.311-2.599-1.759-3.643-6.395 1.764-3.841-2.414-.148-3.358-4.518-1.462-3.163-8.892 5.513-.724 2.597-4.827 10.756 1.885 1.738-9.196 2.942.5-.313-2.368 2.312-4.307-.803-3.713 4.622-1.86-.928-3.26-4.278 1.159-5.426 6.575-8.184-.731-2.757-9.851 1.684-12.984z"/><path d="M756.95 116.364l12.315 2.795 9.821 6.138 4.835-.774 3.192 3.022 26.424-3.192 21.191 3.664 14.657 43.252-.076 15.468 6.497 7.952 3.551 13.901 5.553 3.928-4.816.586-3.721 4.684-2.644-2.172-2.796 2.115-6.95-1.851-2.172 2.286-7.215 1.813 10.954-.302v2.927l-2.644 2.474.491 5.667-4.287 5.533 2.701 1.681-1.039 1.927 4.401.075-2.191 2.078 1.152 1.738 7.101 2.984v2.871l-3.985.472-2.568 3.286h-6.611l.869 6.082 6.176.661-.434 7.895-6.875-.756-3.891 2.38-7.442.019-2.625-2.757-1.398-7.518-4.74-2.323.302-7.725-4.344-3.097 1.926-2.644-4.042-3.532-6.478 3.872-2.096-1.001-.038 3.305-2.852 2.852-1.946-2.569-7.082-2.361-.793 2.267-5.723-1.511-.189 3.381-2.644-2.04-4.401.151.491 5.666 2.682 2.267-.718 3.569-2.89.378-12.238 10.067-.019 1.813-3.4.321 3.249 5.156-2.21.756-1.511 3.456-8.688-1.511-7.423-10.69-3.286 1.001 1.605-2.682-1.605-6.082-5.062-1.265-2.814.755-.661 5.855-5.194 2.21-1.946-4.287-5.609-1.606.793 4.023-10.199-.226-6.422 3.324.076 4.08-7.215 1.699-.057 1.757-4.684 1.454.246 3.136 12.05-3.778 1.718 3.645 1.738-.094-3.116 3.324-5.459-1.303-.359 2.55-9.821.453-3.57-5.874-4.457.491-.264-2.739-2.682-.453.491-2.531 1.87-.434 4.816 1.662.85-3.513-7.083-3.589-6.006-1.322-4.25 1.266.888-2.72-3.551-.831-.283 3.041-5.459.868-4.306-1.983-3.947 7.404-2.55-2.814-6.233.718-2.984-3.721-6.611-.302-1.454-4.193-3.532-1.341-1.114-9.085-2.021.057-.246 2.719-10.973 5.289-2.833-.189-3.362-2.531-10.218-.548-1.813-3.645.226-5.742 3.532-2.625 4.099-7.517 5.383-3.06.755-2.682 8.896-4.287.246-8.499 6.837-24.422 1.152 2.191 1.398-.529.075-3.078 4.533-2.588-.699-2.228 3.211.566-.604-1.662 5.59-2.531 1.19-2.738 2.115 1.359 1.455-1.888.661 1.718 1.473-2.039 4.136-.34 3.608-8.537 4.098-.831 2.607 1.567 2.058-3.059-.963-1.833 8.235-4.551.283-5.024 5.119-2.871.038-3.74 5.364-3.664 2.304-5.194 7.064-4.967 8.159.547 15.525-5.42 1.794-2.002 2.456.699 5.742-12.787 5.741-.151 2.418-1.719 6.554 1.209 16.62-3.456z"/><path d="M769.448 118.717l9.738 6.085 4.89-.782 3.202 3.03 26.27-3.175 21.537 3.725 14.772 43.591-.076 15.378 6.458 7.903 3.532 13.833 6.41 4.534-5.838.711-3.898 4.907-2.728-2.241-2.682 2.031-6.903-1.838-2.074 2.182-3.175.797 7.14-.197v3.617l-2.626 2.459.486 5.621-4.08 5.266 2.635 1.639-.882 1.634 4.78.083-2.742 2.599.855 1.288 7.259 3.05v3.604l-4.207.499-2.589 3.312h-6.297l.74 5.179 6.258.671-.488 8.839-7.209-.791-3.866 2.364-7.778.019-2.861-3.005-1.381-7.422-4.803-2.354.304-7.777-4.525-3.226 1.953-2.681-3.458-3.021-6.401 3.824-1.659-.791-.03 2.759-3.371 3.372-2.185-2.884-6.501-2.169-.784 2.24-5.587-1.475-.206 3.698-3.218-2.483-3.734.128.43 4.977 2.746 2.319-.838 4.176-3.092.404-11.963 9.841-.021 2.019-3.06.289 3.158 5.01-2.578.882-1.577 3.606-9.247-1.609-7.338-10.569-4.13 1.257 2.132-3.562-1.483-5.619-4.672-1.169-2.386.641-.655 5.809-5.872 2.499-2.046-4.508-4.657-1.334.757 3.842-10.666-.238-6.053 3.135.077 4.167-7.233 1.703-.057 1.732-4.644 1.443.17 2.168 11.876-3.724 1.758 3.73 2.595-.14-4.108 4.382-5.22-1.246-.34 2.423-10.494.485-3.558-5.857-4.635.51-.276-2.854-2.801-.474.641-3.307 2.3-.534 4.456 1.537.638-2.644-6.696-3.394-5.828-1.283-4.996 1.489 1.009-3.088-2.524-.59-.266 2.866-5.963.95-4.03-1.857-4.055 7.602-2.837-3.131-6.252.719-3.012-3.756-6.718-.308-1.487-4.288-3.592-1.363-1.096-8.942-1.173.034-.232 2.569-11.327 5.459-3.097-.206-3.36-2.529-10.348-.556-1.989-4 .24-6.087 3.63-2.699 4.113-7.544 5.33-3.031.762-2.699 8.827-4.256.24-8.27 7.174-25.621 1.509 2.873.71-.268.074-3.028 4.434-2.531-.818-2.608 3.172.561-.474-1.305 5.822-2.637 1.34-3.08 2.217 1.426 1.702-2.212.651 1.688 1.09-1.509 4.068-.334 3.593-8.503 4.523-.916 2.378 1.43 1.651-2.454-1.046-1.99 8.41-4.65.283-5.023 5.106-2.863.037-3.713 5.457-3.727 2.304-5.192 7.306-5.137 8.231.552 15.319-5.349 1.91-2.131 2.345.667 5.697-12.685 5.895-.155 2.462-1.75 6.66 1.227 16.63-3.458 12.494 2.837zm-29.113 1.584l-6.448-1.189-2.372 1.686-5.589.148-5.787 12.888-2.565-.731-1.679 1.874-15.731 5.492-8.089-.544-6.82 4.798-2.305 5.196-5.271 3.601-.038 3.766-5.132 2.879-.283 5.026-8.059 4.453.88 1.674-2.467 3.666-2.835-1.706-3.673.746-3.623 8.571-4.204.346-1.857 2.571-.672-1.749-1.205 1.565-2.013-1.293-1.041 2.396-5.358 2.425.734 2.019-3.25-.572.58 1.849-4.633 2.644-.076 3.13-2.085.79-.795-1.51-6.501 23.222-.251 8.728-8.964 4.32-.75 2.665-5.436 3.088-4.083 7.49-3.434 2.552-.213 5.396 1.637 3.29 10.086.54 3.366 2.535 2.568.17 10.621-5.118.258-2.871 2.869-.08 1.134 9.229 3.471 1.318 1.422 4.099 6.503.296 2.956 3.685 6.214-.716 2.263 2.497 3.839-7.205 4.582 2.109 4.955-.787.3-3.217 4.578 1.073-.767 2.351 3.504-1.042 6.184 1.362 7.469 3.783-1.061 4.382-5.179-1.787-1.437.334-.342 1.755 2.561.432.255 2.624 4.28-.472 3.581 5.891 9.149-.422.378-2.676 5.696 1.36 2.125-2.267-.88.05-1.679-3.561-12.224 3.831-.321-4.101 4.723-1.467.057-1.781 7.196-1.696-.074-3.993 6.79-3.513 9.733.215-.829-4.204 6.561 1.877 1.845 4.067 4.516-1.921.667-5.901 3.243-.87 5.451 1.361 1.728 6.545-1.078 1.802 2.442-.744 7.507 10.811 8.129 1.412 1.445-3.307 1.842-.629-3.339-5.301 3.739-.354.017-1.607 12.515-10.293 2.688-.352.596-2.963-2.617-2.214-.552-6.355 5.068-.174 2.07 1.596.17-3.064 5.86 1.547.803-2.293 7.664 2.554 1.706 2.253 2.333-2.332.043-3.851 2.537 1.21 6.555-3.919 4.626 4.042-1.9 2.608 4.162 2.969-.3 7.672 4.679 2.293 1.414 7.612 2.389 2.51 7.106-.019 3.915-2.395 6.541.72.381-6.951-6.095-.651-.997-6.985h6.924l2.548-3.26 3.764-.446v-2.138l-6.945-2.918-1.448-2.187 1.639-1.554-4.021-.07 1.196-2.219-2.767-1.723 4.493-5.802-.495-5.71 2.663-2.491v-2.238l-14.77.408 11.255-2.829 2.271-2.39 6.997 1.865 2.909-2.201 2.561 2.104 3.543-4.461 3.795-.461-4.696-3.322-3.569-13.969-6.537-8.001.075-15.559-14.541-42.912-20.846-3.603-26.576 3.209-3.182-3.015-4.781.767-9.904-6.191-12.135-2.754-16.612 3.454z"/><path d="M865.061 213.406l1.719 11.748 3.645 6.063 1.114 8.008 1.133 43.95-2.549 11.541 1.511 8.197-3.646 10.463 2.154 6.554-5.515 2.531-21.815-15.11-5.1 1.322-9.141 9.5-7.31 16.961-7.422 10.124-1.851 8.008.812 14.203 1.454.661 2.966-2.606.717 3.721 3.154 3.173-.245 5.42 8.518 9.803 6.856 2.757-5.345 6.894-3.626-1.926-7.253 1.114-1.983-2.852-4.155 1.964-7.234-3.626-5.213 2.285-6.686-.302-2.984-2.493-11.54 6.648-4.099-1.341-2.436 1.398-4.099-1.341-4.023 1.322-2.285 4.382-1.492-.699-2.852-.076-1.001 2.361-3.797.699-8.442-13.939-5.289-.755-.396-2.097-5.742-3.286-4.684.85-3.022-7.177-2.852-1.398-5.421 2.72-11.672-5.043-1.549 1.492 1.719 1.303-5.534 2.72 1.039-2.04-3.513-3.229-2.814 1.397-1.549-3.041-5.27-1.02 1.209-2.417-1.001-2.512 4.231-2.191-1.322-1.889 1.001-3.494 4.476-1.416 4.212-5.572 9.689-1.643.113-3.249 5.478-2.682-2.135-4.42-6.572 1.814-3.457-2.172-.151-3.438-4.608-1.492-2.89-8.121 5.175-.68 2.55-4.741 10.879 1.908 1.738-9.199 3.116.529-.378-2.852 2.323-4.325-.755-3.494 4.646-1.87-1.171-4.117-4.873 1.322-5.364 6.497-7.611-.68-2.645-9.443 1.719-13.24 6.327-3.003-1.397-3.721-7.026.774-12.05 3.778-.246-3.136 4.684-1.454.057-1.757 7.215-1.699-.076-4.08 6.422-3.324 10.199.226-.793-4.023 5.609 1.606 1.946 4.287 5.194-2.21.661-5.855 2.814-.755 5.062 1.265 1.605 6.082-1.605 2.682 3.286-1.001 7.423 10.69 8.688 1.511 1.511-3.456 2.21-.756-3.249-5.156 3.4-.321.019-1.813 12.238-10.067 2.89-.378.718-3.569-2.682-2.267-.491-5.666 4.401-.151 2.644 2.04.189-3.381 5.723 1.511.793-2.267 7.082 2.361 1.946 2.569 2.852-2.852.038-3.305 2.096 1.001 6.478-3.872 4.042 3.532-1.926 2.644 4.344 3.097-.302 7.725 4.74 2.323 1.398 7.518 2.625 2.757 7.442-.019 3.891-2.38 6.875.756.434-7.895-6.176-.661-.869-6.082h6.611l2.568-3.286 3.985-.472v-2.871l-7.101-2.984-1.152-1.738 2.191-2.078-4.401-.075 1.039-1.927-2.701-1.681 4.287-5.533-.491-5.667 2.644-2.474v-2.927l-10.954.302 7.215-1.813 2.172-2.286 6.95 1.851 2.796-2.115 2.644 2.172 3.721-4.684 4.816-.586.151.888z"/><path d="M865.527 213.338l1.706 11.653 3.647 6.065 1.131 8.129 1.136 44.036-2.543 11.502 1.517 8.227-3.634 10.43 2.234 6.803-6.142 2.82-21.858-15.14-4.761 1.233-8.989 9.344-7.298 16.93-7.396 10.088-1.813 7.848.791 13.851.916.418 3.356-2.95.847 4.389 3.199 3.218-.247 5.438 8.319 9.576 7.331 2.948-5.971 7.702-3.839-2.039-7.389 1.135-1.923-2.767-4.002 1.892-7.241-3.63-5.111 2.24-6.956-.313-2.852-2.384-11.438 6.588-4.099-1.341-2.436 1.398-4.152-1.358-3.692 1.214-2.407 4.612-1.813-.848-2.431-.066-.974 2.299-4.367.804-8.497-14.025-5.4-.773-.419-2.213-5.404-3.094-4.888.888-3.099-7.365-2.484-1.216-5.407 2.714-11.586-5.007-.925.892 1.888 1.433-7.492 3.681 1.518-2.982-3.01-2.769-2.941 1.462-1.656-3.252-5.655-1.094 1.392-2.786-1.081-2.712 4.131-2.14-1.141-1.63 1.133-3.955 4.575-1.447 4.233-5.602 9.494-1.609.11-3.148 5.311-2.599-1.759-3.643-6.395 1.764-3.841-2.414-.148-3.358-4.518-1.462-3.163-8.892 5.513-.724 2.597-4.827 10.756 1.885 1.738-9.196 2.942.5-.313-2.368 2.312-4.307-.803-3.713 4.622-1.86-.928-3.26-4.278 1.159-5.426 6.575-8.184-.731-2.757-9.851 1.764-13.59 6.166-2.927-1.116-2.971-6.614.729-12.573 3.94-.321-4.103 4.723-1.465.057-1.781 7.196-1.696-.074-3.993 6.79-3.513 9.733.215-.829-4.204 6.561 1.877 1.845 4.067 4.516-1.921.667-5.901 3.243-.87 5.451 1.361 1.728 6.545-1.078 1.802 2.442-.744 7.507 10.811 8.128 1.412 1.446-3.307 1.842-.629-3.339-5.301 3.739-.354.017-1.607 12.515-10.293 2.688-.352.596-2.963-2.617-2.214-.552-6.355 5.068-.174 2.07 1.596.17-3.064 5.86 1.547.803-2.293 7.664 2.554 1.706 2.253 2.333-2.332.043-3.851 2.537 1.21 6.555-3.919 4.626 4.042-1.9 2.608 4.162 2.969-.3 7.672 4.679 2.293 1.414 7.612 2.389 2.51 7.106-.019 3.915-2.395 6.541.72.381-6.951-6.095-.651-.997-6.985h6.924l2.548-3.26 3.764-.446v-2.138l-6.945-2.918-1.448-2.187 1.639-1.556-4.021-.068 1.196-2.219-2.767-1.723 4.493-5.802-.495-5.712 2.663-2.489v-2.238l-14.77.408 11.255-2.829 2.271-2.39 6.997 1.865 2.909-2.201 2.561 2.102 3.543-4.459 5.455-.663.075.444.153.899zm-1.006-.296l-4.178.508-3.898 4.907-2.728-2.241-2.682 2.031-6.903-1.838-2.074 2.182-3.175.797 7.14-.197v3.617l-2.626 2.459.488 5.621-4.082 5.266 2.635 1.639-.882 1.634 4.78.083-2.742 2.599.855 1.288 7.259 3.05v3.604l-4.207.499-2.589 3.312h-6.297l.74 5.179 6.258.671-.488 8.839-7.209-.791-3.866 2.364-7.778.019-2.861-3.005-1.381-7.422-4.803-2.354.304-7.777-4.525-3.226 1.953-2.681-3.458-3.021-6.401 3.824-1.657-.791-.032 2.759-3.371 3.372-2.185-2.884-6.501-2.169-.784 2.24-5.587-1.475-.206 3.698-3.218-2.483-3.734.128.43 4.977 2.746 2.319-.838 4.176-3.092.404-11.963 9.841-.021 2.019-3.06.289 3.158 5.01-2.578.882-1.577 3.606-9.247-1.609-7.338-10.569-4.13 1.257 2.132-3.562-1.483-5.619-4.672-1.169-2.386.641-.655 5.809-5.872 2.499-2.046-4.508-4.657-1.334.757 3.842-10.666-.238-6.053 3.135.077 4.167-7.233 1.703-.057 1.732-4.644 1.443.17 2.168 11.527-3.615 7.437-.819 1.679 4.47-6.487 3.079-1.674 12.891 2.531 9.035 7.039.629 5.302-6.42 5.468-1.484 1.415 4.975-4.671 1.879.708 3.275-2.334 4.344.441 3.336-3.29-.558-1.737 9.2-11.002-1.93-2.505 4.654-4.835.636 2.616 7.351 4.699 1.523.155 3.516 3.071 1.931 6.751-1.863 2.51 5.196-5.644 2.765-.117 3.349-9.884 1.677-4.191 5.542-4.378 1.386-.869 3.033 1.504 2.148-4.331 2.242.922 2.312-1.026 2.049 4.884.946 1.441 2.829 2.688-1.333 4.016 3.691-.56 1.097 3.576-1.759-1.549-1.172 2.172-2.095 11.759 5.081 5.434-2.726 3.22 1.579 2.945 6.99 4.48-.812 6.08 3.479.374 1.98 5.175.738 8.39 13.852 3.226-.595 1.027-2.421 3.273.085 1.171.549 2.165-4.151 4.353-1.43 4.046 1.324 2.436-1.398 4.099 1.341 11.642-6.708 3.116 2.602 6.416.291 5.315-2.33 7.226 3.622 4.308-2.036 2.044 2.937 7.117-1.094 3.413 1.814 4.72-6.086-6.382-2.567-8.717-10.031.244-5.401-3.109-3.128-.589-3.052-2.575 2.262-1.992-.904-.833-14.555 1.889-8.168 7.449-10.16 7.32-16.991 9.295-9.657 5.437-1.411 21.772 15.08 4.888-2.242-2.072-6.305 3.656-10.497-1.505-8.169 2.557-11.576-1.131-43.867-1.097-7.886-3.644-6.061-1.732-11.836-.073-.438z"/><path d="M287.735 261.077l7.971 3.362 5.704 5.648 2.87 6.648 1.379.038-.396 3.135 4.041 4.136-1.001 1.266 2.135 3.758 2.077.831.963 3.136 2.418-.17-2.115 3.418 3.041 3.891-1.908 2.399 1.511.113-.321 2.814 3.815 5.213-.567 2.285 1.984-1.133 2.549 8.273-.642 8.178 1.624 2.134-11.936 17.603.869 17.924 3.003 5.968 10.18-6.081 11.842 4.268 12.39-2.644 6.271 1.964 8.65-.037 4.099-3.608-.17-5.968 13.107-2.796 5.572-6.893 1.832-5.969 8.216-4.136 3.041-5.119 6.629-.415.926-4.099 2.493-1.813 3.003.17-.019 24.365 6.951.396.812 1.719 2.776-.17 1.473 2.342 1.247-1.095 3.91 2.795-1.965 4.457 1.681 2.512-1.945 3.211 3.683 8.027-3.589 1.077-.661 5.005 1.983 5.402 3.211-.888 6.025 7.914 6.063.869 3.494 3.191 1.851-.717 1.681 1.832-.718 1.813 6.12.038 7.215 4.268 2.644-3.645 3.796.793 1.7-1.246-1.983-1.228 1.624-2.776 4.344.963.189-5.874 3.645 2.455-1.794 13.108 3.003 1.058-1.246 5.685 1.643 1.586 15.185-3.456 1.02 7.328-3.947 4.571 5.364 4.42-1.587 3.38 4.118 3.079 4.891-5.118.17-4.854 3.967-4.968-.359-10.142 3.758-1.7.926 4.722 11.408-.114-9.274 11.767 5.402 10.652 2.38-1.454 1.303 2.286-2.55 6.856-3.683 1.699 1.908 2.38-1.568 6.875-2.285 2.569-.699 7.385 2.587.944-26.555 56.643.321 2.077 3.777 5.516 11.05 6.176 1.378 4.042 5.666 1.586 4.703 10.105 13.807 15.771 5.931 5.382 4.381.34 3.74 3.249.737 9.746 3.532.453-3.476 4.174 2.475 4.382-4.231 6.932 1.114 1.378-4.023 3.853.019 3.136-8.046-.529-17.584 7.309-.189 2.569-1.719-.945-1.737 2.154-10.955.34-.113 3.815-2.021 1.001-.756 12.541-9.424.359-2.399 3.286-5.232-1.851-.226 3.079-4.118.226-2.077-3.777.85-1.171-4.061.057-.775 3.645-4.06 2.909-3.098-3.117 1.587-2.493-4.401-1.908-.51-1.907-6.176-.548-4.42 2.89-5.345-1.039-.415 1.605-6.176 1.889-2.569 7.215-7.064 6.233-1.907-2.871.755-2.38-4.344-1.964-3.966 1.209-2.021-2.55-3.74 1.228-1.775-2.701-7.763-.095 1.341-4.325-2.342-3.097-12.409-5.761-5.893 11.786-.283 5.892-4.344-1.888-.019 9.292 2.323 2.456-1.926 4.193-.945-2.852-3.059 1.416-.17 5.194-3.287 1.284-.623 2.361-3.343.624-6.214-3.683-2.55 2.568-2.852-2.417-3.739 1.322.472 4.703-4.288.869-2.134 2.417-6.006.283-.907 2.966-4.06 2.361-2.399 6.44.869 2.456-7.536 2.455-1.927-1.077-8.461 3.457 1.246 6.629-1.152 3.853-3.872 2.965-5.968.491-1.964-3.04-3.154 2.719-3.476.321-3.664-1.945-.189-2.606-3.475-3.891-4.684-1.964.094-5.194-2.625-2.512-2.946-13.58 2.172 1.076 1.643-3.721 3.154-3.173 1.247.68-3.306-7.215-4.079 4.307-2.097-.057-5.704 7.158-6.157-.699-6.913 5.969-1.397-2.455-1.115.887-1.813 6.365 1.36 4.382-3.702 2.399-2.304-4.722.925-6.516-4.551-10.331 4.759-2.701-.68-9.463-7.876-2.871-1.397-3.116-2.418-.812 1.171-5.251-3.74 3.645-7.97-2.417 2.833-8.084-2.304-5.874 1.794-4.287-1.681-1.53 1.058-2.286-3.343-1.038.887-6.913-2.115-2.153 1.851-2.607-2.795-1.038-.756-9.161-2.398-4.287.585-3.041 3.381-2.701-4.986-2.871 4.381-1.397-.774-7.366-4.438-.529-3.929-3.457.718-2.134-1.946-3.041-4.854-1.076-4.57-6.497-3.646.982 1.285 7.498-6.063-7.196.907 3.456-2.512 8.16-4.93 8.499-4.495 1.983-3.948-3.494-4.627.245-.208 7.159-5.704.68 2.267 4.306-5.043 4.608.944 5.194-3.324-1.36-23.571-46.028-11.691-40.513-4.533-13.636-5.081-8.972-1.228-6.724-3.21-2.701-2.871-6.421-4.231-3.305-1.587-7.801-5.458-5.062.737-2.965 4.533-1.549 5.175-4.57 2.738 1.378 4.004-7.328-2.663-5.421 3.117.227-.85-2.965 2.323-.302-.907-2.437 2.72.208-.057-4.646 9.784-2.852 5.118 4.155.756 6.95 5.326-.755 3.268 3.891 1.246 6.402-3.626 3.343 2.323 5.572 2.436.076-.849 8.31 7.8-1.737 3.834 4.57 4.835-1.435 8.141 1.057 6.969 6.328 6.157 1.945 4.212-1.794 11.767.548 11.124-2.909 10.615 1.303 3.003 4.004 4.967 1.946 3.022-.756 5.874-3.022-2.531-4.892 1.171-3.607 9.501-1.983 5.08-10.18 6.384-.662 2.059-1.775 3.57 1.114 3.173-3.607 6.081-.548.17-200.695 4.873 5.892z"/><path d="M288.026 260.686l7.948 3.353 5.832 5.776 2.788 6.455 1.6.046-.435 3.426 4.174 4.27-1.061 1.341 1.894 3.338 2.135.853.919 2.994 2.964-.21-2.429 3.923 3.067 3.925-1.583 1.992 1.111.084-.357 3.118 3.838 5.243-.355 1.428 1.537-.878 2.75 8.922-.634 8.089 1.72 2.261-12.039 17.752.856 17.667 2.731 5.427 9.935-5.937 11.927 4.299 12.379-2.642 6.319 1.979 8.4-.038 3.8-3.343-.176-6.14 13.329-2.842 5.409-6.694 1.864-6.072 8.273-4.165 3.099-5.215 6.524-.41.888-3.926 2.772-2.017 3.617.205-.019 24.365 6.786.387.796 1.683 2.736-.168 1.326 2.112 1.113-.979 4.527 3.237-2.015 4.571 1.703 2.546-1.97 3.254 3.804 8.294-3.815 1.144-.606 4.588 1.792 4.884 3.1-.857 6.102 8.014 6.016.863 3.384 3.092 1.879-.729 2.099 2.287-.572 1.447 5.556.034 6.954 4.115 2.573-3.545 3.889.814.965-.708-1.779-1.103 2.03-3.47 4.125.914.198-6.159 4.598 3.098-1.783 13.017 3.035 1.069-1.281 5.834 1.269 1.226 15.439-3.513 1.12 8.05-3.772 4.366 5.275 4.346-1.579 3.364 3.474 2.597 4.478-4.686.17-4.829 3.955-4.954-.365-10.285 4.592-2.075.963 4.922 12.001-.119-9.697 12.303 5.036 9.929 2.357-1.443 1.654 2.901-2.695 7.245-3.311 1.528 1.674 2.087-1.647 7.215-2.263 2.544-.65 6.868 2.729.997-26.712 56.979.282 1.83 3.654 5.334 11.112 6.212 1.356 3.977 5.636 1.577 4.767 10.241 13.744 15.701 5.791 5.254 4.376.34 4.004 3.479.722 9.555 4.002.514-3.815 4.584 2.449 4.34-4.202 6.885 1.178 1.458-4.189 4.012.021 3.439-8.443-.555-17.213 7.156-.221 3.013-2.018-1.109-1.626 2.013-10.726.335-.109 3.652-2.029 1.007-.765 12.694-9.623.367-2.472 3.386-4.981-1.762-.211 2.876-4.828.265-2.366-4.299.474-.652-2.743.038-.734 3.457-4.535 3.248-3.647-3.668 1.492-2.346-4.103-1.779-.483-1.807-5.685-.504-4.442 2.904-5.098-.991-.37 1.431-6.203 1.897-2.529 7.107-7.562 6.671-2.333-3.509.697-2.197-3.798-1.717-4.104 1.251-2.018-2.545-3.769 1.238-1.836-2.794-8.144-.098 1.456-4.697-2.125-2.811-11.886-5.519-5.643 11.287-.312 6.477-4.312-1.876-.017 8.386 2.414 2.55-2.561 5.572-1.154-3.487-2.316 1.071-.172 5.215-3.352 1.311-.638 2.417-3.812.71-6.049-3.586-2.597 2.617-2.979-2.523-3.135 1.107.478 4.76-4.55.921-2.163 2.45-5.872.276-.865 2.825-4.074 2.369-2.28 6.121.973 2.75-8.193 2.671-1.908-1.068-7.895 3.225 1.198 6.365-1.23 4.107-4.102 3.143-6.39.527-1.822-2.823-2.858 2.464-3.766.348-4.019-2.134-.197-2.707-3.297-3.69-4.881-2.048.096-5.307-2.58-2.469-3.184-14.681 2.608 1.294 1.479-3.349 3.466-3.486.31.168-2.422-5.287-3.743 3.952-2.072-.057-5.721 7.179-6.21-.705-7.192 6.209-1.409-2.475-.565.45-1.732 6.084 1.424 4.589-4.45 2.882-2.6-5.33.925-6.525-4.669-10.6 4.871-2.763-.636-8.862-7.776-2.833-1.394-3.111-2.625-.882.918-4.117-2.803 2.733-8.709-2.64 2.937-8.385-2.31-5.889 1.739-4.157-1.69-1.537.976-2.112-3.207-.997.911-7.077-2.233-2.272 1.725-2.427-2.501-.929-.772-9.357-2.433-4.35.651-3.381 2.975-2.376-5.313-3.059 5.036-1.606-.696-6.608-4.209-.503-4.275-3.76.746-2.218-1.718-2.685-4.843-1.075-4.486-6.376-2.91.783 1.505 8.789-5.834-6.924.41 1.562-2.567 8.338-5.035 8.679-4.913 2.166-4.029-3.566-4 .214-.206 7.13-5.426.646 2.115 4.021-5.118 4.678 1.052 5.785-4.284-1.752-23.673-46.223-11.701-40.549-4.516-13.584-5.095-9-1.213-6.636-3.164-2.662-2.867-6.412-4.276-3.341-1.59-7.821-5.551-5.149.865-3.485 4.688-1.601 5.343-4.72 2.618 1.316 3.666-6.712-2.918-5.94 3.263.238-.814-2.843 2.278-.296-.957-2.573 2.942.225-.055-4.49 10.366-3.021 5.46 4.434.725 6.658 5.102-.723 3.515 4.185 1.32 6.781-3.577 3.297 2.079 4.986 2.639.084-.835 8.163 7.441-1.659 3.819 4.554 4.635-1.377 8.386 1.09 7.002 6.357 5.893 1.863 4.151-1.768 11.803.549 11.141-2.914 10.904 1.339 3.043 4.057 4.702 1.842 2.822-.705 5.406-2.782-2.405-4.646 1.317-4.055 9.544-1.993 5.095-10.206 6.494-.675 2.145-1.849 3.527 1.101 3.095-3.518 5.84-.525.172-201.576 5.634 6.812zm-.582.782l-4.111-4.973-.169 199.818-6.323.568-3.252 3.696-3.612-1.127-1.971 1.702-6.275.649-5.065 10.152-9.457 1.974-1.026 3.16 2.658 5.137-6.343 3.264-3.222.804-5.232-2.049-2.963-3.951-10.326-1.267-11.107 2.904-11.731-.547-4.272 1.82-6.422-2.028-6.937-6.297-7.895-1.026-5.035 1.494-3.85-4.587-8.159 1.817.865-8.456-2.234-.07-2.567-6.157 3.675-3.389-1.172-6.025-3.021-3.596-5.55.788-.786-7.243-4.777-3.876-9.202 2.682.059 4.803-2.497-.191.856 2.301-2.369.307.886 3.089-2.969-.216 2.408 4.901-4.342 7.944-2.86-1.441-5.007 4.422-4.378 1.498-.608 2.444 5.366 4.974 1.583 7.78 4.185 3.269 2.875 6.432 3.258 2.74 1.243 6.813 5.065 8.941 4.546 13.68 11.684 40.488 23.471 45.832 2.365.967-.837-4.603 4.967-4.538-2.417-4.592 5.981-.714.21-7.184 5.255-.28 3.866 3.423 4.077-1.8 4.824-8.32 2.457-7.978-1.403-5.353 6.292 7.468-1.064-6.208 4.38-1.18 4.656 6.618 4.865 1.078 2.172 3.396-.689 2.051 3.583 3.152 4.667.556.853 8.123-3.728 1.19 4.66 2.682-3.787 3.026-.52 2.701 2.365 4.225.738 8.964 3.09 1.148-1.977 2.786 1.998 2.034-.865 6.748 3.479 1.081-1.139 2.461 1.672 1.52-1.849 4.418 2.298 5.859-2.729 7.785 7.232 2.193 4.677-4.558-1.425 6.384 2.21.742 1.402 3.122 7.976 2.909.723 10.065-4.648 2.637 4.435 10.065-.926 6.504 2.008 4.114 2.954-1.915-1.296-4.174 1.895-6.647 1.664-1.325 1.386 2.436 6.633-5.728 6.104.693 5.687-7.138 2.121.057 4.416-4.661 4.189 9.143-2.183-1.192-2.842 2.86-1.808 4.092-1.736-.859 2.709 12.479 2.67 2.555-.092 5.081 4.487 1.881 3.653 4.091.182 2.506 3.309 1.757 3.184-.295 3.451-2.974 2.106 3.259 5.547-.457 3.641-2.787 1.075-3.596-1.296-6.896 9.028-3.689 1.946 1.086 6.878-2.24-.764-2.161 2.517-6.759 4.048-2.354.948-3.105 6.14-.291 2.106-2.385 4.025-.816-.467-4.646 4.344-1.538 2.726 2.312 2.502-2.519 6.379 3.779 2.874-.536.608-2.305 3.221-1.258.168-5.173 3.804-1.762.734 2.217 1.292-2.814-2.232-2.361.021-10.199 4.376 1.902.255-5.309 6.142-12.284 12.932 6.004 2.559 3.385-1.226 3.951 7.381.09 1.715 2.609 3.71-1.219 2.025 2.556 3.828-1.167 4.89 2.211-.814 2.563 1.483 2.233 6.565-5.795 2.608-7.322 6.15-1.882.461-1.779 5.592 1.086 4.397-2.874 6.667.591.537 2.008 4.699 2.036-1.681 2.642 2.548 2.563 3.586-2.569.814-3.834 5.38-.075-1.228 1.69 1.79 3.256 3.408-.189.241-3.28 5.483 1.939 2.325-3.186 9.227-.351.746-12.388 2.013-.996.117-3.977 11.183-.346 1.849-2.293 1.421.78.157-2.125 17.954-7.462 7.649.502-.017-2.831 3.857-3.694-1.05-1.3 4.259-6.978-2.499-4.424 3.135-3.764-3.061-.393-.752-9.936-3.475-3.019-4.388-.34-6.07-5.511-13.869-15.841-4.639-9.968-5.696-1.596-1.402-4.106-10.986-6.141-3.9-5.696-.361-2.325 26.398-56.307-2.445-.891.747-7.902 2.309-2.594 1.488-6.535-2.142-2.672 4.055-1.872 2.404-6.467-.953-1.67-2.401 1.466-5.768-11.376 8.85-11.23-10.814.108-.888-4.522-2.926 1.324.354 10.001-3.978 4.98-.17 4.879-5.306 5.551-4.761-3.56 1.594-3.396-5.453-4.495 4.123-4.775-.919-6.607-14.933 3.4-2.017-1.947 1.213-5.536-2.971-1.047 1.805-13.198-2.693-1.813-.179 5.589-4.563-1.011-1.219 2.081 2.187 1.353-2.434 1.786-3.704-.774-2.716 3.745-7.475-4.421-6.683-.042.863-2.179-1.263-1.377-1.823.706-3.603-3.29-6.11-.876-5.948-7.814-3.322.918-2.174-5.919.716-5.423 3.362-1.008-3.563-7.761 1.921-3.167-1.658-2.478 1.913-4.344-3.292-2.354-1.381 1.215-1.62-2.575-2.816.172-.829-1.754-7.115-.407.019-24.364-2.389-.134-2.214 1.609-.963 4.27-6.735.422-2.983 5.022-8.159 4.108-1.8 5.864-5.734 7.094-12.887 2.748.164 5.797-4.397 3.872-8.901.037-6.222-1.949-12.401 2.646-11.757-4.238-10.426 6.229-3.275-6.512-.882-18.181 11.835-17.454-1.528-2.006.649-8.268-2.349-7.623-2.429 1.388.778-3.143-3.792-5.183.285-2.51-1.912-.143 2.233-2.805-3.014-3.857 1.801-2.914-1.871.13-1.007-3.277-2.021-.808-2.374-4.18.94-1.19-3.909-4.002.359-2.844-1.158-.03-2.954-6.841-5.576-5.519-7.993-3.372z"/><path d="M876.507 366.846l3.607 2.55 2.153-1.53 7.631 1.624 24.799-.227-.51 2.172-1.587 10.03-8.443 23.344-5.968 35.414-6.422 12.862-1.095 7.819-19.152 19.907-12.087 4.741-21.003 23.552-13.731 21.966.227 5.685-8.613 10.048-12.711 25.706-20.965 32.108-6.932-13.108-4.041-.774-1.568-3.437-2.946-.019-3.74-3.853-2.399.982-4.438-2.304-2.89.585-6.611-4.287-7.139 2.228-12.05-3.928.132-2.984-3.758-1.851-2.531 4.193-4.382-.888-2.021-3.06-2.248-.359-1.303-7.441 1.738-4.231 4.231 1.719 1.322-3.457 2.266.605 2.531-2.984-.68-1.738 4.571-1.398 2.21-2.889-.038-2.078-4.439-4.439 6.8-4.022-1.927-4.779.963-6.856 1.625-3.022 5.477-1.945-.019-2.191 1.832-.661-1.284-5.062 5.987-3.286 1.832-4.722-6.403-14.373-3.588-.038-2.002-3.287-6.837-3.248-10.407-11.861 5.099-10.256 10.898-2.134 1.719-5.194 9.141-5.043 3.967-5.175 4.948-.775 3.381-4.57.17-3.23-2.342-3.74 4.873-12.277-1.964-8.669 4.797-3.569-3.381-6.309 2.909-1.303 1.492.699 2.285-4.401 4.023-1.303 4.099 1.341 2.077-1.398 4.477 1.341 11.54-6.648 2.984 2.493 6.686.321 5.213-2.304 7.234 3.626 4.174-1.964 1.964 2.871 7.253-1.115 3.645 1.927 5.345-6.894 10.388 3.891 23.193.075 1.889-27.688 4.798.151z"/><path d="M880.114 368.818l2.049-1.457 7.782 1.657 25.348-.232-.644 2.74-1.59 10.058-8.443 23.346-5.974 35.44-6.417 12.857-1.107 7.894-19.329 20.093-12.079 4.737-20.9 23.439-13.633 21.807.228 5.725-8.695 10.144-12.698 25.677-21.418 32.803-7.2-13.615-4.059-.779-1.543-3.384-2.843-.019-3.656-3.766-2.304.944-4.486-2.327-2.914.59-6.588-4.271-7.072 2.206-12.533-4.085.134-3.035-3.094-1.523-2.478 4.106-4.899-.993-2.016-3.048-2.374-.38-1.386-7.908 1.968-4.792 4.221 1.713 1.302-3.403 2.389.638 2.155-2.542-.763-1.949 4.912-1.504 2.018-2.638-.031-1.723-4.735-4.733 6.975-4.127-1.822-4.519.993-7.064 1.749-3.256 5.334-1.895-.019-2.189 1.743-.629-1.269-5.001 6.157-3.379 1.698-4.378-6.198-13.918-3.547-.036-2.067-3.39-6.797-3.23-10.679-12.173 5.343-10.748 10.857-2.125 1.688-5.109 9.217-5.085 4.021-5.247 4.945-.772 3.18-4.301.155-2.939-2.389-3.817 4.907-12.361-2-8.826 4.718-3.511-3.428-6.396 3.568-1.599 1.278.598 2.165-4.17 4.353-1.411 4.027 1.317 2.072-1.392 4.495 1.346 11.648-6.712 3.116 2.602 6.416.308 5.315-2.347 7.226 3.622 4.331-2.038 2.025 2.958 7.113-1.094 3.432 1.815 5.314-6.856 10.636 3.984 22.666.073 1.889-27.7 5.394.168 3.451 2.441zm-7.965-1.638l-1.888 27.677-23.721-.077-10.14-3.798-5.376 6.931-3.858-2.037-7.391 1.135-1.906-2.784-4.017 1.89-7.241-3.63-5.111 2.261-6.956-.334-2.852-2.384-11.433 6.584-4.457-1.335-2.083 1.403-4.171-1.365-3.692 1.195-2.406 4.631-1.706-.799-2.249 1.007 3.333 6.222-4.877 3.628 1.929 8.512-4.839 12.192 2.295 3.662-.185 3.521-3.581 4.841-4.953.776-3.911 5.103-9.066 5.001-1.749 5.279-10.939 2.144-4.854 9.763 10.133 11.549 6.876 3.268 1.938 3.182 3.63.04 6.607 14.828-1.966 5.066-5.817 3.194 1.299 5.122-1.919.693.019 2.193-5.623 1.996-1.499 2.788-.933 6.648 2.03 5.038-6.624 3.919 4.142 4.144.046 2.432-2.403 3.141-4.229 1.292.597 1.526-2.907 3.426-2.143-.57-1.343 3.509-4.24-1.724-1.508 3.67 1.222 6.975 2.12.338 2.026 3.071 3.864.782 2.584-4.28 4.424 2.18-.131 2.933 11.567 3.771 7.207-2.251 6.633 4.305 2.866-.582 4.391 2.281 2.493-1.02 3.823 3.94 3.05.019 1.592 3.491 4.025.77 6.664 12.6 20.511-31.413 12.724-25.734 8.53-9.952-.225-5.645 13.829-22.125 21.105-23.665 12.097-4.745 18.974-19.722 1.084-7.744 6.426-12.868 5.962-35.387 8.443-23.342 1.579-9.984.38-1.621-24.25.221-7.479-1.592-2.257 1.604-3.764-2.662-4.201-.132z"/><path d="M596.692 249.027l-.226 5.742 1.813 3.645 10.218.548 3.362 2.531 2.833.189 10.973-5.289.246-2.719 2.021-.057 1.114 9.085 3.532 1.341 1.454 4.193 6.611.302 2.984 3.721 6.233-.718 2.55 2.814 3.947-7.404 4.306 1.983 5.459-.868.283-3.041 3.551.831-.888 2.72 4.25-1.266 6.006 1.322 7.083 3.589-.85 3.513-4.816-1.662-1.87.434-.491 2.531 2.682.453.264 2.739 4.457-.491 3.57 5.874v5.213l-8.65 2.115.831-2.814-3.721.604 1.662 7.272-4.268 4.476-3.929.605 2.191 5.534-1.417.509-.528 4.817-10.294 2.701-.189-2.154-2.512 1.341-2.229-4.514-8.537 4.628-2.228 13.485-2.833.416-.151 2.058-3.249-.377 1.719 7.479-6.819 5.364 2.097 6.384 6.478-2.493-.453-1.398 6.875-1.53 1.473 2.342 4.684-.17-3.286 7.215 1.7 2.135-1.417 7.838-3.211 5.968-2.795 1.775-4.797-3.72-6.668 6.459-.85-2.436-6.289.604-5.194-3.475-.963 4.967-2.739-2.55-5.647 2.456-2.267 3.362-3.437-.548-2.116 5.118-2.738-.34-1.454 2.305-4.137 1.397 3.91 5.459-2.078 5.061 3.287 2.021-7.895-.245-1.341 1.794-3.117-.17-1.718 4.458-7.159 5.911-.774 5.761-2.455.019-1.077-4.325-6.478-.813-3.098-2.115-7.082 5.156-3.797-.736-15.298 7.63-1.304 3.948-5.364 3.267-2.965 6.913-4.117 1.114-2.38 1.454-5.402-10.652 9.274-11.767-11.408.114-.926-4.722-3.758 1.681.359 10.161-3.985 4.949-.17 4.872-4.892 5.119-4.118-3.079 1.587-3.381-5.364-4.419 3.947-4.552-1.02-7.347-15.185 3.475-1.643-1.605 1.246-5.685-3.003-1.058 1.795-13.108-3.646-2.455-.188 5.874-4.344-.963-1.625 2.776 1.983 1.228-1.699 1.265-3.797-.793-2.644 3.645-7.215-4.268-6.1-.038.698-1.813-1.681-1.832-1.851.717-3.475-3.192-6.063-.868-6.025-7.914-3.21.887-1.984-5.401.661-5.005 3.608-1.077-3.683-8.046 1.945-3.211-1.681-2.512 1.983-4.457-3.909-2.814-1.247 1.095-1.473-2.323-2.776.151-.813-1.719-6.95-.396.019-24.346-3.022-.17 1.945-4.911 2.569-.151 1.209-5.269-1.53-1.19 3.324-4.193-2.059-1.341 3.967-5.515-.624-3.286 2.059-1.134-1.738-1.605 1.511-5.119 5.95-5.874 2.002-4.702 2.512-.189.661 2.077 5.987-3.022 10.69 2.002 2.361-1.888 8.518 8.499 1.171-.944 7.782 5.628-.434 1.416 4.702 4.382 4.949-.17.094 1.511 2.399.151.264-1.322 6.233-.415 8.953 7.725 3.475-1.568 10.18 4.552 7.083.34 5.194-.661 7.102-4.968 3.701 1.965 10.766.529 12.107-7.839 5.723-18.434 8.631-19.737-.774-8.575 26.196-6.346z"/><path d="M596.942 254.667l1.637 3.29 10.086.54 3.366 2.535 2.568.17 10.621-5.118.258-2.871 2.869-.08 1.134 9.229 3.471 1.318 1.422 4.099 6.503.296 2.956 3.685 6.214-.716 2.263 2.497 3.839-7.205 4.582 2.109 4.955-.787.3-3.217 4.578 1.073-.767 2.351 3.504-1.042 6.184 1.362 7.469 3.783-1.061 4.382-5.177-1.787-1.439.334-.342 1.755 2.561.432.255 2.624 4.28-.472 3.794 6.244v5.715l-9.808 2.399.852-2.881-2.484.403 1.608 7.028-4.556 4.776-3.502.538 2.152 5.438-1.596.574-.533 4.847-11.149 2.925-.176-1.998-2.312 1.233-2.226-4.51-7.903 4.282-2.247 13.599-2.8.41-.16 2.172-3.073-.357 1.636 7.118-6.794 5.345 1.84 5.598 5.596-2.153-.476-1.465 7.708-1.715 1.505 2.393 5.175-.189-3.483 7.647 1.653 2.076-1.468 8.121-3.305 6.144-3.179 2.02-4.736-3.674-6.904 6.69-.971-2.784-6.089.583-4.742-3.173-.99 5.106-3.135-2.918-5.238 2.275-2.359 3.498-3.365-.536-2.112 5.107-2.797-.347-1.385 2.19-3.69 1.249 3.69 5.152-2.024 4.932 4.455 2.74-9.423-.292-1.345 1.8-3.025-.165-1.64 4.252-7.111 5.872-.804 5.983-3.238.025-1.087-4.371-6.271-.785-2.916-1.993-6.981 5.081-3.84-.745-14.979 7.47-1.296 3.927-5.385 3.279-2.995 6.984-4.272 1.156-2.76 1.685-5.768-11.376 8.851-11.23-10.815.108-.888-4.524-2.926 1.307.354 10.02-3.997 4.963-.17 4.896-5.305 5.551-4.762-3.56 1.594-3.398-5.454-4.494 4.125-4.755-.92-6.624-14.934 3.417-2.016-1.968 1.213-5.534-2.971-1.047 1.806-13.198-2.694-1.813-.179 5.588-4.563-1.012-1.218 2.083 2.181 1.351-2.427 1.807-3.706-.774-2.716 3.745-7.475-4.421-6.656-.042.839-2.178-1.266-1.378-1.824.706-3.583-3.292-6.11-.874-5.948-7.814-3.322.918-2.174-5.919.716-5.423 3.381-1.008-3.561-7.78 1.919-3.168-1.658-2.479 1.932-4.344-3.292-2.371-1.381 1.213-1.62-2.556-2.816.153-.829-1.752-7.115-.407.019-24.345-3.23-.181 2.297-5.799 2.515-.149 1.064-4.631-1.67-1.298 3.3-4.159-2.04-1.328 4.136-5.753-.648-3.424 1.785-.982-1.473-1.36 1.63-5.517 5.968-5.893 2.08-4.882 3.169-.238.606 1.906 5.636-2.845 10.634 1.991 2.521-2.017 8.518 8.499 1.122-.906 8.347 6.038-.446 1.458 4.344 4.047 5.211-.179.098 1.553 1.572.1.253-1.273 6.788-.452 8.871 7.655 3.394-1.531 10.292 4.602 6.952.333 5.037-.641 7.244-5.067 3.864 2.051 10.509.516 11.834-7.663 5.68-18.294 8.594-19.65-.799-8.86 27.199-6.59-.247 6.246zm-25.94 1.069l.75 8.29-8.669 19.824-5.767 18.573-12.378 8.014-11.023-.542-3.539-1.877-6.96 4.867-5.351.682-7.213-.348-10.069-4.5-3.556 1.603-9.034-7.795-5.678.38-.275 1.371-3.226-.202-.091-1.469-4.686.16-5.062-4.716.423-1.375-7.216-5.218-1.221.982-8.518-8.5-2.2 1.761-10.747-2.014-6.338 3.2-.716-2.25-1.855.14-1.925 4.524-5.928 5.855-1.394 4.72 2.002 1.85-2.333 1.285.599 3.148-3.796 5.277 2.077 1.355-3.348 4.227 1.39 1.082-1.355 5.908-2.621.153-1.594 4.023 2.814.158-.019 24.346 6.786.387.795 1.685 2.737-.149 1.326 2.091 1.114-.979 4.526 3.258-2.034 4.571 1.703 2.544-1.971 3.254 3.805 8.313-3.834 1.144-.606 4.588 1.792 4.884 3.1-.857 6.102 8.013 6.016.864 3.367 3.091 1.878-.729 2.096 2.286-.559 1.448 5.545.034 6.955 4.116 2.572-3.545 3.887.812.973-.723-1.785-1.105 2.03-3.472 4.125.916.199-6.159 4.597 3.098-1.783 13.017 3.035 1.069-1.281 5.836 1.272 1.243 15.436-3.534 1.12 8.07-3.77 4.348 5.274 4.344-1.579 3.366 3.473 2.597 4.478-4.686.17-4.85 3.974-4.934-.365-10.303 4.592-2.055.963 4.921 12.001-.119L519.906 427l5.036 9.929 2-1.224 3.962-1.073 2.935-6.841 5.344-3.256 1.31-3.968 15.618-7.791 3.753.729 7.185-5.232 3.279 2.238 6.686.839 1.065 4.278 1.673-.012.745-5.537 7.205-5.952 1.798-4.663 3.207.176 1.337-1.789 6.367.198-2.117-1.301 2.13-5.192-4.128-5.764 4.582-1.547 1.524-2.418 2.68.333 2.119-5.13 3.509.559 2.174-3.226 6.058-2.635 2.342 2.182.936-4.83 5.646 3.778 6.489-.626.729 2.089 6.432-6.229 4.857 3.768 2.412-1.531 3.117-5.795 1.365-7.553-1.747-2.193 3.09-6.782-4.193.151-1.441-2.291-6.042 1.345.431 1.329-7.361 2.833-2.353-7.169 6.843-5.383-1.802-7.84 3.424.398.142-1.945 2.867-.421 2.21-13.372 9.171-4.973 2.231 4.518 2.712-1.449.202 2.308 9.438-2.476.527-4.786 1.235-.446-2.23-5.63 4.355-.671 3.982-4.176-1.717-7.515 4.958-.806-.811 2.748 7.493-1.832v-4.711l-3.345-5.504-4.633.51-.276-2.854-2.803-.474.641-3.307 2.302-.534 4.454 1.537.638-2.644-6.696-3.394-5.828-1.283-4.996 1.489 1.009-3.088-2.524-.59-.266 2.866-5.963.95-4.03-1.857-4.055 7.602-2.837-3.131-6.252.719-3.012-3.756-6.718-.308-1.487-4.288-3.592-1.363-1.096-8.942-1.173.034-.232 2.569-11.327 5.459-3.097-.208-3.358-2.527-10.35-.556-1.989-4 .206-5.237-25.194 6.102z"/><path d="M457.682 772.392l-7.498 2.342-2.059 1.625-.358 3.494-17.792-1.983-2.097 1.019-18.415-5.439-6.969 3.796-9.991-.189-5.591 3.476-.604 2.757 2.474 1.455-11.295 3.38-.963 2.04 1.738 1.284-1.492 2.286-5.043 2.455-5.78.831-7.781-2.304-4.514.68-6.838 4.306-8.612-3.475-10.974-.586-2.531 1.511-.321 4.59-9.047-1.53-9.009 2.361-3.834 4.911-7.838 4.608-.472 2.191-7.272 2.739-1.152 4.722-3.381 1.341-5.647-4.061-9.047-.246-2.531 1.719-.283-2.153-10.86-8.783-5.931 1.53 4.325-5.345-3.437-7.064-1.813-.812-2.512 1.776-4.779-1.228-1.152-2.965-3.022-1.606-10.312 2.814-.756-5.383 2.115-2.757-1.85-3.645 2.455-1.87-4.873-4.552-7.687-.321-8.481 3.4-.642 3.154 2.607 3.192-.85 4.533 1.851 2.417-1.171.057-2.814-2.153-2.305-7.517-2.568-2.777 2.172-5.647-2.758-.793 4.458-8.197 2.058 1.227 2.361-2.512-2.455-10.822-3.929-6.554-2.455-.869-1.058-6.384-6.875-5.949.661-1.662-3.04-5.666-6.271-5.383-.907-1.832 1.398-2.304 5.458 7.857 1.644-.737-4.609-5.005-.019-4.552-2.776-1.681-1.681 2.512-2.248.208-1.7-7.555 1.153-2.833-1.889-2.229 2.946-1.549-.359-3.248 3.419-2.55 4.42 4.949 3.607-.397 8.632-11.125 1.454-7.328-1.058-8.178 1.587-2.078-3.192-22.079-8.027-18.037-17.83-24.969 3.324 1.36-.944-5.194 5.043-4.609-2.267-4.306 5.704-.68.208-7.158 4.627-.246 3.948 3.494 4.495-1.964 4.93-8.499 2.512-8.159-.907-3.457 6.063 7.196-1.285-7.498 3.646-.982 4.57 6.497 4.854 1.077 1.946 3.041-.718 2.134 3.929 3.456 4.438.529.774 7.366-4.381 1.398 4.986 2.871-3.381 2.7-.585 2.947 2.474 4.401.755 9.16 2.796 1.039-1.851 2.606 2.115 2.153-.888 6.913 3.343 1.039-1.057 2.285 1.681 1.53-1.795 4.287 2.305 5.874-2.834 8.084 7.971 2.418 3.74-3.646-1.171 5.251 2.417.812 1.398 3.117 7.876 2.87.68 9.463-4.76 2.701 4.552 10.331-.926 6.516 2.305 4.722 3.702-2.399-1.36-4.381 1.813-6.365 1.114-.888 1.398 2.455 6.913-5.968 6.157.699 5.704-7.159 2.096.057 4.08-4.306 3.305 7.215-1.246-.68-3.155 3.173-1.643 3.721-2.172-1.077 2.947 13.58 2.625 2.512-.094 5.194 4.684 1.964 3.475 3.891.189 2.606 3.664 1.946 3.475-.321 3.154-2.72 1.964 3.041 5.969-.491 3.872-2.966 1.152-3.853-1.247-6.629 8.462-3.456 1.926 1.076 7.536-2.455-.869-2.455 2.399-6.441 4.061-2.361.906-2.965 6.007-.284 2.134-2.417 4.287-.869-.472-4.703 3.74-1.322 2.852 2.418 2.55-2.569 6.213 3.683 3.343-.623.624-2.361 3.286-1.285.17-5.194 3.06-1.416.944 2.852 1.927-4.193-2.323-2.455.018-9.293 4.344 1.889.284-5.893 5.893-11.786 12.409 5.761 2.342 3.097-1.341 4.326 7.762.094 1.776 2.701 3.739-1.228 2.021 2.55 3.966-1.209 4.345 1.965-.756 2.379 1.908 2.871 7.063-6.233 2.569-7.214 6.176-1.889.416-1.606 5.345 1.039 4.419-2.89 6.177.548.51 1.908 4.4 1.907-1.586 2.493 3.097 3.117 4.061-2.909.774-3.645 4.061-.057-.85 1.171 2.078 3.778 4.117-.227.945 1.643-3.362 4.873 2.663-.472 2.587 3.003-2.172 3.249-2.927.793 1.057 1.945-1.907.151.17 2.116 1.492.132-.019 1.832-2.21 1.794-2.361-.321.227 1.417-7.593 4.117-5.968-4.004-4.797 3.381-.397 5.666-10.464-.302-2.077 2.927-3.192-1.416-5.742 4.042 4.193 11.937-2.21 1.359 5.969 6.592-.34 3.362-9.085-2.153-2.682 3.022-3.041-4.099 1.454 5.175-4.344.945-3.154 3.853-.075 8.669-8.481 13.145-1.775.303 1.095 4.646 26.612-.661 1.53 2.436 7.669.151 4.646 3.173.396 4.42 3.532 3.116-.264 2.248-5.345-.472-6.29 3.834-2.266 3.966 8.556.038.17 2.72 6.95 2.606-2.908 3.853.585 2.607-3.551-.265z"/><path d="M663.641 908.12l-1.704-.868-3.66.375-1.449-1.555 3.028-4.559 3.222.538 2.864 2.562-2.301 3.507zm-.789-5.599l-2.758-.462-2.632 3.961 1.011 1.085 3.56-.365 1.436.732 1.819-2.773-2.436-2.178zm3.354-6.179l-1.869-2.27 1.325-.888 2.106.606.307 2.016-1.869.536zm1.116-2.16l-1.574-.454-.675.452 1.311 1.591 1.131-.325-.193-1.264zM293.504 463.729l-3.88 1.212-.971.766-.205 1.995-9.599-1.07-1.132.551-9.743-2.878-3.658 1.992-5.282-.1-2.807 1.746-.259 1.179 1.648.969-6.423 1.923-.374.793.944.698-.956 1.466-2.768 1.347-3.153.453-4.119-1.219-2.283.343-3.684 2.321-4.64-1.873-5.692-.303-1.163.694-.18 2.574-5.009-.847-4.636 1.215-2.007 2.571-4.097 2.409-.255 1.186-3.854 1.451-.61 2.498-2.037.808-3.039-2.185-4.632-.126-1.609 1.093-.19-1.443-5.574-4.508-3.751.967 2.666-3.295-1.711-3.515-.747-.335-1.308.925-2.767-.711-.622-1.603-1.431-.76-5.638 1.539-.454-3.235 1.088-1.418-1.003-1.976 1.23-.936-2.296-2.145-3.924-.164-4.315 1.73-.289 1.422 1.378 1.688-.451 2.405 1.202 1.57-1.187.057-1.627-1.244-1.226-4.002-1.427-1.542 1.108-2.881-1.497-.431 2.633-4.842 1.14.68 1.022-1.086-1.262-5.562-2.013-3.358-1.355-.48-.569-3.436-3.706-3.207.373-.937-1.533-2.857-3.324-2.852-.563-1.139 1.011-1.667 1.084 1.561-.009-2.251-1.146-.693-.823 1.23-1.528.141-.965-4.291.582-1.432-1.103-1.302 1.685-.886-.187-1.693 2.108-1.572 2.407 2.694 1.676-.184 4.469-5.76.751-3.782-.568-4.391.838-1.098-1.67-11.552-4.225-9.495-9.928-13.904 2.138.875-.443-2.437 2.63-2.403-1.28-2.431 3.167-.378.111-3.804 2.782-.148 2.047 1.812 2.159-.943 2.554-4.405 1.301-4.224-.743-2.834 3.331 3.954-.563-3.287 2.319-.625 2.465 3.504 2.576.571 1.15 1.798-.365 1.086 1.897 1.669 2.471.294.452 4.301-1.974.63 2.467 1.42-2.006 1.602-.274 1.38 1.292 2.297.391 4.746 1.636.608-1.047 1.475 1.058 1.077-.458 3.573 1.842.572-.603 1.303.885.805-.979 2.339 1.217 3.102-1.445 4.122 3.829 1.161 2.476-2.413-.754 3.38 1.17.393.742 1.653 4.223 1.54.383 5.329-2.461 1.396 2.348 5.329-.49 3.444 1.063 2.178 1.564-1.014-.686-2.21 1.002-3.519.882-.702.734 1.29 3.512-3.033 3.232.367 3.011-3.779 1.123.03 2.338-2.468 2.217 4.841-1.155-.631-1.505 1.514-.957 2.167-.919-.455 1.434 6.607 1.414 1.353-.049 2.69 2.376.996 1.934 2.166.096 1.327 1.752.93 1.686-.156 1.827-1.575 1.115 1.726 2.937-.242 1.928-1.476.569-1.904-.686-3.651 4.78-1.953 1.029.575 3.643-1.186-.405-1.144 1.333-3.579 2.143-1.246.502-1.644 3.251-.154 1.115-1.263 2.131-.432-.247-2.46 2.3-.814 1.443 1.224 1.325-1.334 3.377 2.001 1.522-.284.322-1.22 1.704-.666.09-2.739 2.014-.933.389 1.174.684-1.49-1.182-1.25.011-5.4 2.317 1.007.135-2.811 3.252-6.504 6.847 3.179 1.355 1.792-.649 2.092 3.908.048.908 1.381 1.964-.645 1.072 1.353 2.027-.618 2.588 1.171-.431 1.357.786 1.182 3.476-3.068 1.381-3.877 3.256-.996.244-.942 2.961.575 2.328-1.522 3.53.313.284 1.063 2.488 1.078-.89 1.399 1.349 1.357 1.899-1.36.431-2.03 2.848-.04-.65.896.948 1.723 2.177-.12.655 1.14-1.529 2.217.96-.17 1.587 1.842-1.307 1.956-1.335.362.592 1.09-1.144.09.053.661.81.071-.013 1.319-1.345 1.092-1.024-.139.095.592-4.309 2.337-3.143-2.109-2.302 1.623-.218 3.121-5.647-.163-1.141 1.607-1.747-.775-2.769 1.95 2.224 6.331-1.086.668 3.033 3.35-.22 2.174-4.942-1.171-1.525 1.718-.985-1.327.474 1.689-2.474.538-1.559 1.904-.04 4.575-4.589 7.113-.786.134.473 2.003 14.029-.348.814 1.296 3.999.079 2.619 1.788.212 2.358 1.894 1.671-.184 1.561-2.99-.264-3.205 1.954-.955 1.672 4.335.019.094 1.512 3.842 1.441-1.672 2.214.359 1.596-2.169-.161zm-.058-.506l1.591.119-.261-1.164 1.408-1.865-3.518-1.32-.086-1.368-4.725-.021 1.445-2.528 3.455-2.106 2.67.236.096-.819-1.846-1.629-.208-2.322-2.301-1.572-4.121-.081-.806-1.284-14.151.352-.687-2.917 1.094-.186 4.391-6.807.04-4.605 1.781-2.176 2.126-.462-1.066-3.791 2.235 3.013 1.315-1.482 4.678 1.109.14-1.386-3.287-3.63 1.254-.772-2.216-6.309 3.311-2.33 1.632.725 1.06-1.493 5.433.157.202-2.879 2.778-1.957 3.177 2.131 3.731-2.023-.145-.908 1.476.201.995-.808.007-.621-.77-.069-.127-1.579.875-.07-.527-.969 1.765-.479.993-1.484-1.153-1.338-1.86.33 2.031-2.943-.345-.6-2.183.12-1.252-2.276.25-.345-1.452.02-.389 1.83-2.401 1.72-1.931-1.943.79-1.241-2.172-.942-.256-.957-3.01-.267-2.352 1.538-2.699-.525-.196.758-3.284 1.004-1.339 3.763-4.004 3.532-1.235-1.858.369-1.163-2.011-.909-2.173.662-1.068-1.347-1.996.655-.972-1.479-4.312-.052.771-2.487-1.125-1.488-6.293-2.922-2.988 5.976-.165 3.429-2.283-.993-.009 4.44 1.278 1.35-1.356 2.95-.611-1.846-1.226.567-.091 2.761-1.775.694-.338 1.28-2.018.376-3.203-1.899-1.375 1.386-1.577-1.336-1.66.586.253 2.52-2.409.488-1.145 1.297-3.109.146-.458 1.496-2.157 1.254-1.207 3.241.515 1.456-4.337 1.414-1.011-.565-4.18 1.707.634 3.37-.651 2.175-2.172 1.664-3.383.278-.965-1.494-1.513 1.305-1.994.184-2.128-1.13-.104-1.433-1.746-1.954-2.584-1.084.051-2.81-1.366-1.307-1.686-7.773 1.381.685.783-1.773 1.835-1.846.165.089-1.283-2.799-1.982 2.092-1.097-.03-3.029 3.801-3.288-.373-3.808 3.287-.746-1.31-.299.238-.917 3.221.754 2.43-2.356 1.526-1.377-2.822.49-3.455-2.472-5.612 2.579-1.463-.337-4.692-4.117-1.5-.738-1.647-1.39-.467.486-2.18-1.484 1.447-4.611-1.398 1.555-4.439-1.223-3.118.921-2.201-.895-.815.517-1.117-1.698-.528.482-3.747-1.182-1.203.913-1.285-1.324-.492-.409-4.954-1.328-2.363.346-1.74 1.574-1.258-2.813-1.62 2.666-.85-.368-3.499-2.229-.266-2.263-1.991.395-1.174-.91-1.422-2.564-.569-2.375-3.376-1.541.415.797 4.653-3.089-3.666.217.827-1.359 4.415-2.666 4.595-2.601 1.137-2.133-1.888-2.118.113-.109 3.775-2.873.342 1.12 2.129-2.71 2.477.557 3.063-1.382-.565 8.952 12.536 4.274 9.605 1.71 11.828-.841 1.102.552 4.269-.789 3.978-4.671 6.02-2.144.236-2.273-2.546-1.512 1.128.193 1.747-1.435.754.897 1.058-.638 1.568.835 3.709.852-.079.957-1.43 1.794 1.087.011 2.453 2.609 2.834-1.376.617-2.789-4.014-.469.773.396.802 3.317 2.847 1.687 3.143-.327.823 3.574 3.093.551 3.324 1.245.44 2.147 3.582 1.338 5.898-1.478 1.574-1.04-.62-2.087 3.838 1.423.409-1.192 3.1 1.293 1.397 1.214 3.958 1.353 1.036.053-.003-.758-.989.449-2.396-1.382-1.692.391-1.918 4.665-1.87 4.216.176 2.864 2.676-1.37 1.043.957 1.884-1.152 1.502.346 2.465 5.282-1.441 1.769.94.598 1.537 2.293.589 1.352-.955 1.173.525 1.929 3.965-1.914 2.365 2.529-.652 5.926 4.791.11.837 1.071-.727 4.948.134 2.941 2.115 1.543-.612.61-2.502 3.846-1.449.245-1.134 4.203-2.471 2.053-2.629 4.904-1.285 4.571.773.16-2.286 1.517-.906 5.928.317 4.48 1.807 3.556-2.239 2.497-.376 4.121 1.22 2.967-.427 2.572-1.252.624-.955-.896-.662.646-1.366 5.537-1.658-.972-.571.381-1.741 3.113-1.934 5.298.1 3.722-2.028 9.757 2.882 1.088-.529 9.241 1.03.175-1.705 1.209-.954 4.06-1.268z"/></svg>