<?xml version="1.0" encoding="UTF-8" standalone="no"?>
<!-- Generator: Adobe Illustrator 26.3.1, SVG Export Plug-In . SVG Version: 6.00 Build 0)  -->

<svg
   version="1.1"
   id="_x31_6079785_x5F_Logo_x5F_Mockup_x5F_070_copy_xA0_Image_00000073713752788862728240000002952812444806896258_"
   x="0px"
   y="0px"
   viewBox="0 0 3000 3000"
   style="enable-background:new 0 0 3000 3000;"
   xml:space="preserve"
   sodipodi:docname="favicon.svg"
   inkscape:version="1.1.2 (0a00cf5339, 2022-02-04)"
   inkscape:export-filename="/home/philippe/uabox/2023-2024/projects/thememoriser/raw/logo/v2/favicon_white.png"
   inkscape:export-xdpi="38.57"
   inkscape:export-ydpi="38.57"
   xmlns:inkscape="http://www.inkscape.org/namespaces/inkscape"
   xmlns:sodipodi="http://sodipodi.sourceforge.net/DTD/sodipodi-0.dtd"
   xmlns="http://www.w3.org/2000/svg"
   xmlns:svg="http://www.w3.org/2000/svg"><defs
   id="defs357">
	
	
	
	
	
	
	
	
	
	
	
	
	
	
	
	
	
	
	
	
	
	
	
	
	
	
	
	
	
	
	
	
	
	
	
	
	
	
	
	
	
	
	
	
	
	
	
	
	
	
	
	
	
	

		
		
		
		
		
		
	
		
	
		
	
		
	
		
	
			
		
		
	
		
	
		
	
		
	
		
	
		
	
		
	
			
		
			
		
		
	
		
	
		
	
		
		
		
		
		
		
	
		
	
			
		
			
		
		
	
		
	
		
	
			
		</defs><sodipodi:namedview
   id="namedview355"
   pagecolor="#ffffff"
   bordercolor="#666666"
   borderopacity="1.0"
   inkscape:pageshadow="2"
   inkscape:pageopacity="0.0"
   inkscape:pagecheckerboard="true"
   showgrid="false"
   inkscape:zoom="0.269"
   inkscape:cx="1498.1413"
   inkscape:cy="1500"
   inkscape:window-width="1866"
   inkscape:window-height="1016"
   inkscape:window-x="1974"
   inkscape:window-y="27"
   inkscape:window-maximized="1"
   inkscape:current-layer="_x31_6079785_x5F_Logo_x5F_Mockup_x5F_070_copy_xA0_Image_00000073713752788862728240000002952812444806896258_"
   showguides="false"
   inkscape:snap-global="true" />
<style
   type="text/css"
   id="style2">
	.st0{fill:#000072;}
	.st1{fill:#E63C4B;}
	.st2{fill:#4765D4;}
	.st3{opacity:0.5;}
	.st4{fill:#FFFFFF;}
	.st5{opacity:0.3;}
	.st6{opacity:0.2;}
	.st7{opacity:0.6;}
	.st8{opacity:0.53;}
	.st9{fill:#F595A1;}
</style>
<circle
   style="opacity:1;fill:#ffffff;fill-opacity:1;stroke:#000000;stroke-width:0.5;stroke-linecap:round;stroke-linejoin:round;stop-color:#000000"
   id="path15390"
   cx="1500"
   cy="1500"
   r="1489.4601" /><g
   id="path1391"
   style="opacity:1;fill:#4865d6;fill-opacity:1"><path
     id="path2283"
     style="color:#000000;fill:#4865d6;stroke-width:0.5;stroke-linecap:round;stroke-linejoin:round;-inkscape-stroke:none;fill-opacity:1"
     d="M 1500,6.8945312 C 1104.0038,6.8944864 724.22655,164.20335 444.21495,444.21495 164.20335,724.22655 6.8944864,1104.0038 6.8945312,1500 7.2228149,1912.0377 177.80783,2305.624 478.26562,2587.582 481.61222,2545.8415 492.97788,2511.1502 515.30469,2493.791 552.7039,2464.6993 619.90926,2451.9891 697.74805,2437.2852 721.37393,2432.8159 745.81428,2428.1952 769.95508,2422.9785 831.87727,2409.5705 880.28962,2342.2344 904.8457,2300.748 905.31088,2291.6593 906.31096,2281.9261 907.02344,2272.5312 869.97427,2256.8202 845.55461,2234.4036 830.36328,2213.9844 790.87056,2160.9012 790.14154,2097.8018 801.50586,2059.9043 873.08744,1821.3154 968.14001,1766.9184 998.83008,1755.207 936.96061,1716.3958 883.00349,1663.1022 846.54102,1600.2773 841.44811,1603.9847 836.70884,1605.7165 832.45703,1605.0488 808.1832,1609.1693 783.92685,1611.2305 759.83594,1611.2305 645.90563,1610.393 484.67229,1561.9265 504.00586,1406.9219 510.78451,1385.3065 518.6766,1365.9314 526.30273,1347.2402 544.82789,1301.6336 560.76188,1262.1924 553.05273,1208.2617 543.7154,1143.3657 508.4757,1084.9689 474.34961,1028.5625 L 470.82617,1022.6445 C 409.78459,921.56224 403.17379,837.44285 451.08984,772.8457 503.07352,702.87175 578.48056,665.84854 666.92188,664.42188 707.12238,663.77338 750.01702,670.47985 794.62695,684.78906 858.32685,705.19157 920.48162,736.32531 975.52539,775.07031 979.14901,779.01286 982.48838,783.36794 985.67383,787.93945 1007.8993,731.5427 1053.4513,688.52874 1100.4434,651.1582 1218.9646,561.52174 1366.8733,515.24539 1515.5723,512.57812 1520.8386,512.48366 1526.106,512.44402 1531.373,512.45898 1694.6539,512.92245 1857.6636,565.96591 1982.543,671.92188 2019.1288,702.00372 2048.8543,737.4976 2074.0059,776.09766 2128.2648,739.02328 2198.5081,704.40632 2259.7559,684.78906 2304.3657,670.47985 2347.2603,663.77338 2387.4609,664.42188 2475.9022,665.84853 2551.3094,702.87175 2603.293,772.8457 2651.2093,837.44285 2644.5982,921.56224 2583.5566,1022.6445 L 2580.0352,1028.5625 C 2545.9091,1084.9689 2510.6694,1143.3657 2501.332,1208.2617 2493.6229,1262.1924 2509.5569,1301.6336 2528.082,1347.2402 2535.708,1365.9314 2543.5983,1385.3065 2550.377,1406.9219 2575.415,1487.2529 2518.4763,1551.8157 2450.9219,1580.1934 2401.9591,1600.762 2348.8952,1611.2305 2294.5488,1611.2305 2270.4576,1611.2305 2246.1995,1609.1693 2221.9258,1605.0488 2218.135,1604.408 2214.3377,1603.4513 2210.543,1602.709 2171.2061,1669.8372 2111.1275,1722.2627 2043.4648,1763.5625 2084.1705,1786.8163 2162.4023,1856.1808 2223.5234,2059.9043 2234.8878,2097.8018 2234.1547,2160.9012 2194.6621,2213.9844 2184.2762,2227.9357 2169.6227,2242.8661 2149.6777,2255.9785 2151.0384,2271.1554 2152.3983,2286.3394 2153.1426,2300.7637 2177.6822,2342.2669 2226.111,2409.5861 2288.0332,2422.9941 2312.1574,2428.211 2336.5998,2432.8318 2360.2422,2437.3008 2438.0643,2452.0215 2505.2863,2464.7147 2542.6855,2493.8066 2555.4074,2503.7018 2564.4428,2519.4573 2570.7266,2538.5898 2841.0909,2260.4067 2992.5754,1887.9206 2993.1055,1500 2993.1055,1104.0038 2835.7967,724.22654 2555.7851,444.21494 2275.7735,164.20333 1895.9962,6.8944782 1500,6.8945312 Z M 1217.543,1014.582 C 1160.2587,1014.5825 1113.8212,1068.3296 1113.8223,1134.6289 1113.8231,1200.9267 1160.26,1254.6714 1217.543,1254.6719 1274.826,1254.6714 1321.2629,1200.9267 1321.2637,1134.6289 1321.2648,1068.3296 1274.8273,1014.5825 1217.543,1014.582 Z M 1855.5,1025.7715 C 1799.5823,1025.7718 1754.2521,1078.0284 1754.252,1142.4902 1754.2521,1206.952 1799.5823,1259.2087 1855.5,1259.209 1911.417,1259.2075 1956.746,1206.9512 1956.7461,1142.4902 1956.746,1078.0293 1911.417,1025.773 1855.5,1025.7715 Z M 1245.7461,1053.0625 C 1265.0302,1053.0627 1280.584,1072.565 1280.584,1096.5273 1280.584,1120.4897 1265.0302,1139.992 1245.7461,1139.9922 1226.462,1139.9922 1210.9102,1120.4897 1210.9102,1096.5273 1210.9102,1072.5648 1226.462,1053.0625 1245.7461,1053.0625 Z M 1824.6602,1066.0449 C 1842.749,1066.0466 1857.4121,1083.9958 1857.4121,1106.1367 1857.4121,1128.2776 1842.749,1146.2268 1824.6602,1146.2285 1806.5698,1146.2296 1791.9043,1128.2795 1791.9043,1106.1367 1791.9043,1083.9939 1806.5698,1066.0438 1824.6602,1066.0449 Z M 1497.4355,2797.668 C 1348.8563,2797.668 1206.3625,2805.5399 1101.3011,2819.552 996.23967,2833.5642 937.2168,2852.5687 937.2168,2872.3848 937.34607,2875.7128 939.14239,2879.0359 942.59375,2882.332 944.33692,2883.5101 943.91858,2883.2701 946.51562,2885.1875 959.77981,2895.4777 989.0676,2905.2829 1032.4902,2913.9707 1183.1168,2965.0828 1340.9431,2991.7978 1500,2993.1055 1661.3188,2991.7366 1821.3497,2964.2329 1973.8691,2911.6641 2008.933,2901.4518 2030.8821,2894.2986 2046.6836,2887.043 2051.7389,2883.3222 2051.2713,2883.3963 2054.459,2880.2012 2056.5474,2877.605 2057.614,2874.9959 2057.6543,2872.3848 2057.6543,2852.5687 1998.6314,2833.5641 1893.57,2819.552 1788.5086,2805.5399 1646.0147,2797.668 1497.4355,2797.668 Z"
     sodipodi:nodetypes="sscccccccscccccccccccsccccsscccscccccccscccccccccsccssccccccscscssssscscscsscccccccccss" /></g><g
   class="st5"
   id="g38"
   transform="matrix(1.1690037,0,0,1.1690037,-2626.2642,-695.20254)">
			<g
   id="g36">
				<g
   id="g34">
					
				</g>
			</g>
		</g><g
   id="g56"
   transform="matrix(1.1690037,0,0,1.1690037,-2626.2642,-695.20254)">
			
		</g><g
   id="g60"
   transform="matrix(1.1690037,0,0,1.1690037,-2626.2642,-695.20254)">
			
		</g><g
   class="st3"
   id="g68"
   transform="matrix(1.1690037,0,0,1.1690037,-2626.2642,-695.20254)">
			<g
   id="g66">
				<g
   id="g64">
					
				</g>
			</g>
		</g><g
   id="g126"
   transform="matrix(1.1690037,0,0,1.1690037,-2626.2642,-695.20254)">
		
	</g>
<g
   id="g6"
   transform="matrix(2.0500977,0,0,2.0500977,809.80402,-1339.0703)" /><g
   id="g46"
   transform="matrix(1.1690037,0,0,1.1690037,3587.7341,-20.77969)"><g
     id="g44" /></g><g
   id="g182"
   transform="matrix(1.1690037,0,0,1.1690037,3587.7341,-20.77969)" /><g
   id="g224"
   transform="matrix(1.1690037,0,0,1.1690037,3587.7341,-20.77969)" /><g
   id="path13121"
   style="opacity:0.529426" /><style
   type="text/css"
   id="style2-3">
	.st0{fill:#000072;}
	.st1{fill:#E63C4B;}
	.st2{fill:#4765D4;}
	.st3{opacity:0.5;}
	.st4{fill:#FFFFFF;}
	.st5{opacity:0.3;}
	.st6{opacity:0.2;}
	.st7{opacity:0.6;}
	.st8{opacity:0.53;}
	.st9{fill:#F595A1;}
</style></svg>
