<?xml version="1.0" encoding="UTF-8" standalone="no"?>
<!-- Generator: Adobe Illustrator 26.3.1, SVG Export Plug-In . SVG Version: 6.00 Build 0)  -->

<svg
   version="1.1"
   id="_x31_6079785_x5F_Logo_x5F_Mockup_x5F_070_copy_xA0_Image_00000073713752788862728240000002952812444806896258_"
   x="0px"
   y="0px"
   viewBox="0 0 3000 3000"
   style="enable-background:new 0 0 3000 3000;"
   xml:space="preserve"
   sodipodi:docname="logo.svg"
   inkscape:version="1.1.2 (0a00cf5339, 2022-02-04)"
   inkscape:export-filename="/home/philippe/uabox/2023-2024/projects/thememoriser/raw/logo/v2/logo-square.png"
   inkscape:export-xdpi="38.400002"
   inkscape:export-ydpi="38.400002"
   xmlns:inkscape="http://www.inkscape.org/namespaces/inkscape"
   xmlns:sodipodi="http://sodipodi.sourceforge.net/DTD/sodipodi-0.dtd"
   xmlns="http://www.w3.org/2000/svg"
   xmlns:svg="http://www.w3.org/2000/svg"><defs
   id="defs357" /><sodipodi:namedview
   id="namedview355"
   pagecolor="#ffffff"
   bordercolor="#666666"
   borderopacity="1.0"
   inkscape:pageshadow="2"
   inkscape:pageopacity="0.0"
   inkscape:pagecheckerboard="0"
   showgrid="false"
   inkscape:zoom="0.28133333"
   inkscape:cx="1500"
   inkscape:cy="1501.7773"
   inkscape:window-width="1866"
   inkscape:window-height="1016"
   inkscape:window-x="1974"
   inkscape:window-y="27"
   inkscape:window-maximized="1"
   inkscape:current-layer="_x31_6079785_x5F_Logo_x5F_Mockup_x5F_070_copy_xA0_Image_00000073713752788862728240000002952812444806896258_" />
<style
   type="text/css"
   id="style2">
	.st0{fill:#000072;}
	.st1{fill:#E63C4B;}
	.st2{fill:#4765D4;}
	.st3{opacity:0.5;}
	.st4{fill:#FFFFFF;}
	.st5{opacity:0.3;}
	.st6{opacity:0.2;}
	.st7{opacity:0.6;}
	.st8{opacity:0.53;}
	.st9{fill:#F595A1;}
</style>
<g
   id="g352"
   transform="matrix(1.713013,0,0,1.713013,-1069.5196,-1069.5181)"
   inkscape:export-filename="/home/philippe/uabox/2023-2024/projects/thememoriser/raw/logo/v2/logo-square.png"
   inkscape:export-xdpi="72"
   inkscape:export-ydpi="72">
	<g
   id="g40">
		<g
   id="g8">
			<g
   id="g6">
				<path
   class="st0"
   d="M 2135.81,1039.61 2133.69,1043.17 C 2113.15,1077.12 2091.94,1112.27 2086.32,1151.33 2081.68,1183.79 2091.27,1207.53 2102.42,1234.98 2107.01,1246.23 2111.76,1257.89 2115.84,1270.9 2130.91,1319.25 2096.64,1358.11 2055.98,1375.19 2026.51,1387.57 1994.57,1393.87 1961.86,1393.87 1947.36,1393.87 1932.76,1392.63 1918.15,1390.15 1905.61,1388.03 1893.02,1384.99 1880.53,1381.02 1877.8,1380.19 1875.11,1379.32 1872.43,1378.39 L 1875.17,1370.55 1879.19,1358.89 C 1880.22,1359.25 1881.25,1359.61 1882.34,1359.92 1885.8,1361.11 1889.31,1362.19 1892.76,1363.17 1902.41,1365.96 1912.01,1368.23 1921.61,1369.83 1965.37,1377.21 2009.08,1372.51 2047.99,1356.16 2077.71,1343.72 2108.11,1315.5 2096.14,1277.05 2092.32,1264.87 2087.78,1253.62 2083.34,1242.73 2071.57,1213.78 2060.48,1186.38 2065.9,1148.4 2072.09,1105.21 2094.44,1068.26 2116.01,1032.5 L 2118.18,1028.94 C 2125.4,1016.92 2131.29,1005.51 2135.67,994.68 2151.1,957.06 2149.5,926.41 2131.08,901.59 2091.24,847.82 2024.21,831.2 1947.22,855.92 1909.81,867.94 1873.27,886.37 1841.23,909.38 1839.27,910.77 1837.36,912.17 1835.45,913.61 L 1834.31,912.06 1824.76,899.37 1823.06,897.1 C 1823.21,897 1823.32,896.89 1823.47,896.79 1826.31,894.67 1829.15,892.61 1832.04,890.6 1865.17,867.28 1902.58,848.54 1940.92,836.26 2026.84,808.7 2102.18,828 2147.69,889.26 2176.53,928.14 2172.55,978.77 2135.81,1039.61 Z"
   id="path4" />
			</g>
		</g>
		<g
   id="g14">
			<g
   id="g12">
				<path
   class="st0"
   d="M 2060.57,1077.02 2058.97,1079.65 C 2043.95,1104.47 2028.42,1130.17 2024.4,1158.45 2021.05,1181.72 2028.01,1198.91 2036.11,1218.83 2039.52,1227.19 2043.02,1235.86 2046.07,1245.56 2057.68,1282.87 2031.52,1312.75 2000.35,1325.85 1978.26,1335.14 1954.32,1339.83 1929.81,1339.83 1921.91,1339.83 1913.97,1339.31 1905.97,1338.33 1903.03,1337.97 1900.04,1337.56 1897.09,1337.04 1896.42,1336.94 1895.8,1336.83 1895.13,1336.68 1891.62,1336.06 1888.06,1335.34 1884.55,1334.46 1877.33,1332.81 1870.1,1330.69 1862.93,1328.22 L 1869.69,1308.71 C 1877.33,1311.39 1885.07,1313.56 1892.76,1315.21 1895.39,1315.78 1897.97,1316.24 1900.55,1316.71 1901.43,1316.86 1902.36,1317.02 1903.23,1317.12 1906.79,1317.69 1910.35,1318.1 1913.91,1318.41 1941.21,1320.94 1968.09,1317.02 1992.35,1306.8 2013.25,1298.03 2034.66,1278.32 2026.36,1251.69 2023.57,1242.81 2020.22,1234.56 2016.97,1226.56 2008.15,1204.84 1999.84,1184.3 2003.97,1155.5 2008.61,1123.09 2025.23,1095.54 2041.33,1068.96 L 2042.88,1066.33 C 2048.76,1056.58 2053.35,1047.44 2056.71,1038.77 V 1038.72 C 2066.57,1013.13 2065.17,992.17 2052.58,975.3 2023.89,936.6 1975.49,924.68 1919.81,942.53 1900.36,948.77 1881.26,957.39 1863.41,967.92 1860.31,969.73 1857.27,971.64 1854.28,973.54 1851.23,975.5 1848.19,977.51 1845.25,979.63 1842.82,981.28 1840.45,982.98 1838.13,984.74 L 1834.88,980.41 1825.75,968.23 C 1829.78,965.19 1833.9,962.3 1838.13,959.51 1841.12,957.45 1844.12,955.49 1847.21,953.63 1850.25,951.72 1853.3,949.86 1856.45,948.11 1874.61,937.74 1893.91,929.17 1913.52,922.88 1978.13,902.19 2034.89,916.79 2069.15,962.98 2091.17,992.7 2088.28,1031.04 2060.57,1077.02 Z"
   id="path10" />
			</g>
		</g>
		<g
   id="g18">
			<path
   class="st1"
   d="M 2056.7,1038.73 V 1038.78 C 2053.35,1047.45 2048.75,1056.58 2042.87,1066.34 L 2041.32,1068.97 C 2025.22,1095.55 2008.6,1123.1 2003.96,1155.51 1999.83,1184.3 2008.14,1204.84 2016.96,1226.57 2020.21,1234.57 2023.57,1242.83 2026.35,1251.7 2034.66,1278.33 2013.24,1298.04 1992.34,1306.81 1968.09,1317.03 1941.2,1320.95 1913.9,1318.42 1946.67,1222.44 1912.87,1109.53 1873.91,997.81 1870.45,987.85 1866.89,977.89 1863.38,967.93 1881.24,957.4 1900.33,948.79 1919.78,942.54 1975.46,924.69 2023.86,936.61 2052.55,975.31 2065.17,992.18 2066.56,1013.13 2056.7,1038.73 Z"
   id="path16" />
		</g>
		<g
   id="g22">
			<path
   class="st2"
   d="M 2145.93,953.84 C 2145.1,966.48 2141.65,980.05 2135.66,994.66 2133.54,999.87 2131.07,1005.24 2128.28,1010.71 2126.42,1014.43 2124.36,1018.19 2122.19,1022.01 2120.9,1024.28 2119.56,1026.6 2118.16,1028.92 L 2115.99,1032.48 C 2094.42,1068.24 2072.08,1105.19 2065.88,1148.38 2060.46,1186.36 2071.56,1213.76 2083.32,1242.71 2087.76,1253.6 2092.3,1264.85 2096.12,1277.03 2108.09,1315.47 2077.7,1343.7 2047.97,1356.14 2009.06,1372.5 1965.35,1377.19 1921.59,1369.81 1911.99,1368.21 1902.39,1365.94 1892.74,1363.15 1894.03,1361.09 1895.27,1359.02 1896.46,1356.96 1899.97,1350.82 1903.17,1344.63 1905.95,1338.33 1913.95,1339.31 1921.9,1339.83 1929.79,1339.83 1954.3,1339.83 1978.25,1335.13 2000.33,1325.85 2031.5,1312.74 2057.66,1282.86 2046.05,1245.56 2043,1235.86 2039.5,1227.19 2036.09,1218.83 2027.99,1198.91 2021.02,1181.73 2024.38,1158.45 2028.41,1130.17 2043.94,1104.47 2058.95,1079.65 L 2060.55,1077.02 C 2088.26,1031.04 2091.15,992.7 2069.12,962.98 2034.86,916.8 1978.09,902.19 1913.49,922.88 1893.88,929.18 1874.58,937.74 1856.42,948.11 1855.39,945.27 1854.36,942.38 1853.37,939.54 1852.44,936.96 1851.51,934.38 1850.53,931.85 1847.64,924.11 1844.54,916.58 1841.19,909.35 1843.1,908.01 1845.01,906.61 1846.97,905.27 1847.12,905.17 1847.33,905.01 1847.54,904.91 1877.99,883.96 1912.2,867.14 1947.19,855.89 1954.57,853.52 1961.9,851.56 1969.07,849.96 1993.74,844.39 2017.16,843.25 2038.68,846.45 2065.15,850.37 2088.73,860.74 2108.4,877.41 2109.54,878.29 2110.62,879.22 2111.7,880.25 2117.69,885.56 2123.26,891.55 2128.42,898.1 2128.99,898.77 2129.5,899.44 2129.97,900.16 2130.33,900.62 2130.69,901.09 2131.05,901.55 2142.31,916.74 2147.32,934.08 2145.93,953.84 Z"
   id="path20" />
		</g>
		<g
   class="st3"
   id="g30">
			<g
   id="g28">
				<g
   id="g26">
					<path
   class="st4"
   d="M 2145.93,953.84 C 2145.31,973.96 2138.19,996.72 2122.19,1022.01 2121.42,1023.3 2120.59,1024.59 2119.71,1025.88 2122.45,1020.62 2125.49,1015.56 2128.28,1010.71 2131.38,1005.24 2134.11,999.93 2135.66,994.66 2155.99,925.82 2111.46,885.16 2031.68,871.84 1956.29,859.25 1882.39,907.6 1850.55,931.85 1847.66,924.11 1844.56,916.58 1841.21,909.35 1843.12,908.01 1845.03,906.61 1846.99,905.27 1847.14,905.17 1847.35,905.01 1847.56,904.91 1865.52,893.04 1900.04,872.3 1941.06,858.36 1950.19,855.26 1959.53,852.37 1969.08,849.95 1989.1,845 2010.16,842.36 2032.09,845.36 2034.26,845.67 2036.48,846.03 2038.7,846.44 2062.64,850.77 2088.24,861.2 2108.42,877.4 2109.56,878.28 2110.64,879.21 2111.72,880.24 2118.02,885.55 2123.64,891.54 2128.44,898.09 2129.01,898.76 2129.52,899.43 2129.99,900.15 2140.46,915.19 2146.65,933.1 2145.93,953.84 Z"
   id="path24" />
				</g>
			</g>
		</g>
		<g
   class="st5"
   id="g38">
			<g
   id="g36">
				<g
   id="g34">
					<path
   class="st0"
   d="M 2052.68,1042.13 C 2056.04,1022.62 2051.48,998.89 2033.28,988.06 2010.68,974.61 1981.22,977.6 1956.56,982.4 1928.43,987.88 1902.03,997.63 1877.82,1013.11 1874.67,1015.12 1869.18,1005.14 1866.34,1007.2 1863.19,1009.47 1860.25,1011.69 1857.46,1013.86 1853.9,1003.59 1850.29,993.27 1846.62,982.9 1846,981.2 1845.38,979.49 1844.81,977.79 1847.44,976.04 1850.49,974.07 1853.89,971.96 1856.73,970.21 1859.82,968.35 1863.13,966.49 1888.78,951.83 1928.1,933.88 1967.63,933.31 1974.96,933.21 1992.55,932.43 2010.05,939.61 2043.7,953.39 2089.78,986.83 2046.95,1059.64 2049.38,1052.35 2051.59,1048.43 2052.68,1042.13 Z"
   id="path32" />
				</g>
			</g>
		</g>
	</g>
	<g
   id="g78">
		<g
   id="g46">
			<g
   id="g44">
				<path
   class="st0"
   d="M 864.19,1039.61 866.31,1043.17 C 886.85,1077.12 908.06,1112.27 913.68,1151.33 918.32,1183.79 908.73,1207.53 897.58,1234.98 892.99,1246.23 888.24,1257.89 884.16,1270.9 869.09,1319.25 903.36,1358.11 944.02,1375.19 973.49,1387.57 1005.43,1393.87 1038.14,1393.87 1052.64,1393.87 1067.24,1392.63 1081.85,1390.15 1094.39,1388.03 1106.98,1384.99 1119.47,1381.02 1122.2,1380.19 1124.89,1379.32 1127.57,1378.39 L 1124.83,1370.55 1120.81,1358.89 C 1119.78,1359.25 1118.75,1359.61 1117.66,1359.92 1114.2,1361.11 1110.69,1362.19 1107.24,1363.17 1097.59,1365.96 1087.99,1368.23 1078.39,1369.83 1034.63,1377.21 990.92,1372.51 952.01,1356.16 922.29,1343.72 891.89,1315.5 903.86,1277.05 907.68,1264.87 912.22,1253.62 916.66,1242.73 928.43,1213.78 939.52,1186.38 934.1,1148.4 927.91,1105.21 905.56,1068.26 883.99,1032.5 L 881.82,1028.94 C 874.6,1016.92 868.71,1005.51 864.33,994.68 848.9,957.06 850.5,926.41 868.92,901.59 908.76,847.82 975.79,831.2 1052.78,855.92 1090.19,867.94 1126.73,886.37 1158.77,909.38 1160.73,910.77 1162.64,912.17 1164.55,913.61 L 1165.69,912.06 1175.24,899.37 1176.94,897.1 C 1176.79,897 1176.68,896.89 1176.53,896.79 1173.69,894.67 1170.85,892.61 1167.96,890.6 1134.83,867.28 1097.42,848.54 1059.08,836.26 973.16,808.7 897.82,828 852.31,889.26 823.47,928.14 827.45,978.77 864.19,1039.61 Z"
   id="path42" />
			</g>
		</g>
		<g
   id="g52">
			<g
   id="g50">
				<path
   class="st0"
   d="M 939.43,1077.02 941.03,1079.65 C 956.05,1104.47 971.58,1130.17 975.6,1158.45 978.95,1181.72 971.99,1198.91 963.89,1218.83 960.48,1227.19 956.98,1235.86 953.93,1245.56 942.32,1282.87 968.48,1312.75 999.65,1325.85 1021.74,1335.14 1045.68,1339.83 1070.19,1339.83 1078.09,1339.83 1086.03,1339.31 1094.03,1338.33 1096.97,1337.97 1099.96,1337.56 1102.91,1337.04 1103.58,1336.94 1104.2,1336.83 1104.87,1336.68 1108.38,1336.06 1111.94,1335.34 1115.45,1334.46 1122.67,1332.81 1129.9,1330.69 1137.07,1328.22 L 1130.31,1308.71 C 1122.67,1311.39 1114.93,1313.56 1107.24,1315.21 1104.61,1315.78 1102.03,1316.24 1099.45,1316.71 1098.57,1316.86 1097.64,1317.02 1096.77,1317.12 1093.21,1317.69 1089.65,1318.1 1086.09,1318.41 1058.79,1320.94 1031.91,1317.02 1007.65,1306.8 986.75,1298.03 965.34,1278.32 973.64,1251.69 976.43,1242.81 979.78,1234.56 983.03,1226.56 991.85,1204.84 1000.16,1184.3 996.03,1155.5 991.39,1123.09 974.77,1095.54 958.67,1068.96 L 957.12,1066.33 C 951.24,1056.58 946.65,1047.44 943.29,1038.77 V 1038.72 C 933.43,1013.13 934.83,992.17 947.42,975.3 976.11,936.6 1024.51,924.68 1080.19,942.53 1099.64,948.77 1118.74,957.39 1136.59,967.92 1139.69,969.73 1142.73,971.64 1145.72,973.54 1148.77,975.5 1151.81,977.51 1154.75,979.63 1157.18,981.28 1159.55,982.98 1161.87,984.74 L 1165.12,980.41 1174.25,968.23 C 1170.22,965.19 1166.1,962.3 1161.87,959.51 1158.88,957.45 1155.88,955.49 1152.79,953.63 1149.75,951.72 1146.7,949.86 1143.55,948.11 1125.39,937.74 1106.09,929.17 1086.48,922.88 1021.87,902.19 965.11,916.79 930.85,962.98 908.83,992.7 911.72,1031.04 939.43,1077.02 Z"
   id="path48" />
			</g>
		</g>
		<g
   id="g56">
			<path
   class="st1"
   d="M 943.3,1038.73 V 1038.78 C 946.65,1047.45 951.25,1056.58 957.13,1066.34 L 958.68,1068.97 C 974.78,1095.55 991.4,1123.1 996.04,1155.51 1000.17,1184.3 991.86,1204.84 983.04,1226.57 979.79,1234.57 976.43,1242.83 973.65,1251.7 965.34,1278.33 986.76,1298.04 1007.66,1306.81 1031.91,1317.03 1058.8,1320.95 1086.1,1318.42 1053.33,1222.44 1087.13,1109.53 1126.09,997.81 1129.55,987.85 1133.11,977.89 1136.62,967.93 1118.76,957.4 1099.67,948.79 1080.22,942.54 1024.54,924.69 976.14,936.61 947.45,975.31 934.83,992.18 933.44,1013.13 943.3,1038.73 Z"
   id="path54" />
		</g>
		<g
   id="g60">
			<path
   class="st2"
   d="M 854.07,953.84 C 854.9,966.48 858.35,980.05 864.34,994.66 866.46,999.87 868.93,1005.24 871.72,1010.71 873.58,1014.43 875.64,1018.19 877.81,1022.01 879.1,1024.28 880.44,1026.6 881.84,1028.92 L 884.01,1032.48 C 905.58,1068.24 927.92,1105.19 934.12,1148.38 939.54,1186.36 928.44,1213.76 916.68,1242.71 912.24,1253.6 907.7,1264.85 903.88,1277.03 891.91,1315.47 922.3,1343.7 952.03,1356.14 990.94,1372.5 1034.65,1377.19 1078.41,1369.81 1088.01,1368.21 1097.61,1365.94 1107.26,1363.15 1105.97,1361.09 1104.73,1359.02 1103.54,1356.96 1100.03,1350.82 1096.83,1344.63 1094.05,1338.33 1086.05,1339.31 1078.1,1339.83 1070.21,1339.83 1045.7,1339.83 1021.75,1335.13 999.67,1325.85 968.5,1312.74 942.34,1282.86 953.95,1245.56 957,1235.86 960.5,1227.19 963.91,1218.83 972.01,1198.91 978.98,1181.73 975.62,1158.45 971.59,1130.17 956.06,1104.47 941.05,1079.65 L 939.45,1077.02 C 911.74,1031.04 908.85,992.7 930.88,962.98 965.14,916.8 1021.91,902.19 1086.51,922.88 1106.12,929.18 1125.42,937.74 1143.58,948.11 1144.61,945.27 1145.64,942.38 1146.63,939.54 1147.56,936.96 1148.49,934.38 1149.47,931.85 1152.36,924.11 1155.46,916.58 1158.81,909.35 1156.9,908.01 1154.99,906.61 1153.03,905.27 1152.88,905.17 1152.67,905.01 1152.46,904.91 1122.01,883.96 1087.8,867.14 1052.81,855.89 1045.43,853.52 1038.1,851.56 1030.93,849.96 1006.26,844.39 982.84,843.25 961.32,846.45 934.85,850.37 911.27,860.74 891.6,877.41 890.46,878.29 889.38,879.22 888.3,880.25 882.31,885.56 876.74,891.55 871.58,898.1 871.01,898.77 870.5,899.44 870.03,900.16 869.67,900.62 869.31,901.09 868.95,901.55 857.69,916.74 852.68,934.08 854.07,953.84 Z"
   id="path58" />
		</g>
		<g
   class="st3"
   id="g68">
			<g
   id="g66">
				<g
   id="g64">
					<path
   class="st4"
   d="M 854.07,953.84 C 854.69,973.96 861.81,996.72 877.81,1022.01 878.58,1023.3 879.41,1024.59 880.29,1025.88 877.55,1020.62 874.51,1015.56 871.72,1010.71 868.62,1005.24 865.89,999.93 864.34,994.66 844.01,925.82 888.54,885.16 968.32,871.84 1043.71,859.25 1117.61,907.6 1149.45,931.85 1152.34,924.11 1155.44,916.58 1158.79,909.35 1156.88,908.01 1154.97,906.61 1153.01,905.27 1152.86,905.17 1152.65,905.01 1152.44,904.91 1134.48,893.04 1099.96,872.3 1058.94,858.36 1049.81,855.26 1040.47,852.37 1030.92,849.95 1010.9,845 989.84,842.36 967.91,845.36 965.74,845.67 963.52,846.03 961.3,846.44 937.36,850.77 911.76,861.2 891.58,877.4 890.44,878.28 889.36,879.21 888.28,880.24 881.98,885.55 876.36,891.54 871.56,898.09 870.99,898.76 870.48,899.43 870.01,900.15 859.54,915.19 853.35,933.1 854.07,953.84 Z"
   id="path62" />
				</g>
			</g>
		</g>
		<g
   class="st5"
   id="g76">
			<g
   id="g74">
				<g
   id="g72">
					<path
   class="st0"
   d="M 947.32,1042.13 C 943.96,1022.62 948.52,998.89 966.72,988.06 989.32,974.61 1018.78,977.6 1043.44,982.4 1071.57,987.88 1097.97,997.63 1122.18,1013.11 1125.33,1015.12 1130.82,1005.14 1133.66,1007.2 1136.81,1009.47 1139.75,1011.69 1142.54,1013.86 1146.1,1003.59 1149.71,993.27 1153.38,982.9 1154,981.2 1154.62,979.49 1155.19,977.79 1152.56,976.04 1149.51,974.07 1146.11,971.96 1143.27,970.21 1140.18,968.35 1136.87,966.49 1111.22,951.83 1071.9,933.88 1032.37,933.31 1025.04,933.21 1007.45,932.43 989.95,939.61 956.3,953.39 910.22,986.83 953.05,1059.64 950.62,1052.35 948.41,1048.43 947.32,1042.13 Z"
   id="path70" />
				</g>
			</g>
		</g>
	</g>
	<g
   class="st6"
   id="g82">
		<ellipse
   class="st0"
   cx="1501.0699"
   cy="2193.8701"
   rx="551.32001"
   ry="73.529999"
   id="ellipse80" />
	</g>
	<g
   id="g86">
		<path
   class="st2"
   d="M 2121.1,2033.37 C 2118,2054.35 2112.43,2076.03 2104.72,2095.96 2080.64,2158.19 2019.16,2190.79 1972.49,2177.25 1925.83,2163.7 1894.97,2146.39 1820.45,2147.14 1765.9,2147.68 1683.92,2145 1643.91,2143.53 1600.86,2154.52 1552.87,2160.27 1501.09,2162.2 1449.28,2160.27 1401.29,2154.52 1358.21,2143.53 1356.92,2143.59 1355.56,2143.62 1354.18,2143.68 1351.71,2143.77 1349.09,2143.86 1346.35,2143.95 1303.6,2145.46 1231.31,2147.62 1181.7,2147.14 1107.19,2146.39 1076.33,2163.7 1029.66,2177.25 983,2190.8 921.49,2158.19 897.4,2095.96 895.59,2091.29 893.91,2086.51 892.34,2081.66 873.04,2022.14 872.35,1952.87 897.4,1933.39 924.5,1912.32 986.21,1905.78 1046.43,1892.75 1088.85,1883.57 1120.67,1838.11 1135.82,1811.97 1136.93,1788.4 1139.4,1763.32 1143.32,1736.7 L 1335.19,1449.67 1501.11,1513.86 1666.99,1449.67 1853.92,1729.33 1858.86,1736.71 C 1862.71,1763.32 1865.24,1788.4 1866.36,1811.98 1866.93,1813 1867.56,1814.03 1868.2,1815.11 1884.01,1841.57 1914.98,1883.93 1955.72,1892.75 2015.93,1905.79 2077.65,1912.32 2104.75,1933.39 2123.15,1947.72 2127.64,1988.93 2121.1,2033.37 Z"
   id="path84" />
	</g>
	<g
   id="g90">
		<path
   class="st0"
   d="M 2005.44,2187.16 C 1984.56,2187.16 1971.23,2176.75 1963.17,2166.55 1928.47,2122.61 1941.72,2023.08 1976.74,1963.44 1992.62,1936.4 2013.1,1919.85 2037.63,1914.25 2077.03,1905.26 2111.9,1928.26 2113.36,1929.24 2117.5,1932.02 2118.6,1937.63 2115.83,1941.77 2113.05,1945.91 2107.45,1947.01 2103.31,1944.25 V 1944.25 C 2103.01,1944.05 2073.22,1924.57 2041.5,1931.9 2022.09,1936.38 2005.54,1950.07 1992.31,1972.59 1958.03,2030.98 1950.61,2121.51 1977.35,2155.36 1987.98,2168.82 2002.98,2172.35 2023.21,2166.16 2027.99,2164.7 2033.03,2167.38 2034.49,2172.16 2035.95,2176.93 2033.27,2181.98 2028.5,2183.44 2019.95,2186.04 2012.29,2187.16 2005.44,2187.16 Z"
   id="path88" />
	</g>
	<g
   id="g94">
		<path
   class="st0"
   d="M 2019.76,1977.18 C 2011.32,1977.18 1999.26,1973.34 1988.69,1955.51 1986.15,1951.22 1987.56,1945.68 1991.85,1943.13 1996.14,1940.59 2001.68,1942.01 2004.23,1946.3 2007.59,1951.96 2014.42,1961.12 2022.41,1958.75 2031.15,1956.18 2039.73,1941.56 2038.98,1921.55 2038.8,1916.71 2042.47,1912.58 2047.3,1912.21 2052.14,1911.81 2056.4,1915.33 2056.98,1920.14 2059.89,1944.36 2066.85,1954.59 2071.93,1955.99 2074.29,1956.64 2083.36,1956.96 2101.19,1933.9 2104.24,1929.95 2109.91,1929.23 2113.86,1932.28 2117.81,1935.33 2118.53,1941 2115.48,1944.95 2097.56,1968.14 2081.73,1977.46 2067.12,1973.41 2059.74,1971.37 2053.62,1965.98 2048.91,1957.46 2043.69,1966.77 2036.27,1973.52 2027.51,1976.1 2025.63,1976.63 2022.95,1977.18 2019.76,1977.18 Z"
   id="path92" />
	</g>
	<g
   id="g98">
		<path
   class="st0"
   d="M 2118.71,2017.36 C 2106.1,2017.36 2093.02,2009.56 2086.68,1997.41 2082.12,1988.68 2075.09,1965.39 2108.17,1937.84 2112,1934.65 2117.7,1935.17 2120.89,1939 2124.08,1942.83 2123.56,1948.53 2119.73,1951.72 2103.55,1965.19 2097.34,1978.8 2102.69,1989.06 2106.63,1996.6 2115.88,2000.51 2121.52,1998.95 2126.33,1997.63 2131.3,2000.46 2132.62,2005.27 2133.94,2010.08 2131.11,2015.05 2126.3,2016.37 2123.83,2017.04 2121.28,2017.36 2118.71,2017.36 Z"
   id="path96" />
	</g>
	<g
   id="g102">
		<path
   class="st0"
   d="M 1007.17,2190.93 C 958.82,2190.93 908.73,2154.36 887.6,2099.76 862.88,2035.88 858.33,1950.44 890.96,1925.07 913.47,1907.56 953.92,1899.91 1000.77,1891.06 1014.99,1888.37 1029.7,1885.59 1044.23,1882.45 1081.5,1874.38 1110.64,1833.85 1125.42,1808.88 1126.6,1785.82 1129.11,1761.05 1132.89,1735.19 1133.12,1733.64 1133.69,1732.16 1134.56,1730.86 L 1326.43,1443.83 C 1329.17,1439.73 1334.39,1438.08 1338.99,1439.86 L 1501.1,1502.58 1663.18,1439.87 C 1667.79,1438.09 1673,1439.74 1675.74,1443.84 L 1867.61,1730.87 C 1868.48,1732.17 1869.05,1733.65 1869.28,1735.2 1873.05,1761.05 1875.56,1785.83 1876.75,1808.89 1891.52,1833.87 1920.67,1874.39 1957.94,1882.46 1972.46,1885.6 1987.17,1888.38 2001.4,1891.07 2048.24,1899.93 2088.7,1907.57 2111.21,1925.08 2143.84,1950.46 2139.29,2035.9 2114.57,2099.77 2089.69,2164.06 2024.65,2203.37 1969.58,2187.37 1959.27,2184.38 1949.72,2181.2 1940.47,2178.13 1907.93,2167.32 1877.17,2156.96 1820.59,2157.68 1767.12,2158.2 1688.31,2155.7 1645.06,2154.11 1603.48,2164.59 1556.5,2170.68 1501.5,2172.72 1501.24,2172.73 1500.98,2172.73 1500.72,2172.72 1445.71,2170.68 1398.72,2164.59 1357.13,2154.11 1313.88,2155.7 1235.08,2158.2 1181.61,2157.68 1125.01,2157.07 1094.27,2167.32 1061.72,2178.13 1052.48,2181.2 1042.92,2184.37 1032.61,2187.37 1024.29,2189.78 1015.75,2190.93 1007.17,2190.93 Z M 1825.18,2136.58 C 1882.23,2136.58 1913.75,2147.06 1947.09,2158.13 1956.14,2161.14 1965.51,2164.25 1975.43,2167.13 2014.7,2178.52 2072.07,2151.12 2094.89,2092.16 2118.29,2031.69 2119.93,1958.57 2098.25,1941.71 2079.76,1927.33 2039.79,1919.77 1997.47,1911.77 1983.11,1909.06 1968.27,1906.25 1953.47,1903.05 1907.17,1893.02 1873.3,1845 1857.23,1817.26 1856.38,1815.8 1855.9,1814.16 1855.82,1812.48 1854.76,1790.06 1852.39,1765.88 1848.76,1740.59 L 1662.91,1462.56 1504.9,1523.7 C 1502.46,1524.64 1499.74,1524.64 1497.3,1523.7 L 1339.26,1462.56 1153.41,1740.59 C 1149.79,1765.89 1147.41,1790.07 1146.35,1812.48 1146.27,1814.16 1145.79,1815.8 1144.94,1817.26 1128.87,1844.99 1094.99,1893.02 1048.7,1903.05 1033.9,1906.25 1019.05,1909.06 1004.7,1911.77 962.38,1919.77 922.4,1927.33 903.92,1941.71 882.24,1958.57 883.87,2031.69 907.28,2092.16 930.1,2151.12 987.47,2178.52 1026.74,2167.13 1036.66,2164.25 1046.02,2161.14 1055.08,2158.13 1089.34,2146.75 1121.69,2135.95 1181.82,2136.61 1235.48,2137.12 1315.15,2134.58 1357.87,2133 1358.89,2132.96 1359.89,2133.07 1360.86,2133.32 1401.24,2143.63 1447.12,2149.62 1501.11,2151.65 1555.08,2149.62 1600.95,2143.63 1641.33,2133.32 1642.31,2133.07 1643.32,2132.96 1644.32,2133 1687.03,2134.58 1766.71,2137.13 1820.37,2136.61 1821.97,2136.59 1823.59,2136.58 1825.18,2136.58 Z"
   id="path100" />
	</g>
	<g
   id="g106">
		<path
   class="st0"
   d="M 996.69,2187.16 C 989.84,2187.16 982.18,2186.04 973.63,2183.42 968.86,2181.96 966.18,2176.91 967.64,2172.14 969.1,2167.37 974.15,2164.68 978.92,2166.14 999.16,2172.33 1014.16,2168.8 1024.78,2155.34 1051.51,2121.49 1044.1,2030.95 1009.82,1972.57 996.6,1950.05 980.05,1936.36 960.63,1931.88 928.91,1924.56 899.12,1944.04 898.82,1944.23 894.67,1946.99 889.07,1945.87 886.3,1941.73 883.53,1937.59 884.63,1932 888.77,1929.22 890.24,1928.23 925.1,1905.24 964.5,1914.23 989.02,1919.83 1009.51,1936.38 1025.39,1963.42 1060.41,2023.06 1073.65,2122.59 1038.96,2166.53 1030.91,2176.75 1017.57,2187.16 996.69,2187.16 Z"
   id="path104" />
	</g>
	<g
   id="g110">
		<path
   class="st0"
   d="M 982.38,1977.18 C 979.18,1977.18 976.51,1976.63 974.63,1976.08 965.88,1973.5 958.45,1966.75 953.23,1957.44 948.52,1965.96 942.4,1971.35 935.02,1973.39 920.4,1977.44 904.59,1968.12 886.66,1944.93 883.61,1940.98 884.34,1935.31 888.28,1932.26 892.22,1929.21 897.9,1929.93 900.95,1933.88 918.79,1956.95 927.86,1956.62 930.21,1955.97 935.29,1954.57 942.25,1944.34 945.16,1920.12 945.74,1915.31 950.02,1911.79 954.84,1912.19 959.67,1912.57 963.34,1916.69 963.16,1921.53 962.41,1941.54 970.99,1956.16 979.73,1958.73 987.72,1961.1 994.55,1951.94 997.91,1946.28 1000.45,1941.99 1005.99,1940.58 1010.29,1943.11 1014.58,1945.65 1016,1951.19 1013.45,1955.49 1002.88,1973.34 990.81,1977.18 982.38,1977.18 Z"
   id="path108" />
	</g>
	<g
   id="g114">
		<path
   class="st0"
   d="M 883.42,2017.36 C 880.85,2017.36 878.3,2017.04 875.83,2016.36 871.02,2015.04 868.19,2010.07 869.51,2005.26 870.83,2000.45 875.8,1997.62 880.61,1998.94 886.25,2000.5 895.5,1996.59 899.43,1989.05 904.78,1978.79 898.57,1965.19 882.39,1951.71 878.56,1948.52 878.04,1942.82 881.23,1938.99 884.42,1935.16 890.12,1934.64 893.95,1937.83 927.04,1965.38 920,1988.67 915.44,1997.4 909.11,2009.56 896.03,2017.36 883.42,2017.36 Z"
   id="path112" />
	</g>
	<g
   id="g118">
		<path
   class="st2"
   d="M 1501.07,1566.71 C 1519.79,1566.71 1538.5,1564.94 1556.89,1561.44 2050.62,1467.47 1945.57,1220.36 1858.95,974.01 1774.26,733.16 1501.07,743.2 1501.07,743.2 1501.07,743.2 1227.88,733.16 1143.19,974 1056.57,1220.35 951.52,1467.46 1445.25,1561.43 1463.64,1564.94 1482.34,1566.71 1501.07,1566.71 Z"
   id="path116" />
	</g>
	<g
   id="g122">
		<path
   class="st2"
   d="M 1753.33,824.73 C 1645.67,751.33 1518.62,756 1518.62,756 1518.62,756 1377.78,750.82 1267.02,837.08 1269.16,899.25 1240.68,933.21 1181.58,938.96 1173.78,953.68 1166.8,969.61 1160.75,986.8 1097.83,1165.78 1025.18,1345.15 1179.45,1465.91 1002.37,1345.27 1078.02,1159.43 1143.2,974.01 1227.89,733.16 1501.07,743.22 1501.07,743.22 1501.07,743.22 1642.45,737.99 1753.33,824.73 Z"
   id="path120" />
	</g>
	<g
   id="g126">
		<path
   class="st2"
   d="M 1645.03,1209.33 C 1631.06,1262.05 1592.49,1305.01 1538.97,1324.31 1521.72,1330.51 1502.9,1334.25 1482.88,1335.06 1473.64,1335.42 1464.12,1335.18 1454.4,1334.28 L 1415.8,1284.76 1364.08,1218.38 C 1364.08,1218.38 1388.92,1131.82 1490.53,1143.87 1435.59,1024.95 1469.79,876.56 1563.93,848.44 1583.11,810.45 1637.69,817.22 1607.58,872.92 1607.58,872.92 1619.98,880.78 1630.49,891.25 1635.4,896.16 1639.91,901.64 1642.56,907.15 1650.84,924.49 1639.55,971.88 1591.02,960.62 1591.02,960.62 1578.19,1007.65 1603.42,1044.53 1628.66,1081.38 1665.6,1131.81 1645.03,1209.33 Z"
   id="path124" />
	</g>
	<g
   id="g130">
		<path
   class="st4"
   d="M 1615.65,837.82 C 1603.43,832.76 1583.89,840.41 1573.92,860.16 1544.36,868.98 1520.72,889.66 1503.92,917.57 1508.86,943.19 1500.55,957.43 1483.81,964.42 1467.34,1021.62 1471.47,1092.73 1500.52,1155.59 1438.23,1148.21 1404.78,1177.87 1388.25,1201.95 L 1365.97,1213 C 1373.41,1194.33 1404.36,1133.64 1490.52,1143.85 1435.58,1024.93 1469.78,876.54 1563.92,848.42 1577.81,820.93 1610.2,816.87 1615.65,837.82 Z"
   id="path128" />
	</g>
	<g
   id="g134">
		<path
   class="st0"
   d="M 1364.08,1218.37 C 1376.39,1161.02 1434.17,1123.61 1491.59,1134.89 1491.6,1134.89 1482.33,1147.65 1482.33,1147.65 1441.45,1060.02 1441.19,927.21 1520.97,861.01 1532.9,851.59 1546.65,844.23 1561.33,839.79 L 1555.85,844.37 C 1560.49,835.3 1567.47,827.11 1576.68,821.65 1610.54,802.88 1635.6,829.8 1621.45,864.17 1619.79,868.78 1617.68,873.01 1615.51,877.19 L 1612.4,865.27 C 1627.84,875.91 1643.59,887.77 1651.58,905.3 1661.52,934.42 1641,969.86 1609.34,971.14 1602.26,971.69 1595.41,970.88 1588.96,969.38 L 1599.72,962.95 C 1597.52,972.24 1596.59,982.5 1596.87,992.12 1597.21,1009.35 1601.7,1025.94 1611.37,1040.12 1611.37,1040.12 1615.9,1046.73 1615.9,1046.73 1634.67,1073.76 1651.86,1103.66 1657.41,1136.67 1669.46,1203.47 1638.03,1275.23 1582.09,1313.42 1545.15,1338.38 1496.88,1345.71 1454.4,1334.28 1501.46,1330.83 1546.41,1317.08 1583.37,1288.27 1623.39,1257.15 1644.83,1205.04 1641.55,1154.8 1639.23,1118.56 1621.5,1086.25 1600.98,1056.93 1598.02,1052.73 1594.42,1047.28 1591.83,1042.85 1583.26,1027.63 1579.16,1009.83 1578.82,992.61 1578.54,984.01 1579.19,975.48 1580.51,966.99 1581.02,964.08 1581.46,961.48 1582.3,958.22 1583.48,953.64 1588.02,950.82 1592.6,951.7 1613.48,957.29 1631.64,948.34 1635.39,926.65 1636.57,919.56 1636.41,913.17 1632.43,907.62 1624.99,896.67 1613.85,888.09 1602.73,880.53 1598.78,877.92 1597.52,872.73 1599.62,868.61 1603.1,861.96 1606.37,854.63 1607.18,847.42 1609.32,832.18 1596.84,830.77 1585.87,837.2 1580.06,840.63 1575.25,846.13 1571.97,852.51 1570.81,854.78 1568.77,856.41 1566.49,857.1 1514,872.87 1485.51,928.07 1476.97,979.61 1467.76,1033.52 1475.99,1090.39 1498.72,1140.08 1501.78,1146.25 1496.2,1153.8 1489.46,1152.84 1470.59,1152.24 1452.15,1152.04 1434.05,1156.99 1402.98,1165.3 1377.75,1189.22 1364.08,1218.37 Z"
   id="path132" />
	</g>
	<g
   id="g138">
		<path
   class="st0"
   d="M 1497.12,1137.67 C 1509.8,1154.57 1526.35,1170.46 1546.73,1177.72 1523.42,1175.89 1502.3,1164.17 1483.94,1150.03 1473.68,1140.87 1488.61,1126.84 1497.12,1137.67 Z"
   id="path136" />
	</g>
	<g
   id="g142">
		<path
   class="st0"
   d="M 1572.53,851.14 C 1567.17,861.69 1564.97,874 1565.64,885.89 1565.82,890.1 1566.66,894.26 1567.67,898.5 1565.29,894.91 1562.96,891.11 1561.26,886.98 1555.74,874.14 1553.56,859.73 1555.29,845.74 1555.29,845.74 1572.53,851.14 1572.53,851.14 Z"
   id="path140" />
	</g>
	<g
   id="g146">
		<path
   class="st0"
   d="M 1614.79,878.32 C 1605.45,887.58 1600.99,902.44 1606.82,914.92 1608.64,919.59 1611.86,923.56 1615.09,927.47 1610.74,924.57 1606.3,921.52 1603,917.32 1591.07,903.86 1591.93,882.74 1600.34,867.49 1600.34,867.48 1614.79,878.32 1614.79,878.32 Z"
   id="path144" />
	</g>
	<g
   id="g150">
		<path
   class="st0"
   d="M 1586.97,968.66 C 1580.86,963.9 1576.27,957.64 1572.81,950.88 1569.62,944.65 1567.89,937.7 1567.68,930.85 1569.31,933.77 1571,936.52 1573.13,938.89 1578.82,945.44 1586.63,950.74 1595.06,952.5 1595.05,952.5 1586.97,968.66 1586.97,968.66 Z"
   id="path148" />
	</g>
	<g
   id="g154">
		<path
   class="st0"
   d="M 1498.48,915.48 C 1494.08,929.75 1499.24,944.98 1507.85,957.09 1514.79,967.16 1524.84,975.4 1534.98,982.48 L 1545.85,989.19 C 1529.65,983.12 1513.49,975.44 1501,962.98 1487.41,950 1477.86,929.83 1481.11,910.53 1481.11,910.53 1498.48,915.48 1498.48,915.48 Z"
   id="path152" />
	</g>
	<g
   id="g158">
		<path
   class="st0"
   d="M 1472.08,1023.69 C 1476.95,1033.3 1487.4,1039.3 1497.5,1043.39 1505.73,1046.81 1515.96,1048.69 1524.94,1049.85 1524.94,1049.85 1534.55,1050.61 1534.55,1050.61 L 1524.95,1052.11 C 1501.27,1054.81 1472.66,1052.56 1456.38,1032.64 1456.4,1032.64 1472.08,1023.69 1472.08,1023.69 Z"
   id="path156" />
	</g>
	<g
   id="g162">
		<path
   class="st0"
   d="M 1474.71,1147.2 C 1463.49,1164.46 1457.82,1185.61 1458.19,1206.23 1458.17,1213.43 1459.35,1220.58 1460.8,1227.78 1454.71,1214.27 1451.14,1199.3 1450.93,1184.36 1450.61,1168.75 1453.02,1153.01 1458.93,1138.39 1458.94,1138.39 1474.71,1147.2 1474.71,1147.2 Z"
   id="path160" />
	</g>
	<g
   id="g166">
		<path
   class="st0"
   d="M 1932.13,1255.56 V 1255.2 C 1932.08,1253.03 1931.98,1250.87 1931.87,1248.65 1931.82,1247.36 1931.77,1246.07 1931.66,1244.78 1931.66,1244.57 1931.66,1244.37 1931.61,1244.16 1931.51,1242.25 1931.4,1240.34 1931.25,1238.38 1931.1,1236.21 1930.94,1234.1 1930.73,1231.93 1930.37,1227.75 1929.9,1223.57 1929.39,1219.39 1929.08,1217.07 1928.82,1214.69 1928.46,1212.37 1928.1,1209.43 1927.63,1206.49 1927.17,1203.6 1926.76,1200.71 1926.24,1197.87 1925.78,1195.03 1925.21,1191.83 1924.64,1188.63 1923.97,1185.38 1923.35,1182.18 1922.68,1178.93 1922.01,1175.68 1921.49,1173.15 1920.93,1170.57 1920.36,1168.04 1919.33,1163.4 1918.3,1158.75 1917.11,1154.11 1916.08,1149.72 1914.94,1145.34 1913.76,1140.95 1913.09,1138.42 1912.42,1135.84 1911.7,1133.26 1909.12,1123.71 1906.33,1114.06 1903.34,1104.41 1902.41,1101.31 1901.48,1098.27 1900.5,1095.17 1900.04,1093.67 1899.57,1092.23 1899.11,1090.73 1898.18,1087.79 1897.25,1084.9 1896.32,1082.01 1896.16,1081.55 1896.01,1081.03 1895.86,1080.57 1893.95,1074.64 1891.94,1068.7 1889.98,1062.72 1888.53,1058.39 1887.04,1054.1 1885.54,1049.77 1883.89,1044.82 1882.13,1039.86 1880.43,1034.91 1877.28,1037.18 1874.34,1039.4 1871.55,1041.57 1910.25,1152.88 1940.6,1257.89 1908.24,1346.18 1910.87,1346.75 1913.45,1347.21 1916.03,1347.68 1916.91,1347.83 1917.84,1347.99 1918.71,1348.09 1919.33,1346.34 1919.95,1344.58 1920.46,1342.83 1920.87,1341.69 1921.18,1340.61 1921.54,1339.48 1921.64,1339.27 1921.7,1339.07 1921.75,1338.86 1922.11,1337.78 1922.42,1336.64 1922.73,1335.51 1923.3,1333.6 1923.81,1331.69 1924.33,1329.73 1924.79,1327.82 1925.26,1325.91 1925.72,1323.95 1926.18,1321.99 1926.6,1320.08 1927.01,1318.12 1927.42,1316.16 1927.78,1314.2 1928.15,1312.24 1928.51,1310.28 1928.82,1308.32 1929.13,1306.31 1929.18,1306.1 1929.18,1305.95 1929.23,1305.74 1929.49,1303.99 1929.75,1302.18 1929.95,1300.37 1930.21,1298.56 1930.41,1296.76 1930.62,1294.9 1931.08,1290.72 1931.45,1286.54 1931.65,1282.31 1931.8,1280.3 1931.91,1278.23 1931.96,1276.22 1932.17,1272.14 1932.22,1268.07 1932.22,1263.94 1932.24,1261.14 1932.19,1258.35 1932.13,1255.56 Z M 1209.49,861.27 C 1207.74,863.13 1206.03,865.09 1204.38,867.05 H 1204.33 C 1204.17,867.2 1204.07,867.36 1203.92,867.51 1202.63,869.01 1201.34,870.55 1200.1,872.1 1198.65,873.8 1197.26,875.56 1195.87,877.31 1195.2,878.14 1194.53,879.01 1193.91,879.89 1190.56,884.17 1187.25,888.56 1184.11,893.15 1182.46,895.47 1180.86,897.85 1179.31,900.27 1175.8,905.64 1172.39,911.21 1169.09,916.94 1167.39,919.98 1165.68,923.03 1164.03,926.13 1162.64,928.81 1161.24,931.5 1159.9,934.28 1159.9,934.28 1159.85,934.28 1159.85,934.33 1159.8,934.48 1159.7,934.64 1159.64,934.79 1158.45,937.16 1157.32,939.54 1156.23,942.01 1156.13,942.22 1156.02,942.42 1155.92,942.63 1155.15,944.23 1154.42,945.88 1153.7,947.53 1153.03,948.98 1152.41,950.42 1151.79,951.86 1151.07,953.51 1150.34,955.21 1149.67,956.92 1149.36,957.64 1149.05,958.37 1148.79,959.09 1147.86,961.31 1146.98,963.58 1146.16,965.85 1145.13,968.53 1144.15,971.27 1143.17,974 1139.51,984.37 1135.84,994.74 1132.18,1005.07 1130.68,1009.35 1129.19,1013.58 1127.69,1017.87 1127.33,1018.85 1127.02,1019.83 1126.66,1020.81 1123.36,1030.15 1120.11,1039.49 1116.91,1048.83 1116.81,1049.14 1116.7,1049.45 1116.6,1049.76 1114.79,1055.02 1112.99,1060.34 1111.23,1065.6 1109.48,1070.92 1107.72,1076.18 1106.02,1081.44 1104.52,1086.03 1103.08,1090.63 1101.63,1095.17 1100.65,1098.27 1099.72,1101.31 1098.79,1104.41 1096.93,1110.55 1095.13,1116.64 1093.37,1122.73 1085.53,1150.18 1079.08,1177.17 1074.95,1203.59 1074.49,1206.48 1074.02,1209.42 1073.66,1212.36 1073.3,1214.89 1072.99,1217.42 1072.68,1220 1072.37,1222.48 1072.11,1224.95 1071.85,1227.43 1071.69,1228.93 1071.54,1230.42 1071.39,1231.92 1071.23,1233.88 1071.08,1235.84 1070.93,1237.8 1070.78,1239.55 1070.67,1241.26 1070.57,1243.01 1070.42,1244.97 1070.31,1246.88 1070.26,1248.79 1070.21,1249.56 1070.16,1250.34 1070.16,1251.06 1070.06,1252.97 1070.01,1254.83 1070.01,1256.68 1069.96,1259.11 1069.91,1261.48 1069.91,1263.9 1069.91,1266.33 1069.96,1268.7 1070.01,1271.07 1070.01,1272.77 1070.06,1274.48 1070.16,1276.18 1070.21,1278.09 1070.31,1279.95 1070.47,1281.86 V 1282.58 C 1070.52,1283.56 1070.63,1284.54 1070.68,1285.47 1070.68,1285.68 1070.73,1285.93 1070.73,1286.14 1070.83,1287.74 1070.99,1289.24 1071.14,1290.78 1071.35,1292.95 1071.55,1295.11 1071.81,1297.28 1072.64,1304.56 1073.82,1311.73 1075.27,1318.85 1075.53,1319.99 1075.73,1321.07 1076.04,1322.2 1076.35,1323.75 1076.71,1325.3 1077.12,1326.84 1077.53,1328.65 1078,1330.5 1078.51,1332.31 1078.61,1332.72 1078.72,1333.08 1078.82,1333.5 1079.44,1335.77 1080.11,1338.04 1080.83,1340.26 1080.93,1340.62 1081.04,1340.98 1081.14,1341.34 1081.76,1343.2 1082.38,1345 1083,1346.86 1083.36,1347.94 1083.77,1348.98 1084.19,1350.06 1085.17,1352.9 1086.31,1355.74 1087.49,1358.57 1087.75,1359.24 1088.06,1359.96 1088.42,1360.69 1088.99,1362.08 1089.61,1363.48 1090.28,1364.92 1090.33,1365.02 1090.38,1365.13 1090.43,1365.23 1091,1366.52 1091.57,1367.81 1092.24,1369.1 1092.86,1370.49 1093.53,1371.83 1094.25,1373.23 1095.08,1374.83 1095.9,1376.43 1096.78,1378.03 1097.97,1380.3 1099.26,1382.52 1100.6,1384.79 1100.7,1385 1100.86,1385.2 1101.01,1385.46 1102.15,1387.42 1103.38,1389.38 1104.67,1391.34 1106.99,1389.43 1109.26,1387.47 1111.53,1385.46 1111.89,1385.1 1112.25,1384.74 1112.67,1384.38 1111.28,1382.16 1109.93,1379.94 1108.64,1377.72 1108.59,1377.62 1108.49,1377.46 1108.43,1377.36 1107.09,1374.99 1105.8,1372.61 1104.56,1370.24 V 1370.19 C 1101.67,1364.72 1099.09,1359.2 1096.82,1353.57 1095.63,1350.73 1094.5,1347.84 1093.47,1344.95 1093.47,1344.9 1093.47,1344.9 1093.47,1344.9 1092.39,1341.96 1091.41,1339.02 1090.53,1336.02 1062.1,1244.27 1097.39,1135.49 1137.85,1020.67 1140.12,1014.27 1142.44,1007.77 1144.71,1001.32 1147.5,993.37 1150.33,985.43 1153.12,977.43 1156.78,967.01 1160.86,956.94 1165.4,947.19 1166.64,944.4 1167.93,941.62 1169.32,938.88 1169.32,938.83 1169.32,938.83 1169.32,938.83 1170.71,936.04 1172.11,933.31 1173.55,930.62 1182.12,914.37 1191.92,899.19 1202.96,885.05 1206.11,880.92 1209.41,876.9 1212.87,872.97 1214.52,871.01 1216.28,869.1 1218.03,867.19 1215.47,865.39 1212.63,863.38 1209.49,861.27 Z M 1889.41,1028.77 C 1885.95,1018.81 1882.39,1008.85 1878.88,998.89 1878.36,997.39 1877.8,995.85 1877.28,994.35 1877.28,994.3 1877.23,994.25 1877.23,994.2 1875.48,989.14 1873.67,984.14 1871.91,979.08 1870.88,976.24 1869.85,973.35 1868.86,970.51 1867.93,967.93 1867,965.35 1866.02,962.82 1863.13,955.08 1860.03,947.55 1856.68,940.32 1856.22,939.13 1855.65,937.95 1855.08,936.76 1852.65,931.55 1850.13,926.49 1847.49,921.54 1797.33,826.85 1715.7,780.72 1651.71,758.32 1574.1,731.18 1507.32,732.47 1501.03,732.67 1494.79,732.46 1428.01,731.17 1350.4,758.32 1306.02,773.85 1253.18,800.79 1208.18,847.44 1206.37,849.35 1204.46,851.36 1202.66,853.37 1202.3,853.73 1202.04,854.04 1201.73,854.35 1201.37,854.76 1201.01,855.12 1200.7,855.54 1198.95,857.45 1197.24,859.36 1195.59,861.37 1191.82,865.7 1188.16,870.19 1184.55,874.89 1173.66,889.03 1163.55,904.67 1154.41,921.9 1153.02,924.58 1151.62,927.32 1150.23,930.1 1150.23,930.1 1150.18,930.15 1150.23,930.2 1148.84,932.88 1147.49,935.67 1146.26,938.46 1141.51,948.63 1137.18,959.31 1133.26,970.51 1130.42,978.46 1127.64,986.4 1124.85,994.35 1122.37,1001.37 1119.9,1008.39 1117.37,1015.46 1077.07,1129.97 1039.66,1246.43 1071.44,1345.36 1072.32,1348.25 1073.35,1351.14 1074.38,1354.03 1075.41,1356.87 1076.5,1359.65 1077.68,1362.49 1081.24,1371.11 1085.37,1379.62 1090.17,1387.93 1090.79,1389.01 1091.46,1390.15 1092.18,1391.23 1093.42,1393.45 1094.76,1395.62 1096.2,1397.78 1096.41,1398.19 1096.66,1398.55 1096.97,1398.97 1097.18,1399.33 1097.43,1399.74 1097.74,1400.11 1099.13,1402.28 1100.58,1404.39 1102.13,1406.51 1121.79,1434.07 1148.42,1458.68 1182.37,1480.35 1185.47,1482.41 1188.67,1484.38 1191.92,1486.28 1194.91,1488.14 1197.96,1489.89 1201.05,1491.59 1203.01,1492.78 1204.97,1493.86 1206.98,1494.94 1211.78,1497.62 1216.73,1500.2 1221.74,1502.68 1227.93,1505.83 1234.28,1508.82 1240.83,1511.81 1250.84,1516.35 1261.26,1520.74 1272.15,1524.92 1275.5,1526.21 1278.86,1527.5 1282.26,1528.79 1285.61,1530.03 1289.02,1531.22 1292.48,1532.45 1321.69,1542.77 1353.78,1552.01 1388.77,1560.21 1392.28,1561.04 1395.79,1561.86 1399.35,1562.69 1402.86,1563.46 1406.37,1564.24 1409.93,1565.01 1420.77,1567.33 1431.86,1569.6 1443.27,1571.77 1462.26,1575.38 1481.71,1577.24 1501.01,1577.24 1520.36,1577.24 1539.82,1575.38 1558.81,1571.77 1563.4,1570.89 1567.99,1570.02 1572.48,1569.09 1576.04,1568.42 1579.55,1567.7 1583.01,1566.92 1586.57,1566.2 1590.03,1565.47 1593.49,1564.7 1597.67,1563.77 1601.8,1562.84 1605.93,1561.91 1643.81,1553.29 1678.33,1543.44 1709.6,1532.39 1713.06,1531.2 1716.46,1529.96 1719.82,1528.73 1723.23,1527.44 1726.58,1526.2 1729.88,1524.86 1750.93,1516.76 1770.34,1508.04 1788.14,1498.65 1792.32,1496.48 1796.45,1494.21 1800.47,1491.94 1804.03,1489.93 1807.59,1487.81 1811.05,1485.7 1846.81,1464.18 1875.04,1439.62 1895.99,1411.96 1900.38,1406.13 1904.51,1400.19 1908.22,1394.11 1909.51,1392.05 1910.75,1389.98 1911.94,1387.92 1915.45,1381.78 1918.65,1375.59 1921.43,1369.29 1924.47,1362.74 1927.11,1356.08 1929.38,1349.37 1962.17,1253.4 1928.37,1140.49 1889.41,1028.77 Z M 1792.34,1472.45 C 1789.14,1474.31 1785.94,1476.11 1782.64,1477.87 1779.29,1479.68 1775.88,1481.48 1772.42,1483.24 1771.54,1483.7 1770.67,1484.12 1769.74,1484.58 1754.52,1492.17 1738.11,1499.34 1720.46,1506.1 1719.63,1506.41 1718.81,1506.72 1717.98,1507.03 1714.63,1508.32 1711.27,1509.56 1707.81,1510.75 1704.4,1512.04 1701,1513.23 1697.54,1514.36 1670.76,1523.6 1641.45,1531.96 1609.61,1539.49 1604.97,1540.57 1600.32,1541.66 1595.57,1542.69 1591.85,1543.52 1588.14,1544.34 1584.32,1545.17 1580.66,1545.94 1576.94,1546.72 1573.23,1547.44 1567.19,1548.73 1561.1,1549.92 1554.91,1551.1 1519.46,1557.86 1482.67,1557.86 1447.21,1551.1 1433.9,1548.57 1420.94,1545.89 1408.4,1543.1 1404.58,1542.27 1400.81,1541.45 1397.1,1540.57 1393.23,1539.69 1389.36,1538.76 1385.54,1537.84 1363.51,1532.52 1342.76,1526.75 1323.2,1520.55 1316.85,1518.59 1310.66,1516.52 1304.57,1514.41 1301.11,1513.27 1297.71,1512.09 1294.35,1510.8 H 1294.3 C 1290.84,1509.61 1287.49,1508.32 1284.13,1507.03 1278.87,1505.07 1273.71,1503.06 1268.65,1500.94 1263.18,1498.72 1257.81,1496.45 1252.55,1494.08 1243.83,1490.21 1235.42,1486.18 1227.37,1482.06 1227.06,1481.9 1226.75,1481.75 1226.44,1481.6 1224.01,1480.36 1221.64,1479.07 1219.27,1477.78 1216.79,1476.49 1214.37,1475.15 1211.99,1473.7 1210.75,1473.08 1209.51,1472.36 1208.33,1471.64 1204.92,1469.68 1201.57,1467.67 1198.27,1465.65 1164.11,1444.44 1137.58,1420.34 1118.65,1393.3 1117.05,1391.13 1115.6,1388.97 1114.21,1386.8 1113.9,1386.44 1113.69,1386.03 1113.49,1385.66 1113.18,1385.25 1112.92,1384.83 1112.66,1384.42 1111.27,1382.2 1109.92,1379.98 1108.63,1377.76 1108.58,1377.66 1108.48,1377.5 1108.42,1377.4 1107.08,1375.03 1105.79,1372.65 1104.55,1370.28 V 1370.23 C 1101.66,1364.76 1099.08,1359.24 1096.81,1353.61 1095.62,1350.77 1094.49,1347.88 1093.46,1344.99 1093.46,1344.94 1093.46,1344.94 1093.46,1344.94 1092.38,1342 1091.4,1339.06 1090.52,1336.06 1062.09,1244.31 1097.38,1135.53 1137.84,1020.71 1140.11,1014.31 1142.43,1007.81 1144.7,1001.36 1147.49,993.41 1150.32,985.47 1153.11,977.47 1156.77,967.05 1160.85,956.98 1165.39,947.23 1166.63,944.44 1167.92,941.66 1169.31,938.92 1169.31,938.87 1169.31,938.87 1169.31,938.87 1170.7,936.08 1172.1,933.35 1173.54,930.66 1182.11,914.41 1191.91,899.23 1202.95,885.09 1206.1,880.96 1209.4,876.94 1212.86,873.01 1214.51,871.05 1216.27,869.14 1218.02,867.23 1218.33,866.87 1218.64,866.51 1219.05,866.15 1219.26,865.79 1219.62,865.48 1219.98,865.12 1221.73,863.21 1223.54,861.3 1225.45,859.39 1260.08,824.09 1303.94,797 1356.68,778.42 1422.47,755.3 1481.56,753.65 1496.83,753.65 1499.26,753.65 1500.55,753.7 1500.65,753.7 H 1501.42 C 1501.83,753.65 1525.78,752.93 1561.28,758.03 1561.38,758.03 1561.54,758.03 1561.69,758.08 1561.74,758.08 1561.84,758.08 1561.9,758.13 1585.59,761.59 1614.43,767.63 1644.72,778.2 1746.22,813.7 1814.96,880.74 1848.96,977.44 1850.46,981.77 1852,986.11 1853.55,990.44 1854.84,994.1 1856.08,997.72 1857.37,1001.33 1857.83,1002.72 1858.35,1004.07 1858.87,1005.46 1859.44,1007.16 1860.06,1008.87 1860.68,1010.57 1864.34,1020.94 1867.96,1031.26 1871.52,1041.53 1910.22,1152.84 1940.57,1257.85 1908.21,1346.14 1905.84,1352.64 1903.1,1359.04 1900,1365.39 1898.04,1369.42 1895.92,1373.39 1893.65,1377.36 1872.64,1414.09 1839.04,1445.67 1792.34,1472.45 Z M 1932.13,1255.56 V 1255.2 C 1932.08,1253.03 1931.98,1250.87 1931.87,1248.65 1931.82,1247.36 1931.77,1246.07 1931.66,1244.78 1931.66,1244.57 1931.66,1244.37 1931.61,1244.16 1931.51,1242.25 1931.4,1240.34 1931.25,1238.38 1931.1,1236.21 1930.94,1234.1 1930.73,1231.93 1930.37,1227.75 1929.9,1223.57 1929.39,1219.39 1929.08,1217.07 1928.82,1214.69 1928.46,1212.37 1928.1,1209.43 1927.63,1206.49 1927.17,1203.6 1926.76,1200.71 1926.24,1197.87 1925.78,1195.03 1925.21,1191.83 1924.64,1188.63 1923.97,1185.38 1923.35,1182.18 1922.68,1178.93 1922.01,1175.68 1921.49,1173.15 1920.93,1170.57 1920.36,1168.04 1919.33,1163.4 1918.3,1158.75 1917.11,1154.11 1916.08,1149.72 1914.94,1145.34 1913.76,1140.95 1913.09,1138.42 1912.42,1135.84 1911.7,1133.26 1909.12,1123.71 1906.33,1114.06 1903.34,1104.41 1902.41,1101.31 1901.48,1098.27 1900.5,1095.17 1900.04,1093.67 1899.57,1092.23 1899.11,1090.73 1898.18,1087.79 1897.25,1084.9 1896.32,1082.01 1896.16,1081.55 1896.01,1081.03 1895.86,1080.57 1893.95,1074.64 1891.94,1068.7 1889.98,1062.72 1888.53,1058.39 1887.04,1054.1 1885.54,1049.77 1883.89,1044.82 1882.13,1039.86 1880.43,1034.91 1877.28,1037.18 1874.34,1039.4 1871.55,1041.57 1910.25,1152.88 1940.6,1257.89 1908.24,1346.18 1910.87,1346.75 1913.45,1347.21 1916.03,1347.68 1916.91,1347.83 1917.84,1347.99 1918.71,1348.09 1919.33,1346.34 1919.95,1344.58 1920.46,1342.83 1920.87,1341.69 1921.18,1340.61 1921.54,1339.48 1921.64,1339.27 1921.7,1339.07 1921.75,1338.86 1922.11,1337.78 1922.42,1336.64 1922.73,1335.51 1923.3,1333.6 1923.81,1331.69 1924.33,1329.73 1924.79,1327.82 1925.26,1325.91 1925.72,1323.95 1926.18,1321.99 1926.6,1320.08 1927.01,1318.12 1927.42,1316.16 1927.78,1314.2 1928.15,1312.24 1928.51,1310.28 1928.82,1308.32 1929.13,1306.31 1929.18,1306.1 1929.18,1305.95 1929.23,1305.74 1929.49,1303.99 1929.75,1302.18 1929.95,1300.37 1930.21,1298.56 1930.41,1296.76 1930.62,1294.9 1931.08,1290.72 1931.45,1286.54 1931.65,1282.31 1931.8,1280.3 1931.91,1278.23 1931.96,1276.22 1932.17,1272.14 1932.22,1268.07 1932.22,1263.94 1932.24,1261.14 1932.19,1258.35 1932.13,1255.56 Z"
   id="path164" />
	</g>
	<g
   id="g172">
		<g
   id="g170">
			<path
   class="st2"
   d="M 1191.48,1793.39 C 1300.61,1793.39 1345.77,1709.09 1383.41,1627.05 1421.04,1545.01 1384.16,1500.6 1355.56,1478.78 1330.57,1459.72 1221.26,1440.09 1189.95,1489.05 L 1189.92,1489.02 C 1189.92,1489.02 1122.99,1501.36 1073.32,1666.95 1060.03,1711.2 1082.34,1793.39 1191.48,1793.39 Z"
   id="path168" />
		</g>
	</g>
	<g
   class="st7"
   id="g178">
		<g
   id="g176">
			<path
   class="st4"
   d="M 1382.27,1506.33 C 1377.09,1500.88 1371.7,1496.24 1366.58,1492.33 1341.59,1473.27 1232.28,1453.64 1200.97,1502.6 L 1200.94,1502.57 C 1200.94,1502.57 1134.01,1514.91 1084.34,1680.5 1077.72,1702.57 1079.94,1734.06 1097.38,1760.1 1070.04,1732.25 1065.5,1693.02 1073.33,1666.95 1123.01,1501.37 1189.93,1489.02 1189.93,1489.02 L 1189.96,1489.05 C 1221.27,1440.1 1330.59,1459.73 1355.57,1478.78 1364.5,1485.62 1374.23,1494.65 1382.27,1506.33 Z"
   id="path174" />
		</g>
	</g>
	<g
   id="g184">
		<g
   id="g182">
			<path
   class="st0"
   d="M 1191.48,1803.93 C 1128.9,1803.93 1096.63,1778.22 1080.59,1756.66 1056.82,1724.71 1056.38,1686.73 1063.22,1663.92 1107.38,1516.73 1166.5,1485.93 1183.41,1479.97 1194.72,1464.66 1213.12,1454.67 1238.17,1450.23 1282.66,1442.36 1341.24,1454.61 1361.95,1470.4 1397.4,1497.45 1431.56,1547.35 1392.98,1631.44 1352.95,1718.72 1304.41,1803.93 1191.48,1803.93 Z M 1191.49,1499.47 C 1186.58,1500.89 1128.15,1520.79 1083.4,1669.97 1077.96,1688.1 1078.38,1718.39 1097.49,1744.07 1116.37,1769.44 1148.86,1782.85 1191.47,1782.85 1292.01,1782.85 1335.1,1707.08 1373.82,1622.66 1400.13,1565.31 1391.83,1519.72 1349.16,1487.16 1334.44,1475.94 1281.71,1463.93 1241.84,1470.99 1221.01,1474.67 1206.54,1482.66 1198.82,1494.73 1197.18,1497.3 1194.5,1499.02 1191.49,1499.47 Z"
   id="path180" />
		</g>
	</g>
	<g
   id="g190">
		<g
   id="g188">
			<path
   class="st0"
   d="M 1129.01,1644.37 C 1143.79,1620.56 1154.52,1594.76 1161.39,1567.94 1165.48,1551.43 1168.02,1534.91 1169.56,1518.14 1169.94,1514.68 1170.3,1510.15 1170.99,1506.74 1173.22,1496.03 1181.08,1471.76 1195.9,1481.37 1200.09,1484.57 1201.19,1490.27 1198.8,1494.75 1196.38,1499.79 1194.76,1505.02 1193.92,1510.69 1193.49,1513.76 1193.32,1517.15 1192.9,1520.33 1191.31,1538.81 1186.14,1556.92 1179.15,1573.93 1167.83,1600.73 1151.45,1625.78 1129.01,1644.37 Z"
   id="path186" />
		</g>
	</g>
	<g
   id="g196">
		<g
   id="g194">
			<path
   class="st0"
   d="M 1368.8,1563.33 C 1365.65,1563.33 1362.58,1562.85 1359.73,1561.72 1355.22,1559.93 1349.37,1555.75 1347.1,1545.96 1340.06,1515.61 1369.71,1492.54 1370.98,1491.58 1374.28,1489.06 1379,1489.68 1381.53,1492.99 1384.05,1496.29 1383.42,1501 1380.13,1503.53 1379.8,1503.78 1356.94,1521.76 1361.76,1542.56 1362.72,1546.71 1364.51,1547.42 1365.27,1547.72 1371.8,1550.32 1387,1543.45 1395.23,1537.99 1398.69,1535.69 1403.36,1536.63 1405.66,1540.09 1407.96,1543.55 1407.03,1548.22 1403.57,1550.52 1399.87,1552.99 1383.49,1563.33 1368.8,1563.33 Z"
   id="path192" />
		</g>
	</g>
	<g
   id="g202">
		<g
   id="g200">
			<path
   class="st0"
   d="M 1315.77,1521.38 C 1314.94,1521.38 1314.1,1521.35 1313.25,1521.29 1302.44,1520.52 1296.8,1514.81 1293.97,1510.16 1282.57,1491.42 1296.48,1458.6 1296.62,1458.26 1298.27,1454.44 1302.7,1452.68 1306.51,1454.32 1310.33,1455.97 1312.09,1460.39 1310.45,1464.21 1306.57,1473.2 1301.54,1493.62 1306.83,1502.33 1307.84,1503.99 1309.6,1505.93 1314.32,1506.27 1334.67,1507.75 1348.48,1476.18 1348.62,1475.86 1350.23,1472.04 1354.65,1470.23 1358.47,1471.84 1362.3,1473.45 1364.1,1477.85 1362.5,1481.68 1361.8,1483.35 1345.54,1521.38 1315.77,1521.38 Z"
   id="path198" />
		</g>
	</g>
	<g
   id="g208">
		<g
   id="g206">
			<path
   class="st0"
   d="M 1242.81,1511.92 C 1234.32,1511.92 1226.46,1508.33 1220.63,1501.51 1211.18,1490.46 1209.06,1473.69 1215.58,1461.65 1217.56,1457.99 1222.12,1456.63 1225.78,1458.62 1229.44,1460.6 1230.79,1465.17 1228.81,1468.82 1225.26,1475.38 1226.69,1485.44 1232.06,1491.73 1235.04,1495.22 1240.37,1498.75 1248.79,1495.77 1268.61,1488.76 1273.17,1460.4 1273.21,1460.12 1273.84,1456.02 1277.65,1453.18 1281.77,1453.81 1285.87,1454.43 1288.7,1458.24 1288.09,1462.35 1287.86,1463.88 1282.21,1499.92 1253.8,1509.97 1250.11,1511.28 1246.4,1511.92 1242.81,1511.92 Z"
   id="path204" />
		</g>
	</g>
	<g
   id="g214">
		<g
   id="g212">
			<path
   class="st2"
   d="M 1790.84,1793.39 C 1733.28,1793.39 1693.51,1769.94 1663.28,1735.71 1636.15,1705.09 1616.71,1665.83 1598.91,1627.06 1561.28,1545.02 1598.16,1500.61 1626.76,1478.79 1640.58,1468.25 1680.23,1457.53 1718.19,1458.35 1748.84,1458.98 1778.4,1467.17 1792.37,1489.06 L 1792.4,1489.03 C 1792.4,1489.03 1859.33,1501.37 1909,1666.96 1922.28,1711.2 1899.97,1793.39 1790.84,1793.39 Z"
   id="path210" />
		</g>
	</g>
	<g
   id="g220">
		<g
   id="g218">
			<path
   class="st2"
   d="M 1764.04,1791.56 C 1673.99,1778.89 1633.29,1702.02 1598.91,1627.06 1561.28,1545.02 1598.16,1500.61 1626.76,1478.79 1645.61,1464.43 1712.41,1449.74 1757.54,1464.34 1715.27,1459.28 1665.51,1471.6 1649.67,1483.67 1625.4,1502.19 1595.21,1536.93 1609.54,1597.11 1646.69,1613.76 1647.44,1641.7 1641.06,1671.83 1668.91,1725.72 1704.25,1774.28 1764.04,1791.56 Z"
   id="path216" />
		</g>
	</g>
	<g
   id="g226">
		<g
   id="g224">
			<path
   class="st0"
   d="M 1790.84,1803.93 C 1677.91,1803.93 1629.37,1718.72 1589.34,1631.45 1550.76,1547.36 1584.92,1497.46 1620.37,1470.41 1641.08,1454.62 1699.66,1442.37 1744.15,1450.23 1769.21,1454.66 1787.61,1464.66 1798.92,1479.97 1815.83,1485.92 1874.95,1516.73 1919.11,1663.92 1925.95,1686.73 1925.51,1724.71 1901.74,1756.66 1885.69,1778.22 1853.42,1803.93 1790.84,1803.93 Z M 1714.45,1468.88 C 1680.35,1468.88 1644.82,1478.27 1633.15,1487.17 1590.48,1519.73 1582.18,1565.32 1608.49,1622.67 1647.21,1707.09 1690.3,1782.86 1790.84,1782.86 1833.45,1782.86 1865.95,1769.45 1884.82,1744.08 1903.93,1718.4 1904.35,1688.11 1898.91,1669.98 1853.85,1519.77 1794.92,1500.63 1790.57,1499.42 1787.67,1498.91 1785.09,1497.23 1783.5,1494.73 1775.78,1482.66 1761.31,1474.67 1740.48,1470.99 1732.2,1469.52 1723.37,1468.88 1714.45,1468.88 Z"
   id="path222" />
		</g>
	</g>
	<g
   id="g232">
		<g
   id="g230">
			<path
   class="st0"
   d="M 1801.23,1483.35 C 1811.4,1496.16 1812.46,1512.6 1813.72,1528.16 1818.49,1569.12 1831.24,1609.08 1853.31,1644.38 1842.01,1635.36 1832.66,1624.14 1824.23,1612.4 1804.92,1584.56 1791.96,1551.58 1789.11,1517.57 1788.59,1509.44 1786.96,1501.55 1783.32,1494.35 1778,1482.88 1793.5,1473.46 1801.23,1483.35 Z"
   id="path228" />
		</g>
	</g>
	<g
   id="g238">
		<g
   id="g236">
			<path
   class="st0"
   d="M 1666.55,1521.38 C 1636.78,1521.38 1620.52,1483.35 1619.82,1481.69 1618.21,1477.85 1620.02,1473.45 1623.86,1471.84 1627.69,1470.23 1632.1,1472.04 1633.71,1475.87 1633.9,1476.31 1647.74,1507.68 1668.01,1506.28 1672.73,1505.94 1674.49,1504 1675.5,1502.34 1680.8,1493.63 1675.76,1473.22 1671.88,1464.22 1670.24,1460.4 1672,1455.98 1675.82,1454.33 1679.63,1452.69 1684.06,1454.45 1685.71,1458.27 1685.85,1458.6 1699.76,1491.42 1688.36,1510.17 1685.53,1514.82 1679.89,1520.53 1669.08,1521.3 1668.22,1521.35 1667.37,1521.38 1666.55,1521.38 Z"
   id="path234" />
		</g>
	</g>
	<g
   id="g244">
		<g
   id="g242">
			<path
   class="st0"
   d="M 1739.51,1511.92 C 1735.92,1511.92 1732.21,1511.28 1728.49,1509.96 1700.09,1499.91 1694.43,1463.87 1694.2,1462.34 1693.59,1458.23 1696.43,1454.4 1700.54,1453.79 1704.66,1453.19 1708.47,1456.01 1709.09,1460.12 1709.18,1460.66 1713.78,1488.79 1733.51,1495.77 1741.94,1498.75 1747.26,1495.22 1750.24,1491.73 1755.62,1485.44 1757.04,1475.38 1753.49,1468.82 1751.51,1465.17 1752.87,1460.6 1756.52,1458.62 1760.18,1456.64 1764.74,1458 1766.72,1461.65 1773.24,1473.69 1771.12,1490.46 1761.67,1501.51 1755.86,1508.33 1748,1511.92 1739.51,1511.92 Z"
   id="path240" />
		</g>
	</g>
	<g
   id="g250">
		<g
   id="g248">
			<path
   class="st0"
   d="M 1613.52,1563.33 C 1598.83,1563.33 1582.45,1552.99 1578.75,1550.53 1575.29,1548.22 1574.36,1543.55 1576.66,1540.09 1578.96,1536.63 1583.64,1535.69 1587.1,1538 1595.31,1543.45 1610.52,1550.32 1617.05,1547.72 1617.81,1547.42 1619.6,1546.71 1620.56,1542.56 1625.39,1521.72 1602.43,1503.71 1602.19,1503.53 1598.9,1500.99 1598.28,1496.27 1600.81,1492.98 1603.34,1489.69 1608.05,1489.06 1611.34,1491.58 1612.61,1492.55 1642.26,1515.61 1635.22,1545.96 1632.95,1555.74 1627.1,1559.93 1622.59,1561.72 1619.74,1562.85 1616.67,1563.33 1613.52,1563.33 Z"
   id="path246" />
		</g>
	</g>
	<g
   id="g254">
		<path
   class="st0"
   d="M 1767.51,2078.65 C 1733.22,2111.44 1691.26,2136.01 1647.08,2153.58 1633.97,2158.37 1626.41,2139.56 1639.23,2133.96 1662.02,2128.35 1684.64,2121.67 1706.42,2112.32 1727.72,2103.3 1748.29,2092.14 1767.51,2078.65 Z"
   id="path252" />
	</g>
	<g
   id="g258">
		<path
   class="st0"
   d="M 1876.86,1811.63 C 1874.54,1849 1868.57,1885.98 1857.97,1921.21 1861.67,1884.61 1860.44,1848.08 1855.79,1812.31 1854.55,1797 1877.11,1796.26 1876.86,1811.63 Z"
   id="path256" />
	</g>
	<g
   id="g262">
		<path
   class="st0"
   d="M 1242.91,2078.65 C 1261.15,2091.38 1280.2,2102.78 1300.04,2112.04 1319.87,2121.33 1340.47,2128.45 1361.44,2133.52 1374.91,2137.21 1370.17,2156.93 1356.48,2154.07 1313.77,2137.18 1275.54,2110.32 1242.91,2078.65 Z"
   id="path260" />
	</g>
	<g
   id="g266">
		<path
   class="st0"
   d="M 1146.26,1812.31 C 1141.61,1848.07 1140.39,1884.61 1144.09,1921.21 1133.49,1885.98 1127.51,1848.98 1125.2,1811.6 1124.84,1805.76 1129.28,1800.74 1135.11,1800.38 1141.66,1799.9 1147.17,1805.81 1146.26,1812.31 Z"
   id="path264" />
	</g>
	<g
   id="g274">
		<g
   id="g272">
			<g
   id="g270">
				<ellipse
   class="st0"
   cx="1317.17"
   cy="1100.48"
   rx="62.009998"
   ry="71.610001"
   id="ellipse268" />
			</g>
		</g>
	</g>
	<g
   id="g282">
		<g
   id="g280">
			<g
   id="g278">
				<ellipse
   class="st4"
   cx="1334.02"
   cy="1079.77"
   rx="20.219999"
   ry="25.59"
   id="ellipse276" />
			</g>
		</g>
	</g>
	<g
   class="st6"
   id="g288">
		<g
   id="g286">
			<ellipse
   class="st4"
   cx="1294.05"
   cy="1124.61"
   rx="11.2"
   ry="17.32"
   id="ellipse284" />
		</g>
	</g>
	<g
   id="g296">
		<g
   id="g294">
			<g
   id="g292">
				<ellipse
   class="st0"
   cx="1701.65"
   cy="1105.51"
   rx="61.07"
   ry="70.529999"
   id="ellipse290" />
			</g>
		</g>
	</g>
	<g
   id="g304">
		<g
   id="g302">
			<g
   id="g300">
				<ellipse
   class="st4"
   cx="1685.0601"
   cy="1085.11"
   rx="19.91"
   ry="25.209999"
   id="ellipse298" />
			</g>
		</g>
	</g>
	<g
   class="st6"
   id="g312">
		<g
   id="g310">
			<g
   id="g308">
				<ellipse
   class="st4"
   cx="1724.42"
   cy="1129.27"
   rx="11.03"
   ry="17.059999"
   id="ellipse306" />
			</g>
		</g>
	</g>
	<g
   id="g326">
		<g
   id="g316">
			<path
   class="st0"
   d="M 1332.8,1330.17 C 1331.81,1326.58 1331.96,1322.73 1332.84,1319.07 1333.69,1315.37 1335.46,1311.87 1337.86,1308.85 1340.33,1305.91 1343.32,1303.31 1346.81,1301.79 1350.2,1300.08 1353.96,1299.36 1357.63,1299.33 1354.5,1301.37 1351.48,1303.02 1348.84,1305.13 1346.13,1307.11 1343.8,1309.45 1341.77,1311.98 1337.58,1317.02 1334.95,1323.18 1332.8,1330.17 Z"
   id="path314" />
		</g>
		<g
   id="g320">
			<path
   class="st0"
   d="M 1637.55,1297.06 C 1641.57,1297.1 1645.52,1298.34 1649.13,1300.2 1652.76,1302.06 1655.99,1304.76 1658.63,1307.95 1661.2,1311.19 1663.27,1314.91 1664.19,1318.92 1665.33,1322.86 1665.32,1327.01 1664.64,1330.92 1663.24,1327.14 1662.2,1323.55 1660.52,1320.25 1658.99,1316.92 1657.05,1313.87 1654.76,1311.11 1650.28,1305.47 1644.36,1301.11 1637.55,1297.06 Z"
   id="path318" />
		</g>
		<g
   id="g324">
			<path
   class="st0"
   d="M 1342.58,1306.09 C 1350.27,1318.93 1360.03,1330.49 1371.44,1339.95 1382.68,1349.59 1396.01,1356.78 1410.29,1360.01 L 1415.65,1361.18 C 1417.45,1361.49 1419.29,1361.53 1421.1,1361.73 L 1426.55,1362.23 1432.05,1362.06 C 1439.39,1361.96 1446.78,1361.31 1453.73,1359.4 1460.72,1357.52 1467.35,1354.45 1473.25,1350.32 1479.03,1346.18 1484.38,1340.84 1487.89,1335 1488.62,1333.78 1490.2,1333.39 1491.41,1334.12 1491.6,1334.24 1491.79,1334.39 1491.94,1334.54 1502.15,1345.11 1515.84,1353.06 1530.32,1356.72 1544.91,1360.38 1560.44,1359.39 1574.83,1354.7 1589.28,1350.1 1602.62,1342.12 1614.68,1332.69 1626.85,1323.3 1637.74,1312.3 1648.09,1300.82 1638.62,1313.04 1628.03,1324.45 1616.25,1334.62 1604.32,1344.55 1590.95,1353.14 1576.06,1358.39 1561.27,1363.86 1544.7,1364.81 1529.23,1361.17 1513.76,1357.32 1499.49,1349.48 1488.2,1337.83 L 1492.25,1337.37 C 1483.67,1350.99 1469.86,1359.86 1454.89,1363.76 1447.37,1365.74 1439.72,1366.32 1432.1,1366.35 L 1426.38,1366.46 1420.66,1365.82 C 1418.76,1365.56 1416.84,1365.45 1414.96,1365.07 L 1409.38,1363.68 C 1394.55,1359.83 1380.98,1351.98 1369.86,1341.75 1358.77,1331.51 1349.32,1319.49 1342.58,1306.09 Z"
   id="path322" />
		</g>
	</g>
	<g
   id="g330">
		<path
   class="st0"
   d="M 1396.77,1358.43 C 1396.77,1358.43 1427.06,1456.36 1495.53,1455.53 1553.63,1450.97 1579.77,1379.59 1587.65,1352.2 1555.7,1367.97 1512.96,1360.08 1489.3,1338.09 1489.3,1338.1 1456.52,1380.43 1396.77,1358.43 Z"
   id="path328" />
	</g>
	<g
   id="g336">
		<g
   id="g334">
			<path
   class="st1"
   d="M 1546.78,1401.78 C 1542.81,1385.89 1513.02,1377.45 1498.13,1400.29 1493.17,1379.44 1448.98,1381.92 1447.49,1408.73 1446.69,1423.1 1453.74,1436.86 1460.45,1446.57 1470.79,1452.24 1482.46,1455.7 1495.53,1455.54 1515.64,1453.96 1531.91,1444.37 1544.93,1431.38 1548.35,1420.87 1548.82,1409.94 1546.78,1401.78 Z"
   id="path332" />
		</g>
	</g>
	<g
   id="g342">
		<g
   class="st8"
   id="g340">
			<path
   class="st9"
   d="M 1545.01,1397.65 C 1535.8,1415.02 1521.47,1429.92 1501.09,1432.73 1487.35,1434.62 1472.07,1431.12 1460.34,1423.81 1455.58,1420.84 1451.14,1417.08 1447.53,1412.72 1448.07,1425.62 1454.36,1437.76 1460.45,1446.57 1470.79,1452.24 1482.46,1455.7 1495.53,1455.54 1515.64,1453.96 1531.91,1444.37 1544.93,1431.38 1548.35,1420.87 1548.82,1409.95 1546.78,1401.78 1546.42,1400.32 1545.77,1398.96 1545.01,1397.65 Z"
   id="path338" />
		</g>
	</g>
	<g
   id="g346">
		<path
   class="st9"
   d="M 1498.13,1400.29 C 1499.56,1404.34 1499.62,1408.11 1499.44,1411.88 1499.12,1415.65 1498.55,1419.25 1496.84,1423.18 1494.58,1419.47 1494.27,1415.4 1494.45,1411.54 1494.8,1407.66 1495.65,1403.81 1498.13,1400.29 Z"
   id="path344" />
	</g>
	<g
   id="g350">
		<path
   class="st0"
   d="M 1439.69,1461.6 C 1439.69,1461.6 1489.99,1516.7 1551.08,1459.2 1529.52,1498.73 1479.22,1515.5 1439.69,1461.6 Z"
   id="path348" />
	</g>
</g>
</svg>
