<?xml version="1.0" encoding="utf-8"?>
<!-- Generator: Adobe Illustrator 26.3.1, SVG Export Plug-In . SVG Version: 6.00 Build 0)  -->
<svg version="1.1"
	 id="_x31_6079785_x5F_Logo_x5F_Mockup_x5F_070_copy_xA0_Image_00000073713752788862728240000002952812444806896258_"
	 xmlns="http://www.w3.org/2000/svg" xmlns:xlink="http://www.w3.org/1999/xlink" x="0px" y="0px" viewBox="0 0 3000 3000"
	 style="enable-background:new 0 0 3000 3000;" xml:space="preserve">
<style type="text/css">
	.st0{fill:#000072;}
	.st1{fill:#E63C4B;}
	.st2{fill:#4765D4;}
	.st3{opacity:0.5;}
	.st4{fill:#FFFFFF;}
	.st5{opacity:0.3;}
	.st6{opacity:0.2;}
	.st7{opacity:0.6;}
	.st8{opacity:0.53;}
	.st9{fill:#F595A1;}
</style>
<g>
	<g>
		<path class="st2" d="M629.3,1942.26l-1.34,56.59l-39.77,1.6l-10.15,126.53l-56.32,2.94l0.27-126.53l-39.77,2.14l1.6-63
			L629.3,1942.26z"/>
		<path class="st2" d="M795.07,2127.79l-66.74,3.2l-0.53-56.32h-30.7l-1.87,58.46h-59.8l5.07-187.66l63.53,2.94l-4.01,95.83h29.63
			l0.27-100.37l60.86,1.6L795.07,2127.79z"/>
		<path class="st2" d="M956.7,2025.28c0,7.74-0.53,15.48-1.6,23.23c-15.22,0.98-30.34,2.56-45.38,4.74
			c-15.04,2.18-30.08,4.34-45.11,6.47c2.31,6.41,5.94,11.52,10.88,15.35c4.94,3.83,10.83,5.74,17.69,5.74c3.56,0,7.45-0.67,11.68-2
			c4.23-1.34,8.43-3,12.61-5.01c4.18-2,8.19-4.16,12.01-6.47c3.83-2.31,7.12-4.41,9.88-6.27l-6.4,60.6
			c-3.47,2.67-7.23,4.94-11.28,6.81c-4.05,1.87-8.26,3.38-12.62,4.54c-4.36,1.16-8.76,2-13.21,2.54c-4.45,0.53-8.81,0.8-13.08,0.8
			c-8.81,0-16.86-1.2-24.16-3.6c-7.3-2.4-13.9-5.76-19.82-10.08c-5.92-4.32-11.1-9.41-15.55-15.28
			c-4.45-5.87-8.14-12.28-11.08-19.22c-2.94-6.94-5.16-14.28-6.67-22.02c-1.52-7.74-2.27-15.57-2.27-23.49
			c0-8.27,0.75-16.55,2.27-24.82c1.51-8.28,3.8-16.24,6.87-23.89c3.07-7.65,6.94-14.75,11.61-21.29
			c4.67-6.54,10.12-12.26,16.35-17.15c6.23-4.89,13.28-8.72,21.16-11.48s16.57-4.14,26.09-4.14c7.92,0,15.15,1.09,21.69,3.27
			c6.54,2.18,12.37,5.21,17.48,9.08c5.12,3.87,9.57,8.47,13.35,13.81c3.78,5.34,6.89,11.19,9.34,17.55
			c2.44,6.36,4.27,13.08,5.47,20.15C956.1,2010.8,956.7,2017.99,956.7,2025.28z M903.31,2018.34c0-2.49-0.27-5.05-0.8-7.68
			c-0.53-2.62-1.4-5.01-2.6-7.14c-1.2-2.14-2.78-3.89-4.74-5.27c-1.96-1.38-4.41-2.07-7.34-2.07c-3.56,0-6.7,0.96-9.41,2.87
			c-2.72,1.91-5.05,4.32-7.01,7.21c-1.96,2.89-3.56,6.03-4.8,9.41c-1.25,3.38-2.18,6.5-2.8,9.34l39.51-3.74V2018.34z"/>
		<path class="st2" d="M1225.12,1938.53l-12.28,195.93l-60.86,2.67l0.53-103.31l-27.49,83.29h-23.49l-21.09-74.48l-0.27,86.49
			l-61.66,1.87l2.67-184.46l68.6-2.67l27.23,88.36l36.3-93.7H1225.12z"/>
		<path class="st2" d="M1383.81,2025.28c0,7.74-0.53,15.48-1.6,23.23c-15.22,0.98-30.34,2.56-45.38,4.74
			c-15.04,2.18-30.07,4.34-45.11,6.47c2.31,6.41,5.94,11.52,10.88,15.35c4.94,3.83,10.83,5.74,17.69,5.74c3.56,0,7.45-0.67,11.68-2
			c4.23-1.34,8.43-3,12.61-5.01c4.18-2,8.19-4.16,12.01-6.47c3.83-2.31,7.12-4.41,9.88-6.27l-6.4,60.6
			c-3.47,2.67-7.23,4.94-11.28,6.81c-4.05,1.87-8.26,3.38-12.62,4.54c-4.36,1.16-8.76,2-13.21,2.54c-4.45,0.53-8.81,0.8-13.08,0.8
			c-8.81,0-16.86-1.2-24.16-3.6c-7.3-2.4-13.9-5.76-19.82-10.08c-5.92-4.32-11.1-9.41-15.55-15.28
			c-4.45-5.87-8.14-12.28-11.08-19.22c-2.94-6.94-5.16-14.28-6.67-22.02c-1.52-7.74-2.27-15.57-2.27-23.49
			c0-8.27,0.75-16.55,2.27-24.82c1.51-8.28,3.8-16.24,6.87-23.89c3.07-7.65,6.94-14.75,11.61-21.29
			c4.67-6.54,10.12-12.26,16.35-17.15c6.23-4.89,13.28-8.72,21.16-11.48s16.57-4.14,26.09-4.14c7.92,0,15.15,1.09,21.69,3.27
			c6.54,2.18,12.37,5.21,17.48,9.08c5.12,3.87,9.57,8.47,13.35,13.81c3.78,5.34,6.89,11.19,9.34,17.55
			c2.44,6.36,4.27,13.08,5.47,20.15C1383.21,2010.8,1383.81,2017.99,1383.81,2025.28z M1330.42,2018.34c0-2.49-0.27-5.05-0.8-7.68
			c-0.53-2.62-1.4-5.01-2.6-7.14c-1.2-2.14-2.78-3.89-4.74-5.27c-1.96-1.38-4.41-2.07-7.34-2.07c-3.56,0-6.7,0.96-9.41,2.87
			c-2.72,1.91-5.05,4.32-7.01,7.21c-1.96,2.89-3.56,6.03-4.8,9.41c-1.25,3.38-2.18,6.5-2.8,9.34l39.51-3.74V2018.34z"/>
		<path class="st2" d="M1625.79,2042.63c0,12.73-0.4,25.41-1.2,38.04c-0.8,12.64-1.74,25.32-2.8,38.04l-68.6,3.2
			c2.05-15.48,3.89-30.99,5.54-46.51c1.65-15.53,2.47-31.08,2.47-46.65c0-0.98-0.05-2.69-0.13-5.14c-0.09-2.45-0.25-5.22-0.47-8.34
			c-0.22-3.11-0.53-6.34-0.94-9.68c-0.4-3.33-0.93-6.4-1.6-9.21c-0.67-2.8-1.49-5.09-2.47-6.87c-0.98-1.78-2.14-2.67-3.47-2.67
			c-3.12,0-5.56,1.18-7.34,3.54c-1.78,2.36-3.09,5.18-3.94,8.47c-0.85,3.29-1.36,6.65-1.53,10.08c-0.18,3.43-0.27,6.21-0.27,8.34
			c0,3.73,0.09,7.47,0.27,11.21c0.18,3.74,0.27,7.56,0.27,11.48c0,13.79-0.33,27.54-1,41.24c-0.67,13.71-1.49,27.45-2.47,41.24
			l-63.27,2.4c2.05-15.48,3.85-30.94,5.41-46.38c1.56-15.44,2.34-30.94,2.34-46.51c0-0.98-0.05-2.76-0.13-5.34
			c-0.09-2.58-0.25-5.47-0.47-8.68c-0.22-3.2-0.56-6.54-1-10.01c-0.45-3.47-1-6.65-1.67-9.54c-0.67-2.89-1.49-5.27-2.47-7.14
			c-0.98-1.87-2.18-2.8-3.6-2.8c-2.22,0-4.09,0.87-5.6,2.6c-1.51,1.74-2.74,3.98-3.67,6.74c-0.93,2.76-1.65,5.8-2.14,9.14
			c-0.49,3.34-0.85,6.61-1.07,9.81c-0.22,3.2-0.35,6.16-0.4,8.87c-0.05,2.72-0.11,4.74-0.2,6.07l-2.94,97.44h-67.27
			c1.42-15.04,2.87-30.12,4.34-45.25c1.47-15.12,2.75-30.23,3.87-45.31c1.11-15.08,2.02-30.18,2.74-45.31
			c0.71-15.13,1.07-30.25,1.07-45.38l63.53-2.67l-0.27,15.48c1.96-2.49,4.18-5.01,6.68-7.54c2.49-2.54,5.14-4.81,7.94-6.81
			c2.8-2,5.78-3.63,8.94-4.87c3.16-1.24,6.43-1.87,9.81-1.87c4.36,0,8.27,0.33,11.74,1c3.47,0.67,6.61,1.8,9.41,3.4
			c2.8,1.6,5.27,3.8,7.41,6.61c2.14,2.8,4,6.34,5.6,10.61c2.85-3.12,5.72-6.01,8.61-8.68c2.89-2.67,5.94-4.96,9.14-6.87
			c3.2-1.91,6.68-3.4,10.41-4.47c3.74-1.07,7.88-1.6,12.42-1.6c8.63,0,15.97,1.67,22.02,5.01c6.05,3.34,11.1,7.76,15.15,13.28
			c4.05,5.52,7.21,11.84,9.48,18.95s3.98,14.51,5.14,22.16c1.15,7.65,1.89,15.26,2.2,22.82
			C1625.64,2029.38,1625.79,2036.32,1625.79,2042.63z"/>
		<path class="st2" d="M1802.91,2030.89c0,8.1-0.94,15.9-2.8,23.42c-1.87,7.52-4.56,14.57-8.07,21.16
			c-3.51,6.59-7.79,12.61-12.81,18.09c-5.03,5.47-10.68,10.17-16.95,14.08c-6.27,3.91-13.1,6.96-20.49,9.14
			c-7.39,2.18-15.22,3.27-23.49,3.27c-8.01,0-15.64-1.02-22.89-3.07c-7.25-2.05-14.04-4.92-20.36-8.61
			c-6.32-3.69-12.04-8.14-17.15-13.35c-5.12-5.21-9.48-10.99-13.08-17.35c-3.61-6.36-6.41-13.19-8.41-20.49c-2-7.3-3-14.9-3-22.82
			c0-7.74,0.93-15.33,2.8-22.76c1.87-7.43,4.56-14.44,8.07-21.02c3.51-6.58,7.76-12.63,12.75-18.15
			c4.98-5.52,10.56-10.28,16.75-14.28c6.18-4.01,12.88-7.12,20.09-9.34c7.21-2.22,14.82-3.34,22.83-3.34c12.9,0,24.67,2,35.3,6
			c10.63,4.01,19.71,9.72,27.23,17.15c7.52,7.43,13.35,16.42,17.49,26.96C1800.84,2006.13,1802.91,2017.9,1802.91,2030.89z
			 M1743.65,2034.36c0-3.83-0.56-7.54-1.67-11.14c-1.11-3.6-2.74-6.81-4.87-9.61c-2.14-2.8-4.79-5.07-7.94-6.81
			c-3.16-1.74-6.78-2.6-10.88-2.6c-4.19,0-7.92,0.76-11.21,2.27c-3.29,1.51-6.12,3.58-8.47,6.21c-2.36,2.62-4.16,5.7-5.41,9.21
			c-1.25,3.52-1.87,7.23-1.87,11.14c0,3.74,0.53,7.48,1.6,11.21c1.07,3.74,2.67,7.12,4.81,10.15c2.14,3.02,4.78,5.47,7.94,7.34
			c3.16,1.87,6.83,2.8,11.01,2.8c4.18,0,7.94-0.82,11.28-2.47c3.33-1.64,6.16-3.87,8.47-6.67c2.31-2.8,4.09-6.03,5.34-9.68
			C1743.03,2042.06,1743.65,2038.28,1743.65,2034.36z"/>
		<path class="st2" d="M1968.68,2004.46c0,6.94-0.6,13.24-1.8,18.88c-1.2,5.65-3.09,10.84-5.67,15.55
			c-2.58,4.72-5.92,9.08-10.01,13.08c-4.09,4.01-9.03,7.83-14.82,11.48l31.77,56.59l-60.06,11.75l-20.55-56.86l-16.55,0.53
			l-2.4,55.52h-57.39c0.44-20.29,0.87-40.49,1.27-60.6c0.4-20.11,0.87-40.31,1.4-60.6c0.18-10.23,0.35-20.38,0.53-30.43
			c0.18-10.05,0.53-20.2,1.07-30.43c6.23-2.31,12.37-4.23,18.42-5.74c6.05-1.51,12.12-2.69,18.22-3.53
			c6.09-0.85,12.28-1.42,18.55-1.74c6.27-0.31,12.7-0.47,19.28-0.47c10.15,0,19.95,1.4,29.43,4.21c9.48,2.8,17.86,7.01,25.16,12.61
			c7.3,5.6,13.15,12.59,17.55,20.96C1966.48,1983.6,1968.68,1993.34,1968.68,2004.46z M1908.89,2008.73c0-3.74-0.51-7.16-1.54-10.28
			c-1.02-3.12-2.54-5.81-4.54-8.07c-2-2.27-4.49-4.05-7.48-5.34s-6.47-1.94-10.48-1.94c-1.78,0-3.52,0.11-5.21,0.33
			c-1.69,0.22-3.34,0.56-4.94,1l-2.14,49.65h3.2c3.83,0,7.72-0.49,11.68-1.47c3.96-0.98,7.52-2.49,10.68-4.54
			c3.16-2.05,5.74-4.67,7.74-7.88S1908.89,2013.18,1908.89,2008.73z"/>
		<path class="st2" d="M2047.56,1945.2l-9.34,181.79l-56.32,2.94l-5.34-180.99L2047.56,1945.2z"/>
		<path class="st2" d="M2195.18,2064.79c0,12.19-2.12,22.71-6.34,31.57c-4.23,8.85-10.01,16.15-17.35,21.89s-15.93,9.96-25.76,12.68
			c-9.83,2.71-20.4,4.07-31.7,4.07c-4.36,0-9.14-0.58-14.35-1.73c-5.21-1.16-10.48-2.6-15.82-4.34c-5.34-1.74-10.48-3.61-15.42-5.61
			c-4.94-2-9.32-3.89-13.15-5.67l5.87-52.32c7.56,4.54,15.95,7.99,25.16,10.34c9.21,2.36,18.26,3.54,27.16,3.54
			c1.69,0,3.74-0.07,6.14-0.2c2.4-0.13,4.69-0.53,6.87-1.2c2.18-0.67,4.03-1.67,5.54-3c1.51-1.34,2.27-3.25,2.27-5.74
			c0-1.69-0.53-3.14-1.6-4.34c-1.07-1.2-2.45-2.18-4.14-2.94c-1.69-0.76-3.6-1.33-5.74-1.74c-2.14-0.4-4.23-0.69-6.27-0.87
			c-2.05-0.18-3.96-0.27-5.74-0.27c-1.78,0-3.2,0-4.27,0c-7.65,0-14.61-1.2-20.89-3.6c-6.27-2.4-11.66-5.81-16.15-10.21
			c-4.49-4.41-7.99-9.74-10.48-16.02c-2.49-6.27-3.74-13.24-3.74-20.89c0-10.5,2.11-19.91,6.34-28.23
			c4.23-8.32,9.88-15.39,16.95-21.22c7.08-5.83,15.19-10.3,24.36-13.41c9.16-3.11,18.64-4.67,28.43-4.67
			c4.36,0,8.85,0.16,13.48,0.47c4.63,0.31,9.23,0.87,13.81,1.67c4.58,0.8,9.05,1.82,13.41,3.07c4.36,1.25,8.49,2.8,12.41,4.67
			l-5.07,54.19c-6.05-2.05-12.39-3.76-19.02-5.14c-6.63-1.38-13.1-2.07-19.42-2.07c-1.16,0-2.65,0.02-4.47,0.07
			c-1.82,0.05-3.74,0.18-5.74,0.4c-2,0.22-4.03,0.56-6.07,1c-2.05,0.45-3.87,1.04-5.47,1.8c-1.6,0.76-2.89,1.76-3.87,3
			c-0.98,1.25-1.43,2.72-1.33,4.41c0.09,1.96,0.82,3.47,2.2,4.54c1.38,1.07,3.16,1.85,5.34,2.34c2.18,0.49,4.58,0.73,7.21,0.73
			c2.62,0,5.22-0.07,7.81-0.2c2.58-0.13,4.98-0.27,7.21-0.4c2.22-0.13,4.05-0.15,5.47-0.07c7.12,0.45,13.53,1.96,19.22,4.54
			c5.69,2.58,10.52,6.01,14.48,10.28c3.96,4.27,6.98,9.37,9.08,15.28C2194.14,2051.15,2195.18,2057.67,2195.18,2064.79z"/>
		<path class="st2" d="M2352.68,2025.28c0,7.74-0.53,15.48-1.6,23.23c-15.22,0.98-30.34,2.56-45.38,4.74
			c-15.04,2.18-30.07,4.34-45.11,6.47c2.31,6.41,5.94,11.52,10.88,15.35c4.94,3.83,10.83,5.74,17.69,5.74c3.56,0,7.45-0.67,11.68-2
			c4.23-1.34,8.43-3,12.61-5.01c4.18-2,8.19-4.16,12.01-6.47c3.83-2.31,7.12-4.41,9.88-6.27l-6.4,60.6
			c-3.47,2.67-7.23,4.94-11.28,6.81c-4.05,1.87-8.25,3.38-12.61,4.54c-4.36,1.16-8.76,2-13.21,2.54c-4.45,0.53-8.81,0.8-13.08,0.8
			c-8.81,0-16.86-1.2-24.16-3.6c-7.3-2.4-13.9-5.76-19.82-10.08c-5.92-4.32-11.1-9.41-15.55-15.28
			c-4.45-5.87-8.14-12.28-11.08-19.22c-2.94-6.94-5.16-14.28-6.67-22.02c-1.52-7.74-2.27-15.57-2.27-23.49
			c0-8.27,0.75-16.55,2.27-24.82c1.51-8.28,3.8-16.24,6.87-23.89c3.07-7.65,6.94-14.75,11.61-21.29
			c4.67-6.54,10.12-12.26,16.35-17.15c6.23-4.89,13.28-8.72,21.16-11.48s16.57-4.14,26.09-4.14c7.92,0,15.15,1.09,21.69,3.27
			c6.54,2.18,12.37,5.21,17.48,9.08c5.12,3.87,9.57,8.47,13.35,13.81c3.78,5.34,6.89,11.19,9.34,17.55
			c2.44,6.36,4.27,13.08,5.47,20.15C2352.08,2010.8,2352.68,2017.99,2352.68,2025.28z M2299.29,2018.34c0-2.49-0.27-5.05-0.8-7.68
			c-0.53-2.62-1.4-5.01-2.6-7.14c-1.2-2.14-2.78-3.89-4.74-5.27c-1.96-1.38-4.41-2.07-7.34-2.07c-3.56,0-6.7,0.96-9.41,2.87
			c-2.72,1.91-5.05,4.32-7.01,7.21c-1.96,2.89-3.56,6.03-4.8,9.41c-1.25,3.38-2.18,6.5-2.8,9.34l39.51-3.74V2018.34z"/>
		<path class="st2" d="M2517.78,2004.46c0,6.94-0.6,13.24-1.81,18.88c-1.2,5.65-3.09,10.84-5.67,15.55
			c-2.58,4.72-5.92,9.08-10.01,13.08c-4.09,4.01-9.03,7.83-14.82,11.48l31.77,56.59l-60.06,11.75l-20.55-56.86l-16.55,0.53
			l-2.4,55.52h-57.39c0.44-20.29,0.87-40.49,1.27-60.6c0.4-20.11,0.87-40.31,1.4-60.6c0.18-10.23,0.35-20.38,0.53-30.43
			c0.18-10.05,0.53-20.2,1.07-30.43c6.23-2.31,12.37-4.23,18.42-5.74c6.05-1.51,12.12-2.69,18.22-3.53
			c6.09-0.85,12.28-1.42,18.55-1.74c6.27-0.31,12.7-0.47,19.28-0.47c10.15,0,19.95,1.4,29.43,4.21c9.48,2.8,17.86,7.01,25.16,12.61
			c7.3,5.6,13.15,12.59,17.55,20.96C2515.58,1983.6,2517.78,1993.34,2517.78,2004.46z M2457.99,2008.73c0-3.74-0.51-7.16-1.54-10.28
			c-1.02-3.12-2.54-5.81-4.54-8.07c-2-2.27-4.49-4.05-7.48-5.34s-6.47-1.94-10.48-1.94c-1.78,0-3.52,0.11-5.21,0.33
			c-1.69,0.22-3.34,0.56-4.94,1l-2.14,49.65h3.2c3.83,0,7.72-0.49,11.68-1.47c3.96-0.98,7.52-2.49,10.68-4.54
			c3.16-2.05,5.74-4.67,7.74-7.88S2457.99,2013.18,2457.99,2008.73z"/>
	</g>
	<g>
		<g>
			<g>
				<path class="st0" d="M1911.42,1062.44l-1.38,2.31c-13.35,22.07-27.14,44.92-30.79,70.31c-3.02,21.1,3.22,36.53,10.47,54.38
					c2.99,7.31,6.07,14.89,8.72,23.35c9.79,31.43-12.48,56.69-38.91,67.79c-19.15,8.05-39.92,12.14-61.18,12.14
					c-9.43,0-18.92-0.81-28.41-2.42c-8.15-1.38-16.34-3.35-24.45-5.94c-1.78-0.54-3.52-1.11-5.27-1.71l1.78-5.1l2.62-7.58
					c0.67,0.23,1.34,0.47,2.05,0.67c2.25,0.77,4.53,1.48,6.78,2.11c6.27,1.81,12.51,3.29,18.75,4.33
					c28.45,4.8,56.86,1.74,82.15-8.89c19.32-8.08,39.08-26.43,31.3-51.42c-2.48-7.92-5.43-15.23-8.32-22.31
					c-7.65-18.82-14.86-36.63-11.34-61.32c4.03-28.08,18.55-52.09,32.57-75.34l1.41-2.31c4.7-7.82,8.52-15.23,11.37-22.27
					c10.03-24.45,8.99-44.38-2.99-60.51c-25.9-34.95-69.47-45.75-119.52-29.69c-24.32,7.82-48.07,19.79-68.9,34.75
					c-1.28,0.91-2.52,1.81-3.76,2.75l-0.74-1.01l-6.21-8.25l-1.11-1.48c0.1-0.07,0.17-0.13,0.27-0.2c1.84-1.38,3.69-2.72,5.57-4.03
					c21.54-15.16,45.85-27.34,70.78-35.32c55.85-17.91,104.83-5.37,134.41,34.45C1937.88,989.98,1935.3,1022.89,1911.42,1062.44z"/>
			</g>
		</g>
		<g>
			<g>
				<path class="st0" d="M1862.51,1086.75l-1.04,1.71c-9.76,16.13-19.86,32.84-22.47,51.22c-2.18,15.13,2.35,26.3,7.61,39.25
					c2.21,5.43,4.49,11.07,6.47,17.38c7.55,24.25-9.46,43.67-29.72,52.19c-14.36,6.04-29.92,9.09-45.85,9.09
					c-5.13,0-10.3-0.34-15.5-0.97c-1.91-0.23-3.86-0.5-5.77-0.84c-0.44-0.07-0.84-0.13-1.27-0.23c-2.28-0.4-4.6-0.87-6.88-1.44
					c-4.7-1.07-9.39-2.45-14.05-4.06l4.39-12.68c4.96,1.74,10,3.15,14.99,4.23c1.71,0.37,3.39,0.67,5.07,0.97
					c0.57,0.1,1.17,0.2,1.74,0.27c2.31,0.37,4.63,0.64,6.94,0.84c17.74,1.64,35.22-0.91,50.99-7.55
					c13.59-5.7,27.51-18.52,22.11-35.83c-1.81-5.77-3.99-11.14-6.1-16.34c-5.74-14.12-11.14-27.47-8.45-46.19
					c3.02-21.07,13.82-38.98,24.29-56.25l1.01-1.71c3.82-6.34,6.81-12.28,8.99-17.91v-0.03c6.41-16.64,5.5-30.26-2.68-41.23
					c-18.65-25.16-50.11-32.91-86.31-21.3c-12.65,4.06-25.06,9.66-36.66,16.5c-2.01,1.17-3.99,2.42-5.94,3.66
					c-1.98,1.27-3.96,2.58-5.87,3.96c-1.58,1.07-3.12,2.18-4.63,3.32l-2.11-2.82l-5.94-7.92c2.62-1.98,5.3-3.86,8.05-5.67
					c1.95-1.34,3.89-2.62,5.9-3.82c1.98-1.24,3.96-2.45,6-3.59c11.81-6.74,24.35-12.31,37.1-16.4c42-13.45,78.9-3.96,101.17,26.06
					C1882.4,1031.94,1880.52,1056.87,1862.51,1086.75z"/>
			</g>
		</g>
		<g>
			<path class="st1" d="M1859.99,1061.86v0.03c-2.18,5.64-5.17,11.57-8.99,17.91l-1.01,1.71c-10.47,17.28-21.27,35.19-24.29,56.25
				c-2.68,18.72,2.72,32.07,8.45,46.19c2.11,5.2,4.29,10.57,6.1,16.34c5.4,17.31-8.52,30.12-22.11,35.83
				c-15.77,6.64-33.24,9.19-50.99,7.55c21.3-62.39-0.67-135.79-26-208.41c-2.25-6.47-4.56-12.95-6.84-19.42
				c11.61-6.84,24.02-12.44,36.66-16.5c36.19-11.61,67.66-3.86,86.31,21.3C1865.49,1031.61,1866.4,1045.23,1859.99,1061.86z"/>
		</g>
		<g>
			<path class="st2" d="M1917.99,1006.68c-0.54,8.22-2.78,17.04-6.68,26.53c-1.38,3.39-2.99,6.88-4.8,10.43
				c-1.21,2.42-2.55,4.86-3.96,7.35c-0.84,1.48-1.71,2.99-2.62,4.49l-1.41,2.31c-14.02,23.25-28.55,47.26-32.57,75.34
				c-3.52,24.69,3.69,42.5,11.34,61.32c2.89,7.08,5.84,14.39,8.32,22.31c7.78,24.99-11.98,43.34-31.3,51.42
				c-25.29,10.63-53.7,13.69-82.15,8.89c-6.24-1.04-12.48-2.52-18.75-4.33c0.84-1.34,1.64-2.68,2.42-4.03
				c2.28-3.99,4.36-8.02,6.17-12.11c5.2,0.64,10.36,0.97,15.5,0.97c15.93,0,31.5-3.05,45.85-9.09
				c20.26-8.52,37.27-27.94,29.72-52.19c-1.98-6.31-4.26-11.94-6.47-17.38c-5.27-12.95-9.79-24.12-7.61-39.25
				c2.62-18.38,12.71-35.09,22.47-51.22l1.04-1.71c18.01-29.89,19.89-54.81,5.57-74.13c-22.27-30.02-59.17-39.51-101.17-26.06
				c-12.75,4.09-25.29,9.66-37.1,16.4c-0.67-1.84-1.34-3.72-1.98-5.57c-0.6-1.68-1.21-3.35-1.84-5c-1.88-5.03-3.89-9.93-6.07-14.63
				c1.24-0.87,2.48-1.78,3.76-2.65c0.1-0.07,0.24-0.17,0.37-0.23c19.79-13.62,42.03-24.55,64.77-31.87
				c4.8-1.54,9.56-2.82,14.22-3.86c16.03-3.62,31.26-4.36,45.25-2.28c17.21,2.55,32.54,9.29,45.32,20.13
				c0.74,0.57,1.44,1.17,2.15,1.84c3.89,3.45,7.51,7.35,10.87,11.61c0.37,0.44,0.7,0.87,1.01,1.34c0.23,0.3,0.47,0.6,0.7,0.91
				C1915.64,982.57,1918.9,993.84,1917.99,1006.68z"/>
		</g>
		<g class="st3">
			<g>
				<g>
					<path class="st4" d="M1917.99,1006.68c-0.4,13.08-5.03,27.88-15.43,44.31c-0.5,0.84-1.04,1.68-1.61,2.52
						c1.78-3.42,3.76-6.71,5.57-9.86c2.01-3.56,3.79-7.01,4.8-10.43c13.22-44.75-15.73-71.18-67.59-79.83
						c-49.01-8.18-97.04,23.25-117.74,39.01c-1.88-5.03-3.89-9.93-6.07-14.63c1.24-0.87,2.48-1.78,3.76-2.65
						c0.1-0.07,0.24-0.17,0.37-0.23c11.67-7.72,34.11-21.2,60.78-30.26c5.94-2.01,12.01-3.89,18.21-5.47
						c13.01-3.22,26.7-4.93,40.96-2.99c1.41,0.2,2.85,0.44,4.29,0.7c15.56,2.82,32.2,9.59,45.32,20.13
						c0.74,0.57,1.44,1.17,2.15,1.84c4.09,3.45,7.75,7.35,10.87,11.61c0.37,0.44,0.7,0.87,1.01,1.34
						C1914.43,981.56,1918.46,993.2,1917.99,1006.68z"/>
				</g>
			</g>
		</g>
		<g class="st5">
			<g>
				<g>
					<path class="st0" d="M1857.38,1064.08c2.18-12.68-0.78-28.11-12.61-35.15c-14.69-8.74-33.84-6.8-49.87-3.68
						c-18.28,3.56-35.45,9.9-51.18,19.96c-2.05,1.31-5.62-5.18-7.46-3.84c-2.05,1.48-3.96,2.92-5.77,4.33
						c-2.31-6.68-4.66-13.38-7.04-20.13c-0.4-1.11-0.81-2.21-1.17-3.32c1.71-1.14,3.69-2.42,5.9-3.79c1.85-1.14,3.86-2.35,6-3.56
						c16.67-9.53,42.23-21.2,67.93-21.57c4.76-0.07,16.2-0.57,27.57,4.09c21.87,8.96,51.83,30.69,23.98,78.02
						C1855.23,1070.72,1856.67,1068.17,1857.38,1064.08z"/>
				</g>
			</g>
		</g>
	</g>
	<g>
		<g>
			<g>
				<path class="st0" d="M1084.81,1062.44l1.38,2.31c13.35,22.07,27.14,44.92,30.79,70.31c3.02,21.1-3.22,36.53-10.47,54.38
					c-2.99,7.31-6.07,14.89-8.72,23.35c-9.79,31.43,12.48,56.69,38.91,67.79c19.15,8.05,39.92,12.14,61.18,12.14
					c9.43,0,18.92-0.81,28.41-2.42c8.15-1.38,16.34-3.35,24.45-5.94c1.78-0.54,3.52-1.11,5.27-1.71l-1.78-5.1l-2.62-7.58
					c-0.67,0.23-1.34,0.47-2.05,0.67c-2.25,0.77-4.53,1.48-6.78,2.11c-6.27,1.81-12.51,3.29-18.75,4.33
					c-28.45,4.8-56.86,1.74-82.15-8.89c-19.32-8.08-39.08-26.43-31.3-51.42c2.48-7.92,5.43-15.23,8.32-22.31
					c7.65-18.82,14.86-36.63,11.34-61.32c-4.03-28.08-18.55-52.09-32.57-75.34l-1.41-2.31c-4.7-7.82-8.52-15.23-11.37-22.27
					c-10.03-24.45-8.99-44.38,2.99-60.51c25.9-34.95,69.47-45.75,119.52-29.69c24.32,7.82,48.07,19.79,68.9,34.75
					c1.28,0.91,2.52,1.81,3.76,2.75l0.74-1.01l6.21-8.25l1.11-1.48c-0.1-0.07-0.17-0.13-0.27-0.2c-1.84-1.38-3.69-2.72-5.57-4.03
					c-21.54-15.16-45.85-27.34-70.78-35.32c-55.85-17.91-104.83-5.37-134.41,34.45C1058.34,989.98,1060.92,1022.89,1084.81,1062.44z
					"/>
			</g>
		</g>
		<g>
			<g>
				<path class="st0" d="M1133.72,1086.75l1.04,1.71c9.76,16.13,19.86,32.84,22.47,51.22c2.18,15.13-2.35,26.3-7.61,39.25
					c-2.21,5.43-4.49,11.07-6.47,17.38c-7.55,24.25,9.46,43.67,29.72,52.19c14.36,6.04,29.92,9.09,45.85,9.09
					c5.13,0,10.3-0.34,15.5-0.97c1.91-0.23,3.86-0.5,5.77-0.84c0.44-0.07,0.84-0.13,1.27-0.23c2.28-0.4,4.6-0.87,6.88-1.44
					c4.7-1.07,9.39-2.45,14.05-4.06l-4.39-12.68c-4.96,1.74-10,3.15-14.99,4.23c-1.71,0.37-3.39,0.67-5.07,0.97
					c-0.57,0.1-1.17,0.2-1.74,0.27c-2.31,0.37-4.63,0.64-6.94,0.84c-17.74,1.64-35.22-0.91-50.99-7.55
					c-13.59-5.7-27.51-18.52-22.11-35.83c1.81-5.77,3.99-11.14,6.1-16.34c5.74-14.12,11.14-27.47,8.45-46.19
					c-3.02-21.07-13.82-38.98-24.29-56.25l-1.01-1.71c-3.82-6.34-6.81-12.28-8.99-17.91v-0.03c-6.41-16.64-5.5-30.26,2.68-41.23
					c18.65-25.16,50.11-32.91,86.31-21.3c12.65,4.06,25.06,9.66,36.66,16.5c2.01,1.17,3.99,2.42,5.94,3.66
					c1.98,1.27,3.96,2.58,5.87,3.96c1.58,1.07,3.12,2.18,4.63,3.32l2.11-2.82l5.94-7.92c-2.62-1.98-5.3-3.86-8.05-5.67
					c-1.95-1.34-3.89-2.62-5.9-3.82c-1.98-1.24-3.96-2.45-6-3.59c-11.81-6.74-24.35-12.31-37.1-16.4
					c-42-13.45-78.9-3.96-101.17,26.06C1113.82,1031.94,1115.7,1056.87,1133.72,1086.75z"/>
			</g>
		</g>
		<g>
			<path class="st1" d="M1136.23,1061.86v0.03c2.18,5.64,5.17,11.57,8.99,17.91l1.01,1.71c10.47,17.28,21.27,35.19,24.29,56.25
				c2.68,18.72-2.72,32.07-8.45,46.19c-2.11,5.2-4.29,10.57-6.1,16.34c-5.4,17.31,8.52,30.12,22.11,35.83
				c15.77,6.64,33.24,9.19,50.99,7.55c-21.3-62.39,0.67-135.79,26-208.41c2.25-6.47,4.56-12.95,6.84-19.42
				c-11.61-6.84-24.02-12.44-36.66-16.5c-36.19-11.61-67.66-3.86-86.31,21.3C1130.73,1031.61,1129.82,1045.23,1136.23,1061.86z"/>
		</g>
		<g>
			<path class="st2" d="M1078.23,1006.68c0.54,8.22,2.78,17.04,6.68,26.53c1.38,3.39,2.99,6.88,4.8,10.43
				c1.21,2.42,2.55,4.86,3.96,7.35c0.84,1.48,1.71,2.99,2.62,4.49l1.41,2.31c14.02,23.25,28.55,47.26,32.57,75.34
				c3.52,24.69-3.69,42.5-11.34,61.32c-2.89,7.08-5.84,14.39-8.32,22.31c-7.78,24.99,11.98,43.34,31.3,51.42
				c25.29,10.63,53.7,13.69,82.15,8.89c6.24-1.04,12.48-2.52,18.75-4.33c-0.84-1.34-1.64-2.68-2.42-4.03
				c-2.28-3.99-4.36-8.02-6.17-12.11c-5.2,0.64-10.36,0.97-15.5,0.97c-15.93,0-31.5-3.05-45.85-9.09
				c-20.26-8.52-37.27-27.94-29.72-52.19c1.98-6.31,4.26-11.94,6.47-17.38c5.27-12.95,9.8-24.12,7.61-39.25
				c-2.62-18.38-12.71-35.09-22.47-51.22l-1.04-1.71c-18.01-29.89-19.89-54.81-5.57-74.13c22.27-30.02,59.17-39.51,101.17-26.06
				c12.75,4.09,25.29,9.66,37.1,16.4c0.67-1.84,1.34-3.72,1.98-5.57c0.6-1.68,1.21-3.35,1.84-5c1.88-5.03,3.89-9.93,6.07-14.63
				c-1.24-0.87-2.48-1.78-3.76-2.65c-0.1-0.07-0.23-0.17-0.37-0.23c-19.79-13.62-42.03-24.55-64.77-31.87
				c-4.8-1.54-9.56-2.82-14.22-3.86c-16.03-3.62-31.26-4.36-45.25-2.28c-17.21,2.55-32.54,9.29-45.32,20.13
				c-0.74,0.57-1.44,1.17-2.15,1.84c-3.89,3.45-7.51,7.35-10.87,11.61c-0.37,0.44-0.7,0.87-1.01,1.34c-0.23,0.3-0.47,0.6-0.7,0.91
				C1080.58,982.57,1077.33,993.84,1078.23,1006.68z"/>
		</g>
		<g class="st3">
			<g>
				<g>
					<path class="st4" d="M1078.23,1006.68c0.4,13.08,5.03,27.88,15.43,44.31c0.5,0.84,1.04,1.68,1.61,2.52
						c-1.78-3.42-3.76-6.71-5.57-9.86c-2.01-3.56-3.79-7.01-4.8-10.43c-13.22-44.75,15.73-71.18,67.59-79.83
						c49.01-8.18,97.04,23.25,117.74,39.01c1.88-5.03,3.89-9.93,6.07-14.63c-1.24-0.87-2.48-1.78-3.76-2.65
						c-0.1-0.07-0.23-0.17-0.37-0.23c-11.67-7.72-34.11-21.2-60.78-30.26c-5.94-2.01-12.01-3.89-18.21-5.47
						c-13.01-3.22-26.7-4.93-40.96-2.99c-1.41,0.2-2.85,0.44-4.29,0.7c-15.56,2.82-32.2,9.59-45.32,20.13
						c-0.74,0.57-1.44,1.17-2.15,1.84c-4.09,3.45-7.75,7.35-10.87,11.61c-0.37,0.44-0.7,0.87-1.01,1.34
						C1081.79,981.56,1077.76,993.2,1078.23,1006.68z"/>
				</g>
			</g>
		</g>
		<g class="st5">
			<g>
				<g>
					<path class="st0" d="M1138.85,1064.08c-2.18-12.68,0.78-28.11,12.61-35.15c14.69-8.74,33.84-6.8,49.87-3.68
						c18.28,3.56,35.45,9.9,51.18,19.96c2.05,1.31,5.62-5.18,7.46-3.84c2.05,1.48,3.96,2.92,5.77,4.33
						c2.31-6.68,4.66-13.38,7.04-20.13c0.4-1.11,0.81-2.21,1.17-3.32c-1.71-1.14-3.69-2.42-5.9-3.79c-1.85-1.14-3.86-2.35-6-3.56
						c-16.67-9.53-42.23-21.2-67.93-21.57c-4.76-0.07-16.2-0.57-27.57,4.09c-21.87,8.96-51.83,30.69-23.98,78.02
						C1140.99,1070.72,1139.55,1068.17,1138.85,1064.08z"/>
				</g>
			</g>
		</g>
	</g>
	<g class="st6">
		<ellipse class="st0" cx="1498.8" cy="1812.76" rx="358.38" ry="47.8"/>
	</g>
	<g>
		<path class="st2" d="M1901.85,1708.42c-2.02,13.64-5.64,27.73-10.65,40.69c-15.66,40.45-55.62,61.65-85.95,52.84
			c-30.33-8.81-50.39-20.06-98.83-19.57c-35.46,0.35-88.75-1.39-114.76-2.35c-27.99,7.14-59.18,10.88-92.84,12.13
			c-33.68-1.25-64.88-4.99-92.88-12.13c-0.84,0.04-1.72,0.06-2.62,0.1c-1.6,0.06-3.31,0.12-5.09,0.18
			c-27.79,0.98-74.78,2.39-107.03,2.07c-48.44-0.49-68.5,10.76-98.83,19.57c-30.33,8.81-70.32-12.39-85.97-52.84
			c-1.17-3.03-2.27-6.15-3.29-9.3c-12.54-38.69-12.99-83.72,3.29-96.38c17.61-13.7,57.73-17.95,96.87-26.42
			c27.57-5.97,48.26-35.52,58.1-52.51c0.72-15.32,2.33-31.63,4.87-48.93L1390.97,1329l107.85,41.72l107.83-41.72l121.51,181.79
			l3.21,4.79c2.51,17.3,4.15,33.6,4.87,48.93c0.37,0.67,0.78,1.33,1.19,2.04c10.27,17.2,30.41,44.74,56.89,50.47
			c39.14,8.47,79.26,12.72,96.87,26.42C1903.19,1652.75,1906.1,1679.54,1901.85,1708.42z"/>
	</g>
	<g>
		<path class="st0" d="M1826.67,1808.4c-13.57,0-22.24-6.77-27.48-13.4c-22.55-28.56-13.95-93.26,8.82-132.03
			c10.32-17.58,23.64-28.34,39.58-31.98c25.61-5.85,48.28,9.1,49.23,9.75c2.69,1.81,3.41,5.45,1.6,8.15
			c-1.81,2.69-5.44,3.41-8.14,1.61l0,0c-0.19-0.13-19.56-12.79-40.18-8.03c-12.62,2.91-23.38,11.81-31.97,26.45
			c-22.29,37.96-27.1,96.81-9.73,118.81c6.91,8.75,16.66,11.04,29.81,7.02c3.11-0.95,6.38,0.8,7.33,3.9c0.95,3.1-0.8,6.38-3.9,7.33
			C1836.1,1807.67,1831.12,1808.4,1826.67,1808.4z"/>
	</g>
	<g>
		<path class="st0" d="M1835.98,1671.9c-5.48,0-13.33-2.5-20.2-14.09c-1.65-2.79-0.73-6.39,2.06-8.04c2.79-1.65,6.39-0.73,8.04,2.06
			c2.18,3.68,6.62,9.63,11.82,8.09c5.68-1.67,11.26-11.17,10.77-24.18c-0.12-3.15,2.27-5.83,5.41-6.07
			c3.15-0.26,5.91,2.03,6.29,5.15c1.89,15.74,6.42,22.39,9.72,23.31c1.53,0.42,7.43,0.63,19.02-14.36c1.98-2.57,5.67-3.04,8.24-1.05
			c2.56,1.98,3.04,5.67,1.05,8.24c-11.65,15.07-21.94,21.13-31.44,18.5c-4.8-1.32-8.77-4.83-11.84-10.37
			c-3.39,6.05-8.22,10.44-13.91,12.12C1839.79,1671.54,1838.05,1671.9,1835.98,1671.9z"/>
	</g>
	<g>
		<path class="st0" d="M1900.3,1698.02c-8.19,0-16.7-5.07-20.82-12.97c-2.96-5.68-7.54-20.82,13.97-38.73
			c2.49-2.08,6.19-1.74,8.27,0.76c2.08,2.49,1.74,6.19-0.75,8.27c-10.52,8.76-14.55,17.61-11.08,24.27
			c2.56,4.9,8.58,7.44,12.24,6.43c3.13-0.86,6.36,0.98,7.22,4.11c0.86,3.13-0.98,6.36-4.11,7.22
			C1903.63,1697.81,1901.97,1698.02,1900.3,1698.02z"/>
	</g>
	<g>
		<path class="st0" d="M1177.75,1810.85c-31.43,0-63.99-23.77-77.72-59.26c-16.07-41.52-19.03-97.06,2.18-113.56
			c14.63-11.38,40.93-16.35,71.38-22.11c9.25-1.75,18.81-3.56,28.25-5.6c24.23-5.25,43.17-31.59,52.78-47.83
			c0.77-14.99,2.4-31.09,4.85-47.9c0.15-1.01,0.52-1.97,1.08-2.82l124.72-186.58c1.78-2.67,5.17-3.74,8.17-2.58l105.38,40.77
			l105.36-40.77c2.99-1.16,6.38-0.08,8.17,2.58l124.72,186.58c0.57,0.85,0.94,1.81,1.08,2.82c2.45,16.81,4.09,32.91,4.85,47.9
			c9.6,16.24,28.55,42.58,52.78,47.83c9.44,2.04,19,3.85,28.25,5.6c30.45,5.76,56.75,10.73,71.38,22.11
			c21.21,16.5,18.25,72.03,2.18,113.56c-16.17,41.79-58.45,67.34-94.25,56.95c-6.7-1.95-12.91-4.01-18.92-6.01
			c-21.16-7.03-41.15-13.76-77.93-13.29c-34.76,0.34-85.99-1.29-114.1-2.32c-27.03,6.81-57.57,10.77-93.32,12.1
			c-0.17,0.01-0.34,0.01-0.51,0c-35.76-1.33-66.31-5.29-93.34-12.1c-28.11,1.03-79.34,2.66-114.1,2.32
			c-36.79-0.39-56.78,6.26-77.93,13.29c-6.01,2-12.22,4.06-18.92,6.01C1188.88,1810.1,1183.33,1810.85,1177.75,1810.85z
			 M1709.49,1775.52c37.08,0,57.58,6.81,79.24,14.01c5.89,1.96,11.97,3.98,18.42,5.85c25.53,7.4,62.82-10.41,77.66-48.74
			c15.21-39.31,16.27-86.84,2.18-97.8c-12.02-9.35-38-14.26-65.51-19.46c-9.33-1.76-18.98-3.59-28.6-5.67
			c-30.1-6.52-52.12-37.74-62.56-55.77c-0.55-0.95-0.86-2.01-0.91-3.11c-0.69-14.57-2.23-30.29-4.59-46.73L1604,1337.36
			l-102.72,39.74c-1.59,0.61-3.35,0.61-4.94,0l-102.73-39.74l-120.81,180.73c-2.36,16.45-3.9,32.16-4.59,46.73
			c-0.05,1.09-0.37,2.16-0.91,3.11c-10.45,18.03-32.47,49.25-62.56,55.77c-9.62,2.08-19.27,3.91-28.6,5.67
			c-27.51,5.2-53.5,10.11-65.51,19.46c-14.09,10.96-13.03,58.49,2.18,97.8c14.83,38.33,52.13,56.13,77.66,48.74
			c6.45-1.87,12.53-3.9,18.42-5.85c22.27-7.4,43.3-14.42,82.39-13.99c34.88,0.33,86.67-1.32,114.44-2.35
			c0.66-0.02,1.31,0.05,1.95,0.21c26.25,6.7,56.07,10.6,91.17,11.92c35.08-1.32,64.9-5.22,91.15-11.92
			c0.63-0.16,1.29-0.23,1.95-0.21c27.77,1.02,79.56,2.69,114.44,2.35C1707.41,1775.52,1708.46,1775.52,1709.49,1775.52z"/>
	</g>
	<g>
		<path class="st0" d="M1170.94,1808.4c-4.45,0-9.43-0.73-14.99-2.43c-3.1-0.95-4.85-4.23-3.9-7.33c0.95-3.1,4.23-4.85,7.33-3.9
			c13.15,4.02,22.9,1.73,29.81-7.02c17.38-22,12.56-80.86-9.73-118.81c-8.6-14.64-19.35-23.54-31.97-26.45
			c-20.62-4.76-39.98,7.91-40.18,8.03c-2.7,1.79-6.34,1.07-8.14-1.63c-1.8-2.69-1.08-6.33,1.6-8.13
			c0.95-0.64,23.62-15.59,49.23-9.75c15.94,3.64,29.26,14.4,39.58,31.98c22.76,38.77,31.37,103.47,8.82,132.03
			C1193.18,1801.63,1184.51,1808.4,1170.94,1808.4z"/>
	</g>
	<g>
		<path class="st0" d="M1161.63,1671.9c-2.08,0-3.82-0.36-5.04-0.72c-5.69-1.67-10.51-6.07-13.91-12.12
			c-3.06,5.54-7.04,9.04-11.84,10.37c-9.5,2.63-19.78-3.43-31.44-18.5c-1.98-2.57-1.51-6.25,1.05-8.24
			c2.56-1.98,6.25-1.51,8.24,1.05c11.59,15,17.49,14.78,19.02,14.36c3.3-0.91,7.83-7.56,9.72-23.31c0.37-3.13,3.16-5.41,6.29-5.15
			c3.14,0.25,5.52,2.93,5.41,6.07c-0.49,13.01,5.09,22.51,10.77,24.18c5.2,1.54,9.64-4.41,11.82-8.09c1.65-2.79,5.25-3.71,8.04-2.06
			c2.79,1.65,3.71,5.26,2.06,8.04C1174.96,1669.4,1167.12,1671.9,1161.63,1671.9z"/>
	</g>
	<g>
		<path class="st0" d="M1097.31,1698.02c-1.67,0-3.33-0.21-4.93-0.65c-3.13-0.86-4.97-4.09-4.11-7.22c0.86-3.13,4.09-4.97,7.22-4.11
			c3.67,1.01,9.68-1.53,12.24-6.43c3.48-6.67-0.56-15.51-11.07-24.27c-2.49-2.08-2.83-5.78-0.75-8.27c2.08-2.49,5.78-2.83,8.27-0.76
			c21.51,17.91,16.93,33.05,13.97,38.73C1114.01,1692.95,1105.5,1698.02,1097.31,1698.02z"/>
	</g>
	<g>
		<path class="st2" d="M1498.8,1405.08c12.17,0,24.33-1.15,36.28-3.43c320.94-61.09,252.66-221.72,196.35-381.86
			c-55.05-156.56-232.63-150.04-232.63-150.04s-177.59-6.52-232.63,150.04c-56.31,160.14-124.59,320.77,196.35,381.86
			C1474.48,1403.92,1486.64,1405.08,1498.8,1405.08L1498.8,1405.08z"/>
	</g>
	<g>
		<path class="st2" d="M1662.78,922.76c-69.98-47.71-152.57-44.68-152.57-44.68s-91.55-3.37-163.55,52.7
			c1.39,40.41-17.12,62.49-55.54,66.23c-5.07,9.57-9.61,19.92-13.54,31.1c-40.9,116.35-88.12,232.94,12.15,311.44
			c-115.11-78.42-65.93-199.23-23.56-319.76c55.05-156.56,232.63-150.03,232.63-150.03S1590.71,866.37,1662.78,922.76z"/>
	</g>
	<g>
		<path class="st2" d="M1592.39,1172.77c-9.08,34.27-34.15,62.19-68.95,74.74c-11.21,4.03-23.45,6.46-36.46,6.99
			c-6.01,0.23-12.19,0.08-18.51-0.51l-25.09-32.19l-33.62-43.15c0,0,16.15-56.26,82.2-48.44c-35.72-77.3-13.48-173.76,47.71-192.04
			c12.47-24.7,47.95-20.29,28.38,15.91c0,0,8.06,5.11,14.89,11.92c3.19,3.19,6.13,6.75,7.85,10.33c5.38,11.27-1.96,42.08-33.5,34.76
			c0,0-8.34,30.57,8.06,54.54S1605.76,1122.37,1592.39,1172.77z"/>
	</g>
	<g>
		<path class="st4" d="M1573.29,931.27c-7.95-3.29-20.65,1.68-27.12,14.52c-19.22,5.73-34.58,19.18-45.5,37.32
			c3.21,16.65-2.19,25.91-13.07,30.45c-10.71,37.18-8.02,83.41,10.86,124.27c-40.49-4.79-62.23,14.48-72.98,30.14l-14.48,7.18
			c4.83-12.13,24.95-51.59,80.96-44.95c-35.72-77.3-13.48-173.76,47.71-192.04C1548.69,920.29,1569.75,917.65,1573.29,931.27z"/>
	</g>
	<g>
		<path class="st0" d="M1409.76,1178.64c8-37.28,45.56-61.6,82.88-54.27c0.01,0-6.02,8.29-6.02,8.29
			c-26.57-56.96-26.74-143.29,25.12-186.33c7.76-6.12,16.69-10.91,26.23-13.79l-3.56,2.98c3.02-5.89,7.55-11.22,13.54-14.77
			c22.01-12.2,38.3,5.3,29.1,27.64c-1.08,3-2.45,5.75-3.86,8.47l-2.02-7.75c10.04,6.92,20.27,14.63,25.47,26.02
			c6.46,18.93-6.88,41.97-27.46,42.8c-4.61,0.36-9.06-0.17-13.25-1.14l6.99-4.18c-1.43,6.04-2.03,12.71-1.85,18.96
			c0.22,11.2,3.14,21.98,9.42,31.2c0,0,2.94,4.3,2.94,4.3c12.2,17.57,23.38,37.01,26.98,58.46c7.83,43.42-12.6,90.07-48.96,114.9
			c-24.01,16.23-55.39,20.99-83,13.56c30.59-2.24,59.81-11.18,83.84-29.91c26.01-20.23,39.95-54.11,37.82-86.76
			c-1.51-23.56-13.03-44.56-26.37-63.62c-1.92-2.73-4.26-6.27-5.95-9.15c-5.57-9.9-8.24-21.47-8.46-32.66
			c-0.18-5.59,0.24-11.14,1.1-16.65c0.33-1.89,0.62-3.58,1.16-5.7c0.77-2.98,3.72-4.81,6.7-4.24c13.57,3.63,25.38-2.19,27.82-16.28
			c0.76-4.61,0.66-8.76-1.92-12.37c-4.84-7.12-12.08-12.7-19.3-17.61c-2.57-1.7-3.39-5.07-2.02-7.75c2.26-4.32,4.39-9.09,4.92-13.77
			c1.39-9.91-6.72-10.82-13.85-6.64c-3.78,2.23-6.9,5.8-9.03,9.95c-0.76,1.48-2.08,2.54-3.56,2.98
			c-34.12,10.25-52.64,46.14-58.19,79.63c-5.99,35.04-0.64,72.01,14.14,104.31c1.99,4.01-1.64,8.92-6.02,8.29
			c-12.27-0.39-24.25-0.52-36.02,2.7C1435.05,1144.14,1418.64,1159.69,1409.76,1178.64L1409.76,1178.64z"/>
	</g>
	<g>
		<path class="st0" d="M1496.24,1126.18c8.24,10.99,19,21.32,32.25,26.03c-15.15-1.19-28.88-8.81-40.81-18
			C1481.01,1128.26,1490.71,1119.14,1496.24,1126.18L1496.24,1126.18z"/>
	</g>
	<g>
		<path class="st0" d="M1545.26,939.92c-3.49,6.86-4.92,14.86-4.48,22.59c0.12,2.74,0.66,5.44,1.32,8.19
			c-1.54-2.33-3.06-4.81-4.17-7.49c-3.59-8.35-5-17.72-3.88-26.81C1534.06,936.41,1545.26,939.92,1545.26,939.92L1545.26,939.92z"/>
	</g>
	<g>
		<path class="st0" d="M1572.73,957.59c-6.07,6.02-8.97,15.68-5.18,23.79c1.18,3.04,3.28,5.61,5.37,8.16
			c-2.83-1.88-5.71-3.87-7.86-6.6c-7.75-8.75-7.2-22.48-1.73-32.39C1563.34,950.55,1572.73,957.59,1572.73,957.59L1572.73,957.59z"
			/>
	</g>
	<g>
		<path class="st0" d="M1554.65,1016.32c-3.97-3.1-6.96-7.16-9.21-11.56c-2.07-4.05-3.2-8.57-3.34-13.02
			c1.06,1.9,2.16,3.68,3.54,5.23c3.7,4.26,8.77,7.7,14.25,8.85C1559.9,1005.82,1554.65,1016.32,1554.65,1016.32L1554.65,1016.32z"/>
	</g>
	<g>
		<path class="st0" d="M1497.12,981.75c-2.86,9.28,0.49,19.18,6.09,27.05c4.51,6.55,11.04,11.9,17.64,16.5l7.06,4.36
			c-10.53-3.94-21.04-8.94-29.15-17.04c-8.83-8.44-15.04-21.55-12.93-34.09C1485.83,978.53,1497.12,981.75,1497.12,981.75
			L1497.12,981.75z"/>
	</g>
	<g>
		<path class="st0" d="M1479.97,1052.09c3.16,6.25,9.96,10.15,16.52,12.81c5.35,2.22,12,3.45,17.84,4.2c0,0,6.25,0.49,6.25,0.49
			l-6.24,0.97c-15.39,1.76-33.99,0.29-44.57-12.65C1469.77,1057.91,1479.97,1052.09,1479.97,1052.09L1479.97,1052.09z"/>
	</g>
	<g>
		<path class="st0" d="M1481.67,1132.38c-7.29,11.22-10.98,24.97-10.74,38.37c-0.01,4.68,0.76,9.33,1.7,14.01
			c-3.96-8.78-6.28-18.51-6.41-28.22c-0.21-10.15,1.36-20.38,5.2-29.88C1471.42,1126.65,1481.67,1132.38,1481.67,1132.38
			L1481.67,1132.38z"/>
	</g>
	<g>
		<path class="st0" d="M1779.02,1202.82v-0.23c-0.03-1.41-0.1-2.82-0.17-4.26c-0.03-0.84-0.07-1.68-0.13-2.52
			c0-0.13,0-0.27-0.03-0.4c-0.07-1.24-0.13-2.48-0.23-3.76c-0.1-1.41-0.2-2.78-0.34-4.19c-0.23-2.72-0.54-5.43-0.87-8.15
			c-0.2-1.51-0.37-3.05-0.6-4.56c-0.23-1.91-0.54-3.82-0.84-5.7c-0.27-1.88-0.6-3.72-0.91-5.57c-0.37-2.08-0.74-4.16-1.17-6.27
			c-0.4-2.08-0.84-4.19-1.27-6.31c-0.34-1.64-0.7-3.32-1.07-4.96c-0.67-3.02-1.34-6.04-2.11-9.06c-0.67-2.85-1.41-5.7-2.18-8.55
			c-0.44-1.64-0.87-3.32-1.34-5c-1.68-6.21-3.49-12.48-5.43-18.75c-0.6-2.01-1.21-3.99-1.84-6c-0.3-0.97-0.6-1.91-0.91-2.88
			c-0.6-1.91-1.21-3.79-1.81-5.67c-0.1-0.3-0.2-0.64-0.3-0.94c-1.24-3.86-2.55-7.72-3.82-11.61c-0.94-2.82-1.91-5.6-2.88-8.42
			c-1.07-3.22-2.21-6.44-3.32-9.66c-2.05,1.48-3.96,2.92-5.77,4.33c25.16,72.35,44.88,140.62,23.85,198.01
			c1.71,0.37,3.39,0.67,5.07,0.97c0.57,0.1,1.17,0.2,1.74,0.27c0.4-1.14,0.81-2.28,1.14-3.42c0.27-0.74,0.47-1.44,0.7-2.18
			c0.07-0.13,0.1-0.27,0.13-0.4c0.24-0.7,0.44-1.44,0.64-2.18c0.37-1.24,0.7-2.48,1.04-3.76c0.3-1.24,0.6-2.48,0.91-3.76
			c0.3-1.27,0.57-2.52,0.84-3.79c0.27-1.27,0.5-2.55,0.74-3.82c0.23-1.27,0.44-2.55,0.64-3.86c0.03-0.13,0.03-0.23,0.07-0.37
			c0.17-1.14,0.34-2.31,0.47-3.49c0.17-1.17,0.3-2.35,0.44-3.56c0.3-2.72,0.54-5.43,0.67-8.18c0.1-1.31,0.17-2.65,0.2-3.96
			c0.13-2.65,0.17-5.3,0.17-7.98C1779.08,1206.44,1779.05,1204.63,1779.02,1202.82z M1309.27,946.51c-1.14,1.21-2.25,2.48-3.32,3.76
			h-0.03c-0.1,0.1-0.17,0.2-0.27,0.3c-0.84,0.97-1.68,1.98-2.48,2.99c-0.94,1.11-1.85,2.25-2.75,3.39
			c-0.44,0.54-0.87,1.11-1.27,1.68c-2.18,2.78-4.33,5.64-6.37,8.62c-1.07,1.51-2.11,3.05-3.12,4.63c-2.28,3.49-4.5,7.11-6.64,10.83
			c-1.11,1.98-2.21,3.96-3.29,5.97c-0.91,1.74-1.81,3.49-2.68,5.3c0,0-0.03,0-0.03,0.03c-0.03,0.1-0.1,0.2-0.13,0.3
			c-0.77,1.54-1.51,3.09-2.21,4.7c-0.07,0.13-0.13,0.27-0.2,0.4c-0.5,1.04-0.97,2.11-1.44,3.19c-0.44,0.94-0.84,1.88-1.24,2.82
			c-0.47,1.07-0.94,2.18-1.38,3.29c-0.2,0.47-0.4,0.94-0.57,1.41c-0.6,1.44-1.17,2.92-1.71,4.39c-0.67,1.74-1.31,3.52-1.95,5.3
			c-2.38,6.74-4.76,13.48-7.14,20.19c-0.97,2.78-1.95,5.53-2.92,8.32c-0.24,0.64-0.44,1.27-0.67,1.91
			c-2.15,6.07-4.26,12.14-6.34,18.21c-0.07,0.2-0.13,0.4-0.2,0.6c-1.17,3.42-2.35,6.88-3.49,10.3c-1.14,3.46-2.28,6.88-3.39,10.3
			c-0.97,2.99-1.91,5.97-2.85,8.92c-0.64,2.01-1.24,3.99-1.85,6c-1.21,3.99-2.38,7.95-3.52,11.91c-5.1,17.85-9.29,35.39-11.98,52.56
			c-0.3,1.88-0.6,3.79-0.84,5.7c-0.23,1.64-0.44,3.29-0.64,4.96c-0.2,1.61-0.37,3.22-0.54,4.83c-0.1,0.97-0.2,1.95-0.3,2.92
			c-0.1,1.27-0.2,2.55-0.3,3.82c-0.1,1.14-0.17,2.25-0.23,3.39c-0.1,1.27-0.17,2.52-0.2,3.76c-0.03,0.5-0.07,1.01-0.07,1.48
			c-0.07,1.24-0.1,2.45-0.1,3.66c-0.03,1.58-0.07,3.12-0.07,4.7c0,1.58,0.03,3.12,0.07,4.66c0,1.11,0.03,2.21,0.1,3.32
			c0.03,1.24,0.1,2.45,0.2,3.69v0.47c0.03,0.64,0.1,1.27,0.13,1.88c0,0.13,0.03,0.3,0.03,0.44c0.07,1.04,0.17,2.01,0.27,3.02
			c0.13,1.41,0.27,2.82,0.44,4.23c0.54,4.73,1.31,9.39,2.25,14.02c0.17,0.74,0.3,1.44,0.5,2.18c0.2,1.01,0.44,2.01,0.7,3.02
			c0.27,1.17,0.57,2.38,0.91,3.56c0.07,0.27,0.13,0.5,0.2,0.77c0.4,1.48,0.84,2.95,1.31,4.39c0.07,0.23,0.13,0.47,0.2,0.7
			c0.4,1.21,0.81,2.38,1.21,3.59c0.23,0.7,0.5,1.38,0.77,2.08c0.64,1.84,1.38,3.69,2.15,5.53c0.17,0.44,0.37,0.91,0.6,1.38
			c0.37,0.91,0.77,1.81,1.21,2.75c0.03,0.07,0.07,0.13,0.1,0.2c0.37,0.84,0.74,1.68,1.17,2.52c0.4,0.91,0.84,1.78,1.31,2.68
			c0.54,1.04,1.07,2.08,1.64,3.12c0.77,1.48,1.61,2.92,2.48,4.39c0.07,0.13,0.17,0.27,0.27,0.44c0.74,1.27,1.54,2.55,2.38,3.82
			c1.51-1.24,2.99-2.52,4.46-3.82c0.23-0.23,0.47-0.47,0.74-0.7c-0.91-1.44-1.78-2.89-2.62-4.33c-0.03-0.07-0.1-0.17-0.13-0.23
			c-0.87-1.54-1.71-3.09-2.52-4.63v-0.03c-1.88-3.56-3.56-7.15-5.03-10.8c-0.77-1.84-1.51-3.72-2.18-5.6c0-0.03,0-0.03,0-0.03
			c-0.7-1.91-1.34-3.82-1.91-5.77c-18.48-59.64,4.46-130.35,30.76-204.99c1.48-4.16,2.99-8.39,4.46-12.58
			c1.81-5.17,3.66-10.33,5.47-15.53c2.38-6.78,5.03-13.32,7.98-19.66c0.81-1.81,1.64-3.62,2.55-5.4c0-0.03,0-0.03,0-0.03
			c0.91-1.81,1.81-3.59,2.75-5.33c5.57-10.57,11.94-20.43,19.12-29.62c2.05-2.68,4.19-5.3,6.44-7.85c1.07-1.27,2.21-2.52,3.35-3.76
			C1313.16,949.19,1311.31,947.88,1309.27,946.51z M1751.24,1055.39c-2.25-6.47-4.56-12.95-6.84-19.42
			c-0.34-0.97-0.7-1.98-1.04-2.95c0-0.03-0.03-0.07-0.03-0.1c-1.14-3.29-2.31-6.54-3.46-9.83c-0.67-1.84-1.34-3.72-1.98-5.57
			c-0.6-1.68-1.21-3.35-1.84-5c-1.88-5.03-3.89-9.93-6.07-14.63c-0.3-0.77-0.67-1.54-1.04-2.31c-1.58-3.39-3.22-6.68-4.93-9.9
			c-32.6-61.55-85.67-91.54-127.27-106.1c-50.45-17.64-93.86-16.81-97.95-16.67c-4.06-0.13-47.46-0.97-97.92,16.67
			c-28.85,10.1-63.2,27.61-92.45,57.93c-1.17,1.24-2.42,2.55-3.59,3.86c-0.23,0.23-0.4,0.44-0.6,0.64c-0.23,0.27-0.47,0.5-0.67,0.77
			c-1.14,1.24-2.25,2.48-3.32,3.79c-2.45,2.82-4.83,5.74-7.18,8.79c-7.08,9.19-13.65,19.36-19.59,30.56
			c-0.91,1.74-1.81,3.52-2.72,5.33c0,0-0.03,0.03,0,0.07c-0.91,1.74-1.78,3.56-2.58,5.37c-3.09,6.61-5.9,13.55-8.45,20.83
			c-1.84,5.17-3.66,10.33-5.47,15.5c-1.61,4.56-3.22,9.12-4.86,13.72c-26.2,74.43-50.52,150.14-29.85,214.45
			c0.57,1.88,1.24,3.76,1.91,5.64c0.67,1.84,1.38,3.66,2.15,5.5c2.31,5.6,5,11.14,8.12,16.54c0.4,0.7,0.84,1.44,1.31,2.15
			c0.81,1.44,1.68,2.85,2.62,4.26c0.13,0.27,0.3,0.5,0.5,0.77c0.13,0.23,0.3,0.5,0.5,0.74c0.91,1.41,1.85,2.78,2.85,4.16
			c12.78,17.91,30.09,33.91,52.16,48c2.01,1.34,4.09,2.62,6.21,3.86c1.95,1.21,3.92,2.35,5.94,3.45c1.27,0.77,2.55,1.48,3.86,2.18
			c3.12,1.74,6.34,3.42,9.59,5.03c4.03,2.05,8.15,3.99,12.41,5.94c6.51,2.95,13.28,5.8,20.36,8.52c2.18,0.84,4.36,1.68,6.57,2.52
			c2.18,0.81,4.39,1.58,6.64,2.38c18.99,6.71,39.85,12.71,62.59,18.05c2.28,0.54,4.56,1.07,6.88,1.61c2.28,0.5,4.56,1.01,6.88,1.51
			c7.04,1.51,14.26,2.99,21.67,4.39c12.34,2.35,24.99,3.56,37.54,3.56c12.58,0,25.23-1.21,37.57-3.56c2.98-0.57,5.97-1.14,8.89-1.74
			c2.31-0.44,4.6-0.91,6.84-1.41c2.31-0.47,4.56-0.94,6.81-1.44c2.72-0.6,5.4-1.21,8.08-1.81c24.62-5.6,47.06-12.01,67.39-19.19
			c2.25-0.77,4.46-1.58,6.64-2.38c2.21-0.84,4.39-1.64,6.54-2.52c13.69-5.27,26.3-10.94,37.87-17.04c2.72-1.41,5.4-2.88,8.02-4.36
			c2.31-1.31,4.63-2.68,6.88-4.06c23.25-13.99,41.59-29.96,55.21-47.93c2.85-3.79,5.54-7.65,7.95-11.61
			c0.84-1.34,1.64-2.68,2.42-4.03c2.28-3.99,4.36-8.02,6.17-12.11c1.98-4.26,3.69-8.59,5.17-12.95
			C1798.54,1201.41,1776.57,1128.01,1751.24,1055.39z M1688.15,1343.8c-2.08,1.21-4.16,2.38-6.31,3.52
			c-2.18,1.17-4.39,2.35-6.64,3.49c-0.57,0.3-1.14,0.57-1.74,0.87c-9.9,4.93-20.56,9.59-32.03,13.99c-0.54,0.2-1.07,0.4-1.61,0.6
			c-2.18,0.84-4.36,1.64-6.61,2.42c-2.21,0.84-4.43,1.61-6.68,2.35c-17.41,6-36.46,11.44-57.16,16.34c-3.02,0.7-6.04,1.41-9.12,2.08
			c-2.42,0.54-4.83,1.07-7.31,1.61c-2.38,0.5-4.8,1.01-7.21,1.48c-3.92,0.84-7.88,1.61-11.91,2.38c-23.05,4.39-46.96,4.39-70.01,0
			c-8.65-1.64-17.07-3.39-25.23-5.2c-2.48-0.54-4.93-1.07-7.35-1.64c-2.52-0.57-5.03-1.17-7.51-1.78
			c-14.32-3.46-27.81-7.21-40.52-11.24c-4.13-1.27-8.15-2.62-12.11-3.99c-2.25-0.74-4.46-1.51-6.64-2.35h-0.03
			c-2.25-0.77-4.43-1.61-6.61-2.45c-3.42-1.27-6.78-2.58-10.06-3.96c-3.56-1.44-7.04-2.92-10.47-4.46
			c-5.67-2.52-11.14-5.13-16.37-7.82c-0.2-0.1-0.4-0.2-0.6-0.3c-1.58-0.81-3.12-1.64-4.66-2.48c-1.61-0.84-3.19-1.71-4.73-2.65
			c-0.81-0.4-1.61-0.87-2.38-1.34c-2.21-1.27-4.39-2.58-6.54-3.89c-22.21-13.79-39.45-29.45-51.76-47.03
			c-1.04-1.41-1.98-2.82-2.89-4.23c-0.2-0.23-0.33-0.5-0.47-0.74c-0.2-0.27-0.37-0.54-0.54-0.8c-0.91-1.44-1.78-2.89-2.62-4.33
			c-0.03-0.07-0.1-0.17-0.13-0.23c-0.87-1.54-1.71-3.09-2.52-4.63v-0.03c-1.88-3.56-3.56-7.15-5.03-10.8
			c-0.77-1.84-1.51-3.72-2.18-5.6c0-0.03,0-0.03,0-0.03c-0.7-1.91-1.34-3.82-1.91-5.77c-18.48-59.64,4.46-130.35,30.76-204.99
			c1.48-4.16,2.99-8.39,4.46-12.58c1.81-5.17,3.66-10.33,5.47-15.53c2.38-6.78,5.03-13.32,7.98-19.66c0.81-1.81,1.64-3.62,2.55-5.4
			c0-0.03,0-0.03,0-0.03c0.91-1.81,1.81-3.59,2.75-5.33c5.57-10.57,11.94-20.43,19.12-29.62c2.05-2.68,4.19-5.3,6.44-7.85
			c1.07-1.27,2.21-2.52,3.35-3.76c0.2-0.23,0.4-0.47,0.67-0.7c0.13-0.23,0.37-0.44,0.6-0.67c1.14-1.24,2.31-2.48,3.56-3.72
			c22.51-22.94,51.02-40.55,85.3-52.63c42.77-15.03,81.18-16.1,91.11-16.1c1.58,0,2.42,0.03,2.48,0.03h0.5
			c0.27-0.03,15.83-0.5,38.91,2.82c0.07,0,0.17,0,0.27,0.03c0.03,0,0.1,0,0.13,0.03c15.4,2.25,34.15,6.17,53.84,13.05
			c65.98,23.08,110.66,66.65,132.77,129.51c0.97,2.82,1.98,5.64,2.99,8.45c0.84,2.38,1.64,4.73,2.48,7.08
			c0.3,0.91,0.64,1.78,0.97,2.68c0.37,1.11,0.77,2.21,1.17,3.32c2.38,6.74,4.73,13.45,7.04,20.13
			c25.16,72.35,44.88,140.62,23.85,198.01c-1.54,4.23-3.32,8.39-5.33,12.51c-1.27,2.62-2.65,5.2-4.13,7.78
			C1740.34,1305.86,1718.5,1326.39,1688.15,1343.8z M1779.02,1202.82v-0.23c-0.03-1.41-0.1-2.82-0.17-4.26
			c-0.03-0.84-0.07-1.68-0.13-2.52c0-0.13,0-0.27-0.03-0.4c-0.07-1.24-0.13-2.48-0.23-3.76c-0.1-1.41-0.2-2.78-0.34-4.19
			c-0.23-2.72-0.54-5.43-0.87-8.15c-0.2-1.51-0.37-3.05-0.6-4.56c-0.23-1.91-0.54-3.82-0.84-5.7c-0.27-1.88-0.6-3.72-0.91-5.57
			c-0.37-2.08-0.74-4.16-1.17-6.27c-0.4-2.08-0.84-4.19-1.27-6.31c-0.34-1.64-0.7-3.32-1.07-4.96c-0.67-3.02-1.34-6.04-2.11-9.06
			c-0.67-2.85-1.41-5.7-2.18-8.55c-0.44-1.64-0.87-3.32-1.34-5c-1.68-6.21-3.49-12.48-5.43-18.75c-0.6-2.01-1.21-3.99-1.84-6
			c-0.3-0.97-0.6-1.91-0.91-2.88c-0.6-1.91-1.21-3.79-1.81-5.67c-0.1-0.3-0.2-0.64-0.3-0.94c-1.24-3.86-2.55-7.72-3.82-11.61
			c-0.94-2.82-1.91-5.6-2.88-8.42c-1.07-3.22-2.21-6.44-3.32-9.66c-2.05,1.48-3.96,2.92-5.77,4.33
			c25.16,72.35,44.88,140.62,23.85,198.01c1.71,0.37,3.39,0.67,5.07,0.97c0.57,0.1,1.17,0.2,1.74,0.27c0.4-1.14,0.81-2.28,1.14-3.42
			c0.27-0.74,0.47-1.44,0.7-2.18c0.07-0.13,0.1-0.27,0.13-0.4c0.24-0.7,0.44-1.44,0.64-2.18c0.37-1.24,0.7-2.48,1.04-3.76
			c0.3-1.24,0.6-2.48,0.91-3.76c0.3-1.27,0.57-2.52,0.84-3.79c0.27-1.27,0.5-2.55,0.74-3.82c0.23-1.27,0.44-2.55,0.64-3.86
			c0.03-0.13,0.03-0.23,0.07-0.37c0.17-1.14,0.34-2.31,0.47-3.49c0.17-1.17,0.3-2.35,0.44-3.56c0.3-2.72,0.54-5.43,0.67-8.18
			c0.1-1.31,0.17-2.65,0.2-3.96c0.13-2.65,0.17-5.3,0.17-7.98C1779.08,1206.44,1779.05,1204.63,1779.02,1202.82z"/>
	</g>
	<g>
		<g>
			<path class="st2" d="M1297.56,1552.43c70.94,0,100.3-54.8,124.76-108.13c24.46-53.33,0.49-82.2-18.1-96.38
				c-16.24-12.39-87.3-25.15-107.66,6.67l-0.02-0.02c0,0-43.5,8.02-75.8,115.66C1212.12,1499,1226.62,1552.43,1297.56,1552.43z"/>
		</g>
	</g>
	<g class="st7">
		<g>
			<path class="st4" d="M1421.58,1365.83c-3.37-3.54-6.87-6.56-10.2-9.1c-16.24-12.39-87.3-25.15-107.66,6.67l-0.02-0.02
				c0,0-43.5,8.02-75.8,115.66c-4.31,14.34-2.86,34.82,8.47,51.74c-17.77-18.1-20.72-43.6-15.64-60.55
				c32.29-107.64,75.8-115.66,75.8-115.66l0.02,0.02c20.35-31.82,91.41-19.06,107.66-6.67
				C1410.03,1352.36,1416.36,1358.23,1421.58,1365.83z"/>
		</g>
	</g>
	<g>
		<g>
			<path class="st0" d="M1297.56,1559.28c-40.68,0-61.65-16.71-72.08-30.73c-15.45-20.77-15.74-45.45-11.29-60.28
				c28.7-95.68,67.13-115.7,78.13-119.57c7.35-9.95,19.31-16.45,35.6-19.33c28.92-5.12,67,2.85,80.46,13.11
				c23.04,17.59,45.25,50.02,20.17,104.69C1402.52,1503.89,1370.97,1559.28,1297.56,1559.28z M1297.57,1361.37
				c-3.19,0.92-41.17,13.86-70.26,110.84c-3.54,11.79-3.26,31.48,9.16,48.17c12.27,16.49,33.4,25.21,61.09,25.21
				c65.35,0,93.36-49.26,118.54-104.13c17.1-37.28,11.71-66.91-16.03-88.08c-9.57-7.3-43.84-15.1-69.76-10.51
				c-13.54,2.39-22.95,7.59-27.97,15.43C1301.26,1359.95,1299.53,1361.08,1297.57,1361.37z"/>
		</g>
	</g>
	<g>
		<g>
			<path class="st0" d="M1256.95,1455.56c9.6-15.48,16.58-32.25,21.05-49.68c2.66-10.73,4.31-21.47,5.31-32.37
				c0.24-2.25,0.48-5.2,0.93-7.41c1.45-6.96,6.56-22.74,16.19-16.49c2.72,2.08,3.44,5.79,1.89,8.7c-1.57,3.27-2.63,6.68-3.17,10.36
				c-0.28,2-0.39,4.2-0.66,6.27c-1.04,12.01-4.4,23.79-8.94,34.85C1282.18,1427.19,1271.54,1443.47,1256.95,1455.56L1256.95,1455.56
				z"/>
		</g>
	</g>
	<g>
		<g>
			<path class="st0" d="M1412.83,1402.88c-2.05,0-4.04-0.31-5.9-1.05c-2.93-1.16-6.74-3.88-8.21-10.24
				c-4.58-19.73,14.7-34.72,15.52-35.35c2.14-1.64,5.22-1.23,6.86,0.92c1.64,2.14,1.23,5.21-0.91,6.85
				c-0.21,0.16-15.07,11.85-11.94,25.37c0.63,2.7,1.79,3.16,2.28,3.35c4.24,1.69,14.13-2.78,19.47-6.32
				c2.25-1.5,5.29-0.89,6.78,1.36c1.5,2.25,0.89,5.28-1.36,6.78C1433.03,1396.16,1422.37,1402.88,1412.83,1402.88z"/>
		</g>
	</g>
	<g>
		<g>
			<path class="st0" d="M1378.35,1375.61c-0.54,0-1.09-0.02-1.64-0.06c-7.02-0.5-10.69-4.21-12.53-7.24
				c-7.41-12.18,1.63-33.52,1.73-33.73c1.07-2.48,3.95-3.62,6.43-2.56c2.48,1.07,3.63,3.95,2.56,6.43
				c-2.52,5.85-5.79,19.12-2.35,24.78c0.66,1.08,1.8,2.34,4.87,2.56c13.23,0.97,22.21-19.56,22.3-19.77
				c1.05-2.49,3.92-3.66,6.4-2.61c2.49,1.05,3.66,3.91,2.62,6.4C1408.28,1350.89,1397.71,1375.61,1378.35,1375.61z"/>
		</g>
	</g>
	<g>
		<g>
			<path class="st0" d="M1330.93,1369.46c-5.52,0-10.63-2.33-14.42-6.77c-6.14-7.18-7.52-18.08-3.28-25.91
				c1.29-2.38,4.25-3.26,6.63-1.97c2.38,1.29,3.26,4.26,1.97,6.63c-2.31,4.26-1.38,10.81,2.11,14.89c1.94,2.27,5.4,4.56,10.88,2.63
				c12.88-4.56,15.85-22.99,15.88-23.18c0.41-2.67,2.89-4.51,5.57-4.1c2.67,0.4,4.51,2.88,4.11,5.55c-0.15,1-3.82,24.42-22.29,30.95
				C1335.67,1369.04,1333.26,1369.46,1330.93,1369.46z"/>
		</g>
	</g>
	<g>
		<g>
			<path class="st2" d="M1687.17,1552.43c-37.42,0-63.27-15.25-82.92-37.5c-17.63-19.9-30.28-45.42-41.84-70.63
				c-24.46-53.33-0.49-82.2,18.1-96.38c8.98-6.85,34.76-13.82,59.43-13.29c19.92,0.41,39.14,5.73,48.22,19.96l0.02-0.02
				c0,0,43.5,8.02,75.8,115.66C1772.61,1499,1758.11,1552.43,1687.17,1552.43z"/>
		</g>
	</g>
	<g>
		<g>
			<path class="st2" d="M1669.75,1551.24c-58.53-8.24-84.99-58.2-107.34-106.93c-24.46-53.33-0.49-82.2,18.1-96.38
				c12.25-9.33,55.68-18.89,85.01-9.39c-27.48-3.29-59.83,4.72-70.12,12.56c-15.77,12.04-35.4,34.62-26.09,73.74
				c24.15,10.82,24.64,28.98,20.49,48.57C1607.91,1508.44,1630.88,1540,1669.75,1551.24z"/>
		</g>
	</g>
	<g>
		<g>
			<path class="st0" d="M1687.17,1559.28c-73.41,0-104.96-55.39-130.99-112.12c-25.08-54.66-2.87-87.1,20.17-104.68
				c13.46-10.27,51.54-18.23,80.46-13.11c16.29,2.88,28.25,9.38,35.6,19.33c10.99,3.87,49.42,23.9,78.13,119.57
				c4.45,14.83,4.16,39.52-11.29,60.28C1748.82,1542.57,1727.85,1559.28,1687.17,1559.28z M1637.51,1341.48
				c-22.16,0-45.26,6.1-52.85,11.89c-27.74,21.17-33.13,50.8-16.03,88.08c25.17,54.88,53.18,104.13,118.54,104.13
				c27.7,0,48.82-8.72,61.09-25.21c12.42-16.69,12.7-36.38,9.16-48.17c-29.29-97.64-67.6-110.09-70.43-110.87
				c-1.88-0.33-3.56-1.43-4.6-3.05c-5.02-7.85-14.43-13.04-27.97-15.43C1649.05,1341.9,1643.31,1341.48,1637.51,1341.48z"/>
		</g>
	</g>
	<g>
		<g>
			<path class="st0" d="M1693.93,1350.88c6.61,8.33,7.3,19.01,8.12,29.13c3.1,26.62,11.39,52.6,25.74,75.55
				c-7.35-5.86-13.42-13.16-18.9-20.79c-12.55-18.1-20.97-39.54-22.83-61.64c-0.34-5.28-1.4-10.42-3.76-15.09
				C1678.82,1350.58,1688.9,1344.46,1693.93,1350.88L1693.93,1350.88z"/>
		</g>
	</g>
	<g>
		<g>
			<path class="st0" d="M1606.37,1375.61c-19.35,0-29.92-24.72-30.38-25.8c-1.04-2.49,0.13-5.36,2.62-6.4
				c2.49-1.04,5.35,0.13,6.4,2.62c0.12,0.29,9.12,20.68,22.29,19.76c3.07-0.22,4.21-1.48,4.87-2.56c3.44-5.66,0.17-18.93-2.35-24.78
				c-1.07-2.48,0.08-5.36,2.56-6.43c2.48-1.07,5.36,0.08,6.43,2.56c0.09,0.21,9.13,21.55,1.72,33.73
				c-1.84,3.02-5.51,6.73-12.53,7.23C1607.46,1375.59,1606.91,1375.61,1606.37,1375.61z"/>
		</g>
	</g>
	<g>
		<g>
			<path class="st0" d="M1653.8,1369.46c-2.34,0-4.75-0.42-7.16-1.27c-18.46-6.53-22.14-29.96-22.29-30.95
				c-0.4-2.67,1.45-5.16,4.12-5.56c2.68-0.39,5.16,1.45,5.56,4.11c0.06,0.35,3.05,18.64,15.87,23.17c5.48,1.94,8.94-0.36,10.88-2.63
				c3.49-4.09,4.42-10.63,2.11-14.89c-1.29-2.38-0.4-5.35,1.97-6.63c2.38-1.29,5.35-0.4,6.63,1.97c4.24,7.83,2.86,18.73-3.28,25.91
				C1664.43,1367.13,1659.32,1369.46,1653.8,1369.46z"/>
		</g>
	</g>
	<g>
		<g>
			<path class="st0" d="M1571.9,1402.88c-9.55,0-20.2-6.72-22.6-8.32c-2.25-1.5-2.85-4.54-1.36-6.79c1.5-2.25,4.53-2.86,6.79-1.36
				c5.34,3.54,15.22,8.01,19.47,6.32c0.5-0.2,1.66-0.66,2.28-3.35c3.14-13.55-11.79-25.26-11.94-25.37
				c-2.14-1.65-2.54-4.72-0.9-6.86c1.64-2.14,4.7-2.55,6.85-0.91c0.82,0.63,20.1,15.62,15.52,35.35c-1.47,6.36-5.28,9.08-8.21,10.24
				C1575.95,1402.57,1573.95,1402.88,1571.9,1402.88z"/>
		</g>
	</g>
	<g>
		<path class="st0" d="M1672,1737.86c-22.29,21.31-49.57,37.29-78.29,48.71c-8.52,3.11-13.44-9.12-5.1-12.76
			c14.81-3.65,29.52-7.99,43.68-14.07C1646.14,1753.88,1659.51,1746.63,1672,1737.86L1672,1737.86z"/>
	</g>
	<g>
		<path class="st0" d="M1743.09,1564.28c-1.51,24.29-5.39,48.33-12.28,71.23c2.4-23.79,1.61-47.54-1.41-70.79
			C1728.58,1554.77,1743.25,1554.29,1743.09,1564.28L1743.09,1564.28z"/>
	</g>
	<g>
		<path class="st0" d="M1330.99,1737.86c11.86,8.27,24.24,15.69,37.14,21.71c12.89,6.04,26.28,10.67,39.92,13.96
			c8.75,2.4,5.68,15.22-3.23,13.36C1377.05,1775.9,1352.2,1758.45,1330.99,1737.86L1330.99,1737.86z"/>
	</g>
	<g>
		<path class="st0" d="M1268.17,1564.73c-3.02,23.25-3.82,47-1.41,70.79c-6.89-22.9-10.77-46.95-12.28-71.25
			c-0.24-3.79,2.65-7.06,6.44-7.29C1265.18,1556.66,1268.76,1560.5,1268.17,1564.73L1268.17,1564.73z"/>
	</g>
	<g>
		<g>
			<g>
				<ellipse class="st0" cx="1379.27" cy="1102.01" rx="40.31" ry="46.55"/>
			</g>
		</g>
	</g>
	<g>
		<g>
			<g>
				<ellipse class="st4" cx="1390.22" cy="1088.54" rx="13.14" ry="16.64"/>
			</g>
		</g>
	</g>
	<g class="st6">
		<g>
			<ellipse class="st4" cx="1364.24" cy="1117.69" rx="7.28" ry="11.26"/>
		</g>
	</g>
	<g>
		<g>
			<g>
				<ellipse class="st0" cx="1629.19" cy="1105.27" rx="39.7" ry="45.85"/>
			</g>
		</g>
	</g>
	<g>
		<g>
			<g>
				<ellipse class="st4" cx="1618.41" cy="1092.01" rx="12.94" ry="16.39"/>
			</g>
		</g>
	</g>
	<g class="st6">
		<g>
			<g>
				<ellipse class="st4" cx="1644" cy="1120.72" rx="7.17" ry="11.09"/>
			</g>
		</g>
	</g>
	<g>
		<g>
			<path class="st0" d="M1389.42,1251.32c-0.65-2.33-0.55-4.84,0.03-7.22c0.55-2.4,1.71-4.68,3.26-6.65c1.6-1.91,3.55-3.6,5.82-4.59
				c2.2-1.11,4.64-1.58,7.03-1.6c-2.03,1.33-4,2.4-5.72,3.77c-1.76,1.29-3.28,2.81-4.6,4.45
				C1392.54,1242.77,1390.82,1246.77,1389.42,1251.32z"/>
		</g>
		<g>
			<path class="st0" d="M1587.53,1229.79c2.62,0.03,5.18,0.83,7.53,2.04c2.36,1.21,4.46,2.96,6.18,5.04
				c1.67,2.1,3.01,4.52,3.61,7.13c0.74,2.56,0.73,5.26,0.29,7.8c-0.91-2.46-1.59-4.79-2.68-6.94c-0.99-2.17-2.26-4.15-3.74-5.94
				C1595.8,1235.26,1591.95,1232.42,1587.53,1229.79z"/>
		</g>
		<g>
			<path class="st0" d="M1395.78,1235.66c5,8.34,11.34,15.86,18.76,22.01c7.3,6.26,15.97,10.94,25.26,13.04l3.48,0.76
				c1.17,0.2,2.36,0.23,3.54,0.35l3.54,0.33l3.58-0.11c4.77-0.06,9.57-0.49,14.09-1.73c4.54-1.22,8.85-3.22,12.69-5.9
				c3.76-2.69,7.24-6.16,9.51-9.96c0.47-0.79,1.5-1.05,2.29-0.57c0.13,0.08,0.25,0.18,0.35,0.28c6.64,6.87,15.54,12.04,24.95,14.42
				c9.48,2.38,19.58,1.74,28.93-1.32c9.4-2.99,18.06-8.18,25.91-14.31c7.91-6.1,14.99-13.25,21.72-20.72
				c-6.16,7.94-13.04,15.36-20.7,21.97c-7.76,6.45-16.45,12.04-26.13,15.45c-9.62,3.56-20.38,4.17-30.44,1.81
				c-10.06-2.51-19.34-7.6-26.67-15.17l2.63-0.3c-5.58,8.85-14.55,14.62-24.28,17.16c-4.89,1.29-9.86,1.67-14.82,1.69l-3.72,0.07
				l-3.72-0.42c-1.23-0.17-2.48-0.24-3.7-0.49l-3.63-0.9c-9.64-2.51-18.46-7.6-25.69-14.25
				C1406.31,1252.19,1400.16,1244.37,1395.78,1235.66z"/>
		</g>
	</g>
	<g>
		<path class="st0" d="M1431.01,1269.69c0,0,19.69,63.66,64.2,63.12c37.76-2.97,54.76-49.36,59.88-67.17
			c-20.77,10.25-48.55,5.12-63.93-9.17C1491.16,1256.47,1469.85,1283.98,1431.01,1269.69z"/>
	</g>
	<g>
		<g>
			<path class="st1" d="M1528.52,1297.86c-2.58-10.33-21.94-15.81-31.63-0.97c-3.23-13.55-31.95-11.94-32.92,5.49
				c-0.52,9.34,4.06,18.29,8.42,24.6c6.72,3.69,14.31,5.93,22.8,5.83c13.07-1.03,23.65-7.26,32.11-15.71
				C1529.54,1310.27,1529.85,1303.17,1528.52,1297.86z"/>
		</g>
	</g>
	<g>
		<g class="st8">
			<path class="st9" d="M1527.37,1295.18c-5.99,11.29-15.3,20.98-28.55,22.81c-8.93,1.23-18.86-1.04-26.49-5.8
				c-3.09-1.93-5.98-4.37-8.33-7.21c0.35,8.39,4.44,16.28,8.4,22c6.72,3.69,14.31,5.93,22.8,5.83c13.07-1.03,23.65-7.26,32.11-15.71
				c2.22-6.83,2.53-13.93,1.2-19.24C1528.29,1296.92,1527.87,1296.03,1527.37,1295.18z"/>
		</g>
	</g>
	<g>
		<path class="st9" d="M1496.9,1296.89c0.93,2.63,0.97,5.09,0.85,7.53c-0.21,2.45-0.58,4.79-1.69,7.35
			c-1.47-2.41-1.67-5.06-1.55-7.57C1494.73,1301.69,1495.28,1299.19,1496.9,1296.89z"/>
	</g>
	<g>
		<path class="st0" d="M1458.91,1336.75c0,0,32.7,35.81,72.41-1.56C1517.3,1360.88,1484.6,1371.78,1458.91,1336.75z"/>
	</g>
</g>
</svg>
