<?xml version="1.0" encoding="utf-8"?>
<!-- Generator: Adobe Illustrator 26.3.1, SVG Export Plug-In . SVG Version: 6.00 Build 0)  -->
<svg version="1.1"
	 id="_x31_6079785_x5F_Logo_x5F_Mockup_x5F_070_copy_xA0_Image_00000073713752788862728240000002952812444806896258_"
	 xmlns="http://www.w3.org/2000/svg" xmlns:xlink="http://www.w3.org/1999/xlink" x="0px" y="0px" viewBox="0 0 3000 3000"
	 style="enable-background:new 0 0 3000 3000;" xml:space="preserve">
<style type="text/css">
	.st0{fill:#000072;}
	.st1{fill:#E63C4B;}
	.st2{fill:#4765D4;}
	.st3{opacity:0.5;}
	.st4{fill:#FFFFFF;}
	.st5{opacity:0.3;}
	.st6{opacity:0.2;}
	.st7{opacity:0.6;}
	.st8{opacity:0.53;}
	.st9{fill:#F595A1;}
</style>
<g>
	<g>
		<g>
			<g>
				<path class="st0" d="M2135.81,1039.61l-2.12,3.56c-20.54,33.95-41.75,69.1-47.37,108.16c-4.64,32.46,4.95,56.2,16.1,83.65
					c4.59,11.25,9.34,22.91,13.42,35.92c15.07,48.35-19.2,87.21-59.86,104.29c-29.47,12.38-61.41,18.68-94.12,18.68
					c-14.5,0-29.1-1.24-43.71-3.72c-12.54-2.12-25.13-5.16-37.62-9.13c-2.73-0.83-5.42-1.7-8.1-2.63l2.74-7.84l4.02-11.66
					c1.03,0.36,2.06,0.72,3.15,1.03c3.46,1.19,6.97,2.27,10.42,3.25c9.65,2.79,19.25,5.06,28.85,6.66
					c43.76,7.38,87.47,2.68,126.38-13.67c29.72-12.44,60.12-40.66,48.15-79.11c-3.82-12.18-8.36-23.43-12.8-34.32
					c-11.77-28.95-22.86-56.35-17.44-94.33c6.19-43.19,28.54-80.14,50.11-115.9l2.17-3.56c7.22-12.02,13.11-23.43,17.49-34.26
					c15.43-37.62,13.83-68.27-4.59-93.09c-39.84-53.77-106.87-70.39-183.86-45.67c-37.41,12.02-73.95,30.45-105.99,53.46
					c-1.96,1.39-3.87,2.79-5.78,4.23l-1.14-1.55l-9.55-12.69l-1.7-2.27c0.15-0.1,0.26-0.21,0.41-0.31c2.84-2.12,5.68-4.18,8.57-6.19
					c33.13-23.32,70.54-42.06,108.88-54.34c85.92-27.56,161.26-8.26,206.77,53C2176.53,928.14,2172.55,978.77,2135.81,1039.61z"/>
			</g>
		</g>
		<g>
			<g>
				<path class="st0" d="M2060.57,1077.02l-1.6,2.63c-15.02,24.82-30.55,50.52-34.57,78.8c-3.35,23.27,3.61,40.46,11.71,60.38
					c3.41,8.36,6.91,17.03,9.96,26.73c11.61,37.31-14.55,67.19-45.72,80.29c-22.09,9.29-46.03,13.98-70.54,13.98
					c-7.9,0-15.84-0.52-23.84-1.5c-2.94-0.36-5.93-0.77-8.88-1.29c-0.67-0.1-1.29-0.21-1.96-0.36c-3.51-0.62-7.07-1.34-10.58-2.22
					c-7.22-1.65-14.45-3.77-21.62-6.24l6.76-19.51c7.64,2.68,15.38,4.85,23.07,6.5c2.63,0.57,5.21,1.03,7.79,1.5
					c0.88,0.15,1.81,0.31,2.68,0.41c3.56,0.57,7.12,0.98,10.68,1.29c27.3,2.53,54.18-1.39,78.44-11.61
					c20.9-8.77,42.31-28.48,34.01-55.11c-2.79-8.88-6.14-17.13-9.39-25.13c-8.82-21.72-17.13-42.26-13-71.06
					c4.64-32.41,21.26-59.96,37.36-86.54l1.55-2.63c5.88-9.75,10.47-18.89,13.83-27.56v-0.05c9.86-25.59,8.46-46.55-4.13-63.42
					c-28.69-38.7-77.09-50.62-132.77-32.77c-19.45,6.24-38.55,14.86-56.4,25.39c-3.1,1.81-6.14,3.72-9.13,5.62
					c-3.05,1.96-6.09,3.97-9.03,6.09c-2.43,1.65-4.8,3.35-7.12,5.11l-3.25-4.33l-9.13-12.18c4.03-3.04,8.15-5.93,12.38-8.72
					c2.99-2.06,5.99-4.02,9.08-5.88c3.04-1.91,6.09-3.77,9.24-5.52c18.16-10.37,37.46-18.94,57.07-25.23
					c64.61-20.69,121.37-6.09,155.63,40.1C2091.17,992.7,2088.28,1031.04,2060.57,1077.02z"/>
			</g>
		</g>
		<g>
			<path class="st1" d="M2056.7,1038.73v0.05c-3.35,8.67-7.95,17.8-13.83,27.56l-1.55,2.63c-16.1,26.58-32.72,54.13-37.36,86.54
				c-4.13,28.79,4.18,49.33,13,71.06c3.25,8,6.61,16.26,9.39,25.13c8.31,26.63-13.11,46.34-34.01,55.11
				c-24.25,10.22-51.14,14.14-78.44,11.61c32.77-95.98-1.03-208.89-39.99-320.61c-3.46-9.96-7.02-19.92-10.53-29.88
				c17.86-10.53,36.95-19.14,56.4-25.39c55.68-17.85,104.08-5.93,132.77,32.77C2065.17,992.18,2066.56,1013.13,2056.7,1038.73z"/>
		</g>
		<g>
			<path class="st2" d="M2145.93,953.84c-0.83,12.64-4.28,26.21-10.27,40.82c-2.12,5.21-4.59,10.58-7.38,16.05
				c-1.86,3.72-3.92,7.48-6.09,11.3c-1.29,2.27-2.63,4.59-4.03,6.91l-2.17,3.56c-21.57,35.76-43.91,72.71-50.11,115.9
				c-5.42,37.98,5.68,65.38,17.44,94.33c4.44,10.89,8.98,22.14,12.8,34.32c11.97,38.44-18.42,66.67-48.15,79.11
				c-38.91,16.36-82.62,21.05-126.38,13.67c-9.6-1.6-19.2-3.87-28.85-6.66c1.29-2.06,2.53-4.13,3.72-6.19
				c3.51-6.14,6.71-12.33,9.49-18.63c8,0.98,15.95,1.5,23.84,1.5c24.51,0,48.46-4.7,70.54-13.98
				c31.17-13.11,57.33-42.99,45.72-80.29c-3.05-9.7-6.55-18.37-9.96-26.73c-8.1-19.92-15.07-37.1-11.71-60.38
				c4.03-28.28,19.56-53.98,34.57-78.8l1.6-2.63c27.71-45.98,30.6-84.32,8.57-114.04c-34.26-46.18-91.03-60.79-155.63-40.1
				c-19.61,6.3-38.91,14.86-57.07,25.23c-1.03-2.84-2.06-5.73-3.05-8.57c-0.93-2.58-1.86-5.16-2.84-7.69
				c-2.89-7.74-5.99-15.27-9.34-22.5c1.91-1.34,3.82-2.74,5.78-4.08c0.15-0.1,0.36-0.26,0.57-0.36
				c30.45-20.95,64.66-37.77,99.65-49.02c7.38-2.37,14.71-4.33,21.88-5.93c24.67-5.57,48.09-6.71,69.61-3.51
				c26.47,3.92,50.05,14.29,69.72,30.96c1.14,0.88,2.22,1.81,3.3,2.84c5.99,5.31,11.56,11.3,16.72,17.85
				c0.57,0.67,1.08,1.34,1.55,2.06c0.36,0.46,0.72,0.93,1.08,1.39C2142.31,916.74,2147.32,934.08,2145.93,953.84z"/>
		</g>
		<g class="st3">
			<g>
				<g>
					<path class="st4" d="M2145.93,953.84c-0.62,20.12-7.74,42.88-23.74,68.17c-0.77,1.29-1.6,2.58-2.48,3.87
						c2.74-5.26,5.78-10.32,8.57-15.17c3.1-5.47,5.83-10.78,7.38-16.05c20.33-68.84-24.2-109.5-103.98-122.82
						c-75.39-12.59-149.29,35.76-181.13,60.01c-2.89-7.74-5.99-15.27-9.34-22.5c1.91-1.34,3.82-2.74,5.78-4.08
						c0.15-0.1,0.36-0.26,0.57-0.36c17.96-11.87,52.48-32.61,93.5-46.55c9.13-3.1,18.47-5.99,28.02-8.41
						c20.02-4.95,41.08-7.59,63.01-4.59c2.17,0.31,4.39,0.67,6.61,1.08c23.94,4.33,49.54,14.76,69.72,30.96
						c1.14,0.88,2.22,1.81,3.3,2.84c6.3,5.31,11.92,11.3,16.72,17.85c0.57,0.67,1.08,1.34,1.55,2.06
						C2140.46,915.19,2146.65,933.1,2145.93,953.84z"/>
				</g>
			</g>
		</g>
		<g class="st5">
			<g>
				<g>
					<path class="st0" d="M2052.68,1042.13c3.36-19.51-1.2-43.24-19.4-54.07c-22.6-13.45-52.06-10.46-76.72-5.66
						c-28.13,5.48-54.53,15.23-78.74,30.71c-3.15,2.01-8.64-7.97-11.48-5.91c-3.15,2.27-6.09,4.49-8.88,6.66
						c-3.56-10.27-7.17-20.59-10.84-30.96c-0.62-1.7-1.24-3.41-1.81-5.11c2.63-1.75,5.68-3.72,9.08-5.83
						c2.84-1.75,5.93-3.61,9.24-5.47c25.65-14.66,64.97-32.61,104.5-33.18c7.33-0.1,24.92-0.88,42.42,6.3
						c33.65,13.78,79.73,47.22,36.9,120.03C2049.38,1052.35,2051.59,1048.43,2052.68,1042.13z"/>
				</g>
			</g>
		</g>
	</g>
	<g>
		<g>
			<g>
				<path class="st0" d="M864.19,1039.61l2.12,3.56c20.54,33.95,41.75,69.1,47.37,108.16c4.64,32.46-4.95,56.2-16.1,83.65
					c-4.59,11.25-9.34,22.91-13.42,35.92c-15.07,48.35,19.2,87.21,59.86,104.29c29.47,12.38,61.41,18.68,94.12,18.68
					c14.5,0,29.1-1.24,43.71-3.72c12.54-2.12,25.13-5.16,37.62-9.13c2.73-0.83,5.42-1.7,8.1-2.63l-2.74-7.84l-4.02-11.66
					c-1.03,0.36-2.06,0.72-3.15,1.03c-3.46,1.19-6.97,2.27-10.42,3.25c-9.65,2.79-19.25,5.06-28.85,6.66
					c-43.76,7.38-87.47,2.68-126.38-13.67c-29.72-12.44-60.12-40.66-48.15-79.11c3.82-12.18,8.36-23.43,12.8-34.32
					c11.77-28.95,22.86-56.35,17.44-94.33c-6.19-43.19-28.54-80.14-50.11-115.9l-2.17-3.56c-7.22-12.02-13.11-23.43-17.49-34.26
					c-15.43-37.62-13.83-68.27,4.59-93.09c39.84-53.77,106.87-70.39,183.86-45.67c37.41,12.02,73.95,30.45,105.99,53.46
					c1.96,1.39,3.87,2.79,5.78,4.23l1.14-1.55l9.55-12.69l1.7-2.27c-0.15-0.1-0.26-0.21-0.41-0.31c-2.84-2.12-5.68-4.18-8.57-6.19
					c-33.13-23.32-70.54-42.06-108.88-54.34c-85.92-27.56-161.26-8.26-206.77,53C823.47,928.14,827.45,978.77,864.19,1039.61z"/>
			</g>
		</g>
		<g>
			<g>
				<path class="st0" d="M939.43,1077.02l1.6,2.63c15.02,24.82,30.55,50.52,34.57,78.8c3.35,23.27-3.61,40.46-11.71,60.38
					c-3.41,8.36-6.91,17.03-9.96,26.73c-11.61,37.31,14.55,67.19,45.72,80.29c22.09,9.29,46.03,13.98,70.54,13.98
					c7.9,0,15.84-0.52,23.84-1.5c2.94-0.36,5.93-0.77,8.88-1.29c0.67-0.1,1.29-0.21,1.96-0.36c3.51-0.62,7.07-1.34,10.58-2.22
					c7.22-1.65,14.45-3.77,21.62-6.24l-6.76-19.51c-7.64,2.68-15.38,4.85-23.07,6.5c-2.63,0.57-5.21,1.03-7.79,1.5
					c-0.88,0.15-1.81,0.31-2.68,0.41c-3.56,0.57-7.12,0.98-10.68,1.29c-27.3,2.53-54.18-1.39-78.44-11.61
					c-20.9-8.77-42.31-28.48-34.01-55.11c2.79-8.88,6.14-17.13,9.39-25.13c8.82-21.72,17.13-42.26,13-71.06
					c-4.64-32.41-21.26-59.96-37.36-86.54l-1.55-2.63c-5.88-9.75-10.47-18.89-13.83-27.56v-0.05c-9.86-25.59-8.46-46.55,4.13-63.42
					c28.69-38.7,77.09-50.62,132.77-32.77c19.45,6.24,38.55,14.86,56.4,25.39c3.1,1.81,6.14,3.72,9.13,5.62
					c3.05,1.96,6.09,3.97,9.03,6.09c2.43,1.65,4.8,3.35,7.12,5.11l3.25-4.33l9.13-12.18c-4.03-3.04-8.15-5.93-12.38-8.72
					c-2.99-2.06-5.99-4.02-9.08-5.88c-3.04-1.91-6.09-3.77-9.24-5.52c-18.16-10.37-37.46-18.94-57.07-25.23
					c-64.61-20.69-121.37-6.09-155.63,40.1C908.83,992.7,911.72,1031.04,939.43,1077.02z"/>
			</g>
		</g>
		<g>
			<path class="st1" d="M943.3,1038.73v0.05c3.35,8.67,7.95,17.8,13.83,27.56l1.55,2.63c16.1,26.58,32.72,54.13,37.36,86.54
				c4.13,28.79-4.18,49.33-13,71.06c-3.25,8-6.61,16.26-9.39,25.13c-8.31,26.63,13.11,46.34,34.01,55.11
				c24.25,10.22,51.14,14.14,78.44,11.61c-32.77-95.98,1.03-208.89,39.99-320.61c3.46-9.96,7.02-19.92,10.53-29.88
				c-17.86-10.53-36.95-19.14-56.4-25.39c-55.68-17.85-104.08-5.93-132.77,32.77C934.83,992.18,933.44,1013.13,943.3,1038.73z"/>
		</g>
		<g>
			<path class="st2" d="M854.07,953.84c0.83,12.64,4.28,26.21,10.27,40.82c2.12,5.21,4.59,10.58,7.38,16.05
				c1.86,3.72,3.92,7.48,6.09,11.3c1.29,2.27,2.63,4.59,4.03,6.91l2.17,3.56c21.57,35.76,43.91,72.71,50.11,115.9
				c5.42,37.98-5.68,65.38-17.44,94.33c-4.44,10.89-8.98,22.14-12.8,34.32c-11.97,38.44,18.42,66.67,48.15,79.11
				c38.91,16.36,82.62,21.05,126.38,13.67c9.6-1.6,19.2-3.87,28.85-6.66c-1.29-2.06-2.53-4.13-3.72-6.19
				c-3.51-6.14-6.71-12.33-9.49-18.63c-8,0.98-15.95,1.5-23.84,1.5c-24.51,0-48.46-4.7-70.54-13.98
				c-31.17-13.11-57.33-42.99-45.72-80.29c3.05-9.7,6.55-18.37,9.96-26.73c8.1-19.92,15.07-37.1,11.71-60.38
				c-4.03-28.28-19.56-53.98-34.57-78.8l-1.6-2.63c-27.71-45.98-30.6-84.32-8.57-114.04c34.26-46.18,91.03-60.79,155.63-40.1
				c19.61,6.3,38.91,14.86,57.07,25.23c1.03-2.84,2.06-5.73,3.05-8.57c0.93-2.58,1.86-5.16,2.84-7.69
				c2.89-7.74,5.99-15.27,9.34-22.5c-1.91-1.34-3.82-2.74-5.78-4.08c-0.15-0.1-0.36-0.26-0.57-0.36
				c-30.45-20.95-64.66-37.77-99.65-49.02c-7.38-2.37-14.71-4.33-21.88-5.93c-24.67-5.57-48.09-6.71-69.61-3.51
				c-26.47,3.92-50.05,14.29-69.72,30.96c-1.14,0.88-2.22,1.81-3.3,2.84c-5.99,5.31-11.56,11.3-16.72,17.85
				c-0.57,0.67-1.08,1.34-1.55,2.06c-0.36,0.46-0.72,0.93-1.08,1.39C857.69,916.74,852.68,934.08,854.07,953.84z"/>
		</g>
		<g class="st3">
			<g>
				<g>
					<path class="st4" d="M854.07,953.84c0.62,20.12,7.74,42.88,23.74,68.17c0.77,1.29,1.6,2.58,2.48,3.87
						c-2.74-5.26-5.78-10.32-8.57-15.17c-3.1-5.47-5.83-10.78-7.38-16.05c-20.33-68.84,24.2-109.5,103.98-122.82
						c75.39-12.59,149.29,35.76,181.13,60.01c2.89-7.74,5.99-15.27,9.34-22.5c-1.91-1.34-3.82-2.74-5.78-4.08
						c-0.15-0.1-0.36-0.26-0.57-0.36c-17.96-11.87-52.48-32.61-93.5-46.55c-9.13-3.1-18.47-5.99-28.02-8.41
						c-20.02-4.95-41.08-7.59-63.01-4.59c-2.17,0.31-4.39,0.67-6.61,1.08c-23.94,4.33-49.54,14.76-69.72,30.96
						c-1.14,0.88-2.22,1.81-3.3,2.84c-6.3,5.31-11.92,11.3-16.72,17.85c-0.57,0.67-1.08,1.34-1.55,2.06
						C859.54,915.19,853.35,933.1,854.07,953.84z"/>
				</g>
			</g>
		</g>
		<g class="st5">
			<g>
				<g>
					<path class="st0" d="M947.32,1042.13c-3.36-19.51,1.2-43.24,19.4-54.07c22.6-13.45,52.06-10.46,76.72-5.66
						c28.13,5.48,54.53,15.23,78.74,30.71c3.15,2.01,8.64-7.97,11.48-5.91c3.15,2.27,6.09,4.49,8.88,6.66
						c3.56-10.27,7.17-20.59,10.84-30.96c0.62-1.7,1.24-3.41,1.81-5.11c-2.63-1.75-5.68-3.72-9.08-5.83
						c-2.84-1.75-5.93-3.61-9.24-5.47c-25.65-14.66-64.97-32.61-104.5-33.18c-7.33-0.1-24.92-0.88-42.42,6.3
						c-33.65,13.78-79.73,47.22-36.9,120.03C950.62,1052.35,948.41,1048.43,947.32,1042.13z"/>
				</g>
			</g>
		</g>
	</g>
	<g class="st6">
		<ellipse class="st0" cx="1501.07" cy="2193.87" rx="551.32" ry="73.53"/>
	</g>
	<g>
		<path class="st2" d="M2121.1,2033.37c-3.1,20.98-8.67,42.66-16.38,62.59c-24.08,62.23-85.56,94.83-132.23,81.29
			c-46.66-13.55-77.52-30.86-152.04-30.11c-54.55,0.54-136.53-2.14-176.54-3.61c-43.05,10.99-91.04,16.74-142.82,18.67
			c-51.81-1.93-99.8-7.68-142.88-18.67c-1.29,0.06-2.65,0.09-4.03,0.15c-2.47,0.09-5.09,0.18-7.83,0.27
			c-42.75,1.51-115.04,3.67-164.65,3.19c-74.51-0.75-105.37,16.56-152.04,30.11c-46.66,13.55-108.17-19.06-132.26-81.29
			c-1.81-4.67-3.49-9.45-5.06-14.3c-19.3-59.52-19.99-128.79,5.06-148.27c27.1-21.07,88.81-27.61,149.03-40.64
			c42.42-9.18,74.24-54.64,89.39-80.78c1.11-23.57,3.58-48.65,7.5-75.27l191.87-287.03l165.92,64.19l165.88-64.19l186.93,279.66
			l4.94,7.38c3.85,26.61,6.38,51.69,7.5,75.27c0.57,1.02,1.2,2.05,1.84,3.13c15.81,26.46,46.78,68.82,87.52,77.64
			c60.21,13.04,121.93,19.57,149.03,40.64C2123.15,1947.72,2127.64,1988.93,2121.1,2033.37z"/>
	</g>
	<g>
		<path class="st0" d="M2005.44,2187.16c-20.88,0-34.21-10.41-42.27-20.61c-34.7-43.94-21.45-143.47,13.57-203.11
			c15.88-27.04,36.36-43.59,60.89-49.19c39.4-8.99,74.27,14.01,75.73,14.99c4.14,2.78,5.24,8.39,2.47,12.53
			c-2.78,4.14-8.38,5.24-12.52,2.48l0,0c-0.3-0.2-30.09-19.68-61.81-12.35c-19.41,4.48-35.96,18.17-49.19,40.69
			c-34.28,58.39-41.7,148.92-14.96,182.77c10.63,13.46,25.63,16.99,45.86,10.8c4.78-1.46,9.82,1.22,11.28,6
			c1.46,4.77-1.22,9.82-5.99,11.28C2019.95,2186.04,2012.29,2187.16,2005.44,2187.16z"/>
	</g>
	<g>
		<path class="st0" d="M2019.76,1977.18c-8.44,0-20.5-3.84-31.07-21.67c-2.54-4.29-1.13-9.83,3.16-12.38
			c4.29-2.54,9.83-1.12,12.38,3.17c3.36,5.66,10.19,14.82,18.18,12.45c8.74-2.57,17.32-17.19,16.57-37.2
			c-0.18-4.84,3.49-8.97,8.32-9.34c4.84-0.4,9.1,3.12,9.68,7.93c2.91,24.22,9.87,34.45,14.95,35.85
			c2.36,0.65,11.43,0.97,29.26-22.09c3.05-3.95,8.72-4.67,12.67-1.62c3.95,3.05,4.67,8.72,1.62,12.67
			c-17.92,23.19-33.75,32.51-48.36,28.46c-7.38-2.04-13.5-7.43-18.21-15.95c-5.22,9.31-12.64,16.06-21.4,18.64
			C2025.63,1976.63,2022.95,1977.18,2019.76,1977.18z"/>
	</g>
	<g>
		<path class="st0" d="M2118.71,2017.36c-12.61,0-25.69-7.8-32.03-19.95c-4.56-8.73-11.59-32.02,21.49-59.57
			c3.83-3.19,9.53-2.67,12.72,1.16c3.19,3.83,2.67,9.53-1.16,12.72c-16.18,13.47-22.39,27.08-17.04,37.34
			c3.94,7.54,13.19,11.45,18.83,9.89c4.81-1.32,9.78,1.51,11.1,6.32c1.32,4.81-1.51,9.78-6.32,11.1
			C2123.83,2017.04,2121.28,2017.36,2118.71,2017.36z"/>
	</g>
	<g>
		<path class="st0" d="M1007.17,2190.93c-48.35,0-98.44-36.57-119.57-91.17c-24.72-63.88-29.27-149.32,3.36-174.69
			c22.51-17.51,62.96-25.16,109.81-34.01c14.22-2.69,28.93-5.47,43.46-8.61c37.27-8.07,66.41-48.6,81.19-73.57
			c1.18-23.06,3.69-47.83,7.47-73.69c0.23-1.55,0.8-3.03,1.67-4.33l191.87-287.03c2.74-4.1,7.96-5.75,12.56-3.97l162.11,62.72
			l162.08-62.71c4.61-1.78,9.82-0.13,12.56,3.97l191.87,287.03c0.87,1.3,1.44,2.78,1.67,4.33c3.77,25.85,6.28,50.63,7.47,73.69
			c14.77,24.98,43.92,65.5,81.19,73.57c14.52,3.14,29.23,5.92,43.46,8.61c46.84,8.86,87.3,16.5,109.81,34.01
			c32.63,25.38,28.08,110.82,3.36,174.69c-24.88,64.29-89.92,103.6-144.99,87.6c-10.31-2.99-19.86-6.17-29.11-9.24
			c-32.54-10.81-63.3-21.17-119.88-20.45c-53.47,0.52-132.28-1.98-175.53-3.57c-41.58,10.48-88.56,16.57-143.56,18.61
			c-0.26,0.01-0.52,0.01-0.78,0c-55.01-2.04-102-8.13-143.59-18.61c-43.25,1.59-122.05,4.09-175.52,3.57
			c-56.6-0.61-87.34,9.64-119.89,20.45c-9.24,3.07-18.8,6.24-29.11,9.24C1024.29,2189.78,1015.75,2190.93,1007.17,2190.93z
			 M1825.18,2136.58c57.05,0,88.57,10.48,121.91,21.55c9.05,3.01,18.42,6.12,28.34,9c39.27,11.39,96.64-16.01,119.46-74.97
			c23.4-60.47,25.04-133.59,3.36-150.45c-18.49-14.38-58.46-21.94-100.78-29.94c-14.36-2.71-29.2-5.52-44-8.72
			c-46.3-10.03-80.17-58.05-96.24-85.79c-0.85-1.46-1.33-3.1-1.41-4.78c-1.06-22.42-3.43-46.6-7.06-71.89l-185.85-278.03
			l-158.01,61.14c-2.44,0.94-5.16,0.94-7.6,0l-158.04-61.14l-185.85,278.03c-3.62,25.3-6,49.48-7.06,71.89
			c-0.08,1.68-0.56,3.32-1.41,4.78c-16.07,27.73-49.95,75.76-96.24,85.79c-14.8,3.2-29.65,6.01-44,8.72
			c-42.32,8-82.3,15.56-100.78,29.94c-21.68,16.86-20.05,89.98,3.36,150.45c22.82,58.96,80.19,86.36,119.46,74.97
			c9.92-2.88,19.28-5.99,28.34-9c34.26-11.38,66.61-22.18,126.74-21.52c53.66,0.51,133.33-2.03,176.05-3.61
			c1.02-0.04,2.02,0.07,2.99,0.32c40.38,10.31,86.26,16.3,140.25,18.33c53.97-2.03,99.84-8.02,140.22-18.33
			c0.98-0.25,1.99-0.36,2.99-0.32c42.71,1.58,122.39,4.13,176.05,3.61C1821.97,2136.59,1823.59,2136.58,1825.18,2136.58z"/>
	</g>
	<g>
		<path class="st0" d="M996.69,2187.16c-6.85,0-14.51-1.12-23.06-3.74c-4.77-1.46-7.45-6.51-5.99-11.28c1.46-4.77,6.51-7.46,11.28-6
			c20.24,6.19,35.24,2.66,45.86-10.8c26.73-33.85,19.32-124.39-14.96-182.77c-13.22-22.52-29.77-36.21-49.19-40.69
			c-31.72-7.32-61.51,12.16-61.81,12.35c-4.15,2.76-9.75,1.64-12.52-2.5c-2.77-4.14-1.67-9.73,2.47-12.51
			c1.47-0.99,36.33-23.98,75.73-14.99c24.52,5.6,45.01,22.15,60.89,49.19c35.02,59.64,48.26,159.17,13.57,203.11
			C1030.91,2176.75,1017.57,2187.16,996.69,2187.16z"/>
	</g>
	<g>
		<path class="st0" d="M982.38,1977.18c-3.2,0-5.87-0.55-7.75-1.1c-8.75-2.58-16.18-9.33-21.4-18.64
			c-4.71,8.52-10.83,13.91-18.21,15.95c-14.62,4.05-30.43-5.27-48.36-28.46c-3.05-3.95-2.32-9.62,1.62-12.67
			c3.94-3.05,9.62-2.33,12.67,1.62c17.84,23.07,26.91,22.74,29.26,22.09c5.08-1.4,12.04-11.63,14.95-35.85
			c0.58-4.81,4.86-8.33,9.68-7.93c4.83,0.38,8.5,4.5,8.32,9.34c-0.75,20.01,7.83,34.63,16.57,37.2c7.99,2.37,14.82-6.79,18.18-12.45
			c2.54-4.29,8.08-5.7,12.38-3.17c4.29,2.54,5.71,8.08,3.16,12.38C1002.88,1973.34,990.81,1977.18,982.38,1977.18z"/>
	</g>
	<g>
		<path class="st0" d="M883.42,2017.36c-2.57,0-5.12-0.32-7.59-1c-4.81-1.32-7.64-6.29-6.32-11.1c1.32-4.81,6.29-7.64,11.1-6.32
			c5.64,1.56,14.89-2.35,18.82-9.89c5.35-10.26-0.86-23.86-17.04-37.34c-3.83-3.19-4.35-8.89-1.16-12.72
			c3.19-3.83,8.89-4.35,12.72-1.16c33.09,27.55,26.05,50.84,21.49,59.57C909.11,2009.56,896.03,2017.36,883.42,2017.36z"/>
	</g>
	<g>
		<path class="st2" d="M1501.07,1566.71c18.72,0,37.43-1.77,55.82-5.27c493.73-93.97,388.68-341.08,302.06-587.43
			c-84.69-240.85-357.88-230.81-357.88-230.81S1227.88,733.16,1143.19,974c-86.62,246.35-191.67,493.46,302.06,587.43
			C1463.64,1564.94,1482.34,1566.71,1501.07,1566.71L1501.07,1566.71z"/>
	</g>
	<g>
		<path class="st2" d="M1753.33,824.73c-107.66-73.4-234.71-68.73-234.71-68.73s-140.84-5.18-251.6,81.08
			c2.14,62.17-26.34,96.13-85.44,101.88c-7.8,14.72-14.78,30.65-20.83,47.84c-62.92,178.98-135.57,358.35,18.7,479.11
			c-177.08-120.64-101.43-306.48-36.25-491.9c84.69-240.85,357.87-230.79,357.87-230.79S1642.45,737.99,1753.33,824.73z"/>
	</g>
	<g>
		<path class="st2" d="M1645.03,1209.33c-13.97,52.72-52.54,95.68-106.06,114.98c-17.25,6.2-36.07,9.94-56.09,10.75
			c-9.24,0.36-18.76,0.12-28.48-0.78l-38.6-49.52l-51.72-66.38c0,0,24.84-86.56,126.45-74.51
			c-54.94-118.92-20.74-267.31,73.4-295.43c19.18-37.99,73.76-31.22,43.65,24.48c0,0,12.4,7.86,22.91,18.33
			c4.91,4.91,9.42,10.39,12.07,15.9c8.28,17.34-3.01,64.73-51.54,53.47c0,0-12.83,47.03,12.4,83.91
			C1628.66,1081.38,1665.6,1131.81,1645.03,1209.33z"/>
	</g>
	<g>
		<path class="st4" d="M1615.65,837.82c-12.22-5.06-31.76,2.59-41.73,22.34c-29.56,8.82-53.2,29.5-70,57.41
			c4.94,25.62-3.37,39.86-20.11,46.85c-16.47,57.2-12.34,128.31,16.71,191.17c-62.29-7.38-95.74,22.28-112.27,46.36l-22.28,11.05
			c7.44-18.67,38.39-79.36,124.55-69.15c-54.94-118.92-20.74-267.31,73.4-295.43C1577.81,820.93,1610.2,816.87,1615.65,837.82z"/>
	</g>
	<g>
		<path class="st0" d="M1364.08,1218.37c12.31-57.35,70.09-94.76,127.51-83.48c0.01,0-9.26,12.76-9.26,12.76
			c-40.88-87.63-41.14-220.44,38.64-286.64c11.93-9.42,25.68-16.78,40.36-21.22l-5.48,4.58c4.64-9.07,11.62-17.26,20.83-22.72
			c33.86-18.77,58.92,8.15,44.77,42.52c-1.66,4.61-3.77,8.84-5.94,13.02l-3.11-11.92c15.44,10.64,31.19,22.5,39.18,40.03
			c9.94,29.12-10.58,64.56-42.24,65.84c-7.08,0.55-13.93-0.26-20.38-1.76l10.76-6.43c-2.2,9.29-3.13,19.55-2.85,29.17
			c0.34,17.23,4.83,33.82,14.5,48c0,0,4.53,6.61,4.53,6.61c18.77,27.03,35.96,56.93,41.51,89.94
			c12.05,66.8-19.38,138.56-75.32,176.75c-36.94,24.96-85.21,32.29-127.69,20.86c47.06-3.45,92.01-17.2,128.97-46.01
			c40.02-31.12,61.46-83.23,58.18-133.47c-2.32-36.24-20.05-68.55-40.57-97.87c-2.96-4.2-6.56-9.65-9.15-14.08
			c-8.57-15.22-12.67-33.02-13.01-50.24c-0.28-8.6,0.37-17.13,1.69-25.62c0.51-2.91,0.95-5.51,1.79-8.77
			c1.18-4.58,5.72-7.4,10.3-6.52c20.88,5.59,39.04-3.36,42.79-25.05c1.18-7.09,1.02-13.48-2.96-19.03
			c-7.44-10.95-18.58-19.53-29.7-27.09c-3.95-2.61-5.21-7.8-3.11-11.92c3.48-6.65,6.75-13.98,7.56-21.19
			c2.14-15.24-10.34-16.65-21.31-10.22c-5.81,3.43-10.62,8.93-13.9,15.31c-1.16,2.27-3.2,3.9-5.48,4.59
			c-52.49,15.77-80.98,70.97-89.52,122.51c-9.21,53.91-0.98,110.78,21.75,160.47c3.06,6.17-2.52,13.72-9.26,12.76
			c-18.87-0.6-37.31-0.8-55.41,4.15C1402.98,1165.3,1377.75,1189.22,1364.08,1218.37L1364.08,1218.37z"/>
	</g>
	<g>
		<path class="st0" d="M1497.12,1137.67c12.68,16.9,29.23,32.79,49.61,40.05c-23.31-1.83-44.43-13.55-62.79-27.69
			C1473.68,1140.87,1488.61,1126.84,1497.12,1137.67L1497.12,1137.67z"/>
	</g>
	<g>
		<path class="st0" d="M1572.53,851.14c-5.36,10.55-7.56,22.86-6.89,34.75c0.18,4.21,1.02,8.37,2.03,12.61
			c-2.38-3.59-4.71-7.39-6.41-11.52c-5.52-12.84-7.7-27.25-5.97-41.24C1555.29,845.74,1572.53,851.14,1572.53,851.14L1572.53,851.14
			z"/>
	</g>
	<g>
		<path class="st0" d="M1614.79,878.32c-9.34,9.26-13.8,24.12-7.97,36.6c1.82,4.67,5.04,8.64,8.27,12.55
			c-4.35-2.9-8.79-5.95-12.09-10.15c-11.93-13.46-11.07-34.58-2.66-49.83C1600.34,867.48,1614.79,878.32,1614.79,878.32
			L1614.79,878.32z"/>
	</g>
	<g>
		<path class="st0" d="M1586.97,968.66c-6.11-4.76-10.7-11.02-14.16-17.78c-3.19-6.23-4.92-13.18-5.13-20.03
			c1.63,2.92,3.32,5.67,5.45,8.04c5.69,6.55,13.5,11.85,21.93,13.61C1595.05,952.5,1586.97,968.66,1586.97,968.66L1586.97,968.66z"
			/>
	</g>
	<g>
		<path class="st0" d="M1498.48,915.48c-4.4,14.27,0.76,29.5,9.37,41.61c6.94,10.07,16.99,18.31,27.13,25.39l10.87,6.71
			c-16.2-6.07-32.36-13.75-44.85-26.21c-13.59-12.98-23.14-33.15-19.89-52.45C1481.11,910.53,1498.48,915.48,1498.48,915.48
			L1498.48,915.48z"/>
	</g>
	<g>
		<path class="st0" d="M1472.08,1023.69c4.87,9.61,15.32,15.61,25.42,19.7c8.23,3.42,18.46,5.3,27.44,6.46c0,0,9.61,0.76,9.61,0.76
			l-9.6,1.5c-23.68,2.7-52.29,0.45-68.57-19.47C1456.4,1032.64,1472.08,1023.69,1472.08,1023.69L1472.08,1023.69z"/>
	</g>
	<g>
		<path class="st0" d="M1474.71,1147.2c-11.22,17.26-16.89,38.41-16.52,59.03c-0.02,7.2,1.16,14.35,2.61,21.55
			c-6.09-13.51-9.66-28.48-9.87-43.42c-0.32-15.61,2.09-31.35,8-45.97C1458.94,1138.39,1474.71,1147.2,1474.71,1147.2
			L1474.71,1147.2z"/>
	</g>
	<g>
		<path class="st0" d="M1932.13,1255.56v-0.36c-0.05-2.17-0.15-4.33-0.26-6.55c-0.05-1.29-0.1-2.58-0.21-3.87
			c0-0.21,0-0.41-0.05-0.62c-0.1-1.91-0.21-3.82-0.36-5.78c-0.15-2.17-0.31-4.28-0.52-6.45c-0.36-4.18-0.83-8.36-1.34-12.54
			c-0.31-2.32-0.57-4.7-0.93-7.02c-0.36-2.94-0.83-5.88-1.29-8.77c-0.41-2.89-0.93-5.73-1.39-8.57c-0.57-3.2-1.14-6.4-1.81-9.65
			c-0.62-3.2-1.29-6.45-1.96-9.7c-0.52-2.53-1.08-5.11-1.65-7.64c-1.03-4.64-2.06-9.29-3.25-13.93c-1.03-4.39-2.17-8.77-3.35-13.16
			c-0.67-2.53-1.34-5.11-2.06-7.69c-2.58-9.55-5.37-19.2-8.36-28.85c-0.93-3.1-1.86-6.14-2.84-9.24c-0.46-1.5-0.93-2.94-1.39-4.44
			c-0.93-2.94-1.86-5.83-2.79-8.72c-0.16-0.46-0.31-0.98-0.46-1.44c-1.91-5.93-3.92-11.87-5.88-17.85
			c-1.45-4.33-2.94-8.62-4.44-12.95c-1.65-4.95-3.41-9.91-5.11-14.86c-3.15,2.27-6.09,4.49-8.88,6.66
			c38.7,111.31,69.05,216.32,36.69,304.61c2.63,0.57,5.21,1.03,7.79,1.5c0.88,0.15,1.81,0.31,2.68,0.41
			c0.62-1.75,1.24-3.51,1.75-5.26c0.41-1.14,0.72-2.22,1.08-3.35c0.1-0.21,0.16-0.41,0.21-0.62c0.36-1.08,0.67-2.22,0.98-3.35
			c0.57-1.91,1.08-3.82,1.6-5.78c0.46-1.91,0.93-3.82,1.39-5.78c0.46-1.96,0.88-3.87,1.29-5.83c0.41-1.96,0.77-3.92,1.14-5.88
			c0.36-1.96,0.67-3.92,0.98-5.93c0.05-0.21,0.05-0.36,0.1-0.57c0.26-1.75,0.52-3.56,0.72-5.37c0.26-1.81,0.46-3.61,0.67-5.47
			c0.46-4.18,0.83-8.36,1.03-12.59c0.15-2.01,0.26-4.08,0.31-6.09c0.21-4.08,0.26-8.15,0.26-12.28
			C1932.24,1261.14,1932.19,1258.35,1932.13,1255.56z M1209.49,861.27c-1.75,1.86-3.46,3.82-5.11,5.78h-0.05
			c-0.16,0.15-0.26,0.31-0.41,0.46c-1.29,1.5-2.58,3.04-3.82,4.59c-1.45,1.7-2.84,3.46-4.23,5.21c-0.67,0.83-1.34,1.7-1.96,2.58
			c-3.35,4.28-6.66,8.67-9.8,13.26c-1.65,2.32-3.25,4.7-4.8,7.12c-3.51,5.37-6.92,10.94-10.22,16.67c-1.7,3.04-3.41,6.09-5.06,9.19
			c-1.39,2.68-2.79,5.37-4.13,8.15c0,0-0.05,0-0.05,0.05c-0.05,0.15-0.15,0.31-0.21,0.46c-1.19,2.37-2.32,4.75-3.41,7.22
			c-0.1,0.21-0.21,0.41-0.31,0.62c-0.77,1.6-1.5,3.25-2.22,4.9c-0.67,1.45-1.29,2.89-1.91,4.33c-0.72,1.65-1.45,3.35-2.12,5.06
			c-0.31,0.72-0.62,1.45-0.88,2.17c-0.93,2.22-1.81,4.49-2.63,6.76c-1.03,2.68-2.01,5.42-2.99,8.15
			c-3.66,10.37-7.33,20.74-10.99,31.07c-1.5,4.28-2.99,8.51-4.49,12.8c-0.36,0.98-0.67,1.96-1.03,2.94
			c-3.3,9.34-6.55,18.68-9.75,28.02c-0.1,0.31-0.21,0.62-0.31,0.93c-1.81,5.26-3.61,10.58-5.37,15.84
			c-1.75,5.32-3.51,10.58-5.21,15.84c-1.5,4.59-2.94,9.19-4.39,13.73c-0.98,3.1-1.91,6.14-2.84,9.24
			c-1.86,6.14-3.66,12.23-5.42,18.32c-7.84,27.45-14.29,54.44-18.42,80.86c-0.46,2.89-0.93,5.83-1.29,8.77
			c-0.36,2.53-0.67,5.06-0.98,7.64c-0.31,2.48-0.57,4.95-0.83,7.43c-0.16,1.5-0.31,2.99-0.46,4.49c-0.16,1.96-0.31,3.92-0.46,5.88
			c-0.15,1.75-0.26,3.46-0.36,5.21c-0.15,1.96-0.26,3.87-0.31,5.78c-0.05,0.77-0.1,1.55-0.1,2.27c-0.1,1.91-0.15,3.77-0.15,5.62
			c-0.05,2.43-0.1,4.8-0.1,7.22c0,2.43,0.05,4.8,0.1,7.17c0,1.7,0.05,3.41,0.15,5.11c0.05,1.91,0.15,3.77,0.31,5.68v0.72
			c0.05,0.98,0.16,1.96,0.21,2.89c0,0.21,0.05,0.46,0.05,0.67c0.1,1.6,0.26,3.1,0.41,4.64c0.21,2.17,0.41,4.33,0.67,6.5
			c0.83,7.28,2.01,14.45,3.46,21.57c0.26,1.14,0.46,2.22,0.77,3.35c0.31,1.55,0.67,3.1,1.08,4.64c0.41,1.81,0.88,3.66,1.39,5.47
			c0.1,0.41,0.21,0.77,0.31,1.19c0.62,2.27,1.29,4.54,2.01,6.76c0.1,0.36,0.21,0.72,0.31,1.08c0.62,1.86,1.24,3.66,1.86,5.52
			c0.36,1.08,0.77,2.12,1.19,3.2c0.98,2.84,2.12,5.68,3.3,8.51c0.26,0.67,0.57,1.39,0.93,2.12c0.57,1.39,1.19,2.79,1.86,4.23
			c0.05,0.1,0.1,0.21,0.15,0.31c0.57,1.29,1.14,2.58,1.81,3.87c0.62,1.39,1.29,2.73,2.01,4.13c0.83,1.6,1.65,3.2,2.53,4.8
			c1.19,2.27,2.48,4.49,3.82,6.76c0.1,0.21,0.26,0.41,0.41,0.67c1.14,1.96,2.37,3.92,3.66,5.88c2.32-1.91,4.59-3.87,6.86-5.88
			c0.36-0.36,0.72-0.72,1.14-1.08c-1.39-2.22-2.74-4.44-4.03-6.66c-0.05-0.1-0.15-0.26-0.21-0.36c-1.34-2.37-2.63-4.75-3.87-7.12
			v-0.05c-2.89-5.47-5.47-10.99-7.74-16.62c-1.19-2.84-2.32-5.73-3.35-8.62c0-0.05,0-0.05,0-0.05c-1.08-2.94-2.06-5.88-2.94-8.88
			c-28.43-91.75,6.86-200.53,47.32-315.35c2.27-6.4,4.59-12.9,6.86-19.35c2.79-7.95,5.62-15.89,8.41-23.89
			c3.66-10.42,7.74-20.49,12.28-30.24c1.24-2.79,2.53-5.57,3.92-8.31c0-0.05,0-0.05,0-0.05c1.39-2.79,2.79-5.52,4.23-8.21
			c8.57-16.25,18.37-31.43,29.41-45.57c3.15-4.13,6.45-8.15,9.91-12.08c1.65-1.96,3.41-3.87,5.16-5.78
			C1215.47,865.39,1212.63,863.38,1209.49,861.27z M1889.41,1028.77c-3.46-9.96-7.02-19.92-10.53-29.88
			c-0.52-1.5-1.08-3.04-1.6-4.54c0-0.05-0.05-0.1-0.05-0.15c-1.75-5.06-3.56-10.06-5.32-15.12c-1.03-2.84-2.06-5.73-3.05-8.57
			c-0.93-2.58-1.86-5.16-2.84-7.69c-2.89-7.74-5.99-15.27-9.34-22.5c-0.46-1.19-1.03-2.37-1.6-3.56
			c-2.43-5.21-4.95-10.27-7.59-15.22c-50.16-94.69-131.79-140.82-195.78-163.22c-77.61-27.14-144.39-25.85-150.68-25.65
			c-6.24-0.21-73.02-1.5-150.63,25.65c-44.38,15.53-97.22,42.47-142.22,89.12c-1.81,1.91-3.72,3.92-5.52,5.93
			c-0.36,0.36-0.62,0.67-0.93,0.98c-0.36,0.41-0.72,0.77-1.03,1.19c-1.75,1.91-3.46,3.82-5.11,5.83
			c-3.77,4.33-7.43,8.82-11.04,13.52c-10.89,14.14-21,29.78-30.14,47.01c-1.39,2.68-2.79,5.42-4.18,8.2c0,0-0.05,0.05,0,0.1
			c-1.39,2.68-2.74,5.47-3.97,8.26c-4.75,10.17-9.08,20.85-13,32.05c-2.84,7.95-5.62,15.89-8.41,23.84
			c-2.48,7.02-4.95,14.04-7.48,21.11c-40.3,114.51-77.71,230.97-45.93,329.9c0.88,2.89,1.91,5.78,2.94,8.67
			c1.03,2.84,2.12,5.62,3.3,8.46c3.56,8.62,7.69,17.13,12.49,25.44c0.62,1.08,1.29,2.22,2.01,3.3c1.24,2.22,2.58,4.39,4.02,6.55
			c0.21,0.41,0.46,0.77,0.77,1.19c0.21,0.36,0.46,0.77,0.77,1.14c1.39,2.17,2.84,4.28,4.39,6.4c19.66,27.56,46.29,52.17,80.24,73.84
			c3.1,2.06,6.3,4.03,9.55,5.93c2.99,1.86,6.04,3.61,9.13,5.31c1.96,1.19,3.92,2.27,5.93,3.35c4.8,2.68,9.75,5.26,14.76,7.74
			c6.19,3.15,12.54,6.14,19.09,9.13c10.01,4.54,20.43,8.93,31.32,13.11c3.35,1.29,6.71,2.58,10.11,3.87
			c3.35,1.24,6.76,2.43,10.22,3.66c29.21,10.32,61.3,19.56,96.29,27.76c3.51,0.83,7.02,1.65,10.58,2.48
			c3.51,0.77,7.02,1.55,10.58,2.32c10.84,2.32,21.93,4.59,33.34,6.76c18.99,3.61,38.44,5.47,57.74,5.47
			c19.35,0,38.81-1.86,57.8-5.47c4.59-0.88,9.18-1.75,13.67-2.68c3.56-0.67,7.07-1.39,10.53-2.17c3.56-0.72,7.02-1.45,10.48-2.22
			c4.18-0.93,8.31-1.86,12.44-2.79c37.88-8.62,72.4-18.47,103.67-29.52c3.46-1.19,6.86-2.43,10.22-3.66
			c3.41-1.29,6.76-2.53,10.06-3.87c21.05-8.1,40.46-16.82,58.26-26.21c4.18-2.17,8.31-4.44,12.33-6.71
			c3.56-2.01,7.12-4.13,10.58-6.24c35.76-21.52,63.99-46.08,84.94-73.74c4.39-5.83,8.52-11.77,12.23-17.85
			c1.29-2.06,2.53-4.13,3.72-6.19c3.51-6.14,6.71-12.33,9.49-18.63c3.04-6.55,5.68-13.21,7.95-19.92
			C1962.17,1253.4,1928.37,1140.49,1889.41,1028.77z M1792.34,1472.45c-3.2,1.86-6.4,3.66-9.7,5.42c-3.35,1.81-6.76,3.61-10.22,5.37
			c-0.88,0.46-1.75,0.88-2.68,1.34c-15.22,7.59-31.63,14.76-49.28,21.52c-0.83,0.31-1.65,0.62-2.48,0.93
			c-3.35,1.29-6.71,2.53-10.17,3.72c-3.41,1.29-6.81,2.48-10.27,3.61c-26.78,9.24-56.09,17.6-87.93,25.13
			c-4.64,1.08-9.29,2.17-14.04,3.2c-3.72,0.83-7.43,1.65-11.25,2.48c-3.66,0.77-7.38,1.55-11.09,2.27
			c-6.04,1.29-12.13,2.48-18.32,3.66c-35.45,6.76-72.24,6.76-107.7,0c-13.31-2.53-26.27-5.21-38.81-8
			c-3.82-0.83-7.59-1.65-11.3-2.53c-3.87-0.88-7.74-1.81-11.56-2.73c-22.03-5.32-42.78-11.09-62.34-17.29
			c-6.35-1.96-12.54-4.03-18.63-6.14c-3.46-1.14-6.86-2.32-10.22-3.61h-0.05c-3.46-1.19-6.81-2.48-10.17-3.77
			c-5.26-1.96-10.42-3.97-15.48-6.09c-5.47-2.22-10.84-4.49-16.1-6.86c-8.72-3.87-17.13-7.9-25.18-12.02
			c-0.31-0.16-0.62-0.31-0.93-0.46c-2.43-1.24-4.8-2.53-7.17-3.82c-2.48-1.29-4.9-2.63-7.28-4.08c-1.24-0.62-2.48-1.34-3.66-2.06
			c-3.41-1.96-6.76-3.97-10.06-5.99c-34.16-21.21-60.69-45.31-79.62-72.35c-1.6-2.17-3.05-4.33-4.44-6.5
			c-0.31-0.36-0.52-0.77-0.72-1.14c-0.31-0.41-0.57-0.83-0.83-1.24c-1.39-2.22-2.74-4.44-4.03-6.66c-0.05-0.1-0.15-0.26-0.21-0.36
			c-1.34-2.37-2.63-4.75-3.87-7.12v-0.05c-2.89-5.47-5.47-10.99-7.74-16.62c-1.19-2.84-2.32-5.73-3.35-8.62c0-0.05,0-0.05,0-0.05
			c-1.08-2.94-2.06-5.88-2.94-8.88c-28.43-91.75,6.86-200.53,47.32-315.35c2.27-6.4,4.59-12.9,6.86-19.35
			c2.79-7.95,5.62-15.89,8.41-23.89c3.66-10.42,7.74-20.49,12.28-30.24c1.24-2.79,2.53-5.57,3.92-8.31c0-0.05,0-0.05,0-0.05
			c1.39-2.79,2.79-5.52,4.23-8.21c8.57-16.25,18.37-31.43,29.41-45.57c3.15-4.13,6.45-8.15,9.91-12.08
			c1.65-1.96,3.41-3.87,5.16-5.78c0.31-0.36,0.62-0.72,1.03-1.08c0.21-0.36,0.57-0.67,0.93-1.03c1.75-1.91,3.56-3.82,5.47-5.73
			c34.63-35.3,78.49-62.39,131.23-80.97c65.79-23.12,124.88-24.77,140.15-24.77c2.43,0,3.72,0.05,3.82,0.05h0.77
			c0.41-0.05,24.36-0.77,59.86,4.33c0.1,0,0.26,0,0.41,0.05c0.05,0,0.15,0,0.21,0.05c23.69,3.46,52.53,9.5,82.82,20.07
			c101.5,35.5,170.24,102.54,204.24,199.24c1.5,4.33,3.04,8.67,4.59,13c1.29,3.66,2.53,7.28,3.82,10.89
			c0.46,1.39,0.98,2.74,1.5,4.13c0.57,1.7,1.19,3.41,1.81,5.11c3.66,10.37,7.28,20.69,10.84,30.96
			c38.7,111.31,69.05,216.32,36.69,304.61c-2.37,6.5-5.11,12.9-8.21,19.25c-1.96,4.03-4.08,8-6.35,11.97
			C1872.64,1414.09,1839.04,1445.67,1792.34,1472.45z M1932.13,1255.56v-0.36c-0.05-2.17-0.15-4.33-0.26-6.55
			c-0.05-1.29-0.1-2.58-0.21-3.87c0-0.21,0-0.41-0.05-0.62c-0.1-1.91-0.21-3.82-0.36-5.78c-0.15-2.17-0.31-4.28-0.52-6.45
			c-0.36-4.18-0.83-8.36-1.34-12.54c-0.31-2.32-0.57-4.7-0.93-7.02c-0.36-2.94-0.83-5.88-1.29-8.77c-0.41-2.89-0.93-5.73-1.39-8.57
			c-0.57-3.2-1.14-6.4-1.81-9.65c-0.62-3.2-1.29-6.45-1.96-9.7c-0.52-2.53-1.08-5.11-1.65-7.64c-1.03-4.64-2.06-9.29-3.25-13.93
			c-1.03-4.39-2.17-8.77-3.35-13.16c-0.67-2.53-1.34-5.11-2.06-7.69c-2.58-9.55-5.37-19.2-8.36-28.85c-0.93-3.1-1.86-6.14-2.84-9.24
			c-0.46-1.5-0.93-2.94-1.39-4.44c-0.93-2.94-1.86-5.83-2.79-8.72c-0.16-0.46-0.31-0.98-0.46-1.44c-1.91-5.93-3.92-11.87-5.88-17.85
			c-1.45-4.33-2.94-8.62-4.44-12.95c-1.65-4.95-3.41-9.91-5.11-14.86c-3.15,2.27-6.09,4.49-8.88,6.66
			c38.7,111.31,69.05,216.32,36.69,304.61c2.63,0.57,5.21,1.03,7.79,1.5c0.88,0.15,1.81,0.31,2.68,0.41
			c0.62-1.75,1.24-3.51,1.75-5.26c0.41-1.14,0.72-2.22,1.08-3.35c0.1-0.21,0.16-0.41,0.21-0.62c0.36-1.08,0.67-2.22,0.98-3.35
			c0.57-1.91,1.08-3.82,1.6-5.78c0.46-1.91,0.93-3.82,1.39-5.78c0.46-1.96,0.88-3.87,1.29-5.83c0.41-1.96,0.77-3.92,1.14-5.88
			c0.36-1.96,0.67-3.92,0.98-5.93c0.05-0.21,0.05-0.36,0.1-0.57c0.26-1.75,0.52-3.56,0.72-5.37c0.26-1.81,0.46-3.61,0.67-5.47
			c0.46-4.18,0.83-8.36,1.03-12.59c0.15-2.01,0.26-4.08,0.31-6.09c0.21-4.08,0.26-8.15,0.26-12.28
			C1932.24,1261.14,1932.19,1258.35,1932.13,1255.56z"/>
	</g>
	<g>
		<g>
			<path class="st2" d="M1191.48,1793.39c109.13,0,154.29-84.3,191.93-166.34c37.63-82.04,0.75-126.45-27.85-148.27
				c-24.99-19.06-134.3-38.69-165.61,10.27l-0.03-0.03c0,0-66.93,12.34-116.6,177.93
				C1060.03,1711.2,1082.34,1793.39,1191.48,1793.39z"/>
		</g>
	</g>
	<g class="st7">
		<g>
			<path class="st4" d="M1382.27,1506.33c-5.18-5.45-10.57-10.09-15.69-14c-24.99-19.06-134.3-38.69-165.61,10.27l-0.03-0.03
				c0,0-66.93,12.34-116.6,177.93c-6.62,22.07-4.4,53.56,13.04,79.6c-27.34-27.85-31.88-67.08-24.05-93.15
				c49.68-165.58,116.6-177.93,116.6-177.93l0.03,0.03c31.31-48.95,140.63-29.32,165.61-10.27
				C1364.5,1485.62,1374.23,1494.65,1382.27,1506.33z"/>
		</g>
	</g>
	<g>
		<g>
			<path class="st0" d="M1191.48,1803.93c-62.58,0-94.85-25.71-110.89-47.27c-23.77-31.95-24.21-69.93-17.37-92.74
				c44.16-147.19,103.28-177.99,120.19-183.95c11.31-15.31,29.71-25.3,54.76-29.74c44.49-7.87,103.07,4.38,123.78,20.17
				c35.45,27.05,69.61,76.95,31.03,161.04C1352.95,1718.72,1304.41,1803.93,1191.48,1803.93z M1191.49,1499.47
				c-4.91,1.42-63.34,21.32-108.09,170.5c-5.44,18.13-5.02,48.42,14.09,74.1c18.88,25.37,51.37,38.78,93.98,38.78
				c100.54,0,143.63-75.77,182.35-160.19c26.31-57.35,18.01-102.94-24.66-135.5c-14.72-11.22-67.45-23.23-107.32-16.17
				c-20.83,3.68-35.3,11.67-43.02,23.74C1197.18,1497.3,1194.5,1499.02,1191.49,1499.47z"/>
		</g>
	</g>
	<g>
		<g>
			<path class="st0" d="M1129.01,1644.37c14.78-23.81,25.51-49.61,32.38-76.43c4.09-16.51,6.63-33.03,8.17-49.8
				c0.38-3.46,0.74-7.99,1.43-11.4c2.23-10.71,10.09-34.98,24.91-25.37c4.19,3.2,5.29,8.9,2.9,13.38
				c-2.42,5.04-4.04,10.27-4.88,15.94c-0.43,3.07-0.6,6.46-1.02,9.64c-1.59,18.48-6.76,36.59-13.75,53.6
				C1167.83,1600.73,1151.45,1625.78,1129.01,1644.37L1129.01,1644.37z"/>
		</g>
	</g>
	<g>
		<g>
			<path class="st0" d="M1368.8,1563.33c-3.15,0-6.22-0.48-9.07-1.61c-4.51-1.79-10.36-5.97-12.63-15.76
				c-7.04-30.35,22.61-53.42,23.88-54.38c3.3-2.52,8.02-1.9,10.55,1.41c2.52,3.3,1.89,8.01-1.4,10.54
				c-0.33,0.25-23.19,18.23-18.37,39.03c0.96,4.15,2.75,4.86,3.51,5.16c6.53,2.6,21.73-4.27,29.96-9.73
				c3.46-2.3,8.13-1.36,10.43,2.1c2.3,3.46,1.37,8.13-2.09,10.43C1399.87,1552.99,1383.49,1563.33,1368.8,1563.33z"/>
		</g>
	</g>
	<g>
		<g>
			<path class="st0" d="M1315.77,1521.38c-0.83,0-1.67-0.03-2.52-0.09c-10.81-0.77-16.45-6.48-19.28-11.13
				c-11.4-18.74,2.51-51.56,2.65-51.9c1.65-3.82,6.08-5.58,9.89-3.94c3.82,1.65,5.58,6.07,3.94,9.89
				c-3.88,8.99-8.91,29.41-3.62,38.12c1.01,1.66,2.77,3.6,7.49,3.94c20.35,1.48,34.16-30.09,34.3-30.41
				c1.61-3.82,6.03-5.63,9.85-4.02c3.83,1.61,5.63,6.01,4.03,9.84C1361.8,1483.35,1345.54,1521.38,1315.77,1521.38z"/>
		</g>
	</g>
	<g>
		<g>
			<path class="st0" d="M1242.81,1511.92c-8.49,0-16.35-3.59-22.18-10.41c-9.45-11.05-11.57-27.82-5.05-39.86
				c1.98-3.66,6.54-5.02,10.2-3.03c3.66,1.98,5.01,6.55,3.03,10.2c-3.55,6.56-2.12,16.62,3.25,22.91c2.98,3.49,8.31,7.02,16.73,4.04
				c19.82-7.01,24.38-35.37,24.42-35.65c0.63-4.1,4.44-6.94,8.56-6.31c4.1,0.62,6.93,4.43,6.32,8.54
				c-0.23,1.53-5.88,37.57-34.29,47.62C1250.11,1511.28,1246.4,1511.92,1242.81,1511.92z"/>
		</g>
	</g>
	<g>
		<g>
			<path class="st2" d="M1790.84,1793.39c-57.56,0-97.33-23.45-127.56-57.68c-27.13-30.62-46.57-69.88-64.37-108.65
				c-37.63-82.04-0.75-126.45,27.85-148.27c13.82-10.54,53.47-21.26,91.43-20.44c30.65,0.63,60.21,8.82,74.18,30.71l0.03-0.03
				c0,0,66.93,12.34,116.6,177.93C1922.28,1711.2,1899.97,1793.39,1790.84,1793.39z"/>
		</g>
	</g>
	<g>
		<g>
			<path class="st2" d="M1764.04,1791.56c-90.05-12.67-130.75-89.54-165.13-164.5c-37.63-82.04-0.75-126.45,27.85-148.27
				c18.85-14.36,85.65-29.05,130.78-14.45c-42.27-5.06-92.03,7.26-107.87,19.33c-24.27,18.52-54.46,53.26-40.13,113.44
				c37.15,16.65,37.9,44.59,31.52,74.72C1668.91,1725.72,1704.25,1774.28,1764.04,1791.56z"/>
		</g>
	</g>
	<g>
		<g>
			<path class="st0" d="M1790.84,1803.93c-112.93,0-161.47-85.21-201.5-172.48c-38.58-84.09-4.42-133.99,31.03-161.04
				c20.71-15.79,79.29-28.04,123.78-20.18c25.06,4.43,43.46,14.43,54.77,29.74c16.91,5.95,76.03,36.76,120.19,183.95
				c6.84,22.81,6.4,60.79-17.37,92.74C1885.69,1778.22,1853.42,1803.93,1790.84,1803.93z M1714.45,1468.88
				c-34.1,0-69.63,9.39-81.3,18.29c-42.67,32.56-50.97,78.15-24.66,135.5c38.72,84.42,81.81,160.19,182.35,160.19
				c42.61,0,75.11-13.41,93.98-38.78c19.11-25.68,19.53-55.97,14.09-74.1c-45.06-150.21-103.99-169.35-108.34-170.56
				c-2.9-0.51-5.48-2.19-7.07-4.69c-7.72-12.07-22.19-20.06-43.02-23.74C1732.2,1469.52,1723.37,1468.88,1714.45,1468.88z"/>
		</g>
	</g>
	<g>
		<g>
			<path class="st0" d="M1801.23,1483.35c10.17,12.81,11.23,29.25,12.49,44.81c4.77,40.96,17.52,80.92,39.59,116.22
				c-11.3-9.02-20.65-20.24-29.08-31.98c-19.31-27.84-32.27-60.82-35.12-94.83c-0.52-8.13-2.15-16.02-5.79-23.22
				C1778,1482.88,1793.5,1473.46,1801.23,1483.35L1801.23,1483.35z"/>
		</g>
	</g>
	<g>
		<g>
			<path class="st0" d="M1666.55,1521.38c-29.77,0-46.03-38.03-46.73-39.69c-1.61-3.84,0.2-8.24,4.04-9.85
				c3.83-1.61,8.24,0.2,9.85,4.03c0.19,0.44,14.03,31.81,34.3,30.41c4.72-0.34,6.48-2.28,7.49-3.94c5.3-8.71,0.26-29.12-3.62-38.12
				c-1.64-3.82,0.12-8.24,3.94-9.89c3.81-1.64,8.24,0.12,9.89,3.94c0.14,0.33,14.05,33.15,2.65,51.9
				c-2.83,4.65-8.47,10.36-19.28,11.13C1668.22,1521.35,1667.37,1521.38,1666.55,1521.38z"/>
		</g>
	</g>
	<g>
		<g>
			<path class="st0" d="M1739.51,1511.92c-3.59,0-7.3-0.64-11.02-1.96c-28.4-10.05-34.06-46.09-34.29-47.62
				c-0.61-4.11,2.23-7.94,6.34-8.55c4.12-0.6,7.93,2.22,8.55,6.33c0.09,0.54,4.69,28.67,24.42,35.65
				c8.43,2.98,13.75-0.55,16.73-4.04c5.38-6.29,6.8-16.35,3.25-22.91c-1.98-3.65-0.62-8.22,3.03-10.2c3.66-1.98,8.22-0.62,10.2,3.03
				c6.52,12.04,4.4,28.81-5.05,39.86C1755.86,1508.33,1748,1511.92,1739.51,1511.92z"/>
		</g>
	</g>
	<g>
		<g>
			<path class="st0" d="M1613.52,1563.33c-14.69,0-31.07-10.34-34.77-12.8c-3.46-2.31-4.39-6.98-2.09-10.44
				c2.3-3.46,6.98-4.4,10.44-2.09c8.21,5.45,23.42,12.32,29.95,9.72c0.76-0.3,2.55-1.01,3.51-5.16
				c4.83-20.84-18.13-38.85-18.37-39.03c-3.29-2.54-3.91-7.26-1.38-10.55c2.53-3.29,7.24-3.92,10.53-1.4
				c1.27,0.97,30.92,24.03,23.88,54.38c-2.27,9.78-8.12,13.97-12.63,15.76C1619.74,1562.85,1616.67,1563.33,1613.52,1563.33z"/>
		</g>
	</g>
	<g>
		<path class="st0" d="M1767.51,2078.65c-34.29,32.79-76.25,57.36-120.43,74.93c-13.11,4.79-20.67-14.02-7.85-19.62
			c22.79-5.61,45.41-12.29,67.19-21.64C1727.72,2103.3,1748.29,2092.14,1767.51,2078.65L1767.51,2078.65z"/>
	</g>
	<g>
		<path class="st0" d="M1876.86,1811.63c-2.32,37.37-8.29,74.35-18.89,109.58c3.7-36.6,2.47-73.13-2.18-108.9
			C1854.55,1797,1877.11,1796.26,1876.86,1811.63L1876.86,1811.63z"/>
	</g>
	<g>
		<path class="st0" d="M1242.91,2078.65c18.24,12.73,37.29,24.13,57.13,33.39c19.83,9.29,40.43,16.41,61.4,21.48
			c13.47,3.69,8.73,23.41-4.96,20.55C1313.77,2137.18,1275.54,2110.32,1242.91,2078.65L1242.91,2078.65z"/>
	</g>
	<g>
		<path class="st0" d="M1146.26,1812.31c-4.65,35.76-5.87,72.3-2.17,108.9c-10.6-35.23-16.58-72.23-18.89-109.61
			c-0.36-5.84,4.08-10.86,9.91-11.22C1141.66,1799.9,1147.17,1805.81,1146.26,1812.31L1146.26,1812.31z"/>
	</g>
	<g>
		<g>
			<g>
				<ellipse class="st0" cx="1317.17" cy="1100.48" rx="62.01" ry="71.61"/>
			</g>
		</g>
	</g>
	<g>
		<g>
			<g>
				<ellipse class="st4" cx="1334.02" cy="1079.77" rx="20.22" ry="25.59"/>
			</g>
		</g>
	</g>
	<g class="st6">
		<g>
			<ellipse class="st4" cx="1294.05" cy="1124.61" rx="11.2" ry="17.32"/>
		</g>
	</g>
	<g>
		<g>
			<g>
				<ellipse class="st0" cx="1701.65" cy="1105.51" rx="61.07" ry="70.53"/>
			</g>
		</g>
	</g>
	<g>
		<g>
			<g>
				<ellipse class="st4" cx="1685.06" cy="1085.11" rx="19.91" ry="25.21"/>
			</g>
		</g>
	</g>
	<g class="st6">
		<g>
			<g>
				<ellipse class="st4" cx="1724.42" cy="1129.27" rx="11.03" ry="17.06"/>
			</g>
		</g>
	</g>
	<g>
		<g>
			<path class="st0" d="M1332.8,1330.17c-0.99-3.59-0.84-7.44,0.04-11.1c0.85-3.7,2.62-7.2,5.02-10.22
				c2.47-2.94,5.46-5.54,8.95-7.06c3.39-1.71,7.15-2.43,10.82-2.46c-3.13,2.04-6.15,3.69-8.79,5.8c-2.71,1.98-5.04,4.32-7.07,6.85
				C1337.58,1317.02,1334.95,1323.18,1332.8,1330.17z"/>
		</g>
		<g>
			<path class="st0" d="M1637.55,1297.06c4.02,0.04,7.97,1.28,11.58,3.14c3.63,1.86,6.86,4.56,9.5,7.75
				c2.57,3.24,4.64,6.96,5.56,10.97c1.14,3.94,1.13,8.09,0.45,12c-1.4-3.78-2.44-7.37-4.12-10.67c-1.53-3.33-3.47-6.38-5.76-9.14
				C1650.28,1305.47,1644.36,1301.11,1637.55,1297.06z"/>
		</g>
		<g>
			<path class="st0" d="M1342.58,1306.09c7.69,12.84,17.45,24.4,28.86,33.86c11.24,9.64,24.57,16.83,38.85,20.06l5.36,1.17
				c1.8,0.31,3.64,0.35,5.45,0.55l5.45,0.5l5.5-0.17c7.34-0.1,14.73-0.75,21.68-2.66c6.99-1.88,13.62-4.95,19.52-9.08
				c5.78-4.14,11.13-9.48,14.64-15.32c0.73-1.22,2.31-1.61,3.52-0.88c0.19,0.12,0.38,0.27,0.53,0.42
				c10.21,10.57,23.9,18.52,38.38,22.18c14.59,3.66,30.12,2.67,44.51-2.02c14.45-4.6,27.79-12.58,39.85-22.01
				c12.17-9.39,23.06-20.39,33.41-31.87c-9.47,12.22-20.06,23.63-31.84,33.8c-11.93,9.93-25.3,18.52-40.19,23.77
				c-14.79,5.47-31.36,6.42-46.83,2.78c-15.47-3.85-29.74-11.69-41.03-23.34l4.05-0.46c-8.58,13.62-22.39,22.49-37.36,26.39
				c-7.52,1.98-15.17,2.56-22.79,2.59l-5.72,0.11l-5.72-0.64c-1.9-0.26-3.82-0.37-5.7-0.75l-5.58-1.39
				c-14.83-3.85-28.4-11.7-39.52-21.93C1358.77,1331.51,1349.32,1319.49,1342.58,1306.09z"/>
		</g>
	</g>
	<g>
		<path class="st0" d="M1396.77,1358.43c0,0,30.29,97.93,98.76,97.1c58.1-4.56,84.24-75.94,92.12-103.33
			c-31.95,15.77-74.69,7.88-98.35-14.11C1489.3,1338.1,1456.52,1380.43,1396.77,1358.43z"/>
	</g>
	<g>
		<g>
			<path class="st1" d="M1546.78,1401.78c-3.97-15.89-33.76-24.33-48.65-1.49c-4.96-20.85-49.15-18.37-50.64,8.44
				c-0.8,14.37,6.25,28.13,12.96,37.84c10.34,5.67,22.01,9.13,35.08,8.97c20.11-1.58,36.38-11.17,49.4-24.16
				C1548.35,1420.87,1548.82,1409.94,1546.78,1401.78z"/>
		</g>
	</g>
	<g>
		<g class="st8">
			<path class="st9" d="M1545.01,1397.65c-9.21,17.37-23.54,32.27-43.92,35.08c-13.74,1.89-29.02-1.61-40.75-8.92
				c-4.76-2.97-9.2-6.73-12.81-11.09c0.54,12.9,6.83,25.04,12.92,33.85c10.34,5.67,22.01,9.13,35.08,8.97
				c20.11-1.58,36.38-11.17,49.4-24.16c3.42-10.51,3.89-21.43,1.85-29.6C1546.42,1400.32,1545.77,1398.96,1545.01,1397.65z"/>
		</g>
	</g>
	<g>
		<path class="st9" d="M1498.13,1400.29c1.43,4.05,1.49,7.82,1.31,11.59c-0.32,3.77-0.89,7.37-2.6,11.3
			c-2.26-3.71-2.57-7.78-2.39-11.64C1494.8,1407.66,1495.65,1403.81,1498.13,1400.29z"/>
	</g>
	<g>
		<path class="st0" d="M1439.69,1461.6c0,0,50.3,55.1,111.39-2.4C1529.52,1498.73,1479.22,1515.5,1439.69,1461.6z"/>
	</g>
</g>
</svg>
