<?xml version="1.0" encoding="UTF-8" standalone="no"?>
<svg
   version="1.1"
   id="svg33"
   width="1024"
   height="1024"
   viewBox="0 0 1024 1024"
   fill="#e83c4b"
   stroke-linecap="round"
   sodipodi:docname="rs.svg"
   inkscape:version="1.3.2 (091e20e, 2023-11-25)"
   xmlns:inkscape="http://www.inkscape.org/namespaces/inkscape"
   xmlns:sodipodi="http://sodipodi.sourceforge.net/DTD/sodipodi-0.dtd"
   xmlns="http://www.w3.org/2000/svg"
   xmlns:svg="http://www.w3.org/2000/svg">
  <sodipodi:namedview
     id="namedview1"
     pagecolor="#ffffff"
     bordercolor="#666666"
     borderopacity="1.0"
     inkscape:showpageshadow="2"
     inkscape:pageopacity="0.0"
     inkscape:pagecheckerboard="0"
     inkscape:deskcolor="#d1d1d1"
     showgrid="false"
     inkscape:zoom="0.62960027"
     inkscape:cx="212.0393"
     inkscape:cy="470.13957"
     inkscape:window-width="1866"
     inkscape:window-height="1016"
     inkscape:window-x="1974"
     inkscape:window-y="27"
     inkscape:window-maximized="1"
     inkscape:current-layer="svg33" />
  <defs
     id="defs4">
    <linearGradient
       id="linearGradient916">
      <stop
         offset="0"
         id="stop914" />
    </linearGradient>
    <style
       type="text/css"
       id="style2" />
  </defs>
  <g
     id="g31"
     transform="translate(143.247 10.042) scale(1.41255)">
    <path
       id="RS-00"
       d="M 109.94984 0.00068581643 L 106.15019 3.7201338 L 97.440599 2.2406508 L 95.999832 5.1000628 L 92.509911 7.750688 L 91.019367 7.2999296 L 89.530205 8.5899835 L 89.969902 10.640519 L 92.139349 13.230306 L 84.410087 17.700557 L 84.459864 20.37054 L 77.950139 26.849846 L 73.500628 28.770409 L 71.360217 25.899935 L 60.810259 32.61983 L 63.350269 36.809394 L 62.849733 37.359706 L 61.129661 35.970098 L 54.919981 36.220366 L 54.369668 35.509661 L 50.099908 35.620277 L 50.44973 36.629644 L 43.290138 36.010197 L 41.730459 28.770409 L 37.910074 28.099802 L 32.640626 35.400428 L 34.439511 42.019386 L 25.819794 42.189458 L 23.449856 45.140128 L 25.129829 49.509442 L 23.459535 49.679514 L 22.320194 48.039638 L 19.109578 49.140263 L 11.959665 47.479647 L 8.4199674 50.999987 L 6.3293335 50.220147 L 6.8506093 52.08955 L 1.7498496 53.239952 L 0.87045591 51.51988 L -0.00064157021 52.190487 L 1.6903937 54.579783 L 2.1798675 59.239463 L 5.6697882 61.989642 L 4.8996274 72.170421 L 5.589592 73.860074 L 8.0494053 74.989735 L 9.3505208 77.179923 L 12.360647 89.939427 L 14.990531 92.84032 L 19.829962 95.319491 L 19.579694 98.040634 L 16.900032 101.34942 L 16.250166 105.17948 L 12.810022 105.36062 L 11.630584 106.58015 L 13.110067 109.32065 L 10.690352 112.85067 L 10.220236 115.25933 L 15.21038 120.53016 L 17.620416 121.56027 L 22.790311 120.28957 L 23.93933 117.60991 L 26.880321 117.46058 L 28.430321 121.53953 L 32.730501 122.18939 L 37.149592 125.38065 L 36.820511 128.11009 L 35.07002 130.34038 L 29.670598 130.89069 L 27.599322 130.17998 L 24.630677 128.85951 L 23.279784 130.73997 L 22.629918 137.2497 L 27.060071 142.45969 L 25.810115 145.96067 L 23.889553 146.02981 L 20.919525 149.51005 L 21.479516 151.70024 L 27.209402 156.61019 L 35.530457 158.16019 L 38.309673 165.51059 L 56.640053 175.14935 L 68.189699 177.07959 L 75.819407 177.19021 L 76.480335 183.56028 L 75.249737 185.67995 L 75.490326 188.37068 L 70.219494 188.98045 L 65.320608 183.22982 L 62.259323 183.52019 L 61.299733 188.47023 L 58.339384 188.47023 L 48.270603 182.96987 L 46.999907 183.05975 L 46.789738 183.98062 L 48.639783 186.10029 L 48.190407 188.43013 L 42.919576 196.14972 L 41.12069 197.03049 L 35.949413 196.36956 L 35.84018 199.79035 L 37.869976 202.85025 L 36.709895 205.06948 L 39.070155 207.7201 L 38.989958 210.68045 L 36.709895 213.06007 L 37.629387 218.31016 L 36.390493 220.63032 L 31.029787 223.98059 L 38.77011 225.20013 L 42.539335 223.3404 L 43.529344 224.18938 L 43.240361 227.30044 L 44.089335 228.17983 L 42.519977 230.24005 L 37.57961 232.30026 L 34.399413 236.17042 L 25.609624 237.34018 L 27.279919 245.95022 L 33.390046 244.53019 L 35.360385 241.68046 L 39.270645 240.32957 L 40.679611 238.20022 L 43.99946 236.81061 L 47.399506 233.94982 L 50.149685 234.80017 L 51.749462 238.54036 L 57.530508 235.54959 L 60.399599 237.29041 L 63.830064 236.44973 L 69.290324 239.98943 L 70.360529 239.31052 L 70.230556 238.33987 L 65.980153 235.88006 L 66.670118 234.12957 L 66.807005 234.16275 L 66.129484 235.88006 L 70.049423 237.98037 L 72.539656 240.82042 L 72.680691 243.71026 L 74.380022 244.45 L 72.210574 247.20986 L 69.94019 246.61944 L 71.280021 249.18987 L 68.999958 252.2401 L 67.730644 252.80009 L 65.720207 252.15022 L 66.469627 253.63938 L 65.080019 253.83988 L 64.709457 254.92944 L 65.469939 256.89978 L 62.769537 258.53965 L 64.770296 259.43011 L 66.289877 258.78992 L 67.050359 260.46989 L 64.080331 260.99947 L 63.530019 261.96044 L 64.779975 262.92971 L 64.449511 264.6401 L 66.729574 266.83997 L 65.680109 268.52962 L 63.400046 267.77052 L 64.070652 269.42008 L 63.34059 271.79001 L 64.829752 274.46 L 60.280687 276.83961 L 59.600401 280.49961 L 57.819491 282.02057 L 56.609633 285.18003 L 57.060392 286.71067 L 55.810436 286.86968 L 54.990498 289.44979 L 52.999418 290.48957 L 53.350623 293.40982 L 49.180416 295.43962 L 47.810166 298.48984 L 49.530238 299.57941 L 49.729346 301.2096 L 47.380148 303.70951 L 46.650085 306.09051 L 40.910521 306.46937 L 39.609405 310.25934 L 41.289379 311.71946 L 43.309496 318.71037 L 43.330236 325.44962 L 42.579433 326.90974 L 38.38019 329.49953 L 37.560252 333.92968 L 38.059405 334.91969 L 39.379878 334.91969 L 38.340092 337.14998 L 39.429655 339.46046 L 41.640584 340.02045 L 41.180146 343.91965 L 44.150174 346.65047 L 45.860567 349.73941 L 47.630416 350.19017 L 51.470158 348.61943 L 52.890185 352.43014 L 55.10941 353.85016 L 57.859589 353.21965 L 60.56967 351.24931 L 62.849733 352.46055 L 66.480689 352.27942 L 66.859547 355.57991 L 69.500493 359.02974 L 68.879664 361.39 L 70.920521 363.80971 L 70.89978 367.89972 L 77.210397 370.55035 L 78.649782 375.0206 L 81.950274 377.01997 L 83.79064 374.70949 L 85.969767 374.08036 L 86.739927 375.59027 L 85.170569 377.57029 L 85.210667 379.12029 L 88.169633 380.16975 L 89.662943 384.67457 L 89.539884 384.7603 L 91.049786 386.52047 L 95.900278 388.08015 L 98.650457 392.38033 L 99.569949 391.87979 L 100.37053 388.1396 L 102.07954 388.51016 L 102.53998 391.65994 L 104.3997 391.22992 L 105.04957 392.01944 L 103.84939 394.66039 L 104.64029 398.06043 L 97.339663 401.0996 L 97.599609 403.67002 L 94.220304 405.61962 L 92.36058 408.82056 L 79.70063 408.50946 L 76.409817 406.97052 L 74.469897 408.14028 L 71.299379 406.35937 L 69.779798 404.1996 L 67.929752 404.36967 L 64.170206 401.70936 L 58.910437 401.21989 L 55.999865 398.02034 L 54.369668 398.46003 L 54.830106 403.49995 L 57.440633 408.27993 L 62.310482 412.19019 L 62.759858 414.9694 L 66.159904 416.48069 L 66.670118 420.85968 L 70.129619 422.87012 L 72.579754 427.62935 L 74.659326 429.41026 L 76.149871 438.4199 L 80.690639 440.08052 L 83.009418 442.00938 L 84.079623 445.74956 L 89.820571 450.60006 L 92.330161 466.19961 L 90.569991 467.64038 L 88.960535 465.7295 L 87.529446 466.8398 L 89.010312 469.84025 L 87.949785 473.1601 L 88.779402 473.08958 L 89.929803 474.81933 L 89.010312 475.91996 L 82.900185 475.74988 L 79.100541 478.44061 L 77.390148 478.19034 L 75.549781 474.11969 L 74.269406 474.10033 L 73.709415 472.25029 L 72.440102 471.58936 L 67.639387 473.81964 L 59.850669 472.16041 L 57.509767 473.11032 L 57.060392 483.84003 L 56.240454 484.92959 L 53.700444 484.40002 L 54.189918 490.72032 L 63.210616 500.80016 L 67.799779 503.86006 L 73.699736 506.21064 L 79.419943 511.26024 L 83.150453 512.38023 L 84.36031 517.41047 L 86.179936 519.92974 L 92.379938 522.34945 L 95.250411 531.12956 L 104.14943 536.68938 L 108.13021 543.91949 L 112.61014 546.74018 L 118.81982 548.43951 L 120.80952 549.84018 L 122.25996 546.53001 L 123.73945 546.36962 L 125.17054 548.38974 L 127.43954 556.80067 L 132.11996 557.43947 L 133.6105 559.45959 L 135.38035 558.23037 L 137.63 559.86057 L 144.5006 560.05968 L 148.95011 557.16017 L 151.43067 562.67988 L 163.77951 576.28974 L 166.86983 577.87984 L 171.51016 582.34041 L 175.82969 580.76 L 185.69937 585.20951 L 188.85053 587.69974 L 194.76016 588.81972 L 195.23996 591.2505 L 201.26021 594.45973 L 202.47975 596.96932 L 202.29032 605.81995 L 200.13055 608.66968 L 219.13983 605.6803 L 221.2194 604.45938 L 222.74037 601.91937 L 223.48979 600.22972 L 223.57966 599.14983 L 218.58952 591.66945 L 218.35031 589.61062 L 219.8298 586.49956 L 229.60959 579.64969 L 234.60942 577.84942 L 238.3496 579.72021 L 238.29983 577.36963 L 245.81062 576.28007 L 246.3001 574.90014 L 246.16045 571.07975 L 244.10991 564.44973 L 244.16937 560.05968 L 241.82017 560.48002 L 240.83984 559.30058 L 240.23975 556.74951 L 241.09978 552.01931 L 235.54965 546.35026 L 234.93988 543.61944 L 243.2402 541.06975 L 250.87958 536.29946 L 254.0501 535.37996 L 257.97972 531.89972 L 260.64002 531.25954 L 260.84051 531.25954 L 261.28989 531.25954 L 263.83958 531.34941 L 267.27004 533.51056 L 274.15033 545.28974 L 273.86964 547.4495 L 269.28048 545.87047 L 267.05019 546.14009 L 265.71036 547.34027 L 266.6105 551.51048 L 269.85015 554.75013 L 273.30965 555.52997 L 276.79957 557.63028 L 277.00006 557.72016 L 277.63057 557.98978 L 279.65069 558.84014 L 281.73994 558.12944 L 282.48936 557.85981 L 284.57999 556.47988 L 289.19957 558.57052 L 295.80056 555.56039 L 298.86046 558.67975 L 300.76028 564.22988 L 303.06938 562.15031 L 304.99962 562.02034 L 306.56069 567.89955 L 306.82063 584.20982 L 310.18058 579.49068 L 312.85056 578.82007 L 314.63977 580.15991 L 316.52991 585.79992 L 313.68986 594.40995 L 314.20975 595.83966 L 320.01983 595.28935 L 326.14932 596.82967 L 329.54936 600.20068 L 331.82943 604.70965 L 335.74937 603.74038 L 336.06047 604.17039 L 336.70066 605.08021 L 335.8102 611.34934 L 332.70052 616.89948 L 333.18032 621.60064 L 342.61997 622.30028 L 348.30008 625.27999 L 348.43006 625.32977 L 354.89968 625.20947 L 359.96034 626.41933 L 364.19969 629.15983 L 369.18015 637.92058 L 372.36035 640.64034 L 375.02065 639.5494 L 379.95964 633.76973 L 382.57984 633.63008 L 382.70014 633.7006 L 383.59059 634.23017 L 386.4901 636.78954 L 387.05009 642.72959 L 388.89046 645.77014 L 383.73992 648.71943 L 380.3302 654.63044 L 377.74041 666.13999 L 375.21976 669.1197 L 368.54964 672.50039 L 364.83987 675.91011 L 363.89964 678.66029 L 364.95049 681.02055 L 363.57056 687.62015 L 359.7004 690.42011 L 357.68028 694.1603 L 357.44937 697.48014 L 358.85004 700.52069 L 361.36931 701.74023 L 361.23934 709.39067 L 368.95062 711.73019 L 381.58015 708.81962 L 389.33016 700.78064 L 394.62035 699.95932 L 399.75982 702.01953 L 402.60955 701.27011 L 403.64934 696.07948 L 404.73061 694.77006 L 412.98944 698.55035 L 416.71027 701.3904 L 418.62945 700.61056 L 428.01933 703.16025 L 433.52937 699.89018 L 435.99056 701.64067 L 439.10024 701.53006 L 440.49953 702.83947 L 440.95997 701.58951 L 439.58004 699.46016 L 439.45006 697.10958 L 444.36001 695.1904 L 447.42959 692.14986 L 457.88968 700.66034 L 459.89044 699.81966 L 460.50988 698.30008 L 464.76996 697.65989 L 465.58022 696.66021 L 468.12991 696.67956 L 469.19044 698.04014 L 471.70003 696.28964 L 472.91956 694.25985 L 472.55039 691.48063 L 475.23973 688.1995 L 475.0102 685.77978 L 480.34049 684.88933 L 480.69031 682.23041 L 482.25967 680.64031 L 483.41007 673.64941 L 485.35967 669.75989 L 483.74053 665.72933 L 480.55066 662.47032 L 477.46033 660.85948 L 473.88054 656.44039 L 469.76979 655.38954 L 470.01038 651.75997 L 473.39936 642.77937 L 472.00007 641.4105 L 474.83045 636.60011 L 472.64026 634.1403 L 474.08932 633.31068 L 476.40949 628.32054 L 477.58063 628.12972 L 477.97055 624.96059 L 472.86011 618.47022 L 472.33054 615.94957 L 470.46943 613.55059 L 470.1998 610.58057 L 471.01974 610.03025 L 474.67006 608.90059 L 478.72965 605.6402 L 479.95057 604.25059 L 480.35016 601.58061 L 482.58045 600.26981 L 487.44062 603.16932 L 487.40052 600.87958 L 488.71961 598.31054 L 493.18019 597.62057 L 496.02024 600.76067 L 498.25053 599.95041 L 500.45039 601.08007 L 501.07952 602.67985 L 503.39 599.7195 L 504.50998 600.5104 L 505.55945 599.23003 L 509.62042 599.30054 L 514.06025 591.46067 L 512.8504 588.47958 L 514.54973 586.5203 L 514.67002 582.42061 L 522.93992 578.63065 L 525.01949 575.29973 L 529.26021 573.08051 L 532.15972 565.14938 L 540.1199 560.01958 L 541.97962 555.2396 L 542.25063 551.30999 L 540.84996 549.84018 L 543.46049 545.36025 L 537.6504 542.58933 L 534.94032 543.30004 L 529.35009 539.19067 L 525.81039 533.66957 L 525.64032 531.97024 L 522.37993 529.08041 L 522.62052 526.59018 L 520.26994 520.74967 L 516.23938 518.41983 L 512.99005 514.75984 L 512.51025 512.38023 L 506.86056 509.11015 L 501.31043 509.34936 L 500.00931 508.22938 L 498.56993 503.47982 L 490.72037 501.8994 L 487.8098 497.14985 L 484.60057 497.10007 L 482.42006 495.7395 L 476.35003 479.19003 L 476.96948 472.50055 L 475.14017 468.72995 L 476.65007 465.62994 L 475.00052 462.5894 L 471.44976 461.3906 L 467.98058 458.59065 L 465.83049 455.32057 L 465.1903 451.11995 L 464.11042 449.51049 L 464.94004 444.3005 L 462.49958 442.16009 L 459.3097 435.11941 L 462.99044 424.43948 L 464.03022 417.4306 L 463.29048 414.26976 L 465.80007 411.92056 L 465.84017 404.17056 L 466.7804 402.42975 L 466.07938 400.31008 L 469.98964 399.1901 L 470.56069 397.98992 L 481.59044 397.38015 L 483.48058 394.92033 L 482.24999 392.52966 L 482.37996 391.64058 L 485.83946 390.71003 L 488.19004 391.27002 L 488.75971 389.76012 L 493.53969 389.55963 L 493.88951 387.9004 L 492.79995 386.92974 L 493.43045 383.55044 L 492.16944 381.71007 L 493.36962 374.27947 L 494.47992 374.65971 L 494.4896 372.58014 L 492.57042 371.20021 L 493.43045 369.61011 L 494.20061 370.13001 L 495.38005 369.40962 L 494.37069 367.85962 L 495.98014 367.55958 L 495.49067 366.76038 L 496.75998 365.1606 L 496.58023 363.42947 L 497.76935 364.1305 L 499.29999 362.37033 L 499.95954 363.76961 L 500.23054 360.10962 L 501.9202 356.18 L 501.8801 352.90993 L 498.65013 349.33981 L 488.88969 347.52987 L 485.48964 346.05038 L 480.84932 339.30007 L 478.23049 331.7395 L 477.85993 325.74966 L 473.29013 321.25038 L 472.37064 316.62941 L 473.94967 315.18035 L 480.34049 316.4704 L 484.17055 314.67981 L 485.40944 312.65002 L 486.30958 305.08944 L 488.95052 302.27981 L 494.46056 302.36968 L 503.44946 308.34984 L 511.78987 304.02062 L 510.66989 299.29042 L 504.97042 292.55947 L 501.96997 291.64965 L 500.50985 289.81067 L 493.94067 290.30014 L 487.89968 286.90978 L 473.82938 271.73056 L 467.05971 273.90001 L 463.6804 278.21954 L 457.10016 278.88047 L 453.01015 281.92931 L 451.85975 285.86031 L 448.75007 288.36022 L 446.88066 294.52013 L 443.85948 298.82999 L 436.17031 315.49007 L 430.72941 316.13994 L 423.30019 311.60055 L 421.88017 306.02968 L 417.6906 303.20068 L 416.31067 294.22976 L 414.08039 291.85982 L 412.03953 286.61941 L 407.24988 286.20046 L 402.8294 283.97017 L 398.89978 284.35041 L 395.78043 283.27053 L 387.87003 282.71053 L 386.05041 281.0596 L 376.98961 282.72989 L 373.10977 280.70978 L 365.16066 281.23935 L 363.05067 278.29974 L 362.78934 271.70014 L 361.17988 266.48047 L 359.03947 263.55054 L 352.52974 261.15986 L 349.07992 261.63965 L 344.29995 260.49064 L 335.12992 260.38002 L 332.74062 254.61004 L 329.40003 251.89028 L 329.18986 250.86985 L 330.10935 250.44951 L 328.9396 249.96003 L 329.66966 249.30049 L 328.62019 248.48055 L 329.9296 248.48055 L 329.31984 246.73006 L 330.79932 243.74068 L 335.51984 243.9301 L 338.14004 242.9401 L 339.81034 243.51944 L 341.40044 242.45062 L 343.39013 244.02966 L 343.82983 243.20972 L 346.92983 243.36043 L 349.02047 241.72056 L 355.49009 240.14982 L 354.54018 233.85026 L 353.55985 232.44959 L 343.78005 227.45945 L 339.64995 227.09995 L 335.60971 223.77042 L 336.57069 222.35039 L 332.42952 219.59053 L 332.96047 219.08032 L 329.53001 216.15039 L 331.89994 214.78014 L 334.05003 214.95989 L 335.43964 213.33937 L 337.57037 214.05008 L 341.92033 212.67983 L 341.2594 209.82042 L 342.1305 206.99004 L 345.50013 203.31069 L 343.92939 200.66974 L 344.88068 197.82001 L 351.21065 194.76011 L 351.35999 192.5796 L 349.95932 189.17955 L 347.08055 188.70944 L 345.40057 184.97063 L 339.42042 182.66983 L 335.71065 178.18022 L 334.03068 180.04962 L 330.81038 178.66001 L 329.53001 179.2601 L 325.18005 176.11033 L 320.79967 175.59043 L 318.60949 177.89953 L 312.42054 173.75975 L 311.2895 174.06947 L 309.30948 171.21974 L 309.98009 169.41947 L 307.77054 167.2196 L 306.45975 163.41996 L 306.83031 161.12054 L 305.70065 160.40015 L 304.59035 161.30029 L 303.92942 160.32963 L 301.88994 163.86933 L 295.68994 165.56037 L 293.66015 161.66947 L 291.11046 161.82986 L 291.29989 159.06032 L 285.44971 160.37941 L 285.15934 159.67009 L 284.66019 157.26005 L 282.84056 156.94065 L 281.00988 154.4601 L 278.12972 152.70961 L 276.5894 149.2501 L 274.37018 149.07035 L 274.21946 148.10938 L 274.93985 148.01951 L 272.95983 143.58935 L 270.4295 143.69997 L 265.59007 140.88065 L 266.52062 140.84056 L 267.05987 138.30055 L 267.87981 138.36968 L 266.10028 134.95028 L 261.67013 132.15032 L 253.57031 132.11022 L 254.39992 130.2104 L 253.28962 128.45991 L 258.40974 125.47053 L 261.57057 121.88935 L 256.69934 112.26994 L 253.74038 113.25027 L 252.8997 107.77065 L 254.69997 105.92061 L 255.99002 101.60937 L 258.01014 99.600313 L 257.79029 95.049865 L 256.88048 94.119312 L 257.71009 91.770114 L 257.74051 84.759854 L 258.41941 82.699639 L 259.44952 82.569666 L 260.38975 77.680458 L 255.25996 75.639601 L 254.0501 81.529879 L 248.66036 81.290673 L 246.26 82.630504 L 244.44037 82.240584 L 243.4794 80.549549 L 242.35942 73.55035 L 239.5802 73.930591 L 238.06062 70.930144 L 239.32026 67.70017 L 232.9806 61.209802 L 231.31999 61.660561 L 230.76 59.780096 L 229.06066 60.210114 L 227.48024 52.559666 L 224.50054 53.339506 L 224.94023 54.47055 L 220.52944 55.940354 L 216.32052 44.469521 L 211.64978 41.289324 L 206.25035 42.219877 L 198.55981 35.790348 L 199.81944 34.450517 L 197.59054 28.569918 L 198.02056 26.589899 L 193.70932 22.31046 L 192.69995 19.589318 L 188.99018 17.410191 L 188.03059 15.099709 L 190.29959 13.89953 L 187.83978 13.859432 L 188.40945 11.919512 L 186.3202 13.960369 L 185.77956 11.290386 L 183.58938 12.609476 L 177.15017 5.8398043 L 174.64058 7.7797246 L 171.78946 8.4904295 L 168.06033 5.8799025 L 166.52969 2.4300799 L 162.04976 8.379814 L 161.40957 7.6704918 L 158.51974 8.1406079 L 156.77063 3.4698661 L 152.96961 2.7093842 L 144.83936 2.7605439 L 138.52045 6.7095191 L 134.65029 7.5806166 L 130.00997 11.59043 L 122.56969 8.2097426 L 118.91937 3.7505531 L 117.05965 3.7906512 L 114.29011 0.4998385 L 112.48017 1.7401154 L 109.94984 0.00068581643 z " />
  </g>
</svg>
